<?xml version="1.0" standalone="no"?>
<!DOCTYPE svg PUBLIC "-//W3C//DTD SVG 1.1//EN" "http://www.w3.org/Graphics/SVG/1.1/DTD/svg11.dtd" >
<svg xmlns="http://www.w3.org/2000/svg" xmlns:xlink="http://www.w3.org/1999/xlink" version="1.1">
<metadata>
Created by FontForge 20170731 at Mon May  9 10:45:55 2022
 By Aleksey,,,
Copyright (c) 2011 by Colophon Foundry. All rights reserved. |DCNT
</metadata>
<defs>
<font id="Relative-Book" horiz-adv-x="1269" >
  <font-face 
    font-family="Relative"
    font-weight="400"
    font-stretch="normal"
    units-per-em="2048"
    panose-1="2 0 5 6 4 0 0 2 0 4"
    ascent="1638"
    descent="-410"
    x-height="1028"
    cap-height="1434"
    bbox="-135.778 -467 2515 2044"
    underline-thickness="102"
    underline-position="-307"
    unicode-range="U+000D-FB02"
  />
<missing-glyph horiz-adv-x="1292" 
d="M1120 1413v-1393q0 -20 -20 -20h-907q-21 0 -21 20v1393q0 21 21 21h907q20 0 20 -21zM948 1270h-604v-1106h604v1106z" />
    <glyph glyph-name=".notdef" horiz-adv-x="1292" 
d="M1120 1413v-1393q0 -20 -20 -20h-907q-21 0 -21 20v1393q0 21 21 21h907q20 0 20 -21zM948 1270h-604v-1106h604v1106z" />
    <glyph glyph-name=".null" horiz-adv-x="0" 
 />
    <glyph glyph-name=".null" horiz-adv-x="0" 
 />
    <glyph glyph-name="nonmarkingreturn" horiz-adv-x="682" 
 />
    <glyph glyph-name="CR" unicode="&#xd;" horiz-adv-x="0" 
 />
    <glyph glyph-name="space" unicode=" " horiz-adv-x="522" 
 />
    <glyph glyph-name="exclam" unicode="!" horiz-adv-x="618" 
d="M244 1434h131q20 0 20 -21v-997q0 -21 -20 -21h-131q-21 0 -21 21v997q0 21 21 21zM227 205h164q21 0 21 -21v-164q0 -20 -21 -20h-164q-20 0 -20 20v164q0 21 20 21z" />
    <glyph glyph-name="quotedbl" unicode="&#x22;" horiz-adv-x="851" 
d="M152 983v430q0 21 20 21h119q20 0 20 -21v-430q0 -20 -20 -20h-119q-20 0 -20 20zM541 983v430q0 21 20 21h119q20 0 20 -21v-430q0 -20 -20 -20h-119q-20 0 -20 20z" />
    <glyph glyph-name="numbersign" unicode="#" horiz-adv-x="1591" 
d="M850 20l65 386h-350l-65 -386q-3 -20 -23 -20h-131q-21 0 -18 20l65 386h-229q-21 0 -21 20v123q0 20 21 20h258l51 295h-227q-21 0 -21 21v123q0 20 21 20h254l67 385q3 21 23 21h131q21 0 18 -21l-67 -385h350l68 385q3 21 22 21h131q22 0 19 -21l-68 -385h231
q21 0 21 -20v-123q0 -21 -21 -21h-258l-51 -295h227q21 0 21 -20v-123q0 -20 -21 -20h-256l-65 -386q-3 -20 -23 -20h-131q-21 0 -18 20zM645 864l-51 -295h350l51 295h-350z" />
    <glyph glyph-name="dollar" unicode="$" horiz-adv-x="1208" 
d="M514 -184v170q-195 25 -317.5 146t-122.5 302q0 21 20 21h131q21 0 21 -21q5 -107 76 -184t192 -100v526q-97 28 -168 61t-127.5 79.5t-85.5 110t-29 144.5q0 161 116 259t294 120v168q0 20 21 20h131q20 0 20 -20v-168q180 -24 286 -137t111 -258q0 -21 -20 -21h-131
q-21 0 -21 21q-6 87 -67 147t-158 84v-481q81 -23 143 -46t121 -56.5t96.5 -73t60.5 -93t23 -118.5q0 -195 -120 -305.5t-324 -128.5v-168q0 -21 -20 -21h-131q-21 0 -21 21zM958 408q0 80 -72 132.5t-200 88.5v-482q131 14 201.5 79.5t70.5 181.5zM276 1079q0 -82 61 -134
t177 -91v432q-107 -14 -172.5 -68.5t-65.5 -138.5z" />
    <glyph glyph-name="percent" unicode="%" horiz-adv-x="1814" 
d="M1696 367q0 -89 -30.5 -160.5t-81 -115.5t-112.5 -67.5t-129 -23.5t-129 23.5t-112 67.5t-80.5 115.5t-30.5 160.5t30.5 160.5t80.5 115.5t112 67t129 23t129 -23t112.5 -67t81 -115.5t30.5 -160.5zM1567 367q0 119 -66.5 180t-157.5 61t-157 -61t-66 -180t66 -180.5
t157 -61.5t157.5 61.5t66.5 180.5zM823 1067q0 -89 -30.5 -160.5t-80.5 -115.5t-112 -67.5t-129 -23.5t-129 23.5t-112 67.5t-80.5 115.5t-30.5 160.5t30.5 160.5t80.5 115.5t112 67.5t129 23.5t129 -23.5t112 -67.5t80.5 -115.5t30.5 -160.5zM694 1067q0 119 -66 180.5
t-157 61.5t-157 -61.5t-66 -180.5t66 -180.5t157 -61.5t157 61.5t66 180.5zM297 82l1133 1345q12 16 28 0l55 -47q14 -14 5 -28l-1133 -1346q-13 -16 -29 0l-55 47q-13 13 -4 29z" />
    <glyph glyph-name="ampersand" unicode="&#x26;" horiz-adv-x="1388" 
d="M1270 571h-164q-14 -165 -76 -295l176 -243q6 -18 6 -19q0 -14 -16 -14h-156q-14 0 -26 18l-82 113q-139 -151 -385 -151q-194 0 -311 110t-117 307q0 281 284 437q-53 72 -81.5 138t-28.5 154q0 133 95 230.5t249 97.5q151 0 245.5 -85t94.5 -218q0 -115 -52 -188.5
t-153 -124.5l-117 -60l269 -358q34 124 34 297q0 18 21 18h291q20 0 20 -20v-123q0 -21 -20 -21zM547 139q192 0 291 117l-334 444q-108 -62 -160.5 -135t-52.5 -174q0 -120 72.5 -186t183.5 -66zM457 1133q0 -52 18.5 -93.5t65.5 -107.5l18 -27l125 56q68 30 98.5 73
t30.5 107q0 72 -49 117t-127 45q-81 0 -130.5 -46t-49.5 -124z" />
    <glyph glyph-name="quotesingle" unicode="'" horiz-adv-x="462" 
d="M152 983v430q0 21 20 21h119q20 0 20 -21v-430q0 -20 -20 -20h-119q-20 0 -20 20z" />
    <glyph glyph-name="parenleft" unicode="(" horiz-adv-x="731" 
d="M350 655v-280q0 -97 4 -161.5t17.5 -124.5t31.5 -100.5t55 -88t79 -87.5t112 -100q15 -12 2 -28l-78 -97q-8 -8 -14 -8q-5 0 -14 6q-216 175 -291.5 327t-75.5 398v408q0 246 75.5 398t291.5 327q9 6 14 6q6 0 14 -8l78 -96q13 -17 -2 -29q-70 -60 -112 -100t-79 -87.5
t-55 -88t-31.5 -100.5t-17.5 -124.5t-4 -161.5z" />
    <glyph glyph-name="parenright" unicode=")" horiz-adv-x="741" 
d="M391 375v280q0 97 -4 161.5t-17.5 124.5t-31.5 100.5t-55 88t-79 87.5t-112 100q-15 12 -2 29l78 96q8 8 14 8t15 -6q146 -119 224.5 -223.5t110 -220t31.5 -281.5v-408q0 -166 -31.5 -281.5t-110 -220t-224.5 -223.5q-9 -6 -15 -6t-14 8l-78 97q-13 16 2 28
q70 60 112 100t79 87.5t55 88t31.5 100.5t17.5 124.5t4 161.5z" />
    <glyph glyph-name="asterisk" unicode="*" horiz-adv-x="964" 
d="M115 1130l30 99q6 18 27 12l238 -78v250q0 21 20 21h102q21 0 21 -21v-250l238 78q20 6 26 -14l31 -97q6 -20 -12 -26l-240 -78l147 -201q13 -19 -2 -28l-84 -60q-17 -12 -30 4l-146 201l-145 -201q-13 -16 -31 -4l-84 60q-15 9 -2 28l148 201l-240 78q-18 6 -12 26z" />
    <glyph glyph-name="plus" unicode="+" horiz-adv-x="1171" 
d="M666 1133v-353h352q20 0 20 -20v-119q0 -20 -20 -20h-352v-353q0 -20 -21 -20h-119q-20 0 -20 20v353h-352q-21 0 -21 20v119q0 20 21 20h352v353q0 20 20 20h119q21 0 21 -20z" />
    <glyph glyph-name="comma" unicode="," horiz-adv-x="593" 
d="M217 -111q60 0 77 15.5t17 70.5v25h-94q-20 0 -20 20v156q0 21 20 21h156q20 0 20 -21v-215q0 -74 -30.5 -109.5t-102.5 -35.5h-43q-20 0 -20 20v33q0 20 20 20z" />
    <glyph glyph-name="hyphen" unicode="-" horiz-adv-x="1052" 
d="M154 780h745q21 0 21 -20v-119q0 -20 -21 -20h-745q-21 0 -21 20v119q0 20 21 20z" />
    <glyph glyph-name="period" unicode="." horiz-adv-x="593" 
d="M217 197h156q20 0 20 -21v-156q0 -20 -20 -20h-156q-20 0 -20 20v156q0 21 20 21z" />
    <glyph glyph-name="slash" unicode="/" horiz-adv-x="987" 
d="M61 20l711 1393q9 21 29 21h141q21 0 12 -21l-710 -1393q-9 -20 -29 -20h-141q-22 0 -13 20z" />
    <glyph glyph-name="zero" unicode="0" horiz-adv-x="1273" 
d="M96 717q0 181 42.5 324t117.5 232t172 135t209 46t209 -46t172 -135t117.5 -232t42.5 -324t-42.5 -324t-117.5 -232t-172 -135t-209 -46t-209 46t-172 135t-117.5 232t-42.5 324zM268 717q0 -155 28 -269t79.5 -180.5t116 -97.5t145.5 -31t145.5 31t116 97.5t79.5 180.5
t28 269t-28 269t-79.5 180t-116 97t-145.5 31t-145.5 -31t-116 -97t-79.5 -180t-28 -269z" />
    <glyph glyph-name="one" unicode="1" horiz-adv-x="806" 
d="M446 20v1186l-274 -149q-12 -6 -22 -6q-15 0 -15 18v141q0 18 23 31l331 182q18 11 31 11h74q20 0 20 -21v-1393q0 -20 -20 -20h-127q-21 0 -21 20z" />
    <glyph glyph-name="two" unicode="2" horiz-adv-x="1243" 
d="M143 20v86q0 28 23 48l579 559q76 74 104 148t28 173q0 113 -75 186.5t-202 73.5q-135 0 -211 -79.5t-76 -196.5q0 -18 -6 -24.5t-20 -6.5h-117q-25 0 -25 31q5 189 126 312.5t329 123.5q200 0 322 -117.5t122 -298.5q0 -138 -45 -241t-139 -191l-469 -446h676
q20 0 20 -21v-119q0 -20 -20 -20h-903q-21 0 -21 20z" />
    <glyph glyph-name="three" unicode="3" horiz-adv-x="1232" 
d="M477 707v114q0 23 23 23h104q128 0 198 58t70 177q0 99 -79.5 157t-190.5 58q-112 0 -186 -62t-84 -171q-1 -16 -7 -20.5t-20 -4.5h-112q-27 0 -27 35q12 170 135.5 276.5t300.5 106.5q190 0 310 -100t120 -254q0 -119 -43 -194.5t-133 -131.5q242 -96 242 -356
q0 -202 -136.5 -320t-355.5 -118q-208 0 -339.5 122t-149.5 320q0 35 26 35h111q27 0 29 -27q14 -134 101 -212.5t222 -78.5q147 0 235.5 72t88.5 213q0 124 -80.5 192t-228.5 68h-121q-23 7 -23 23z" />
    <glyph glyph-name="four" unicode="4" horiz-adv-x="1224" 
d="M735 20v275h-629q-20 0 -20 20v76q0 25 16 47l656 979q10 17 26 17h99q20 0 20 -21v-958h203q20 0 20 -21v-119q0 -20 -20 -20h-203v-275q0 -20 -22 -20h-125q-21 0 -21 20zM735 1104l-438 -649h438v649z" />
    <glyph glyph-name="five" unicode="5" horiz-adv-x="1245" 
d="M154 668l88 745q3 21 20 21h754q20 0 20 -21v-119q0 -20 -20 -20h-629l-59 -432q154 108 329 108q211 0 333 -128t122 -353q0 -154 -65.5 -266.5t-174.5 -167.5t-247 -55q-206 0 -338 118t-144 301q0 31 25 31h117q12 0 16.5 -6t9.5 -25q18 -113 104 -186.5t210 -73.5
q153 0 236 85.5t83 240.5q0 150 -84.5 238t-232.5 88q-171 0 -299 -125q-19 -19 -35 -19h-119q-20 0 -20 21z" />
    <glyph glyph-name="six" unicode="6" horiz-adv-x="1280" 
d="M152 653q0 398 140 599.5t378 201.5q180 0 298 -95t144 -261q0 -21 -22 -21h-123q-17 0 -23 21q-29 105 -103 155t-171 50q-147 0 -240.5 -133t-97.5 -398q63 76 158.5 115t193.5 39q206 0 335.5 -125.5t129.5 -347.5q0 -109 -40 -200t-107 -150t-154 -91t-182 -32
q-88 0 -162 21t-140 70t-112 125t-73 192.5t-27 264.5zM350 453q0 -141 85 -227.5t231 -86.5t230.5 86.5t84.5 227.5t-84.5 227t-230.5 86t-231 -86t-85 -227z" />
    <glyph glyph-name="seven" unicode="7" horiz-adv-x="1044" 
d="M84 1294v119q0 21 20 21h877q20 0 20 -21v-78q0 -21 -10 -51l-487 -1270q-6 -14 -23 -14h-127q-20 0 -20 16q0 3 4 15l473 1243h-707q-20 0 -20 20z" />
    <glyph glyph-name="eight" unicode="8" horiz-adv-x="1232" 
d="M188 1075q0 173 125 276t303 103t303 -103t125 -276q0 -204 -172 -313q218 -114 218 -356q0 -186 -133.5 -306t-340.5 -120t-340 120t-133 306q0 243 217 356q-172 109 -172 313zM311 406q0 -127 82 -197t223 -70q142 0 224 70t82 197q0 128 -82.5 199t-223.5 71
t-223 -71t-82 -199zM348 1065q0 -104 72.5 -169t195.5 -65t196 65t73 169q0 108 -74.5 168.5t-194.5 60.5t-194 -60.5t-74 -168.5z" />
    <glyph glyph-name="nine" unicode="9" horiz-adv-x="1280" 
d="M1128 780q0 -398 -140 -599t-378 -201q-180 0 -298 95t-144 261q0 13 5 16.5t17 3.5h123q17 0 23 -20q29 -105 103 -155t171 -50q147 0 240.5 133t97.5 398q-63 -76 -158.5 -115t-193.5 -39q-206 0 -335.5 125.5t-129.5 347.5q0 109 40 200t107 150t154 91t182 32
q87 0 161.5 -21t140.5 -70.5t112 -125.5t73 -192.5t27 -264.5zM930 981q0 141 -85 227t-231 86t-230.5 -86t-84.5 -227t84.5 -227t230.5 -86t231 86t85 227z" />
    <glyph glyph-name="colon" unicode=":" horiz-adv-x="593" 
d="M217 197h156q20 0 20 -21v-156q0 -20 -20 -20h-156q-20 0 -20 20v156q0 21 20 21zM217 1028h156q20 0 20 -20v-156q0 -21 -20 -21h-156q-20 0 -20 21v156q0 20 20 20z" />
    <glyph glyph-name="semicolon" unicode=";" horiz-adv-x="593" 
d="M217 1028h156q20 0 20 -20v-156q0 -21 -20 -21h-156q-20 0 -20 21v156q0 20 20 20zM217 -111q60 0 77 15.5t17 70.5v25h-94q-20 0 -20 20v156q0 21 20 21h156q20 0 20 -21v-215q0 -74 -30.5 -109.5t-102.5 -35.5h-43q-20 0 -20 20v33q0 20 20 20z" />
    <glyph glyph-name="less" unicode="&#x3c;" horiz-adv-x="1058" 
d="M911 250v-139q0 -22 -20 -13l-739 400q-21 9 -21 26v152q0 17 21 26l739 400q20 9 20 -12v-140q0 -19 -20 -28l-608 -322l608 -321q20 -9 20 -29z" />
    <glyph glyph-name="equal" unicode="=" horiz-adv-x="1163" 
d="M176 903h864q21 0 21 -20v-119q0 -21 -21 -21h-864q-20 0 -20 21v119q0 20 20 20zM176 487h864q21 0 21 -20v-119q0 -20 -21 -20h-864q-20 0 -20 20v119q0 20 20 20z" />
    <glyph glyph-name="greater" unicode="&#x3e;" horiz-adv-x="1058" 
d="M147 111v139q0 20 21 29l608 321l-608 322q-21 9 -21 28v140q0 21 21 12l739 -400q21 -9 21 -26v-152q0 -17 -21 -26l-739 -400q-21 -9 -21 13z" />
    <glyph glyph-name="question" unicode="?" horiz-adv-x="1167" 
d="M154 1049q5 171 126.5 288t321.5 117q196 0 313 -108.5t117 -282.5q0 -60 -19 -111t-50 -88t-68 -71t-74 -65.5t-68 -65t-50 -77t-19 -93.5v-76q0 -21 -20 -21h-132q-20 0 -20 21v61q0 67 19 123.5t50 97t68 76.5t74 67.5t68 63t50 71.5t19 85q0 108 -70 168.5t-188 60.5
q-113 0 -188 -61.5t-92 -179.5q-3 -21 -21 -21h-127q-20 0 -20 21zM516 205h164q20 0 20 -21v-164q0 -20 -20 -20h-164q-20 0 -20 20v164q0 21 20 21z" />
    <glyph glyph-name="at" unicode="@" horiz-adv-x="1650" 
d="M1423 631q0 116 -35.5 218.5t-104 184t-179 129t-250.5 47.5q-126 0 -238.5 -43t-198 -122t-135 -198t-49.5 -263q0 -299 172 -473t449 -174q124 0 213.5 28.5t173.5 79.5q18 9 25 -8l43 -86q6 -16 -9 -25q-211 -116 -446 -116q-161 0 -301 54.5t-242 153.5t-160.5 245
t-58.5 321q0 137 40.5 257.5t112.5 210t167.5 154.5t208.5 98t233 33q130 0 243.5 -38t197 -104t144 -153t90.5 -188t30 -207q0 -232 -82.5 -350.5t-223.5 -118.5q-72 0 -132 36.5t-79 90.5q-57 -67 -124 -97t-158 -30q-143 0 -235.5 96.5t-92.5 270.5q0 119 49 220
t140.5 162.5t207.5 61.5q156 0 224 -104l8 73q3 17 16 17h90q17 0 17 -17l-47 -430q-4 -50 -4 -71q0 -86 36 -125t93 -39q161 0 161 338zM1034 616q0 125 -49.5 191.5t-146.5 66.5q-67 0 -119.5 -28.5t-84 -76.5t-47.5 -105t-16 -119q0 -123 52.5 -187.5t150.5 -64.5
q124 0 192 93t68 230z" />
    <glyph glyph-name="A" unicode="A" horiz-adv-x="1282" 
d="M1075 20l-141 396h-586l-141 -396q-5 -12 -9.5 -16t-15.5 -4h-137q-22 0 -22 20q0 9 2 13l507 1380q8 18 13 20q3 1 8 1h176q6 0 9.5 -2t5.5 -5t4 -9q1 -3 2 -5l507 -1380q3 -6 3 -13q0 -20 -23 -20h-137q-11 0 -15.5 4t-9.5 16zM641 1227l-233 -647h466z" />
    <glyph glyph-name="B" unicode="B" horiz-adv-x="1288" 
d="M745 0h-552q-21 0 -21 20v1393q0 21 21 21h493q67 0 128 -13t115.5 -41t94.5 -69.5t63 -102t23 -133.5q0 -108 -41.5 -183t-128.5 -130q108 -49 169.5 -132.5t61.5 -221.5q0 -185 -117.5 -296.5t-308.5 -111.5zM344 672v-508h373q134 0 208 63t74 193q0 126 -74.5 189
t-207.5 63h-373zM344 1270v-434h365q102 0 165.5 51.5t63.5 163.5q0 102 -65.5 160.5t-163.5 58.5h-365z" />
    <glyph glyph-name="C" unicode="C" horiz-adv-x="1447" 
d="M1210 498h125q23 0 23 -21q-32 -226 -202 -361.5t-411 -135.5q-97 0 -188.5 28t-173.5 88t-143.5 145t-97.5 208t-36 268t36 268t97.5 208t143.5 145t173.5 88t188.5 28q241 0 411 -136t202 -362q0 -20 -23 -20h-125q-18 0 -24 20q-94 334 -441 334q-93 0 -174.5 -35.5
t-145.5 -104t-101 -180t-37 -253.5q0 -143 37 -255.5t101 -180.5t145 -103t175 -35q347 0 441 334q6 21 24 21z" />
    <glyph glyph-name="D" unicode="D" horiz-adv-x="1349" 
d="M172 20v1393q0 21 21 21h397q135 0 252 -46t207 -133t142 -225.5t52 -312.5t-52 -312.5t-142 -225.5t-207 -133t-252 -46h-397q-21 0 -21 20zM565 1270h-221v-1106h221q110 0 199.5 33t157 99t104.5 173.5t37 247.5t-37 247.5t-104.5 173.5t-157 99t-199.5 33z" />
    <glyph glyph-name="E" unicode="E" horiz-adv-x="1196" 
d="M344 672v-508h707q20 0 20 -21v-123q0 -20 -20 -20h-858q-21 0 -21 20v1393q0 21 21 21h827q20 0 20 -21v-123q0 -20 -20 -20h-676v-434h614q21 0 21 -21v-123q0 -20 -21 -20h-614z" />
    <glyph glyph-name="F" unicode="F" horiz-adv-x="1206" 
d="M344 641v-621q0 -20 -20 -20h-131q-21 0 -21 20v1393q0 21 21 21h856q20 0 20 -21v-123q0 -20 -20 -20h-705v-465h639q21 0 21 -21v-122q0 -21 -21 -21h-639z" />
    <glyph glyph-name="G" unicode="G" horiz-adv-x="1460" 
d="M786 729h560q20 0 20 -20v-357q0 -49 -20 -78q-95 -148 -240 -221t-318 -73q-139 0 -261.5 48t-217 138t-149 232t-54.5 319q0 143 37.5 265t101 207.5t147.5 146t177.5 89.5t190.5 29q145 0 266 -46.5t207 -145.5t113 -238q0 -20 -23 -20h-131q-19 0 -25 20
q-37 135 -144.5 200.5t-262.5 65.5q-96 0 -180.5 -37.5t-150 -107.5t-104 -181t-38.5 -247q0 -279 130.5 -426.5t362.5 -147.5q141 0 247 54t167 153v215h-408q-20 0 -20 21v123q0 20 20 20z" />
    <glyph glyph-name="H" unicode="H" horiz-adv-x="1388" 
d="M344 666v-646q0 -20 -20 -20h-131q-21 0 -21 20v1393q0 21 21 21h131q20 0 20 -21v-584h700v584q0 21 21 21h131q21 0 21 -21v-1393q0 -20 -21 -20h-131q-21 0 -21 20v646h-700z" />
    <glyph glyph-name="I" unicode="I" horiz-adv-x="516" 
d="M172 20v1393q0 21 21 21h131q20 0 20 -21v-1393q0 -20 -20 -20h-131q-21 0 -21 20z" />
    <glyph glyph-name="J" unicode="J" horiz-adv-x="1107" 
d="M985 1413v-907q0 -136 -35.5 -239t-99 -164.5t-146 -92t-182.5 -30.5q-210 0 -332 128.5t-122 327.5q0 21 20 21h131q21 0 21 -21q0 -128 77 -210.5t205 -82.5q149 0 220 87.5t71 273.5v909q0 21 21 21h131q20 0 20 -21z" />
    <glyph glyph-name="K" unicode="K" horiz-adv-x="1257" 
d="M344 1413v-616l580 616q2 2 7 7.5t6.5 6.5t5 3.5t6.5 3t7 0.5h172q17 0 20.5 -9t-7.5 -20l-465 -500l557 -876q7 -12 2 -20.5t-16 -8.5h-166q-11 0 -18.5 6.5t-18.5 24.5l-473 733l-199 -215v-529q0 -20 -20 -20h-131q-21 0 -21 20v1393q0 21 21 21h131q20 0 20 -21z" />
    <glyph glyph-name="L" unicode="L" horiz-adv-x="1183" 
d="M172 20v1393q0 21 21 21h131q20 0 20 -21v-1249h735q21 0 21 -21v-123q0 -20 -21 -20h-886q-21 0 -21 20z" />
    <glyph glyph-name="M" unicode="M" horiz-adv-x="1634" 
d="M1462 1413v-1393q0 -20 -20 -20h-131q-21 0 -21 20v1145l-401 -907q-9 -18 -27 -18h-90q-18 0 -27 18l-401 907v-1145q0 -20 -20 -20h-131q-21 0 -21 20v1393q0 21 21 21h194q24 0 33 -21l397 -911l397 911q9 21 33 21h195q20 0 20 -21z" />
    <glyph glyph-name="N" unicode="N" horiz-adv-x="1425" 
d="M1233 0h-158q-26 0 -33 16l-698 1147v-1143q0 -20 -20 -20h-131q-21 0 -21 20v1393q0 21 21 21h157q26 0 33 -17l698 -1147v1143q0 21 21 21h131q20 0 20 -21v-1393q0 -20 -20 -20z" />
    <glyph glyph-name="O" unicode="O" horiz-adv-x="1572" 
d="M786 -20q-129 0 -249 47t-217 136t-155.5 232.5t-58.5 321.5t58.5 321.5t155.5 232.5t217 136t249 47t249 -47t217 -136t155.5 -232.5t58.5 -321.5t-58.5 -321.5t-155.5 -232.5t-217 -136t-249 -47zM786 143q102 0 191 35.5t158.5 104t110 180.5t40.5 254t-40.5 253.5
t-110 180t-158.5 104t-191 35.5t-190.5 -35.5t-158.5 -104t-110 -180t-40 -253.5q0 -114 26.5 -209.5t72.5 -162t109.5 -112.5t136.5 -68t154 -22z" />
    <glyph glyph-name="P" unicode="P" horiz-adv-x="1241" 
d="M172 20v1393q0 21 21 21h495q229 0 348 -104t119 -296t-118.5 -295.5t-348.5 -103.5h-344v-615q0 -20 -20 -20h-131q-21 0 -21 20zM344 1270v-471h371q134 0 197 56.5t63 178.5q0 123 -63 179.5t-197 56.5h-371z" />
    <glyph glyph-name="Q" unicode="Q" horiz-adv-x="1572" 
d="M786 -20q-129 0 -249 47t-217 136t-155.5 232.5t-58.5 321.5t58.5 321.5t155.5 232.5t217 136t249 47t249 -47t217 -136t155.5 -232.5t58.5 -321.5q0 -291 -155 -490l127 -121q8 -8 8 -14t-8 -14l-92 -96q-9 -9 -15 -9q-5 0 -14 9l-131 124q-176 -126 -400 -126z
M1040 492l148 -144q98 140 98 369q0 142 -40.5 253.5t-110 180t-158.5 104t-191 35.5t-190.5 -35.5t-158.5 -104t-110 -180t-40 -253.5q0 -114 26.5 -209.5t72.5 -162t109.5 -112.5t136.5 -68t154 -22q163 0 279 80l-145 144q-9 9 -9 14t9 14l92 97q8 8 14 8t14 -8z" />
    <glyph glyph-name="R" unicode="R" horiz-adv-x="1259" 
d="M172 20v1393q0 21 21 21h505q206 0 320.5 -97.5t114.5 -281.5q0 -141 -73.5 -231t-195.5 -130l314 -674q9 -20 -17 -20h-143q-18 0 -29 20l-311 656h-334v-656q0 -20 -20 -20h-131q-21 0 -21 20zM344 1270v-430h367q129 0 189.5 52.5t60.5 162.5q0 109 -61 162t-189 53
h-367z" />
    <glyph glyph-name="S" unicode="S" horiz-adv-x="1208" 
d="M111 1071q0 92 39 166t106 120.5t153 71.5t183 25q112 0 205.5 -33t154 -88.5t95 -127t36.5 -150.5q0 -21 -20 -21h-131q-21 0 -21 21q-7 104 -97.5 169.5t-221.5 65.5q-134 0 -221.5 -57t-87.5 -154q0 -44 19.5 -81t51 -63t83 -49.5t102.5 -40t123 -34.5q86 -24 150 -47
t127 -57t102.5 -73.5t64 -94.5t24.5 -121q0 -214 -143.5 -326t-384.5 -112q-148 0 -268 56.5t-190 161t-70 236.5q0 21 20 21h131q21 0 21 -21q5 -125 103 -208t253 -83q170 0 263 66t93 199q0 42 -21 76.5t-52.5 58.5t-84 46.5t-100 36.5t-116.5 31q-113 29 -193 61.5
t-146.5 80.5t-100 116t-33.5 156z" />
    <glyph glyph-name="T" unicode="T" horiz-adv-x="1155" 
d="M51 1290v123q0 21 21 21h1011q21 0 21 -21v-123q0 -20 -21 -20h-419v-1250q0 -20 -21 -20h-131q-20 0 -20 20v1250h-420q-21 0 -21 20z" />
    <glyph glyph-name="U" unicode="U" horiz-adv-x="1310" 
d="M139 496v917q0 21 21 21h131q20 0 20 -21v-895q0 -184 88.5 -279.5t255.5 -95.5t255.5 95.5t88.5 279.5v895q0 21 21 21h131q20 0 20 -21v-917q0 -240 -145 -378t-371 -138t-371 138t-145 378z" />
    <glyph glyph-name="V" unicode="V" horiz-adv-x="1277" 
d="M1255 1413l-499 -1393q-6 -20 -23 -20h-188q-17 0 -23 20l-499 1393q-6 21 16 21h160q18 0 24 -21l416 -1208l416 1208q6 21 24 21h160q22 0 16 -21z" />
    <glyph glyph-name="W" unicode="W" horiz-adv-x="1712" 
d="M1677 1413l-317 -1393q-6 -20 -23 -20h-186q-17 0 -23 20l-272 1067l-272 -1067q-6 -20 -23 -20h-186q-17 0 -23 20l-317 1393q-6 21 16 21h146q18 0 24 -21l260 -1186l275 1088q6 20 24 20h152q18 0 24 -20l275 -1088l260 1186q3 21 25 21h145q22 0 16 -21z" />
    <glyph glyph-name="X" unicode="X" horiz-adv-x="1220" 
d="M274 1413l336 -506l336 506q9 12 11 14.5t6.5 4.5t11.5 2h158q10 0 14.5 -7t-0.5 -14l-434 -657l487 -736q5 -8 0.5 -14t-14.5 -6h-154q-11 0 -17 3.5t-16 16.5l-389 586l-389 -586q-10 -13 -16 -16.5t-17 -3.5h-153q-10 0 -15 6t0 14l488 736l-434 657q-5 7 -0.5 14
t14.5 7h158h5t3.5 -0.5t3 -1.5t2.5 -1.5t3 -3t3 -3.5t3.5 -5t4.5 -6z" />
    <glyph glyph-name="Y" unicode="Y" horiz-adv-x="1118" 
d="M1100 1413l-455 -885v-508q0 -20 -20 -20h-131q-21 0 -21 20v508l-455 885q-4 10 0.5 15.5t12.5 5.5h162q14 0 24 -17l342 -680l342 680q10 17 25 17h161q8 0 12.5 -5.5t0.5 -15.5z" />
    <glyph glyph-name="Z" unicode="Z" horiz-adv-x="1241" 
d="M119 1290v123q0 21 20 21h948q21 0 21 -21v-123q0 -17 -12 -35l-803 -1091h837q21 0 21 -21v-123q0 -20 -21 -20h-1026q-20 0 -20 20v123q0 17 12 35l805 1092h-762q-20 0 -20 20z" />
    <glyph glyph-name="bracketleft" unicode="[" horiz-adv-x="837" 
d="M172 -385v1798q0 21 21 21h518q20 0 20 -21v-123q0 -20 -20 -20h-367v-1512h367q20 0 20 -20v-123q0 -21 -20 -21h-518q-21 0 -21 21z" />
    <glyph glyph-name="backslash" unicode="\" horiz-adv-x="987" 
d="M215 1413l711 -1393q9 -20 -13 -20h-141q-20 0 -29 20l-710 1393q-9 21 12 21h141q20 0 29 -21z" />
    <glyph glyph-name="bracketright" unicode="]" horiz-adv-x="837" 
d="M666 1413v-1798q0 -21 -21 -21h-518q-21 0 -21 21v123q0 20 21 20h367v1512h-367q-21 0 -21 20v123q0 21 21 21h518q21 0 21 -21z" />
    <glyph glyph-name="asciicircum" unicode="^" horiz-adv-x="1138" 
d="M225 760h-143q-10 0 -13.5 6t1.5 14l393 633q9 21 26 21h160q18 0 27 -21l393 -633q5 -8 1.5 -14t-13.5 -6h-144q-19 0 -28 20l-316 523l-315 -523q-9 -20 -29 -20z" />
    <glyph glyph-name="underscore" unicode="_" horiz-adv-x="1148" 
d="M154 0h841q21 0 21 -20v-119q0 -21 -21 -21h-841q-21 0 -21 21v119q0 20 21 20z" />
    <glyph glyph-name="grave" unicode="`" horiz-adv-x="776" 
d="M436 1413l142 -258q2 -2 2 -8q0 -12 -13 -12h-118q-22 0 -37 18l-211 260q-4 8 -4 10q0 11 14 11h195q18 0 30 -21z" />
    <glyph glyph-name="a" unicode="a" horiz-adv-x="1103" 
d="M285 723h-131q-15 0 -15 12q0 13 2 21q32 126 138.5 209.5t275.5 83.5q180 0 294 -99.5t114 -259.5v-493q0 -72 6.5 -106t27.5 -71q1 -2 2 -4.5t1.5 -3.5t0.5 -2q0 -10 -16 -10h-162q-20 0 -20 20v107q-50 -68 -138.5 -107.5t-197.5 -39.5q-69 0 -133.5 20.5t-117.5 59.5
t-85.5 102.5t-32.5 142.5q0 110 57 188.5t149.5 116t209.5 37.5q131 0 289 -45v57q0 116 -64.5 177t-183.5 61q-180 0 -242 -156q-7 -18 -28 -18zM803 451q-122 45 -279 45q-117 0 -187.5 -45t-70.5 -136q0 -90 57 -137t162 -47q135 0 226.5 85.5t91.5 234.5z" />
    <glyph glyph-name="b" unicode="b" horiz-adv-x="1220" 
d="M164 20v1393q0 21 20 21h119q21 0 21 -21v-504q140 140 335 140q206 0 332.5 -148t126.5 -387q0 -238 -126.5 -386t-332.5 -148q-101 0 -189.5 37.5t-145.5 99.5v-97q0 -20 -21 -20h-119q-20 0 -20 20zM307 514q0 -171 88 -277t238 -106q152 0 234.5 105t82.5 278
q0 172 -83 277.5t-234 105.5q-150 0 -238 -106.5t-88 -276.5z" />
    <glyph glyph-name="c" unicode="c" horiz-adv-x="1161" 
d="M610 897q-156 0 -248 -100.5t-92 -282.5t92 -282.5t248 -100.5q105 0 182 53.5t109 151.5q7 18 29 18h125q14 0 14 -12t-2 -20q-40 -159 -156.5 -250.5t-300.5 -91.5q-228 0 -368 151.5t-140 382.5t140 383t368 152q184 0 300.5 -91.5t156.5 -250.5q2 -8 2 -21
q0 -12 -14 -12h-125q-22 0 -29 18q-32 98 -109 151.5t-182 53.5z" />
    <glyph glyph-name="d" unicode="d" horiz-adv-x="1220" 
d="M1057 1413v-1393q0 -20 -21 -20h-118q-21 0 -21 20v97q-57 -62 -146 -99.5t-190 -37.5q-206 0 -332.5 148t-126.5 386q0 239 126.5 387t332.5 148q196 0 336 -140v504q0 21 21 21h118q21 0 21 -21zM913 514q0 170 -87.5 276.5t-237.5 106.5q-151 0 -234.5 -105.5
t-83.5 -277.5q0 -173 83 -278t235 -105q150 0 237.5 106t87.5 277z" />
    <glyph glyph-name="e" unicode="e" horiz-adv-x="1214" 
d="M1096 465h-822q12 -154 103 -244t241 -90q224 0 302 188q7 19 28 19h133q15 0 15 -14q0 -12 -4 -21q-59 -162 -181 -242.5t-297 -80.5q-153 0 -270.5 71t-179.5 191.5t-62 271.5q0 227 145.5 381t366.5 154q114 0 209.5 -43t159 -116t98.5 -169t35 -203v-33
q0 -20 -20 -20zM614 897q-122 0 -212.5 -73t-118.5 -208h661q-25 128 -114 204.5t-216 76.5z" />
    <glyph glyph-name="f" unicode="f" horiz-adv-x="765" 
d="M713 877h-316v-857q0 -20 -20 -20h-119q-20 0 -20 20v857h-168q-21 0 -21 20v111q0 20 21 20h168v131q0 129 81.5 212t210.5 83q111 0 197 -39q8 -4 11.5 -9t4 -10t0.5 -16v-108q0 -19 -12 -19q-4 0 -16 4q-87 46 -180 46q-63 0 -100.5 -42.5t-37.5 -115.5v-117h316
q20 0 20 -20v-111q0 -20 -20 -20z" />
    <glyph glyph-name="g" unicode="g" horiz-adv-x="1191" 
d="M604 -426q-183 0 -306.5 88.5t-135.5 245.5q0 20 20 20h119q21 0 21 -20q24 -94 89.5 -138t192.5 -44q146 0 215.5 88t69.5 243v74q-71 -63 -149 -95t-179 -32q-200 0 -329.5 144t-129.5 378q0 236 128 379.5t331 143.5q101 0 186 -36t142 -98v93q0 20 20 20h119
q21 0 21 -20v-947q0 -235 -112.5 -361t-332.5 -126zM905 526q0 167 -85.5 269t-231.5 102q-151 0 -234.5 -101t-83.5 -270t83.5 -269.5t234.5 -100.5q146 0 231.5 101.5t85.5 268.5z" />
    <glyph glyph-name="h" unicode="h" horiz-adv-x="1183" 
d="M164 20v1393q0 21 20 21h119q21 0 21 -21v-536q63 78 162 125t198 47q167 0 261.5 -92t94.5 -263v-674q0 -20 -20 -20h-119q-20 0 -20 20v633q0 244 -240 244q-129 0 -223 -100t-94 -269v-508q0 -20 -21 -20h-119q-20 0 -20 20z" />
    <glyph glyph-name="i" unicode="i" horiz-adv-x="438" 
d="M139 20v988q0 20 21 20h119q20 0 20 -20v-988q0 -20 -20 -20h-119q-21 0 -21 20zM111 1237v176q0 21 20 21h176q21 0 21 -21v-176q0 -20 -21 -20h-176q-20 0 -20 20z" />
    <glyph glyph-name="j" unicode="j" horiz-adv-x="438" 
d="M139 -80v1088q0 20 21 20h119q20 0 20 -20v-1063q0 -116 -17 -195.5t-49 -159.5q-6 -16 -16 -16q-2 0 -14 4l-109 39q-20 6 -14 25q23 64 32 91.5t18 78.5t9 108zM111 1237v176q0 21 20 21h176q21 0 21 -21v-176q0 -20 -21 -20h-176q-20 0 -20 20z" />
    <glyph glyph-name="k" unicode="k" horiz-adv-x="1081" 
d="M983 997l-365 -340l414 -626q4 -8 4 -15q0 -16 -18 -16h-144q-23 0 -32 18l-348 523l-170 -162v-359q0 -20 -21 -20h-119q-20 0 -20 20v1393q0 21 20 21h119q21 0 21 -21v-823l448 420q18 18 33 18h170q16 0 16 -14q0 -9 -8 -17z" />
    <glyph glyph-name="l" unicode="l" horiz-adv-x="487" 
d="M164 20v1393q0 21 20 21h119q21 0 21 -21v-1393q0 -20 -21 -20h-119q-20 0 -20 20z" />
    <glyph glyph-name="m" unicode="m" horiz-adv-x="1630" 
d="M164 20v988q0 20 20 20h119q21 0 21 -20v-113q33 63 113 108.5t163 45.5q216 0 287 -166q44 73 124 119.5t171 46.5q305 0 305 -316v-713q0 -20 -21 -20h-118q-21 0 -21 20v685q0 192 -186 192q-100 0 -168 -97.5t-68 -258.5v-521q0 -20 -20 -20h-119q-21 0 -21 20v685
q0 95 -44.5 143.5t-141.5 48.5q-100 0 -167.5 -97.5t-67.5 -258.5v-521q0 -20 -21 -20h-119q-20 0 -20 20z" />
    <glyph glyph-name="n" unicode="n" horiz-adv-x="1167" 
d="M164 20v988q0 20 20 20h119q21 0 21 -20v-117q132 158 340 158q164 0 260 -98t96 -275v-656q0 -20 -21 -20h-118q-21 0 -21 20v631q0 123 -60.5 184.5t-172.5 61.5q-135 0 -219 -96.5t-84 -276.5v-504q0 -20 -21 -20h-119q-20 0 -20 20z" />
    <glyph glyph-name="o" unicode="o" horiz-adv-x="1249" 
d="M102 514q0 159 69.5 282t188 188t265.5 65q225 0 373.5 -147.5t148.5 -387.5t-148 -387t-374 -147q-147 0 -265.5 64.5t-188 187.5t-69.5 282zM270 514q0 -172 98.5 -277.5t256.5 -105.5t256 105.5t98 277.5t-98 277.5t-256 105.5t-256.5 -105.5t-98.5 -277.5z" />
    <glyph glyph-name="p" unicode="p" horiz-adv-x="1220" 
d="M164 -385v1393q0 20 20 20h119q21 0 21 -20v-97q58 62 146 100t189 38q206 0 332.5 -148t126.5 -387q0 -238 -126.5 -386t-332.5 -148q-196 0 -335 139v-504q0 -21 -21 -21h-119q-20 0 -20 21zM307 514q0 -171 88 -277t238 -106q152 0 234.5 105t82.5 278
q0 172 -83 277.5t-234 105.5q-150 0 -238 -106.5t-88 -276.5z" />
    <glyph glyph-name="q" unicode="q" horiz-adv-x="1220" 
d="M1057 1008v-1393q0 -21 -21 -21h-118q-21 0 -21 21v504q-139 -139 -336 -139q-206 0 -332.5 148t-126.5 386q0 239 126.5 387t332.5 148q101 0 189.5 -38t146.5 -100v97q0 20 21 20h118q21 0 21 -20zM913 514q0 170 -87.5 276.5t-237.5 106.5q-151 0 -234.5 -105.5
t-83.5 -277.5q0 -173 83 -278t235 -105q150 0 237.5 106t87.5 277z" />
    <glyph glyph-name="r" unicode="r" horiz-adv-x="884" 
d="M817 979v-123q0 -22 -22 -22q-67 35 -114.5 49t-107.5 14q-109 0 -179 -91.5t-70 -227.5v-558q0 -20 -21 -20h-119q-20 0 -20 20v988q0 20 20 20h119q21 0 21 -20v-113q116 154 299 154q69 0 170 -33q21 -9 24 -37z" />
    <glyph glyph-name="s" unicode="s" horiz-adv-x="1024" 
d="M928 301q0 -151 -114 -236t-298 -85q-182 0 -307 95t-125 238q0 21 20 21h132q17 0 20 -21q12 -90 80 -136t186 -46q110 0 174 37t64 113q0 77 -66.5 113.5t-232.5 62.5q-187 30 -268.5 98t-81.5 201q0 137 110 215t279 78q171 0 273.5 -79t121.5 -216q0 -21 -21 -21
h-114q-12 0 -18 13q0 1 -1 3l-2 5q-22 72 -88.5 107.5t-156.5 35.5q-102 0 -163 -35t-61 -102q0 -72 63.5 -107.5t225.5 -64.5q65 -11 114.5 -24t99.5 -35.5t82.5 -52.5t52.5 -74.5t20 -100.5z" />
    <glyph glyph-name="t" unicode="t" horiz-adv-x="860" 
d="M416 1028h340q20 0 20 -20v-111q0 -20 -20 -20h-340v-572q0 -174 162 -174q109 0 194 31q12 4 14 4q15 0 15 -21v-96q0 -29 -17 -35q-90 -34 -219 -34q-146 0 -227.5 81.5t-81.5 229.5v586h-182q-21 0 -21 20v111q0 20 21 20h182v295q0 20 20 20h119q21 0 21 -20v-295z
" />
    <glyph glyph-name="u" unicode="u" horiz-adv-x="1167" 
d="M1004 1008v-988q0 -20 -21 -20h-119q-20 0 -20 20v117q-131 -157 -340 -157q-164 0 -260.5 97.5t-96.5 274.5v656q0 20 21 20h119q20 0 20 -20v-631q0 -122 61 -184t173 -62q135 0 219 96.5t84 276.5v504q0 20 20 20h119q21 0 21 -20z" />
    <glyph glyph-name="v" unicode="v" horiz-adv-x="995" 
d="M973 995l-379 -975q-9 -20 -25 -20h-143q-16 0 -25 20l-378 975q-3 3 -3 15q0 18 19 18h137q23 0 29 -20l293 -805l293 805q6 20 28 20h137q19 0 19 -18q0 -13 -2 -15z" />
    <glyph glyph-name="w" unicode="w" horiz-adv-x="1527" 
d="M1501 997l-313 -977q-6 -20 -27 -20h-145q-21 0 -27 20l-225 752l-225 -752q-6 -20 -27 -20h-145q-24 0 -27 20l-313 977q-2 6 -2 17q0 14 16 14h141q11 0 16.5 -3t7 -5t5.5 -12l225 -799l228 749q1 2 2.5 5.5t2 5t1.5 3.5t2.5 3t3.5 2t4.5 1.5t5.5 0.5h156q3 0 5.5 -0.5
t4.5 -1.5t3.5 -2t2.5 -3t1.5 -3.5t2 -5t2.5 -5.5l228 -749l225 799q1 1 2 4t1.5 4t1.5 3.5t2 3t2.5 2t3 1.5t4 1t5.5 1h7h141q16 0 16 -14q0 -11 -2 -17z" />
    <glyph glyph-name="x" unicode="x" horiz-adv-x="995" 
d="M252 1014l246 -344l245 344q8 14 29 14h146q14 0 14 -14q0 -1 -4 -13l-334 -462l371 -512q6 -9 6 -17q0 -10 -13 -10h-155q-18 0 -29 20l-276 390l-277 -390q-11 -20 -28 -20h-156q-12 0 -12 10q0 8 6 17l370 512l-333 462q-1 2 -2 5t-2 5t-1 3q0 14 15 14h145
q21 0 29 -14z" />
    <glyph glyph-name="y" unicode="y" horiz-adv-x="991" 
d="M41 1028h147q21 0 27 -20l303 -783l258 783q5 12 9.5 16t17.5 4h141q17 0 17 -14q0 -9 -3 -15l-374 -1099q-63 -181 -148 -253.5t-207 -72.5q-84 0 -151 33q-21 12 -21 33v110q0 21 17 21q12 0 30 -11t47.5 -22.5t69.5 -11.5q80 0 130 61t87 199l-409 1009q-4 16 -4 17
q0 16 16 16z" />
    <glyph glyph-name="z" unicode="z" horiz-adv-x="989" 
d="M94 897v111q0 20 21 20h737q20 0 20 -20v-111q0 -17 -16 -43l-588 -702h623q20 0 20 -21v-111q0 -20 -20 -20h-803q-20 0 -20 20v111q0 15 12 31l598 715h-563q-21 0 -21 20z" />
    <glyph glyph-name="braceleft" unicode="{" horiz-adv-x="794" 
d="M438 330v-359q0 -107 32 -160t105 -53h93q20 0 20 -20v-123q0 -21 -20 -21h-97q-172 0 -238.5 93.5t-66.5 306.5v303q0 135 -129 135h-53q-21 0 -21 21v122q0 21 21 21h53q129 0 129 135v303q0 213 66.5 306.5t238.5 93.5h97q20 0 20 -21v-123q0 -20 -20 -20h-93
q-73 0 -105 -53t-32 -160v-359q0 -141 -129 -184q129 -43 129 -184z" />
    <glyph glyph-name="bar" unicode="|" horiz-adv-x="516" 
d="M172 -184v1597q0 21 21 21h131q20 0 20 -21v-1597q0 -21 -20 -21h-131q-21 0 -21 21z" />
    <glyph glyph-name="braceright" unicode="}" horiz-adv-x="794" 
d="M356 -29v359q0 141 129 184q-129 43 -129 184v359q0 107 -32 160t-105 53h-92q-21 0 -21 20v123q0 21 21 21h96q172 0 238.5 -93.5t66.5 -306.5v-303q0 -135 129 -135h54q20 0 20 -21v-122q0 -21 -20 -21h-54q-129 0 -129 -135v-303q0 -213 -66.5 -306.5t-238.5 -93.5
h-96q-21 0 -21 21v123q0 20 21 20h92q73 0 105 53t32 160z" />
    <glyph glyph-name="asciitilde" unicode="~" horiz-adv-x="1112" 
d="M119 745q45 33 113.5 53.5t121.5 20.5q73 0 141.5 -21t131.5 -42t123 -21q45 0 79 11.5t78 39.5l15 5q10 0 20 -17l68 -102q2 -2 2 -8q0 -14 -19 -27q-45 -33 -113.5 -53.5t-121.5 -20.5q-73 0 -141.5 21t-131.5 42t-123 21q-45 0 -79 -11.5t-78 -39.5q-12 -4 -15 -4
q-10 0 -20 16l-68 103q-2 2 -2 8q0 13 19 26z" />
    <glyph glyph-name="uni00A0" unicode="&#xa0;" horiz-adv-x="522" 
 />
    <glyph glyph-name="exclamdown" unicode="&#xa1;" horiz-adv-x="659" 
d="M375 -406h-131q-21 0 -21 21v997q0 21 21 21h131q20 0 20 -21v-997q0 -21 -20 -21zM391 823h-164q-20 0 -20 21v164q0 20 20 20h164q21 0 21 -20v-164q0 -21 -21 -21z" />
    <glyph glyph-name="cent" unicode="&#xa2;" horiz-adv-x="1161" 
d="M514 20v168q-189 32 -300.5 177.5t-111.5 351.5t111.5 350t300.5 176v170q0 21 21 21h131q20 0 20 -21v-166q150 -20 247.5 -109t133.5 -229q2 -8 2 -20t-14 -12h-125q-22 0 -29 18q-53 161 -215 197v-750q162 36 215 197q7 18 29 18h125q14 0 14 -12q0 -13 -2 -21
q-36 -143 -133 -231.5t-248 -106.5v-166q0 -20 -20 -20h-131q-21 0 -21 20zM270 717q0 -151 64.5 -247t179.5 -126v743q-115 -30 -179.5 -124.5t-64.5 -245.5z" />
    <glyph glyph-name="sterling" unicode="&#xa3;" horiz-adv-x="1204" 
d="M281 569q0 49 -5 68h-165q-21 0 -21 20v119q0 21 21 21h114q-41 105 -41 219q0 195 122 316.5t312 121.5q198 0 319.5 -117.5t121.5 -287.5q0 -21 -21 -21h-131q-20 0 -20 21q-5 101 -78.5 171t-190.5 70q-123 0 -192.5 -71t-69.5 -203q0 -34 6 -66.5t12 -49.5
t20.5 -53.5t19.5 -49.5h420q20 0 20 -21v-119q0 -20 -20 -20h-385q4 -50 4 -78q0 -213 -136 -395h760q21 0 21 -21v-123q0 -20 -21 -20h-921q-21 0 -21 20v144q0 17 17 41q75 96 102 167.5t27 196.5z" />
    <glyph glyph-name="currency" unicode="&#xa4;" horiz-adv-x="1105" 
d="M121 213l98 98q-63 92 -63 228q0 135 63 227l-98 98q-15 14 0 29l78 78q14 14 28 0l99 -99q98 64 227 64q126 0 227 -64l99 99q14 14 28 0l78 -78q15 -15 0 -29l-98 -98q63 -102 63 -227q0 -126 -63 -228l98 -98q15 -15 0 -29l-78 -78q-14 -14 -28 0l-99 99
q-94 -64 -227 -64t-227 64l-99 -99q-14 -14 -28 0l-78 78q-15 14 0 29zM307 539q0 -117 67.5 -187.5t178.5 -70.5t178.5 70.5t67.5 187.5t-67.5 187.5t-178.5 70.5t-178.5 -70.5t-67.5 -187.5z" />
    <glyph glyph-name="yen" unicode="&#xa5;" horiz-adv-x="1118" 
d="M119 688h272l-373 725q-4 10 1 15.5t12 5.5h164q15 0 22 -17l342 -680l342 680q7 17 23 17h163q7 0 12 -5.5t1 -15.5l-373 -725h289q20 0 20 -20v-119q0 -21 -20 -21h-371v-137h330q20 0 20 -20v-119q0 -21 -20 -21h-330v-211q0 -20 -20 -20h-131q-21 0 -21 20v211h-313
q-21 0 -21 21v119q0 20 21 20h313v137h-354q-21 0 -21 21v119q0 20 21 20z" />
    <glyph glyph-name="brokenbar" unicode="&#xa6;" horiz-adv-x="516" 
d="M172 655v758q0 21 21 21h131q20 0 20 -21v-758q0 -20 -20 -20h-131q-21 0 -21 20zM172 -385v758q0 20 21 20h131q20 0 20 -20v-758q0 -21 -20 -21h-131q-21 0 -21 21z" />
    <glyph glyph-name="section" unicode="&#xa7;" horiz-adv-x="1030" 
d="M922 -51q0 -170 -117 -272.5t-293 -102.5q-187 0 -303.5 112.5t-116.5 272.5q0 21 21 21h131q20 0 20 -21q6 -101 71.5 -161t176.5 -60q109 0 173.5 58.5t64.5 152.5q0 82 -66 143.5t-211 138.5q-205 109 -286 187.5t-81 187.5q0 72 20.5 126t68.5 108q-103 103 -103 239
q0 170 117 272.5t293 102.5q187 0 303.5 -112.5t116.5 -272.5q0 -20 -21 -20h-131q-20 0 -20 20q-6 101 -71.5 161t-176.5 60q-109 0 -173.5 -58.5t-64.5 -152.5q0 -82 66 -143.5t211 -138.5q106 -59 166.5 -97.5t110.5 -83.5t69.5 -90.5t19.5 -103.5q0 -72 -20.5 -126
t-67.5 -108q103 -103 103 -239zM399 694l-67 39q-53 -56 -53 -119q0 -58 63.5 -110t271.5 -170l68 -39q53 56 53 119q0 57 -64 109.5t-272 170.5z" />
    <glyph glyph-name="dieresis" unicode="&#xa8;" horiz-adv-x="872" 
d="M164 1249v164q0 21 20 21h164q21 0 21 -21v-164q0 -20 -21 -20h-164q-20 0 -20 20zM504 1249v164q0 21 20 21h164q21 0 21 -21v-164q0 -20 -21 -20h-164q-20 0 -20 20z" />
    <glyph glyph-name="copyright" unicode="&#xa9;" horiz-adv-x="1638" 
d="M819 -20q-105 0 -207.5 30.5t-194 93t-161 149t-110 206.5t-40.5 258t40.5 258t110 206.5t161 149t194 93t207.5 30.5t207.5 -30.5t194 -93t161 -149t110 -206.5t40.5 -258t-40.5 -258t-110 -206.5t-161 -149t-194 -93t-207.5 -30.5zM819 66q92 0 180 25.5t167 79
t138.5 129t94.5 183.5t35 234t-35 234t-94.5 183.5t-138.5 129t-167 79t-180 25.5t-180 -25.5t-167 -79t-138 -129.5t-94 -183.5t-35 -233.5t35 -233.5t94 -183.5t138 -129.5t167 -79t180 -25.5zM1153 565h49q23 0 23 -20q-26 -140 -136.5 -222.5t-269.5 -82.5
q-82 0 -157.5 30.5t-137 87.5t-98.5 150.5t-37 208.5t37 208.5t98.5 150.5t137 87.5t157.5 30.5q159 0 269.5 -82.5t136.5 -222.5q0 -21 -23 -21h-49q-23 0 -29 21q-24 100 -104 159.5t-201 59.5q-137 0 -234.5 -104.5t-97.5 -286.5t97.5 -286.5t234.5 -104.5
q121 0 201 59.5t104 159.5q6 20 29 20z" />
    <glyph glyph-name="ordfeminine" unicode="&#xaa;" horiz-adv-x="946" 
d="M807 1413v-723q0 -20 -21 -20h-77q-21 0 -21 20v64q-85 -101 -244 -101q-151 0 -249.5 110.5t-98.5 287.5q0 178 98.5 288.5t249.5 110.5q156 0 244 -102v65q0 21 21 21h77q21 0 21 -21zM700 1051q0 125 -65.5 206.5t-173.5 81.5q-109 0 -175.5 -81.5t-66.5 -206.5
t66.5 -206t175.5 -81q108 0 173.5 81t65.5 206z" />
    <glyph glyph-name="guillemotleft" unicode="&#xab;" horiz-adv-x="1126" 
d="M1014 1051v-172q0 -21 -15 -33l-307 -285l307 -285q15 -12 15 -32v-172q0 -15 -13 -15q-6 0 -12 6l-436 404q-21 18 -21 37v114q0 19 21 37l436 404q6 6 12 6q13 0 13 -14zM578 1051v-172q0 -21 -15 -33l-307 -285l307 -285q15 -12 15 -32v-172q0 -15 -13 -15q-6 0 -12 6
l-436 404q-21 18 -21 37v114q0 19 21 37l436 404q6 6 12 6q13 0 13 -14z" />
    <glyph glyph-name="logicalnot" unicode="&#xac;" horiz-adv-x="1142" 
d="M819 659h-667q-21 0 -21 21v111q0 20 21 20h806q21 0 21 -20v-410q0 -21 -21 -21h-118q-21 0 -21 21v278z" />
    <glyph glyph-name="registered" unicode="&#xae;" horiz-adv-x="1638" 
d="M819 -20q-105 0 -207.5 30.5t-194 93t-161 149t-110 206.5t-40.5 258t40.5 258t110 206.5t161 149t194 93t207.5 30.5t207.5 -30.5t194 -93t161 -149t110 -206.5t40.5 -258t-40.5 -258t-110 -206.5t-161 -149t-194 -93t-207.5 -30.5zM819 66q92 0 180 25.5t167 79
t138.5 129t94.5 183.5t35 234t-35 234t-94.5 183.5t-138.5 129t-167 79t-180 25.5t-180 -25.5t-167 -79t-138 -129.5t-94 -183.5t-35 -233.5t35 -233.5t94 -183.5t138 -129.5t167 -79t180 -25.5zM537 272v893q0 23 22 23h279q145 0 221 -70.5t76 -189.5q0 -96 -50.5 -161.5
t-138.5 -90.5l201 -404q4 -12 4 -14q0 -8 -12 -8h-58q-23 0 -32 18l-201 396h-213v-392q0 -22 -23 -22h-53q-22 0 -22 22zM635 1102v-352h217q97 0 140.5 45t43.5 133q0 174 -184 174h-217z" />
    <glyph glyph-name="macron" unicode="&#xaf;" horiz-adv-x="610" 
d="M92 1241v102q0 21 21 21h385q20 0 20 -21v-102q0 -20 -20 -20h-385q-21 0 -21 20z" />
    <glyph glyph-name="degree" unicode="&#xb0;" horiz-adv-x="921" 
d="M102 1106q0 153 102 250.5t257 97.5t256.5 -97.5t101.5 -250.5t-101.5 -250.5t-256.5 -97.5t-257 97.5t-102 250.5zM246 1106q0 -102 60.5 -161.5t154.5 -59.5q96 0 155.5 59.5t59.5 161.5t-59.5 161.5t-155.5 59.5q-94 0 -154.5 -59.5t-60.5 -161.5z" />
    <glyph glyph-name="plusminus" unicode="&#xb1;" horiz-adv-x="1171" 
d="M154 160h864q20 0 20 -21v-119q0 -20 -20 -20h-864q-21 0 -21 20v119q0 21 21 21zM666 1159v-352h352q20 0 20 -21v-118q0 -21 -20 -21h-352v-352q0 -21 -21 -21h-119q-20 0 -20 21v352h-352q-21 0 -21 21v118q0 21 21 21h352v352q0 21 20 21h119q21 0 21 -21z" />
    <glyph glyph-name="twosuperior" unicode="&#xb2;" horiz-adv-x="724" 
d="M100 688v62q0 18 13 28l317 275q43 37 60.5 69.5t17.5 81.5q0 58 -38 94.5t-103 36.5q-62 0 -97 -37t-43 -96q-3 -20 -20 -20h-80q-21 0 -21 20q0 102 74 173t187 71q120 0 190 -70.5t70 -169.5q0 -134 -119 -235l-229 -193h344q20 0 20 -20v-70q0 -20 -20 -20h-502
q-21 0 -21 20z" />
    <glyph glyph-name="threesuperior" unicode="&#xb3;" horiz-adv-x="729" 
d="M281 1034v70q0 20 20 20h41q133 0 133 113q0 44 -35.5 75t-89.5 31q-105 0 -125 -104q-3 -16 -20 -16h-74q-20 0 -20 18q5 91 70 148t169 57q110 0 175 -55.5t65 -147.5q0 -54 -25.5 -96.5t-66.5 -67.5q58 -28 91.5 -72t33.5 -116q0 -103 -78.5 -169.5t-194.5 -66.5
q-114 0 -190 66t-76 166q0 20 20 20h80q18 0 21 -20q12 -59 49.5 -90t95.5 -31q68 0 111 33.5t43 91.5q0 59 -39 91t-107 32h-57q-20 0 -20 20z" />
    <glyph glyph-name="acute" unicode="&#xb4;" horiz-adv-x="776" 
d="M199 1155l141 258q12 21 31 21h194q15 0 15 -11l-5 -10l-210 -260q-13 -18 -37 -18h-119q-12 0 -12 12q0 6 2 8z" />
    <glyph glyph-name="mu" unicode="&#xb5;" horiz-adv-x="1167" 
d="M1004 1008v-988q0 -20 -21 -20h-119q-20 0 -20 20v117q-131 -157 -340 -157q-114 0 -197 47v-412q0 -21 -20 -21h-119q-21 0 -21 21v1393q0 20 21 20h119q20 0 20 -20v-631q0 -122 61 -184t173 -62q135 0 219 96.5t84 276.5v504q0 20 20 20h119q21 0 21 -20z" />
    <glyph glyph-name="paragraph" unicode="&#xb6;" horiz-adv-x="1298" 
d="M489 1434h732q20 0 20 -21v-123q0 -20 -20 -20h-148v-1454q0 -21 -20 -21h-131q-21 0 -21 21v1454h-190v-1454q0 -21 -21 -21h-131q-20 0 -20 21v860h-50q-196 0 -306.5 101t-110.5 276q0 178 110 279.5t307 101.5z" />
    <glyph glyph-name="periodcentered" unicode="&#xb7;" horiz-adv-x="593" 
d="M217 815h156q20 0 20 -20v-156q0 -21 -20 -21h-156q-20 0 -20 21v156q0 20 20 20z" />
    <glyph glyph-name="cedilla" unicode="&#xb8;" horiz-adv-x="557" 
d="M135 -211l-26 27q-5 5 -5 8q0 1 1 3t2 6t2 7l69 217q6 21 21 21h90q25 0 16 -21l-78 -182q54 14 113 14q81 0 127.5 -39t46.5 -106q0 -170 -229 -170q-120 0 -193 20q-1 1 -4 2q-15 11 -16 19v59q0 21 20 21l54 -11q55 -12 124 -12q49 0 79 17t30 47q0 63 -107 63
q-50 0 -108 -14q-6 -2 -12 -2q-11 0 -17 6z" />
    <glyph glyph-name="onesuperior" unicode="&#xb9;" horiz-adv-x="454" 
d="M219 688v600l-135 -74q-9 -6 -18 -6q-17 0 -17 17v86q0 12 14 20l173 94q15 9 30 9h47q21 0 21 -21v-725q0 -20 -21 -20h-73q-21 0 -21 20z" />
    <glyph glyph-name="ordmasculine" unicode="&#xba;" horiz-adv-x="946" 
d="M96 1051q0 178 107 288.5t270 110.5t270 -110.5t107 -288.5q0 -177 -107 -287.5t-270 -110.5t-270 110.5t-107 287.5zM219 1051q0 -124 72.5 -205.5t181.5 -81.5t181.5 81.5t72.5 205.5t-72.5 206t-181.5 82t-181.5 -82t-72.5 -206z" />
    <glyph glyph-name="guillemotright" unicode="&#xbb;" horiz-adv-x="1126" 
d="M113 879v172q0 14 12 14q6 0 12 -6l436 -404q21 -18 21 -37v-114q0 -19 -21 -37l-436 -404q-6 -6 -12 -6q-12 0 -12 15v172q0 21 14 32l307 285l-307 285q-14 11 -14 33zM549 879v172q0 14 12 14q6 0 12 -6l437 -404q20 -17 20 -37v-114q0 -20 -20 -37l-437 -404
q-6 -6 -12 -6q-12 0 -12 15v172q0 21 14 32l307 285l-307 285q-14 11 -14 33z" />
    <glyph glyph-name="onequarter" unicode="&#xbc;" horiz-adv-x="1642" 
d="M236 82l1132 1345q13 16 29 0l55 -47q13 -13 4 -28l-1132 -1346q-13 -16 -29 0l-55 47q-13 13 -4 29zM305 688v600l-135 -74q-9 -6 -18 -6q-17 0 -17 17v86q0 11 15 20l172 94q15 9 30 9h47q21 0 21 -21v-725q0 -20 -21 -20h-73q-21 0 -21 20zM1255 20v125h-344
q-20 0 -20 21v57q0 14 8 25l361 504q8 14 22 14h68q20 0 20 -21v-489h98q21 0 21 -20v-70q0 -21 -21 -21h-98v-125q0 -20 -20 -20h-74q-21 0 -21 20zM1255 569l-223 -313h223v313z" />
    <glyph glyph-name="onehalf" unicode="&#xbd;" horiz-adv-x="1789" 
d="M236 82l1132 1345q13 16 29 0l55 -47q13 -13 4 -28l-1132 -1346q-13 -16 -29 0l-55 47q-13 13 -4 29zM305 688v600l-135 -74q-9 -6 -18 -6q-17 0 -17 17v86q0 11 15 20l172 94q15 9 30 9h47q21 0 21 -21v-725q0 -20 -21 -20h-73q-21 0 -21 20zM1104 20v62q0 20 12 29
l318 274q42 36 59.5 69t17.5 83q0 58 -38 94.5t-103 36.5q-62 0 -96.5 -37t-42.5 -96q-3 -21 -21 -21h-80q-20 0 -20 21q0 102 73.5 172.5t186.5 70.5q121 0 190.5 -70t69.5 -169q0 -135 -119 -236l-229 -192h344q21 0 21 -21v-70q0 -20 -21 -20h-502q-20 0 -20 20z" />
    <glyph glyph-name="threequarters" unicode="&#xbe;" horiz-adv-x="1679" 
d="M301 82l1133 1345q12 16 28 0l56 -47q13 -13 4 -28l-1133 -1346q-13 -16 -29 0l-55 47q-13 13 -4 29zM1321 20v125h-344q-21 0 -21 21v57q0 13 9 25l360 504q8 14 23 14h67q21 0 21 -21v-489h98q20 0 20 -20v-70q0 -21 -20 -21h-98v-125q0 -20 -21 -20h-74q-20 0 -20 20z
M1321 569l-223 -313h223v313zM299 1034v70q0 20 20 20h41q134 0 134 113q0 44 -35.5 75t-89.5 31q-105 0 -125 -104q-3 -16 -21 -16h-73q-21 0 -21 18q5 91 70.5 148t169.5 57q110 0 174.5 -55t64.5 -148q0 -54 -25.5 -96.5t-66.5 -67.5q58 -28 91.5 -72t33.5 -116
q0 -103 -78.5 -169.5t-193.5 -66.5q-114 0 -190.5 66t-76.5 166q0 20 21 20h80q17 0 20 -20q12 -59 50 -90t96 -31q68 0 110.5 33t42.5 92t-38.5 91t-106.5 32h-58q-20 0 -20 20z" />
    <glyph glyph-name="questiondown" unicode="&#xbf;" horiz-adv-x="1167" 
d="M1014 -20q-5 -171 -127 -288.5t-322 -117.5q-196 0 -313 108.5t-117 282.5q0 60 19 111t50 88.5t68 71t74 65.5t68 65t50 77t19 94v75q0 21 21 21h131q20 0 20 -21v-61q0 -67 -19 -123.5t-50 -97t-68 -76.5t-74 -67.5t-68 -63t-50 -71.5t-19 -85q0 -108 70 -168.5
t188 -60.5q113 0 188.5 62t92.5 180q3 20 20 20h127q21 0 21 -20zM651 823h-164q-20 0 -20 21v164q0 20 20 20h164q21 0 21 -20v-164q0 -21 -21 -21z" />
    <glyph glyph-name="Agrave" unicode="&#xc0;" horiz-adv-x="1282" 
d="M1075 20l-141 396h-586l-141 -396q-5 -12 -9.5 -16t-15.5 -4h-137q-22 0 -22 20q0 9 2 13l507 1380q8 18 13 20q3 1 8 1h176q6 0 9.5 -2t5.5 -5t4 -9q1 -3 2 -5l507 -1380q3 -6 3 -13q0 -20 -23 -20h-137q-11 0 -15.5 4t-9.5 16zM641 1227l-233 -647h466zM582 1819
l141 -258q2 -2 2 -9q0 -12 -12 -12h-119q-21 0 -37 19l-211 260q-4 8 -4 10q0 10 14 10h195q20 0 31 -20z" />
    <glyph glyph-name="Aacute" unicode="&#xc1;" horiz-adv-x="1282" 
d="M1075 20l-141 396h-586l-141 -396q-5 -12 -9.5 -16t-15.5 -4h-137q-22 0 -22 20q0 9 2 13l507 1380q8 18 13 20q3 1 8 1h176q6 0 9.5 -2t5.5 -5t4 -9q1 -3 2 -5l507 -1380q3 -6 3 -13q0 -20 -23 -20h-137q-11 0 -15.5 4t-9.5 16zM641 1227l-233 -647h466zM535 1561
l141 258q11 20 31 20h194q14 0 14 -10q0 -2 -4 -10l-211 -260q-14 -19 -36 -19h-119q-13 0 -13 12q0 6 3 9z" />
    <glyph glyph-name="Acircumflex" unicode="&#xc2;" horiz-adv-x="1282" 
d="M1075 20l-141 396h-586l-141 -396q-5 -12 -9.5 -16t-15.5 -4h-137q-22 0 -22 20q0 9 2 13l507 1380q8 18 13 20q3 1 8 1h176q6 0 9.5 -2t5.5 -5t4 -9q1 -3 2 -5l507 -1380q3 -6 3 -13q0 -20 -23 -20h-137q-11 0 -15.5 4t-9.5 16zM641 1227l-233 -647h466zM715 1823
l215 -262q6 -7 3 -14t-13 -7h-127q-18 0 -37 19l-129 129l-129 -129q-19 -19 -37 -19h-127q-10 0 -13 7t3 14l215 262q16 16 30 16h115q15 0 31 -16z" />
    <glyph glyph-name="Atilde" unicode="&#xc3;" horiz-adv-x="1282" 
d="M1075 20l-141 396h-586l-141 -396q-5 -12 -9.5 -16t-15.5 -4h-137q-22 0 -22 20q0 9 2 13l507 1380q8 18 13 20q3 1 8 1h176q6 0 9.5 -2t5.5 -5t4 -9q1 -3 2 -5l507 -1380q3 -6 3 -13q0 -20 -23 -20h-137q-11 0 -15.5 4t-9.5 16zM641 1227l-233 -647h466zM305 1765
q99 74 201 74q50 0 90 -13t61.5 -29t53 -29t67.5 -13q28 0 54.5 11.5t70.5 39.5q12 4 15 4q10 0 20 -16l57 -86q10 -17 -16 -35q-99 -74 -201 -74q-51 0 -91 13t-60.5 29t-52 29t-68.5 13q-28 0 -54.5 -11.5t-70.5 -39.5q-12 -4 -14 -4q-11 0 -21 17l-57 86q-10 17 16 34z
" />
    <glyph glyph-name="Adieresis" unicode="&#xc4;" horiz-adv-x="1282" 
d="M1075 20l-141 396h-586l-141 -396q-5 -12 -9.5 -16t-15.5 -4h-137q-22 0 -22 20q0 9 2 13l507 1380q8 18 13 20q3 1 8 1h176q6 0 9.5 -2t5.5 -5t4 -9q1 -3 2 -5l507 -1380q3 -6 3 -13q0 -20 -23 -20h-137q-11 0 -15.5 4t-9.5 16zM641 1227l-233 -647h466zM354 1655v164
q0 20 21 20h164q20 0 20 -20v-164q0 -21 -20 -21h-164q-21 0 -21 21zM694 1655v164q0 20 21 20h164q20 0 20 -20v-164q0 -21 -20 -21h-164q-21 0 -21 21z" />
    <glyph glyph-name="Aring" unicode="&#xc5;" horiz-adv-x="1282" 
d="M1075 20l-141 396h-586l-141 -396q-5 -12 -9.5 -16t-15.5 -4h-137q-22 0 -22 20q0 9 2 13l507 1380q8 18 13 20q3 1 8 1h176q6 0 9.5 -2t5.5 -5t4 -9q1 -3 2 -5l507 -1380q3 -6 3 -13q0 -20 -23 -20h-137q-11 0 -15.5 4t-9.5 16zM641 1227l-233 -647h466zM449 1708
q0 75 50 123.5t128 48.5t128 -48.5t50 -123.5t-50 -123.5t-128 -48.5t-128 48.5t-50 123.5zM547 1708q0 -38 22 -60t58 -22t58 22t22 60t-22 60t-58 22t-58 -22t-22 -60z" />
    <glyph glyph-name="AE" unicode="&#xc6;" horiz-adv-x="1792" 
d="M940 672v-508h707q20 0 20 -21v-123q0 -20 -20 -20h-859q-20 0 -20 20v396h-401l-158 -396q-5 -12 -9.5 -16t-15.5 -4h-139q-22 0 -22 20q0 9 2 13l555 1380q1 2 2.5 6t2 5.5t2 4t3.5 3.5t4.5 1.5t5.5 0.5h1016q20 0 20 -21v-123q0 -20 -20 -20h-676v-434h614
q21 0 21 -21v-123q0 -20 -21 -20h-614zM707 1270l-275 -690h336v690h-61z" />
    <glyph glyph-name="Ccedilla" unicode="&#xc7;" horiz-adv-x="1447" 
d="M612 -211l-26 27q-4 4 -4 8q0 1 0.5 2.5t1.5 5t2 6.5l45 154q-85 15 -161 51.5t-143 98t-116 143t-77 192.5t-28 240q0 145 36 268t97.5 208t143.5 145t173.5 88t188.5 28q241 0 411 -136t202 -362q0 -20 -23 -20h-125q-18 0 -24 20q-94 334 -441 334q-93 0 -174.5 -35.5
t-145.5 -104t-101 -180t-37 -253.5q0 -143 37 -255.5t101 -180.5t145 -103t175 -35q347 0 441 334q6 21 24 21h125q23 0 23 -21q-32 -226 -201 -361.5t-407 -135.5l-45 -105q54 14 112 14q81 0 127.5 -39t46.5 -106q0 -170 -229 -170q-120 0 -193 20q-1 1 -4 2
q-15 11 -16 19v59q0 21 20 21l55 -11q55 -12 124 -12q48 0 78 17t30 47q0 63 -106 63q-51 0 -109 -14q-6 -2 -12 -2q-11 0 -17 6z" />
    <glyph glyph-name="Egrave" unicode="&#xc8;" horiz-adv-x="1196" 
d="M344 672v-508h707q20 0 20 -21v-123q0 -20 -20 -20h-858q-21 0 -21 20v1393q0 21 21 21h827q20 0 20 -21v-123q0 -20 -20 -20h-676v-434h614q21 0 21 -21v-123q0 -20 -21 -20h-614zM594 1819l141 -258q2 -2 2 -9q0 -12 -12 -12h-119q-21 0 -37 19l-211 260q-4 8 -4 10
q0 10 15 10h194q20 0 31 -20z" />
    <glyph glyph-name="Eacute" unicode="&#xc9;" horiz-adv-x="1196" 
d="M344 672v-508h707q20 0 20 -21v-123q0 -20 -20 -20h-858q-21 0 -21 20v1393q0 21 21 21h827q20 0 20 -21v-123q0 -20 -20 -20h-676v-434h614q21 0 21 -21v-123q0 -20 -21 -20h-614zM473 1561l141 258q11 20 31 20h195q14 0 14 -10q0 -2 -4 -10l-211 -260q-14 -19 -37 -19
h-119q-12 0 -12 12q0 7 2 9z" />
    <glyph glyph-name="Ecircumflex" unicode="&#xca;" horiz-adv-x="1196" 
d="M344 672v-508h707q20 0 20 -21v-123q0 -20 -20 -20h-858q-21 0 -21 20v1393q0 21 21 21h827q20 0 20 -21v-123q0 -20 -20 -20h-676v-434h614q21 0 21 -21v-123q0 -20 -21 -20h-614zM698 1823l215 -262q6 -7 3 -14t-13 -7h-127q-18 0 -37 19l-129 129l-129 -129
q-19 -19 -37 -19h-127q-10 0 -13 7t3 14l215 262q16 16 31 16h115q14 0 30 -16z" />
    <glyph glyph-name="Edieresis" unicode="&#xcb;" horiz-adv-x="1196" 
d="M344 672v-508h707q20 0 20 -21v-123q0 -20 -20 -20h-858q-21 0 -21 20v1393q0 21 21 21h827q20 0 20 -21v-123q0 -20 -20 -20h-676v-434h614q21 0 21 -21v-123q0 -20 -21 -20h-614zM336 1655v164q0 20 20 20h164q21 0 21 -20v-164q0 -21 -21 -21h-164q-20 0 -20 21z
M676 1655v164q0 20 20 20h164q21 0 21 -20v-164q0 -21 -21 -21h-164q-20 0 -20 21z" />
    <glyph glyph-name="Igrave" unicode="&#xcc;" horiz-adv-x="516" 
d="M172 20v1393q0 21 21 21h131q20 0 20 -21v-1393q0 -20 -20 -20h-131q-21 0 -21 20zM221 1819l141 -258q3 -3 3 -9q0 -12 -13 -12h-119q-20 0 -36 19l-211 260q-4 8 -4 10q0 10 14 10h194q20 0 31 -20z" />
    <glyph glyph-name="Iacute" unicode="&#xcd;" horiz-adv-x="516" 
d="M172 20v1393q0 21 21 21h131q20 0 20 -21v-1393q0 -20 -20 -20h-131q-21 0 -21 20zM156 1561l141 258q11 20 31 20h194q15 0 15 -10l-5 -10l-210 -260q-14 -19 -37 -19h-119q-12 0 -12 12q0 7 2 9z" />
    <glyph glyph-name="Icircumflex" unicode="&#xce;" horiz-adv-x="516" 
d="M172 20v1393q0 21 21 21h131q20 0 20 -21v-1393q0 -20 -20 -20h-131q-21 0 -21 20zM344 1823l215 -262q6 -7 3 -14t-13 -7h-127q-18 0 -37 19l-129 129l-129 -129q-19 -19 -37 -19h-127q-10 0 -13 7t3 14l215 262q16 16 31 16h114q15 0 31 -16z" />
    <glyph glyph-name="Idieresis" unicode="&#xcf;" horiz-adv-x="516" 
d="M172 20v1393q0 21 21 21h131q20 0 20 -21v-1393q0 -20 -20 -20h-131q-21 0 -21 20zM-14 1655v164q0 20 20 20h164q20 0 20 -20v-164q0 -21 -20 -21h-164q-20 0 -20 21zM326 1655v164q0 20 20 20h164q20 0 20 -20v-164q0 -21 -20 -21h-164q-20 0 -20 21z" />
    <glyph glyph-name="Eth" unicode="&#xd0;" horiz-adv-x="1386" 
d="M209 797v616q0 21 20 21h398q135 0 252 -46t207 -133t142 -225.5t52 -312.5t-52 -312.5t-142 -225.5t-207 -133t-252 -46h-398q-20 0 -20 20v617h-166q-20 0 -20 20v119q0 21 20 21h166zM381 797h326q20 0 20 -21v-119q0 -20 -20 -20h-326v-473h221q110 0 199.5 33
t157 99t104.5 173.5t37 247.5t-37 247.5t-104.5 173.5t-157 99t-199.5 33h-221v-473z" />
    <glyph glyph-name="Ntilde" unicode="&#xd1;" horiz-adv-x="1425" 
d="M1233 0h-158q-26 0 -33 16l-698 1147v-1143q0 -20 -20 -20h-131q-21 0 -21 20v1393q0 21 21 21h157q26 0 33 -17l698 -1147v1143q0 21 21 21h131q20 0 20 -21v-1393q0 -20 -20 -20zM383 1765q99 74 201 74q50 0 90 -13t61.5 -29t53 -29t67.5 -13q28 0 54.5 11.5
t70.5 39.5q12 4 14 4q11 0 21 -16l57 -86q10 -17 -16 -35q-99 -74 -201 -74q-51 0 -91 13t-60.5 29t-52 29t-68.5 13q-28 0 -54.5 -11.5t-70.5 -39.5q-12 -4 -15 -4q-10 0 -20 17l-57 86q-10 17 16 34z" />
    <glyph glyph-name="Ograve" unicode="&#xd2;" horiz-adv-x="1572" 
d="M786 -20q-129 0 -249 47t-217 136t-155.5 232.5t-58.5 321.5t58.5 321.5t155.5 232.5t217 136t249 47t249 -47t217 -136t155.5 -232.5t58.5 -321.5t-58.5 -321.5t-155.5 -232.5t-217 -136t-249 -47zM786 143q102 0 191 35.5t158.5 104t110 180.5t40.5 254t-40.5 253.5
t-110 180t-158.5 104t-191 35.5t-190.5 -35.5t-158.5 -104t-110 -180t-40 -253.5q0 -114 26.5 -209.5t72.5 -162t109.5 -112.5t136.5 -68t154 -22zM762 1819l141 -258q2 -2 2 -9q0 -12 -12 -12h-119q-21 0 -37 19l-211 260q-4 8 -4 10q0 10 15 10h194q20 0 31 -20z" />
    <glyph glyph-name="Oacute" unicode="&#xd3;" horiz-adv-x="1572" 
d="M786 -20q-129 0 -249 47t-217 136t-155.5 232.5t-58.5 321.5t58.5 321.5t155.5 232.5t217 136t249 47t249 -47t217 -136t155.5 -232.5t58.5 -321.5t-58.5 -321.5t-155.5 -232.5t-217 -136t-249 -47zM786 143q102 0 191 35.5t158.5 104t110 180.5t40.5 254t-40.5 253.5
t-110 180t-158.5 104t-191 35.5t-190.5 -35.5t-158.5 -104t-110 -180t-40 -253.5q0 -114 26.5 -209.5t72.5 -162t109.5 -112.5t136.5 -68t154 -22zM641 1561l141 258q11 20 31 20h195q14 0 14 -10q0 -2 -4 -10l-211 -260q-14 -19 -37 -19h-119q-12 0 -12 12q0 7 2 9z" />
    <glyph glyph-name="Ocircumflex" unicode="&#xd4;" horiz-adv-x="1572" 
d="M786 -20q-129 0 -249 47t-217 136t-155.5 232.5t-58.5 321.5t58.5 321.5t155.5 232.5t217 136t249 47t249 -47t217 -136t155.5 -232.5t58.5 -321.5t-58.5 -321.5t-155.5 -232.5t-217 -136t-249 -47zM786 143q102 0 191 35.5t158.5 104t110 180.5t40.5 254t-40.5 253.5
t-110 180t-158.5 104t-191 35.5t-190.5 -35.5t-158.5 -104t-110 -180t-40 -253.5q0 -114 26.5 -209.5t72.5 -162t109.5 -112.5t136.5 -68t154 -22zM874 1823l216 -262q6 -7 2.5 -14t-13.5 -7h-127q-18 0 -37 19l-129 129l-129 -129q-19 -19 -36 -19h-127q-10 0 -13.5 7
t2.5 14l215 262q16 16 31 16h115q14 0 30 -16z" />
    <glyph glyph-name="Otilde" unicode="&#xd5;" horiz-adv-x="1572" 
d="M786 -20q-129 0 -249 47t-217 136t-155.5 232.5t-58.5 321.5t58.5 321.5t155.5 232.5t217 136t249 47t249 -47t217 -136t155.5 -232.5t58.5 -321.5t-58.5 -321.5t-155.5 -232.5t-217 -136t-249 -47zM786 143q102 0 191 35.5t158.5 104t110 180.5t40.5 254t-40.5 253.5
t-110 180t-158.5 104t-191 35.5t-190.5 -35.5t-158.5 -104t-110 -180t-40 -253.5q0 -114 26.5 -209.5t72.5 -162t109.5 -112.5t136.5 -68t154 -22zM451 1765q99 74 200 74q50 0 90.5 -13t62 -29t53 -29t67.5 -13q28 0 54.5 11.5t70.5 39.5q12 4 14 4q10 0 20 -16l58 -86
q10 -17 -17 -35q-99 -74 -200 -74q-51 0 -91 13t-61 29t-52.5 29t-68.5 13q-28 0 -54.5 -11.5t-70.5 -39.5q-12 -4 -14 -4q-10 0 -20 17l-58 86q-10 16 17 34z" />
    <glyph glyph-name="Odieresis" unicode="&#xd6;" horiz-adv-x="1572" 
d="M786 -20q-129 0 -249 47t-217 136t-155.5 232.5t-58.5 321.5t58.5 321.5t155.5 232.5t217 136t249 47t249 -47t217 -136t155.5 -232.5t58.5 -321.5t-58.5 -321.5t-155.5 -232.5t-217 -136t-249 -47zM786 143q102 0 191 35.5t158.5 104t110 180.5t40.5 254t-40.5 253.5
t-110 180t-158.5 104t-191 35.5t-190.5 -35.5t-158.5 -104t-110 -180t-40 -253.5q0 -114 26.5 -209.5t72.5 -162t109.5 -112.5t136.5 -68t154 -22zM514 1655v164q0 20 21 20h163q21 0 21 -20v-164q0 -21 -21 -21h-163q-21 0 -21 21zM854 1655v164q0 20 20 20h164
q21 0 21 -20v-164q0 -21 -21 -21h-164q-20 0 -20 21z" />
    <glyph glyph-name="multiply" unicode="&#xd7;" horiz-adv-x="1036" 
d="M881 950l-250 -250l250 -249q8 -8 8 -15q0 -6 -8 -14l-84 -84q-8 -8 -15 -8q-6 0 -14 8l-250 250l-250 -250q-8 -8 -14 -8t-14 8l-84 84q-9 9 -9 14q0 6 9 15l250 249l-250 250q-9 9 -9 15q0 5 9 14l84 84q8 8 14 8t14 -8l250 -250l250 250q8 8 14 8q7 0 15 -8l84 -84
q8 -8 8 -14q0 -7 -8 -15z" />
    <glyph glyph-name="Oslash" unicode="&#xd8;" horiz-adv-x="1572" 
d="M786 -20q-180 0 -321 79l-86 -147q-14 -17 -29 -8l-55 33q-17 10 -8 28l88 152q-125 98 -197 248t-72 352q0 178 58.5 321.5t155.5 232.5t217 136t249 47q171 0 322 -80l86 148q10 17 29 8l55 -33q17 -14 8 -29l-88 -151q268 -209 268 -600q0 -178 -58.5 -321.5
t-155.5 -232.5t-217 -136t-249 -47zM786 143q102 0 191 35.5t158.5 104t110 180.5t40.5 254q0 302 -172 454l-567 -970q107 -58 239 -58zM287 717q0 -303 172 -455l567 971q-105 57 -240 57q-102 0 -190.5 -35.5t-158.5 -104t-110 -180t-40 -253.5z" />
    <glyph glyph-name="Ugrave" unicode="&#xd9;" horiz-adv-x="1310" 
d="M139 496v917q0 21 21 21h131q20 0 20 -21v-895q0 -184 88.5 -279.5t255.5 -95.5t255.5 95.5t88.5 279.5v895q0 21 21 21h131q20 0 20 -21v-917q0 -240 -145 -378t-371 -138t-371 138t-145 378zM631 1819l141 -258q2 -2 2 -9q0 -12 -12 -12h-119q-21 0 -37 19l-211 260
q-4 8 -4 10q0 10 15 10h194q20 0 31 -20z" />
    <glyph glyph-name="Uacute" unicode="&#xda;" horiz-adv-x="1310" 
d="M139 496v917q0 21 21 21h131q20 0 20 -21v-895q0 -184 88.5 -279.5t255.5 -95.5t255.5 95.5t88.5 279.5v895q0 21 21 21h131q20 0 20 -21v-917q0 -240 -145 -378t-371 -138t-371 138t-145 378zM528 1561l142 258q11 20 30 20h195q14 0 14 -10q0 -2 -4 -10l-211 -260
q-14 -19 -37 -19h-118q-13 0 -13 12q0 7 2 9z" />
    <glyph glyph-name="Ucircumflex" unicode="&#xdb;" horiz-adv-x="1310" 
d="M139 496v917q0 21 21 21h131q20 0 20 -21v-895q0 -184 88.5 -279.5t255.5 -95.5t255.5 95.5t88.5 279.5v895q0 21 21 21h131q20 0 20 -21v-917q0 -240 -145 -378t-371 -138t-371 138t-145 378zM743 1823l215 -262q6 -7 3 -14t-13 -7h-127q-18 0 -37 19l-129 129
l-129 -129q-19 -19 -37 -19h-127q-10 0 -13 7t3 14l215 262q16 16 31 16h115q14 0 30 -16z" />
    <glyph glyph-name="Udieresis" unicode="&#xdc;" horiz-adv-x="1310" 
d="M139 496v917q0 21 21 21h131q20 0 20 -21v-895q0 -184 88.5 -279.5t255.5 -95.5t255.5 95.5t88.5 279.5v895q0 21 21 21h131q20 0 20 -21v-917q0 -240 -145 -378t-371 -138t-371 138t-145 378zM383 1655v164q0 20 20 20h164q21 0 21 -20v-164q0 -21 -21 -21h-164
q-20 0 -20 21zM723 1655v164q0 20 20 20h164q21 0 21 -20v-164q0 -21 -21 -21h-164q-20 0 -20 21z" />
    <glyph glyph-name="Yacute" unicode="&#xdd;" horiz-adv-x="1118" 
d="M1100 1413l-455 -885v-508q0 -20 -20 -20h-131q-21 0 -21 20v508l-455 885q-4 10 0.5 15.5t12.5 5.5h162q14 0 24 -17l342 -680l342 680q10 17 25 17h161q8 0 12.5 -5.5t0.5 -15.5zM444 1561l142 258q11 20 30 20h195q14 0 14 -10q0 -2 -4 -10l-211 -260q-14 -19 -37 -19
h-118q-13 0 -13 12q0 7 2 9z" />
    <glyph glyph-name="Thorn" unicode="&#xde;" horiz-adv-x="1241" 
d="M172 20v1393q0 21 21 21h131q20 0 20 -21v-297h344q230 0 348.5 -103.5t118.5 -295.5t-119 -296t-348 -104h-344v-297q0 -20 -20 -20h-131q-21 0 -21 20zM344 952v-471h371q134 0 197 56.5t63 179.5q0 122 -63 178.5t-197 56.5h-371z" />
    <glyph glyph-name="germandbls" unicode="&#xdf;" horiz-adv-x="1277" 
d="M825 -20q-158 0 -259.5 96t-106.5 231q0 21 20 21h115q3 0 5.5 -0.5t4.5 -1.5t3.5 -3.5t2 -4t2 -5.5t2.5 -6q18 -77 73.5 -126.5t137.5 -49.5q199 0 199 201q0 52 -20.5 92t-53 64.5t-72.5 45t-79.5 41t-72 44.5t-53 63t-20.5 90q0 44 19 80.5t46.5 62t54.5 51t46 60
t19 76.5q0 92 -59.5 146.5t-164.5 54.5q-110 0 -170.5 -64t-60.5 -186v-1033q0 -20 -21 -20h-118q-21 0 -21 20v857h-153q-21 0 -21 20v111q0 20 21 20h153v66q0 154 109 257t282 103t278 -93.5t105 -250.5q0 -59 -19 -106t-46 -75.5t-54 -52.5t-46 -49.5t-19 -54.5
q0 -27 21 -49.5t54.5 -41t73.5 -38t80.5 -46.5t74 -60.5t54.5 -85t21 -115.5q0 -162 -104.5 -259t-262.5 -97z" />
    <glyph glyph-name="agrave" unicode="&#xe0;" horiz-adv-x="1103" 
d="M285 723h-131q-15 0 -15 12q0 13 2 21q32 126 138.5 209.5t275.5 83.5q180 0 294 -99.5t114 -259.5v-493q0 -72 6.5 -106t27.5 -71q1 -2 2 -4.5t1.5 -3.5t0.5 -2q0 -10 -16 -10h-162q-20 0 -20 20v107q-50 -68 -138.5 -107.5t-197.5 -39.5q-69 0 -133.5 20.5t-117.5 59.5
t-85.5 102.5t-32.5 142.5q0 110 57 188.5t149.5 116t209.5 37.5q131 0 289 -45v57q0 116 -64.5 177t-183.5 61q-180 0 -242 -156q-7 -18 -28 -18zM803 451q-122 45 -279 45q-117 0 -187.5 -45t-70.5 -136q0 -90 57 -137t162 -47q135 0 226.5 85.5t91.5 234.5zM518 1413
l141 -258q3 -3 3 -8q0 -12 -13 -12h-119q-21 0 -36 18l-211 260q-4 8 -4 10q0 11 14 11h194q19 0 31 -21z" />
    <glyph glyph-name="aacute" unicode="&#xe1;" horiz-adv-x="1103" 
d="M285 723h-131q-15 0 -15 12q0 13 2 21q32 126 138.5 209.5t275.5 83.5q180 0 294 -99.5t114 -259.5v-493q0 -72 6.5 -106t27.5 -71q1 -2 2 -4.5t1.5 -3.5t0.5 -2q0 -10 -16 -10h-162q-20 0 -20 20v107q-50 -68 -138.5 -107.5t-197.5 -39.5q-69 0 -133.5 20.5t-117.5 59.5
t-85.5 102.5t-32.5 142.5q0 110 57 188.5t149.5 116t209.5 37.5q131 0 289 -45v57q0 116 -64.5 177t-183.5 61q-180 0 -242 -156q-7 -18 -28 -18zM803 451q-122 45 -279 45q-117 0 -187.5 -45t-70.5 -136q0 -90 57 -137t162 -47q135 0 226.5 85.5t91.5 234.5zM424 1155
l141 258q12 21 31 21h195q14 0 14 -11q0 -2 -4 -10l-211 -260q-13 -18 -37 -18h-119q-12 0 -12 12q0 6 2 8z" />
    <glyph glyph-name="acircumflex" unicode="&#xe2;" horiz-adv-x="1103" 
d="M285 723h-131q-15 0 -15 12q0 13 2 21q32 126 138.5 209.5t275.5 83.5q180 0 294 -99.5t114 -259.5v-493q0 -72 6.5 -106t27.5 -71q1 -2 2 -4.5t1.5 -3.5t0.5 -2q0 -10 -16 -10h-162q-20 0 -20 20v107q-50 -68 -138.5 -107.5t-197.5 -39.5q-69 0 -133.5 20.5t-117.5 59.5
t-85.5 102.5t-32.5 142.5q0 110 57 188.5t149.5 116t209.5 37.5q131 0 289 -45v57q0 116 -64.5 177t-183.5 61q-180 0 -242 -156q-7 -18 -28 -18zM803 451q-122 45 -279 45q-117 0 -187.5 -45t-70.5 -136q0 -90 57 -137t162 -47q135 0 226.5 85.5t91.5 234.5zM643 1417
l215 -262q6 -7 3 -13.5t-13 -6.5h-127q-19 0 -37 18l-129 129l-129 -129q-18 -18 -37 -18h-127q-10 0 -13 6.5t3 13.5l215 262q17 17 31 17h114q14 0 31 -17z" />
    <glyph glyph-name="atilde" unicode="&#xe3;" horiz-adv-x="1103" 
d="M285 723h-131q-15 0 -15 12q0 13 2 21q32 126 138.5 209.5t275.5 83.5q180 0 294 -99.5t114 -259.5v-493q0 -72 6.5 -106t27.5 -71q1 -2 2 -4.5t1.5 -3.5t0.5 -2q0 -10 -16 -10h-162q-20 0 -20 20v107q-50 -68 -138.5 -107.5t-197.5 -39.5q-69 0 -133.5 20.5t-117.5 59.5
t-85.5 102.5t-32.5 142.5q0 110 57 188.5t149.5 116t209.5 37.5q131 0 289 -45v57q0 116 -64.5 177t-183.5 61q-180 0 -242 -156q-7 -18 -28 -18zM803 451q-122 45 -279 45q-117 0 -187.5 -45t-70.5 -136q0 -90 57 -137t162 -47q135 0 226.5 85.5t91.5 234.5zM227 1360
q99 74 201 74q50 0 90 -13t61.5 -29t53 -29t67.5 -13q28 0 54.5 11.5t70.5 39.5q12 4 15 4q10 0 20 -16l58 -86q10 -17 -17 -35q-99 -74 -201 -74q-51 0 -91 13t-60.5 29t-52 29t-68.5 13q-28 0 -54.5 -11.5t-70.5 -39.5q-12 -4 -14 -4q-11 0 -21 16l-57 86q-10 17 16 35z
" />
    <glyph glyph-name="adieresis" unicode="&#xe4;" horiz-adv-x="1103" 
d="M285 723h-131q-15 0 -15 12q0 13 2 21q32 126 138.5 209.5t275.5 83.5q180 0 294 -99.5t114 -259.5v-493q0 -72 6.5 -106t27.5 -71q1 -2 2 -4.5t1.5 -3.5t0.5 -2q0 -10 -16 -10h-162q-20 0 -20 20v107q-50 -68 -138.5 -107.5t-197.5 -39.5q-69 0 -133.5 20.5t-117.5 59.5
t-85.5 102.5t-32.5 142.5q0 110 57 188.5t149.5 116t209.5 37.5q131 0 289 -45v57q0 116 -64.5 177t-183.5 61q-180 0 -242 -156q-7 -18 -28 -18zM803 451q-122 45 -279 45q-117 0 -187.5 -45t-70.5 -136q0 -90 57 -137t162 -47q135 0 226.5 85.5t91.5 234.5zM283 1249v164
q0 21 20 21h164q20 0 20 -21v-164q0 -20 -20 -20h-164q-20 0 -20 20zM623 1249v164q0 21 20 21h164q20 0 20 -21v-164q0 -20 -20 -20h-164q-20 0 -20 20z" />
    <glyph glyph-name="aring" unicode="&#xe5;" horiz-adv-x="1103" 
d="M285 723h-131q-15 0 -15 12q0 13 2 21q32 126 138.5 209.5t275.5 83.5q180 0 294 -99.5t114 -259.5v-493q0 -72 6.5 -106t27.5 -71q1 -2 2 -4.5t1.5 -3.5t0.5 -2q0 -10 -16 -10h-162q-20 0 -20 20v107q-50 -68 -138.5 -107.5t-197.5 -39.5q-69 0 -133.5 20.5t-117.5 59.5
t-85.5 102.5t-32.5 142.5q0 110 57 188.5t149.5 116t209.5 37.5q131 0 289 -45v57q0 116 -64.5 177t-183.5 61q-180 0 -242 -156q-7 -18 -28 -18zM803 451q-122 45 -279 45q-117 0 -187.5 -45t-70.5 -136q0 -90 57 -137t162 -47q135 0 226.5 85.5t91.5 234.5zM379 1303
q0 75 50 123.5t128 48.5t128 -48.5t50 -123.5t-50 -124t-128 -49t-128 49t-50 124zM477 1303q0 -38 22 -60t58 -22t58 22t22 60t-22 59.5t-58 21.5t-58 -21.5t-22 -59.5z" />
    <glyph glyph-name="ae" unicode="&#xe6;" horiz-adv-x="1910" 
d="M285 723h-131q-15 0 -15 12q0 13 2 21q32 126 138.5 209.5t275.5 83.5q123 0 218 -50t145 -137q70 88 172 137.5t223 49.5q114 0 209.5 -43t159 -116t98.5 -169t35 -203v-33q0 -20 -21 -20h-819q12 -154 102 -244t240 -90q223 0 301 188q7 19 29 19h133q14 0 14 -14
q0 -12 -4 -21q-59 -162 -181 -242.5t-296 -80.5q-138 0 -246.5 56.5t-175.5 158.5q-61 -100 -166.5 -157.5t-239.5 -57.5q-102 0 -188 34.5t-142.5 110t-56.5 180.5q0 110 57 188.5t149.5 116t209.5 37.5q138 0 289 -43v55q0 116 -64.5 177t-183.5 61q-180 0 -242 -156
q-7 -18 -28 -18zM803 449q-127 47 -279 47q-117 0 -187.5 -45t-70.5 -136q0 -90 57 -137t162 -47q135 0 226.5 84.5t91.5 233.5zM1313 897q-122 0 -213 -73t-119 -208h661q-25 128 -113.5 204.5t-215.5 76.5z" />
    <glyph glyph-name="ccedilla" unicode="&#xe7;" horiz-adv-x="1161" 
d="M483 -211l-26 27q-4 4 -4 8q0 1 0.5 2.5t1.5 5t2 6.5l47 152q-185 34 -293.5 177t-108.5 347q0 231 140 383t368 152q184 0 300.5 -91.5t156.5 -250.5q2 -8 2 -21q0 -12 -14 -12h-125q-22 0 -29 18q-32 98 -109 151.5t-182 53.5q-156 0 -248 -100.5t-92 -282.5t92 -282.5
t248 -100.5q105 0 182 53.5t109 151.5q7 18 29 18h125q14 0 14 -12t-2 -20q-39 -158 -152.5 -248t-293.5 -94l-46 -105q54 14 113 14q81 0 127.5 -39t46.5 -106q0 -170 -229 -170q-120 0 -193 20q-1 1 -4 2q-15 11 -16 19v59q0 21 20 21l54 -11q55 -12 124 -12q49 0 79 17
t30 47q0 63 -106 63q-51 0 -109 -14q-6 -2 -12 -2q-11 0 -17 6z" />
    <glyph glyph-name="egrave" unicode="&#xe8;" horiz-adv-x="1214" 
d="M1096 465h-822q12 -154 103 -244t241 -90q224 0 302 188q7 19 28 19h133q15 0 15 -14q0 -12 -4 -21q-59 -162 -181 -242.5t-297 -80.5q-153 0 -270.5 71t-179.5 191.5t-62 271.5q0 227 145.5 381t366.5 154q114 0 209.5 -43t159 -116t98.5 -169t35 -203v-33
q0 -20 -20 -20zM614 897q-122 0 -212.5 -73t-118.5 -208h661q-25 128 -114 204.5t-216 76.5zM602 1413l141 -258q2 -2 2 -8q0 -12 -12 -12h-119q-21 0 -36 18l-211 260l-5 10q0 11 15 11h194q19 0 31 -21z" />
    <glyph glyph-name="eacute" unicode="&#xe9;" horiz-adv-x="1214" 
d="M1096 465h-822q12 -154 103 -244t241 -90q224 0 302 188q7 19 28 19h133q15 0 15 -14q0 -12 -4 -21q-59 -162 -181 -242.5t-297 -80.5q-153 0 -270.5 71t-179.5 191.5t-62 271.5q0 227 145.5 381t366.5 154q114 0 209.5 -43t159 -116t98.5 -169t35 -203v-33
q0 -20 -20 -20zM614 897q-122 0 -212.5 -73t-118.5 -208h661q-25 128 -114 204.5t-216 76.5zM457 1155l141 258q12 21 31 21h194q15 0 15 -11q0 -2 -4 -10l-211 -260q-13 -18 -37 -18h-119q-12 0 -12 12q0 6 2 8z" />
    <glyph glyph-name="ecircumflex" unicode="&#xea;" horiz-adv-x="1214" 
d="M1096 465h-822q12 -154 103 -244t241 -90q224 0 302 188q7 19 28 19h133q15 0 15 -14q0 -12 -4 -21q-59 -162 -181 -242.5t-297 -80.5q-153 0 -270.5 71t-179.5 191.5t-62 271.5q0 227 145.5 381t366.5 154q114 0 209.5 -43t159 -116t98.5 -169t35 -203v-33
q0 -20 -20 -20zM614 897q-122 0 -212.5 -73t-118.5 -208h661q-25 128 -114 204.5t-216 76.5zM711 1417l215 -262q6 -7 2.5 -13.5t-13.5 -6.5h-127q-18 0 -36 18l-129 129l-129 -129q-18 -18 -37 -18h-127q-10 0 -13.5 6.5t2.5 13.5l216 262q17 17 30 17h115q14 0 31 -17z
" />
    <glyph glyph-name="edieresis" unicode="&#xeb;" horiz-adv-x="1214" 
d="M1096 465h-822q12 -154 103 -244t241 -90q224 0 302 188q7 19 28 19h133q15 0 15 -14q0 -12 -4 -21q-59 -162 -181 -242.5t-297 -80.5q-153 0 -270.5 71t-179.5 191.5t-62 271.5q0 227 145.5 381t366.5 154q114 0 209.5 -43t159 -116t98.5 -169t35 -203v-33
q0 -20 -20 -20zM614 897q-122 0 -212.5 -73t-118.5 -208h661q-25 128 -114 204.5t-216 76.5zM342 1249v164q0 21 20 21h164q21 0 21 -21v-164q0 -20 -21 -20h-164q-20 0 -20 20zM682 1249v164q0 21 20 21h164q21 0 21 -21v-164q0 -20 -21 -20h-164q-20 0 -20 20z" />
    <glyph glyph-name="igrave" unicode="&#xec;" horiz-adv-x="438" 
d="M139 20v988q0 20 21 20h119q20 0 20 -20v-988q0 -20 -20 -20h-119q-21 0 -21 20zM199 1413l141 -258q2 -2 2 -8q0 -12 -12 -12h-119q-22 0 -37 18l-211 260q-4 8 -4 10q0 11 14 11h195q19 0 31 -21z" />
    <glyph glyph-name="iacute" unicode="&#xed;" horiz-adv-x="438" 
d="M139 20v988q0 20 21 20h119q20 0 20 -20v-988q0 -20 -20 -20h-119q-21 0 -21 20zM100 1155l142 258q12 21 30 21h195q14 0 14 -11q0 -2 -4 -10l-211 -260q-13 -18 -37 -18h-118q-13 0 -13 12q0 6 2 8z" />
    <glyph glyph-name="icircumflex" unicode="&#xee;" horiz-adv-x="438" 
d="M139 20v988q0 20 21 20h119q20 0 20 -20v-988q0 -20 -20 -20h-119q-21 0 -21 20zM307 1417l215 -262q6 -7 3 -13.5t-13 -6.5h-127q-19 0 -37 18l-129 129l-129 -129q-18 -18 -37 -18h-127q-10 0 -13 6.5t3 13.5l215 262q17 17 31 17h114q14 0 31 -17z" />
    <glyph glyph-name="idieresis" unicode="&#xef;" horiz-adv-x="438" 
d="M139 20v988q0 20 21 20h119q20 0 20 -20v-988q0 -20 -20 -20h-119q-21 0 -21 20zM-53 1249v164q0 21 20 21h164q21 0 21 -21v-164q0 -20 -21 -20h-164q-20 0 -20 20zM287 1249v164q0 21 20 21h164q21 0 21 -21v-164q0 -20 -21 -20h-164q-20 0 -20 20z" />
    <glyph glyph-name="eth" unicode="&#xf0;" horiz-adv-x="1191" 
d="M477 1096l-37 96q-10 17 13 27l106 41q-72 25 -194 38q-20 3 -17 29l19 103q6 17 28 14q211 -23 369 -109l190 76q21 9 27 -10l37 -96q6 -21 -12 -27l-115 -45q98 -101 148.5 -261t50.5 -351q0 -326 -131.5 -483.5t-362.5 -157.5q-218 0 -356 146t-138 388q0 243 134 389
t350 146q191 0 295 -121q-44 163 -160 241l-217 -84q-20 -9 -27 11zM270 514q0 -175 85.5 -279t240.5 -104q143 0 234.5 104.5t91.5 278.5q0 170 -92 276.5t-234 106.5q-155 0 -240.5 -104t-85.5 -279z" />
    <glyph glyph-name="ntilde" unicode="&#xf1;" horiz-adv-x="1167" 
d="M164 20v988q0 20 20 20h119q21 0 21 -20v-117q132 158 340 158q164 0 260 -98t96 -275v-656q0 -20 -21 -20h-118q-21 0 -21 20v631q0 123 -60.5 184.5t-172.5 61.5q-135 0 -219 -96.5t-84 -276.5v-504q0 -20 -21 -20h-119q-20 0 -20 20zM258 1360q99 74 201 74
q50 0 90 -13t61.5 -29t53 -29t67.5 -13q28 0 54.5 11.5t70.5 39.5q12 4 14 4q11 0 21 -16l57 -86q10 -17 -16 -35q-99 -74 -201 -74q-51 0 -91 13t-60.5 29t-52 29t-68.5 13q-28 0 -54.5 -11.5t-70.5 -39.5q-12 -4 -15 -4q-10 0 -20 16l-57 86q-10 17 16 35z" />
    <glyph glyph-name="ograve" unicode="&#xf2;" horiz-adv-x="1249" 
d="M102 514q0 159 69.5 282t188 188t265.5 65q225 0 373.5 -147.5t148.5 -387.5t-148 -387t-374 -147q-147 0 -265.5 64.5t-188 187.5t-69.5 282zM270 514q0 -172 98.5 -277.5t256.5 -105.5t256 105.5t98 277.5t-98 277.5t-256 105.5t-256.5 -105.5t-98.5 -277.5zM604 1413
l141 -258q3 -3 3 -8q0 -12 -13 -12h-119q-21 0 -36 18l-211 260q-4 8 -4 10q0 11 14 11h194q19 0 31 -21z" />
    <glyph glyph-name="oacute" unicode="&#xf3;" horiz-adv-x="1249" 
d="M102 514q0 159 69.5 282t188 188t265.5 65q225 0 373.5 -147.5t148.5 -387.5t-148 -387t-374 -147q-147 0 -265.5 64.5t-188 187.5t-69.5 282zM270 514q0 -172 98.5 -277.5t256.5 -105.5t256 105.5t98 277.5t-98 277.5t-256 105.5t-256.5 -105.5t-98.5 -277.5zM467 1155
l141 258q12 21 31 21h195q14 0 14 -11q0 -2 -4 -10l-211 -260q-13 -18 -37 -18h-119q-12 0 -12 12q0 6 2 8z" />
    <glyph glyph-name="ocircumflex" unicode="&#xf4;" horiz-adv-x="1249" 
d="M102 514q0 159 69.5 282t188 188t265.5 65q225 0 373.5 -147.5t148.5 -387.5t-148 -387t-374 -147q-147 0 -265.5 64.5t-188 187.5t-69.5 282zM270 514q0 -172 98.5 -277.5t256.5 -105.5t256 105.5t98 277.5t-98 277.5t-256 105.5t-256.5 -105.5t-98.5 -277.5zM713 1417
l215 -262q6 -7 3 -13.5t-13 -6.5h-127q-19 0 -37 18l-129 129l-129 -129q-18 -18 -37 -18h-127q-10 0 -13 6.5t3 13.5l215 262q17 17 30 17h115q14 0 31 -17z" />
    <glyph glyph-name="otilde" unicode="&#xf5;" horiz-adv-x="1249" 
d="M102 514q0 159 69.5 282t188 188t265.5 65q225 0 373.5 -147.5t148.5 -387.5t-148 -387t-374 -147q-147 0 -265.5 64.5t-188 187.5t-69.5 282zM270 514q0 -172 98.5 -277.5t256.5 -105.5t256 105.5t98 277.5t-98 277.5t-256 105.5t-256.5 -105.5t-98.5 -277.5zM289 1360
q99 74 200 74q50 0 90.5 -13t62 -29t53 -29t67.5 -13q28 0 54.5 11.5t70.5 39.5q12 4 14 4q11 0 21 -16l57 -86q10 -17 -16 -35q-99 -74 -201 -74q-51 0 -91 13t-61 29t-52.5 29t-68.5 13q-28 0 -53.5 -11t-70.5 -40q-12 -4 -15 -4q-10 0 -20 16l-58 86q-10 17 17 35z" />
    <glyph glyph-name="odieresis" unicode="&#xf6;" horiz-adv-x="1249" 
d="M102 514q0 159 69.5 282t188 188t265.5 65q225 0 373.5 -147.5t148.5 -387.5t-148 -387t-374 -147q-147 0 -265.5 64.5t-188 187.5t-69.5 282zM270 514q0 -172 98.5 -277.5t256.5 -105.5t256 105.5t98 277.5t-98 277.5t-256 105.5t-256.5 -105.5t-98.5 -277.5zM352 1249
v164q0 21 21 21h164q20 0 20 -21v-164q0 -20 -20 -20h-164q-21 0 -21 20zM692 1249v164q0 21 21 21h164q20 0 20 -21v-164q0 -20 -20 -20h-164q-21 0 -21 20z" />
    <glyph glyph-name="divide" unicode="&#xf7;" horiz-adv-x="1171" 
d="M500 197h155q21 0 21 -21v-156q0 -20 -21 -20h-155q-21 0 -21 20v156q0 21 21 21zM500 1028h155q21 0 21 -20v-156q0 -21 -21 -21h-155q-21 0 -21 21v156q0 20 21 20zM154 594h864q20 0 20 -21v-118q0 -21 -20 -21h-864q-21 0 -21 21v118q0 21 21 21z" />
    <glyph glyph-name="oslash" unicode="&#xf8;" horiz-adv-x="1249" 
d="M102 514q0 159 69.5 282t188 188t265.5 65q118 0 223 -45l63 108q10 17 29 8l55 -33q18 -12 9 -28l-64 -109q99 -70 153 -181.5t54 -254.5q0 -240 -148 -387t-374 -147q-125 0 -224 45l-63 -109q-14 -17 -29 -8l-55 33q-18 12 -8 28l63 109q-99 70 -153 181.5t-54 254.5z
M979 514q0 193 -119 299l-381 -655q61 -27 146 -27q158 0 256 105.5t98 277.5zM270 514q0 -193 119 -299l381 655q-62 27 -145 27q-158 0 -256.5 -105.5t-98.5 -277.5z" />
    <glyph glyph-name="ugrave" unicode="&#xf9;" horiz-adv-x="1167" 
d="M1004 1008v-988q0 -20 -21 -20h-119q-20 0 -20 20v117q-131 -157 -340 -157q-164 0 -260.5 97.5t-96.5 274.5v656q0 20 21 20h119q20 0 20 -20v-631q0 -122 61 -184t173 -62q135 0 219 96.5t84 276.5v504q0 20 20 20h119q21 0 21 -20zM553 1413l141 -258q2 -2 2 -8
q0 -12 -12 -12h-119q-22 0 -37 18l-211 260q-4 8 -4 10q0 11 15 11h194q19 0 31 -21z" />
    <glyph glyph-name="uacute" unicode="&#xfa;" horiz-adv-x="1167" 
d="M1004 1008v-988q0 -20 -21 -20h-119q-20 0 -20 20v117q-131 -157 -340 -157q-164 0 -260.5 97.5t-96.5 274.5v656q0 20 21 20h119q20 0 20 -20v-631q0 -122 61 -184t173 -62q135 0 219 96.5t84 276.5v504q0 20 20 20h119q21 0 21 -20zM422 1155l141 258q12 21 31 21h194
q15 0 15 -11q0 -2 -4 -10l-211 -260q-13 -18 -37 -18h-119q-12 0 -12 12q0 6 2 8z" />
    <glyph glyph-name="ucircumflex" unicode="&#xfb;" horiz-adv-x="1167" 
d="M1004 1008v-988q0 -20 -21 -20h-119q-20 0 -20 20v117q-131 -157 -340 -157q-164 0 -260.5 97.5t-96.5 274.5v656q0 20 21 20h119q20 0 20 -20v-631q0 -122 61 -184t173 -62q135 0 219 96.5t84 276.5v504q0 20 20 20h119q21 0 21 -20zM666 1417l215 -262q6 -7 2.5 -13.5
t-13.5 -6.5h-127q-18 0 -36 18l-129 129l-129 -129q-18 -18 -37 -18h-127q-10 0 -13.5 6.5t2.5 13.5l215 262q17 17 31 17h115q14 0 31 -17z" />
    <glyph glyph-name="udieresis" unicode="&#xfc;" horiz-adv-x="1167" 
d="M1004 1008v-988q0 -20 -21 -20h-119q-20 0 -20 20v117q-131 -157 -340 -157q-164 0 -260.5 97.5t-96.5 274.5v656q0 20 21 20h119q20 0 20 -20v-631q0 -122 61 -184t173 -62q135 0 219 96.5t84 276.5v504q0 20 20 20h119q21 0 21 -20zM301 1249v164q0 21 21 21h163
q21 0 21 -21v-164q0 -20 -21 -20h-163q-21 0 -21 20zM641 1249v164q0 21 21 21h163q21 0 21 -21v-164q0 -20 -21 -20h-163q-21 0 -21 20z" />
    <glyph glyph-name="yacute" unicode="&#xfd;" horiz-adv-x="991" 
d="M41 1028h147q21 0 27 -20l303 -783l258 783q5 12 9.5 16t17.5 4h141q17 0 17 -14q0 -9 -3 -15l-374 -1099q-63 -181 -148 -253.5t-207 -72.5q-84 0 -151 33q-21 12 -21 33v110q0 21 17 21q12 0 30 -11t47.5 -22.5t69.5 -11.5q80 0 130 61t87 199l-409 1009q-4 16 -4 17
q0 16 16 16zM383 1155l141 258q12 21 31 21h195q14 0 14 -11q0 -2 -4 -10l-211 -260q-13 -18 -37 -18h-119q-12 0 -12 12q0 6 2 8z" />
    <glyph glyph-name="thorn" unicode="&#xfe;" horiz-adv-x="1220" 
d="M164 -385v1798q0 21 20 21h119q21 0 21 -21v-504q140 140 335 140q206 0 332.5 -148t126.5 -387q0 -238 -126.5 -386t-332.5 -148q-101 0 -189.5 37.5t-145.5 99.5v-502q0 -21 -21 -21h-119q-20 0 -20 21zM307 514q0 -171 88 -277t238 -106q152 0 234.5 105t82.5 278
q0 172 -83 277.5t-234 105.5q-150 0 -238 -106.5t-88 -276.5z" />
    <glyph glyph-name="ydieresis" unicode="&#xff;" horiz-adv-x="991" 
d="M41 1028h147q21 0 27 -20l303 -783l258 783q5 12 9.5 16t17.5 4h141q17 0 17 -14q0 -9 -3 -15l-374 -1099q-63 -181 -148 -253.5t-207 -72.5q-84 0 -151 33q-21 12 -21 33v110q0 21 17 21q12 0 30 -11t47.5 -22.5t69.5 -11.5q80 0 130 61t87 199l-409 1009q-4 16 -4 17
q0 16 16 16zM223 1249v164q0 21 21 21h164q20 0 20 -21v-164q0 -20 -20 -20h-164q-21 0 -21 20zM563 1249v164q0 21 21 21h164q20 0 20 -21v-164q0 -20 -20 -20h-164q-21 0 -21 20z" />
    <glyph glyph-name="Amacron" unicode="&#x100;" horiz-adv-x="1282" 
d="M1075 20l-141 396h-586l-141 -396q-5 -12 -9.5 -16t-15.5 -4h-137q-22 0 -22 20q0 9 2 13l507 1380q8 18 13 20q3 1 8 1h176q6 0 9.5 -2t5.5 -5t4 -9q1 -3 2 -5l507 -1380q3 -6 3 -13q0 -20 -23 -20h-137q-11 0 -15.5 4t-9.5 16zM641 1227l-233 -647h466zM428 1647v102
q0 20 21 20h385q20 0 20 -20v-102q0 -21 -20 -21h-385q-21 0 -21 21z" />
    <glyph glyph-name="amacron" unicode="&#x101;" horiz-adv-x="1103" 
d="M285 723h-131q-15 0 -15 12q0 13 2 21q32 126 138.5 209.5t275.5 83.5q180 0 294 -99.5t114 -259.5v-493q0 -72 6.5 -106t27.5 -71q1 -2 2 -4.5t1.5 -3.5t0.5 -2q0 -10 -16 -10h-162q-20 0 -20 20v107q-50 -68 -138.5 -107.5t-197.5 -39.5q-69 0 -133.5 20.5t-117.5 59.5
t-85.5 102.5t-32.5 142.5q0 110 57 188.5t149.5 116t209.5 37.5q131 0 289 -45v57q0 116 -64.5 177t-183.5 61q-180 0 -242 -156q-7 -18 -28 -18zM803 451q-122 45 -279 45q-117 0 -187.5 -45t-70.5 -136q0 -90 57 -137t162 -47q135 0 226.5 85.5t91.5 234.5zM338 1241v102
q0 21 20 21h385q21 0 21 -21v-102q0 -20 -21 -20h-385q-20 0 -20 20z" />
    <glyph glyph-name="Abreve" unicode="&#x102;" horiz-adv-x="1282" 
d="M1075 20l-141 396h-586l-141 -396q-5 -12 -9.5 -16t-15.5 -4h-137q-22 0 -22 20q0 9 2 13l507 1380q8 18 13 20q3 1 8 1h176q6 0 9.5 -2t5.5 -5t4 -9q1 -3 2 -5l507 -1380q3 -6 3 -13q0 -20 -23 -20h-137q-11 0 -15.5 4t-9.5 16zM641 1227l-233 -647h466zM403 1815h99
q20 0 20 -21q0 -50 32 -81.5t87 -31.5t87 31.5t32 81.5q0 21 20 21h99q20 0 20 -21q0 -111 -72 -179.5t-186 -68.5t-186 68.5t-72 179.5q0 21 20 21z" />
    <glyph glyph-name="abreve" unicode="&#x103;" horiz-adv-x="1103" 
d="M285 723h-131q-15 0 -15 12q0 13 2 21q32 126 138.5 209.5t275.5 83.5q180 0 294 -99.5t114 -259.5v-493q0 -72 6.5 -106t27.5 -71q1 -2 2 -4.5t1.5 -3.5t0.5 -2q0 -10 -16 -10h-162q-20 0 -20 20v107q-50 -68 -138.5 -107.5t-197.5 -39.5q-69 0 -133.5 20.5t-117.5 59.5
t-85.5 102.5t-32.5 142.5q0 110 57 188.5t149.5 116t209.5 37.5q131 0 289 -45v57q0 116 -64.5 177t-183.5 61q-180 0 -242 -156q-7 -18 -28 -18zM803 451q-122 45 -279 45q-117 0 -187.5 -45t-70.5 -136q0 -90 57 -137t162 -47q135 0 226.5 85.5t91.5 234.5zM317 1409h99
q20 0 20 -20q0 -50 32 -81.5t87 -31.5t87 31.5t32 81.5q0 20 20 20h99q20 0 20 -20q0 -111 -72 -179.5t-186 -68.5t-186 68.5t-72 179.5q0 20 20 20z" />
    <glyph glyph-name="Aogonek" unicode="&#x104;" horiz-adv-x="1282" 
d="M1081 6l-147 410h-586l-141 -396q-5 -12 -9.5 -16t-15.5 -4h-137q-22 0 -22 20q0 9 2 13l507 1380q8 18 13 20q3 1 8 1h176q6 0 9.5 -2t5.5 -5t4 -9q1 -3 2 -5l507 -1380q1 -3 2 -7.5t2 -7t1 -4.5q0 -11 -17 -14q-56 -13 -89.5 -51.5t-33.5 -83.5q0 -52 37 -82.5
t103 -30.5h24q21 0 21 -20v-70q0 -20 -21 -20h-72q-107 0 -176 47t-69 139q0 56 32 102.5t80 75.5zM641 1227l-233 -647h466z" />
    <glyph glyph-name="aogonek" unicode="&#x105;" horiz-adv-x="1103" 
d="M285 723h-131q-15 0 -15 12q0 13 2 21q32 126 138.5 209.5t275.5 83.5q180 0 294 -99.5t114 -259.5v-493q0 -72 6.5 -106t27.5 -71q2 -2 2 -8q0 -9 -12 -12q-56 -13 -89.5 -51.5t-33.5 -83.5q0 -52 37 -82.5t103 -30.5h24q21 0 21 -20v-70q0 -20 -21 -20h-72
q-107 0 -176 47t-69 139q0 52 26.5 97.5t65.5 74.5v127q-50 -68 -138.5 -107.5t-197.5 -39.5q-69 0 -133.5 20.5t-117.5 59.5t-85.5 102.5t-32.5 142.5q0 110 57 188.5t149.5 116t209.5 37.5q138 0 289 -43v55q0 116 -64.5 177t-183.5 61q-180 0 -242 -156q-7 -18 -28 -18z
M803 449q-127 47 -279 47q-117 0 -187.5 -45t-70.5 -136q0 -90 57 -137t162 -47q135 0 226.5 84.5t91.5 233.5z" />
    <glyph glyph-name="Cacute" unicode="&#x106;" horiz-adv-x="1447" 
d="M1210 498h125q23 0 23 -21q-32 -226 -202 -361.5t-411 -135.5q-97 0 -188.5 28t-173.5 88t-143.5 145t-97.5 208t-36 268t36 268t97.5 208t143.5 145t173.5 88t188.5 28q241 0 411 -136t202 -362q0 -20 -23 -20h-125q-18 0 -24 20q-94 334 -441 334q-93 0 -174.5 -35.5
t-145.5 -104t-101 -180t-37 -253.5q0 -143 37 -255.5t101 -180.5t145 -103t175 -35q347 0 441 334q6 21 24 21zM627 1561l141 258q11 20 31 20h194q15 0 15 -10q0 -2 -4 -10l-211 -260q-14 -19 -37 -19h-119q-12 0 -12 12q0 7 2 9z" />
    <glyph glyph-name="cacute" unicode="&#x107;" horiz-adv-x="1161" 
d="M610 897q-156 0 -248 -100.5t-92 -282.5t92 -282.5t248 -100.5q105 0 182 53.5t109 151.5q7 18 29 18h125q14 0 14 -12t-2 -20q-40 -159 -156.5 -250.5t-300.5 -91.5q-228 0 -368 151.5t-140 382.5t140 383t368 152q184 0 300.5 -91.5t156.5 -250.5q2 -8 2 -21
q0 -12 -14 -12h-125q-22 0 -29 18q-32 98 -109 151.5t-182 53.5zM465 1155l141 258q12 21 31 21h194q15 0 15 -11q0 -2 -4 -10l-211 -260q-13 -18 -37 -18h-119q-12 0 -12 12q0 6 2 8z" />
    <glyph glyph-name="Ccircumflex" unicode="&#x108;" horiz-adv-x="1447" 
d="M1210 498h125q23 0 23 -21q-32 -226 -202 -361.5t-411 -135.5q-97 0 -188.5 28t-173.5 88t-143.5 145t-97.5 208t-36 268t36 268t97.5 208t143.5 145t173.5 88t188.5 28q241 0 411 -136t202 -362q0 -20 -23 -20h-125q-18 0 -24 20q-94 334 -441 334q-93 0 -174.5 -35.5
t-145.5 -104t-101 -180t-37 -253.5q0 -143 37 -255.5t101 -180.5t145 -103t175 -35q347 0 441 334q6 21 24 21zM834 1823l215 -262q6 -7 2.5 -14t-13.5 -7h-127q-18 0 -37 19l-129 129l-129 -129q-19 -19 -36 -19h-127q-10 0 -13.5 7t2.5 14l215 262q16 16 31 16h115
q15 0 31 -16z" />
    <glyph glyph-name="ccircumflex" unicode="&#x109;" horiz-adv-x="1161" 
d="M610 897q-156 0 -248 -100.5t-92 -282.5t92 -282.5t248 -100.5q105 0 182 53.5t109 151.5q7 18 29 18h125q14 0 14 -12t-2 -20q-40 -159 -156.5 -250.5t-300.5 -91.5q-228 0 -368 151.5t-140 382.5t140 383t368 152q184 0 300.5 -91.5t156.5 -250.5q2 -8 2 -21
q0 -12 -14 -12h-125q-22 0 -29 18q-32 98 -109 151.5t-182 53.5zM702 1417l216 -262q6 -7 2.5 -13.5t-13.5 -6.5h-127q-19 0 -37 18l-129 129l-129 -129q-18 -18 -36 -18h-127q-10 0 -13.5 6.5t2.5 13.5l215 262q17 17 31 17h115q13 0 30 -17z" />
    <glyph glyph-name="Cdotaccent" unicode="&#x10a;" horiz-adv-x="1447" 
d="M1210 498h125q23 0 23 -21q-32 -226 -202 -361.5t-411 -135.5q-97 0 -188.5 28t-173.5 88t-143.5 145t-97.5 208t-36 268t36 268t97.5 208t143.5 145t173.5 88t188.5 28q241 0 411 -136t202 -362q0 -20 -23 -20h-125q-18 0 -24 20q-94 334 -441 334q-93 0 -174.5 -35.5
t-145.5 -104t-101 -180t-37 -253.5q0 -143 37 -255.5t101 -180.5t145 -103t175 -35q347 0 441 334q6 21 24 21zM637 1642v177q0 20 20 20h177q20 0 20 -20v-177q0 -20 -20 -20h-177q-20 0 -20 20z" />
    <glyph glyph-name="cdotaccent" unicode="&#x10b;" horiz-adv-x="1161" 
d="M610 897q-156 0 -248 -100.5t-92 -282.5t92 -282.5t248 -100.5q105 0 182 53.5t109 151.5q7 18 29 18h125q14 0 14 -12t-2 -20q-40 -159 -156.5 -250.5t-300.5 -91.5q-228 0 -368 151.5t-140 382.5t140 383t368 152q184 0 300.5 -91.5t156.5 -250.5q2 -8 2 -21
q0 -12 -14 -12h-125q-22 0 -29 18q-32 98 -109 151.5t-182 53.5zM502 1237v176q0 21 20 21h176q21 0 21 -21v-176q0 -20 -21 -20h-176q-20 0 -20 20z" />
    <glyph glyph-name="Ccaron" unicode="&#x10c;" horiz-adv-x="1447" 
d="M1210 498h125q23 0 23 -21q-32 -226 -202 -361.5t-411 -135.5q-97 0 -188.5 28t-173.5 88t-143.5 145t-97.5 208t-36 268t36 268t97.5 208t143.5 145t173.5 88t188.5 28q241 0 411 -136t202 -362q0 -20 -23 -20h-125q-18 0 -24 20q-94 334 -441 334q-93 0 -174.5 -35.5
t-145.5 -104t-101 -180t-37 -253.5q0 -143 37 -255.5t101 -180.5t145 -103t175 -35q347 0 441 334q6 21 24 21zM1049 1819l-215 -263q-16 -16 -31 -16h-115q-15 0 -31 16l-215 263q-6 7 -2.5 13.5t13.5 6.5h127q18 0 36 -18l129 -129l129 129q18 18 37 18h127
q10 0 13.5 -6.5t-2.5 -13.5z" />
    <glyph glyph-name="ccaron" unicode="&#x10d;" horiz-adv-x="1161" 
d="M610 897q-156 0 -248 -100.5t-92 -282.5t92 -282.5t248 -100.5q105 0 182 53.5t109 151.5q7 18 29 18h125q14 0 14 -12t-2 -20q-40 -159 -156.5 -250.5t-300.5 -91.5q-228 0 -368 151.5t-140 382.5t140 383t368 152q184 0 300.5 -91.5t156.5 -250.5q2 -8 2 -21
q0 -12 -14 -12h-125q-22 0 -29 18q-32 98 -109 151.5t-182 53.5zM913 1413l-215 -262q-16 -16 -30 -16h-115q-15 0 -31 16l-215 262q-6 7 -3 14t13 7h127q18 0 37 -19l129 -129l129 129q19 19 37 19h127q10 0 13 -7t-3 -14z" />
    <glyph glyph-name="Dcaron" unicode="&#x10e;" horiz-adv-x="1349" 
d="M172 20v1393q0 21 21 21h397q135 0 252 -46t207 -133t142 -225.5t52 -312.5t-52 -312.5t-142 -225.5t-207 -133t-252 -46h-397q-21 0 -21 20zM565 1270h-221v-1106h221q110 0 199.5 33t157 99t104.5 173.5t37 247.5t-37 247.5t-104.5 173.5t-157 99t-199.5 33zM854 1819
l-215 -263q-16 -16 -31 -16h-114q-15 0 -31 16l-215 263q-6 7 -3 13.5t13 6.5h127q19 0 37 -18l129 -129l129 129q18 18 37 18h127q10 0 13 -6.5t-3 -13.5z" />
    <glyph glyph-name="dcaron" unicode="&#x10f;" horiz-adv-x="1490" 
d="M1057 1413v-1393q0 -20 -21 -20h-118q-21 0 -21 20v97q-57 -62 -146 -99.5t-190 -37.5q-206 0 -332.5 148t-126.5 386q0 239 126.5 387t332.5 148q196 0 336 -140v504q0 21 21 21h118q21 0 21 -21zM913 514q0 170 -87.5 276.5t-237.5 106.5q-151 0 -234.5 -105.5
t-83.5 -277.5q0 -173 83 -278t235 -105q150 0 237.5 106t87.5 277zM1235 1083q62 0 83 22t21 89v43h-90q-20 0 -20 20v156q0 21 20 21h168q21 0 21 -21v-231q0 -84 -47.5 -128t-124.5 -44h-31q-21 0 -21 20v33q0 20 21 20z" />
    <glyph glyph-name="Dcroat" unicode="&#x110;" horiz-adv-x="1386" 
d="M209 797v616q0 21 20 21h398q135 0 252 -46t207 -133t142 -225.5t52 -312.5t-52 -312.5t-142 -225.5t-207 -133t-252 -46h-398q-20 0 -20 20v617h-166q-20 0 -20 20v119q0 21 20 21h166zM381 797h326q20 0 20 -21v-119q0 -20 -20 -20h-326v-473h221q110 0 199.5 33
t157 99t104.5 173.5t37 247.5t-37 247.5t-104.5 173.5t-157 99t-199.5 33h-221v-473z" />
    <glyph glyph-name="dcroat" unicode="&#x111;" horiz-adv-x="1220" 
d="M1057 1413v-139h129q20 0 20 -21v-106q0 -21 -20 -21h-129v-1106q0 -20 -21 -20h-118q-21 0 -21 20v97q-57 -62 -146 -99.5t-190 -37.5q-206 0 -332.5 148t-126.5 386q0 239 126.5 387t332.5 148q196 0 336 -140v217h-279q-20 0 -20 21v106q0 21 20 21h279v139
q0 21 21 21h118q21 0 21 -21zM913 514q0 170 -87.5 276.5t-237.5 106.5q-151 0 -234.5 -105.5t-83.5 -277.5q0 -173 83 -278t235 -105q150 0 237.5 106t87.5 277z" />
    <glyph glyph-name="Emacron" unicode="&#x112;" horiz-adv-x="1196" 
d="M344 672v-508h707q20 0 20 -21v-123q0 -20 -20 -20h-858q-21 0 -21 20v1393q0 21 21 21h827q20 0 20 -21v-123q0 -20 -20 -20h-676v-434h614q21 0 21 -21v-123q0 -20 -21 -20h-614zM424 1647v102q0 20 20 20h385q21 0 21 -20v-102q0 -21 -21 -21h-385q-20 0 -20 21z" />
    <glyph glyph-name="emacron" unicode="&#x113;" horiz-adv-x="1214" 
d="M1096 465h-822q12 -154 103 -244t241 -90q224 0 302 188q7 19 28 19h133q15 0 15 -14q0 -12 -4 -21q-59 -162 -181 -242.5t-297 -80.5q-153 0 -270.5 71t-179.5 191.5t-62 271.5q0 227 145.5 381t366.5 154q114 0 209.5 -43t159 -116t98.5 -169t35 -203v-33
q0 -20 -20 -20zM614 897q-122 0 -212.5 -73t-118.5 -208h661q-25 128 -114 204.5t-216 76.5zM406 1241v102q0 21 20 21h385q20 0 20 -21v-102q0 -20 -20 -20h-385q-20 0 -20 20z" />
    <glyph glyph-name="Ebreve" unicode="&#x114;" horiz-adv-x="1196" 
d="M344 672v-508h707q20 0 20 -21v-123q0 -20 -20 -20h-858q-21 0 -21 20v1393q0 21 21 21h827q20 0 20 -21v-123q0 -20 -20 -20h-676v-434h614q21 0 21 -21v-123q0 -20 -21 -20h-614zM385 1815h98q21 0 21 -21q0 -50 32 -81.5t87 -31.5t86.5 31.5t31.5 81.5q0 21 21 21h98
q21 0 21 -21q0 -111 -72 -179.5t-186 -68.5t-186 68.5t-72 179.5q0 21 20 21z" />
    <glyph glyph-name="ebreve" unicode="&#x115;" horiz-adv-x="1214" 
d="M1096 465h-822q12 -154 103 -244t241 -90q224 0 302 188q7 19 28 19h133q15 0 15 -14q0 -12 -4 -21q-59 -162 -181 -242.5t-297 -80.5q-153 0 -270.5 71t-179.5 191.5t-62 271.5q0 227 145.5 381t366.5 154q114 0 209.5 -43t159 -116t98.5 -169t35 -203v-33
q0 -20 -20 -20zM614 897q-122 0 -212.5 -73t-118.5 -208h661q-25 128 -114 204.5t-216 76.5zM379 1409h98q21 0 21 -20q0 -50 31.5 -81.5t86.5 -31.5t87 31.5t32 81.5q0 20 21 20h98q20 0 20 -20q0 -111 -72 -179.5t-186 -68.5t-186 68.5t-72 179.5q0 20 21 20z" />
    <glyph glyph-name="Edotaccent" unicode="&#x116;" horiz-adv-x="1196" 
d="M344 672v-508h707q20 0 20 -21v-123q0 -20 -20 -20h-858q-21 0 -21 20v1393q0 21 21 21h827q20 0 20 -21v-123q0 -20 -20 -20h-676v-434h614q21 0 21 -21v-123q0 -20 -21 -20h-614zM504 1642v177q0 20 20 20h176q21 0 21 -20v-177q0 -20 -21 -20h-176q-20 0 -20 20z" />
    <glyph glyph-name="edotaccent" unicode="&#x117;" horiz-adv-x="1214" 
d="M1096 465h-822q12 -154 103 -244t241 -90q224 0 302 188q7 19 28 19h133q15 0 15 -14q0 -12 -4 -21q-59 -162 -181 -242.5t-297 -80.5q-153 0 -270.5 71t-179.5 191.5t-62 271.5q0 227 145.5 381t366.5 154q114 0 209.5 -43t159 -116t98.5 -169t35 -203v-33
q0 -20 -20 -20zM614 897q-122 0 -212.5 -73t-118.5 -208h661q-25 128 -114 204.5t-216 76.5zM506 1237v176q0 21 20 21h176q21 0 21 -21v-176q0 -20 -21 -20h-176q-20 0 -20 20z" />
    <glyph glyph-name="Eogonek" unicode="&#x118;" horiz-adv-x="1196" 
d="M344 672v-508h707q20 0 20 -21v-123q0 -17 -12 -20q-56 -13 -89.5 -51.5t-33.5 -83.5q0 -52 36.5 -82.5t102.5 -30.5h25q20 0 20 -20v-70q0 -20 -20 -20h-72q-107 0 -176.5 47t-69.5 139q0 100 101 172h-690q-21 0 -21 20v1393q0 21 21 21h827q20 0 20 -21v-123
q0 -20 -20 -20h-676v-434h614q21 0 21 -21v-123q0 -20 -21 -20h-614z" />
    <glyph glyph-name="eogonek" unicode="&#x119;" horiz-adv-x="1214" 
d="M1096 465h-822q12 -154 103 -244t241 -90q224 0 302 188q7 19 28 19h133q15 0 15 -14q0 -12 -4 -21q-83 -239 -314 -303q-59 -17 -92 -53.5t-33 -81.5q0 -52 37 -82.5t103 -30.5h24q21 0 21 -20v-70q0 -20 -21 -20h-72q-107 0 -176 47t-69 139q0 88 75 156
q-215 12 -344 160.5t-129 369.5q0 227 145.5 381t366.5 154q114 0 209.5 -43t159 -116t98.5 -169t35 -203v-33q0 -20 -20 -20zM614 897q-122 0 -212.5 -73t-118.5 -208h661q-25 128 -114 204.5t-216 76.5z" />
    <glyph glyph-name="Ecaron" unicode="&#x11a;" horiz-adv-x="1196" 
d="M344 672v-508h707q20 0 20 -21v-123q0 -20 -20 -20h-858q-21 0 -21 20v1393q0 21 21 21h827q20 0 20 -21v-123q0 -20 -20 -20h-676v-434h614q21 0 21 -21v-123q0 -20 -21 -20h-614zM928 1819l-215 -263q-16 -16 -31 -16h-115q-14 0 -30 16l-215 263q-6 7 -3 13.5t13 6.5
h127q19 0 37 -18l129 -129l129 129q18 18 37 18h127q10 0 13 -6.5t-3 -13.5z" />
    <glyph glyph-name="ecaron" unicode="&#x11b;" horiz-adv-x="1214" 
d="M1096 465h-822q12 -154 103 -244t241 -90q224 0 302 188q7 19 28 19h133q15 0 15 -14q0 -12 -4 -21q-59 -162 -181 -242.5t-297 -80.5q-153 0 -270.5 71t-179.5 191.5t-62 271.5q0 227 145.5 381t366.5 154q114 0 209.5 -43t159 -116t98.5 -169t35 -203v-33
q0 -20 -20 -20zM614 897q-122 0 -212.5 -73t-118.5 -208h661q-25 128 -114 204.5t-216 76.5zM918 1413l-216 -262q-16 -16 -30 -16h-115q-15 0 -31 16l-215 262q-6 7 -2.5 14t13.5 7h127q17 0 36 -19l129 -129l129 129q19 19 37 19h127q10 0 13.5 -7t-2.5 -14z" />
    <glyph glyph-name="Gcircumflex" unicode="&#x11c;" horiz-adv-x="1460" 
d="M786 729h560q20 0 20 -20v-357q0 -49 -20 -78q-95 -148 -240 -221t-318 -73q-139 0 -261.5 48t-217 138t-149 232t-54.5 319q0 143 37.5 265t101 207.5t147.5 146t177.5 89.5t190.5 29q145 0 266 -46.5t207 -145.5t113 -238q0 -20 -23 -20h-131q-19 0 -25 20
q-37 135 -144.5 200.5t-262.5 65.5q-96 0 -180.5 -37.5t-150 -107.5t-104 -181t-38.5 -247q0 -279 130.5 -426.5t362.5 -147.5q141 0 247 54t167 153v215h-408q-20 0 -20 21v123q0 20 20 20zM848 1823l215 -262q6 -7 3 -14t-13 -7h-127q-18 0 -37 19l-129 129l-129 -129
q-19 -19 -37 -19h-127q-10 0 -13 7t3 14l215 262q16 16 30 16h115q15 0 31 -16z" />
    <glyph glyph-name="gcircumflex" unicode="&#x11d;" horiz-adv-x="1191" 
d="M604 -426q-183 0 -306.5 88.5t-135.5 245.5q0 20 20 20h119q21 0 21 -20q24 -94 89.5 -138t192.5 -44q146 0 215.5 88t69.5 243v74q-71 -63 -149 -95t-179 -32q-200 0 -329.5 144t-129.5 378q0 236 128 379.5t331 143.5q101 0 186 -36t142 -98v93q0 20 20 20h119
q21 0 21 -20v-947q0 -235 -112.5 -361t-332.5 -126zM905 526q0 167 -85.5 269t-231.5 102q-151 0 -234.5 -101t-83.5 -270t83.5 -269.5t234.5 -100.5q146 0 231.5 101.5t85.5 268.5zM666 1417l215 -262q6 -7 2.5 -13.5t-13.5 -6.5h-127q-18 0 -36 18l-129 129l-129 -129
q-18 -18 -37 -18h-127q-10 0 -13.5 6.5t2.5 13.5l215 262q17 17 31 17h115q14 0 31 -17z" />
    <glyph glyph-name="Gbreve" unicode="&#x11e;" horiz-adv-x="1460" 
d="M786 729h560q20 0 20 -20v-357q0 -49 -20 -78q-95 -148 -240 -221t-318 -73q-139 0 -261.5 48t-217 138t-149 232t-54.5 319q0 143 37.5 265t101 207.5t147.5 146t177.5 89.5t190.5 29q145 0 266 -46.5t207 -145.5t113 -238q0 -20 -23 -20h-131q-19 0 -25 20
q-37 135 -144.5 200.5t-262.5 65.5q-96 0 -180.5 -37.5t-150 -107.5t-104 -181t-38.5 -247q0 -279 130.5 -426.5t362.5 -147.5q141 0 247 54t167 153v215h-408q-20 0 -20 21v123q0 20 20 20zM522 1815h99q20 0 20 -21q0 -50 32 -81.5t87 -31.5t87 31.5t32 81.5q0 21 20 21
h98q21 0 21 -21q0 -111 -72 -179.5t-186 -68.5t-186 68.5t-72 179.5q0 21 20 21z" />
    <glyph glyph-name="gbreve" unicode="&#x11f;" horiz-adv-x="1191" 
d="M604 -426q-183 0 -306.5 88.5t-135.5 245.5q0 20 20 20h119q21 0 21 -20q24 -94 89.5 -138t192.5 -44q146 0 215.5 88t69.5 243v74q-71 -63 -149 -95t-179 -32q-200 0 -329.5 144t-129.5 378q0 236 128 379.5t331 143.5q101 0 186 -36t142 -98v93q0 20 20 20h119
q21 0 21 -20v-947q0 -235 -112.5 -361t-332.5 -126zM905 526q0 167 -85.5 269t-231.5 102q-151 0 -234.5 -101t-83.5 -270t83.5 -269.5t234.5 -100.5q146 0 231.5 101.5t85.5 268.5zM344 1409h98q21 0 21 -20q0 -50 32 -81.5t87 -31.5t86.5 31.5t31.5 81.5q0 20 21 20h98
q21 0 21 -20q0 -111 -72 -179.5t-186 -68.5t-186 68.5t-72 179.5q0 20 20 20z" />
    <glyph glyph-name="Gdotaccent" unicode="&#x120;" horiz-adv-x="1460" 
d="M786 729h560q20 0 20 -20v-357q0 -49 -20 -78q-95 -148 -240 -221t-318 -73q-139 0 -261.5 48t-217 138t-149 232t-54.5 319q0 143 37.5 265t101 207.5t147.5 146t177.5 89.5t190.5 29q145 0 266 -46.5t207 -145.5t113 -238q0 -20 -23 -20h-131q-19 0 -25 20
q-37 135 -144.5 200.5t-262.5 65.5q-96 0 -180.5 -37.5t-150 -107.5t-104 -181t-38.5 -247q0 -279 130.5 -426.5t362.5 -147.5q141 0 247 54t167 153v215h-408q-20 0 -20 21v123q0 20 20 20zM651 1642v177q0 20 21 20h176q20 0 20 -20v-177q0 -20 -20 -20h-176q-21 0 -21 20
z" />
    <glyph glyph-name="gdotaccent" unicode="&#x121;" horiz-adv-x="1191" 
d="M604 -426q-183 0 -306.5 88.5t-135.5 245.5q0 20 20 20h119q21 0 21 -20q24 -94 89.5 -138t192.5 -44q146 0 215.5 88t69.5 243v74q-71 -63 -149 -95t-179 -32q-200 0 -329.5 144t-129.5 378q0 236 128 379.5t331 143.5q101 0 186 -36t142 -98v93q0 20 20 20h119
q21 0 21 -20v-947q0 -235 -112.5 -361t-332.5 -126zM905 526q0 167 -85.5 269t-231.5 102q-151 0 -234.5 -101t-83.5 -270t83.5 -269.5t234.5 -100.5q146 0 231.5 101.5t85.5 268.5zM471 1237v176q0 21 21 21h176q20 0 20 -21v-176q0 -20 -20 -20h-176q-21 0 -21 20z" />
    <glyph glyph-name="Gcommaaccent" unicode="&#x122;" horiz-adv-x="1460" 
d="M786 729h560q20 0 20 -20v-357q0 -49 -20 -78q-95 -148 -240 -221t-318 -73q-139 0 -261.5 48t-217 138t-149 232t-54.5 319q0 143 37.5 265t101 207.5t147.5 146t177.5 89.5t190.5 29q145 0 266 -46.5t207 -145.5t113 -238q0 -20 -23 -20h-131q-19 0 -25 20
q-37 135 -144.5 200.5t-262.5 65.5q-96 0 -180.5 -37.5t-150 -107.5t-104 -181t-38.5 -247q0 -279 130.5 -426.5t362.5 -147.5q141 0 247 54t167 153v215h-408q-20 0 -20 21v123q0 20 20 20zM711 -393q60 0 77 15.5t17 70.5v24h-94q-21 0 -21 21v156q0 20 21 20h155
q21 0 21 -20v-216q0 -74 -30.5 -109.5t-102.5 -35.5h-43q-21 0 -21 21v32q0 21 21 21z" />
    <glyph glyph-name="gcommaaccent" unicode="&#x123;" horiz-adv-x="1191" 
d="M604 -426q-183 0 -306.5 88.5t-135.5 245.5q0 20 20 20h119q21 0 21 -20q24 -94 89.5 -138t192.5 -44q146 0 215.5 88t69.5 243v74q-71 -63 -149 -95t-179 -32q-200 0 -329.5 144t-129.5 378q0 236 128 379.5t331 143.5q101 0 186 -36t142 -98v93q0 20 20 20h119
q21 0 21 -20v-947q0 -235 -112.5 -361t-332.5 -126zM905 526q0 167 -85.5 269t-231.5 102q-151 0 -234.5 -101t-83.5 -270t83.5 -269.5t234.5 -100.5q146 0 231.5 101.5t85.5 268.5zM672 1505q-62 0 -83.5 -21.5t-21.5 -88.5v-43h90q21 0 21 -21v-155q0 -21 -21 -21h-168
q-20 0 -20 21v231q0 84 47.5 128t124.5 44h31q20 0 20 -20v-33q0 -21 -20 -21z" />
    <glyph glyph-name="Hcircumflex" unicode="&#x124;" horiz-adv-x="1388" 
d="M344 666v-646q0 -20 -20 -20h-131q-21 0 -21 20v1393q0 21 21 21h131q20 0 20 -21v-584h700v584q0 21 21 21h131q21 0 21 -21v-1393q0 -20 -21 -20h-131q-21 0 -21 20v646h-700zM780 1823l215 -262q6 -7 3 -14t-13 -7h-127q-18 0 -37 19l-129 129l-129 -129
q-19 -19 -37 -19h-127q-10 0 -13 7t3 14l215 262q16 16 31 16h115q14 0 30 -16z" />
    <glyph glyph-name="hcircumflex" unicode="&#x125;" horiz-adv-x="1183" 
d="M164 20v1393q0 21 20 21h119q21 0 21 -21v-536q63 78 162 125t198 47q167 0 261.5 -92t94.5 -263v-674q0 -20 -20 -20h-119q-20 0 -20 20v633q0 244 -240 244q-129 0 -223 -100t-94 -269v-508q0 -20 -21 -20h-119q-20 0 -20 20zM561 1823l215 -262q6 -7 3 -14t-13 -7
h-127q-18 0 -37 19l-129 129l-129 -129q-19 -19 -37 -19h-127q-10 0 -13 7t3 14l215 262q16 16 31 16h114q15 0 31 -16z" />
    <glyph glyph-name="Hbar" unicode="&#x126;" horiz-adv-x="1388" 
d="M344 666v-646q0 -20 -20 -20h-131q-21 0 -21 20v1024h-143q-21 0 -21 21v111q0 20 21 20h143v217q0 21 21 21h131q20 0 20 -21v-217h700v217q0 21 21 21h131q21 0 21 -21v-217h143q20 0 20 -20v-111q0 -21 -20 -21h-143v-1024q0 -20 -21 -20h-131q-21 0 -21 20v646h-700z
M344 829h700v215h-700v-215z" />
    <glyph glyph-name="hbar" unicode="&#x127;" horiz-adv-x="1183" 
d="M164 20v1106h-139q-21 0 -21 21v106q0 21 21 21h139v139q0 21 20 21h119q21 0 21 -21v-139h251q21 0 21 -21v-106q0 -21 -21 -21h-251v-249q63 78 162 125t198 47q167 0 261.5 -92t94.5 -263v-674q0 -20 -20 -20h-119q-20 0 -20 20v633q0 244 -240 244q-129 0 -223 -100
t-94 -269v-508q0 -20 -21 -20h-119q-20 0 -20 20z" />
    <glyph glyph-name="Itilde" unicode="&#x128;" horiz-adv-x="516" 
d="M172 20v1393q0 21 21 21h131q20 0 20 -21v-1393q0 -20 -20 -20h-131q-21 0 -21 20zM-76 1765q99 74 201 74q50 0 90 -13t61.5 -29t53 -29t67.5 -13q28 0 54.5 11.5t70.5 39.5q12 4 15 4q10 0 20 -16l57 -86q10 -17 -16 -35q-99 -74 -201 -74q-51 0 -91 13t-60.5 29
t-52 29t-68.5 13q-28 0 -54.5 -11.5t-70.5 -39.5q-12 -4 -14 -4q-11 0 -21 17l-57 86q-10 17 16 34z" />
    <glyph glyph-name="itilde" unicode="&#x129;" horiz-adv-x="438" 
d="M139 20v988q0 20 21 20h119q20 0 20 -20v-988q0 -20 -20 -20h-119q-21 0 -21 20zM-117 1360q99 74 201 74q50 0 90 -13t61.5 -29t53 -29t67.5 -13q28 0 54.5 11.5t70.5 39.5q12 4 15 4q10 0 20 -16l57 -86q10 -17 -16 -35q-99 -74 -201 -74q-51 0 -91 13t-60.5 29t-52 29
t-68.5 13q-28 0 -54.5 -11.5t-70.5 -39.5q-12 -4 -14 -4q-11 0 -21 16l-57 86q-10 17 16 35z" />
    <glyph glyph-name="uni012A" unicode="&#x12a;" horiz-adv-x="516" 
d="M172 20v1393q0 21 21 21h131q20 0 20 -21v-1393q0 -20 -20 -20h-131q-21 0 -21 20zM45 1647v102q0 20 21 20h385q20 0 20 -20v-102q0 -21 -20 -21h-385q-21 0 -21 21z" />
    <glyph glyph-name="imacron" unicode="&#x12b;" horiz-adv-x="438" 
d="M139 20v988q0 20 21 20h119q20 0 20 -20v-988q0 -20 -20 -20h-119q-21 0 -21 20zM6 1241v102q0 21 21 21h385q20 0 20 -21v-102q0 -20 -20 -20h-385q-21 0 -21 20z" />
    <glyph glyph-name="Ibreve" unicode="&#x12c;" horiz-adv-x="516" 
d="M172 20v1393q0 21 21 21h131q20 0 20 -21v-1393q0 -20 -20 -20h-131q-21 0 -21 20zM20 1815h99q20 0 20 -21q0 -50 32 -81.5t87 -31.5t87 31.5t32 81.5q0 21 20 21h99q20 0 20 -21q0 -111 -72 -179.5t-186 -68.5t-186 68.5t-72 179.5q0 21 20 21z" />
    <glyph glyph-name="uni012D" unicode="&#x12d;" horiz-adv-x="438" 
d="M139 20v988q0 20 21 20h119q20 0 20 -20v-988q0 -20 -20 -20h-119q-21 0 -21 20zM-18 1409h98q20 0 20 -20q0 -50 32 -81.5t87 -31.5t87 31.5t32 81.5q0 20 20 20h99q20 0 20 -20q0 -111 -72 -179.5t-186 -68.5t-186 68.5t-72 179.5q0 20 21 20z" />
    <glyph glyph-name="Iogonek" unicode="&#x12e;" horiz-adv-x="516" 
d="M172 12v1401q0 21 21 21h131q20 0 20 -21v-1393q0 -17 -14 -20q-56 -13 -89.5 -51.5t-33.5 -83.5q0 -52 36.5 -82.5t102.5 -30.5h25q20 0 20 -20v-70q0 -20 -20 -20h-72q-107 0 -176.5 47t-69.5 139q0 57 34 106.5t85 77.5z" />
    <glyph glyph-name="iogonek" unicode="&#x12f;" horiz-adv-x="438" 
d="M139 18v990q0 20 21 20h119q20 0 20 -20v-988q0 -17 -14 -20q-56 -13 -89.5 -51.5t-33.5 -83.5q0 -52 36.5 -82.5t102.5 -30.5h25q20 0 20 -20v-70q0 -20 -20 -20h-72q-107 0 -176.5 47t-69.5 139q0 62 38 112.5t93 77.5zM111 1237v176q0 21 20 21h176q21 0 21 -21v-176
q0 -20 -21 -20h-176q-20 0 -20 20z" />
    <glyph glyph-name="Idotaccent" unicode="&#x130;" horiz-adv-x="516" 
d="M172 20v1393q0 21 21 21h131q20 0 20 -21v-1393q0 -20 -20 -20h-131q-21 0 -21 20zM150 1642v177q0 20 20 20h176q21 0 21 -20v-177q0 -20 -21 -20h-176q-20 0 -20 20z" />
    <glyph glyph-name="dotlessi" unicode="&#x131;" horiz-adv-x="438" 
d="M139 20v988q0 20 21 20h119q20 0 20 -20v-988q0 -20 -20 -20h-119q-21 0 -21 20z" />
    <glyph glyph-name="IJ" unicode="&#x132;" horiz-adv-x="1624" 
d="M172 20v1393q0 21 21 21h131q20 0 20 -21v-1393q0 -20 -20 -20h-131q-21 0 -21 20zM1501 1413v-907q0 -136 -35.5 -239t-99 -164.5t-146 -92t-182.5 -30.5q-210 0 -332 128.5t-122 327.5q0 21 20 21h131q21 0 21 -21q0 -128 77 -210.5t205 -82.5q149 0 220 87.5t71 273.5
v909q0 21 21 21h131q20 0 20 -21z" />
    <glyph glyph-name="ij" unicode="&#x133;" horiz-adv-x="876" 
d="M139 20v988q0 20 21 20h119q20 0 20 -20v-988q0 -20 -20 -20h-119q-21 0 -21 20zM111 1237v176q0 21 20 21h176q21 0 21 -21v-176q0 -20 -21 -20h-176q-20 0 -20 20zM578 -80v1088q0 20 20 20h119q20 0 20 -20v-1063q0 -192 -65 -355q-6 -16 -17 -16q-2 0 -14 4l-109 39
q-20 6 -14 25q24 67 32.5 92t18 77t9.5 109zM549 1237v176q0 21 20 21h176q21 0 21 -21v-176q0 -20 -21 -20h-176q-20 0 -20 20z" />
    <glyph glyph-name="Jcircumflex" unicode="&#x134;" horiz-adv-x="1107" 
d="M985 1413v-907q0 -136 -35.5 -239t-99 -164.5t-146 -92t-182.5 -30.5q-210 0 -332 128.5t-122 327.5q0 21 20 21h131q21 0 21 -21q0 -128 77 -210.5t205 -82.5q149 0 220 87.5t71 273.5v909q0 21 21 21h131q20 0 20 -21zM993 1823l215 -262q6 -7 3 -14t-13 -7h-127
q-18 0 -37 19l-129 129l-129 -129q-19 -19 -37 -19h-127q-10 0 -13 7t3 14l215 262q16 16 31 16h115q14 0 30 -16z" />
    <glyph glyph-name="jcircumflex" unicode="&#x135;" horiz-adv-x="438" 
d="M307 1417l215 -262q6 -7 3 -13.5t-13 -6.5h-127q-19 0 -37 18l-129 129l-129 -129q-18 -18 -37 -18h-127q-10 0 -13 6.5t3 13.5l215 262q17 17 31 17h114q14 0 31 -17zM139 -80v1088q0 20 21 20h119q20 0 20 -20v-1063q0 -116 -17 -195.5t-49 -159.5q-6 -16 -16 -16
q-2 0 -14 4l-109 39q-20 6 -14 25q23 64 32 91.5t18 78.5t9 108z" />
    <glyph glyph-name="Kcommaaccent" unicode="&#x136;" horiz-adv-x="1257" 
d="M344 1413v-616l580 616q2 2 7 7.5t6.5 6.5t5 3.5t6.5 3t7 0.5h172q17 0 20.5 -9t-7.5 -20l-465 -500l557 -876q7 -12 2 -20.5t-16 -8.5h-166q-11 0 -18.5 6.5t-18.5 24.5l-473 733l-199 -215v-529q0 -20 -20 -20h-131q-21 0 -21 20v1393q0 21 21 21h131q20 0 20 -21z
M588 -393q60 0 77 15.5t17 70.5v24h-94q-21 0 -21 21v156q0 20 21 20h155q21 0 21 -20v-216q0 -74 -30.5 -109.5t-102.5 -35.5h-43q-21 0 -21 21v32q0 21 21 21z" />
    <glyph glyph-name="kcommaaccent" unicode="&#x137;" horiz-adv-x="1081" 
d="M983 997l-365 -340l414 -626q4 -8 4 -15q0 -16 -18 -16h-144q-23 0 -32 18l-348 523l-170 -162v-359q0 -20 -21 -20h-119q-20 0 -20 20v1393q0 21 20 21h119q21 0 21 -21v-823l448 420q18 18 33 18h170q16 0 16 -14q0 -9 -8 -17zM506 -393q60 0 77 15.5t17 70.5v24h-94
q-21 0 -21 21v156q0 20 21 20h156q20 0 20 -20v-216q0 -74 -30.5 -109.5t-102.5 -35.5h-43q-21 0 -21 21v32q0 21 21 21z" />
    <glyph glyph-name="kgreenlandic" unicode="&#x138;" horiz-adv-x="1089" 
d="M989 997l-366 -346l417 -620q4 -8 4 -15q0 -16 -18 -16h-145q-24 0 -33 18l-350 514l-174 -163v-349q0 -20 -21 -20h-119q-20 0 -20 20v988q0 20 20 20h119q21 0 21 -20v-428l454 430q18 18 33 18h170q16 0 16 -14q0 -9 -8 -17z" />
    <glyph glyph-name="Lacute" unicode="&#x139;" horiz-adv-x="1183" 
d="M172 20v1393q0 21 21 21h131q20 0 20 -21v-1249h735q21 0 21 -21v-123q0 -20 -21 -20h-886q-21 0 -21 20zM190 1561l142 258q11 20 30 20h195q14 0 14 -10q0 -2 -4 -10l-211 -260q-14 -19 -37 -19h-118q-13 0 -13 12q0 7 2 9z" />
    <glyph glyph-name="lacute" unicode="&#x13a;" horiz-adv-x="487" 
d="M164 20v1393q0 21 20 21h119q21 0 21 -21v-1393q0 -20 -21 -20h-119q-20 0 -20 20zM184 1561l142 258q11 20 30 20h195q14 0 14 -10q0 -2 -4 -10l-211 -260q-14 -19 -37 -19h-118q-13 0 -13 12q0 7 2 9z" />
    <glyph glyph-name="Lcommaaccent" unicode="&#x13b;" horiz-adv-x="1183" 
d="M172 20v1393q0 21 21 21h131q20 0 20 -21v-1249h735q21 0 21 -21v-123q0 -20 -21 -20h-886q-21 0 -21 20zM582 -393q60 0 77 15.5t17 70.5v24h-94q-21 0 -21 21v156q0 20 21 20h155q21 0 21 -20v-216q0 -74 -30.5 -109.5t-102.5 -35.5h-43q-21 0 -21 21v32q0 21 21 21z
" />
    <glyph glyph-name="lcommaaccent" unicode="&#x13c;" horiz-adv-x="487" 
d="M166 20v1393q0 21 20 21h119q21 0 21 -21v-1393q0 -20 -21 -20h-119q-20 0 -20 20zM166 -393q60 0 77 15.5t17 70.5v24h-94q-21 0 -21 21v156q0 20 21 20h156q20 0 20 -20v-216q0 -74 -30.5 -109.5t-102.5 -35.5h-43q-21 0 -21 21v32q0 21 21 21z" />
    <glyph glyph-name="Lcaron" unicode="&#x13d;" horiz-adv-x="1183" 
d="M172 20v1393q0 21 21 21h131q20 0 20 -21v-1249h735q21 0 21 -21v-123q0 -20 -21 -20h-886q-21 0 -21 20zM649 1083q62 0 83.5 22t21.5 89v43h-90q-21 0 -21 20v156q0 21 21 21h167q21 0 21 -21v-231q0 -84 -47.5 -128t-124.5 -44h-31q-20 0 -20 20v33q0 20 20 20z" />
    <glyph glyph-name="lcaron" unicode="&#x13e;" horiz-adv-x="765" 
d="M164 20v1393q0 21 20 21h119q21 0 21 -21v-1393q0 -20 -21 -20h-119q-20 0 -20 20zM510 1083q62 0 83 22t21 89v43h-90q-20 0 -20 20v156q0 21 20 21h168q21 0 21 -21v-231q0 -84 -47.5 -128t-124.5 -44h-31q-21 0 -21 20v33q0 20 21 20z" />
    <glyph glyph-name="Ldot" unicode="&#x13f;" horiz-adv-x="1183" 
d="M172 20v1393q0 21 21 21h131q20 0 20 -21v-1249h735q21 0 21 -21v-123q0 -20 -21 -20h-886q-21 0 -21 20zM606 811h156q20 0 20 -20v-156q0 -21 -20 -21h-156q-20 0 -20 21v156q0 20 20 20z" />
    <glyph glyph-name="ldot" unicode="&#x140;" horiz-adv-x="778" 
d="M164 20v1393q0 21 20 21h119q21 0 21 -21v-1393q0 -20 -21 -20h-119q-20 0 -20 20zM524 811h156q20 0 20 -20v-156q0 -21 -20 -21h-156q-20 0 -20 21v156q0 20 20 20z" />
    <glyph glyph-name="Lslash" unicode="&#x141;" horiz-adv-x="1183" 
d="M193 20v484l-119 -62q-19 -9 -29 11l-51 96q-9 21 8 29l191 100v735q0 21 20 21h131q21 0 21 -21v-645l288 154q19 9 29 -11l51 -96q9 -21 -8 -29l-360 -190v-432h714q21 0 21 -21v-123q0 -20 -21 -20h-866q-20 0 -20 20z" />
    <glyph glyph-name="lslash" unicode="&#x142;" horiz-adv-x="595" 
d="M221 20v547l-162 -84q-18 -9 -28 11l-51 96q-8 20 8 28l233 123v672q0 21 21 21h118q21 0 21 -21v-588l156 82q18 9 28 -10l51 -96q9 -21 -8 -29l-227 -121v-631q0 -20 -21 -20h-118q-21 0 -21 20z" />
    <glyph glyph-name="Nacute" unicode="&#x143;" horiz-adv-x="1425" 
d="M1233 0h-158q-26 0 -33 16l-698 1147v-1143q0 -20 -20 -20h-131q-21 0 -21 20v1393q0 21 21 21h157q26 0 33 -17l698 -1147v1143q0 21 21 21h131q20 0 20 -21v-1393q0 -20 -20 -20zM596 1561l141 258q11 20 31 20h195q14 0 14 -10q0 -2 -4 -10l-211 -260q-14 -19 -37 -19
h-119q-12 0 -12 12q0 7 2 9z" />
    <glyph glyph-name="nacute" unicode="&#x144;" horiz-adv-x="1167" 
d="M164 20v988q0 20 20 20h119q21 0 21 -20v-117q132 158 340 158q164 0 260 -98t96 -275v-656q0 -20 -21 -20h-118q-21 0 -21 20v631q0 123 -60.5 184.5t-172.5 61.5q-135 0 -219 -96.5t-84 -276.5v-504q0 -20 -21 -20h-119q-20 0 -20 20zM481 1155l142 258q12 21 30 21
h195q14 0 14 -11q0 -2 -4 -10l-211 -260q-13 -18 -37 -18h-118q-13 0 -13 12q0 6 2 8z" />
    <glyph glyph-name="Ncommaaccent" unicode="&#x145;" horiz-adv-x="1425" 
d="M1233 0h-158q-26 0 -33 16l-698 1147v-1143q0 -20 -20 -20h-131q-21 0 -21 20v1393q0 21 21 21h157q26 0 33 -17l698 -1147v1143q0 21 21 21h131q20 0 20 -21v-1393q0 -20 -20 -20zM643 -393q60 0 77 15.5t17 70.5v24h-94q-20 0 -20 21v156q0 20 20 20h156q20 0 20 -20
v-216q0 -74 -30.5 -109.5t-102.5 -35.5h-43q-20 0 -20 21v32q0 21 20 21z" />
    <glyph glyph-name="ncommaaccent" unicode="&#x146;" horiz-adv-x="1167" 
d="M164 20v988q0 20 20 20h119q21 0 21 -20v-117q132 158 340 158q164 0 260 -98t96 -275v-656q0 -20 -21 -20h-118q-21 0 -21 20v631q0 123 -60.5 184.5t-172.5 61.5q-135 0 -219 -96.5t-84 -276.5v-504q0 -20 -21 -20h-119q-20 0 -20 20zM526 -393q60 0 77.5 15.5
t17.5 70.5v24h-95q-20 0 -20 21v156q0 20 20 20h156q20 0 20 -20v-216q0 -74 -30.5 -109.5t-102.5 -35.5h-43q-20 0 -20 21v32q0 21 20 21z" />
    <glyph glyph-name="Ncaron" unicode="&#x147;" horiz-adv-x="1425" 
d="M1233 0h-158q-26 0 -33 16l-698 1147v-1143q0 -20 -20 -20h-131q-21 0 -21 20v1393q0 21 21 21h157q26 0 33 -17l698 -1147v1143q0 21 21 21h131q20 0 20 -21v-1393q0 -20 -20 -20zM1038 1819l-215 -263q-16 -16 -30 -16h-115q-15 0 -31 16l-215 263q-6 7 -3 13.5t13 6.5
h127q19 0 37 -18l129 -129l129 129q18 18 37 18h127q10 0 13 -6.5t-3 -13.5z" />
    <glyph glyph-name="ncaron" unicode="&#x148;" horiz-adv-x="1167" 
d="M164 20v988q0 20 20 20h119q21 0 21 -20v-117q132 158 340 158q164 0 260 -98t96 -275v-656q0 -20 -21 -20h-118q-21 0 -21 20v631q0 123 -60.5 184.5t-172.5 61.5q-135 0 -219 -96.5t-84 -276.5v-504q0 -20 -21 -20h-119q-20 0 -20 20zM942 1413l-215 -262
q-16 -16 -31 -16h-114q-15 0 -31 16l-215 262q-6 7 -3 14t13 7h127q18 0 37 -19l129 -129l129 129q19 19 37 19h127q10 0 13 -7t-3 -14z" />
    <glyph glyph-name="napostrophe" unicode="&#x149;" horiz-adv-x="1335" 
d="M332 20v988q0 20 20 20h119q21 0 21 -20v-117q132 158 339 158q164 0 260.5 -98t96.5 -275v-656q0 -20 -21 -20h-118q-21 0 -21 20v631q0 123 -60.5 184.5t-172.5 61.5q-135 0 -219 -96.5t-84 -276.5v-504q0 -20 -21 -20h-119q-20 0 -20 20zM74 1145q62 0 83 21.5
t21 88.5v43h-90q-20 0 -20 21v156q0 20 20 20h168q20 0 20 -20v-232q0 -84 -47.5 -128t-124.5 -44h-30q-21 0 -21 21v32q0 21 21 21z" />
    <glyph glyph-name="Eng" unicode="&#x14a;" horiz-adv-x="1425" 
d="M1081 328v1085q0 21 21 21h131q20 0 20 -21v-1427q0 -237 -99 -324.5t-363 -87.5q-21 0 -21 20v123q0 21 21 21q48 0 74.5 0.5t61 4t51.5 10.5t38 20t30.5 31.5t19 46.5t12.5 64.5t3 84.5v10l-737 1153v-1143q0 -20 -20 -20h-131q-21 0 -21 20v1393q0 21 21 21h157
q23 0 33 -17z" />
    <glyph glyph-name="eng" unicode="&#x14b;" horiz-adv-x="1159" 
d="M860 -80v731q0 123 -60.5 184.5t-172.5 61.5q-135 0 -219 -96.5t-84 -276.5v-504q0 -20 -21 -20h-119q-20 0 -20 20v988q0 20 20 20h119q21 0 21 -20v-117q132 158 340 158q164 0 260 -98t96 -275v-731q0 -116 -17 -195.5t-49 -159.5q-6 -16 -16 -16q-2 0 -14 4l-109 39
q-20 6 -14 25q23 64 32 91.5t18 78.5t9 108z" />
    <glyph glyph-name="Omacron" unicode="&#x14c;" horiz-adv-x="1572" 
d="M786 -20q-129 0 -249 47t-217 136t-155.5 232.5t-58.5 321.5t58.5 321.5t155.5 232.5t217 136t249 47t249 -47t217 -136t155.5 -232.5t58.5 -321.5t-58.5 -321.5t-155.5 -232.5t-217 -136t-249 -47zM786 143q102 0 191 35.5t158.5 104t110 180.5t40.5 254t-40.5 253.5
t-110 180t-158.5 104t-191 35.5t-190.5 -35.5t-158.5 -104t-110 -180t-40 -253.5q0 -114 26.5 -209.5t72.5 -162t109.5 -112.5t136.5 -68t154 -22zM573 1647v102q0 20 21 20h385q20 0 20 -20v-102q0 -21 -20 -21h-385q-21 0 -21 21z" />
    <glyph glyph-name="omacron" unicode="&#x14d;" horiz-adv-x="1249" 
d="M102 514q0 159 69.5 282t188 188t265.5 65q225 0 373.5 -147.5t148.5 -387.5t-148 -387t-374 -147q-147 0 -265.5 64.5t-188 187.5t-69.5 282zM270 514q0 -172 98.5 -277.5t256.5 -105.5t256 105.5t98 277.5t-98 277.5t-256 105.5t-256.5 -105.5t-98.5 -277.5zM412 1241
v102q0 21 20 21h385q21 0 21 -21v-102q0 -20 -21 -20h-385q-20 0 -20 20z" />
    <glyph glyph-name="Obreve" unicode="&#x14e;" horiz-adv-x="1572" 
d="M786 -20q-129 0 -249 47t-217 136t-155.5 232.5t-58.5 321.5t58.5 321.5t155.5 232.5t217 136t249 47t249 -47t217 -136t155.5 -232.5t58.5 -321.5t-58.5 -321.5t-155.5 -232.5t-217 -136t-249 -47zM786 143q102 0 191 35.5t158.5 104t110 180.5t40.5 254t-40.5 253.5
t-110 180t-158.5 104t-191 35.5t-190.5 -35.5t-158.5 -104t-110 -180t-40 -253.5q0 -114 26.5 -209.5t72.5 -162t109.5 -112.5t136.5 -68t154 -22zM549 1815h98q21 0 21 -21q0 -50 31.5 -81.5t86.5 -31.5t87 31.5t32 81.5q0 21 21 21h98q20 0 20 -21q0 -111 -72 -179.5
t-186 -68.5t-186 68.5t-72 179.5q0 21 21 21z" />
    <glyph glyph-name="obreve" unicode="&#x14f;" horiz-adv-x="1249" 
d="M102 514q0 159 69.5 282t188 188t265.5 65q225 0 373.5 -147.5t148.5 -387.5t-148 -387t-374 -147q-147 0 -265.5 64.5t-188 187.5t-69.5 282zM270 514q0 -172 98.5 -277.5t256.5 -105.5t256 105.5t98 277.5t-98 277.5t-256 105.5t-256.5 -105.5t-98.5 -277.5zM387 1409
h98q21 0 21 -20q0 -50 32 -81.5t87 -31.5t86.5 31.5t31.5 81.5q0 20 21 20h98q21 0 21 -20q0 -111 -72 -179.5t-186 -68.5t-186 68.5t-72 179.5q0 20 20 20z" />
    <glyph glyph-name="Ohungarumlaut" unicode="&#x150;" horiz-adv-x="1572" 
d="M786 -20q-129 0 -249 47t-217 136t-155.5 232.5t-58.5 321.5t58.5 321.5t155.5 232.5t217 136t249 47t249 -47t217 -136t155.5 -232.5t58.5 -321.5t-58.5 -321.5t-155.5 -232.5t-217 -136t-249 -47zM786 143q102 0 191 35.5t158.5 104t110 180.5t40.5 254t-40.5 253.5
t-110 180t-158.5 104t-191 35.5t-190.5 -35.5t-158.5 -104t-110 -180t-40 -253.5q0 -114 26.5 -209.5t72.5 -162t109.5 -112.5t136.5 -68t154 -22zM496 1561l141 258q11 20 31 20h194q10 0 13 -6.5t-3 -13.5l-210 -260q-14 -19 -37 -19h-119q-10 0 -12.5 7t2.5 14zM874 1561
l142 258q11 20 31 20h194q10 0 13 -6.5t-3 -13.5l-211 -260q-14 -19 -36 -19h-119q-10 0 -13 7t2 14z" />
    <glyph glyph-name="ohungarumlaut" unicode="&#x151;" horiz-adv-x="1249" 
d="M102 514q0 159 69.5 282t188 188t265.5 65q225 0 373.5 -147.5t148.5 -387.5t-148 -387t-374 -147q-147 0 -265.5 64.5t-188 187.5t-69.5 282zM270 514q0 -172 98.5 -277.5t256.5 -105.5t256 105.5t98 277.5t-98 277.5t-256 105.5t-256.5 -105.5t-98.5 -277.5zM309 1155
l142 258q12 21 30 21h195q10 0 13 -7t-3 -14l-211 -260q-13 -18 -37 -18h-119q-10 0 -12.5 6.5t2.5 13.5zM688 1155l141 258q12 21 31 21h195q10 0 13 -7t-3 -14l-211 -260q-13 -18 -37 -18h-119q-10 0 -12.5 6.5t2.5 13.5z" />
    <glyph glyph-name="OE" unicode="&#x152;" horiz-adv-x="2318" 
d="M1466 672v-508h707q20 0 20 -21v-123q0 -20 -20 -20h-858q-21 0 -21 20v187q-95 -112 -228.5 -169.5t-279.5 -57.5q-129 0 -249 47t-217 136t-155.5 232.5t-58.5 321.5t58.5 321.5t155.5 232.5t217 136t249 47q145 0 278.5 -58t229.5 -171v188q0 21 21 21h827
q21 0 21 -21v-123q0 -20 -21 -20h-676v-434h615q20 0 20 -21v-123q0 -20 -20 -20h-615zM786 143q102 0 191 35.5t158.5 104t110 180.5t40.5 254t-40.5 253.5t-110 180t-158.5 104t-191 35.5t-190.5 -35.5t-158.5 -104t-110 -180t-40 -253.5q0 -114 26.5 -209.5t72.5 -162
t109.5 -112.5t136.5 -68t154 -22z" />
    <glyph glyph-name="oe" unicode="&#x153;" horiz-adv-x="2091" 
d="M1972 465h-821q12 -154 103 -244t241 -90q223 0 301 188q7 19 29 19h133q14 0 14 -14q0 -12 -4 -21q-59 -162 -181 -242.5t-296 -80.5q-142 0 -251 60t-177 167q-69 -109 -183 -168t-255 -59q-147 0 -265.5 64.5t-188 187.5t-69.5 282t69.5 282t188 188t265.5 65
q141 0 256 -61t184 -171q67 108 178 170t248 62q114 0 209.5 -43t159 -116t98.5 -169t35 -203v-33q0 -20 -21 -20zM270 514q0 -172 98.5 -277.5t256.5 -105.5q155 0 254.5 106.5t99.5 276.5t-99.5 276.5t-254.5 106.5q-158 0 -256.5 -105.5t-98.5 -277.5zM1491 897
q-122 0 -213 -73t-119 -208h662q-25 128 -114 204.5t-216 76.5z" />
    <glyph glyph-name="Racute" unicode="&#x154;" horiz-adv-x="1259" 
d="M172 20v1393q0 21 21 21h505q206 0 320.5 -97.5t114.5 -281.5q0 -141 -73.5 -231t-195.5 -130l314 -674q9 -20 -17 -20h-143q-18 0 -29 20l-311 656h-334v-656q0 -20 -20 -20h-131q-21 0 -21 20zM344 1270v-430h367q129 0 189.5 52.5t60.5 162.5q0 109 -61 162t-189 53
h-367zM457 1561l141 258q11 20 31 20h194q15 0 15 -10q0 -2 -4 -10l-211 -260q-14 -19 -37 -19h-119q-12 0 -12 12q0 7 2 9z" />
    <glyph glyph-name="racute" unicode="&#x155;" horiz-adv-x="884" 
d="M817 979v-123q0 -22 -22 -22q-67 35 -114.5 49t-107.5 14q-109 0 -179 -91.5t-70 -227.5v-558q0 -20 -21 -20h-119q-20 0 -20 20v988q0 20 20 20h119q21 0 21 -20v-113q116 154 299 154q69 0 170 -33q21 -9 24 -37zM352 1155l142 258q12 21 30 21h195q14 0 14 -11
q0 -2 -4 -10l-211 -260q-13 -18 -37 -18h-119q-12 0 -12 12q0 6 2 8z" />
    <glyph glyph-name="Rcommaaccent" unicode="&#x156;" horiz-adv-x="1259" 
d="M172 20v1393q0 21 21 21h505q206 0 320.5 -97.5t114.5 -281.5q0 -141 -73.5 -231t-195.5 -130l314 -674q9 -20 -17 -20h-143q-18 0 -29 20l-311 656h-334v-656q0 -20 -20 -20h-131q-21 0 -21 20zM344 1270v-430h367q129 0 189.5 52.5t60.5 162.5q0 109 -61 162t-189 53
h-367zM555 -393q60 0 77 15.5t17 70.5v24h-94q-20 0 -20 21v156q0 20 20 20h156q20 0 20 -20v-216q0 -74 -30.5 -109.5t-102.5 -35.5h-43q-20 0 -20 21v32q0 21 20 21z" />
    <glyph glyph-name="rcommaaccent" unicode="&#x157;" horiz-adv-x="884" 
d="M817 979v-123q0 -22 -22 -22q-67 35 -114.5 49t-107.5 14q-109 0 -179 -91.5t-70 -227.5v-558q0 -20 -21 -20h-119q-20 0 -20 20v988q0 20 20 20h119q21 0 21 -20v-113q116 154 299 154q69 0 170 -33q21 -9 24 -37zM297 -393q60 0 77 15.5t17 70.5v24h-94q-21 0 -21 21
v156q0 20 21 20h156q20 0 20 -20v-216q0 -74 -30.5 -109.5t-102.5 -35.5h-43q-21 0 -21 21v32q0 21 21 21z" />
    <glyph glyph-name="Rcaron" unicode="&#x158;" horiz-adv-x="1259" 
d="M172 20v1393q0 21 21 21h505q206 0 320.5 -97.5t114.5 -281.5q0 -141 -73.5 -231t-195.5 -130l314 -674q9 -20 -17 -20h-143q-18 0 -29 20l-311 656h-334v-656q0 -20 -20 -20h-131q-21 0 -21 20zM344 1270v-430h367q129 0 189.5 52.5t60.5 162.5q0 109 -61 162t-189 53
h-367zM905 1819l-215 -263q-16 -16 -31 -16h-114q-15 0 -31 16l-215 263q-6 7 -3 13.5t13 6.5h127q19 0 37 -18l129 -129l129 129q18 18 37 18h127q10 0 13 -6.5t-3 -13.5z" />
    <glyph glyph-name="rcaron" unicode="&#x159;" horiz-adv-x="884" 
d="M817 979v-123q0 -22 -22 -22q-67 35 -114.5 49t-107.5 14q-109 0 -179 -91.5t-70 -227.5v-558q0 -20 -21 -20h-119q-20 0 -20 20v988q0 20 20 20h119q21 0 21 -20v-113q116 154 299 154q69 0 170 -33q21 -9 24 -37zM782 1413l-215 -262q-16 -16 -30 -16h-115
q-15 0 -31 16l-215 262q-6 7 -3 14t13 7h127q18 0 37 -19l129 -129l129 129q19 19 37 19h127q10 0 13 -7t-3 -14z" />
    <glyph glyph-name="Sacute" unicode="&#x15a;" horiz-adv-x="1208" 
d="M111 1071q0 92 39 166t106 120.5t153 71.5t183 25q112 0 205.5 -33t154 -88.5t95 -127t36.5 -150.5q0 -21 -20 -21h-131q-21 0 -21 21q-7 104 -97.5 169.5t-221.5 65.5q-134 0 -221.5 -57t-87.5 -154q0 -44 19.5 -81t51 -63t83 -49.5t102.5 -40t123 -34.5q86 -24 150 -47
t127 -57t102.5 -73.5t64 -94.5t24.5 -121q0 -214 -143.5 -326t-384.5 -112q-148 0 -268 56.5t-190 161t-70 236.5q0 21 20 21h131q21 0 21 -21q5 -125 103 -208t253 -83q170 0 263 66t93 199q0 42 -21 76.5t-52.5 58.5t-84 46.5t-100 36.5t-116.5 31q-113 29 -193 61.5
t-146.5 80.5t-100 116t-33.5 156zM475 1561l141 258q11 20 31 20h195q14 0 14 -10q0 -2 -4 -10l-211 -260q-14 -19 -37 -19h-119q-12 0 -12 12q0 7 2 9z" />
    <glyph glyph-name="sacute" unicode="&#x15b;" horiz-adv-x="1024" 
d="M928 301q0 -151 -114 -236t-298 -85q-182 0 -307 95t-125 238q0 21 20 21h132q17 0 20 -21q12 -90 80 -136t186 -46q110 0 174 37t64 113q0 77 -66.5 113.5t-232.5 62.5q-187 30 -268.5 98t-81.5 201q0 137 110 215t279 78q171 0 273.5 -79t121.5 -216q0 -21 -21 -21
h-114q-12 0 -18 13q0 1 -1 3l-2 5q-22 72 -88.5 107.5t-156.5 35.5q-102 0 -163 -35t-61 -102q0 -72 63.5 -107.5t225.5 -64.5q65 -11 114.5 -24t99.5 -35.5t82.5 -52.5t52.5 -74.5t20 -100.5zM401 1155l142 258q12 21 30 21h195q14 0 14 -11q0 -2 -4 -10l-211 -260
q-13 -18 -37 -18h-118q-13 0 -13 12q0 6 2 8z" />
    <glyph glyph-name="Scircumflex" unicode="&#x15c;" horiz-adv-x="1208" 
d="M111 1071q0 92 39 166t106 120.5t153 71.5t183 25q112 0 205.5 -33t154 -88.5t95 -127t36.5 -150.5q0 -21 -20 -21h-131q-21 0 -21 21q-7 104 -97.5 169.5t-221.5 65.5q-134 0 -221.5 -57t-87.5 -154q0 -44 19.5 -81t51 -63t83 -49.5t102.5 -40t123 -34.5q86 -24 150 -47
t127 -57t102.5 -73.5t64 -94.5t24.5 -121q0 -214 -143.5 -326t-384.5 -112q-148 0 -268 56.5t-190 161t-70 236.5q0 21 20 21h131q21 0 21 -21q5 -125 103 -208t253 -83q170 0 263 66t93 199q0 42 -21 76.5t-52.5 58.5t-84 46.5t-100 36.5t-116.5 31q-113 29 -193 61.5
t-146.5 80.5t-100 116t-33.5 156zM680 1823l215 -262q6 -7 3 -14t-13 -7h-127q-18 0 -37 19l-129 129l-129 -129q-19 -19 -37 -19h-127q-10 0 -13 7t3 14l215 262q16 16 31 16h114q15 0 31 -16z" />
    <glyph glyph-name="scircumflex" unicode="&#x15d;" horiz-adv-x="1024" 
d="M928 301q0 -151 -114 -236t-298 -85q-182 0 -307 95t-125 238q0 21 20 21h132q17 0 20 -21q12 -90 80 -136t186 -46q110 0 174 37t64 113q0 77 -66.5 113.5t-232.5 62.5q-187 30 -268.5 98t-81.5 201q0 137 110 215t279 78q171 0 273.5 -79t121.5 -216q0 -21 -21 -21
h-114q-12 0 -18 13q0 1 -1 3l-2 5q-22 72 -88.5 107.5t-156.5 35.5q-102 0 -163 -35t-61 -102q0 -72 63.5 -107.5t225.5 -64.5q65 -11 114.5 -24t99.5 -35.5t82.5 -52.5t52.5 -74.5t20 -100.5zM582 1417l215 -262q6 -7 2.5 -13.5t-13.5 -6.5h-127q-18 0 -36 18l-129 129
l-129 -129q-18 -18 -37 -18h-127q-10 0 -13.5 6.5t2.5 13.5l216 262q17 17 30 17h115q14 0 31 -17z" />
    <glyph glyph-name="Scedilla" unicode="&#x15e;" horiz-adv-x="1208" 
d="M475 -211l-26 27q-6 6 0 22l47 150q-187 30 -304.5 150.5t-117.5 295.5q0 21 20 21h131q21 0 21 -21q5 -125 103 -208t253 -83q170 0 263 66t93 199q0 42 -21 76.5t-52.5 58.5t-84 46.5t-100 36.5t-116.5 31q-113 29 -193 61.5t-146.5 80.5t-100 116t-33.5 156
q0 92 39 166t106 120.5t153 71.5t183 25q112 0 205.5 -33t154 -88.5t95 -127t36.5 -150.5q0 -21 -20 -21h-131q-21 0 -21 21q-7 104 -97.5 169.5t-221.5 65.5q-134 0 -221.5 -57t-87.5 -154q0 -44 19.5 -81t51 -63t83 -49.5t102.5 -40t123 -34.5q86 -24 150 -47t127 -57
t102.5 -73.5t64 -94.5t24.5 -121q0 -212 -140.5 -322.5t-377.5 -115.5l-45 -105q54 14 113 14q81 0 127.5 -39t46.5 -106q0 -170 -229 -170q-120 0 -193 20q-1 1 -4 2q-15 11 -16 19v59q0 21 20 21l54 -11q55 -12 124 -12q49 0 79 17t30 47q0 63 -107 63q-50 0 -108 -14
q-19 -6 -29 4z" />
    <glyph glyph-name="scedilla" unicode="&#x15f;" horiz-adv-x="1024" 
d="M379 -211l-27 27q-6 6 0 22l47 154q-139 27 -227 113.5t-88 207.5q0 21 20 21h132q17 0 20 -21q12 -90 80 -136t186 -46q110 0 174 37t64 113q0 77 -66.5 113.5t-232.5 62.5q-187 30 -268.5 98t-81.5 201q0 137 110 215t279 78q171 0 273.5 -79t121.5 -216q0 -21 -21 -21
h-114q-12 0 -18 13q0 1 -1 3l-2 5q-22 72 -88.5 107.5t-156.5 35.5q-102 0 -163 -35t-61 -102q0 -72 63.5 -107.5t225.5 -64.5q65 -11 114.5 -24t99.5 -35.5t82.5 -52.5t52.5 -74.5t20 -100.5q0 -151 -114 -236t-298 -85l-45 -105q54 14 113 14q81 0 127.5 -39t46.5 -106
q0 -170 -230 -170q-119 0 -192 20q-2 1 -5 2q-15 11 -16 19v59q0 21 21 21l54 -11q55 -12 124 -12q49 0 79 17t30 47q0 63 -107 63q-50 0 -108 -14q-19 -6 -29 4z" />
    <glyph glyph-name="Scaron" unicode="&#x160;" horiz-adv-x="1208" 
d="M111 1071q0 92 39 166t106 120.5t153 71.5t183 25q112 0 205.5 -33t154 -88.5t95 -127t36.5 -150.5q0 -21 -20 -21h-131q-21 0 -21 21q-7 104 -97.5 169.5t-221.5 65.5q-134 0 -221.5 -57t-87.5 -154q0 -44 19.5 -81t51 -63t83 -49.5t102.5 -40t123 -34.5q86 -24 150 -47
t127 -57t102.5 -73.5t64 -94.5t24.5 -121q0 -214 -143.5 -326t-384.5 -112q-148 0 -268 56.5t-190 161t-70 236.5q0 21 20 21h131q21 0 21 -21q5 -125 103 -208t253 -83q170 0 263 66t93 199q0 42 -21 76.5t-52.5 58.5t-84 46.5t-100 36.5t-116.5 31q-113 29 -193 61.5
t-146.5 80.5t-100 116t-33.5 156zM911 1819l-215 -263q-16 -16 -30 -16h-115q-15 0 -31 16l-215 263q-6 7 -3 13.5t13 6.5h127q19 0 37 -18l129 -129l129 129q18 18 37 18h127q10 0 13 -6.5t-3 -13.5z" />
    <glyph glyph-name="scaron" unicode="&#x161;" horiz-adv-x="1024" 
d="M928 301q0 -151 -114 -236t-298 -85q-182 0 -307 95t-125 238q0 21 20 21h132q17 0 20 -21q12 -90 80 -136t186 -46q110 0 174 37t64 113q0 77 -66.5 113.5t-232.5 62.5q-187 30 -268.5 98t-81.5 201q0 137 110 215t279 78q171 0 273.5 -79t121.5 -216q0 -21 -21 -21
h-114q-12 0 -18 13q0 1 -1 3l-2 5q-22 72 -88.5 107.5t-156.5 35.5q-102 0 -163 -35t-61 -102q0 -72 63.5 -107.5t225.5 -64.5q65 -11 114.5 -24t99.5 -35.5t82.5 -52.5t52.5 -74.5t20 -100.5zM819 1413l-215 -262q-16 -16 -31 -16h-114q-15 0 -31 16l-215 262q-6 7 -3 14
t13 7h127q18 0 37 -19l129 -129l129 129q19 19 37 19h127q10 0 13 -7t-3 -14z" />
    <glyph glyph-name="uni0162" unicode="&#x162;" horiz-adv-x="1155" 
d="M489 -211l-26 27q-4 4 -4 8l4 16l57 160h-8q-20 0 -20 20v1250h-420q-21 0 -21 20v123q0 21 21 21h1011q21 0 21 -21v-123q0 -20 -21 -20h-419v-1250q0 -20 -21 -20h-8l-53 -125q54 14 112 14q81 0 127.5 -39t46.5 -106q0 -170 -229 -170q-120 0 -193 20q-1 1 -4 2
q-15 11 -16 19v59q0 21 20 21l55 -11q55 -12 124 -12q48 0 78 17t30 47q0 63 -106 63q-51 0 -109 -14q-6 -2 -12 -2q-11 0 -17 6z" />
    <glyph glyph-name="uni0163" unicode="&#x163;" horiz-adv-x="860" 
d="M369 -211l-27 27q-4 4 -4 8l4 16l57 176q-143 76 -143 275v586h-182q-21 0 -21 20v111q0 20 21 20h182v295q0 20 20 20h119q21 0 21 -20v-295h340q20 0 20 -20v-111q0 -20 -20 -20h-340v-572q0 -174 162 -174q109 0 194 31q12 4 14 4q15 0 15 -21v-96q0 -29 -17 -35
q-90 -34 -219 -34q-23 0 -59 4l-45 -109q54 14 112 14q81 0 128 -39.5t47 -105.5q0 -170 -230 -170q-119 0 -192 20q-2 1 -5 2q-15 11 -16 19v59q0 21 21 21l54 -11q55 -12 124 -12q48 0 78 17t30 47q0 63 -106 63q-51 0 -109 -14q-6 -2 -12 -2q-10 0 -16 6z" />
    <glyph glyph-name="Tcaron" unicode="&#x164;" horiz-adv-x="1155" 
d="M51 1290v123q0 21 21 21h1011q21 0 21 -21v-123q0 -20 -21 -20h-419v-1250q0 -20 -21 -20h-131q-20 0 -20 20v1250h-420q-21 0 -21 20zM881 1819l-215 -263q-16 -16 -31 -16h-115q-15 0 -31 16l-215 263q-6 7 -2.5 13.5t13.5 6.5h127q19 0 37 -18l129 -129l129 129
q18 18 36 18h127q10 0 13.5 -6.5t-2.5 -13.5z" />
    <glyph glyph-name="tcaron" unicode="&#x165;" horiz-adv-x="956" 
d="M416 1028h340q20 0 20 -20v-111q0 -20 -20 -20h-340v-572q0 -174 162 -174q109 0 194 31q12 4 14 4q15 0 15 -21v-96q0 -29 -17 -35q-90 -34 -219 -34q-146 0 -227.5 81.5t-81.5 229.5v586h-182q-21 0 -21 20v111q0 20 21 20h182v295q0 20 20 20h119q21 0 21 -20v-295z
M694 1210q62 0 83.5 22t21.5 89v43h-90q-21 0 -21 20v156q0 21 21 21h168q20 0 20 -21v-231q0 -84 -47.5 -128t-124.5 -44h-31q-20 0 -20 20v33q0 20 20 20z" />
    <glyph glyph-name="Tbar" unicode="&#x166;" horiz-adv-x="1155" 
d="M51 1290v123q0 21 21 21h1011q21 0 21 -21v-123q0 -20 -21 -20h-419v-258h358q20 0 20 -21v-110q0 -21 -20 -21h-358v-840q0 -20 -21 -20h-131q-20 0 -20 20v840h-367q-21 0 -21 21v110q0 21 21 21h367v258h-420q-21 0 -21 20z" />
    <glyph glyph-name="tbar" unicode="&#x167;" horiz-adv-x="860" 
d="M416 1028h340q20 0 20 -20v-111q0 -20 -20 -20h-340v-218h303q20 0 20 -20v-107q0 -20 -20 -20h-303v-207q0 -174 162 -174q104 0 194 35q29 10 29 -16v-105q0 -29 -17 -35q-77 -30 -219 -30q-146 0 -227.5 81.5t-81.5 229.5v221h-147q-21 0 -21 20v107q0 20 21 20h147
v218h-182q-21 0 -21 20v111q0 20 21 20h182v295q0 20 20 20h119q21 0 21 -20v-295z" />
    <glyph glyph-name="Utilde" unicode="&#x168;" horiz-adv-x="1310" 
d="M139 496v917q0 21 21 21h131q20 0 20 -21v-895q0 -184 88.5 -279.5t255.5 -95.5t255.5 95.5t88.5 279.5v895q0 21 21 21h131q20 0 20 -21v-917q0 -240 -145 -378t-371 -138t-371 138t-145 378zM303 1765q99 74 201 74q50 0 90 -13t61.5 -29t53 -29t67.5 -13
q28 0 54.5 11.5t70.5 39.5q12 4 14 4q11 0 21 -16l57 -86q10 -17 -16 -35q-99 -74 -201 -74q-51 0 -91 13t-60.5 29t-52 29t-68.5 13q-28 0 -54.5 -11.5t-70.5 -39.5q-12 -4 -14 -4q-11 0 -21 17l-57 86q-10 17 16 34z" />
    <glyph glyph-name="utilde" unicode="&#x169;" horiz-adv-x="1167" 
d="M1004 1008v-988q0 -20 -21 -20h-119q-20 0 -20 20v117q-131 -157 -340 -157q-164 0 -260.5 97.5t-96.5 274.5v656q0 20 21 20h119q20 0 20 -20v-631q0 -122 61 -184t173 -62q135 0 219 96.5t84 276.5v504q0 20 20 20h119q21 0 21 -20zM225 1360q99 74 201 74q50 0 90 -13
t61.5 -29t53 -29t67.5 -13q28 0 54.5 11.5t70.5 39.5q12 4 15 4q10 0 20 -16l57 -86q10 -17 -16 -35q-99 -74 -201 -74q-51 0 -91 13t-60.5 29t-52 29t-68.5 13q-28 0 -54.5 -11.5t-70.5 -39.5q-12 -4 -14 -4q-11 0 -21 16l-57 86q-10 17 16 35z" />
    <glyph glyph-name="Umacron" unicode="&#x16a;" horiz-adv-x="1310" 
d="M139 496v917q0 21 21 21h131q20 0 20 -21v-895q0 -184 88.5 -279.5t255.5 -95.5t255.5 95.5t88.5 279.5v895q0 21 21 21h131q20 0 20 -21v-917q0 -240 -145 -378t-371 -138t-371 138t-145 378zM442 1647v102q0 20 21 20h385q20 0 20 -20v-102q0 -21 -20 -21h-385
q-21 0 -21 21z" />
    <glyph glyph-name="umacron" unicode="&#x16b;" horiz-adv-x="1167" 
d="M1004 1008v-988q0 -20 -21 -20h-119q-20 0 -20 20v117q-131 -157 -340 -157q-164 0 -260.5 97.5t-96.5 274.5v656q0 20 21 20h119q20 0 20 -20v-631q0 -122 61 -184t173 -62q135 0 219 96.5t84 276.5v504q0 20 20 20h119q21 0 21 -20zM350 1241v102q0 21 21 21h385
q20 0 20 -21v-102q0 -20 -20 -20h-385q-21 0 -21 20z" />
    <glyph glyph-name="Ubreve" unicode="&#x16c;" horiz-adv-x="1310" 
d="M139 496v917q0 21 21 21h131q20 0 20 -21v-895q0 -184 88.5 -279.5t255.5 -95.5t255.5 95.5t88.5 279.5v895q0 21 21 21h131q20 0 20 -21v-917q0 -240 -145 -378t-371 -138t-371 138t-145 378zM418 1815h98q21 0 21 -21q0 -50 31.5 -81.5t86.5 -31.5t87 31.5t32 81.5
q0 21 21 21h98q20 0 20 -21q0 -111 -72 -179.5t-186 -68.5t-186 68.5t-72 179.5q0 21 21 21z" />
    <glyph glyph-name="ubreve" unicode="&#x16d;" horiz-adv-x="1167" 
d="M1004 1008v-988q0 -20 -21 -20h-119q-20 0 -20 20v117q-131 -157 -340 -157q-164 0 -260.5 97.5t-96.5 274.5v656q0 20 21 20h119q20 0 20 -20v-631q0 -122 61 -184t173 -62q135 0 219 96.5t84 276.5v504q0 20 20 20h119q21 0 21 -20zM336 1409h98q21 0 21 -20
q0 -50 31.5 -81.5t86.5 -31.5t87 31.5t32 81.5q0 20 21 20h98q20 0 20 -20q0 -111 -72 -179.5t-186 -68.5t-186 68.5t-72 179.5q0 20 21 20z" />
    <glyph glyph-name="Uring" unicode="&#x16e;" horiz-adv-x="1310" 
d="M139 496v917q0 21 21 21h131q20 0 20 -21v-895q0 -184 88.5 -279.5t255.5 -95.5t255.5 95.5t88.5 279.5v895q0 21 21 21h131q20 0 20 -21v-917q0 -240 -145 -378t-371 -138t-371 138t-145 378zM477 1708q0 75 50 123.5t128 48.5t128.5 -48.5t50.5 -123.5t-50.5 -123.5
t-128.5 -48.5t-128 48.5t-50 123.5zM575 1708q0 -38 22 -60t58 -22t58 22t22 60t-22 60t-58 22t-58 -22t-22 -60z" />
    <glyph glyph-name="uring" unicode="&#x16f;" horiz-adv-x="1167" 
d="M1004 1008v-988q0 -20 -21 -20h-119q-20 0 -20 20v117q-131 -157 -340 -157q-164 0 -260.5 97.5t-96.5 274.5v656q0 20 21 20h119q20 0 20 -20v-631q0 -122 61 -184t173 -62q135 0 219 96.5t84 276.5v504q0 20 20 20h119q21 0 21 -20zM395 1303q0 75 50 123.5t128 48.5
t128.5 -48.5t50.5 -123.5t-50.5 -124t-128.5 -49t-128 49t-50 124zM494 1303q0 -38 21.5 -60t57.5 -22t58 22t22 60t-22 59.5t-58 21.5t-57.5 -21.5t-21.5 -59.5z" />
    <glyph glyph-name="Uhungarumlaut" unicode="&#x170;" horiz-adv-x="1310" 
d="M139 496v917q0 21 21 21h131q20 0 20 -21v-895q0 -184 88.5 -279.5t255.5 -95.5t255.5 95.5t88.5 279.5v895q0 21 21 21h131q20 0 20 -21v-917q0 -240 -145 -378t-371 -138t-371 138t-145 378zM342 1561l141 258q11 20 31 20h195q10 0 13 -6.5t-3 -13.5l-211 -260
q-14 -19 -37 -19h-119q-10 0 -12.5 7t2.5 14zM721 1561l141 258q11 20 31 20h194q10 0 13.5 -6.5t-2.5 -13.5l-211 -260q-14 -19 -37 -19h-119q-10 0 -12.5 7t2.5 14z" />
    <glyph glyph-name="uhungarumlaut" unicode="&#x171;" horiz-adv-x="1167" 
d="M1004 1008v-988q0 -20 -21 -20h-119q-20 0 -20 20v117q-131 -157 -340 -157q-164 0 -260.5 97.5t-96.5 274.5v656q0 20 21 20h119q20 0 20 -20v-631q0 -122 61 -184t173 -62q135 0 219 96.5t84 276.5v504q0 20 20 20h119q21 0 21 -20zM219 1155l141 258q12 21 31 21h195
q10 0 13 -7t-3 -14l-211 -260q-13 -18 -37 -18h-119q-10 0 -12.5 6.5t2.5 13.5zM598 1155l141 258q12 21 31 21h195q10 0 13 -7t-3 -14l-211 -260q-13 -18 -37 -18h-119q-10 0 -12.5 6.5t2.5 13.5z" />
    <glyph glyph-name="Uogonek" unicode="&#x172;" horiz-adv-x="1310" 
d="M139 496v917q0 21 21 21h131q20 0 20 -21v-895q0 -184 88.5 -279.5t255.5 -95.5t255.5 95.5t88.5 279.5v895q0 21 21 21h131q20 0 20 -21v-917q0 -192 -97.5 -322.5t-256.5 -173.5q-59 -17 -92 -53.5t-33 -81.5q0 -52 36.5 -82.5t102.5 -30.5h25q21 0 21 -20v-70
q0 -20 -21 -20h-72q-107 0 -176 47t-69 139q0 87 73 156q-209 12 -341 148.5t-132 363.5z" />
    <glyph glyph-name="uogonek" unicode="&#x173;" horiz-adv-x="1167" 
d="M1004 1008v-988q0 -17 -15 -20q-56 -13 -89.5 -51.5t-33.5 -83.5q0 -52 37 -82.5t103 -30.5h24q21 0 21 -20v-70q0 -20 -21 -20h-72q-107 0 -176 47t-69 139q0 62 38 112.5t93 77.5v119q-131 -157 -340 -157q-164 0 -260.5 97.5t-96.5 274.5v656q0 20 21 20h119
q20 0 20 -20v-631q0 -122 61 -184t173 -62q135 0 219 96.5t84 276.5v504q0 20 20 20h119q21 0 21 -20z" />
    <glyph glyph-name="Wcircumflex" unicode="&#x174;" horiz-adv-x="1712" 
d="M1677 1413l-317 -1393q-6 -20 -23 -20h-186q-17 0 -23 20l-272 1067l-272 -1067q-6 -20 -23 -20h-186q-17 0 -23 20l-317 1393q-6 21 16 21h146q18 0 24 -21l260 -1186l275 1088q6 20 24 20h152q18 0 24 -20l275 -1088l260 1186q3 21 25 21h145q22 0 16 -21zM944 1823
l215 -262q6 -7 3 -14t-13 -7h-127q-18 0 -37 19l-129 129l-129 -129q-19 -19 -37 -19h-127q-10 0 -13 7t3 14l215 262q16 16 31 16h114q15 0 31 -16z" />
    <glyph glyph-name="wcircumflex" unicode="&#x175;" horiz-adv-x="1527" 
d="M1501 997l-313 -977q-6 -20 -27 -20h-145q-21 0 -27 20l-225 752l-225 -752q-6 -20 -27 -20h-145q-24 0 -27 20l-313 977q-2 6 -2 17q0 14 16 14h141q11 0 16.5 -3t7 -5t5.5 -12l225 -799l228 749q1 2 2.5 5.5t2 5t1.5 3.5t2.5 3t3.5 2t4.5 1.5t5.5 0.5h156q3 0 5.5 -0.5
t4.5 -1.5t3.5 -2t2.5 -3t1.5 -3.5t2 -5t2.5 -5.5l228 -749l225 799q1 1 2 4t1.5 4t1.5 3.5t2 3t2.5 2t3 1.5t4 1t5.5 1h7h141q16 0 16 -14q0 -11 -2 -17zM852 1417l215 -262q6 -7 3 -13.5t-13 -6.5h-127q-19 0 -37 18l-129 129l-129 -129q-18 -18 -37 -18h-127
q-10 0 -13 6.5t3 13.5l215 262q17 17 31 17h114q14 0 31 -17z" />
    <glyph glyph-name="Ycircumflex" unicode="&#x176;" horiz-adv-x="1118" 
d="M1100 1413l-455 -885v-508q0 -20 -20 -20h-131q-21 0 -21 20v508l-455 885q-4 10 0.5 15.5t12.5 5.5h162q14 0 24 -17l342 -680l342 680q10 17 25 17h161q8 0 12.5 -5.5t0.5 -15.5zM647 1823l215 -262q6 -7 3 -14t-13 -7h-127q-18 0 -37 19l-129 129l-129 -129
q-19 -19 -37 -19h-127q-10 0 -13 7t3 14l215 262q16 16 31 16h114q15 0 31 -16z" />
    <glyph glyph-name="ycircumflex" unicode="&#x177;" horiz-adv-x="991" 
d="M41 1028h147q21 0 27 -20l303 -783l258 783q5 12 9.5 16t17.5 4h141q17 0 17 -14q0 -9 -3 -15l-374 -1099q-63 -181 -148 -253.5t-207 -72.5q-84 0 -151 33q-21 12 -21 33v110q0 21 17 21q12 0 30 -11t47.5 -22.5t69.5 -11.5q80 0 130 61t87 199l-409 1009q-4 16 -4 17
q0 16 16 16zM594 1417l215 -262q6 -7 3 -13.5t-13 -6.5h-127q-19 0 -37 18l-129 129l-129 -129q-18 -18 -37 -18h-127q-10 0 -13 6.5t3 13.5l215 262q17 17 31 17h114q14 0 31 -17z" />
    <glyph glyph-name="Ydieresis" unicode="&#x178;" horiz-adv-x="1118" 
d="M1100 1413l-455 -885v-508q0 -20 -20 -20h-131q-21 0 -21 20v508l-455 885q-4 10 0.5 15.5t12.5 5.5h162q14 0 24 -17l342 -680l342 680q10 17 25 17h161q8 0 12.5 -5.5t0.5 -15.5zM287 1655v164q0 20 20 20h164q21 0 21 -20v-164q0 -21 -21 -21h-164q-20 0 -20 21z
M627 1655v164q0 20 20 20h164q20 0 20 -20v-164q0 -21 -20 -21h-164q-20 0 -20 21z" />
    <glyph glyph-name="Zacute" unicode="&#x179;" horiz-adv-x="1241" 
d="M119 1290v123q0 21 20 21h948q21 0 21 -21v-123q0 -17 -12 -35l-803 -1091h837q21 0 21 -21v-123q0 -20 -21 -20h-1026q-20 0 -20 20v123q0 17 12 35l805 1092h-762q-20 0 -20 20zM455 1561l141 258q11 20 31 20h194q15 0 15 -10l-5 -10l-210 -260q-14 -19 -37 -19h-119
q-12 0 -12 12q0 7 2 9z" />
    <glyph glyph-name="zacute" unicode="&#x17a;" horiz-adv-x="989" 
d="M94 897v111q0 20 21 20h737q20 0 20 -20v-111q0 -17 -16 -43l-588 -702h623q20 0 20 -21v-111q0 -20 -20 -20h-803q-20 0 -20 20v111q0 15 12 31l598 715h-563q-21 0 -21 20zM348 1155l141 258q12 21 31 21h195q14 0 14 -11q0 -2 -4 -10l-211 -260q-13 -18 -37 -18h-119
q-12 0 -12 12q0 6 2 8z" />
    <glyph glyph-name="Zdotaccent" unicode="&#x17b;" horiz-adv-x="1241" 
d="M119 1290v123q0 21 20 21h948q21 0 21 -21v-123q0 -17 -12 -35l-803 -1091h837q21 0 21 -21v-123q0 -20 -21 -20h-1026q-20 0 -20 20v123q0 17 12 35l805 1092h-762q-20 0 -20 20zM498 1642v177q0 20 20 20h176q21 0 21 -20v-177q0 -20 -21 -20h-176q-20 0 -20 20z" />
    <glyph glyph-name="zdotaccent" unicode="&#x17c;" horiz-adv-x="989" 
d="M94 897v111q0 20 21 20h737q20 0 20 -20v-111q0 -17 -16 -43l-588 -702h623q20 0 20 -21v-111q0 -20 -20 -20h-803q-20 0 -20 20v111q0 15 12 31l598 715h-563q-21 0 -21 20zM387 1237v176q0 21 21 21h176q20 0 20 -21v-176q0 -20 -20 -20h-176q-21 0 -21 20z" />
    <glyph glyph-name="Zcaron" unicode="&#x17d;" horiz-adv-x="1241" 
d="M119 1290v123q0 21 20 21h948q21 0 21 -21v-123q0 -17 -12 -35l-803 -1091h837q21 0 21 -21v-123q0 -20 -21 -20h-1026q-20 0 -20 20v123q0 17 12 35l805 1092h-762q-20 0 -20 20zM928 1819l-215 -263q-16 -16 -31 -16h-115q-14 0 -30 16l-215 263q-6 7 -3 13.5t13 6.5
h127q19 0 37 -18l129 -129l129 129q18 18 37 18h127q10 0 13 -6.5t-3 -13.5z" />
    <glyph glyph-name="zcaron" unicode="&#x17e;" horiz-adv-x="989" 
d="M94 897v111q0 20 21 20h737q20 0 20 -20v-111q0 -17 -16 -43l-588 -702h623q20 0 20 -21v-111q0 -20 -20 -20h-803q-20 0 -20 20v111q0 15 12 31l598 715h-563q-21 0 -21 20zM778 1413l-215 -262q-16 -16 -31 -16h-114q-15 0 -31 16l-215 262q-6 7 -3 14t13 7h127
q18 0 37 -19l129 -129l129 129q19 19 37 19h127q10 0 13 -7t-3 -14z" />
    <glyph glyph-name="longs" unicode="&#x17f;" horiz-adv-x="770" 
d="M424 1100v-1080q0 -20 -21 -20h-118q-21 0 -21 20v857h-168q-20 0 -20 20v111q0 20 20 20h168v86q0 159 86.5 249.5t241.5 90.5q134 0 213 -39q8 -4 11.5 -9t4 -10t0.5 -16v-106q0 -29 -28 -17q-100 46 -201 46q-168 0 -168 -203z" />
    <glyph glyph-name="uni018E" unicode="&#x18e;" horiz-adv-x="1196" 
d="M852 762v508h-707q-20 0 -20 20v123q0 21 20 21h859q20 0 20 -21v-1393q0 -20 -20 -20h-828q-20 0 -20 20v123q0 21 20 21h676v434h-614q-21 0 -21 20v123q0 21 21 21h614z" />
    <glyph glyph-name="uni018F" unicode="&#x18f;" horiz-adv-x="1214" 
d="M119 563h821q-12 154 -103 244t-241 90q-223 0 -301 -188q-7 -19 -29 -19h-133q-14 0 -14 15q0 11 4 20q59 162 181 243t296 81q230 0 371 -152.5t141 -382.5q0 -227 -145.5 -380.5t-366.5 -153.5q-151 0 -267 73.5t-175.5 193t-59.5 263.5v33q0 20 21 20zM600 131
q122 0 213 73t119 208h-662q25 -128 114 -204.5t216 -76.5z" />
    <glyph glyph-name="florin" unicode="&#x192;" horiz-adv-x="966" 
d="M242 -117l133 994h-168q-19 0 -19 20v111q0 20 23 20h184l19 133q17 132 108.5 212.5t220.5 80.5q117 0 197 -39q11 -6 13.5 -12t2.5 -23v-106q0 -21 -14 -21q-4 0 -16 4q-88 46 -178 46q-68 0 -117 -39t-60 -119l-16 -117h313q21 0 21 -20v-111q0 -20 -21 -20h-333
l-136 -1008q-40 -295 -282 -295q-123 0 -203 39q-11 6 -13.5 12t-2.5 23v106q0 21 14 21q4 0 16 -4q86 -45 164 -45q68 0 103.5 32.5t46.5 124.5z" />
    <glyph glyph-name="uni01B5" unicode="&#x1b5;" horiz-adv-x="1241" 
d="M119 1290v123q0 21 20 21h948q21 0 21 -21v-123q0 -17 -12 -35l-346 -469h317q20 0 20 -20v-111q0 -20 -20 -20h-428l-346 -471h837q21 0 21 -21v-123q0 -20 -21 -20h-1026q-20 0 -20 20v123q0 17 12 35l336 457h-266q-21 0 -21 20v111q0 20 21 20h379l356 484h-762
q-20 0 -20 20z" />
    <glyph glyph-name="uni01B6" unicode="&#x1b6;" horiz-adv-x="989" 
d="M336 469h-166q-20 0 -20 20v107q0 20 20 20h289l219 261h-563q-21 0 -21 20v111q0 20 21 20h737q20 0 20 -20v-111q0 -17 -16 -43l-199 -238h146q20 0 20 -20v-107q0 -20 -20 -20h-271l-264 -317h623q20 0 20 -21v-111q0 -20 -20 -20h-803q-20 0 -20 20v111q0 15 12 31z
" />
    <glyph glyph-name="Aringacute" unicode="&#x1fa;" horiz-adv-x="1282" 
d="M463 1516q0 75 50 123.5t128 48.5t128 -48.5t50 -123.5q0 -84 -59 -134l497 -1349q3 -6 3 -13q0 -20 -23 -20h-137q-11 0 -15.5 4t-9.5 16l-141 396h-586l-141 -396q-5 -12 -9.5 -16t-15.5 -4h-137q-22 0 -22 20q0 9 2 13l495 1349q-57 45 -57 134zM641 1227l-233 -647
h466zM520 1765l142 258q12 21 30 21h195q10 0 13 -7t-3 -14l-211 -260q-13 -18 -37 -18h-119q-10 0 -12.5 6.5t2.5 13.5zM561 1516q0 -38 22 -60t58 -22t58 22t22 60t-22 59.5t-58 21.5t-58 -21.5t-22 -59.5z" />
    <glyph glyph-name="aringacute" unicode="&#x1fb;" horiz-adv-x="1103" 
d="M285 723h-131q-15 0 -15 12q0 13 2 21q32 126 138.5 209.5t275.5 83.5q180 0 294 -99.5t114 -259.5v-493q0 -72 6.5 -106t27.5 -71q1 -2 2 -4.5t1.5 -3.5t0.5 -2q0 -10 -16 -10h-162q-20 0 -20 20v107q-50 -68 -138.5 -107.5t-197.5 -39.5q-69 0 -133.5 20.5t-117.5 59.5
t-85.5 102.5t-32.5 142.5q0 110 57 188.5t149.5 116t209.5 37.5q131 0 289 -45v57q0 116 -64.5 177t-183.5 61q-180 0 -242 -156q-7 -18 -28 -18zM803 451q-122 45 -279 45q-117 0 -187.5 -45t-70.5 -136q0 -90 57 -137t162 -47q135 0 226.5 85.5t91.5 234.5zM379 1303
q0 75 50 123.5t128 48.5t128 -48.5t50 -123.5t-50 -124t-128 -49t-128 49t-50 124zM477 1303q0 -38 22 -60t58 -22t58 22t22 60t-22 59.5t-58 21.5t-58 -21.5t-22 -59.5zM424 1561l141 258q11 20 31 20h195q14 0 14 -10q0 -2 -4 -10l-211 -260q-14 -19 -37 -19h-119
q-12 0 -12 12q0 7 2 9z" />
    <glyph glyph-name="AEacute" unicode="&#x1fc;" horiz-adv-x="1792" 
d="M940 672v-508h707q20 0 20 -21v-123q0 -20 -20 -20h-859q-20 0 -20 20v396h-401l-158 -396q-5 -12 -9.5 -16t-15.5 -4h-139q-22 0 -22 20q0 9 2 13l555 1380q1 2 2.5 6t2 5.5t2 4t3.5 3.5t4.5 1.5t5.5 0.5h1016q20 0 20 -21v-123q0 -20 -20 -20h-676v-434h614
q21 0 21 -21v-123q0 -20 -21 -20h-614zM707 1270l-275 -690h336v690h-61zM954 1561l142 258q11 20 30 20h195q14 0 14 -10q0 -2 -4 -10l-211 -260q-14 -19 -37 -19h-118q-13 0 -13 12q0 7 2 9z" />
    <glyph glyph-name="aeacute" unicode="&#x1fd;" horiz-adv-x="1910" 
d="M285 723h-131q-15 0 -15 12q0 13 2 21q32 126 138.5 209.5t275.5 83.5q123 0 218 -50t145 -137q70 88 172 137.5t223 49.5q114 0 209.5 -43t159 -116t98.5 -169t35 -203v-33q0 -20 -21 -20h-819q12 -154 102 -244t240 -90q223 0 301 188q7 19 29 19h133q14 0 14 -14
q0 -12 -4 -21q-59 -162 -181 -242.5t-296 -80.5q-138 0 -246.5 56.5t-175.5 158.5q-61 -100 -166.5 -157.5t-239.5 -57.5q-102 0 -188 34.5t-142.5 110t-56.5 180.5q0 110 57 188.5t149.5 116t209.5 37.5q138 0 289 -43v55q0 116 -64.5 177t-183.5 61q-180 0 -242 -156
q-7 -18 -28 -18zM803 449q-127 47 -279 47q-117 0 -187.5 -45t-70.5 -136q0 -90 57 -137t162 -47q135 0 226.5 84.5t91.5 233.5zM1313 897q-122 0 -213 -73t-119 -208h661q-25 128 -113.5 204.5t-215.5 76.5zM801 1155l141 258q12 21 31 21h194q15 0 15 -11q0 -2 -4 -10
l-211 -260q-13 -18 -37 -18h-119q-12 0 -12 12q0 6 2 8z" />
    <glyph glyph-name="Scommaaccent" unicode="&#x218;" horiz-adv-x="1208" 
d="M111 1071q0 92 39 166t106 120.5t153 71.5t183 25q112 0 205.5 -33t154 -88.5t95 -127t36.5 -150.5q0 -21 -20 -21h-131q-21 0 -21 21q-7 104 -97.5 169.5t-221.5 65.5q-134 0 -221.5 -57t-87.5 -154q0 -44 19.5 -81t51 -63t83 -49.5t102.5 -40t123 -34.5q86 -24 150 -47
t127 -57t102.5 -73.5t64 -94.5t24.5 -121q0 -214 -143.5 -326t-384.5 -112q-148 0 -268 56.5t-190 161t-70 236.5q0 21 20 21h131q21 0 21 -21q5 -125 103 -208t253 -83q170 0 263 66t93 199q0 42 -21 76.5t-52.5 58.5t-84 46.5t-100 36.5t-116.5 31q-113 29 -193 61.5
t-146.5 80.5t-100 116t-33.5 156zM524 -393q60 0 77 15.5t17 70.5v24h-94q-20 0 -20 21v156q0 20 20 20h156q20 0 20 -20v-216q0 -74 -30.5 -109.5t-102.5 -35.5h-43q-20 0 -20 21v32q0 21 20 21z" />
    <glyph glyph-name="scommaaccent" unicode="&#x219;" horiz-adv-x="1024" 
d="M928 301q0 -151 -114 -236t-298 -85q-182 0 -307 95t-125 238q0 21 20 21h132q17 0 20 -21q12 -90 80 -136t186 -46q110 0 174 37t64 113q0 77 -66.5 113.5t-232.5 62.5q-187 30 -268.5 98t-81.5 201q0 137 110 215t279 78q171 0 273.5 -79t121.5 -216q0 -21 -21 -21
h-114q-12 0 -18 13q0 1 -1 3l-2 5q-22 72 -88.5 107.5t-156.5 35.5q-102 0 -163 -35t-61 -102q0 -72 63.5 -107.5t225.5 -64.5q65 -11 114.5 -24t99.5 -35.5t82.5 -52.5t52.5 -74.5t20 -100.5zM426 -393q60 0 77 15.5t17 70.5v24h-94q-20 0 -20 21v156q0 20 20 20h156
q20 0 20 -20v-216q0 -74 -30.5 -109.5t-102.5 -35.5h-43q-20 0 -20 21v32q0 21 20 21z" />
    <glyph glyph-name="uni021A" unicode="&#x21a;" horiz-adv-x="1155" 
d="M51 1290v123q0 21 21 21h1011q21 0 21 -21v-123q0 -20 -21 -20h-419v-1250q0 -20 -21 -20h-131q-20 0 -20 20v1250h-420q-21 0 -21 20zM500 -393q60 0 77 15.5t17 70.5v24h-94q-21 0 -21 21v156q0 20 21 20h155q21 0 21 -20v-216q0 -74 -30.5 -109.5t-102.5 -35.5h-43
q-21 0 -21 21v32q0 21 21 21z" />
    <glyph glyph-name="uni021B" unicode="&#x21b;" horiz-adv-x="860" 
d="M416 1028h340q20 0 20 -20v-111q0 -20 -20 -20h-340v-572q0 -174 162 -174q109 0 194 31q12 4 14 4q15 0 15 -21v-96q0 -29 -17 -35q-90 -34 -219 -34q-146 0 -227.5 81.5t-81.5 229.5v586h-182q-21 0 -21 20v111q0 20 21 20h182v295q0 20 20 20h119q21 0 21 -20v-295z
M455 -393q60 0 77 15.5t17 70.5v24h-94q-21 0 -21 21v156q0 20 21 20h155q21 0 21 -20v-216q0 -74 -30.5 -109.5t-102.5 -35.5h-43q-21 0 -21 21v32q0 21 21 21z" />
    <glyph glyph-name="circumflex" unicode="&#x2c6;" horiz-adv-x="839" 
d="M508 1417l215 -262q6 -7 3 -13.5t-13 -6.5h-127q-19 0 -37 18l-129 129l-129 -129q-18 -18 -37 -18h-127q-10 0 -13 6.5t3 13.5l215 262q17 17 30 17h115q14 0 31 -17z" />
    <glyph glyph-name="caron" unicode="&#x2c7;" horiz-adv-x="839" 
d="M723 1413l-215 -262q-16 -16 -31 -16h-115q-14 0 -30 16l-215 262q-6 7 -3 14t13 7h127q18 0 37 -19l129 -129l129 129q19 19 37 19h127q10 0 13 -7t-3 -14z" />
    <glyph glyph-name="breve" unicode="&#x2d8;" horiz-adv-x="712" 
d="M119 1409h98q21 0 21 -20q0 -50 31.5 -81.5t86.5 -31.5t87 31.5t32 81.5q0 20 21 20h98q20 0 20 -20q0 -111 -72 -179.5t-186 -68.5t-186 68.5t-72 179.5q0 20 21 20z" />
    <glyph glyph-name="dotaccent" unicode="&#x2d9;" horiz-adv-x="438" 
d="M111 1237v176q0 21 20 21h176q21 0 21 -21v-176q0 -20 -21 -20h-176q-20 0 -20 20z" />
    <glyph glyph-name="ring" unicode="&#x2da;" horiz-adv-x="536" 
d="M90 1303q0 75 50 123.5t128 48.5t128 -48.5t50 -123.5t-50 -124t-128 -49t-128 49t-50 124zM188 1303q0 -38 22 -60t58 -22t58 22t22 60t-22 59.5t-58 21.5t-58 -21.5t-22 -59.5z" />
    <glyph glyph-name="ogonek" unicode="&#x2db;" horiz-adv-x="409" 
d="M258 31l78 -17l2 -2q4 -4 4 -6q0 -4 -4 -4l-2 -2q-56 -13 -89.5 -51.5t-33.5 -83.5q0 -52 36.5 -82.5t102.5 -30.5h25q20 0 20 -20v-70q0 -20 -20 -20h-72q-107 0 -176.5 47t-69.5 139q0 68 47.5 123t108.5 78q20 4 21 4q8 0 22 -2z" />
    <glyph glyph-name="tilde" unicode="&#x2dc;" horiz-adv-x="899" 
d="M113 1360q99 74 200 74q50 0 90.5 -13t62 -29t53 -29t67.5 -13q28 0 54.5 11.5t70.5 39.5q12 4 14 4q10 0 20 -16l58 -86q10 -17 -17 -35q-99 -74 -200 -74q-51 0 -91 13t-61 29t-52.5 29t-68.5 13q-28 0 -54.5 -11.5t-70.5 -39.5q-12 -4 -14 -4q-10 0 -20 16l-58 86
q-10 17 17 35z" />
    <glyph glyph-name="hungarumlaut" unicode="&#x2dd;" horiz-adv-x="1155" 
d="M199 1155l141 258q12 21 31 21h194q10 0 13 -7t-3 -14l-210 -260q-13 -18 -37 -18h-119q-10 0 -12.5 6.5t2.5 13.5zM578 1155l141 258q12 21 31 21h194q10 0 13 -7t-3 -14l-211 -260q-13 -18 -36 -18h-119q-10 0 -12.5 6.5t2.5 13.5z" />
    <glyph glyph-name="uni03A9" unicode="&#x3a9;" horiz-adv-x="1531" 
d="M766 1290q-207 0 -338 -129t-131 -330q0 -99 23 -186.5t68.5 -164.5t100.5 -141t132 -134q16 -16 16 -41v-144q0 -20 -21 -20h-430q-20 0 -20 20v123q0 21 20 21h269q-62 55 -115 118t-104 147t-81 188t-30 214q0 277 178.5 450t462.5 173t462.5 -173t178.5 -450
q0 -110 -30 -214t-81 -188t-104 -147t-115 -118h269q20 0 20 -21v-123q0 -20 -20 -20h-431q-20 0 -20 20v144q0 25 16 41q77 70 132 134t100.5 141t68.5 164.5t23 186.5q0 203 -131 331t-338 128z" />
    <glyph glyph-name="pi" unicode="&#x3c0;" horiz-adv-x="1392" 
d="M1251 885h-202v-621q0 -62 22.5 -87t81.5 -25h21q20 0 20 -21v-111q0 -20 -20 -20h-76q-209 0 -209 203v682h-404v-865q0 -20 -20 -20h-119q-20 0 -20 20v865h-203q-21 0 -21 20v103q0 20 21 20h1128q21 0 21 -20v-103q0 -20 -21 -20z" />
    <glyph glyph-name="endash" unicode="&#x2013;" horiz-adv-x="1171" 
d="M154 780h864q20 0 20 -20v-119q0 -20 -20 -20h-864q-21 0 -21 20v119q0 20 21 20z" />
    <glyph glyph-name="emdash" unicode="&#x2014;" horiz-adv-x="1626" 
d="M154 780h1319q20 0 20 -20v-119q0 -20 -20 -20h-1319q-21 0 -21 20v119q0 20 21 20z" />
    <glyph glyph-name="quoteleft" unicode="&#x2018;" horiz-adv-x="526" 
d="M358 1360q-62 0 -83 -22t-21 -89v-43h90q21 0 21 -20v-156q0 -20 -21 -20h-168q-20 0 -20 20v232q0 84 47.5 128t124.5 44h30q21 0 21 -21v-33q0 -20 -21 -20z" />
    <glyph glyph-name="quoteright" unicode="&#x2019;" horiz-adv-x="526" 
d="M168 1083q62 0 83 22t21 89v43h-90q-20 0 -20 20v156q0 21 20 21h168q21 0 21 -21v-231q0 -84 -47.5 -128t-124.5 -44h-31q-21 0 -21 20v33q0 20 21 20z" />
    <glyph glyph-name="quotesinglbase" unicode="&#x201a;" horiz-adv-x="526" 
d="M168 -154q62 0 83 22t21 89v43h-90q-20 0 -20 20v156q0 21 20 21h168q21 0 21 -21v-231q0 -84 -47.5 -128t-124.5 -44h-31q-21 0 -21 20v33q0 20 21 20z" />
    <glyph glyph-name="quotedblleft" unicode="&#x201c;" horiz-adv-x="833" 
d="M666 1360q-62 0 -83.5 -22t-21.5 -89v-43h90q21 0 21 -20v-156q0 -20 -21 -20h-168q-20 0 -20 20v232q0 84 47.5 128t124.5 44h31q20 0 20 -21v-33q0 -20 -20 -20zM358 1360q-62 0 -83 -22t-21 -89v-43h90q21 0 21 -20v-156q0 -20 -21 -20h-168q-20 0 -20 20v232
q0 84 47.5 128t124.5 44h30q21 0 21 -21v-33q0 -20 -21 -20z" />
    <glyph glyph-name="quotedblright" unicode="&#x201d;" horiz-adv-x="833" 
d="M168 1083q62 0 83 22t21 89v43h-90q-20 0 -20 20v156q0 21 20 21h168q21 0 21 -21v-231q0 -84 -47.5 -128t-124.5 -44h-31q-21 0 -21 20v33q0 20 21 20zM475 1083q62 0 83.5 22t21.5 89v43h-91q-20 0 -20 20v156q0 21 20 21h168q21 0 21 -21v-231q0 -84 -47.5 -128
t-124.5 -44h-31q-20 0 -20 20v33q0 20 20 20z" />
    <glyph glyph-name="quotedblbase" unicode="&#x201e;" horiz-adv-x="833" 
d="M168 -154q62 0 83 22t21 89v43h-90q-20 0 -20 20v156q0 21 20 21h168q21 0 21 -21v-231q0 -84 -47.5 -128t-124.5 -44h-31q-21 0 -21 20v33q0 20 21 20zM475 -154q62 0 83.5 22t21.5 89v43h-91q-20 0 -20 20v156q0 21 20 21h168q21 0 21 -21v-231q0 -84 -47.5 -128
t-124.5 -44h-31q-20 0 -20 20v33q0 20 20 20z" />
    <glyph glyph-name="dagger" unicode="&#x2020;" horiz-adv-x="974" 
d="M84 1028h317v385q0 21 21 21h131q20 0 20 -21v-385h318q20 0 20 -20v-119q0 -21 -20 -21h-318v-1253q0 -21 -20 -21h-131q-21 0 -21 21v1253h-317q-21 0 -21 21v119q0 20 21 20z" />
    <glyph glyph-name="daggerdbl" unicode="&#x2021;" horiz-adv-x="974" 
d="M891 0h-318v-385q0 -21 -20 -21h-131q-21 0 -21 21v385h-317q-21 0 -21 20v119q0 21 21 21h317v708h-317q-21 0 -21 21v119q0 20 21 20h317v385q0 21 21 21h131q20 0 20 -21v-385h318q20 0 20 -20v-119q0 -21 -20 -21h-318v-708h318q20 0 20 -21v-119q0 -20 -20 -20z" />
    <glyph glyph-name="bullet" unicode="&#x2022;" horiz-adv-x="786" 
d="M201 668q0 80 56.5 136t135.5 56q80 0 136.5 -56.5t56.5 -135.5q0 -80 -57 -136.5t-136 -56.5t-135.5 56.5t-56.5 136.5z" />
    <glyph glyph-name="ellipsis" unicode="&#x2026;" horiz-adv-x="1531" 
d="M217 197h156q20 0 20 -21v-156q0 -20 -20 -20h-156q-20 0 -20 20v156q0 21 20 21zM686 197h156q20 0 20 -21v-156q0 -20 -20 -20h-156q-20 0 -20 20v156q0 21 20 21zM1155 197h156q20 0 20 -21v-156q0 -20 -20 -20h-156q-20 0 -20 20v156q0 21 20 21z" />
    <glyph glyph-name="perthousand" unicode="&#x2030;" horiz-adv-x="2633" 
d="M1696 367q0 -89 -30.5 -160.5t-81 -115.5t-112.5 -67.5t-129 -23.5t-129 23.5t-112 67.5t-80.5 115.5t-30.5 160.5t30.5 160.5t80.5 115.5t112 67t129 23t129 -23t112.5 -67t81 -115.5t30.5 -160.5zM1567 367q0 119 -66.5 180t-157.5 61t-157 -61t-66 -180t66 -180.5
t157 -61.5t157.5 61.5t66.5 180.5zM823 1067q0 -89 -30.5 -160.5t-80.5 -115.5t-112 -67.5t-129 -23.5t-129 23.5t-112 67.5t-80.5 115.5t-30.5 160.5t30.5 160.5t80.5 115.5t112 67.5t129 23.5t129 -23.5t112 -67.5t80.5 -115.5t30.5 -160.5zM694 1067q0 119 -66 180.5
t-157 61.5t-157 -61.5t-66 -180.5t66 -180.5t157 -61.5t157 61.5t66 180.5zM2515 367q0 -89 -30.5 -160.5t-80.5 -115.5t-112 -67.5t-129 -23.5t-129 23.5t-112.5 67.5t-81 115.5t-30.5 160.5t30.5 160.5t81 115.5t112.5 67t129 23t129 -23t112 -67t80.5 -115.5t30.5 -160.5
zM2386 367q0 119 -66 180t-157 61t-157.5 -61t-66.5 -180t66.5 -180.5t157.5 -61.5t157 61.5t66 180.5zM297 82l1133 1345q12 16 28 0l55 -47q14 -14 5 -28l-1133 -1346q-13 -16 -29 0l-55 47q-13 13 -4 29z" />
    <glyph glyph-name="guilsinglleft" unicode="&#x2039;" horiz-adv-x="690" 
d="M578 1051v-172q0 -21 -15 -33l-307 -285l307 -285q15 -12 15 -32v-172q0 -15 -13 -15q-6 0 -12 6l-436 404q-21 18 -21 37v114q0 19 21 37l436 404q6 6 12 6q13 0 13 -14z" />
    <glyph glyph-name="guilsinglright" unicode="&#x203a;" horiz-adv-x="690" 
d="M113 879v172q0 14 12 14q6 0 12 -6l436 -404q21 -18 21 -37v-114q0 -19 -21 -37l-436 -404q-6 -6 -12 -6q-12 0 -12 15v172q0 21 14 32l307 285l-307 285q-14 11 -14 33z" />
    <glyph glyph-name="fraction" unicode="&#x2044;" horiz-adv-x="1413" 
d="M104 82l1133 1345q13 16 29 0l55 -47q13 -13 4 -28l-1132 -1346q-13 -16 -29 0l-55 47q-14 14 -5 29z" />
    <glyph glyph-name="zerosuperior" unicode="&#x2070;" horiz-adv-x="788" 
d="M90 1051q0 186 84.5 290.5t218.5 104.5t219.5 -104.5t85.5 -290.5t-85.5 -291t-219.5 -105q-133 0 -218 104.5t-85 291.5zM213 1051q0 -146 48.5 -215.5t131.5 -69.5t132.5 70t49.5 215t-49.5 214.5t-132.5 69.5t-131.5 -69.5t-48.5 -214.5z" />
    <glyph glyph-name="foursuperior" unicode="&#x2074;" horiz-adv-x="737" 
d="M428 688v125h-344q-21 0 -21 21v57q0 12 9 24l360 504q9 15 23 15h67q21 0 21 -21v-489h98q21 0 21 -21v-69q0 -21 -21 -21h-98v-125q0 -20 -21 -20h-73q-21 0 -21 20zM428 1237l-223 -313h223v313z" />
    <glyph glyph-name="fivesuperior" unicode="&#x2075;" horiz-adv-x="700" 
d="M113 1034l49 383q3 17 20 17h393q21 0 21 -21v-70q0 -20 -21 -20h-315l-31 -195q73 48 168 48q103 0 171.5 -68.5t68.5 -192.5q0 -120 -74 -190t-190 -70q-110 0 -185 63.5t-75 160.5q0 20 20 20h76q17 0 20 -20q21 -113 146 -113q65 0 104 38t39 109t-36 111.5
t-107 40.5q-85 0 -144 -59q-10 -10 -24 -7l-84 19q-10 3 -10 16z" />
    <glyph glyph-name="sixsuperior" unicode="&#x2076;" horiz-adv-x="757" 
d="M104 1016q0 209 77 319.5t204 110.5q93 0 158.5 -50.5t83.5 -142.5q0 -10 -13 -10h-92q-7 0 -10 10q-34 82 -129 82q-141 0 -152 -235q25 28 70 44.5t90 16.5q114 0 184 -68t70 -184q0 -115 -77 -184.5t-187 -69.5q-56 0 -104 20t-87.5 61.5t-62.5 113t-23 166.5z
M238 909q0 -66 39.5 -104.5t105.5 -38.5t105.5 38.5t39.5 104.5q0 63 -39.5 102.5t-105.5 39.5t-105.5 -39.5t-39.5 -102.5z" />
    <glyph glyph-name="sevensuperior" unicode="&#x2077;" horiz-adv-x="589" 
d="M35 1343v70q0 21 20 21h463q21 0 21 -21v-33q0 -14 -9 -32l-217 -662q-6 -18 -24 -18h-82q-17 0 -17 12q0 2 1 4t2 5t2 5l211 629h-351q-20 0 -20 20z" />
    <glyph glyph-name="eightsuperior" unicode="&#x2078;" horiz-adv-x="716" 
d="M123 1243q0 94 67.5 148.5t167.5 54.5q101 0 168.5 -54.5t67.5 -148.5q0 -113 -90 -170q114 -55 114 -188q0 -104 -71.5 -167t-188.5 -63t-188.5 63t-71.5 167q0 132 115 188q-90 57 -90 170zM217 885q0 -58 38 -88.5t103 -30.5t103.5 30.5t38.5 88.5q0 56 -39 89.5
t-103 33.5t-102.5 -33t-38.5 -90zM231 1233q0 -53 34.5 -84t92.5 -31t92.5 31t34.5 84t-37 81.5t-90 28.5t-90 -28.5t-37 -81.5z" />
    <glyph glyph-name="ninesuperior" unicode="&#x2079;" horiz-adv-x="757" 
d="M653 1085q0 -209 -76.5 -319.5t-203.5 -110.5q-93 0 -158.5 50.5t-83.5 142.5q0 10 12 10h93q7 0 10 -10q34 -82 129 -82q140 0 151 235q-25 -28 -69.5 -44.5t-89.5 -16.5q-114 0 -184 68t-70 184q0 115 77 184.5t187 69.5q117 0 196.5 -89t79.5 -272zM520 1192
q0 66 -39.5 104.5t-105.5 38.5t-106 -38.5t-40 -104.5q0 -63 40 -102t106 -39t105.5 39t39.5 102z" />
    <glyph glyph-name="zeroinferior" unicode="&#x2080;" horiz-adv-x="788" 
d="M90 -23q0 187 85 291.5t218 104.5q134 0 219.5 -105t85.5 -291t-85.5 -290.5t-219.5 -104.5t-218.5 104.5t-84.5 290.5zM213 -23q0 -145 48.5 -214.5t131.5 -69.5t132.5 69.5t49.5 214.5t-49.5 215t-132.5 70t-131.5 -69.5t-48.5 -215.5z" />
    <glyph glyph-name="oneinferior" unicode="&#x2081;" horiz-adv-x="454" 
d="M219 -385v600l-135 -74q-9 -6 -18 -6q-17 0 -17 17v86q0 12 14 20l173 94q13 8 30 8h47q21 0 21 -20v-725q0 -21 -21 -21h-73q-21 0 -21 21z" />
    <glyph glyph-name="twoinferior" unicode="&#x2082;" horiz-adv-x="724" 
d="M100 -385v61q0 19 13 29l317 275q43 37 60.5 69.5t17.5 81.5q0 58 -38 94.5t-103 36.5q-62 0 -97 -37t-43 -96q-3 -20 -20 -20h-80q-21 0 -21 20q0 102 74 173t187 71q120 0 190 -70.5t70 -169.5q0 -134 -119 -235l-229 -193h344q20 0 20 -20v-70q0 -21 -20 -21h-502
q-21 0 -21 21z" />
    <glyph glyph-name="threeinferior" unicode="&#x2083;" horiz-adv-x="729" 
d="M281 -41v70q0 20 20 20h41q133 0 133 113q0 44 -35.5 75t-89.5 31q-105 0 -125 -104q-3 -17 -20 -17h-74q-20 0 -20 19q5 91 70 148t169 57q110 0 175 -55.5t65 -147.5q0 -54 -25.5 -96.5t-66.5 -67.5q58 -28 91.5 -72t33.5 -116q0 -103 -78.5 -169.5t-194.5 -66.5
q-114 0 -190 66t-76 166q0 20 20 20h80q18 0 21 -20q12 -59 49.5 -90t95.5 -31q68 0 111 33.5t43 91.5q0 59 -39 91t-107 32h-57q-20 0 -20 20z" />
    <glyph glyph-name="fourinferior" unicode="&#x2084;" horiz-adv-x="737" 
d="M428 -385v125h-344q-21 0 -21 20v58q0 12 9 24l360 504q8 14 23 14h67q21 0 21 -20v-490h98q21 0 21 -20v-70q0 -20 -21 -20h-98v-125q0 -21 -21 -21h-73q-21 0 -21 21zM428 164l-223 -314h223v314z" />
    <glyph glyph-name="fiveinferior" unicode="&#x2085;" horiz-adv-x="700" 
d="M113 -39l49 383q3 16 20 16h393q21 0 21 -20v-70q0 -20 -21 -20h-315l-31 -195q71 47 168 47q103 0 171.5 -68t68.5 -192q0 -120 -74 -190t-190 -70q-110 0 -185 63t-75 160q0 21 20 21h76q17 0 20 -21q21 -112 146 -112q65 0 104 38t39 109t-36 111.5t-107 40.5
q-84 0 -144 -60q-9 -9 -24 -6l-84 19q-10 3 -10 16z" />
    <glyph glyph-name="sixinferior" unicode="&#x2086;" horiz-adv-x="759" 
d="M104 -57q0 209 77 319.5t204 110.5q93 0 158.5 -50.5t83.5 -142.5q0 -10 -13 -10h-92q-7 0 -10 10q-34 82 -129 82q-141 0 -152 -235q25 28 70 44.5t90 16.5q114 0 184 -68t70 -184q0 -115 -77 -184.5t-187 -69.5q-56 0 -104 20t-87.5 61.5t-62.5 113t-23 166.5z
M238 -164q0 -66 39.5 -104.5t105.5 -38.5t105.5 38.5t39.5 104.5q0 63 -39.5 102t-105.5 39t-105.5 -39t-39.5 -102z" />
    <glyph glyph-name="seveninferior" unicode="&#x2087;" horiz-adv-x="589" 
d="M35 270v70q0 20 20 20h463q21 0 21 -20v-33q0 -15 -9 -33l-217 -661q-6 -19 -24 -19h-82q-17 0 -17 13q0 2 1 4t2 5t2 5l211 629h-351q-20 0 -20 20z" />
    <glyph glyph-name="eightinferior" unicode="&#x2088;" horiz-adv-x="716" 
d="M123 170q0 94 67.5 148.5t167.5 54.5q101 0 168.5 -54.5t67.5 -148.5q0 -113 -90 -170q114 -55 114 -188q0 -104 -71.5 -167t-188.5 -63t-188.5 63t-71.5 167q0 132 115 188q-90 57 -90 170zM217 -188q0 -58 38 -88.5t103 -30.5t103.5 30.5t38.5 88.5q0 56 -39 89
t-103 33t-102.5 -33t-38.5 -89zM231 160q0 -53 34.5 -84t92.5 -31t92.5 31t34.5 84t-37 81.5t-90 28.5t-90 -28.5t-37 -81.5z" />
    <glyph glyph-name="nineinferior" unicode="&#x2089;" horiz-adv-x="757" 
d="M653 12q0 -209 -76.5 -319.5t-203.5 -110.5q-93 0 -158.5 50.5t-83.5 142.5q0 10 12 10h93q7 0 10 -10q34 -82 129 -82q140 0 151 235q-25 -28 -69.5 -44.5t-89.5 -16.5q-114 0 -184 68t-70 184q0 115 77 184.5t187 69.5q117 0 196.5 -89t79.5 -272zM520 119
q0 66 -39.5 104.5t-105.5 38.5t-106 -38.5t-40 -104.5q0 -63 40 -102.5t106 -39.5t105.5 39.5t39.5 102.5z" />
    <glyph glyph-name="Euro" unicode="&#x20ac;" horiz-adv-x="1398" 
d="M59 985h168q59 225 204 347t339 122q222 0 361.5 -120t177.5 -341q0 -20 -21 -20h-125q-3 0 -5 0.5t-4 1.5l-3 1.5t-2 2.5t-1.5 3.5t-2 5t-2.5 5.5q-40 161 -132.5 231t-240.5 70q-129 0 -227.5 -76t-143.5 -233h437q20 0 20 -20v-119q0 -21 -20 -21h-463q-4 -23 -4 -108
q0 -87 4 -109h463q20 0 20 -20v-119q0 -20 -20 -20h-437q45 -157 143.5 -233.5t227.5 -76.5q149 0 241 69t132 232q1 2 2.5 6t2 5.5t2 4t3.5 3.5t4.5 1.5t5.5 0.5h125q21 0 21 -21q-38 -221 -177.5 -340.5t-361.5 -119.5q-194 0 -339 122t-204 347h-168q-20 0 -20 20v119
q0 20 20 20h142q-4 70 -4 109q0 38 4 108h-142q-20 0 -20 21v119q0 20 20 20z" />
    <glyph glyph-name="uni2117" unicode="&#x2117;" horiz-adv-x="1638" 
d="M819 -20q-105 0 -207.5 30.5t-194 93t-161 149t-110 206.5t-40.5 258t40.5 258t110 206.5t161 149t194 93t207.5 30.5t207.5 -30.5t194 -93t161 -149t110 -206.5t40.5 -258t-40.5 -258t-110 -206.5t-161 -149t-194 -93t-207.5 -30.5zM819 66q92 0 180 25.5t167 79
t138.5 129t94.5 183.5t35 234t-35 234t-94.5 183.5t-138.5 129t-167 79t-180 25.5t-180 -25.5t-167 -79t-138 -129.5t-94 -183.5t-35 -233.5t35 -233.5t94 -183.5t138 -129.5t167 -79t180 -25.5zM537 272v893q0 23 22 23h309q144 0 227 -76.5t83 -200.5t-83 -200t-227 -76
h-233v-363q0 -22 -23 -22h-53q-22 0 -22 22zM635 1102v-381h248q97 0 146.5 50.5t49.5 139.5t-49.5 140t-146.5 51h-248z" />
    <glyph glyph-name="trademark" unicode="&#x2122;" horiz-adv-x="1460" 
d="M41 1343v70q0 21 20 21h504q21 0 21 -21v-70q0 -20 -21 -20h-194v-635q0 -20 -21 -20h-74q-20 0 -20 20v635h-195q-20 0 -20 20zM1360 1413v-725q0 -20 -21 -20h-73q-21 0 -21 20v586l-184 -469q-6 -12 -17 -12h-61q-10 0 -16 12l-185 469v-586q0 -20 -20 -20h-74
q-20 0 -20 20v725q0 21 20 21h117q17 0 24 -17l185 -469l184 469q7 17 25 17h116q21 0 21 -21z" />
    <glyph glyph-name="Omega" unicode="&#x2126;" horiz-adv-x="1531" 
d="M766 1290q-207 0 -338 -129t-131 -330q0 -99 23 -186.5t68.5 -164.5t100.5 -141t132 -134q16 -16 16 -41v-144q0 -20 -21 -20h-430q-20 0 -20 20v123q0 21 20 21h269q-62 55 -115 118t-104 147t-81 188t-30 214q0 277 178.5 450t462.5 173t462.5 -173t178.5 -450
q0 -110 -30 -214t-81 -188t-104 -147t-115 -118h269q20 0 20 -21v-123q0 -20 -20 -20h-431q-20 0 -20 20v144q0 25 16 41q77 70 132 134t100.5 141t68.5 164.5t23 186.5q0 203 -131 331t-338 128z" />
    <glyph glyph-name="onethird" unicode="&#x2153;" horiz-adv-x="1769" 
d="M248 82l1132 1345q13 16 29 0l55 -47q13 -13 4 -28l-1132 -1346q-13 -16 -29 0l-55 47q-13 13 -4 29zM1274 367v69q0 21 20 21h41q133 0 133 112q0 44 -35.5 75.5t-89.5 31.5q-104 0 -124 -105q-3 -16 -21 -16h-74q-20 0 -20 18q5 91 70 148t169 57q110 0 175 -55.5
t65 -147.5q0 -107 -92 -163q125 -61 125 -189q0 -103 -78.5 -169t-194.5 -66q-114 0 -190 65.5t-76 165.5q0 21 21 21h80q17 0 20 -21q12 -59 49.5 -90t95.5 -31q68 0 111 33t43 92t-38.5 91t-106.5 32h-58q-20 0 -20 21zM317 688v600l-135 -74q-9 -6 -18 -6q-17 0 -17 17
v86q0 11 15 20l172 94q15 9 31 9h47q20 0 20 -21v-725q0 -20 -20 -20h-74q-21 0 -21 20z" />
    <glyph glyph-name="twothirds" unicode="&#x2154;" horiz-adv-x="1959" 
d="M1464 367v69q0 21 21 21h41q133 0 133 112q0 44 -35.5 75.5t-89.5 31.5q-105 0 -125 -105q-3 -16 -20 -16h-74q-21 0 -21 18q5 91 70.5 148t169.5 57q110 0 175 -55.5t65 -147.5q0 -106 -93 -163q125 -61 125 -189q0 -103 -78 -169t-194 -66q-114 0 -190 65.5t-76 165.5
q0 21 20 21h80q18 0 21 -21q12 -59 49.5 -90t95.5 -31q68 0 111 33t43 92t-39 91t-107 32h-57q-21 0 -21 21zM438 82l1133 1345q12 16 28 0l56 -47q13 -13 4 -28l-1133 -1346q-12 -16 -28 0l-56 47q-13 13 -4 29zM180 688v62q0 18 13 28l317 275q43 37 60.5 69.5t17.5 81.5
q0 58 -38.5 94.5t-103.5 36.5q-62 0 -96.5 -37t-42.5 -96q-3 -20 -20 -20h-80q-21 0 -21 20q0 102 73.5 173t186.5 71q121 0 191 -70.5t70 -169.5q0 -134 -119 -235l-230 -193h344q21 0 21 -20v-70q0 -20 -21 -20h-501q-21 0 -21 20z" />
    <glyph glyph-name="oneeighth" unicode="&#x215b;" horiz-adv-x="1773" 
d="M248 82l1132 1345q13 16 29 0l55 -47q13 -13 4 -28l-1132 -1346q-13 -16 -29 0l-55 47q-13 13 -4 29zM317 688v600l-135 -74q-9 -6 -18 -6q-17 0 -17 17v86q0 11 15 20l172 94q15 9 31 9h47q20 0 20 -21v-725q0 -20 -20 -20h-74q-21 0 -21 20zM1110 575q0 94 67.5 148.5
t168.5 54.5q100 0 167.5 -54.5t67.5 -148.5q0 -62 -22.5 -101.5t-67.5 -67.5q115 -56 115 -189q0 -104 -71.5 -166.5t-188.5 -62.5t-189 62.5t-72 166.5q0 133 115 189q-45 28 -67.5 67.5t-22.5 101.5zM1204 217q0 -58 38.5 -88.5t103.5 -30.5t103 30.5t38 88.5
q0 57 -38.5 90t-102.5 33t-103 -33.5t-39 -89.5zM1219 565q0 -53 34.5 -83.5t92.5 -30.5t92.5 30.5t34.5 83.5t-37 82t-90 29t-90 -29t-37 -82z" />
    <glyph glyph-name="threeeighths" unicode="&#x215c;" horiz-adv-x="1826" 
d="M1163 575q0 94 67.5 148.5t168.5 54.5q100 0 167.5 -54.5t67.5 -148.5q0 -62 -22.5 -101.5t-67.5 -67.5q115 -56 115 -189q0 -104 -71.5 -166.5t-188.5 -62.5t-188.5 62.5t-71.5 166.5q0 134 114 189q-45 28 -67.5 67.5t-22.5 101.5zM1257 217q0 -58 38.5 -88.5
t103.5 -30.5t103 30.5t38 88.5q0 57 -38.5 90t-102.5 33t-103 -33.5t-39 -89.5zM1272 565q0 -53 34.5 -83.5t92.5 -30.5t92.5 30.5t34.5 83.5t-37 82t-90 29t-90 -29t-37 -82zM299 1034v70q0 20 20 20h41q134 0 134 113q0 44 -35.5 75t-89.5 31q-105 0 -125 -104
q-3 -16 -21 -16h-73q-21 0 -21 18q5 91 70.5 148t169.5 57q110 0 174.5 -55t64.5 -148q0 -54 -25.5 -96.5t-66.5 -67.5q58 -28 91.5 -72t33.5 -116q0 -103 -78.5 -169.5t-193.5 -66.5q-114 0 -190.5 66t-76.5 166q0 20 21 20h80q17 0 20 -20q12 -59 50 -90t96 -31
q68 0 110.5 33t42.5 92t-38.5 91t-106.5 32h-58q-20 0 -20 20zM301 82l1133 1345q12 16 28 0l56 -47q13 -13 4 -28l-1133 -1346q-13 -16 -29 0l-55 47q-13 13 -4 29z" />
    <glyph glyph-name="fiveeighths" unicode="&#x215d;" horiz-adv-x="1816" 
d="M291 82l1132 1345q13 16 29 0l55 -47q13 -13 4 -28l-1132 -1346q-13 -16 -29 0l-55 47q-13 13 -4 29zM1153 575q0 94 67.5 148.5t168.5 54.5q100 0 167.5 -54.5t67.5 -148.5q0 -62 -22.5 -101.5t-67.5 -67.5q115 -56 115 -189q0 -104 -71.5 -166.5t-188.5 -62.5
t-189 62.5t-72 166.5q0 133 115 189q-45 28 -67.5 67.5t-22.5 101.5zM1247 217q0 -58 38.5 -88.5t103.5 -30.5t103 30.5t38 88.5q0 57 -38.5 90t-102.5 33t-103 -33.5t-39 -89.5zM1262 565q0 -53 34.5 -83.5t92.5 -30.5t92.5 30.5t34.5 83.5t-37 82t-90 29t-90 -29t-37 -82z
M133 1034l49 383q3 17 21 17h393q20 0 20 -21v-70q0 -20 -20 -20h-315l-31 -195q73 48 168 48q103 0 171 -68.5t68 -192.5q0 -120 -74 -190t-190 -70q-110 0 -185 63.5t-75 160.5q0 20 21 20h75q18 0 21 -20q21 -113 145 -113q65 0 104.5 38t39.5 109t-36 111.5t-108 40.5
q-84 0 -143 -59q-10 -10 -25 -7l-84 19q-10 3 -10 16z" />
    <glyph glyph-name="seveneighths" unicode="&#x215e;" horiz-adv-x="1761" 
d="M236 82l1132 1345q13 16 29 0l55 -47q13 -13 4 -28l-1132 -1346q-13 -16 -29 0l-55 47q-13 13 -4 29zM1098 575q0 94 67.5 148.5t167.5 54.5q101 0 168.5 -54.5t67.5 -148.5q0 -62 -22.5 -101.5t-67.5 -67.5q114 -55 114 -189q0 -104 -71.5 -166.5t-188.5 -62.5
t-188.5 62.5t-71.5 166.5q0 133 115 189q-45 28 -67.5 67.5t-22.5 101.5zM1192 217q0 -58 38 -88.5t103 -30.5t103.5 30.5t38.5 88.5q0 56 -39 89.5t-103 33.5t-102.5 -33t-38.5 -90zM1206 565q0 -53 34.5 -83.5t92.5 -30.5t92.5 30.5t34.5 83.5t-37 82t-90 29t-90 -29
t-37 -82zM197 1343v70q0 21 20 21h463q20 0 20 -21v-33q0 -16 -8 -32l-217 -662q-6 -18 -24 -18h-82q-17 0 -17 12q0 2 4 14l211 629h-350q-20 0 -20 20z" />
    <glyph glyph-name="partialdiff" unicode="&#x2202;" horiz-adv-x="1191" 
d="M891 920q-31 99 -85.5 170t-131 112.5t-162.5 61.5t-193 24q-16 0 -16 29v102q0 15 29 15q369 0 563.5 -209.5t194.5 -603.5q0 -326 -131.5 -483.5t-362.5 -157.5q-218 0 -356 146t-138 388q0 243 134 389t350 146q193 0 305 -129zM270 514q0 -175 85.5 -279t240.5 -104
q143 0 234.5 104.5t91.5 278.5q0 170 -92 276.5t-234 106.5q-155 0 -240.5 -104t-85.5 -279z" />
    <glyph glyph-name="Delta" unicode="&#x2206;" horiz-adv-x="1372" 
d="M795 1413l487 -1237q8 -23 8 -53v-103q0 -20 -20 -20h-1168q-20 0 -20 20v103q0 30 8 53l488 1237q9 21 26 21h164q18 0 27 -21zM1118 164l-432 1100l-432 -1100h864z" />
    <glyph glyph-name="product" unicode="&#x220f;" horiz-adv-x="1286" 
d="M344 1270v-1655q0 -21 -20 -21h-131q-21 0 -21 21v1798q0 21 21 21h901q20 0 20 -21v-1798q0 -21 -20 -21h-131q-21 0 -21 21v1655h-598z" />
    <glyph glyph-name="summation" unicode="&#x2211;" horiz-adv-x="1234" 
d="M86 -385v131q0 19 16 41l508 682q19 25 19 45t-19 45l-508 682q-16 19 -16 41v131q0 21 20 21h1012q21 0 21 -21v-123q0 -20 -21 -20h-827l508 -690q20 -35 20 -66q0 -30 -20 -65l-508 -691h860q20 0 20 -20v-123q0 -21 -20 -21h-1045q-20 0 -20 21z" />
    <glyph glyph-name="minus" unicode="&#x2212;" horiz-adv-x="1171" 
d="M154 780h864q20 0 20 -20v-119q0 -20 -20 -20h-864q-21 0 -21 20v119q0 20 21 20z" />
    <glyph glyph-name="radical" unicode="&#x221a;" horiz-adv-x="1179" 
d="M240 659h-148q-20 0 -20 21v111q0 20 20 20h256q23 0 29 -20l198 -574l406 1196q9 21 29 21h135q21 0 12 -21l-475 -1393q-9 -20 -27 -20h-159q-21 0 -21 20z" />
    <glyph glyph-name="infinity" unicode="&#x221e;" horiz-adv-x="1744" 
d="M104 653q0 155 97.5 260t251.5 105q142 0 248.5 -77.5t170.5 -195.5q63 119 170.5 196t249.5 77q154 0 251 -105t97 -260t-97 -259.5t-251 -104.5q-142 0 -249.5 76.5t-170.5 195.5q-64 -118 -170.5 -195t-248.5 -77q-154 0 -251.5 104.5t-97.5 259.5zM928 653
q70 -136 156.5 -200t207.5 -64q110 0 176 72.5t66 191.5t-66 192t-176 73q-121 0 -207.5 -64.5t-156.5 -200.5zM211 653q0 -119 66 -191.5t176 -72.5q121 0 207.5 64t156.5 200q-70 136 -156.5 200.5t-207.5 64.5q-110 0 -176 -73t-66 -192z" />
    <glyph glyph-name="integral" unicode="&#x222b;" horiz-adv-x="966" 
d="M242 -117l172 1276q17 133 109 214t220 81q117 0 197 -39q11 -6 13.5 -12t2.5 -23v-106q0 -32 -30 -17q-88 46 -178 46q-69 0 -118 -39t-59 -119l-172 -1276q-40 -295 -282 -295q-123 0 -203 39q-11 6 -13.5 12t-2.5 23v106q0 32 30 17q86 -45 164 -45q68 0 103.5 32.5
t46.5 124.5z" />
    <glyph glyph-name="approxequal" unicode="&#x2248;" horiz-adv-x="1112" 
d="M119 868q45 33 113.5 53.5t121.5 20.5q73 0 141.5 -21t131.5 -42t123 -21q45 0 79 11.5t78 39.5q12 4 15 4q10 0 20 -16l68 -102q2 -2 2 -9q0 -13 -19 -26q-45 -33 -113.5 -53.5t-121.5 -20.5q-73 0 -141.5 21t-131.5 42t-123 21q-45 0 -79 -11.5t-78 -39.5
q-12 -4 -15 -4q-10 0 -20 16l-68 103q-2 2 -2 8q0 13 19 26zM119 463q45 33 113.5 53.5t121.5 20.5q73 0 141.5 -21t131 -42t123.5 -21q45 0 79 11.5t78 39.5q12 4 15 4q10 0 20 -16l68 -103q2 -2 2 -8q0 -14 -19 -27q-45 -33 -113 -53t-122 -20q-73 0 -141.5 21t-131 42
t-123.5 21q-45 0 -79 -12t-78 -40q-12 -4 -15 -4q-10 0 -20 17l-68 102q-2 2 -2 8q0 14 19 27z" />
    <glyph glyph-name="notequal" unicode="&#x2260;" horiz-adv-x="1171" 
d="M154 487h266l147 256h-413q-21 0 -21 21v119q0 20 21 20h505l162 277q9 12 17 12q1 0 2.5 -0.5l4.5 -1.5t5 -2l102 -60q13 -10 13 -16l-4 -12l-115 -197h172q20 0 20 -20v-119q0 -21 -20 -21h-266l-148 -256h414q20 0 20 -20v-119q0 -20 -20 -20h-506l-162 -277
q-9 -12 -16 -12l-12 4l-103 59q-12 9 -12 17q0 1 0.5 2.5l1.5 4.5t2 5l115 197h-172q-21 0 -21 20v119q0 20 21 20z" />
    <glyph glyph-name="lessequal" unicode="&#x2264;" horiz-adv-x="1171" 
d="M975 428v-139q0 -22 -21 -13l-739 400q-20 9 -20 26v152q0 18 20 27l739 399q21 9 21 -12v-140q0 -19 -21 -28l-608 -322l608 -321q21 -9 21 -29zM154 160h864q20 0 20 -21v-119q0 -20 -20 -20h-864q-21 0 -21 20v119q0 21 21 21z" />
    <glyph glyph-name="greaterequal" unicode="&#x2265;" horiz-adv-x="1171" 
d="M197 289v139q0 20 20 29l608 321l-608 322q-20 9 -20 28v140q0 21 20 12l739 -399q21 -9 21 -27v-152q0 -17 -21 -26l-739 -400q-20 -9 -20 13zM154 160h864q20 0 20 -21v-119q0 -20 -20 -20h-864q-21 0 -21 20v119q0 21 21 21z" />
    <glyph glyph-name="lozenge" unicode="&#x25ca;" horiz-adv-x="1138" 
d="M678 1413l403 -676q6 -12 6 -20q0 -9 -6 -21l-403 -676q-9 -20 -29 -20h-160q-19 0 -28 20l-404 676q-6 12 -6 21q0 8 6 20l404 676q9 21 28 21h160q20 0 29 -21zM569 1278l-340 -561l340 -561l340 561z" />
    <glyph glyph-name="apple" unicode="&#xf8ff;" horiz-adv-x="1556" 
d="M1384 1264v-1219q0 -18 -12.5 -31.5t-32.5 -13.5q-8 0 -14 2l-547 158l-547 -158q-6 -2 -14 -2q-20 0 -32.5 13.5t-12.5 31.5v1219q0 36 33 45l553 159l20 5q1 0 21 -5l553 -159q32 -8 32 -45zM733 750v620l-471 -137q12 -190 146 -328t325 -155zM823 1370v-620
q191 17 325 155t146 328zM260 948v-844l473 138v417q-151 12 -275 88.5t-198 200.5zM1296 104v844q-76 -125 -199 -201t-274 -88v-417z" />
    <glyph glyph-name="fi" unicode="&#xfb01;" horiz-adv-x="1204" 
d="M713 877h-316v-857q0 -20 -20 -20h-119q-20 0 -20 20v857h-168q-21 0 -21 20v111q0 20 21 20h168v131q0 129 81.5 212t210.5 83q111 0 197 -39q8 -4 11.5 -9t4 -10t0.5 -16v-108q0 -19 -12 -19q-4 0 -16 4q-87 46 -180 46q-63 0 -100.5 -42.5t-37.5 -115.5v-117h316
q20 0 20 -20v-111q0 -20 -20 -20zM905 20v988q0 20 21 20h118q21 0 21 -20v-988q0 -20 -21 -20h-118q-21 0 -21 20zM877 1237v176q0 21 20 21h176q21 0 21 -21v-176q0 -20 -21 -20h-176q-20 0 -20 20z" />
    <glyph glyph-name="fl" unicode="&#xfb02;" horiz-adv-x="1253" 
d="M713 877h-316v-857q0 -20 -20 -20h-119q-20 0 -20 20v857h-168q-21 0 -21 20v111q0 20 21 20h168v131q0 129 81.5 212t210.5 83q111 0 197 -39q8 -4 11.5 -9t4 -10t0.5 -16v-108q0 -19 -12 -19q-4 0 -16 4q-87 46 -180 46q-63 0 -100.5 -42.5t-37.5 -115.5v-117h316
q20 0 20 -20v-111q0 -20 -20 -20zM930 20v1393q0 21 20 21h119q21 0 21 -21v-1393q0 -20 -21 -20h-119q-20 0 -20 20z" />
    <glyph glyph-name="sterling.tosn" 
d="M377 397q0 4 -1 12t-1 11v12h-146q-20 0 -20 21v106q0 21 20 21h95q-27 64 -27 120q0 162 104 255.5t263 93.5q166 0 269.5 -86t113.5 -234q0 -20 -21 -20h-119q-17 0 -20 20q-14 77 -71 122.5t-152 45.5q-96 0 -149.5 -54.5t-53.5 -142.5q0 -70 26 -120h367q20 0 20 -21
v-106q0 -21 -20 -21h-315q2 -6 2 -35q0 -82 -31.5 -137t-93.5 -108h620q21 0 21 -21v-111q0 -20 -21 -20h-778q-20 0 -20 20v97q0 25 16 41q69 66 96 118t27 121z" />
    <glyph glyph-name="dollar.tosn" 
d="M1051 301q0 -136 -90.5 -217.5t-243.5 -99.5v-168q0 -21 -21 -21h-118q-21 0 -21 21v170q-153 21 -251.5 111t-98.5 216q0 21 20 21h131q18 0 21 -21q21 -141 178 -176v326q-174 31 -249 97.5t-75 195.5q0 123 90 199.5t234 88.5v164q0 21 21 21h118q21 0 21 -21v-168
q129 -20 206.5 -94.5t94.5 -191.5q0 -21 -21 -21h-114q-12 0 -18 13q0 1 -1 3l-2 5q-17 50 -55 83.5t-90 47.5v-303q60 -13 105 -27t90.5 -36.5t74 -51t46.5 -71t18 -95.5zM883 281q0 59 -38.5 92t-127.5 57v-295q166 24 166 146zM393 760q0 -59 37 -90.5t127 -55.5v279
q-164 -23 -164 -133z" />
    <glyph glyph-name="yen.tosn" 
d="M289 625h172l-236 383q-4 9 1 14.5t12 5.5h157q17 0 23 -16l217 -365l217 365q6 16 22 16h158q7 0 11.5 -5t0.5 -15l-237 -383h174q20 0 20 -21v-110q0 -21 -20 -21h-266v-145h225q21 0 21 -21v-110q0 -21 -21 -21h-225v-156q0 -20 -21 -20h-119q-20 0 -20 20v156h-225
q-21 0 -21 21v110q0 21 21 21h225v145h-266q-21 0 -21 21v110q0 21 21 21z" />
    <glyph glyph-name="cent.tosn" 
d="M588 -182v168q-189 32 -300.5 177t-111.5 351t111.5 350t300.5 176v170q0 21 20 21h131q21 0 21 -21v-166q150 -20 247.5 -108.5t133.5 -228.5q2 -8 2 -21q0 -12 -15 -12h-124q-22 0 -29 18q-53 161 -215 197v-750q162 36 215 197q7 18 29 18h124q15 0 15 -12t-2 -20
q-36 -143 -133 -231.5t-248 -106.5v-166q0 -21 -21 -21h-131q-20 0 -20 21zM344 514q0 -151 64.5 -247t179.5 -126v744q-115 -30 -179.5 -125t-64.5 -246z" />
    <glyph glyph-name="multiply.tosn" 
d="M997 766l-249 -250l249 -250q14 -14 0 -28l-84 -84q-14 -14 -28 0l-250 249l-250 -249q-15 -14 -29 0l-84 84q-14 14 0 28l250 250l-250 250q-14 14 0 29l84 84q14 15 29 0l250 -250l250 250q14 14 28 0l84 -84q15 -15 0 -29z" />
    <glyph glyph-name="plus.tosn" 
d="M715 948v-352h352q20 0 20 -21v-118q0 -21 -20 -21h-352v-352q0 -21 -21 -21h-119q-20 0 -20 21v352h-352q-21 0 -21 21v118q0 21 21 21h352v352q0 21 20 21h119q21 0 21 -21z" />
    <glyph glyph-name="minus.tosn" 
d="M203 596h864q20 0 20 -21v-118q0 -21 -20 -21h-864q-21 0 -21 21v118q0 21 21 21z" />
    <glyph glyph-name="divide.tosn" 
d="M203 512h864q20 0 20 -20v-119q0 -21 -20 -21h-864q-21 0 -21 21v119q0 20 21 20zM557 197h156q20 0 20 -21v-156q0 -20 -20 -20h-156q-20 0 -20 20v156q0 21 20 21zM557 864h156q20 0 20 -20v-156q0 -20 -20 -20h-156q-20 0 -20 20v156q0 20 20 20z" />
    <glyph glyph-name="Euro.tosn" 
d="M166 453h127q-2 18 -2 61q0 38 2 61h-127q-21 0 -21 21v111q0 20 21 20h156q53 158 166.5 240t269.5 82q184 0 294 -92t142 -257q0 -20 -20 -20h-117q-13 0 -19 16q-1 3 -2 4q-26 90 -96.5 143.5t-181.5 53.5q-202 0 -273 -170h252q21 0 21 -20v-111q0 -21 -21 -21h-284
q-2 -23 -2 -61q0 -43 2 -61h284q21 0 21 -21v-110q0 -21 -21 -21h-252q71 -170 273 -170q111 0 181.5 53.5t96.5 143.5q7 17 13 19q3 1 8 1h117q20 0 20 -20q-32 -164 -142 -256t-294 -92q-156 0 -269.5 81.5t-166.5 239.5h-156q-21 0 -21 21v110q0 21 21 21z" />
    <glyph glyph-name="equal.tosn" 
d="M203 784h864q20 0 20 -20v-119q0 -20 -20 -20h-864q-21 0 -21 20v119q0 20 21 20zM203 369h864q20 0 20 -21v-119q0 -20 -20 -20h-864q-21 0 -21 20v119q0 21 21 21z" />
    <glyph glyph-name="zero.tosn" 
d="M96 514q0 158 73.5 281.5t195.5 188.5t270 65t270 -65t195.5 -188.5t73.5 -281.5t-73.5 -281t-195.5 -188t-270 -65t-270 65t-195.5 188t-73.5 281zM264 514q0 -168 103 -275.5t268 -107.5t268 107.5t103 275.5t-103 275.5t-268 107.5t-268 -107.5t-103 -275.5z" />
    <glyph glyph-name="one.tosn" 
d="M240 152h338v657l-269 -143q-14 -7 -22 -7q-15 0 -15 19v131q0 18 23 31l321 178q17 10 31 10h70q20 0 20 -20v-856h338q21 0 21 -21v-111q0 -20 -21 -20h-835q-21 0 -21 20v111q0 21 21 21z" />
    <glyph glyph-name="two.tosn" 
d="M236 20v86q0 29 22 48l422 342q68 56 97.5 102.5t29.5 118.5q0 77 -52.5 128.5t-142.5 51.5t-144 -53.5t-60 -132.5q-1 -18 -7 -24.5t-20 -6.5h-109q-24 0 -24 31q4 156 110 247t254 91q155 0 255 -92.5t100 -217.5q0 -111 -35.5 -182.5t-114.5 -134.5l-336 -270h502
q21 0 21 -21v-111q0 -20 -21 -20h-727q-20 0 -20 20z" />
    <glyph glyph-name="three.tosn" 
d="M526 371v110q0 21 21 21h84q109 0 172 51.5t63 157.5q0 89 -62 137.5t-163 48.5q-96 0 -162 -53.5t-73 -149.5q-1 -16 -6.5 -19t-18.5 -3h-107q-24 0 -24 30q4 156 118 251.5t273 95.5q174 0 279.5 -92.5t105.5 -227.5q0 -82 -25 -141.5t-59.5 -90.5t-87.5 -59
q50 -24 86 -51t67.5 -66t47.5 -94t16 -125q0 -172 -116.5 -278.5t-303.5 -106.5q-112 0 -209 45t-160.5 134.5t-68.5 205.5q0 31 25 31h108q13 0 19.5 -4t7.5 -20q12 -115 88 -177.5t190 -62.5q121 0 190.5 59.5t69.5 177.5q0 108 -72.5 176t-179.5 68h-112q-21 6 -21 21z
" />
    <glyph glyph-name="four.tosn" 
d="M752 -262v262h-555q-21 0 -21 20v60q0 23 17 47l587 885q10 16 27 16h84q20 0 20 -20v-856h179q20 0 20 -21v-111q0 -20 -20 -20h-179v-262q0 -21 -22 -21h-117q-20 0 -20 21zM752 700l-371 -548h371v548z" />
    <glyph glyph-name="five.tosn" 
d="M231 322l76 686q3 20 21 20h680q20 0 20 -20v-111q0 -20 -20 -20h-562l-47 -383q48 46 127 74t154 28q191 0 305.5 -119t114.5 -315q0 -199 -123 -322t-315 -123q-81 0 -158 25.5t-139.5 72t-102 120.5t-43.5 163q0 31 25 31h108q12 0 17 -6t10 -25q57 -229 283 -229
q133 0 205.5 76t72.5 213q0 139 -79 212.5t-202 73.5q-163 0 -260 -125q-14 -18 -34 -18h-113q-21 0 -21 21z" />
    <glyph glyph-name="six.tosn" 
d="M209 578q0 357 121 545t340 188q155 0 264.5 -94t126.5 -252q0 -21 -23 -21h-108q-17 0 -23 21q-53 194 -243 194q-250 0 -283 -430q125 131 309 131q82 0 154.5 -29t129 -83t89.5 -139.5t33 -190.5q0 -136 -61 -237t-158 -151t-215 -50q-76 0 -141.5 19t-124 64
t-99.5 112.5t-64.5 170t-23.5 232.5zM387 418q0 -129 73.5 -208t196.5 -79t197 79t74 208t-74.5 210t-196.5 81t-196 -81t-74 -210z" />
    <glyph glyph-name="seven.tosn" 
d="M289 897v111q0 20 20 20h742q20 0 20 -20v-70q0 -13 -10 -43l-412 -1163q-3 -15 -22 -15h-115q-20 0 -20 17q0 8 2 10l405 1133h-590q-20 0 -20 20z" />
    <glyph glyph-name="eight.tosn" 
d="M258 963q0 82 31.5 149.5t84.5 110t120.5 65.5t140.5 23t140.5 -23t120.5 -65.5t84.5 -110t31.5 -149.5q0 -87 -41.5 -158t-108.5 -117q85 -47 136 -127t51 -196q0 -179 -118 -282t-296 -103t-296 103t-118 282q0 116 51 196t136 127q-67 46 -108.5 117t-41.5 158z
M389 365q0 -110 69.5 -172t176.5 -62t176.5 62t69.5 172q0 109 -69 171t-177 62t-177 -62t-69 -171zM418 954q0 -98 62 -151t155 -53t155 53t62 151q0 99 -65 152t-152 53q-89 0 -153 -53t-64 -152z" />
    <glyph glyph-name="nine.tosn" 
d="M1061 451q0 -357 -121 -545.5t-340 -188.5q-155 0 -264.5 94t-126.5 252q0 21 22 21h109q16 0 22 -21q53 -194 244 -194q250 0 283 430q-125 -131 -309 -131q-82 0 -154.5 29t-129 83t-89.5 139.5t-33 190.5q0 136 61 237.5t158 151.5t215 50q76 0 141.5 -19t124 -64
t99.5 -112.5t64.5 -170t23.5 -232.5zM883 610q0 129 -74 208t-197 79t-196.5 -79t-73.5 -208t74 -210t196 -81t196.5 81t74.5 210z" />
    <glyph glyph-name="sterling.posn" horiz-adv-x="1091" 
d="M276 397q0 4 -1 12t-1 11v12h-145q-20 0 -20 21v106q0 21 20 21h94q-26 61 -26 120q0 162 103.5 255.5t262.5 93.5q166 0 269.5 -86t113.5 -234q0 -20 -20 -20h-119q-18 0 -21 20q-14 77 -71 122.5t-152 45.5q-96 0 -149.5 -54.5t-53.5 -142.5q0 -68 27 -120h367
q20 0 20 -21v-106q0 -21 -20 -21h-316q2 -6 2 -35q0 -82 -31.5 -137t-93.5 -108h621q20 0 20 -21v-111q0 -20 -20 -20h-778q-21 0 -21 20v97q0 24 17 41q69 66 95.5 118t26.5 121z" />
    <glyph glyph-name="dollar.posn" horiz-adv-x="1024" 
d="M928 301q0 -136 -90.5 -217.5t-243.5 -99.5v-168q0 -21 -21 -21h-118q-21 0 -21 21v170q-153 21 -251.5 111t-98.5 216q0 21 20 21h132q17 0 20 -21q21 -141 178 -176v326q-174 31 -248.5 97.5t-74.5 195.5q0 123 89.5 199.5t233.5 88.5v164q0 21 21 21h118q21 0 21 -21
v-168q129 -20 206.5 -94.5t94.5 -191.5q0 -21 -21 -21h-114q-12 0 -18 13q0 1 -1 3l-2 5q-17 50 -55 83.5t-90 47.5v-303q60 -13 105 -27t90.5 -36.5t74 -51t46.5 -71t18 -95.5zM760 281q0 59 -38.5 92t-127.5 57v-295q166 24 166 146zM270 760q0 -59 37 -90.5t127 -55.5
v279q-164 -23 -164 -133z" />
    <glyph glyph-name="yen.posn" horiz-adv-x="974" 
d="M141 625h172l-235 383q-4 10 0.5 15t11.5 5h158q16 0 22 -16l217 -365l218 365q6 16 22 16h158q7 0 11.5 -5t0.5 -15l-238 -383h175q20 0 20 -21v-110q0 -21 -20 -21h-267v-145h226q20 0 20 -21v-110q0 -21 -20 -21h-226v-156q0 -20 -20 -20h-119q-20 0 -20 20v156h-226
q-20 0 -20 21v110q0 21 20 21h226v145h-267q-20 0 -20 21v110q0 21 20 21z" />
    <glyph glyph-name="cent.posn" horiz-adv-x="1161" 
d="M514 -182v168q-189 32 -300.5 177t-111.5 351t111.5 350t300.5 176v170q0 21 21 21h131q20 0 20 -21v-166q150 -20 247.5 -108.5t133.5 -228.5q2 -8 2 -21q0 -12 -14 -12h-125q-22 0 -29 18q-53 161 -215 197v-750q162 36 215 197q7 18 29 18h125q14 0 14 -12t-2 -20
q-36 -143 -133 -231.5t-248 -106.5v-166q0 -21 -20 -21h-131q-21 0 -21 21zM270 514q0 -151 64.5 -247t179.5 -126v744q-115 -30 -179.5 -125t-64.5 -246z" />
    <glyph glyph-name="multiply.posn" horiz-adv-x="1036" 
d="M881 766l-250 -250l250 -250q14 -14 0 -28l-84 -84q-15 -14 -29 0l-250 249l-250 -249q-14 -14 -28 0l-84 84q-14 14 0 28l250 250l-250 250q-14 14 0 29l84 84q14 14 28 0l250 -250l250 250q14 15 29 0l84 -84q15 -15 0 -29z" />
    <glyph glyph-name="plus.posn" horiz-adv-x="1171" 
d="M666 948v-352h352q20 0 20 -21v-118q0 -21 -20 -21h-352v-352q0 -21 -21 -21h-119q-20 0 -20 21v352h-352q-21 0 -21 21v118q0 21 21 21h352v352q0 21 20 21h119q21 0 21 -21z" />
    <glyph glyph-name="minus.posn" horiz-adv-x="1171" 
d="M154 596h864q20 0 20 -21v-118q0 -21 -20 -21h-864q-21 0 -21 21v118q0 21 21 21z" />
    <glyph glyph-name="divide.posn" horiz-adv-x="1171" 
d="M154 512h864q20 0 20 -20v-119q0 -21 -20 -21h-864q-21 0 -21 21v119q0 20 21 20zM508 197h156q20 0 20 -21v-156q0 -20 -20 -20h-156q-21 0 -21 20v156q0 21 21 21zM508 864h156q20 0 20 -20v-156q0 -20 -20 -20h-156q-21 0 -21 20v156q0 20 21 20z" />
    <glyph glyph-name="Euro.posn" horiz-adv-x="1218" 
d="M98 453h127q-2 18 -2 61q0 38 2 61h-127q-20 0 -20 21v111q0 20 20 20h156q53 158 166.5 240t269.5 82q184 0 294 -92t142 -257q0 -20 -20 -20h-117q-3 0 -5 0.5t-4 1.5l-3 1.5t-2 2.5t-1.5 3.5t-2 5t-2.5 5.5q-26 90 -97 143.5t-182 53.5q-201 0 -272 -170h252
q20 0 20 -20v-111q0 -21 -20 -21h-285q-2 -23 -2 -61q0 -43 2 -61h285q20 0 20 -21v-110q0 -21 -20 -21h-252q71 -170 272 -170q111 0 182 53.5t97 143.5q1 2 2.5 6t2 5.5t2 3.5t3 3t4.5 1.5t6 0.5h117q20 0 20 -20q-32 -164 -142 -256t-294 -92q-156 0 -269.5 81.5
t-166.5 239.5h-156q-20 0 -20 21v110q0 21 20 21z" />
    <glyph glyph-name="equal.posn" horiz-adv-x="1171" 
d="M154 784h864q20 0 20 -20v-119q0 -20 -20 -20h-864q-21 0 -21 20v119q0 20 21 20zM154 369h864q20 0 20 -21v-119q0 -20 -20 -20h-864q-21 0 -21 20v119q0 21 21 21z" />
    <glyph glyph-name="zero.posn" horiz-adv-x="1273" 
d="M98 514q0 158 73.5 281.5t195.5 188.5t270 65t270 -65t195.5 -188.5t73.5 -281.5t-73.5 -281t-195.5 -188t-270 -65t-270 65t-195.5 188t-73.5 281zM266 514q0 -168 103 -275.5t268 -107.5t268 107.5t103 275.5t-103 275.5t-268 107.5t-268 -107.5t-103 -275.5z" />
    <glyph glyph-name="one.posn" horiz-adv-x="718" 
d="M395 20v789l-215 -117q-12 -6 -22 -6q-15 0 -15 19v133q0 17 23 30l268 150q17 10 31 10h70q20 0 20 -20v-988q0 -20 -20 -20h-119q-21 0 -21 20z" />
    <glyph glyph-name="two.posn" horiz-adv-x="1015" 
d="M109 20v86q0 29 22 48l422 342q68 56 97.5 102.5t29.5 118.5q0 77 -52.5 128.5t-142.5 51.5t-144 -53.5t-60 -132.5q-1 -18 -7 -24.5t-20 -6.5h-109q-24 0 -24 31q4 156 110 247t254 91q155 0 255 -92.5t100 -217.5q0 -111 -35.5 -182.5t-114.5 -134.5l-336 -270h502
q21 0 21 -21v-111q0 -20 -21 -20h-727q-20 0 -20 20z" />
    <glyph glyph-name="three.posn" horiz-adv-x="1089" 
d="M426 371v110q0 21 20 21h84q109 0 172.5 51.5t63.5 157.5q0 89 -62 137.5t-163 48.5q-96 0 -162.5 -53.5t-73.5 -149.5q-1 -16 -6 -19t-18 -3h-107q-24 0 -24 30q4 156 118 251.5t273 95.5q174 0 279.5 -92.5t105.5 -227.5q0 -82 -25 -141.5t-59.5 -90.5t-87.5 -59
q50 -24 86 -51t67.5 -66t47.5 -94t16 -125q0 -172 -116.5 -278.5t-303.5 -106.5q-112 0 -209 45t-160.5 134.5t-68.5 205.5q0 31 24 31h109q13 0 19 -4t7 -20q12 -115 88.5 -177.5t190.5 -62.5q121 0 190.5 59.5t69.5 177.5q0 108 -72.5 176t-179.5 68h-113q-20 6 -20 21z
" />
    <glyph glyph-name="four.posn" horiz-adv-x="1171" 
d="M713 -262v262h-555q-21 0 -21 20v60q0 23 17 47l587 885q10 16 27 16h84q20 0 20 -20v-856h179q20 0 20 -21v-111q0 -20 -20 -20h-179v-262q0 -21 -22 -21h-117q-20 0 -20 21zM713 700l-371 -548h371v548z" />
    <glyph glyph-name="five.posn" horiz-adv-x="1153" 
d="M160 322l76 686q3 20 20 20h680q20 0 20 -20v-111q0 -20 -20 -20h-561l-47 -383q49 46 127 74t153 28q191 0 305.5 -119t114.5 -315q0 -199 -123 -322t-315 -123q-81 0 -158 25.5t-139.5 72t-102 120.5t-43.5 163q0 31 25 31h109q12 0 16.5 -6t9.5 -25q57 -229 283 -229
q133 0 205.5 76t72.5 213q0 139 -78.5 212.5t-201.5 73.5q-163 0 -260 -125q-14 -18 -35 -18h-113q-20 0 -20 21z" />
    <glyph glyph-name="six.posn" horiz-adv-x="1169" 
d="M143 578q0 357 121 545t340 188q155 0 264.5 -94t126.5 -252q0 -21 -22 -21h-109q-16 0 -22 21q-53 194 -244 194q-250 0 -283 -430q125 131 310 131q82 0 154.5 -29t128.5 -83t89 -139.5t33 -190.5q0 -136 -61 -237t-158 -151t-215 -50q-76 0 -141.5 19t-124 64
t-99.5 112.5t-64.5 170t-23.5 232.5zM322 418q0 -129 73.5 -208t196.5 -79t196.5 79t73.5 208t-74 210t-196 81t-196 -81t-74 -210z" />
    <glyph glyph-name="seven.posn" horiz-adv-x="956" 
d="M102 897v111q0 20 21 20h741q21 0 21 -20v-70q0 -10 -11 -43l-411 -1163q-3 -15 -23 -15h-114q-21 0 -21 17q0 8 2 10l406 1133h-590q-21 0 -21 20z" />
    <glyph glyph-name="eight.posn" horiz-adv-x="1077" 
d="M162 963q0 82 31.5 149.5t84.5 110t120.5 65.5t140.5 23q99 0 183 -38.5t138.5 -119.5t54.5 -190q0 -87 -41.5 -158t-107.5 -117q186 -102 186 -323q0 -179 -117.5 -282t-295.5 -103t-296 103t-118 282q0 221 186 323q-66 46 -107.5 117t-41.5 158zM293 365
q0 -110 69.5 -172t176.5 -62t176 62t69 172q0 109 -68.5 171t-176.5 62t-177 -62t-69 -171zM322 954q0 -98 62 -151t155 -53t155 53t62 151q0 99 -65 152t-152 53q-89 0 -153 -53t-64 -152z" />
    <glyph glyph-name="nine.posn" horiz-adv-x="1169" 
d="M1026 451q0 -357 -121 -545.5t-340 -188.5q-155 0 -264.5 94t-126.5 252q0 21 23 21h108q17 0 23 -21q53 -194 243 -194q250 0 283 430q-125 -131 -309 -131q-82 0 -154.5 29t-129 83t-89.5 139.5t-33 190.5q0 136 61 237.5t158 151.5t215 50q76 0 141.5 -19t124 -64
t99.5 -112.5t64.5 -170t23.5 -232.5zM848 610q0 129 -73.5 208t-196.5 79t-197 -79t-74 -208t74.5 -210t196.5 -81t196 81t74 210z" />
    <glyph glyph-name="ampersand.alt" horiz-adv-x="1331" 
d="M1247 696h-186v-219q0 -127 -37.5 -224.5t-103.5 -156t-149 -87.5t-181 -29q-209 0 -340 120.5t-131 305.5q0 151 62.5 240.5t172.5 146.5q-86 58 -134 130t-48 185q0 156 109.5 251t291.5 95h181q20 0 20 -20v-119q0 -21 -20 -21h-181q-112 0 -174.5 -52t-62.5 -155
q0 -117 73 -174t203 -57h281v203q0 20 20 20h127q21 0 21 -20v-203h186q23 0 23 -22v-115q0 -16 -23 -23zM893 477v219h-281q-156 0 -238.5 -75.5t-82.5 -210.5q0 -131 82.5 -201t216.5 -70q303 0 303 338z" />
    <glyph glyph-name="braceleft.ss04" horiz-adv-x="786" 
d="M426 549v-174q0 -128 28.5 -169.5t108.5 -41.5h96q21 0 21 -21v-123q0 -20 -21 -20h-96q-76 0 -129.5 15.5t-95.5 54t-63 109.5t-21 175v162q0 119 -109 119h-61q-21 0 -21 20v123q0 21 21 21h61q109 0 109 119v161q0 105 21 175.5t63 109t95.5 54.5t129.5 16h96
q21 0 21 -21v-123q0 -20 -21 -20h-96q-80 0 -108.5 -41.5t-28.5 -169.5v-174q0 -134 -125 -168q125 -34 125 -168z" />
    <glyph glyph-name="braceright.ss04" horiz-adv-x="786" 
d="M360 375v174q0 134 125 168q-125 34 -125 168v174q0 128 -28.5 169.5t-108.5 41.5h-96q-21 0 -21 20v123q0 21 21 21h96q76 0 129.5 -16t95.5 -54.5t63 -109t21 -175.5v-161q0 -119 109 -119h61q21 0 21 -21v-123q0 -20 -21 -20h-61q-109 0 -109 -119v-162
q0 -104 -21 -175t-63 -109.5t-95.5 -54t-129.5 -15.5h-96q-21 0 -21 20v123q0 21 21 21h96q80 0 108.5 41.5t28.5 169.5z" />
    <glyph glyph-name="bracketleft.ss04" horiz-adv-x="837" 
d="M172 20v1393q0 21 21 21h518q20 0 20 -21v-123q0 -20 -20 -20h-367v-1106h367q20 0 20 -21v-123q0 -20 -20 -20h-518q-21 0 -21 20z" />
    <glyph glyph-name="bracketright.ss04" horiz-adv-x="837" 
d="M666 1413v-1393q0 -20 -21 -20h-518q-21 0 -21 20v123q0 21 21 21h367v1106h-367q-21 0 -21 20v123q0 21 21 21h518q21 0 21 -21z" />
    <glyph glyph-name="parenleft.ss04" horiz-adv-x="735" 
d="M350 743v-49q0 -109 16 -185.5t61.5 -142.5t81.5 -102t121 -109q5 -5 8 -7t7 -6t8 -7q15 -15 2 -29l-90 -102q-14 -14 -28 -2q-88 66 -148.5 124t-111 129.5t-75 155.5t-24.5 183v250q0 99 24.5 182.5t74.5 155t111 130t149 124.5q14 12 28 -2l90 -103q13 -13 -2 -28
q-126 -109 -165 -151q-95 -104 -123 -236q-15 -76 -15 -173z" />
    <glyph glyph-name="parenright.ss04" horiz-adv-x="735" 
d="M385 694v49q0 63 -7 116.5t-17 94.5t-32 80.5t-40 66.5t-53 62.5t-60.5 58t-72.5 63.5l-21 18q-15 15 -2 28l90 103q14 14 29 2q88 -66 148.5 -124.5t110.5 -130t74.5 -155t24.5 -182.5v-250q0 -99 -24.5 -183t-74.5 -155.5t-110.5 -129.5t-148.5 -124q-15 -12 -29 2
l-90 102q-14 14 2 29q126 108 163 149q96 103 124 234q16 76 16 176z" />
    <glyph glyph-name="braceleft.case" horiz-adv-x="794" 
d="M438 535v-359q0 -107 32 -160t105 -53h93q20 0 20 -20v-123q0 -21 -20 -21h-97q-172 0 -238.5 93.5t-66.5 306.5v303q0 135 -129 135h-53q-21 0 -21 20v123q0 21 21 21h53q129 0 129 135v303q0 213 66.5 306t238.5 93h97q20 0 20 -20v-123q0 -20 -20 -20h-93
q-73 0 -105 -53t-32 -160v-359q0 -141 -129 -184q129 -43 129 -184z" />
    <glyph glyph-name="braceright.case" horiz-adv-x="794" 
d="M356 176v359q0 141 129 184q-129 43 -129 184v359q0 107 -32 160t-105 53h-92q-21 0 -21 20v123q0 20 21 20h96q172 0 238.5 -93t66.5 -306v-303q0 -135 129 -135h54q20 0 20 -21v-123q0 -20 -20 -20h-54q-129 0 -129 -135v-303q0 -213 -66.5 -306.5t-238.5 -93.5h-96
q-21 0 -21 21v123q0 20 21 20h92q73 0 105 53t32 160z" />
    <glyph glyph-name="bracketleft.case" horiz-adv-x="837" 
d="M172 -180v1798q0 20 21 20h518q20 0 20 -20v-123q0 -20 -20 -20h-367v-1512h367q20 0 20 -20v-123q0 -21 -20 -21h-518q-21 0 -21 21z" />
    <glyph glyph-name="bracketright.case" horiz-adv-x="837" 
d="M666 1618v-1798q0 -21 -21 -21h-518q-21 0 -21 21v123q0 20 21 20h367v1512h-367q-21 0 -21 20v123q0 20 21 20h518q21 0 21 -20z" />
    <glyph glyph-name="parenleft.case" horiz-adv-x="731" 
d="M350 860v-280q0 -97 4 -161.5t17.5 -124.5t31.5 -100.5t55 -88t79 -87.5t112 -100q15 -12 2 -29l-78 -96q-8 -8 -14 -8q-5 0 -14 6q-216 175 -291.5 327t-75.5 398v408q0 246 75.5 398t291.5 327q9 6 14 6q6 0 14 -8l78 -97q13 -16 -2 -28q-70 -60 -112 -100t-79 -87.5
t-55 -88t-31.5 -100.5t-17.5 -124.5t-4 -161.5z" />
    <glyph glyph-name="parenright.case" horiz-adv-x="741" 
d="M391 580v280q0 97 -4 161.5t-17.5 124.5t-31.5 100.5t-55 88t-79 87.5t-112 100q-15 12 -2 28l78 97q8 8 14 8t15 -6q146 -119 224.5 -223.5t110 -220t31.5 -281.5v-408q0 -166 -31.5 -281.5t-110 -220t-224.5 -223.5q-9 -6 -15 -6t-14 8l-78 96q-13 17 2 29
q70 60 112 100t79 87.5t55 88t31.5 100.5t17.5 124.5t4 161.5z" />
    <glyph glyph-name="bullet.case" horiz-adv-x="786" 
d="M201 717q0 79 56.5 135.5t135.5 56.5q80 0 136.5 -56.5t56.5 -135.5t-57 -136t-136 -57t-135.5 56.5t-56.5 136.5z" />
    <glyph glyph-name="exclamdown.case" horiz-adv-x="618" 
d="M375 0h-131q-21 0 -21 20v998q0 20 21 20h131q20 0 20 -20v-998q0 -20 -20 -20zM391 1229h-164q-20 0 -20 20v164q0 21 20 21h164q21 0 21 -21v-164q0 -20 -21 -20z" />
    <glyph glyph-name="questiondown.case" horiz-adv-x="1167" 
d="M1014 385q-5 -171 -127 -288t-322 -117q-196 0 -313 108.5t-117 282.5q0 60 19 111t50 88t68 71t74 65.5t68 65t50 77t19 93.5v76q0 20 21 20h131q20 0 20 -20v-62q0 -67 -19 -123.5t-50 -97t-68 -76t-74 -67t-68 -63t-50 -71.5t-19 -85q0 -108 70 -169t188 -61
q113 0 188.5 62t92.5 180q3 21 20 21h127q21 0 21 -21zM651 1229h-164q-20 0 -20 20v164q0 21 20 21h164q21 0 21 -21v-164q0 -20 -21 -20z" />
    <glyph glyph-name="at.case" horiz-adv-x="1650" 
d="M1423 748q0 116 -35.5 218.5t-104 184t-179 129t-250.5 47.5q-126 0 -238.5 -43.5t-198 -122t-135 -198t-49.5 -263.5q0 -299 172 -473t449 -174q124 0 213.5 28.5t173.5 80.5q18 9 25 -8l43 -86q6 -16 -9 -25q-213 -117 -446 -117q-161 0 -301 54.5t-242 153.5
t-160.5 245t-58.5 321q0 137 40.5 257.5t112.5 210t167.5 155t208.5 98.5t233 33q130 0 243.5 -38t197 -104t144 -153t90.5 -188t30 -207q0 -232 -82.5 -350.5t-223.5 -118.5q-72 0 -132 36.5t-79 90.5q-57 -67 -124 -97t-158 -30q-143 0 -235.5 96.5t-92.5 270.5
q0 119 49 220t140.5 162.5t207.5 61.5q156 0 224 -105l8 74q3 17 16 17h90q17 0 17 -17l-47 -430q-4 -50 -4 -72q0 -86 36 -124.5t93 -38.5q161 0 161 338zM1034 733q0 125 -49.5 191.5t-146.5 66.5q-67 0 -119.5 -28.5t-84 -76.5t-47.5 -105t-16 -119q0 -123 52.5 -187.5
t150.5 -64.5q124 0 192 93t68 230z" />
    <glyph glyph-name="guilsinglleft.case" horiz-adv-x="690" 
d="M578 1206v-172q0 -21 -15 -33l-307 -284l307 -285q15 -12 15 -33v-172q0 -14 -13 -14q-6 0 -12 6l-436 404q-21 18 -21 36v115q0 19 21 37l436 403q7 7 12 7q13 0 13 -15z" />
    <glyph glyph-name="guilsinglright.case" horiz-adv-x="690" 
d="M113 1034v172q0 15 12 15q5 0 12 -7l436 -403q21 -18 21 -37v-115q0 -18 -21 -36l-436 -404q-6 -6 -12 -6q-12 0 -12 14v172q0 22 14 33l307 285l-307 284q-14 11 -14 33z" />
    <glyph glyph-name="guillemotleft.case" horiz-adv-x="1126" 
d="M1014 1206v-172q0 -21 -15 -33l-307 -284l307 -285q15 -12 15 -33v-172q0 -14 -13 -14q-6 0 -12 6l-436 404q-21 18 -21 36v115q0 19 21 37l436 403q7 7 12 7q13 0 13 -15zM578 1206v-172q0 -21 -15 -33l-307 -284l307 -285q15 -12 15 -33v-172q0 -14 -13 -14q-6 0 -12 6
l-436 404q-21 18 -21 36v115q0 19 21 37l436 403q7 7 12 7q13 0 13 -15z" />
    <glyph glyph-name="guillemotright.case" horiz-adv-x="1126" 
d="M113 1034v172q0 15 12 15q5 0 12 -7l436 -403q21 -18 21 -37v-115q0 -18 -21 -36l-436 -404q-6 -6 -12 -6q-12 0 -12 14v172q0 22 14 33l307 285l-307 284q-14 11 -14 33zM549 1034v172q0 15 12 15q5 0 12 -7l437 -403q20 -17 20 -37v-115q0 -19 -20 -36l-437 -404
q-6 -6 -12 -6q-12 0 -12 14v172q0 22 14 33l307 285l-307 284q-14 11 -14 33z" />
    <glyph glyph-name="zero.tn" 
d="M94 717q0 181 42.5 324t117.5 232t172 135t209 46t209 -46t172 -135t117.5 -232t42.5 -324t-42.5 -324t-117.5 -232t-172 -135t-209 -46t-209 46t-172 135t-117.5 232t-42.5 324zM266 717q0 -155 28 -269t79.5 -180.5t116 -97.5t145.5 -31t145.5 31t116 97.5t79.5 180.5
t28 269t-28 269t-79.5 180t-116 97t-145.5 31t-145.5 -31t-116 -97t-79.5 -180t-28 -269z" />
    <glyph glyph-name="one.tn" 
d="M1075 0h-848q-20 0 -20 20v119q0 21 20 21h340v1046l-299 -164q-12 -6 -22 -6q-15 0 -15 19v141q0 18 23 31l356 196q18 11 31 11h74q20 0 20 -21v-1253h340q21 0 21 -21v-119q0 -20 -21 -20z" />
    <glyph glyph-name="two.tn" 
d="M168 20v86q0 29 22 48l580 559q77 77 104 144t27 177q0 113 -74.5 186.5t-201.5 73.5q-137 0 -214 -80t-77 -196q0 -18 -6.5 -24.5t-20.5 -6.5h-112q-25 0 -25 31q5 189 126 312.5t329 123.5q194 0 319 -118.5t125 -297.5q0 -141 -45 -241.5t-139 -190.5l-469 -446h676
q20 0 20 -21v-119q0 -20 -20 -20h-904q-20 0 -20 20z" />
    <glyph glyph-name="three.tn" 
d="M506 707v114q0 23 22 23h105q128 0 198 58t70 177q0 99 -77.5 157t-188.5 58q-112 0 -186 -62t-84 -171q-1 -16 -7 -20.5t-20 -4.5h-113q-26 0 -26 35q12 170 135.5 276.5t300.5 106.5q183 0 304.5 -100.5t121.5 -253.5q0 -119 -43 -194.5t-133 -131.5q241 -96 241 -356
q0 -196 -133 -317t-348 -121q-198 0 -332 121.5t-151 316.5q0 35 26 35h111q27 0 29 -27q14 -134 98 -210.5t219 -76.5q146 0 229.5 71t83.5 214q0 124 -80.5 192t-228.5 68h-121q-22 6 -22 23z" />
    <glyph glyph-name="four.tn" 
d="M780 20v275h-628q-21 0 -21 20v76q0 25 16 47l656 979q10 17 26 17h99q20 0 20 -21v-958h203q20 0 20 -21v-119q0 -20 -20 -20h-203v-275q0 -20 -22 -20h-125q-21 0 -21 20zM780 1104l-438 -649h438v649z" />
    <glyph glyph-name="five.tn" 
d="M186 668l88 745q3 21 21 21h754q20 0 20 -21v-119q0 -20 -20 -20h-629l-60 -432q154 108 330 108q211 0 333 -128t122 -353q0 -154 -66 -266.5t-175 -167.5t-247 -55q-206 0 -337.5 118t-143.5 301q0 31 25 31h116q12 0 17 -6t10 -25q18 -113 103.5 -186.5t209.5 -73.5
q150 0 235 86.5t85 239.5q0 150 -85 238t-233 88q-171 0 -299 -125q-19 -19 -34 -19h-119q-21 0 -21 21z" />
    <glyph glyph-name="six.tn" 
d="M145 653q0 398 140.5 599.5t378.5 201.5q180 0 298 -95t144 -261q0 -21 -23 -21h-122q-17 0 -23 21q-29 105 -103 155t-171 50q-147 0 -240.5 -133t-97.5 -398q63 76 158.5 115t193.5 39q206 0 335.5 -125.5t129.5 -347.5q0 -109 -40 -200t-107.5 -150t-154.5 -91
t-182 -32q-88 0 -162 21t-140 70t-112 125t-73 192.5t-27 264.5zM344 453q0 -141 84.5 -227.5t230.5 -86.5t231 86.5t85 227.5t-85 227t-231 86t-230.5 -86t-84.5 -227z" />
    <glyph glyph-name="seven.tn" 
d="M209 1294v119q0 21 20 21h877q20 0 20 -21v-78q0 -21 -10 -51l-487 -1270q-6 -14 -23 -14h-127q-20 0 -20 16q0 3 4 15l473 1243h-707q-20 0 -20 20z" />
    <glyph glyph-name="eight.tn" 
d="M207 1075q0 173 125 276t303 103t303 -103t125 -276q0 -204 -172 -313q217 -113 217 -356q0 -186 -133 -306t-340 -120t-340 120t-133 306q0 243 217 356q-172 109 -172 313zM330 406q0 -127 82 -197t223 -70t223 70t82 197q0 128 -82 199t-223 71t-223 -71t-82 -199z
M367 1067q0 -104 72.5 -170t195.5 -66t195.5 66t72.5 170q0 108 -74 169.5t-194 61.5t-194 -61.5t-74 -169.5z" />
    <glyph glyph-name="nine.tn" 
d="M1124 780q0 -398 -140 -599t-378 -201q-180 0 -298 95t-144 261q0 13 5 16.5t17 3.5h123q17 0 23 -20q29 -105 103 -155t171 -50q147 0 240.5 133t97.5 398q-63 -76 -158.5 -115t-193.5 -39q-206 0 -335.5 125.5t-129.5 347.5q0 109 40 200t107 150t154 91t182 32
q87 0 161.5 -21t140.5 -70.5t112 -125.5t73 -192.5t27 -264.5zM926 981q0 141 -85 227t-231 86t-230.5 -86t-84.5 -227t84.5 -227t230.5 -86t231 86t85 227z" />
    <glyph glyph-name="zero.slashtn" 
d="M94 717q0 181 42.5 324t117.5 232t172 135t209 46t209 -46t172 -135t117.5 -232t42.5 -324t-42.5 -324t-117.5 -232t-172 -135t-209 -46t-209 46t-172 135t-117.5 232t-42.5 324zM266 717q0 -369 158 -504l281 1077q-15 4 -70 4q-81 0 -145.5 -31t-116 -97t-79.5 -180
t-28 -269zM1004 717q0 366 -158 504l-281 -1076q34 -6 70 -6q81 0 145.5 31t116 97.5t79.5 180.5t28 269z" />
    <glyph glyph-name="zero.slash" horiz-adv-x="1273" 
d="M96 717q0 181 42.5 324t117.5 232t172 135t209 46t209 -46t172 -135t117.5 -232t42.5 -324t-42.5 -324t-117.5 -232t-172 -135t-209 -46t-209 46t-172 135t-117.5 232t-42.5 324zM268 717q0 -369 158 -504l281 1077q-15 4 -70 4q-81 0 -145.5 -31t-116 -97t-79.5 -180
t-28 -269zM1006 717q0 366 -158 504l-281 -1076q35 -6 70 -6q81 0 145.5 31t116 97.5t79.5 180.5t28 269z" />
    <glyph glyph-name="zero.slashposn" horiz-adv-x="1273" 
d="M98 514q0 158 73.5 281.5t195.5 188.5t270 65t270 -65t195.5 -188.5t73.5 -281.5t-73.5 -281t-195.5 -188t-270 -65t-270 65t-195.5 188t-73.5 281zM1008 514q0 176 -121 291l-365 -658q59 -16 115 -16q165 0 268 107.5t103 275.5zM266 514q0 -182 119 -291l367 658
q-62 16 -115 16q-165 0 -268 -107.5t-103 -275.5z" />
    <glyph glyph-name="zero.slashtosn" 
d="M96 514q0 158 73.5 281.5t195.5 188.5t270 65t270 -65t195.5 -188.5t73.5 -281.5t-73.5 -281t-195.5 -188t-270 -65t-270 65t-195.5 188t-73.5 281zM1006 514q0 176 -121 291l-365 -658q59 -16 115 -16q165 0 268 107.5t103 275.5zM264 514q0 -182 119 -291l367 658
q-62 16 -115 16q-165 0 -268 -107.5t-103 -275.5z" />
    <glyph glyph-name="zero.slashsuperior" horiz-adv-x="790" 
d="M90 1051q0 186 85.5 290.5t219.5 104.5t219.5 -104.5t85.5 -290.5t-85.5 -291t-219.5 -105t-219.5 105t-85.5 291zM582 1051q0 163 -72 235l-137 -520h22q83 0 135 71t52 214zM209 1051q0 -161 70 -238l139 520q-6 2 -23 2q-83 0 -134.5 -71t-51.5 -213z" />
    <glyph glyph-name="zero.slashinferior" horiz-adv-x="790" 
d="M90 -23q0 186 85.5 291t219.5 105t219.5 -105t85.5 -291t-85.5 -290.5t-219.5 -104.5t-219.5 104.5t-85.5 290.5zM582 -23q0 164 -72 236l-137 -518q4 -2 22 -2q83 0 135 70.5t52 213.5zM209 -23q0 -165 70 -235l139 518q-6 2 -23 2q-83 0 -134.5 -71.5t-51.5 -213.5z
" />
    <glyph glyph-name="a.alt" horiz-adv-x="1228" 
d="M1065 1008v-988q0 -20 -21 -20h-118q-21 0 -21 20v89q-119 -129 -327 -129t-342 149t-134 385q0 237 134 386t342 149q108 0 184 -34t143 -97v90q0 20 21 20h118q21 0 21 -20zM922 514q0 171 -87 277t-239 106q-153 0 -239.5 -106t-86.5 -277q0 -173 86 -278t240 -105
q153 0 239.5 105.5t86.5 277.5z" />
    <glyph glyph-name="aacute.alt" horiz-adv-x="1228" 
d="M1065 1008v-988q0 -20 -21 -20h-118q-21 0 -21 20v89q-119 -129 -327 -129t-342 149t-134 385q0 237 134 386t342 149q108 0 184 -34t143 -97v90q0 20 21 20h118q21 0 21 -20zM922 514q0 171 -87 277t-239 106q-153 0 -239.5 -106t-86.5 -277q0 -173 86 -278t240 -105
q153 0 239.5 105.5t86.5 277.5zM461 1155l141 258q12 21 31 21h194q15 0 15 -11q0 -2 -4 -10l-211 -260q-13 -18 -37 -18h-119q-12 0 -12 12q0 6 2 8z" />
    <glyph glyph-name="agrave.alt" horiz-adv-x="1228" 
d="M1065 1008v-988q0 -20 -21 -20h-118q-21 0 -21 20v89q-119 -129 -327 -129t-342 149t-134 385q0 237 134 386t342 149q108 0 184 -34t143 -97v90q0 20 21 20h118q21 0 21 -20zM922 514q0 171 -87 277t-239 106q-153 0 -239.5 -106t-86.5 -277q0 -173 86 -278t240 -105
q153 0 239.5 105.5t86.5 277.5zM551 1413l141 -258q2 -2 2 -8q0 -12 -12 -12h-119q-22 0 -37 18l-211 260q-4 8 -4 10q0 11 15 11h194q19 0 31 -21z" />
    <glyph glyph-name="acircumflex.alt" horiz-adv-x="1228" 
d="M1065 1008v-988q0 -20 -21 -20h-118q-21 0 -21 20v89q-119 -129 -327 -129t-342 149t-134 385q0 237 134 386t342 149q108 0 184 -34t143 -97v90q0 20 21 20h118q21 0 21 -20zM922 514q0 171 -87 277t-239 106q-153 0 -239.5 -106t-86.5 -277q0 -173 86 -278t240 -105
q153 0 239.5 105.5t86.5 277.5zM678 1417l215 -262q6 -7 3 -13.5t-13 -6.5h-127q-19 0 -37 18l-129 129l-129 -129q-18 -18 -37 -18h-127q-10 0 -13 6.5t3 13.5l215 262q17 17 30 17h115q14 0 31 -17z" />
    <glyph glyph-name="adieresis.alt" horiz-adv-x="1228" 
d="M1065 1008v-988q0 -20 -21 -20h-118q-21 0 -21 20v89q-119 -129 -327 -129t-342 149t-134 385q0 237 134 386t342 149q108 0 184 -34t143 -97v90q0 20 21 20h118q21 0 21 -20zM922 514q0 171 -87 277t-239 106q-153 0 -239.5 -106t-86.5 -277q0 -173 86 -278t240 -105
q153 0 239.5 105.5t86.5 277.5zM319 1249v164q0 21 21 21h164q20 0 20 -21v-164q0 -20 -20 -20h-164q-21 0 -21 20zM659 1249v164q0 21 21 21h164q20 0 20 -21v-164q0 -20 -20 -20h-164q-21 0 -21 20z" />
    <glyph glyph-name="atilde.alt" horiz-adv-x="1228" 
d="M1065 1008v-988q0 -20 -21 -20h-118q-21 0 -21 20v89q-119 -129 -327 -129t-342 149t-134 385q0 237 134 386t342 149q108 0 184 -34t143 -97v90q0 20 21 20h118q21 0 21 -20zM922 514q0 171 -87 277t-239 106q-153 0 -239.5 -106t-86.5 -277q0 -173 86 -278t240 -105
q153 0 239.5 105.5t86.5 277.5zM242 1360q99 74 200 74q50 0 90.5 -13t62 -29t53 -29t67.5 -13q28 0 54.5 11.5t70.5 39.5q12 4 14 4q10 0 20 -16l58 -86q10 -17 -17 -35q-99 -74 -200 -74q-51 0 -91 13t-61 29t-52.5 29t-68.5 13q-28 0 -54.5 -11.5t-70.5 -39.5
q-12 -4 -14 -4q-10 0 -20 16l-58 86q-10 17 17 35z" />
    <glyph glyph-name="aring.alt" horiz-adv-x="1228" 
d="M1065 1008v-988q0 -20 -21 -20h-118q-21 0 -21 20v89q-119 -129 -327 -129t-342 149t-134 385q0 237 134 386t342 149q108 0 184 -34t143 -97v90q0 20 21 20h118q21 0 21 -20zM922 514q0 171 -87 277t-239 106q-153 0 -239.5 -106t-86.5 -277q0 -173 86 -278t240 -105
q153 0 239.5 105.5t86.5 277.5zM399 1303q0 75 50.5 123.5t128.5 48.5t128 -48.5t50 -123.5t-50 -124t-128 -49t-128.5 49t-50.5 124zM498 1303q0 -38 22 -60t58 -22t57.5 22t21.5 60t-21.5 59.5t-57.5 21.5t-58 -21.5t-22 -59.5z" />
    <glyph glyph-name="amacron.alt" horiz-adv-x="1228" 
d="M1065 1008v-988q0 -20 -21 -20h-118q-21 0 -21 20v89q-119 -129 -327 -129t-342 149t-134 385q0 237 134 386t342 149q108 0 184 -34t143 -97v90q0 20 21 20h118q21 0 21 -20zM922 514q0 171 -87 277t-239 106q-153 0 -239.5 -106t-86.5 -277q0 -173 86 -278t240 -105
q153 0 239.5 105.5t86.5 277.5zM373 1241v102q0 21 20 21h385q21 0 21 -21v-102q0 -20 -21 -20h-385q-20 0 -20 20z" />
    <glyph glyph-name="abreve.alt" horiz-adv-x="1228" 
d="M1065 1008v-988q0 -20 -21 -20h-118q-21 0 -21 20v89q-119 -129 -327 -129t-342 149t-134 385q0 237 134 386t342 149q108 0 184 -34t143 -97v90q0 20 21 20h118q21 0 21 -20zM922 514q0 171 -87 277t-239 106q-153 0 -239.5 -106t-86.5 -277q0 -173 86 -278t240 -105
q153 0 239.5 105.5t86.5 277.5zM338 1409h98q21 0 21 -20q0 -50 31.5 -81.5t86.5 -31.5t87 31.5t32 81.5q0 20 21 20h98q21 0 21 -20q0 -111 -72.5 -179.5t-186.5 -68.5t-186 68.5t-72 179.5q0 20 21 20z" />
    <glyph glyph-name="aogonek.alt" horiz-adv-x="1228" 
d="M1065 1008v-988q0 -17 -14 -20q-56 -13 -89.5 -51.5t-33.5 -83.5q0 -52 36.5 -82.5t102.5 -30.5h25q20 0 20 -20v-70q0 -20 -20 -20h-72q-107 0 -176.5 47t-69.5 139q0 62 38 112.5t93 77.5v91q-119 -129 -327 -129t-342 149t-134 385q0 237 134 386t342 149
q108 0 184 -34t143 -97v90q0 20 21 20h118q21 0 21 -20zM922 514q0 171 -87 277t-239 106q-153 0 -239.5 -106t-86.5 -277q0 -173 86 -278t240 -105q153 0 239.5 105.5t86.5 277.5z" />
    <glyph glyph-name="aringacute.alt" horiz-adv-x="1228" 
d="M1065 1008v-988q0 -20 -21 -20h-118q-21 0 -21 20v89q-119 -129 -327 -129t-342 149t-134 385q0 237 134 386t342 149q108 0 184 -34t143 -97v90q0 20 21 20h118q21 0 21 -20zM922 514q0 171 -87 277t-239 106q-153 0 -239.5 -106t-86.5 -277q0 -173 86 -278t240 -105
q153 0 239.5 105.5t86.5 277.5zM453 1561l141 258q11 20 31 20h194q15 0 15 -10l-5 -10l-211 -260q-14 -19 -36 -19h-119q-12 0 -12 12q0 7 2 9zM408 1303q0 75 50 123.5t128 48.5t128 -48.5t50 -123.5t-50 -124t-128 -49t-128 49t-50 124zM506 1303q0 -38 22 -60t58 -22
t58 22t22 60t-22 59.5t-58 21.5t-58 -21.5t-22 -59.5z" />
    <glyph glyph-name="g.alt" horiz-adv-x="1241" 
d="M637 350q-160 0 -258 88q-113 -52 -113 -137q0 -53 37 -82t98 -29q35 0 119.5 19.5t165.5 19.5q199 0 325 -89.5t126 -243.5q0 -153 -131.5 -237.5t-341.5 -84.5q-137 0 -244.5 36t-171.5 110t-64 176q0 98 60 170q-138 81 -138 231q0 85 51.5 145t141.5 107
q-29 73 -29 149q0 108 52 189t134.5 121.5t180.5 40.5q128 0 213 -58l137 123q8 8 17 8q6 0 16 -10l80 -86q8 -8 8 -16q0 -9 -10 -19l-133 -121q41 -74 41 -172q0 -82 -30 -149t-81.5 -110t-117.5 -66t-140 -23zM344 -104q0 -86 83.5 -128t236.5 -42q150 0 231.5 42
t81.5 128q0 182 -313 182q-56 0 -138 -17.5t-100 -19.5q-82 -63 -82 -145zM434 698q0 -94 57 -145t146 -51q90 0 147.5 50.5t57.5 145.5t-57.5 147t-147.5 52q-89 0 -146 -52t-57 -147z" />
    </font>
</defs>
</svg>
