<?xml version="1.0" standalone="no"?>
<!DOCTYPE svg PUBLIC "-//W3C//DTD SVG 1.1//EN" "http://www.w3.org/Graphics/SVG/1.1/DTD/svg11.dtd" >
<svg xmlns="http://www.w3.org/2000/svg" xmlns:xlink="http://www.w3.org/1999/xlink" version="1.1">
<metadata>
Created by FontForge 20170731 at Mon May  9 10:45:55 2022
 By Aleksey,,,
Copyright (c) 2011 by Colophon Foundry. All rights reserved. |DCNT
</metadata>
<defs>
<font id="Relative-Medium" horiz-adv-x="1269" >
  <font-face 
    font-family="Relative"
    font-weight="500"
    font-stretch="normal"
    units-per-em="2048"
    panose-1="2 0 5 6 4 0 0 2 0 4"
    ascent="1638"
    descent="-410"
    x-height="1028"
    cap-height="1434"
    bbox="-156 -528 2523 2060"
    underline-thickness="102"
    underline-position="-307"
    unicode-range="U+000D-FB02"
  />
<missing-glyph horiz-adv-x="1292" 
d="M1133 1413v-1393q0 -20 -21 -20h-932q-20 0 -20 20v1393q0 21 20 21h932q21 0 21 -21zM920 1229h-547v-1024h547v1024z" />
    <glyph glyph-name=".notdef" horiz-adv-x="1292" 
d="M1133 1413v-1393q0 -20 -21 -20h-932q-20 0 -20 20v1393q0 21 20 21h932q21 0 21 -21zM920 1229h-547v-1024h547v1024z" />
    <glyph glyph-name=".null" horiz-adv-x="0" 
 />
    <glyph glyph-name=".null" horiz-adv-x="0" 
 />
    <glyph glyph-name="nonmarkingreturn" horiz-adv-x="682" 
 />
    <glyph glyph-name="CR" unicode="&#xd;" horiz-adv-x="0" 
 />
    <glyph glyph-name="space" unicode=" " horiz-adv-x="522" 
 />
    <glyph glyph-name="exclam" unicode="!" horiz-adv-x="618" 
d="M223 1434h172q21 0 21 -21v-997q0 -21 -21 -21h-172q-20 0 -20 21v997q0 21 20 21zM207 246h205q20 0 20 -21v-205q0 -20 -20 -20h-205q-21 0 -21 20v205q0 21 21 21z" />
    <glyph glyph-name="quotedbl" unicode="&#x22;" horiz-adv-x="851" 
d="M131 971v442q0 21 21 21h159q21 0 21 -21v-442q0 -21 -21 -21h-159q-21 0 -21 21zM520 971v442q0 21 21 21h159q21 0 21 -21v-442q0 -21 -21 -21h-159q-21 0 -21 21z" />
    <glyph glyph-name="numbersign" unicode="#" horiz-adv-x="1591" 
d="M821 20l66 386h-293l-66 -386q-3 -20 -22 -20h-172q-19 0 -19 20l66 386h-229q-21 0 -21 20v164q0 20 21 20h264l37 213h-220q-20 0 -20 21v164q0 20 20 20h254l68 385q3 21 23 21h172q18 0 18 -21l-68 -385h293l68 385q3 21 22 21h172q19 0 19 -21l-68 -385h232
q20 0 20 -20v-164q0 -21 -20 -21h-267l-36 -213h221q20 0 20 -20v-164q0 -20 -20 -20h-256l-66 -386q-3 -20 -22 -20h-172q-19 0 -19 20zM666 823l-37 -213h293l36 213h-292z" />
    <glyph glyph-name="dollar" unicode="$" horiz-adv-x="1208" 
d="M96 1059q0 165 114 266.5t290 122.5v170q0 20 20 20h160q20 0 20 -20v-174q180 -28 284.5 -141.5t109.5 -260.5q0 -20 -21 -20h-172q-17 0 -20 20q-7 72 -56.5 124t-124.5 73v-422q78 -24 137.5 -47.5t119 -58t98 -74t62.5 -93.5t24 -118q0 -191 -118.5 -305t-322.5 -135
v-170q0 -21 -20 -21h-160q-20 0 -20 21v172q-193 29 -317 156.5t-124 301.5q0 21 21 21h172q20 0 20 -21q6 -102 64.5 -166t163.5 -87v469q-199 58 -301.5 150t-102.5 247zM928 414q0 62 -59 106.5t-169 83.5v-414q228 30 228 224zM309 1069q0 -69 48.5 -114.5t142.5 -80.5
v369q-89 -14 -140 -59t-51 -115z" />
    <glyph glyph-name="percent" unicode="%" horiz-adv-x="1814" 
d="M831 1067q0 -113 -52 -198.5t-133 -127t-175 -41.5t-175 41.5t-133 127t-52 198.5t52 198.5t133 127t175 41.5t175 -41.5t133 -127t52 -198.5zM666 1067q0 102 -58.5 155.5t-136.5 53.5t-136.5 -53.5t-58.5 -155.5t58.5 -155.5t136.5 -53.5t136.5 53.5t58.5 155.5z
M1704 367q0 -113 -52.5 -198.5t-133.5 -127t-175 -41.5t-175 41.5t-133 127t-52 198.5q0 86 30 156.5t81 115.5t115 69.5t134 24.5q94 0 175 -41t133.5 -126.5t52.5 -198.5zM1538 367q0 102 -58.5 155t-136.5 53t-136 -53t-58 -155t58 -155.5t136 -53.5t136.5 53.5
t58.5 155.5zM281 102l1144 1325q13 16 29 0l76 -67q13 -13 4 -29l-1145 -1325q-13 -16 -29 0l-75 68q-13 13 -4 28z" />
    <glyph glyph-name="ampersand" unicode="&#x26;" horiz-adv-x="1388" 
d="M1282 555h-166q-17 -156 -78 -281l174 -241q0 -1 3.5 -7t3.5 -12q0 -14 -17 -14h-194q-15 0 -27 18l-66 93q-146 -131 -368 -131q-198 0 -319.5 112.5t-121.5 304.5q0 259 285 437q-51 75 -79.5 142.5t-28.5 141.5q0 146 96.5 241t257.5 95q157 0 254.5 -87.5
t97.5 -215.5q0 -117 -50.5 -190.5t-154.5 -131.5l-106 -57l223 -309q29 122 29 266q0 19 20 19h332q21 0 21 -21v-152q0 -20 -21 -20zM553 172q155 0 248 96l-297 410q-94 -57 -139.5 -124.5t-45.5 -156.5q0 -101 62.5 -163t171.5 -62zM483 1120q0 -44 16.5 -84t59.5 -100
l12 -16l101 51q116 61 116 159q0 59 -43.5 95.5t-111.5 36.5q-63 0 -106.5 -38t-43.5 -104z" />
    <glyph glyph-name="quotesingle" unicode="'" horiz-adv-x="462" 
d="M131 971v442q0 21 21 21h159q21 0 21 -21v-442q0 -21 -21 -21h-159q-21 0 -21 21z" />
    <glyph glyph-name="parenleft" unicode="(" horiz-adv-x="731" 
d="M379 629v-228q0 -98 4 -164t17.5 -126t31 -99.5t55 -86.5t77 -85t108.5 -98q8 -8 8 -14q0 -9 -6 -15l-107 -125q-8 -8 -14 -8q-8 0 -14 6q-150 122 -227 222t-111.5 223.5t-34.5 308.5v350q0 185 34.5 308.5t111.5 223.5t227 222q6 6 14 6q6 0 14 -8l107 -125q6 -6 6 -14
q0 -7 -8 -15q-69 -60 -108.5 -98t-77 -85t-55 -86.5t-31 -99.5t-17.5 -126t-4 -164z" />
    <glyph glyph-name="parenright" unicode=")" horiz-adv-x="741" 
d="M362 401v228q0 98 -3.5 164t-17.5 126t-31.5 99.5t-54.5 86.5t-76.5 85t-108.5 98q-9 9 -9 15q0 7 7 14l106 125q8 8 14 8q9 0 15 -6q150 -122 227 -222.5t111 -223t34 -308.5v-350q0 -186 -34 -308.5t-111 -223t-227 -222.5q-6 -6 -15 -6q-6 0 -14 8l-106 125
q-7 7 -7 15q0 5 9 14q69 60 108.5 98t76.5 85t54.5 86.5t31.5 99.5t17.5 126t3.5 164z" />
    <glyph glyph-name="asterisk" unicode="*" horiz-adv-x="964" 
d="M109 1112l43 135q6 21 26 15l211 -70v221q0 21 21 21h143q20 0 20 -21v-221l211 70q21 6 27 -15l43 -135q9 -21 -12 -27l-211 -69l131 -178q13 -16 -6 -29l-115 -84q-16 -16 -29 4l-131 178l-131 -178q-13 -19 -28 -4l-115 84q-19 13 -6 29l131 178l-211 69q-21 6 -12 27
z" />
    <glyph glyph-name="plus" unicode="+" horiz-adv-x="1171" 
d="M686 1145v-344h344q21 0 21 -21v-159q0 -21 -21 -21h-344v-344q0 -20 -20 -20h-160q-21 0 -21 20v344h-344q-20 0 -20 21v159q0 21 20 21h344v344q0 20 21 20h160q20 0 20 -20z" />
    <glyph glyph-name="comma" unicode="," horiz-adv-x="593" 
d="M205 -111q54 0 74 18.5t20 67.5v25h-98q-21 0 -21 20v189q0 20 21 20h188q21 0 21 -20v-248q0 -81 -38.5 -127.5t-117.5 -46.5h-49q-21 0 -21 20v62q0 20 21 20z" />
    <glyph glyph-name="hyphen" unicode="-" horiz-adv-x="1052" 
d="M141 801h770q21 0 21 -21v-159q0 -21 -21 -21h-770q-20 0 -20 21v159q0 21 20 21z" />
    <glyph glyph-name="period" unicode="." horiz-adv-x="593" 
d="M201 229h188q21 0 21 -20v-189q0 -20 -21 -20h-188q-21 0 -21 20v189q0 20 21 20z" />
    <glyph glyph-name="slash" unicode="/" horiz-adv-x="987" 
d="M41 20l711 1393q9 21 28 21h183q21 0 12 -21l-711 -1393q-9 -20 -26 -20h-183q-23 0 -14 20z" />
    <glyph glyph-name="zero" unicode="0" horiz-adv-x="1273" 
d="M84 717q0 177 43.5 319t119 232.5t175 138t215.5 47.5t215.5 -47.5t175 -138t119 -232.5t43.5 -319t-43.5 -319t-119 -232.5t-175 -138t-215.5 -47.5t-215.5 47.5t-175 138t-119 232.5t-43.5 319zM297 717q0 -143 26.5 -249t73.5 -167.5t107 -91t133 -29.5t133 29.5
t107 91t73.5 167.5t26.5 249t-26 249t-73.5 167.5t-107.5 90.5t-133 29t-133 -29t-107.5 -90.5t-73.5 -167.5t-26 -249z" />
    <glyph glyph-name="one" unicode="1" horiz-adv-x="806" 
d="M418 20v1141l-258 -143q-12 -6 -21 -6q-16 0 -16 18v180q0 18 22 31l334 182q18 11 33 11h94q21 0 21 -21v-1393q0 -20 -21 -20h-168q-20 0 -20 20z" />
    <glyph glyph-name="two" unicode="2" horiz-adv-x="1243" 
d="M131 20v127q0 28 23 48l559 528q72 68 103.5 137.5t31.5 157.5q0 105 -66.5 170t-181.5 65q-116 0 -186 -68t-76 -179q-1 -18 -7 -24.5t-20 -6.5h-153q-25 0 -25 31q5 189 135.5 318.5t331.5 129.5q207 0 332 -119t125 -309q0 -138 -48 -238t-157 -200l-412 -387h639
q21 0 21 -21v-160q0 -20 -21 -20h-927q-21 0 -21 20z" />
    <glyph glyph-name="three" unicode="3" horiz-adv-x="1232" 
d="M465 686v156q0 22 22 22h107q125 0 187.5 51.5t62.5 145.5q0 91 -65.5 141.5t-172.5 50.5q-101 0 -167.5 -52t-78.5 -148q-1 -16 -7 -20.5t-19 -4.5h-154q-26 0 -26 35q12 169 144 280t308 111q189 0 313.5 -100t124.5 -267q0 -107 -40 -181t-121 -130q227 -98 227 -358
q0 -204 -139.5 -321t-364.5 -117q-209 0 -349.5 124t-152.5 330q0 35 27 35h152q26 0 28 -27q13 -126 97 -194t206 -68q127 0 207 63t80 191q0 106 -78 168t-217 62h-119q-22 6 -22 22z" />
    <glyph glyph-name="four" unicode="4" horiz-adv-x="1224" 
d="M707 20v246h-613q-20 0 -20 21v116q0 26 16 48l651 966q10 17 27 17h127q20 0 20 -21v-946h203q21 0 21 -21v-159q0 -21 -21 -21h-203v-246q0 -20 -22 -20h-166q-20 0 -20 20zM707 1036l-383 -569h383v569z" />
    <glyph glyph-name="five" unicode="5" horiz-adv-x="1245" 
d="M141 643l88 770q3 21 21 21h778q21 0 21 -21v-160q0 -20 -21 -20h-612l-51 -369q147 86 303 86q211 0 333.5 -126.5t122.5 -354.5q0 -118 -38.5 -212.5t-106.5 -154t-158 -91t-196 -31.5q-209 0 -345.5 120t-148.5 312q0 30 25 30h157q12 0 17.5 -5.5t9.5 -24.5
q23 -109 99 -170.5t186 -61.5q138 0 214 73t76 212q0 136 -74.5 210.5t-213.5 74.5q-84 0 -151.5 -26t-133.5 -83q-18 -18 -35 -18h-145q-21 0 -21 20z" />
    <glyph glyph-name="six" unicode="6" horiz-adv-x="1280" 
d="M139 653q0 203 39 357.5t110.5 251t167 144.5t214.5 48q187 0 308 -100.5t146 -268.5q0 -13 -5 -16.5t-17 -3.5h-164q-17 0 -23 20q-67 177 -245 177q-121 0 -204 -110t-106 -349q138 123 334 123q205 0 336 -126.5t131 -346.5q0 -109 -41 -200t-110.5 -150t-158 -91
t-185.5 -32q-89 0 -165.5 22.5t-144 73.5t-115 127.5t-75 191t-27.5 258.5zM387 453q0 -123 77 -198t206 -75t205.5 75t76.5 198t-76.5 197.5t-205.5 74.5q-130 0 -206.5 -75t-76.5 -197z" />
    <glyph glyph-name="seven" unicode="7" horiz-adv-x="1044" 
d="M72 1253v160q0 21 20 21h901q21 0 21 -21v-119q0 -21 -10 -51l-484 -1229q-6 -14 -22 -14h-168q-21 0 -21 16q0 3 4 15l471 1202h-692q-20 0 -20 20z" />
    <glyph glyph-name="eight" unicode="8" horiz-adv-x="1232" 
d="M176 1065q0 120 61.5 210t160 134.5t218.5 44.5t219 -44.5t160.5 -134.5t61.5 -210q0 -190 -164 -303q63 -36 106.5 -78.5t73 -112t29.5 -157.5q0 -190 -135 -312t-351 -122q-215 0 -350 122t-135 312q0 88 29.5 157.5t73 112t106.5 78.5q-164 113 -164 303zM340 416
q0 -111 75.5 -173.5t200.5 -62.5t201 62.5t76 173.5t-76 175t-201 64t-200.5 -64t-75.5 -175zM377 1057q0 -93 64.5 -149t174.5 -56t175 56t65 149q0 94 -67 147t-173 53t-172.5 -53t-66.5 -147z" />
    <glyph glyph-name="nine" unicode="9" horiz-adv-x="1280" 
d="M1141 780q0 -203 -39 -357.5t-110.5 -250.5t-167 -144t-214.5 -48q-186 0 -307.5 100.5t-146.5 267.5q0 21 22 21h164q17 0 23 -21q66 -176 245 -176q121 0 204 110t106 349q-138 -123 -334 -123q-205 0 -336 126.5t-131 346.5q0 109 41 200t110.5 150t158 91t185.5 32
q112 0 204.5 -37t166 -114.5t115 -210.5t41.5 -312zM893 981q0 122 -76.5 197t-206.5 75q-129 0 -205.5 -74.5t-76.5 -197.5t76.5 -197.5t205.5 -74.5q130 0 206.5 75t76.5 197z" />
    <glyph glyph-name="colon" unicode=":" horiz-adv-x="593" 
d="M201 229h188q21 0 21 -20v-189q0 -20 -21 -20h-188q-21 0 -21 20v189q0 20 21 20zM201 1028h188q21 0 21 -20v-189q0 -20 -21 -20h-188q-21 0 -21 20v189q0 20 21 20z" />
    <glyph glyph-name="semicolon" unicode=";" horiz-adv-x="593" 
d="M205 -111q54 0 74 18.5t20 67.5v25h-98q-21 0 -21 20v189q0 20 21 20h188q21 0 21 -20v-248q0 -81 -38.5 -127.5t-117.5 -46.5h-49q-21 0 -21 20v62q0 20 21 20zM201 1028h188q21 0 21 -20v-189q0 -20 -21 -20h-188q-21 0 -21 20v189q0 20 21 20z" />
    <glyph glyph-name="less" unicode="&#x3c;" horiz-adv-x="1058" 
d="M924 279v-181q0 -21 -21 -12l-764 401q-20 11 -20 27v172q0 16 20 27l764 401q21 9 21 -12v-180q0 -20 -21 -29l-563 -293l563 -293q21 -9 21 -28z" />
    <glyph glyph-name="equal" unicode="=" horiz-adv-x="1163" 
d="M164 924h889q20 0 20 -21v-160q0 -20 -20 -20h-889q-21 0 -21 20v160q0 21 21 21zM164 508h889q20 0 20 -21v-159q0 -21 -20 -21h-889q-21 0 -21 21v159q0 21 21 21z" />
    <glyph glyph-name="greater" unicode="&#x3e;" horiz-adv-x="1058" 
d="M135 98v181q0 19 21 28l563 293l-563 293q-21 9 -21 29v180q0 21 21 12l764 -401q20 -11 20 -27v-172q0 -16 -20 -27l-764 -401q-21 -9 -21 12z" />
    <glyph glyph-name="question" unicode="?" horiz-adv-x="1167" 
d="M141 1036q2 82 35.5 157t91 133.5t144 93t188.5 34.5q205 0 324.5 -104t119.5 -263q0 -69 -18.5 -126.5t-48.5 -97t-66.5 -74t-72.5 -67t-66 -67t-48.5 -82.5t-18.5 -106v-51q0 -21 -21 -21h-172q-20 0 -20 21v51q0 72 18.5 132.5t48.5 103t66 79t72.5 68.5t66.5 63.5
t48.5 71.5t18.5 86q0 84 -64 131t-167 47q-94 0 -164 -52t-86 -161q-3 -20 -20 -20h-168q-21 0 -21 20zM496 246h204q21 0 21 -21v-205q0 -20 -21 -20h-204q-21 0 -21 20v205q0 21 21 21z" />
    <glyph glyph-name="at" unicode="@" horiz-adv-x="1650" 
d="M1399 631q0 112 -33.5 209t-99 172t-171.5 118.5t-241 43.5q-117 0 -224 -40t-190.5 -113.5t-132.5 -187t-49 -249.5q0 -185 76 -324.5t210.5 -213t309.5 -73.5q93 0 165 14.5t105.5 29.5t99.5 51q12 6 19 10q15 9 25 -8l55 -121q7 -16 -8 -25q-207 -114 -461 -114
q-161 0 -301.5 51.5t-246 148t-166 244.5t-60.5 330q0 141 42.5 264t116.5 211.5t172.5 152t211 94.5t231.5 31q161 0 296.5 -54.5t227 -147.5t142.5 -219.5t51 -268.5q0 -230 -85.5 -349.5t-244.5 -119.5q-66 0 -123 33t-78 78q-55 -60 -118.5 -85.5t-155.5 -25.5
q-91 0 -167 38.5t-125.5 123.5t-49.5 205q0 190 115 317t284 127q127 0 213 -86l6 55q3 17 17 17h117q16 0 16 -17l-47 -430q-4 -50 -4 -71q0 -70 35 -98.5t77 -28.5q146 0 146 301zM1008 612q0 110 -44 168t-130 58q-114 0 -178 -87.5t-64 -201.5q0 -106 47.5 -162.5
t138.5 -56.5q105 0 167.5 80.5t62.5 201.5z" />
    <glyph glyph-name="A" unicode="A" horiz-adv-x="1282" 
d="M1047 20l-134 375h-546l-131 -375q-5 -12 -9.5 -16t-15.5 -4h-178q-23 0 -23 20q0 9 2 13l504 1380q8 18 13 20q3 1 8 1h208q6 0 9.5 -2t5.5 -5t4 -9q1 -3 2 -5l504 -1380q2 -4 2 -13q0 -20 -23 -20h-178q-11 0 -15 4t-9 16zM641 1167l-201 -567h402z" />
    <glyph glyph-name="B" unicode="B" horiz-adv-x="1288" 
d="M754 0h-574q-20 0 -20 20v1393q0 21 20 21h520q84 0 159.5 -24t134.5 -69t93.5 -116t34.5 -158q0 -106 -38 -173.5t-117 -125.5q217 -87 217 -350q0 -183 -117.5 -300.5t-312.5 -117.5zM373 651v-446h356q113 0 177.5 56t64.5 169q0 109 -65 165t-177 56h-356zM373 1229
v-373h342q82 0 138 48t56 138q0 89 -56 138t-138 49h-342z" />
    <glyph glyph-name="C" unicode="C" horiz-adv-x="1447" 
d="M1182 506h166q22 0 22 -21q-19 -154 -105.5 -269t-221 -175.5t-298.5 -60.5q-101 0 -194.5 27.5t-177 86.5t-145.5 144t-98 208t-36 271t36 271t98 208t145.5 144t177 86.5t194.5 27.5q250 0 423 -137t202 -369q0 -20 -22 -20h-166q-19 0 -25 20q-83 301 -412 301
q-84 0 -159.5 -32.5t-136.5 -95t-97.5 -167t-36.5 -237.5t36.5 -237.5t97.5 -167.5t136.5 -95.5t159.5 -32.5q329 0 412 301q6 21 25 21z" />
    <glyph glyph-name="D" unicode="D" horiz-adv-x="1349" 
d="M160 20v1393q0 21 20 21h420q138 0 255.5 -45t207.5 -131.5t141 -225.5t51 -315t-51 -315t-141 -225.5t-207.5 -131.5t-255.5 -45h-420q-20 0 -20 20zM575 1229h-202v-1024h202q211 0 335 127.5t124 384.5t-124 384.5t-335 127.5z" />
    <glyph glyph-name="E" unicode="E" horiz-adv-x="1196" 
d="M373 651v-446h692q20 0 20 -21v-164q0 -20 -20 -20h-885q-20 0 -20 20v1393q0 21 20 21h854q21 0 21 -21v-164q0 -20 -21 -20h-661v-373h600q20 0 20 -20v-164q0 -21 -20 -21h-600z" />
    <glyph glyph-name="F" unicode="F" horiz-adv-x="1206" 
d="M373 621v-601q0 -20 -21 -20h-172q-20 0 -20 20v1393q0 21 20 21h881q20 0 20 -21v-164q0 -20 -20 -20h-688v-404h622q21 0 21 -20v-164q0 -20 -21 -20h-622z" />
    <glyph glyph-name="G" unicode="G" horiz-adv-x="1460" 
d="M774 741h584q20 0 20 -20v-361q0 -48 -20 -77q-95 -147 -244.5 -225t-325.5 -78q-144 0 -268 46t-220 135t-151 232t-55 324q0 145 37.5 268t101.5 208t150 145t181 88t196 28q231 0 396.5 -117.5t201.5 -324.5q0 -21 -23 -21h-174q-18 0 -24 21q-75 237 -377 237
q-85 0 -164 -34.5t-142 -99.5t-101 -168t-38 -230q0 -253 127 -393t338 -140q264 0 385 183v170h-391q-20 0 -20 20v164q0 20 20 20z" />
    <glyph glyph-name="H" unicode="H" horiz-adv-x="1388" 
d="M369 645v-625q0 -20 -21 -20h-172q-20 0 -20 20v1393q0 21 20 21h172q21 0 21 -21v-563h651v563q0 21 20 21h172q21 0 21 -21v-1393q0 -20 -21 -20h-172q-20 0 -20 20v625h-651z" />
    <glyph glyph-name="I" unicode="I" horiz-adv-x="516" 
d="M152 20v1393q0 21 20 21h172q21 0 21 -21v-1393q0 -20 -21 -20h-172q-20 0 -20 20z" />
    <glyph glyph-name="J" unicode="J" horiz-adv-x="1107" 
d="M997 1413v-878q0 -278 -129 -416.5t-346 -138.5q-144 0 -251 62.5t-161.5 168t-54.5 238.5q0 20 21 20h172q20 0 20 -20q0 -126 70 -195.5t184 -69.5q132 0 197 85t65 263v881q0 21 21 21h172q20 0 20 -21z" />
    <glyph glyph-name="K" unicode="K" horiz-adv-x="1257" 
d="M373 1413v-561l522 561l5 5l5 5l4 4t4.5 3.5t4 1.5t5 1.5t5.5 0.5h213q17 0 20 -9t-8 -20l-467 -500l555 -876q7 -12 2 -20.5t-16 -8.5h-205q-11 0 -18.5 6.5t-18.5 24.5l-453 708l-159 -172v-547q0 -20 -21 -20h-172q-20 0 -20 20v1393q0 21 20 21h172q21 0 21 -21z" />
    <glyph glyph-name="L" unicode="L" horiz-adv-x="1183" 
d="M160 20v1393q0 21 20 21h172q21 0 21 -21v-1208h714q21 0 21 -21v-164q0 -20 -21 -20h-907q-20 0 -20 20z" />
    <glyph glyph-name="M" unicode="M" horiz-adv-x="1634" 
d="M1475 1413v-1393q0 -20 -21 -20h-172q-20 0 -20 20v1043l-351 -805q-9 -18 -26 -18h-135q-18 0 -27 18l-350 805v-1043q0 -20 -21 -20h-172q-20 0 -20 20v1393q0 21 20 21h223q24 0 33 -21l381 -874l381 874q9 21 33 21h223q21 0 21 -21z" />
    <glyph glyph-name="N" unicode="N" horiz-adv-x="1425" 
d="M1245 0h-186q-26 0 -33 16l-653 1049v-1045q0 -20 -21 -20h-172q-20 0 -20 20v1393q0 21 20 21h187q25 0 32 -17l654 -1048v1044q0 21 20 21h172q21 0 21 -21v-1393q0 -20 -21 -20z" />
    <glyph glyph-name="O" unicode="O" horiz-adv-x="1572" 
d="M786 -20q-107 0 -206.5 28t-188 88t-154.5 145t-104.5 207.5t-38.5 268.5t38.5 268.5t104.5 207.5t154.5 145t188 88t206.5 28t206.5 -28t188.5 -88t155 -145t104.5 -207.5t38.5 -268.5t-38.5 -268.5t-104.5 -207.5t-155 -145t-188.5 -88t-206.5 -28zM786 184
q95 0 178.5 33t149.5 97t104.5 168t38.5 235t-38.5 235t-104.5 167.5t-149.5 96.5t-178.5 33t-178.5 -33t-149.5 -96.5t-104.5 -167.5t-38.5 -235t38.5 -235t104.5 -168t149.5 -97t178.5 -33z" />
    <glyph glyph-name="P" unicode="P" horiz-adv-x="1241" 
d="M160 20v1393q0 21 20 21h512q234 0 352.5 -106t118.5 -300t-118.5 -299.5t-352.5 -105.5h-319v-603q0 -20 -21 -20h-172q-20 0 -20 20zM373 1229v-402h334q112 0 173.5 51.5t61.5 149.5t-61.5 149.5t-173.5 51.5h-334z" />
    <glyph glyph-name="Q" unicode="Q" horiz-adv-x="1572" 
d="M786 -20q-107 0 -206.5 28t-188 88t-154.5 145t-104.5 207.5t-38.5 268.5t38.5 268.5t104.5 207.5t154.5 145t188 88t206.5 28t206.5 -28t188.5 -88t155 -145t104.5 -207.5t38.5 -268.5q0 -289 -146 -479l117 -113q8 -8 8 -14q0 -7 -8 -15l-119 -123q-8 -8 -14 -8t-14 8
l-125 119q-169 -112 -392 -112zM786 184q128 0 236 60l-129 125q-8 8 -8 14t8 14l119 123q8 8 14 8t14 -8l134 -129q83 133 83 326q0 131 -38.5 235t-104.5 167.5t-149.5 96.5t-178.5 33t-178.5 -33t-149.5 -96.5t-104.5 -167.5t-38.5 -235t38.5 -235t104.5 -168t149.5 -97
t178.5 -33z" />
    <glyph glyph-name="R" unicode="R" horiz-adv-x="1259" 
d="M160 20v1393q0 21 20 21h535q203 0 316.5 -99t113.5 -286q0 -137 -74 -233.5t-190 -135.5l309 -660q9 -20 -16 -20h-189q-18 0 -29 20l-315 644h-268v-644q0 -20 -21 -20h-172q-20 0 -20 20zM373 1229v-361h350q102 0 155.5 47t53.5 134t-53.5 133.5t-155.5 46.5h-350z
" />
    <glyph glyph-name="S" unicode="S" horiz-adv-x="1208" 
d="M98 1059q0 125 69.5 216.5t180 135t244.5 43.5q116 0 212 -34t158 -91.5t97 -131t37 -155.5q0 -20 -21 -20h-172q-17 0 -20 20q-10 97 -90.5 152t-200.5 55q-127 0 -204 -46t-77 -134q0 -50 26 -89t79.5 -68t110.5 -48.5t145 -42.5q80 -21 144 -44.5t127.5 -58t105.5 -75
t68 -96.5t26 -121q0 -215 -146 -330.5t-395 -115.5q-227 0 -384 135t-157 331q0 21 21 21h172q20 0 20 -21q8 -123 94.5 -192.5t233.5 -69.5q328 0 328 230q0 79 -93 133.5t-259 95.5q-116 29 -199 62.5t-149 82.5t-99 116.5t-33 154.5z" />
    <glyph glyph-name="T" unicode="T" horiz-adv-x="1155" 
d="M39 1249v164q0 21 20 21h1037q20 0 20 -21v-164q0 -20 -20 -20h-412v-1209q0 -20 -20 -20h-172q-21 0 -21 20v1209h-412q-20 0 -20 20z" />
    <glyph glyph-name="U" unicode="U" horiz-adv-x="1310" 
d="M127 524v889q0 21 20 21h172q21 0 21 -21v-876q0 -174 84.5 -263.5t230.5 -89.5t231 89.5t85 263.5v876q0 21 20 21h172q21 0 21 -21v-889q0 -253 -146.5 -398.5t-382.5 -145.5t-382 145.5t-146 398.5z" />
    <glyph glyph-name="V" unicode="V" horiz-adv-x="1277" 
d="M1268 1413l-496 -1393q-6 -20 -22 -20h-222q-16 0 -22 20l-496 1393q-6 21 17 21h200q19 0 25 -21l387 -1155l387 1155q6 21 25 21h200q23 0 17 -21z" />
    <glyph glyph-name="W" unicode="W" horiz-adv-x="1712" 
d="M1690 1413l-318 -1393q-6 -20 -22 -20h-220q-16 0 -22 20l-252 994l-252 -994q-6 -20 -22 -20h-220q-16 0 -22 20l-317 1393q-6 21 16 21h182q22 0 25 -21l235 -1114l258 1016q6 20 25 20h184q19 0 25 -20l258 -1016l235 1114q3 21 25 21h182q23 0 17 -21z" />
    <glyph glyph-name="X" unicode="X" horiz-adv-x="1220" 
d="M303 1413l307 -471l308 471q8 14 13 17.5t15 3.5h199q9 0 13.5 -5.5t0.5 -15.5l-428 -657l481 -736q4 -10 -0.5 -15t-13.5 -5h-203q-11 0 -16 3.5t-12 16.5l-357 547l-356 -547q-7 -13 -12.5 -16.5t-16.5 -3.5h-202q-9 0 -14 5t-1 15l479 736l-426 657q-4 10 1 15.5
t14 5.5h198q11 0 16.5 -4t12.5 -17z" />
    <glyph glyph-name="Y" unicode="Y" horiz-adv-x="1118" 
d="M1112 1413l-446 -897v-496q0 -20 -21 -20h-172q-20 0 -20 20v496l-447 897q-4 10 0.5 15.5t11.5 5.5h205q16 0 23 -17l313 -657l313 657q7 17 23 17h205q7 0 11.5 -5.5t0.5 -15.5z" />
    <glyph glyph-name="Z" unicode="Z" horiz-adv-x="1241" 
d="M106 1249v164q0 21 21 21h973q20 0 20 -21v-164q0 -17 -12 -35l-791 -1009h826q20 0 20 -21v-164q0 -20 -20 -20h-1051q-20 0 -20 20v164q0 17 12 35l793 1010h-750q-21 0 -21 20z" />
    <glyph glyph-name="bracketleft" unicode="[" horiz-adv-x="837" 
d="M160 -385v1798q0 21 20 21h543q20 0 20 -21v-164q0 -20 -20 -20h-350v-1430h350q20 0 20 -20v-164q0 -21 -20 -21h-543q-20 0 -20 21z" />
    <glyph glyph-name="backslash" unicode="\" horiz-adv-x="987" 
d="M236 1413l710 -1393q9 -20 -14 -20h-182q-18 0 -27 20l-711 1393q-9 21 13 21h182q20 0 29 -21z" />
    <glyph glyph-name="bracketright" unicode="]" horiz-adv-x="837" 
d="M678 1413v-1798q0 -21 -21 -21h-542q-21 0 -21 21v164q0 20 21 20h350v1430h-350q-21 0 -21 20v164q0 21 21 21h542q21 0 21 -21z" />
    <glyph glyph-name="asciicircum" unicode="^" horiz-adv-x="1138" 
d="M250 748h-184q-10 0 -14 6t1 14l396 645q9 21 26 21h189q17 0 26 -21l395 -645q5 -8 1.5 -14t-13.5 -6h-184q-20 0 -29 20l-291 475l-290 -475q-9 -20 -29 -20z" />
    <glyph glyph-name="underscore" unicode="_" horiz-adv-x="1148" 
d="M141 0h867q20 0 20 -20v-160q0 -21 -20 -21h-867q-20 0 -20 21v160q0 20 20 20z" />
    <glyph glyph-name="grave" unicode="`" horiz-adv-x="776" 
d="M453 1413l141 -258q5 -7 2.5 -13.5t-12.5 -6.5h-152q-22 0 -37 18l-211 260q-6 7 -2.5 14t13.5 7h227q19 0 31 -21z" />
    <glyph glyph-name="a" unicode="a" horiz-adv-x="1103" 
d="M313 715h-172q-14 0 -14 12q0 13 2 21q31 132 141.5 216.5t284.5 84.5q194 0 307 -101t113 -280v-459q0 -74 8 -112.5t31 -76.5q11 -20 -15 -20h-204q-21 0 -21 20v76q-58 -58 -132 -87t-187 -29q-99 0 -182 36.5t-136 114t-53 182.5q0 110 57.5 189.5t150.5 118
t210 38.5q129 0 272 -43v37q0 99 -56 155t-163 56q-161 0 -213 -131q-7 -18 -29 -18zM774 432q-78 23 -134 33t-128 10q-96 0 -155.5 -39t-59.5 -114q0 -70 47.5 -110t138.5 -40q123 0 207 69.5t84 190.5z" />
    <glyph glyph-name="b" unicode="b" horiz-adv-x="1220" 
d="M152 20v1393q0 21 20 21h160q20 0 20 -21v-483q145 119 316 119q208 0 335 -146t127 -389t-127 -388.5t-335 -145.5q-197 0 -316 116v-76q0 -20 -20 -20h-160q-20 0 -20 20zM336 514q0 -151 81 -246.5t210 -95.5q134 0 212.5 94t78.5 248t-78.5 248t-212.5 94
q-129 0 -210 -95.5t-81 -246.5z" />
    <glyph glyph-name="c" unicode="c" horiz-adv-x="1161" 
d="M610 856q-143 0 -225 -89t-82 -253t82 -253t225 -89q93 0 163 44t99 132q7 19 29 19h166q14 0 14 -13q0 -12 -2 -20q-30 -156 -154.5 -255t-314.5 -99q-232 0 -376 149.5t-144 384.5t144 385t376 150q191 0 315.5 -99.5t153.5 -255.5q2 -8 2 -20t-14 -12h-166
q-22 0 -29 18q-29 88 -99 132t-163 44z" />
    <glyph glyph-name="d" unicode="d" horiz-adv-x="1220" 
d="M1069 1413v-1393q0 -20 -20 -20h-160q-21 0 -21 20v76q-119 -116 -315 -116q-208 0 -335.5 145.5t-127.5 388.5t127.5 389t335.5 146q170 0 315 -119v483q0 21 21 21h160q20 0 20 -21zM885 514q0 151 -81 246.5t-210 95.5q-134 0 -212.5 -94t-78.5 -248t78.5 -248
t212.5 -94q129 0 210 95.5t81 246.5z" />
    <glyph glyph-name="e" unicode="e" horiz-adv-x="1214" 
d="M612 172q106 0 173.5 36.5t105.5 117.5q9 18 29 18h174q14 0 14 -14q0 -12 -4 -21q-65 -170 -187 -249.5t-305 -79.5q-229 0 -375.5 150.5t-146.5 383.5q0 232 147 383.5t373 151.5q159 0 278.5 -74t179.5 -196t60 -271v-39q0 -20 -20 -20h-805q17 -130 99 -203.5
t210 -73.5zM610 856q-102 0 -186.5 -56.5t-112.5 -166.5h598q-26 108 -106 165.5t-193 57.5z" />
    <glyph glyph-name="f" unicode="f" horiz-adv-x="765" 
d="M725 836h-299v-816q0 -20 -20 -20h-160q-21 0 -21 20v816h-168q-20 0 -20 20v152q0 20 20 20h168v109q0 146 83 231.5t224 85.5q123 0 207 -37q11 -6 14 -13t3 -22v-149q0 -21 -15 -21q-2 0 -4 1t-5 2t-5 2q-85 45 -174 45q-127 0 -127 -158v-76h299q20 0 20 -20v-152
q0 -20 -20 -20z" />
    <glyph glyph-name="g" unicode="g" horiz-adv-x="1191" 
d="M588 -426q-181 0 -301 91.5t-137 254.5q0 21 20 21h160q17 0 20 -21q32 -153 244 -153q132 0 199 77.5t67 216.5v48q-69 -57 -139.5 -81t-167.5 -24q-205 0 -334 141.5t-129 380.5q0 240 128 381.5t335 141.5q188 0 307 -107v66q0 20 21 20h159q21 0 21 -20v-926
q0 -253 -119.5 -380.5t-353.5 -127.5zM877 526q0 150 -76 240t-211 90t-211 -90t-76 -240t76 -239.5t211 -89.5t211 89.5t76 239.5z" />
    <glyph glyph-name="h" unicode="h" horiz-adv-x="1183" 
d="M152 20v1393q0 21 20 21h160q20 0 20 -21v-508q81 73 157 108.5t175 35.5q176 0 272.5 -90.5t96.5 -272.5v-666q0 -20 -21 -20h-160q-20 0 -20 20v615q0 221 -211 221q-119 0 -204 -91.5t-85 -258.5v-486q0 -20 -20 -20h-160q-20 0 -20 20z" />
    <glyph glyph-name="i" unicode="i" horiz-adv-x="438" 
d="M119 20v988q0 20 20 20h160q20 0 20 -20v-988q0 -20 -20 -20h-160q-20 0 -20 20zM96 1208v205q0 21 21 21h205q20 0 20 -21v-205q0 -20 -20 -20h-205q-21 0 -21 20z" />
    <glyph glyph-name="j" unicode="j" horiz-adv-x="438" 
d="M119 -63v1071q0 20 20 20h160q20 0 20 -20v-1063q0 -125 -16.5 -201.5t-50.5 -153.5q-6 -16 -16 -16q-3 0 -15 4l-147 55q-17 7 -17 17q0 6 2 10q23 60 33 90.5t18.5 79.5t8.5 107zM96 1208v205q0 21 21 21h205q20 0 20 -21v-205q0 -20 -20 -20h-205q-21 0 -21 20z" />
    <glyph glyph-name="k" unicode="k" horiz-adv-x="1081" 
d="M995 997l-362 -340l411 -626q1 -2 2 -5.5t2 -5.5t1 -4q0 -16 -19 -16h-184q-22 0 -33 18l-332 498l-129 -121v-375q0 -20 -20 -20h-160q-20 0 -20 20v1393q0 21 20 21h160q20 0 20 -21v-772l391 369q18 18 33 18h211q17 0 17 -14q0 -8 -9 -17z" />
    <glyph glyph-name="l" unicode="l" horiz-adv-x="487" 
d="M143 20v1393q0 21 21 21h160q20 0 20 -21v-1393q0 -20 -20 -20h-160q-21 0 -21 20z" />
    <glyph glyph-name="m" unicode="m" horiz-adv-x="1630" 
d="M152 20v988q0 20 20 20h160q20 0 20 -20v-84q49 59 119.5 92t144.5 33q95 0 155 -32t116 -106q138 138 307 138q150 0 227.5 -85.5t77.5 -250.5v-693q0 -20 -20 -20h-160q-21 0 -21 20v644q0 103 -37 147.5t-120 44.5q-98 0 -156.5 -96t-58.5 -260v-480q0 -20 -21 -20
h-160q-20 0 -20 20v644q0 192 -166 192q-95 0 -151 -89.5t-56 -266.5v-480q0 -20 -20 -20h-160q-20 0 -20 20z" />
    <glyph glyph-name="n" unicode="n" horiz-adv-x="1167" 
d="M152 20v988q0 20 20 20h160q20 0 20 -20v-93q144 134 326 134q170 0 262 -94t92 -265v-670q0 -20 -20 -20h-160q-21 0 -21 20v611q0 225 -204 225q-116 0 -195.5 -91t-79.5 -259v-486q0 -20 -20 -20h-160q-20 0 -20 20z" />
    <glyph glyph-name="o" unicode="o" horiz-adv-x="1249" 
d="M90 514q0 235 152.5 385t382.5 150t382 -150t152 -385t-152 -384.5t-382 -149.5t-382.5 149.5t-152.5 384.5zM303 514q0 -153 90 -247.5t232 -94.5t231.5 94.5t89.5 247.5t-89.5 247.5t-231.5 94.5t-232 -94.5t-90 -247.5z" />
    <glyph glyph-name="p" unicode="p" horiz-adv-x="1220" 
d="M152 -385v1393q0 20 20 20h160q20 0 20 -20v-76q120 117 316 117q208 0 335 -146t127 -389t-127 -388.5t-335 -145.5q-172 0 -316 118v-483q0 -21 -20 -21h-160q-20 0 -20 21zM336 514q0 -151 81 -246.5t210 -95.5q134 0 212.5 94t78.5 248t-78.5 248t-212.5 94
q-129 0 -210 -95.5t-81 -246.5z" />
    <glyph glyph-name="q" unicode="q" horiz-adv-x="1220" 
d="M1069 1008v-1393q0 -21 -20 -21h-160q-21 0 -21 21v483q-144 -118 -315 -118q-208 0 -335.5 145.5t-127.5 388.5t127.5 389t335.5 146q195 0 315 -117v76q0 20 21 20h160q20 0 20 -20zM885 514q0 151 -81 246.5t-210 95.5q-134 0 -212.5 -94t-78.5 -248t78.5 -248
t212.5 -94q129 0 210 95.5t81 246.5z" />
    <glyph glyph-name="r" unicode="r" horiz-adv-x="884" 
d="M829 979v-162q0 -22 -16 -22q-2 0 -14 4q-65 32 -111 44.5t-104 12.5q-104 0 -168 -78t-64 -223v-535q0 -20 -20 -20h-160q-20 0 -20 20v988q0 20 20 20h160q20 0 20 -20v-80q111 121 271 121q103 0 182 -33q16 -6 20 -12.5t4 -24.5z" />
    <glyph glyph-name="s" unicode="s" horiz-adv-x="1024" 
d="M940 301q0 -150 -118 -235.5t-310 -85.5q-187 0 -307.5 93.5t-132.5 252.5q0 20 20 20h172q18 0 21 -20q25 -154 233 -154q209 0 209 129q0 53 -61.5 84.5t-212.5 56.5q-185 31 -270 102.5t-85 196.5q0 103 59 174.5t146.5 102.5t194.5 31q176 0 286.5 -85.5
t122.5 -222.5q0 -20 -20 -20h-174q-13 0 -19 16q-1 3 -2 4q-39 115 -205 115q-77 0 -132.5 -26t-55.5 -78q0 -59 57.5 -92t212.5 -62q88 -16 150 -36.5t115 -54t79.5 -85t26.5 -121.5z" />
    <glyph glyph-name="t" unicode="t" horiz-adv-x="860" 
d="M442 1028h326q20 0 20 -20v-152q0 -20 -20 -20h-326v-496q0 -168 154 -168q96 0 184 33q4 2 13 2q16 0 16 -19v-139q0 -11 -0.5 -16t-4 -10.5t-11.5 -8.5q-87 -34 -215 -34q-156 0 -246 84.5t-90 240.5v531h-181q-20 0 -20 20v152q0 20 20 20h181v295q0 20 20 20h160
q20 0 20 -20v-295z" />
    <glyph glyph-name="u" unicode="u" horiz-adv-x="1167" 
d="M1016 1008v-988q0 -20 -21 -20h-159q-21 0 -21 20v93q-143 -133 -326 -133q-170 0 -262 93.5t-92 264.5v670q0 20 21 20h159q21 0 21 -20v-611q0 -225 205 -225q116 0 195 91t79 259v486q0 20 21 20h159q21 0 21 -20z" />
    <glyph glyph-name="v" unicode="v" horiz-adv-x="995" 
d="M985 995l-371 -975q-9 -20 -24 -20h-184q-16 0 -25 20l-371 975q-2 6 -2 15q0 18 19 18h178q22 0 28 -20l265 -740l264 740q6 20 29 20h178q18 0 18 -18q0 -9 -2 -15z" />
    <glyph glyph-name="w" unicode="w" horiz-adv-x="1527" 
d="M1513 997l-307 -977q-6 -20 -26 -20h-185q-20 0 -26 20l-205 689l-205 -689q-6 -20 -27 -20h-184q-23 0 -26 20l-308 977q-2 6 -2 17q0 14 17 14h174q6 0 10 -0.5t6 -1t4.5 -3.5t3 -3.5t2 -5.5t2.5 -6l205 -746l211 696q7 17 13 20q4 1 10 1h188q10 0 13.5 -3t7.5 -14
q1 -3 2 -4l211 -696l204 746q1 1 2 4t1.5 4t1.5 3.5t2 3t2.5 2t3 1.5t4 1t5.5 1h7h174q17 0 17 -14q0 -8 -3 -17z" />
    <glyph glyph-name="x" unicode="x" horiz-adv-x="995" 
d="M285 1014l213 -303l213 303q8 14 28 14h191q14 0 14 -14q0 -1 -4 -13l-324 -462l361 -512q6 -9 6 -17q0 -10 -12 -10h-201q-15 0 -29 20l-243 349l-244 -349q-14 -20 -29 -20h-200q-13 0 -13 10q0 8 6 17l359 512l-322 462q-4 12 -4 13q0 14 15 14h190q21 0 29 -14z" />
    <glyph glyph-name="y" unicode="y" horiz-adv-x="991" 
d="M29 1028h188q21 0 27 -20l274 -711l230 711q4 9 5.5 12t6.5 5.5t14 2.5h182q17 0 17 -14q0 -11 -2 -15l-375 -1099q-62 -182 -150 -254t-206 -72q-107 0 -174 33q-21 12 -21 33v151q0 21 16 21q10 0 59.5 -22.5t96.5 -22.5q76 0 124.5 54t84.5 185l-410 989q-4 16 -4 17
q0 16 17 16z" />
    <glyph glyph-name="z" unicode="z" horiz-adv-x="989" 
d="M82 856v152q0 20 20 20h762q21 0 21 -20v-152q0 -24 -17 -43l-559 -620h594q21 0 21 -21v-152q0 -20 -21 -20h-827q-21 0 -21 20v152q0 14 13 31l569 633h-535q-20 0 -20 20z" />
    <glyph glyph-name="braceleft" unicode="{" horiz-adv-x="794" 
d="M467 336v-365q0 -88 32 -130t105 -42h76q20 0 20 -20v-164q0 -21 -20 -21h-96q-177 0 -253.5 90t-76.5 302v288q0 138 -125 138h-57q-21 0 -21 20v164q0 20 21 20h57q125 0 125 138v288q0 211 76.5 301.5t253.5 90.5h96q20 0 20 -21v-164q0 -20 -20 -20h-76
q-73 0 -105 -42t-32 -130v-365q0 -78 -28.5 -118t-100.5 -60q72 -20 100.5 -60t28.5 -118z" />
    <glyph glyph-name="bar" unicode="|" horiz-adv-x="516" 
d="M152 -184v1597q0 21 20 21h172q21 0 21 -21v-1597q0 -21 -21 -21h-172q-20 0 -20 21z" />
    <glyph glyph-name="braceright" unicode="}" horiz-adv-x="794" 
d="M328 -29v365q0 78 28.5 118t100.5 60q-72 20 -100.5 60t-28.5 118v365q0 88 -32 130t-106 42h-75q-21 0 -21 20v164q0 21 21 21h96q177 0 253.5 -90.5t76.5 -301.5v-288q0 -138 125 -138h57q20 0 20 -20v-164q0 -20 -20 -20h-57q-125 0 -125 -138v-288q0 -212 -76.5 -302
t-253.5 -90h-96q-21 0 -21 21v164q0 20 21 20h75q74 0 106 42t32 130z" />
    <glyph glyph-name="asciitilde" unicode="~" horiz-adv-x="1112" 
d="M106 766q44 33 117.5 53.5t126.5 20.5q80 0 149 -21t129 -42t117 -21q45 0 80 11.5t78 39.5q12 4 15 4q10 0 20 -16l84 -144q2 -2 2 -8q0 -15 -18 -27q-44 -33 -117.5 -53t-126.5 -20q-80 0 -149 21t-128.5 42t-117.5 21q-45 0 -79.5 -12t-78.5 -40q-12 -4 -14 -4
q-11 0 -21 17l-84 143q-2 2 -2 8q0 15 18 27z" />
    <glyph glyph-name="uni00A0" unicode="&#xa0;" horiz-adv-x="522" 
 />
    <glyph glyph-name="exclamdown" unicode="&#xa1;" horiz-adv-x="618" 
d="M395 -406h-172q-20 0 -20 21v997q0 21 20 21h172q21 0 21 -21v-997q0 -21 -21 -21zM412 782h-205q-21 0 -21 21v205q0 20 21 20h205q20 0 20 -20v-205q0 -21 -20 -21z" />
    <glyph glyph-name="cent" unicode="&#xa2;" horiz-adv-x="1161" 
d="M500 20v173q-188 32 -299 175t-111 349q0 205 110.5 346t299.5 178v172q0 21 20 21h160q20 0 20 -21v-168q154 -24 254 -118.5t125 -229.5q2 -8 2 -20q0 -13 -14 -13h-166q-22 0 -29 19q-46 130 -172 166v-664q126 36 172 166q7 18 29 18h166q14 0 14 -12t-2 -20
q-27 -137 -126 -231.5t-253 -117.5v-168q0 -20 -20 -20h-160q-20 0 -20 20zM299 717q0 -129 53 -213.5t148 -114.5v655q-95 -31 -148 -115t-53 -212z" />
    <glyph glyph-name="sterling" unicode="&#xa3;" horiz-adv-x="1204" 
d="M268 557q0 19 -4 51h-166q-20 0 -20 21v159q0 21 20 21h111q-37 92 -37 221q0 188 123 306t313 118q211 0 337 -119.5t126 -298.5q0 -20 -20 -20h-172q-18 0 -21 20q-13 95 -73.5 154t-176.5 59q-99 0 -161 -59t-62 -160q0 -24 2.5 -47t5 -38.5t9 -38t10 -31.5t12.5 -34
t12 -32h410q20 0 20 -21v-159q0 -21 -20 -21h-369q4 -46 4 -63q0 -179 -129 -340h738q20 0 20 -21v-164q0 -20 -20 -20h-947q-20 0 -20 20v166q0 19 16 41q72 90 100.5 158t28.5 172z" />
    <glyph glyph-name="currency" unicode="&#xa4;" horiz-adv-x="1105" 
d="M96 219l107 105q-60 97 -60 215t60 215l-107 104q-14 14 0 29l109 108q14 14 28 0l111 -112q95 53 209 53t209 -53l110 112q14 15 29 0l109 -108q14 -15 0 -29l-107 -104q60 -97 60 -215t-60 -215l107 -105q14 -15 0 -29l-109 -108q-15 -14 -29 0l-110 113
q-97 -54 -209 -54t-209 54l-111 -113q-14 -14 -28 0l-109 108q-14 14 0 29zM336 539q0 -98 59.5 -157.5t157.5 -59.5t157.5 59.5t59.5 157.5t-59.5 157.5t-157.5 59.5t-157.5 -59.5t-59.5 -157.5z" />
    <glyph glyph-name="yen" unicode="&#xa5;" horiz-adv-x="1118" 
d="M147 412h306v96h-347q-20 0 -20 20v160q0 21 20 21h250l-350 704q-4 10 0.5 15.5t11.5 5.5h205q16 0 23 -17l313 -657l313 657q7 17 23 17h205q7 0 11.5 -5.5t0.5 -15.5l-350 -704h266q21 0 21 -21v-160q0 -20 -21 -20h-362v-96h321q21 0 21 -21v-160q0 -20 -21 -20h-321
v-191q0 -20 -21 -20h-172q-20 0 -20 20v191h-306q-20 0 -20 20v160q0 21 20 21z" />
    <glyph glyph-name="brokenbar" unicode="&#xa6;" horiz-adv-x="516" 
d="M152 649v764q0 21 20 21h172q21 0 21 -21v-764q0 -20 -21 -20h-172q-20 0 -20 20zM152 -385v764q0 20 20 20h172q21 0 21 -20v-764q0 -21 -21 -21h-172q-20 0 -20 21z" />
    <glyph glyph-name="section" unicode="&#xa7;" horiz-adv-x="1030" 
d="M920 410q0 -67 -22 -115t-71 -100q58 -62 78.5 -120.5t20.5 -131.5q0 -162 -120.5 -265.5t-293.5 -103.5q-195 0 -315.5 117.5t-120.5 279.5q0 21 20 21h172q18 0 21 -21q7 -95 67 -143.5t156 -48.5q92 0 148.5 47.5t56.5 130.5q0 77 -59 133t-199 131q-87 48 -141.5 81
t-102.5 70.5t-72.5 73t-38.5 78t-14 94.5q0 67 21.5 116t70.5 100q-57 62 -77.5 120t-20.5 131q0 162 120.5 265.5t293.5 103.5q195 0 315.5 -117.5t120.5 -279.5q0 -21 -21 -21h-172q-17 0 -20 21q-7 95 -67 143.5t-156 48.5q-92 0 -148.5 -47.5t-56.5 -130.5
q0 -77 59 -133t199 -131q109 -59 171.5 -99.5t111 -88t67.5 -96.5t19 -113zM393 680l-35 20q-55 -34 -55 -86q0 -38 22 -68.5t87.5 -75.5t203.5 -122l35 -20q56 35 56 86q0 38 -22.5 68.5t-88 75.5t-203.5 122z" />
    <glyph glyph-name="dieresis" unicode="&#xa8;" horiz-adv-x="872" 
d="M143 1221v192q0 21 21 21h192q21 0 21 -21v-192q0 -21 -21 -21h-192q-21 0 -21 21zM496 1221v192q0 21 20 21h193q20 0 20 -21v-192q0 -21 -20 -21h-193q-20 0 -20 21z" />
    <glyph glyph-name="copyright" unicode="&#xa9;" horiz-adv-x="1638" 
d="M819 -20q-105 0 -207.5 30.5t-194 93t-161 149t-110 206.5t-40.5 258t40.5 258t110 206.5t161 149t194 93t207.5 30.5t207.5 -30.5t194 -93t161 -149t110 -206.5t40.5 -258t-40.5 -258t-110 -206.5t-161 -149t-194 -93t-207.5 -30.5zM819 66q92 0 180 25.5t167 79
t138.5 129t94.5 183.5t35 234t-35 234t-94.5 183.5t-138.5 129t-167 79t-180 25.5t-180 -25.5t-167 -79t-138 -129.5t-94 -183.5t-35 -233.5t35 -233.5t94 -183.5t138 -129.5t167 -79t180 -25.5zM1153 565h49q23 0 23 -20q-26 -140 -136.5 -222.5t-269.5 -82.5
q-82 0 -157.5 30.5t-137 87.5t-98.5 150.5t-37 208.5t37 208.5t98.5 150.5t137 87.5t157.5 30.5q159 0 269.5 -82.5t136.5 -222.5q0 -21 -23 -21h-49q-23 0 -29 21q-24 100 -104 159.5t-201 59.5q-137 0 -234.5 -104.5t-97.5 -286.5t97.5 -286.5t234.5 -104.5
q121 0 201 59.5t104 159.5q6 20 29 20z" />
    <glyph glyph-name="ordfeminine" unicode="&#xaa;" horiz-adv-x="946" 
d="M821 1419v-735q0 -14 -16 -14h-119q-14 0 -14 14v43q-84 -72 -230 -72q-152 0 -253 109.5t-101 288.5q0 178 101 287.5t253 109.5q138 0 230 -72v41q0 15 14 15h119q16 0 16 -15zM684 1053q0 111 -61 182.5t-160 71.5q-98 0 -157.5 -71t-59.5 -183q0 -114 59 -185
t158 -71t160 71.5t61 184.5z" />
    <glyph glyph-name="guillemotleft" unicode="&#xab;" horiz-adv-x="1126" 
d="M586 1063v-201q0 -21 -15 -33l-292 -268l292 -268q15 -12 15 -33v-201q0 -14 -13 -14q-6 0 -12 6l-455 404q-20 17 -20 37v139q0 20 20 37l455 403q6 6 12 6q13 0 13 -14zM1022 1063v-201q0 -22 -14 -33l-293 -268l293 -268q14 -11 14 -33v-201q0 -14 -12 -14q-7 0 -13 6
l-454 404q-21 18 -21 37v139q0 19 21 37l454 403q6 6 13 6q12 0 12 -14z" />
    <glyph glyph-name="logicalnot" unicode="&#xac;" horiz-adv-x="1142" 
d="M791 639h-652q-20 0 -20 20v152q0 20 20 20h832q20 0 20 -20v-430q0 -21 -20 -21h-160q-20 0 -20 21v258z" />
    <glyph glyph-name="registered" unicode="&#xae;" horiz-adv-x="1638" 
d="M819 -20q-105 0 -207.5 30.5t-194 93t-161 149t-110 206.5t-40.5 258t40.5 258t110 206.5t161 149t194 93t207.5 30.5t207.5 -30.5t194 -93t161 -149t110 -206.5t40.5 -258t-40.5 -258t-110 -206.5t-161 -149t-194 -93t-207.5 -30.5zM819 66q92 0 180 25.5t167 79
t138.5 129t94.5 183.5t35 234t-35 234t-94.5 183.5t-138.5 129t-167 79t-180 25.5t-180 -25.5t-167 -79t-138 -129.5t-94 -183.5t-35 -233.5t35 -233.5t94 -183.5t138 -129.5t167 -79t180 -25.5zM537 272v893q0 23 22 23h279q145 0 221 -70.5t76 -189.5q0 -96 -50.5 -161.5
t-138.5 -90.5l201 -404q4 -12 4 -14q0 -8 -12 -8h-58q-23 0 -32 18l-201 396h-213v-392q0 -22 -23 -22h-53q-22 0 -22 22zM635 1102v-352h217q97 0 140.5 45t43.5 133q0 174 -184 174h-217z" />
    <glyph glyph-name="macron" unicode="&#xaf;" horiz-adv-x="610" 
d="M80 1221v143q0 20 20 20h410q20 0 20 -20v-143q0 -21 -20 -21h-410q-20 0 -20 21z" />
    <glyph glyph-name="degree" unicode="&#xb0;" horiz-adv-x="921" 
d="M90 1094q0 160 105 260t266 100t265.5 -100t104.5 -260t-104.5 -260.5t-265.5 -100.5t-266 100.5t-105 260.5zM274 1094q0 -90 52.5 -141.5t134.5 -51.5t134 51.5t52 141.5t-52 141t-134 51t-134.5 -51t-52.5 -141z" />
    <glyph glyph-name="plusminus" unicode="&#xb1;" horiz-adv-x="1171" 
d="M686 1192v-344h344q21 0 21 -21v-159q0 -21 -21 -21h-344v-344q0 -20 -20 -20h-160q-21 0 -21 20v344h-344q-20 0 -20 21v159q0 21 20 21h344v344q0 20 21 20h160q20 0 20 -20zM141 201h889q21 0 21 -21v-160q0 -20 -21 -20h-889q-20 0 -20 20v160q0 21 20 21z" />
    <glyph glyph-name="twosuperior" unicode="&#xb2;" horiz-adv-x="724" 
d="M92 688v82q0 20 12 29l320 260q68 56 68 141q0 48 -32.5 77.5t-88.5 29.5q-52 0 -86.5 -32t-42.5 -81q-3 -20 -21 -20h-102q-21 0 -21 20q0 101 80 176.5t193 75.5q124 0 194 -67.5t70 -166.5q0 -81 -28 -133.5t-95 -109.5l-193 -162h312q20 0 20 -21v-98q0 -20 -20 -20
h-518q-21 0 -21 20z" />
    <glyph glyph-name="threesuperior" unicode="&#xb3;" horiz-adv-x="729" 
d="M272 1020v98q0 21 21 21h49q113 0 113 92q0 36 -26.5 60t-72.5 24q-90 0 -110 -84q-3 -17 -21 -17h-102q-21 0 -21 19q5 94 74.5 153.5t179.5 59.5q111 0 176.5 -58t65.5 -151q0 -101 -84 -158q117 -58 117 -178q0 -118 -76.5 -182t-196.5 -64q-116 0 -196 70t-80 170
q0 20 20 20h109q17 0 20 -20q14 -100 127 -100q125 0 125 100q0 48 -33 76t-92 28h-65q-21 0 -21 21z" />
    <glyph glyph-name="acute" unicode="&#xb4;" horiz-adv-x="776" 
d="M182 1155l142 258q12 21 30 21h228q10 0 13 -7t-3 -14l-211 -260q-13 -18 -37 -18h-151q-10 0 -13 6.5t2 13.5z" />
    <glyph glyph-name="mu" unicode="&#xb5;" horiz-adv-x="1167" 
d="M1016 1008v-988q0 -20 -21 -20h-159q-21 0 -21 20v93q-143 -133 -326 -133q-79 0 -153 24v-389q0 -21 -21 -21h-159q-21 0 -21 21v1393q0 20 21 20h159q21 0 21 -20v-611q0 -225 205 -225q116 0 195 91t79 259v486q0 20 21 20h159q21 0 21 -20z" />
    <glyph glyph-name="paragraph" unicode="&#xb6;" horiz-adv-x="1298" 
d="M489 1434h744q20 0 20 -21v-164q0 -20 -20 -20h-127v-1413q0 -21 -21 -21h-172q-20 0 -20 21v1413h-154v-1413q0 -21 -20 -21h-172q-21 0 -21 21v839h-37q-209 0 -324.5 106.5t-115.5 291.5q0 184 116.5 282.5t323.5 98.5z" />
    <glyph glyph-name="periodcentered" unicode="&#xb7;" horiz-adv-x="593" 
d="M201 827h188q21 0 21 -20v-189q0 -20 -21 -20h-188q-21 0 -21 20v189q0 20 21 20z" />
    <glyph glyph-name="cedilla" unicode="&#xb8;" horiz-adv-x="557" 
d="M143 -227l-41 39q-6 6 -6 14t2 12l68 219q6 21 20 21h111q25 0 16 -21l-80 -174q58 15 107 15q91 0 136.5 -40t45.5 -114q0 -89 -58 -129.5t-173 -40.5q-134 0 -207 20q-2 1 -5 2q-15 11 -16 19v80q0 20 21 20q10 0 64.5 -13t121.5 -13q48 0 68 11t20 40q0 47 -73 47
q-39 0 -113 -18q-4 -2 -12 -2q-11 0 -17 6z" />
    <glyph glyph-name="onesuperior" unicode="&#xb9;" horiz-adv-x="454" 
d="M203 688v559l-127 -69q-14 -7 -19 -7q-16 0 -16 17v117q0 12 14 20l174 100q15 9 31 9h62q20 0 20 -21v-725q0 -20 -20 -20h-99q-20 0 -20 20z" />
    <glyph glyph-name="ordmasculine" unicode="&#xba;" horiz-adv-x="946" 
d="M74 1051q0 177 112 288t285 111t285 -111t112 -288t-112 -287.5t-285 -110.5t-285 110.5t-112 287.5zM233 1051q0 -115 66 -184.5t172 -69.5t172 69.5t66 184.5q0 116 -65.5 185t-172.5 69t-172.5 -69t-65.5 -185z" />
    <glyph glyph-name="guillemotright" unicode="&#xbb;" horiz-adv-x="1126" 
d="M541 862v201q0 14 12 14q6 0 12 -6l455 -403q20 -17 20 -37v-139q0 -20 -20 -37l-455 -404q-6 -6 -12 -6q-12 0 -12 14v201q0 22 14 33l293 268l-293 268q-14 11 -14 33zM104 862v201q0 14 13 14q6 0 12 -6l455 -403q20 -17 20 -37v-139q0 -20 -20 -37l-455 -404
q-6 -6 -12 -6q-13 0 -13 14v201q0 21 15 33l293 268l-293 268q-15 12 -15 33z" />
    <glyph glyph-name="onequarter" unicode="&#xbc;" horiz-adv-x="1642" 
d="M221 102l1143 1325q13 16 29 0l75 -67q14 -14 5 -29l-1143 -1325q-13 -16 -29 0l-76 68q-13 13 -4 28zM289 688v559l-127 -69q-14 -7 -19 -7q-16 0 -16 17v117q0 12 14 20l174 100q15 9 31 9h62q20 0 20 -21v-725q0 -20 -20 -20h-99q-20 0 -20 20zM1237 20v109h-334
q-20 0 -20 21v86q0 13 8 24l352 492q8 14 23 14h90q20 0 20 -21v-477h101q20 0 20 -20v-98q0 -21 -20 -21h-101v-109q0 -20 -20 -20h-99q-20 0 -20 20zM1237 522l-182 -254h182v254z" />
    <glyph glyph-name="onehalf" unicode="&#xbd;" horiz-adv-x="1789" 
d="M221 102l1143 1325q13 16 29 0l75 -67q14 -14 5 -29l-1143 -1325q-13 -16 -29 0l-76 68q-13 13 -4 28zM289 688v559l-127 -69q-14 -7 -19 -7q-16 0 -16 17v117q0 12 14 20l174 100q15 9 31 9h62q20 0 20 -21v-725q0 -20 -20 -20h-99q-20 0 -20 20zM1096 20v82q0 20 12 29
l319 260q68 56 68 141q0 48 -32.5 77.5t-88.5 29.5q-52 0 -86.5 -32t-42.5 -81q-3 -20 -20 -20h-103q-20 0 -20 20q0 101 79.5 176.5t192.5 75.5q124 0 194 -67t70 -166q0 -82 -28 -134.5t-94 -109.5l-193 -162h311q21 0 21 -20v-99q0 -20 -21 -20h-518q-20 0 -20 20z" />
    <glyph glyph-name="threequarters" unicode="&#xbe;" horiz-adv-x="1679" 
d="M287 102l1143 1325q12 16 28 0l76 -67q13 -13 4 -29l-1143 -1325q-12 -16 -28 0l-76 68q-13 13 -4 28zM1303 20v109h-334q-21 0 -21 21v86q0 13 8 24l353 492q8 14 22 14h90q21 0 21 -21v-477h100q21 0 21 -20v-98q0 -21 -21 -21h-100v-109q0 -20 -21 -20h-98
q-20 0 -20 20zM1303 522l-183 -254h183v254zM291 1020v98q0 21 20 21h49q113 0 113 92q0 37 -26 60.5t-72 23.5q-91 0 -111 -84q-3 -17 -20 -17h-103q-20 0 -20 19q5 94 74.5 153.5t179.5 59.5q111 0 176 -57.5t65 -151.5q0 -101 -84 -158q117 -58 117 -178
q0 -118 -76.5 -182t-195.5 -64q-117 0 -197 70t-80 170q0 20 21 20h108q18 0 21 -20q14 -100 127 -100q125 0 125 100q0 48 -33 76t-92 28h-66q-20 0 -20 21z" />
    <glyph glyph-name="questiondown" unicode="&#xbf;" horiz-adv-x="1167" 
d="M1026 -8q-2 -82 -35.5 -157t-91 -133.5t-144 -93t-188.5 -34.5q-205 0 -324.5 104t-119.5 263q0 69 19 126.5t48.5 97t66 74t73 67t66 67t48.5 82.5t19 106v51q0 21 20 21h172q21 0 21 -21v-51q0 -72 -19 -132.5t-48.5 -103t-66 -79t-73 -68.5t-66 -63.5t-48.5 -71.5
t-19 -86q0 -84 64 -131t167 -47q94 0 164 52t86 161q3 20 21 20h168q20 0 20 -20zM672 782h-205q-21 0 -21 21v205q0 20 21 20h205q20 0 20 -20v-205q0 -21 -20 -21z" />
    <glyph glyph-name="Agrave" unicode="&#xc0;" horiz-adv-x="1282" 
d="M1047 20l-134 375h-546l-131 -375q-5 -12 -9.5 -16t-15.5 -4h-178q-23 0 -23 20q0 9 2 13l504 1380q8 18 13 20q3 1 8 1h208q6 0 9.5 -2t5.5 -5t4 -9q1 -3 2 -5l504 -1380q2 -4 2 -13q0 -20 -23 -20h-178q-11 0 -15 4t-9 16zM641 1167l-201 -567h402zM598 1819l141 -258
q5 -7 2.5 -14t-12.5 -7h-151q-21 0 -37 19l-211 260q-6 7 -3 13.5t13 6.5h227q20 0 31 -20z" />
    <glyph glyph-name="Aacute" unicode="&#xc1;" horiz-adv-x="1282" 
d="M1047 20l-134 375h-546l-131 -375q-5 -12 -9.5 -16t-15.5 -4h-178q-23 0 -23 20q0 9 2 13l504 1380q8 18 13 20q3 1 8 1h208q6 0 9.5 -2t5.5 -5t4 -9q1 -3 2 -5l504 -1380q2 -4 2 -13q0 -20 -23 -20h-178q-11 0 -15 4t-9 16zM641 1167l-201 -567h402zM518 1561l141 258
q11 20 31 20h228q10 0 13 -6.5t-3 -13.5l-211 -260q-14 -19 -37 -19h-152q-10 0 -12.5 7t2.5 14z" />
    <glyph glyph-name="Acircumflex" unicode="&#xc2;" horiz-adv-x="1282" 
d="M1047 20l-134 375h-546l-131 -375q-5 -12 -9.5 -16t-15.5 -4h-178q-23 0 -23 20q0 9 2 13l504 1380q8 18 13 20q3 1 8 1h208q6 0 9.5 -2t5.5 -5t4 -9q1 -3 2 -5l504 -1380q2 -4 2 -13q0 -20 -23 -20h-178q-11 0 -15 4t-9 16zM641 1167l-201 -567h402zM741 1823l215 -275
q6 -8 3 -14t-13 -6h-160q-18 0 -36 18l-109 109l-109 -109q-18 -18 -36 -18h-160q-10 0 -13 6t3 14l215 275q16 16 30 16h140q14 0 30 -16z" />
    <glyph glyph-name="Atilde" unicode="&#xc3;" horiz-adv-x="1282" 
d="M1047 20l-134 375h-546l-131 -375q-5 -12 -9.5 -16t-15.5 -4h-178q-23 0 -23 20q0 9 2 13l504 1380q8 18 13 20q3 1 8 1h208q6 0 9.5 -2t5.5 -5t4 -9q1 -3 2 -5l504 -1380q2 -4 2 -13q0 -20 -23 -20h-178q-11 0 -15 4t-9 16zM641 1167l-201 -567h402zM279 1769
q48 39 109.5 65t107.5 26q53 0 95 -13t64 -29t54 -29t69 -13q33 0 59.5 10t67.5 39q12 4 15 4q10 0 20 -17l72 -102q6 -10 6 -16q0 -12 -12 -21q-48 -39 -109.5 -64.5t-108.5 -25.5q-54 0 -96 13t-64 29t-54 29t-68 13q-33 0 -59.5 -10t-67.5 -39q-12 -4 -14 -4
q-11 0 -21 16l-72 103q-6 10 -6 16q0 10 13 20z" />
    <glyph glyph-name="Adieresis" unicode="&#xc4;" horiz-adv-x="1282" 
d="M1047 20l-134 375h-546l-131 -375q-5 -12 -9.5 -16t-15.5 -4h-178q-23 0 -23 20q0 9 2 13l504 1380q8 18 13 20q3 1 8 1h208q6 0 9.5 -2t5.5 -5t4 -9q1 -3 2 -5l504 -1380q2 -4 2 -13q0 -20 -23 -20h-178q-11 0 -15 4t-9 16zM641 1167l-201 -567h402zM348 1626v193
q0 20 21 20h192q21 0 21 -20v-193q0 -20 -21 -20h-192q-21 0 -21 20zM700 1626v193q0 20 21 20h192q21 0 21 -20v-193q0 -20 -21 -20h-192q-21 0 -21 20z" />
    <glyph glyph-name="Aring" unicode="&#xc5;" horiz-adv-x="1282" 
d="M1047 20l-134 375h-546l-131 -375q-5 -12 -9.5 -16t-15.5 -4h-178q-23 0 -23 20q0 9 2 13l504 1380q8 18 13 20q3 1 8 1h208q6 0 9.5 -2t5.5 -5t4 -9q1 -3 2 -5l504 -1380q2 -4 2 -13q0 -20 -23 -20h-178q-11 0 -15 4t-9 16zM641 1167l-201 -567h402zM446 1692
q0 84 54 136t141 52t141 -52t54 -136t-54 -136.5t-141 -52.5t-141 52.5t-54 136.5zM565 1692q0 -36 21.5 -57t54.5 -21t54.5 21t21.5 57t-21.5 56.5t-54.5 20.5t-54.5 -20.5t-21.5 -56.5z" />
    <glyph glyph-name="AE" unicode="&#xc6;" horiz-adv-x="1800" 
d="M977 651v-446h692q21 0 21 -21v-164q0 -20 -21 -20h-885q-20 0 -20 20v375h-379l-149 -375q-5 -12 -9.5 -16t-15.5 -4h-178q-23 0 -23 20q0 9 2 13l557 1380q9 21 25 21h1044q21 0 21 -21v-164q0 -20 -21 -20h-661v-373h600q20 0 20 -20v-164q0 -21 -20 -21h-600z
M717 1229l-250 -629h297v629h-47z" />
    <glyph glyph-name="Ccedilla" unicode="&#xc7;" horiz-adv-x="1447" 
d="M621 -227l-41 39q-7 7 -7 14q0 8 2 12l48 154q-109 19 -202.5 72.5t-167.5 141t-116.5 219t-42.5 292.5q0 148 36 271t98 208t145.5 144t177 86.5t194.5 27.5q250 0 423 -137t202 -369q0 -20 -22 -20h-166q-19 0 -25 20q-83 301 -412 301q-84 0 -159.5 -32.5t-136.5 -95
t-97.5 -167t-36.5 -237.5t36.5 -237.5t97.5 -167.5t136.5 -95.5t159.5 -32.5q329 0 412 301q6 21 25 21h166q22 0 22 -21q-29 -231 -198 -365.5t-418 -139.5l-43 -97q58 15 106 15q91 0 136.5 -40t45.5 -114q0 -89 -58 -129.5t-173 -40.5q-134 0 -207 20q-1 1 -4 2
q-15 11 -16 19v80q0 20 20 20q10 0 65 -13t122 -13q48 0 68 11t20 40q0 47 -74 47q-43 0 -113 -18q-4 -2 -12 -2q-10 0 -16 6z" />
    <glyph glyph-name="Egrave" unicode="&#xc8;" horiz-adv-x="1196" 
d="M373 651v-446h692q20 0 20 -21v-164q0 -20 -20 -20h-885q-20 0 -20 20v1393q0 21 20 21h854q21 0 21 -21v-164q0 -20 -21 -20h-661v-373h600q20 0 20 -20v-164q0 -21 -20 -21h-600zM610 1819l142 -258q5 -7 2 -14t-13 -7h-151q-21 0 -37 19l-211 260q-6 7 -3 13.5t13 6.5
h228q19 0 30 -20z" />
    <glyph glyph-name="Eacute" unicode="&#xc9;" horiz-adv-x="1196" 
d="M373 651v-446h692q20 0 20 -21v-164q0 -20 -20 -20h-885q-20 0 -20 20v1393q0 21 20 21h854q21 0 21 -21v-164q0 -20 -21 -20h-661v-373h600q20 0 20 -20v-164q0 -21 -20 -21h-600zM457 1561l141 258q11 20 31 20h227q10 0 13 -6.5t-3 -13.5l-211 -260q-14 -19 -37 -19
h-151q-10 0 -12.5 7t2.5 14z" />
    <glyph glyph-name="Ecircumflex" unicode="&#xca;" horiz-adv-x="1196" 
d="M373 651v-446h692q20 0 20 -21v-164q0 -20 -20 -20h-885q-20 0 -20 20v1393q0 21 20 21h854q21 0 21 -21v-164q0 -20 -21 -20h-661v-373h600q20 0 20 -20v-164q0 -21 -20 -21h-600zM711 1823l215 -275q6 -8 2.5 -14t-13.5 -6h-159q-19 0 -37 18l-109 109l-108 -109
q-18 -18 -37 -18h-160q-10 0 -13 6t3 14l215 275q16 16 31 16h139q15 0 31 -16z" />
    <glyph glyph-name="Edieresis" unicode="&#xcb;" horiz-adv-x="1196" 
d="M373 651v-446h692q20 0 20 -21v-164q0 -20 -20 -20h-885q-20 0 -20 20v1393q0 21 20 21h854q21 0 21 -21v-164q0 -20 -21 -20h-661v-373h600q20 0 20 -20v-164q0 -21 -20 -21h-600zM315 1626v193q0 20 21 20h192q21 0 21 -20v-193q0 -20 -21 -20h-192q-21 0 -21 20z
M668 1626v193q0 20 20 20h193q20 0 20 -20v-193q0 -20 -20 -20h-193q-20 0 -20 20z" />
    <glyph glyph-name="Igrave" unicode="&#xcc;" horiz-adv-x="516" 
d="M152 20v1393q0 21 20 21h172q21 0 21 -21v-1393q0 -20 -21 -20h-172q-20 0 -20 20zM238 1819l141 -258q5 -7 2.5 -14t-12.5 -7h-152q-21 0 -37 19l-211 260q-6 7 -2.5 13.5t13.5 6.5h227q20 0 31 -20z" />
    <glyph glyph-name="Iacute" unicode="&#xcd;" horiz-adv-x="516" 
d="M152 20v1393q0 21 20 21h172q21 0 21 -21v-1393q0 -20 -21 -20h-172q-20 0 -20 20zM139 1561l142 258q11 20 30 20h228q10 0 13 -6.5t-3 -13.5l-211 -260q-14 -19 -37 -19h-151q-10 0 -13 7t2 14z" />
    <glyph glyph-name="Icircumflex" unicode="&#xce;" horiz-adv-x="516" 
d="M152 20v1393q0 21 20 21h172q21 0 21 -21v-1393q0 -20 -21 -20h-172q-20 0 -20 20zM358 1823l215 -275q6 -8 3 -14t-13 -6h-160q-18 0 -36 18l-109 109l-108 -109q-18 -18 -37 -18h-160q-10 0 -13 6t3 14l215 275q16 16 30 16h140q14 0 30 -16z" />
    <glyph glyph-name="Idieresis" unicode="&#xcf;" horiz-adv-x="516" 
d="M152 20v1393q0 21 20 21h172q21 0 21 -21v-1393q0 -20 -21 -20h-172q-20 0 -20 20zM-35 1626v193q0 20 21 20h192q21 0 21 -20v-193q0 -20 -21 -20h-192q-21 0 -21 20zM317 1626v193q0 20 21 20h192q21 0 21 -20v-193q0 -20 -21 -20h-192q-21 0 -21 20z" />
    <glyph glyph-name="Eth" unicode="&#xd0;" horiz-adv-x="1386" 
d="M197 20v596h-154q-20 0 -20 21v160q0 20 20 20h154v596q0 21 20 21h420q138 0 255.5 -45t207.5 -131.5t141 -225.5t51 -315t-51 -315t-141 -225.5t-207.5 -131.5t-255.5 -45h-420q-20 0 -20 20zM612 1229h-202v-412h297q20 0 20 -20v-160q0 -21 -20 -21h-297v-411h202
q211 0 335 127.5t124 384.5t-124 384.5t-335 127.5z" />
    <glyph glyph-name="Ntilde" unicode="&#xd1;" horiz-adv-x="1425" 
d="M1245 0h-186q-26 0 -33 16l-653 1049v-1045q0 -20 -21 -20h-172q-20 0 -20 20v1393q0 21 20 21h187q25 0 32 -17l654 -1048v1044q0 21 20 21h172q21 0 21 -21v-1393q0 -20 -21 -20zM356 1769q48 39 109.5 65t107.5 26q53 0 95 -13t64.5 -29t54.5 -29t69 -13q33 0 59.5 10
t67.5 39q12 4 14 4q11 0 21 -17l72 -102q6 -10 6 -16q0 -11 -13 -21q-48 -39 -109 -64.5t-108 -25.5q-54 0 -96 13t-64 29t-54 29t-68 13q-33 0 -59.5 -10t-67.5 -39q-12 -4 -15 -4q-10 0 -20 16l-72 103q-6 10 -6 16q0 11 12 20z" />
    <glyph glyph-name="Ograve" unicode="&#xd2;" horiz-adv-x="1572" 
d="M786 -20q-107 0 -206.5 28t-188 88t-154.5 145t-104.5 207.5t-38.5 268.5t38.5 268.5t104.5 207.5t154.5 145t188 88t206.5 28t206.5 -28t188.5 -88t155 -145t104.5 -207.5t38.5 -268.5t-38.5 -268.5t-104.5 -207.5t-155 -145t-188.5 -88t-206.5 -28zM786 184
q95 0 178.5 33t149.5 97t104.5 168t38.5 235t-38.5 235t-104.5 167.5t-149.5 96.5t-178.5 33t-178.5 -33t-149.5 -96.5t-104.5 -167.5t-38.5 -235t38.5 -235t104.5 -168t149.5 -97t178.5 -33zM778 1819l142 -258q5 -7 2 -14t-13 -7h-151q-21 0 -37 19l-211 260q-6 7 -3 13.5
t13 6.5h228q19 0 30 -20z" />
    <glyph glyph-name="Oacute" unicode="&#xd3;" horiz-adv-x="1572" 
d="M786 -20q-107 0 -206.5 28t-188 88t-154.5 145t-104.5 207.5t-38.5 268.5t38.5 268.5t104.5 207.5t154.5 145t188 88t206.5 28t206.5 -28t188.5 -88t155 -145t104.5 -207.5t38.5 -268.5t-38.5 -268.5t-104.5 -207.5t-155 -145t-188.5 -88t-206.5 -28zM786 184
q95 0 178.5 33t149.5 97t104.5 168t38.5 235t-38.5 235t-104.5 167.5t-149.5 96.5t-178.5 33t-178.5 -33t-149.5 -96.5t-104.5 -167.5t-38.5 -235t38.5 -235t104.5 -168t149.5 -97t178.5 -33zM625 1561l141 258q11 20 31 20h227q10 0 13 -6.5t-3 -13.5l-211 -260
q-14 -19 -37 -19h-151q-10 0 -12.5 7t2.5 14z" />
    <glyph glyph-name="Ocircumflex" unicode="&#xd4;" horiz-adv-x="1572" 
d="M786 -20q-107 0 -206.5 28t-188 88t-154.5 145t-104.5 207.5t-38.5 268.5t38.5 268.5t104.5 207.5t154.5 145t188 88t206.5 28t206.5 -28t188.5 -88t155 -145t104.5 -207.5t38.5 -268.5t-38.5 -268.5t-104.5 -207.5t-155 -145t-188.5 -88t-206.5 -28zM786 184
q95 0 178.5 33t149.5 97t104.5 168t38.5 235t-38.5 235t-104.5 167.5t-149.5 96.5t-178.5 33t-178.5 -33t-149.5 -96.5t-104.5 -167.5t-38.5 -235t38.5 -235t104.5 -168t149.5 -97t178.5 -33zM887 1823l215 -275q6 -8 3 -14t-13 -6h-160q-19 0 -37 18l-109 109l-108 -109
q-18 -18 -37 -18h-160q-10 0 -13 6t3 14l215 275q16 16 31 16h139q15 0 31 -16z" />
    <glyph glyph-name="Otilde" unicode="&#xd5;" horiz-adv-x="1572" 
d="M786 -20q-107 0 -206.5 28t-188 88t-154.5 145t-104.5 207.5t-38.5 268.5t38.5 268.5t104.5 207.5t154.5 145t188 88t206.5 28t206.5 -28t188.5 -88t155 -145t104.5 -207.5t38.5 -268.5t-38.5 -268.5t-104.5 -207.5t-155 -145t-188.5 -88t-206.5 -28zM786 184
q95 0 178.5 33t149.5 97t104.5 168t38.5 235t-38.5 235t-104.5 167.5t-149.5 96.5t-178.5 33t-178.5 -33t-149.5 -96.5t-104.5 -167.5t-38.5 -235t38.5 -235t104.5 -168t149.5 -97t178.5 -33zM424 1769q48 39 109.5 65t107.5 26q53 0 95 -13t64.5 -29t54.5 -29t69 -13
q33 0 59.5 10t67.5 39q12 4 14 4q10 0 20 -17l72 -102q6 -10 6 -16q0 -12 -12 -21q-48 -39 -109 -64.5t-108 -25.5q-54 0 -96.5 13t-64.5 29t-54 29t-68 13q-33 0 -59.5 -10t-67.5 -39q-12 -4 -14 -4q-11 0 -21 16l-71 103q-6 10 -6 16q0 11 12 20z" />
    <glyph glyph-name="Odieresis" unicode="&#xd6;" horiz-adv-x="1572" 
d="M786 -20q-107 0 -206.5 28t-188 88t-154.5 145t-104.5 207.5t-38.5 268.5t38.5 268.5t104.5 207.5t154.5 145t188 88t206.5 28t206.5 -28t188.5 -88t155 -145t104.5 -207.5t38.5 -268.5t-38.5 -268.5t-104.5 -207.5t-155 -145t-188.5 -88t-206.5 -28zM786 184
q95 0 178.5 33t149.5 97t104.5 168t38.5 235t-38.5 235t-104.5 167.5t-149.5 96.5t-178.5 33t-178.5 -33t-149.5 -96.5t-104.5 -167.5t-38.5 -235t38.5 -235t104.5 -168t149.5 -97t178.5 -33zM494 1626v193q0 20 20 20h193q20 0 20 -20v-193q0 -20 -20 -20h-193
q-20 0 -20 20zM846 1626v193q0 20 20 20h193q20 0 20 -20v-193q0 -20 -20 -20h-193q-20 0 -20 20z" />
    <glyph glyph-name="multiply" unicode="&#xd7;" horiz-adv-x="1036" 
d="M903 944l-244 -244l244 -243q8 -8 8 -15q0 -6 -8 -14l-112 -113q-8 -8 -15 -8q-6 0 -14 8l-244 244l-244 -244q-8 -8 -14 -8t-14 8l-113 113q-8 8 -8 14q0 7 8 15l244 243l-244 244q-8 8 -8 14q0 7 8 15l113 112q9 9 14 9t14 -9l244 -243l244 243q9 9 14 9q6 0 15 -9
l112 -112q8 -8 8 -15q0 -6 -8 -14z" />
    <glyph glyph-name="Oslash" unicode="&#xd8;" horiz-adv-x="1572" 
d="M786 -20q-173 0 -317 69l-82 -137q-9 -12 -16 -12q-1 0 -13 4l-73 43q-13 10 -13 16l4 12l84 142q-266 207 -266 600q0 146 38.5 268.5t104.5 207.5t154.5 145t188 88t206.5 28q172 0 318 -70l82 138q9 12 16 12q1 0 2.5 -0.5l4.5 -1.5t5 -2l74 -43q12 -9 12 -17l-4 -12
l-84 -141q267 -208 267 -600q0 -146 -38.5 -268.5t-104.5 -207.5t-155 -145t-188.5 -88t-206.5 -28zM315 717q0 -273 154 -414l528 901q-89 45 -211 45q-95 0 -178.5 -33t-149.5 -96.5t-104.5 -167.5t-38.5 -235zM786 184q95 0 178.5 33t149.5 97t104.5 168t38.5 235
q0 273 -153 413l-529 -901q89 -45 211 -45z" />
    <glyph glyph-name="Ugrave" unicode="&#xd9;" horiz-adv-x="1310" 
d="M127 524v889q0 21 20 21h172q21 0 21 -21v-876q0 -174 84.5 -263.5t230.5 -89.5t231 89.5t85 263.5v876q0 21 20 21h172q21 0 21 -21v-889q0 -253 -146.5 -398.5t-382.5 -145.5t-382 145.5t-146 398.5zM647 1819l141 -258q5 -7 2.5 -14t-12.5 -7h-151q-21 0 -37 19
l-211 260q-6 7 -3 13.5t13 6.5h227q20 0 31 -20z" />
    <glyph glyph-name="Uacute" unicode="&#xda;" horiz-adv-x="1310" 
d="M127 524v889q0 21 20 21h172q21 0 21 -21v-876q0 -174 84.5 -263.5t230.5 -89.5t231 89.5t85 263.5v876q0 21 20 21h172q21 0 21 -21v-889q0 -253 -146.5 -398.5t-382.5 -145.5t-382 145.5t-146 398.5zM512 1561l141 258q11 20 31 20h227q10 0 13.5 -6.5t-2.5 -13.5
l-211 -260q-14 -19 -37 -19h-152q-10 0 -12.5 7t2.5 14z" />
    <glyph glyph-name="Ucircumflex" unicode="&#xdb;" horiz-adv-x="1310" 
d="M127 524v889q0 21 20 21h172q21 0 21 -21v-876q0 -174 84.5 -263.5t230.5 -89.5t231 89.5t85 263.5v876q0 21 20 21h172q21 0 21 -21v-889q0 -253 -146.5 -398.5t-382.5 -145.5t-382 145.5t-146 398.5zM756 1823l215 -275q6 -8 3 -14t-13 -6h-160q-19 0 -37 18l-109 109
l-108 -109q-18 -18 -37 -18h-160q-10 0 -13 6t3 14l215 275q16 16 31 16h139q15 0 31 -16z" />
    <glyph glyph-name="Udieresis" unicode="&#xdc;" horiz-adv-x="1310" 
d="M127 524v889q0 21 20 21h172q21 0 21 -21v-876q0 -174 84.5 -263.5t230.5 -89.5t231 89.5t85 263.5v876q0 21 20 21h172q21 0 21 -21v-889q0 -253 -146.5 -398.5t-382.5 -145.5t-382 145.5t-146 398.5zM362 1626v193q0 20 21 20h192q21 0 21 -20v-193q0 -20 -21 -20h-192
q-21 0 -21 20zM715 1626v193q0 20 20 20h193q20 0 20 -20v-193q0 -20 -20 -20h-193q-20 0 -20 20z" />
    <glyph glyph-name="Yacute" unicode="&#xdd;" horiz-adv-x="1118" 
d="M1112 1413l-446 -897v-496q0 -20 -21 -20h-172q-20 0 -20 20v496l-447 897q-4 10 0.5 15.5t11.5 5.5h205q16 0 23 -17l313 -657l313 657q7 17 23 17h205q7 0 11.5 -5.5t0.5 -15.5zM428 1561l141 258q11 20 31 20h227q10 0 13.5 -6.5t-2.5 -13.5l-211 -260
q-14 -19 -37 -19h-152q-10 0 -12.5 7t2.5 14z" />
    <glyph glyph-name="Thorn" unicode="&#xde;" horiz-adv-x="1241" 
d="M160 20v1393q0 21 20 21h172q21 0 21 -21v-291h327q233 0 348 -105t115 -300t-115 -300.5t-348 -105.5h-327v-291q0 -20 -21 -20h-172q-20 0 -20 20zM373 918v-402h334q112 0 173.5 51.5t61.5 149.5t-61.5 149.5t-173.5 51.5h-334z" />
    <glyph glyph-name="germandbls" unicode="&#xdf;" horiz-adv-x="1277" 
d="M834 -20q-165 0 -266.5 98t-106.5 241q0 21 20 21h156q3 0 5.5 -0.5t4.5 -1.5t3.5 -3.5t2 -4t2 -5.5t2.5 -6q35 -147 177 -147q78 0 119.5 40.5t41.5 119.5q0 45 -20.5 80.5t-53 59t-72 44.5t-79 43.5t-72 49t-53 68.5t-20.5 95q0 47 19 84.5t46 63t54 49t46 54.5t19 69
q0 79 -50 124.5t-141 45.5q-101 0 -158 -64t-57 -190v-988q0 -20 -20 -20h-160q-20 0 -20 20v816h-146q-20 0 -20 20v152q0 20 20 20h146v27q0 183 112.5 291t296.5 108q178 0 288 -96t110 -248q0 -64 -19 -113t-46 -78t-54.5 -51.5t-46.5 -46t-19 -49.5q0 -23 21 -44
t54.5 -39.5t73.5 -39t80.5 -48t74 -61t54.5 -83t21 -109.5q0 -170 -104 -269t-266 -99z" />
    <glyph glyph-name="agrave" unicode="&#xe0;" horiz-adv-x="1103" 
d="M313 715h-172q-14 0 -14 12q0 13 2 21q31 132 141.5 216.5t284.5 84.5q194 0 307 -101t113 -280v-459q0 -74 8 -112.5t31 -76.5q11 -20 -15 -20h-204q-21 0 -21 20v76q-58 -58 -132 -87t-187 -29q-99 0 -182 36.5t-136 114t-53 182.5q0 110 57.5 189.5t150.5 118
t210 38.5q129 0 272 -43v37q0 99 -56 155t-163 56q-161 0 -213 -131q-7 -18 -29 -18zM774 432q-78 23 -134 33t-128 10q-96 0 -155.5 -39t-59.5 -114q0 -70 47.5 -110t138.5 -40q123 0 207 69.5t84 190.5zM535 1413l141 -258q5 -7 2.5 -13.5t-12.5 -6.5h-152q-22 0 -37 18
l-211 260q-6 7 -3 14t13 7h228q19 0 31 -21z" />
    <glyph glyph-name="aacute" unicode="&#xe1;" horiz-adv-x="1103" 
d="M313 715h-172q-14 0 -14 12q0 13 2 21q31 132 141.5 216.5t284.5 84.5q194 0 307 -101t113 -280v-459q0 -74 8 -112.5t31 -76.5q11 -20 -15 -20h-204q-21 0 -21 20v76q-58 -58 -132 -87t-187 -29q-99 0 -182 36.5t-136 114t-53 182.5q0 110 57.5 189.5t150.5 118
t210 38.5q129 0 272 -43v37q0 99 -56 155t-163 56q-161 0 -213 -131q-7 -18 -29 -18zM774 432q-78 23 -134 33t-128 10q-96 0 -155.5 -39t-59.5 -114q0 -70 47.5 -110t138.5 -40q123 0 207 69.5t84 190.5zM408 1155l141 258q12 21 31 21h227q10 0 13 -7t-3 -14l-211 -260
q-13 -18 -37 -18h-151q-10 0 -12.5 6.5t2.5 13.5z" />
    <glyph glyph-name="acircumflex" unicode="&#xe2;" horiz-adv-x="1103" 
d="M313 715h-172q-14 0 -14 12q0 13 2 21q31 132 141.5 216.5t284.5 84.5q194 0 307 -101t113 -280v-459q0 -74 8 -112.5t31 -76.5q11 -20 -15 -20h-204q-21 0 -21 20v76q-58 -58 -132 -87t-187 -29q-99 0 -182 36.5t-136 114t-53 182.5q0 110 57.5 189.5t150.5 118
t210 38.5q129 0 272 -43v37q0 99 -56 155t-163 56q-161 0 -213 -131q-7 -18 -29 -18zM774 432q-78 23 -134 33t-128 10q-96 0 -155.5 -39t-59.5 -114q0 -70 47.5 -110t138.5 -40q123 0 207 69.5t84 190.5zM655 1417l215 -274q6 -7 3 -14t-13 -7h-160q-17 0 -36 19l-109 108
l-109 -108q-19 -19 -36 -19h-160q-10 0 -13 7t3 14l215 274q17 17 30 17h140q13 0 30 -17z" />
    <glyph glyph-name="atilde" unicode="&#xe3;" horiz-adv-x="1103" 
d="M313 715h-172q-14 0 -14 12q0 13 2 21q31 132 141.5 216.5t284.5 84.5q194 0 307 -101t113 -280v-459q0 -74 8 -112.5t31 -76.5q11 -20 -15 -20h-204q-21 0 -21 20v76q-58 -58 -132 -87t-187 -29q-99 0 -182 36.5t-136 114t-53 182.5q0 110 57.5 189.5t150.5 118
t210 38.5q129 0 272 -43v37q0 99 -56 155t-163 56q-161 0 -213 -131q-7 -18 -29 -18zM774 432q-78 23 -134 33t-128 10q-96 0 -155.5 -39t-59.5 -114q0 -70 47.5 -110t138.5 -40q123 0 207 69.5t84 190.5zM201 1364q48 39 109 64.5t108 25.5q53 0 95 -13t64 -29t54 -29
t69 -13q33 0 59.5 10t67.5 39q12 4 15 4q10 0 20 -16l72 -102q6 -10 6 -17q0 -11 -12 -20q-48 -39 -109 -64.5t-108 -25.5q-54 0 -96.5 13t-64.5 29t-54 29t-68 13q-32 0 -59 -10.5t-68 -39.5q-12 -4 -14 -4q-11 0 -21 17l-71 102q-7 12 -7 16q0 11 13 21z" />
    <glyph glyph-name="adieresis" unicode="&#xe4;" horiz-adv-x="1103" 
d="M313 715h-172q-14 0 -14 12q0 13 2 21q31 132 141.5 216.5t284.5 84.5q194 0 307 -101t113 -280v-459q0 -74 8 -112.5t31 -76.5q11 -20 -15 -20h-204q-21 0 -21 20v76q-58 -58 -132 -87t-187 -29q-99 0 -182 36.5t-136 114t-53 182.5q0 110 57.5 189.5t150.5 118
t210 38.5q129 0 272 -43v37q0 99 -56 155t-163 56q-161 0 -213 -131q-7 -18 -29 -18zM774 432q-78 23 -134 33t-128 10q-96 0 -155.5 -39t-59.5 -114q0 -70 47.5 -110t138.5 -40q123 0 207 69.5t84 190.5zM262 1221v192q0 21 21 21h192q21 0 21 -21v-192q0 -21 -21 -21h-192
q-21 0 -21 21zM614 1221v192q0 21 21 21h192q21 0 21 -21v-192q0 -21 -21 -21h-192q-21 0 -21 21z" />
    <glyph glyph-name="aring" unicode="&#xe5;" horiz-adv-x="1103" 
d="M313 715h-172q-14 0 -14 12q0 13 2 21q31 132 141.5 216.5t284.5 84.5q194 0 307 -101t113 -280v-459q0 -74 8 -112.5t31 -76.5q11 -20 -15 -20h-204q-21 0 -21 20v76q-58 -58 -132 -87t-187 -29q-99 0 -182 36.5t-136 114t-53 182.5q0 110 57.5 189.5t150.5 118
t210 38.5q129 0 272 -43v37q0 99 -56 155t-163 56q-161 0 -213 -131q-7 -18 -29 -18zM774 432q-78 23 -134 33t-128 10q-96 0 -155.5 -39t-59.5 -114q0 -70 47.5 -110t138.5 -40q123 0 207 69.5t84 190.5zM362 1286q0 84 54 136.5t141 52.5t141 -52.5t54 -136.5t-54 -136
t-141 -52t-141 52t-54 136zM481 1286q0 -36 21.5 -57t54.5 -21t54.5 21t21.5 57t-21.5 57t-54.5 21t-54.5 -21t-21.5 -57z" />
    <glyph glyph-name="ae" unicode="&#xe6;" horiz-adv-x="1910" 
d="M313 715h-172q-14 0 -14 12q0 13 2 21q31 132 141.5 216.5t284.5 84.5q124 0 218 -44t145 -126q154 170 391 170q159 0 278.5 -74t179.5 -196t60 -271v-39q0 -20 -21 -20h-802q17 -130 98 -203.5t209 -73.5q106 0 173 36.5t105 117.5q9 18 29 18h174q14 0 14 -14
q0 -12 -4 -21q-65 -170 -186.5 -249.5t-304.5 -79.5q-133 0 -239.5 52t-176.5 146q-67 -95 -179.5 -146.5t-260.5 -51.5q-152 0 -260.5 88.5t-108.5 244.5q0 164 118 255t298 91q129 0 272 -43v37q0 99 -56 155t-163 56q-161 0 -213 -131q-7 -18 -29 -18zM774 432
q-78 23 -134 33t-128 10q-96 0 -156.5 -39t-60.5 -114q0 -70 48.5 -110t139.5 -40q123 0 207 69.5t84 190.5zM1309 856q-102 0 -184.5 -56.5t-110.5 -166.5h594q-26 108 -106 165.5t-193 57.5z" />
    <glyph glyph-name="ccedilla" unicode="&#xe7;" horiz-adv-x="1161" 
d="M492 -227l-41 39q-7 7 -7 14q0 8 2 12l48 154q-185 37 -294.5 177t-109.5 345q0 235 144 385t376 150q191 0 315.5 -99.5t153.5 -255.5q2 -8 2 -20t-14 -12h-166q-22 0 -29 18q-29 88 -99 132t-163 44q-143 0 -227 -89.5t-84 -252.5t84 -252.5t227 -89.5q93 0 163 44
t99 132q7 19 29 19h166q14 0 14 -13q0 -12 -2 -20q-30 -153 -149.5 -251.5t-304.5 -102.5l-43 -97q58 15 106 15q91 0 136.5 -40t45.5 -114q0 -89 -58 -129.5t-173 -40.5q-134 0 -207 20q-1 1 -4 2q-15 11 -16 19v80q0 20 20 20q10 0 64.5 -13t121.5 -13q48 0 68.5 11
t20.5 40q0 47 -74 47q-39 0 -113 -18q-4 -2 -12 -2q-10 0 -16 6z" />
    <glyph glyph-name="egrave" unicode="&#xe8;" horiz-adv-x="1214" 
d="M612 172q106 0 173.5 36.5t105.5 117.5q9 18 29 18h174q14 0 14 -14q0 -12 -4 -21q-65 -170 -187 -249.5t-305 -79.5q-229 0 -375.5 150.5t-146.5 383.5q0 232 147 383.5t373 151.5q159 0 278.5 -74t179.5 -196t60 -271v-39q0 -20 -20 -20h-805q17 -130 99 -203.5
t210 -73.5zM610 856q-102 0 -186.5 -56.5t-112.5 -166.5h598q-26 108 -106 165.5t-193 57.5zM618 1413l142 -258q5 -7 2.5 -13.5t-12.5 -6.5h-152q-22 0 -37 18l-211 260q-6 7 -3 14t13 7h228q18 0 30 -21z" />
    <glyph glyph-name="eacute" unicode="&#xe9;" horiz-adv-x="1214" 
d="M612 172q106 0 173.5 36.5t105.5 117.5q9 18 29 18h174q14 0 14 -14q0 -12 -4 -21q-65 -170 -187 -249.5t-305 -79.5q-229 0 -375.5 150.5t-146.5 383.5q0 232 147 383.5t373 151.5q159 0 278.5 -74t179.5 -196t60 -271v-39q0 -20 -20 -20h-805q17 -130 99 -203.5
t210 -73.5zM610 856q-102 0 -186.5 -56.5t-112.5 -166.5h598q-26 108 -106 165.5t-193 57.5zM440 1155l142 258q12 21 30 21h228q10 0 13 -7t-3 -14l-211 -260q-13 -18 -37 -18h-151q-10 0 -13 6.5t2 13.5z" />
    <glyph glyph-name="ecircumflex" unicode="&#xea;" horiz-adv-x="1214" 
d="M612 172q106 0 173.5 36.5t105.5 117.5q9 18 29 18h174q14 0 14 -14q0 -12 -4 -21q-65 -170 -187 -249.5t-305 -79.5q-229 0 -375.5 150.5t-146.5 383.5q0 232 147 383.5t373 151.5q159 0 278.5 -74t179.5 -196t60 -271v-39q0 -20 -20 -20h-805q17 -130 99 -203.5
t210 -73.5zM610 856q-102 0 -186.5 -56.5t-112.5 -166.5h598q-26 108 -106 165.5t-193 57.5zM721 1417l215 -274q6 -7 3 -14t-13 -7h-160q-18 0 -37 19l-108 108l-109 -108q-19 -19 -37 -19h-160q-10 0 -13 7t3 14l215 274q17 17 31 17h139q14 0 31 -17z" />
    <glyph glyph-name="edieresis" unicode="&#xeb;" horiz-adv-x="1214" 
d="M612 172q106 0 173.5 36.5t105.5 117.5q9 18 29 18h174q14 0 14 -14q0 -12 -4 -21q-65 -170 -187 -249.5t-305 -79.5q-229 0 -375.5 150.5t-146.5 383.5q0 232 147 383.5t373 151.5q159 0 278.5 -74t179.5 -196t60 -271v-39q0 -20 -20 -20h-805q17 -130 99 -203.5
t210 -73.5zM610 856q-102 0 -186.5 -56.5t-112.5 -166.5h598q-26 108 -106 165.5t-193 57.5zM322 1221v192q0 21 20 21h193q20 0 20 -21v-192q0 -21 -20 -21h-193q-20 0 -20 21zM674 1221v192q0 21 20 21h193q20 0 20 -21v-192q0 -21 -20 -21h-193q-20 0 -20 21z" />
    <glyph glyph-name="igrave" unicode="&#xec;" horiz-adv-x="438" 
d="M119 20v988q0 20 20 20h160q20 0 20 -20v-988q0 -20 -20 -20h-160q-20 0 -20 20zM215 1413l141 -258q5 -7 2.5 -13.5t-12.5 -6.5h-151q-22 0 -37 18l-211 260q-6 7 -3 14t13 7h227q19 0 31 -21z" />
    <glyph glyph-name="iacute" unicode="&#xed;" horiz-adv-x="438" 
d="M119 20v988q0 20 20 20h160q20 0 20 -20v-988q0 -20 -20 -20h-160q-20 0 -20 20zM84 1155l141 258q12 21 31 21h227q10 0 13.5 -7t-2.5 -14l-211 -260q-13 -18 -37 -18h-152q-10 0 -12.5 6.5t2.5 13.5z" />
    <glyph glyph-name="icircumflex" unicode="&#xee;" horiz-adv-x="438" 
d="M119 20v988q0 20 20 20h160q20 0 20 -20v-988q0 -20 -20 -20h-160q-20 0 -20 20zM319 1417l216 -274q6 -7 2.5 -14t-13.5 -7h-159q-18 0 -37 19l-109 108l-108 -108q-19 -19 -37 -19h-160q-10 0 -13 7t3 14l215 274q17 17 31 17h139q13 0 30 -17z" />
    <glyph glyph-name="idieresis" unicode="&#xef;" horiz-adv-x="438" 
d="M119 20v988q0 20 20 20h160q20 0 20 -20v-988q0 -20 -20 -20h-160q-20 0 -20 20zM-74 1221v192q0 21 21 21h192q21 0 21 -21v-192q0 -21 -21 -21h-192q-21 0 -21 21zM279 1221v192q0 21 20 21h193q20 0 20 -21v-192q0 -21 -20 -21h-193q-20 0 -20 21z" />
    <glyph glyph-name="eth" unicode="&#xf0;" horiz-adv-x="1191" 
d="M852 956q-53 110 -170 189l-217 -82q-21 -9 -27 10l-47 121q-10 17 12 27l58 20q-83 19 -115 23q-19 3 -16 28l24 138q2 14 29 14q192 -21 340 -103l233 89q20 9 27 -11l47 -121q6 -20 -12 -26l-127 -49q211 -214 211 -602q0 -317 -133.5 -479t-372.5 -162
q-226 0 -366 149.5t-140 384.5q0 237 135.5 386t349.5 149q89 0 151 -22t126 -71zM299 514q0 -156 79 -249t218 -93q130 0 213.5 94t83.5 248q0 152 -84 247t-213 95q-139 0 -218 -93t-79 -249z" />
    <glyph glyph-name="ntilde" unicode="&#xf1;" horiz-adv-x="1167" 
d="M152 20v988q0 20 20 20h160q20 0 20 -20v-93q144 134 326 134q170 0 262 -94t92 -265v-670q0 -20 -20 -20h-160q-21 0 -21 20v611q0 225 -204 225q-116 0 -195.5 -91t-79.5 -259v-486q0 -20 -20 -20h-160q-20 0 -20 20zM231 1364q48 39 109.5 64.5t108.5 25.5
q53 0 95 -13t64 -29t54 -29t69 -13q33 0 59.5 10t67.5 39q12 4 14 4q11 0 21 -16l72 -102q6 -10 6 -17q0 -10 -13 -20q-48 -39 -109 -64.5t-108 -25.5q-54 0 -96 13t-64 29t-54 29t-68 13q-32 0 -59 -10.5t-68 -39.5q-12 -4 -15 -4q-10 0 -20 17l-72 102q-6 10 -6 16
q0 12 12 21z" />
    <glyph glyph-name="ograve" unicode="&#xf2;" horiz-adv-x="1249" 
d="M90 514q0 235 152.5 385t382.5 150t382 -150t152 -385t-152 -384.5t-382 -149.5t-382.5 149.5t-152.5 384.5zM303 514q0 -153 90 -247.5t232 -94.5t231.5 94.5t89.5 247.5t-89.5 247.5t-231.5 94.5t-232 -94.5t-90 -247.5zM621 1413l141 -258q5 -7 2.5 -13.5t-12.5 -6.5
h-152q-22 0 -37 18l-211 260q-6 7 -3 14t13 7h228q19 0 31 -21z" />
    <glyph glyph-name="oacute" unicode="&#xf3;" horiz-adv-x="1249" 
d="M90 514q0 235 152.5 385t382.5 150t382 -150t152 -385t-152 -384.5t-382 -149.5t-382.5 149.5t-152.5 384.5zM303 514q0 -153 90 -247.5t232 -94.5t231.5 94.5t89.5 247.5t-89.5 247.5t-231.5 94.5t-232 -94.5t-90 -247.5zM451 1155l141 258q12 21 31 21h227q10 0 13 -7
t-3 -14l-211 -260q-13 -18 -37 -18h-151q-10 0 -12.5 6.5t2.5 13.5z" />
    <glyph glyph-name="ocircumflex" unicode="&#xf4;" horiz-adv-x="1249" 
d="M90 514q0 235 152.5 385t382.5 150t382 -150t152 -385t-152 -384.5t-382 -149.5t-382.5 149.5t-152.5 384.5zM303 514q0 -153 90 -247.5t232 -94.5t231.5 94.5t89.5 247.5t-89.5 247.5t-231.5 94.5t-232 -94.5t-90 -247.5zM725 1417l215 -274q6 -7 3 -14t-13 -7h-160
q-18 0 -37 19l-108 108l-109 -108q-19 -19 -37 -19h-160q-10 0 -13 7t3 14l215 274q17 17 31 17h139q14 0 31 -17z" />
    <glyph glyph-name="otilde" unicode="&#xf5;" horiz-adv-x="1249" 
d="M90 514q0 235 152.5 385t382.5 150t382 -150t152 -385t-152 -384.5t-382 -149.5t-382.5 149.5t-152.5 384.5zM303 514q0 -153 90 -247.5t232 -94.5t231.5 94.5t89.5 247.5t-89.5 247.5t-231.5 94.5t-232 -94.5t-90 -247.5zM262 1364q48 39 109 64.5t108 25.5q53 0 95 -13
t64.5 -29t54.5 -29t69 -13q33 0 59.5 10t67.5 39q12 4 14 4q11 0 21 -16l71 -102q6 -10 6 -17q0 -11 -12 -20q-48 -39 -109 -64.5t-108 -25.5q-54 0 -96.5 13t-64.5 29t-54 29t-68 13q-32 0 -59 -10.5t-68 -39.5q-12 -4 -14 -4q-10 0 -20 17l-72 102q-6 10 -6 16q0 12 12 21
z" />
    <glyph glyph-name="odieresis" unicode="&#xf6;" horiz-adv-x="1249" 
d="M90 514q0 235 152.5 385t382.5 150t382 -150t152 -385t-152 -384.5t-382 -149.5t-382.5 149.5t-152.5 384.5zM303 514q0 -153 90 -247.5t232 -94.5t231.5 94.5t89.5 247.5t-89.5 247.5t-231.5 94.5t-232 -94.5t-90 -247.5zM332 1221v192q0 21 20 21h193q20 0 20 -21v-192
q0 -21 -20 -21h-193q-20 0 -20 21zM684 1221v192q0 21 21 21h192q21 0 21 -21v-192q0 -21 -21 -21h-192q-21 0 -21 21z" />
    <glyph glyph-name="divide" unicode="&#xf7;" horiz-adv-x="1171" 
d="M141 614h889q21 0 21 -20v-160q0 -20 -21 -20h-889q-20 0 -20 20v160q0 20 20 20zM479 238h197q20 0 20 -21v-197q0 -20 -20 -20h-197q-20 0 -20 20v197q0 21 20 21zM479 1028h197q20 0 20 -20v-197q0 -20 -20 -20h-197q-20 0 -20 20v197q0 20 20 20z" />
    <glyph glyph-name="oslash" unicode="&#xf8;" horiz-adv-x="1249" 
d="M90 514q0 235 152.5 385t382.5 150q125 0 213 -39l63 108q9 12 17 12l12 -4l74 -43q12 -9 12 -16l-4 -12l-62 -107q100 -73 154.5 -184t54.5 -250q0 -235 -152 -384.5t-382 -149.5q-127 0 -213 38l-64 -108q-9 -12 -16 -12q-1 0 -13 4l-73 43q-13 10 -13 16q0 1 1 2.5
t2 4.5t2 5l61 107q-100 73 -154.5 184t-54.5 250zM946 514q0 164 -98 258l-338 -582q53 -18 115 -18q142 0 231.5 94.5t89.5 247.5zM303 514q0 -164 98 -258l338 582q-53 18 -114 18q-142 0 -232 -94.5t-90 -247.5z" />
    <glyph glyph-name="ugrave" unicode="&#xf9;" horiz-adv-x="1167" 
d="M1016 1008v-988q0 -20 -21 -20h-159q-21 0 -21 20v93q-143 -133 -326 -133q-170 0 -262 93.5t-92 264.5v670q0 20 21 20h159q21 0 21 -20v-611q0 -225 205 -225q116 0 195 91t79 259v486q0 20 21 20h159q21 0 21 -20zM569 1413l142 -258q5 -7 2 -13.5t-13 -6.5h-151
q-22 0 -37 18l-211 260q-6 7 -3 14t13 7h228q18 0 30 -21z" />
    <glyph glyph-name="uacute" unicode="&#xfa;" horiz-adv-x="1167" 
d="M1016 1008v-988q0 -20 -21 -20h-159q-21 0 -21 20v93q-143 -133 -326 -133q-170 0 -262 93.5t-92 264.5v670q0 20 21 20h159q21 0 21 -20v-611q0 -225 205 -225q116 0 195 91t79 259v486q0 20 21 20h159q21 0 21 -20zM406 1155l141 258q12 21 31 21h227q10 0 13 -7
t-3 -14l-211 -260q-13 -18 -37 -18h-151q-10 0 -12.5 6.5t2.5 13.5z" />
    <glyph glyph-name="ucircumflex" unicode="&#xfb;" horiz-adv-x="1167" 
d="M1016 1008v-988q0 -20 -21 -20h-159q-21 0 -21 20v93q-143 -133 -326 -133q-170 0 -262 93.5t-92 264.5v670q0 20 21 20h159q21 0 21 -20v-611q0 -225 205 -225q116 0 195 91t79 259v486q0 20 21 20h159q21 0 21 -20zM678 1417l215 -274q6 -7 3 -14t-13 -7h-160
q-18 0 -37 19l-108 108l-109 -108q-19 -19 -37 -19h-160q-10 0 -13 7t3 14l215 274q17 17 31 17h139q14 0 31 -17z" />
    <glyph glyph-name="udieresis" unicode="&#xfc;" horiz-adv-x="1167" 
d="M1016 1008v-988q0 -20 -21 -20h-159q-21 0 -21 20v93q-143 -133 -326 -133q-170 0 -262 93.5t-92 264.5v670q0 20 21 20h159q21 0 21 -20v-611q0 -225 205 -225q116 0 195 91t79 259v486q0 20 21 20h159q21 0 21 -20zM281 1221v192q0 21 20 21h193q20 0 20 -21v-192
q0 -21 -20 -21h-193q-20 0 -20 21zM633 1221v192q0 21 20 21h193q20 0 20 -21v-192q0 -21 -20 -21h-193q-20 0 -20 21z" />
    <glyph glyph-name="yacute" unicode="&#xfd;" horiz-adv-x="991" 
d="M29 1028h188q21 0 27 -20l274 -711l230 711q4 9 5.5 12t6.5 5.5t14 2.5h182q17 0 17 -14q0 -11 -2 -15l-375 -1099q-62 -182 -150 -254t-206 -72q-107 0 -174 33q-21 12 -21 33v151q0 21 16 21q10 0 59.5 -22.5t96.5 -22.5q76 0 124.5 54t84.5 185l-410 989q-4 16 -4 17
q0 16 17 16zM367 1155l141 258q12 21 31 21h227q10 0 13 -7t-3 -14l-211 -260q-13 -18 -37 -18h-151q-10 0 -12.5 6.5t2.5 13.5z" />
    <glyph glyph-name="thorn" unicode="&#xfe;" horiz-adv-x="1220" 
d="M152 -385v1798q0 21 20 21h160q20 0 20 -21v-483q145 119 316 119q208 0 335 -146t127 -389t-127 -388.5t-335 -145.5q-197 0 -316 116v-481q0 -21 -20 -21h-160q-20 0 -20 21zM336 514q0 -151 81 -246.5t210 -95.5q134 0 212.5 94t78.5 248t-78.5 248t-212.5 94
q-129 0 -210 -95.5t-81 -246.5z" />
    <glyph glyph-name="ydieresis" unicode="&#xff;" horiz-adv-x="991" 
d="M29 1028h188q21 0 27 -20l274 -711l230 711q4 9 5.5 12t6.5 5.5t14 2.5h182q17 0 17 -14q0 -11 -2 -15l-375 -1099q-62 -182 -150 -254t-206 -72q-107 0 -174 33q-21 12 -21 33v151q0 21 16 21q10 0 59.5 -22.5t96.5 -22.5q76 0 124.5 54t84.5 185l-410 989q-4 16 -4 17
q0 16 17 16zM203 1221v192q0 21 20 21h193q20 0 20 -21v-192q0 -21 -20 -21h-193q-20 0 -20 21zM555 1221v192q0 21 20 21h193q20 0 20 -21v-192q0 -21 -20 -21h-193q-20 0 -20 21z" />
    <glyph glyph-name="Amacron" unicode="&#x100;" horiz-adv-x="1282" 
d="M1047 20l-134 375h-546l-131 -375q-5 -12 -9.5 -16t-15.5 -4h-178q-23 0 -23 20q0 9 2 13l504 1380q8 18 13 20q3 1 8 1h208q6 0 9.5 -2t5.5 -5t4 -9q1 -3 2 -5l504 -1380q2 -4 2 -13q0 -20 -23 -20h-178q-11 0 -15 4t-9 16zM641 1167l-201 -567h402zM416 1626v143
q0 21 20 21h410q20 0 20 -21v-143q0 -20 -20 -20h-410q-20 0 -20 20z" />
    <glyph glyph-name="amacron" unicode="&#x101;" horiz-adv-x="1103" 
d="M313 715h-172q-14 0 -14 12q0 13 2 21q31 132 141.5 216.5t284.5 84.5q194 0 307 -101t113 -280v-459q0 -74 8 -112.5t31 -76.5q11 -20 -15 -20h-204q-21 0 -21 20v76q-58 -58 -132 -87t-187 -29q-99 0 -182 36.5t-136 114t-53 182.5q0 110 57.5 189.5t150.5 118
t210 38.5q129 0 272 -43v37q0 99 -56 155t-163 56q-161 0 -213 -131q-7 -18 -29 -18zM774 432q-78 23 -134 33t-128 10q-96 0 -155.5 -39t-59.5 -114q0 -70 47.5 -110t138.5 -40q123 0 207 69.5t84 190.5zM326 1221v143q0 20 20 20h410q20 0 20 -20v-143q0 -21 -20 -21h-410
q-20 0 -20 21z" />
    <glyph glyph-name="Abreve" unicode="&#x102;" horiz-adv-x="1282" 
d="M1047 20l-134 375h-546l-131 -375q-5 -12 -9.5 -16t-15.5 -4h-178q-23 0 -23 20q0 9 2 13l504 1380q8 18 13 20q3 1 8 1h208q6 0 9.5 -2t5.5 -5t4 -9q1 -3 2 -5l504 -1380q2 -4 2 -13q0 -20 -23 -20h-178q-11 0 -15 4t-9 16zM641 1167l-201 -567h402zM395 1823h127
q21 0 21 -21q0 -108 98 -108t98 108q0 21 21 21h127q20 0 20 -21q0 -122 -72 -193t-194 -71t-194 71t-72 193q0 21 20 21z" />
    <glyph glyph-name="abreve" unicode="&#x103;" horiz-adv-x="1103" 
d="M313 715h-172q-14 0 -14 12q0 13 2 21q31 132 141.5 216.5t284.5 84.5q194 0 307 -101t113 -280v-459q0 -74 8 -112.5t31 -76.5q11 -20 -15 -20h-204q-21 0 -21 20v76q-58 -58 -132 -87t-187 -29q-99 0 -182 36.5t-136 114t-53 182.5q0 110 57.5 189.5t150.5 118
t210 38.5q129 0 272 -43v37q0 99 -56 155t-163 56q-161 0 -213 -131q-7 -18 -29 -18zM774 432q-78 23 -134 33t-128 10q-96 0 -155.5 -39t-59.5 -114q0 -70 47.5 -110t138.5 -40q123 0 207 69.5t84 190.5zM309 1417h127q21 0 21 -20q0 -109 98 -109t98 109q0 20 21 20h127
q20 0 20 -20q0 -122 -72 -193t-194 -71t-194 71t-72 193q0 20 20 20z" />
    <glyph glyph-name="Aogonek" unicode="&#x104;" horiz-adv-x="1282" 
d="M1055 0l-142 395h-546l-131 -375q-5 -12 -9.5 -16t-15.5 -4h-178q-23 0 -23 20q0 9 2 13l504 1380q8 18 13 20q3 1 8 1h208q6 0 9.5 -2t5.5 -5t4 -9q1 -3 2 -5l504 -1380q2 -6 2 -15q0 -12 -15 -18q-102 -47 -102 -125q0 -42 30 -66t83 -24h32q21 0 21 -21v-102
q0 -20 -21 -20h-90q-109 0 -178 48t-69 138q0 102 92 172zM641 1167l-201 -567h402z" />
    <glyph glyph-name="aogonek" unicode="&#x105;" horiz-adv-x="1103" 
d="M313 715h-172q-14 0 -14 12q0 13 2 21q31 132 141.5 216.5t284.5 84.5q194 0 307 -101t113 -280v-459q0 -74 8 -112.5t31 -76.5q1 -2 2 -4.5t1.5 -3.5t0.5 -2q0 -7 -8 -10q-105 -52 -105 -125q0 -42 30 -66t83 -24h33q20 0 20 -21v-102q0 -20 -20 -20h-90
q-109 0 -178.5 48t-69.5 138q0 86 61 160v108q-58 -58 -132 -87t-187 -29q-152 0 -260.5 88.5t-108.5 244.5q0 164 118 255t298 91q129 0 272 -43v37q0 99 -56 155t-163 56q-161 0 -213 -131q-7 -18 -29 -18zM774 432q-78 23 -134 33t-128 10q-96 0 -156.5 -39t-60.5 -114
q0 -70 48.5 -110t139.5 -40q123 0 207 69.5t84 190.5z" />
    <glyph glyph-name="Cacute" unicode="&#x106;" horiz-adv-x="1447" 
d="M1182 506h166q22 0 22 -21q-19 -154 -105.5 -269t-221 -175.5t-298.5 -60.5q-101 0 -194.5 27.5t-177 86.5t-145.5 144t-98 208t-36 271t36 271t98 208t145.5 144t177 86.5t194.5 27.5q250 0 423 -137t202 -369q0 -20 -22 -20h-166q-19 0 -25 20q-83 301 -412 301
q-84 0 -159.5 -32.5t-136.5 -95t-97.5 -167t-36.5 -237.5t36.5 -237.5t97.5 -167.5t136.5 -95.5t159.5 -32.5q329 0 412 301q6 21 25 21zM610 1561l142 258q11 20 30 20h228q10 0 13 -6.5t-3 -13.5l-211 -260q-14 -19 -37 -19h-151q-10 0 -13 7t2 14z" />
    <glyph glyph-name="cacute" unicode="&#x107;" horiz-adv-x="1161" 
d="M610 856q-143 0 -225 -89t-82 -253t82 -253t225 -89q93 0 163 44t99 132q7 19 29 19h166q14 0 14 -13q0 -12 -2 -20q-30 -156 -154.5 -255t-314.5 -99q-232 0 -376 149.5t-144 384.5t144 385t376 150q191 0 315.5 -99.5t153.5 -255.5q2 -8 2 -20t-14 -12h-166
q-22 0 -29 18q-29 88 -99 132t-163 44zM449 1155l141 258q12 21 31 21h227q10 0 13 -7t-3 -14l-211 -260q-13 -18 -37 -18h-151q-10 0 -12.5 6.5t2.5 13.5z" />
    <glyph glyph-name="Ccircumflex" unicode="&#x108;" horiz-adv-x="1447" 
d="M1182 506h166q22 0 22 -21q-19 -154 -105.5 -269t-221 -175.5t-298.5 -60.5q-101 0 -194.5 27.5t-177 86.5t-145.5 144t-98 208t-36 271t36 271t98 208t145.5 144t177 86.5t194.5 27.5q250 0 423 -137t202 -369q0 -20 -22 -20h-166q-19 0 -25 20q-83 301 -412 301
q-84 0 -159.5 -32.5t-136.5 -95t-97.5 -167t-36.5 -237.5t36.5 -237.5t97.5 -167.5t136.5 -95.5t159.5 -32.5q329 0 412 301q6 21 25 21zM846 1823l215 -275q6 -8 3 -14t-13 -6h-160q-19 0 -37 18l-109 109l-108 -109q-18 -18 -37 -18h-160q-10 0 -13 6t3 14l215 275
q16 16 31 16h139q15 0 31 -16z" />
    <glyph glyph-name="ccircumflex" unicode="&#x109;" horiz-adv-x="1161" 
d="M610 856q-143 0 -225 -89t-82 -253t82 -253t225 -89q93 0 163 44t99 132q7 19 29 19h166q14 0 14 -13q0 -12 -2 -20q-30 -156 -154.5 -255t-314.5 -99q-232 0 -376 149.5t-144 384.5t144 385t376 150q191 0 315.5 -99.5t153.5 -255.5q2 -8 2 -20t-14 -12h-166
q-22 0 -29 18q-29 88 -99 132t-163 44zM715 1417l215 -274q6 -7 3 -14t-13 -7h-160q-18 0 -37 19l-109 108l-108 -108q-19 -19 -37 -19h-160q-10 0 -13 7t3 14l215 274q17 17 31 17h139q14 0 31 -17z" />
    <glyph glyph-name="Cdotaccent" unicode="&#x10a;" horiz-adv-x="1447" 
d="M1182 506h166q22 0 22 -21q-19 -154 -105.5 -269t-221 -175.5t-298.5 -60.5q-101 0 -194.5 27.5t-177 86.5t-145.5 144t-98 208t-36 271t36 271t98 208t145.5 144t177 86.5t194.5 27.5q250 0 423 -137t202 -369q0 -20 -22 -20h-166q-19 0 -25 20q-83 301 -412 301
q-84 0 -159.5 -32.5t-136.5 -95t-97.5 -167t-36.5 -237.5t36.5 -237.5t97.5 -167.5t136.5 -95.5t159.5 -32.5q329 0 412 301q6 21 25 21zM623 1614v205q0 20 20 20h205q20 0 20 -20v-205q0 -21 -20 -21h-205q-20 0 -20 21z" />
    <glyph glyph-name="cdotaccent" unicode="&#x10b;" horiz-adv-x="1161" 
d="M610 856q-143 0 -225 -89t-82 -253t82 -253t225 -89q93 0 163 44t99 132q7 19 29 19h166q14 0 14 -13q0 -12 -2 -20q-30 -156 -154.5 -255t-314.5 -99q-232 0 -376 149.5t-144 384.5t144 385t376 150q191 0 315.5 -99.5t153.5 -255.5q2 -8 2 -20t-14 -12h-166
q-22 0 -29 18q-29 88 -99 132t-163 44zM487 1208v205q0 21 21 21h205q20 0 20 -21v-205q0 -20 -20 -20h-205q-21 0 -21 20z" />
    <glyph glyph-name="Ccaron" unicode="&#x10c;" horiz-adv-x="1447" 
d="M1182 506h166q22 0 22 -21q-19 -154 -105.5 -269t-221 -175.5t-298.5 -60.5q-101 0 -194.5 27.5t-177 86.5t-145.5 144t-98 208t-36 271t36 271t98 208t145.5 144t177 86.5t194.5 27.5q250 0 423 -137t202 -369q0 -20 -22 -20h-166q-19 0 -25 20q-83 301 -412 301
q-84 0 -159.5 -32.5t-136.5 -95t-97.5 -167t-36.5 -237.5t36.5 -237.5t97.5 -167.5t136.5 -95.5t159.5 -32.5q329 0 412 301q6 21 25 21zM1061 1819l-215 -275q-16 -16 -31 -16h-139q-15 0 -31 16l-215 275q-6 7 -3 13.5t13 6.5h160q19 0 37 -18l108 -109l109 109
q18 18 37 18h160q10 0 13 -6.5t-3 -13.5z" />
    <glyph glyph-name="ccaron" unicode="&#x10d;" horiz-adv-x="1161" 
d="M610 856q-143 0 -225 -89t-82 -253t82 -253t225 -89q93 0 163 44t99 132q7 19 29 19h166q14 0 14 -13q0 -12 -2 -20q-30 -156 -154.5 -255t-314.5 -99q-232 0 -376 149.5t-144 384.5t144 385t376 150q191 0 315.5 -99.5t153.5 -255.5q2 -8 2 -20t-14 -12h-166
q-22 0 -29 18q-29 88 -99 132t-163 44zM926 1413l-215 -274q-17 -17 -31 -17h-139q-14 0 -31 17l-215 274q-6 7 -3 14t13 7h160q18 0 37 -19l108 -108l109 108q19 19 37 19h159q10 0 13.5 -7t-2.5 -14z" />
    <glyph glyph-name="Dcaron" unicode="&#x10e;" horiz-adv-x="1349" 
d="M160 20v1393q0 21 20 21h420q138 0 255.5 -45t207.5 -131.5t141 -225.5t51 -315t-51 -315t-141 -225.5t-207.5 -131.5t-255.5 -45h-420q-20 0 -20 20zM575 1229h-202v-1024h202q211 0 335 127.5t124 384.5t-124 384.5t-335 127.5zM866 1819l-215 -275q-16 -16 -30 -16
h-140q-14 0 -30 16l-215 275q-6 7 -3 13.5t13 6.5h160q18 0 36 -18l109 -109l108 109q18 18 37 18h160q10 0 13 -6.5t-3 -13.5z" />
    <glyph glyph-name="dcaron" unicode="&#x10f;" horiz-adv-x="1490" 
d="M1069 1413v-1393q0 -20 -20 -20h-160q-21 0 -21 20v76q-119 -116 -315 -116q-208 0 -335.5 145.5t-127.5 388.5t127.5 389t335.5 146q170 0 315 -119v483q0 21 21 21h160q20 0 20 -21zM885 514q0 151 -81 246.5t-210 95.5q-134 0 -212.5 -94t-78.5 -248t78.5 -248
t212.5 -94q129 0 210 95.5t81 246.5zM1217 1077q65 0 88.5 23t23.5 80v24h-96q-21 0 -21 21v188q0 21 21 21h201q20 0 20 -21v-248q0 -87 -45 -138.5t-137 -51.5h-55q-21 0 -21 20v62q0 20 21 20z" />
    <glyph glyph-name="Dcroat" unicode="&#x110;" horiz-adv-x="1386" 
d="M197 20v596h-154q-20 0 -20 21v160q0 20 20 20h154v596q0 21 20 21h420q138 0 255.5 -45t207.5 -131.5t141 -225.5t51 -315t-51 -315t-141 -225.5t-207.5 -131.5t-255.5 -45h-420q-20 0 -20 20zM612 1229h-202v-412h297q20 0 20 -20v-160q0 -21 -20 -21h-297v-411h202
q211 0 335 127.5t124 384.5t-124 384.5t-335 127.5z" />
    <glyph glyph-name="dcroat" unicode="&#x111;" horiz-adv-x="1220" 
d="M1069 1108v-1088q0 -20 -20 -20h-160q-21 0 -21 20v76q-119 -116 -315 -116q-208 0 -335.5 145.5t-127.5 388.5t127.5 389t335.5 146q170 0 315 -119v178h-262q-20 0 -20 20v144q0 20 20 20h262v121q0 21 21 21h160q20 0 20 -21v-121h121q20 0 20 -20v-144q0 -20 -20 -20
h-121zM885 514q0 151 -81 246.5t-210 95.5q-134 0 -212.5 -94t-78.5 -248t78.5 -248t212.5 -94q129 0 210 95.5t81 246.5z" />
    <glyph glyph-name="Emacron" unicode="&#x112;" horiz-adv-x="1196" 
d="M373 651v-446h692q20 0 20 -21v-164q0 -20 -20 -20h-885q-20 0 -20 20v1393q0 21 20 21h854q21 0 21 -21v-164q0 -20 -21 -20h-661v-373h600q20 0 20 -20v-164q0 -21 -20 -21h-600zM375 1626v143q0 21 20 21h410q20 0 20 -21v-143q0 -20 -20 -20h-410q-20 0 -20 20z" />
    <glyph glyph-name="emacron" unicode="&#x113;" horiz-adv-x="1214" 
d="M612 172q106 0 173.5 36.5t105.5 117.5q9 18 29 18h174q14 0 14 -14q0 -12 -4 -21q-65 -170 -187 -249.5t-305 -79.5q-229 0 -375.5 150.5t-146.5 383.5q0 232 147 383.5t373 151.5q159 0 278.5 -74t179.5 -196t60 -271v-39q0 -20 -20 -20h-805q17 -130 99 -203.5
t210 -73.5zM610 856q-102 0 -186.5 -56.5t-112.5 -166.5h598q-26 108 -106 165.5t-193 57.5zM385 1221v143q0 20 21 20h409q21 0 21 -20v-143q0 -21 -21 -21h-409q-21 0 -21 21z" />
    <glyph glyph-name="Ebreve" unicode="&#x114;" horiz-adv-x="1196" 
d="M373 651v-446h692q20 0 20 -21v-164q0 -20 -20 -20h-885q-20 0 -20 20v1393q0 21 20 21h854q21 0 21 -21v-164q0 -20 -21 -20h-661v-373h600q20 0 20 -20v-164q0 -21 -20 -21h-600zM348 1823h127q21 0 21 -21q0 -108 98 -108t98 108q0 21 21 21h127q20 0 20 -21
q0 -122 -72 -193t-194 -71t-194 71t-72 193q0 21 20 21z" />
    <glyph glyph-name="ebreve" unicode="&#x115;" horiz-adv-x="1214" 
d="M612 172q106 0 173.5 36.5t105.5 117.5q9 18 29 18h174q14 0 14 -14q0 -12 -4 -21q-65 -170 -187 -249.5t-305 -79.5q-229 0 -375.5 150.5t-146.5 383.5q0 232 147 383.5t373 151.5q159 0 278.5 -74t179.5 -196t60 -271v-39q0 -20 -20 -20h-805q17 -130 99 -203.5
t210 -73.5zM610 856q-102 0 -186.5 -56.5t-112.5 -166.5h598q-26 108 -106 165.5t-193 57.5zM362 1417h127q21 0 21 -20q0 -109 98 -109q99 0 99 109q0 20 20 20h127q20 0 20 -20q0 -122 -72 -193t-194 -71t-194 71t-72 193q0 20 20 20z" />
    <glyph glyph-name="Edotaccent" unicode="&#x116;" horiz-adv-x="1196" 
d="M373 651v-446h692q20 0 20 -21v-164q0 -20 -20 -20h-885q-20 0 -20 20v1393q0 21 20 21h854q21 0 21 -21v-164q0 -20 -21 -20h-661v-373h600q20 0 20 -20v-164q0 -21 -20 -21h-600zM489 1614v205q0 20 21 20h205q20 0 20 -20v-205q0 -21 -20 -21h-205q-21 0 -21 21z" />
    <glyph glyph-name="edotaccent" unicode="&#x117;" horiz-adv-x="1214" 
d="M612 172q106 0 173.5 36.5t105.5 117.5q9 18 29 18h174q14 0 14 -14q0 -12 -4 -21q-65 -170 -187 -249.5t-305 -79.5q-229 0 -375.5 150.5t-146.5 383.5q0 232 147 383.5t373 151.5q159 0 278.5 -74t179.5 -196t60 -271v-39q0 -20 -20 -20h-805q17 -130 99 -203.5
t210 -73.5zM610 856q-102 0 -186.5 -56.5t-112.5 -166.5h598q-26 108 -106 165.5t-193 57.5zM492 1208v205q0 21 20 21h205q20 0 20 -21v-205q0 -20 -20 -20h-205q-20 0 -20 20z" />
    <glyph glyph-name="Eogonek" unicode="&#x118;" horiz-adv-x="1196" 
d="M373 651v-446h692q20 0 20 -21v-164q0 -14 -14 -20q-52 -18 -77 -51t-25 -74q0 -42 29.5 -66t82.5 -24h33q21 0 21 -21v-102q0 -20 -21 -20h-90q-109 0 -178.5 48t-69.5 138q0 103 98 172h-694q-20 0 -20 20v1393q0 21 20 21h854q21 0 21 -21v-164q0 -20 -21 -20h-661
v-373h600q20 0 20 -20v-164q0 -21 -20 -21h-600z" />
    <glyph glyph-name="eogonek" unicode="&#x119;" horiz-adv-x="1214" 
d="M612 172q106 0 173.5 36.5t105.5 117.5q9 18 29 18h174q14 0 14 -14q0 -12 -4 -21q-46 -125 -124.5 -198t-197.5 -111q-51 -16 -76.5 -50t-25.5 -75q0 -42 30 -66t83 -24h32q21 0 21 -21v-102q0 -20 -21 -20h-90q-109 0 -178.5 48t-69.5 138q0 82 74 152
q-211 17 -341 165t-130 369q0 232 147 383.5t373 151.5q159 0 278.5 -74t179.5 -196t60 -271v-39q0 -20 -20 -20h-805q17 -130 99 -203.5t210 -73.5zM610 856q-102 0 -186.5 -56.5t-112.5 -166.5h598q-26 108 -106 165.5t-193 57.5z" />
    <glyph glyph-name="Ecaron" unicode="&#x11a;" horiz-adv-x="1196" 
d="M373 651v-446h692q20 0 20 -21v-164q0 -20 -20 -20h-885q-20 0 -20 20v1393q0 21 20 21h854q21 0 21 -21v-164q0 -20 -21 -20h-661v-373h600q20 0 20 -20v-164q0 -21 -20 -21h-600zM913 1819l-215 -275q-16 -16 -30 -16h-140q-14 0 -30 16l-215 275q-6 7 -3 13.5t13 6.5
h160q18 0 36 -18l109 -109l109 109q18 18 36 18h160q10 0 13 -6.5t-3 -13.5z" />
    <glyph glyph-name="ecaron" unicode="&#x11b;" horiz-adv-x="1214" 
d="M612 172q106 0 173.5 36.5t105.5 117.5q9 18 29 18h174q14 0 14 -14q0 -12 -4 -21q-65 -170 -187 -249.5t-305 -79.5q-229 0 -375.5 150.5t-146.5 383.5q0 232 147 383.5t373 151.5q159 0 278.5 -74t179.5 -196t60 -271v-39q0 -20 -20 -20h-805q17 -130 99 -203.5
t210 -73.5zM610 856q-102 0 -186.5 -56.5t-112.5 -166.5h598q-26 108 -106 165.5t-193 57.5zM924 1413l-215 -274q-17 -17 -31 -17h-139q-14 0 -31 17l-215 274q-6 7 -3 14t13 7h160q18 0 37 -19l108 -108l109 108q19 19 37 19h159q10 0 13.5 -7t-2.5 -14z" />
    <glyph glyph-name="Gcircumflex" unicode="&#x11c;" horiz-adv-x="1460" 
d="M774 741h584q20 0 20 -20v-361q0 -48 -20 -77q-95 -147 -244.5 -225t-325.5 -78q-144 0 -268 46t-220 135t-151 232t-55 324q0 145 37.5 268t101.5 208t150 145t181 88t196 28q231 0 396.5 -117.5t201.5 -324.5q0 -21 -23 -21h-174q-18 0 -24 21q-75 237 -377 237
q-85 0 -164 -34.5t-142 -99.5t-101 -168t-38 -230q0 -253 127 -393t338 -140q264 0 385 183v170h-391q-20 0 -20 20v164q0 20 20 20zM860 1823l215 -275q6 -8 3 -14t-13 -6h-160q-19 0 -37 18l-108 109l-109 -109q-18 -18 -37 -18h-159q-10 0 -13.5 6t2.5 14l215 275
q16 16 31 16h139q15 0 31 -16z" />
    <glyph glyph-name="gcircumflex" unicode="&#x11d;" horiz-adv-x="1191" 
d="M588 -426q-181 0 -301 91.5t-137 254.5q0 21 20 21h160q17 0 20 -21q32 -153 244 -153q132 0 199 77.5t67 216.5v48q-69 -57 -139.5 -81t-167.5 -24q-205 0 -334 141.5t-129 380.5q0 240 128 381.5t335 141.5q188 0 307 -107v66q0 20 21 20h159q21 0 21 -20v-926
q0 -253 -119.5 -380.5t-353.5 -127.5zM877 526q0 150 -76 240t-211 90t-211 -90t-76 -240t76 -239.5t211 -89.5t211 89.5t76 239.5zM678 1417l215 -274q6 -7 3 -14t-13 -7h-160q-18 0 -37 19l-108 108l-109 -108q-19 -19 -37 -19h-160q-10 0 -13 7t3 14l215 274q17 17 31 17
h139q14 0 31 -17z" />
    <glyph glyph-name="Gbreve" unicode="&#x11e;" horiz-adv-x="1460" 
d="M774 741h584q20 0 20 -20v-361q0 -48 -20 -77q-95 -147 -244.5 -225t-325.5 -78q-144 0 -268 46t-220 135t-151 232t-55 324q0 145 37.5 268t101.5 208t150 145t181 88t196 28q231 0 396.5 -117.5t201.5 -324.5q0 -21 -23 -21h-174q-18 0 -24 21q-75 237 -377 237
q-85 0 -164 -34.5t-142 -99.5t-101 -168t-38 -230q0 -253 127 -393t338 -140q264 0 385 183v170h-391q-20 0 -20 20v164q0 20 20 20zM514 1823h127q21 0 21 -21q0 -108 98 -108t98 108q0 21 21 21h127q20 0 20 -21q0 -122 -72 -193t-194 -71t-194 71t-72 193q0 21 20 21z
" />
    <glyph glyph-name="gbreve" unicode="&#x11f;" horiz-adv-x="1191" 
d="M588 -426q-181 0 -301 91.5t-137 254.5q0 21 20 21h160q17 0 20 -21q32 -153 244 -153q132 0 199 77.5t67 216.5v48q-69 -57 -139.5 -81t-167.5 -24q-205 0 -334 141.5t-129 380.5q0 240 128 381.5t335 141.5q188 0 307 -107v66q0 20 21 20h159q21 0 21 -20v-926
q0 -253 -119.5 -380.5t-353.5 -127.5zM877 526q0 150 -76 240t-211 90t-211 -90t-76 -240t76 -239.5t211 -89.5t211 89.5t76 239.5zM336 1417h127q20 0 20 -20q0 -109 99 -109q98 0 98 109q0 20 20 20h127q21 0 21 -20q0 -122 -72 -193t-194 -71t-194.5 71t-72.5 193
q0 20 21 20z" />
    <glyph glyph-name="Gdotaccent" unicode="&#x120;" horiz-adv-x="1460" 
d="M774 741h584q20 0 20 -20v-361q0 -48 -20 -77q-95 -147 -244.5 -225t-325.5 -78q-144 0 -268 46t-220 135t-151 232t-55 324q0 145 37.5 268t101.5 208t150 145t181 88t196 28q231 0 396.5 -117.5t201.5 -324.5q0 -21 -23 -21h-174q-18 0 -24 21q-75 237 -377 237
q-85 0 -164 -34.5t-142 -99.5t-101 -168t-38 -230q0 -253 127 -393t338 -140q264 0 385 183v170h-391q-20 0 -20 20v164q0 20 20 20zM637 1614v205q0 20 20 20h205q21 0 21 -20v-205q0 -21 -21 -21h-205q-20 0 -20 21z" />
    <glyph glyph-name="gdotaccent" unicode="&#x121;" horiz-adv-x="1191" 
d="M588 -426q-181 0 -301 91.5t-137 254.5q0 21 20 21h160q17 0 20 -21q32 -153 244 -153q132 0 199 77.5t67 216.5v48q-69 -57 -139.5 -81t-167.5 -24q-205 0 -334 141.5t-129 380.5q0 240 128 381.5t335 141.5q188 0 307 -107v66q0 20 21 20h159q21 0 21 -20v-926
q0 -253 -119.5 -380.5t-353.5 -127.5zM877 526q0 150 -76 240t-211 90t-211 -90t-76 -240t76 -239.5t211 -89.5t211 89.5t76 239.5zM457 1208v205q0 21 20 21h205q20 0 20 -21v-205q0 -20 -20 -20h-205q-20 0 -20 20z" />
    <glyph glyph-name="Gcommaaccent" unicode="&#x122;" horiz-adv-x="1460" 
d="M774 741h584q20 0 20 -20v-361q0 -48 -20 -77q-95 -147 -244.5 -225t-325.5 -78q-144 0 -268 46t-220 135t-151 232t-55 324q0 145 37.5 268t101.5 208t150 145t181 88t196 28q231 0 396.5 -117.5t201.5 -324.5q0 -21 -23 -21h-174q-18 0 -24 21q-75 237 -377 237
q-85 0 -164 -34.5t-142 -99.5t-101 -168t-38 -230q0 -253 127 -393t338 -140q264 0 385 183v170h-391q-20 0 -20 20v164q0 20 20 20zM698 -426q54 0 74.5 18.5t20.5 67.5v25h-99q-20 0 -20 20v189q0 20 20 20h189q20 0 20 -20v-248q0 -82 -38 -128t-117 -46h-50
q-20 0 -20 20v62q0 20 20 20z" />
    <glyph glyph-name="gcommaaccent" unicode="&#x123;" horiz-adv-x="1191" 
d="M588 -426q-181 0 -301 91.5t-137 254.5q0 21 20 21h160q17 0 20 -21q32 -153 244 -153q132 0 199 77.5t67 216.5v48q-69 -57 -139.5 -81t-167.5 -24q-205 0 -334 141.5t-129 380.5q0 240 128 381.5t335 141.5q188 0 307 -107v66q0 20 21 20h159q21 0 21 -20v-926
q0 -253 -119.5 -380.5t-353.5 -127.5zM877 526q0 150 -76 240t-211 90t-211 -90t-76 -240t76 -239.5t211 -89.5t211 89.5t76 239.5zM690 1477q-65 0 -88.5 -23t-23.5 -80v-24h96q20 0 20 -21v-188q0 -21 -20 -21h-201q-20 0 -20 21v248q0 87 45 138.5t137 51.5h55
q21 0 21 -20v-62q0 -20 -21 -20z" />
    <glyph glyph-name="Hcircumflex" unicode="&#x124;" horiz-adv-x="1388" 
d="M369 645v-625q0 -20 -21 -20h-172q-20 0 -20 20v1393q0 21 20 21h172q21 0 21 -21v-563h651v563q0 21 20 21h172q21 0 21 -21v-1393q0 -20 -21 -20h-172q-20 0 -20 20v625h-651zM795 1823l215 -275q6 -8 2.5 -14t-13.5 -6h-159q-19 0 -37 18l-109 109l-108 -109
q-18 -18 -37 -18h-160q-10 0 -13 6t3 14l215 275q16 16 31 16h139q15 0 31 -16z" />
    <glyph glyph-name="hcircumflex" unicode="&#x125;" horiz-adv-x="1183" 
d="M152 20v1393q0 21 20 21h160q20 0 20 -21v-508q81 73 157 108.5t175 35.5q176 0 272.5 -90.5t96.5 -272.5v-666q0 -20 -21 -20h-160q-20 0 -20 20v615q0 221 -211 221q-119 0 -204 -91.5t-85 -258.5v-486q0 -20 -20 -20h-160q-20 0 -20 20zM573 1823l215 -275q6 -8 3 -14
t-13 -6h-160q-18 0 -36 18l-109 109l-108 -109q-18 -18 -37 -18h-160q-10 0 -13 6t3 14l215 275q16 16 30 16h140q14 0 30 -16z" />
    <glyph glyph-name="Hbar" unicode="&#x126;" horiz-adv-x="1388" 
d="M369 645v-625q0 -20 -21 -20h-172q-20 0 -20 20v1002h-140q-20 0 -20 20v156q0 21 20 21h140v194q0 21 20 21h172q21 0 21 -21v-194h651v194q0 21 20 21h172q21 0 21 -21v-194h139q21 0 21 -21v-156q0 -20 -21 -20h-139v-1002q0 -20 -21 -20h-172q-20 0 -20 20v625h-651z
M369 850h651v172h-651v-172z" />
    <glyph glyph-name="hbar" unicode="&#x127;" horiz-adv-x="1183" 
d="M152 20v1088h-140q-20 0 -20 20v144q0 20 20 20h140v121q0 21 20 21h160q20 0 20 -21v-121h236q20 0 20 -20v-144q0 -20 -20 -20h-236v-203q81 73 157 108.5t175 35.5q176 0 272.5 -90.5t96.5 -272.5v-666q0 -20 -21 -20h-160q-20 0 -20 20v615q0 221 -211 221
q-119 0 -204 -91.5t-85 -258.5v-486q0 -20 -20 -20h-160q-20 0 -20 20z" />
    <glyph glyph-name="Itilde" unicode="&#x128;" horiz-adv-x="516" 
d="M152 20v1393q0 21 20 21h172q21 0 21 -21v-1393q0 -20 -21 -20h-172q-20 0 -20 20zM-102 1769q48 39 109.5 65t107.5 26q53 0 95 -13t64 -29t54 -29t69 -13q33 0 59.5 10t67.5 39q12 4 15 4q10 0 20 -17l72 -102q6 -10 6 -16q0 -12 -12 -21q-48 -39 -109 -64.5
t-108 -25.5q-54 0 -96.5 13t-64.5 29t-54 29t-68 13q-33 0 -59.5 -10t-67.5 -39q-12 -4 -14 -4q-11 0 -21 16l-72 103q-6 10 -6 16q0 10 13 20z" />
    <glyph glyph-name="itilde" unicode="&#x129;" horiz-adv-x="438" 
d="M119 20v988q0 20 20 20h160q20 0 20 -20v-988q0 -20 -20 -20h-160q-20 0 -20 20zM-143 1364q48 39 109 64.5t108 25.5q53 0 95 -13t64 -29t54 -29t69 -13q33 0 59.5 10t67.5 39q12 4 15 4q10 0 20 -16l72 -102q6 -10 6 -17q0 -11 -12 -20q-48 -39 -109 -64.5t-108 -25.5
q-54 0 -96.5 13t-64.5 29t-54 29t-68 13q-32 0 -59 -10.5t-68 -39.5q-12 -4 -14 -4q-11 0 -21 17l-72 102q-6 10 -6 16q0 11 13 21z" />
    <glyph glyph-name="uni012A" unicode="&#x12a;" horiz-adv-x="516" 
d="M152 20v1393q0 21 20 21h172q21 0 21 -21v-1393q0 -20 -21 -20h-172q-20 0 -20 20zM33 1626v143q0 21 20 21h410q20 0 20 -21v-143q0 -20 -20 -20h-410q-20 0 -20 20z" />
    <glyph glyph-name="imacron" unicode="&#x12b;" horiz-adv-x="438" 
d="M119 20v988q0 20 20 20h160q20 0 20 -20v-988q0 -20 -20 -20h-160q-20 0 -20 20zM-6 1221v143q0 20 20 20h410q20 0 20 -20v-143q0 -21 -20 -21h-410q-20 0 -20 21z" />
    <glyph glyph-name="Ibreve" unicode="&#x12c;" horiz-adv-x="516" 
d="M152 20v1393q0 21 20 21h172q21 0 21 -21v-1393q0 -20 -21 -20h-172q-20 0 -20 20zM12 1823h127q21 0 21 -21q0 -108 98 -108t98 108q0 21 21 21h127q20 0 20 -21q0 -122 -72 -193t-194 -71t-194 71t-72 193q0 21 20 21z" />
    <glyph glyph-name="uni012D" unicode="&#x12d;" horiz-adv-x="438" 
d="M119 20v988q0 20 20 20h160q20 0 20 -20v-988q0 -20 -20 -20h-160q-20 0 -20 20zM-27 1417h127q21 0 21 -20q0 -109 98 -109t98 109q0 20 21 20h127q20 0 20 -20q0 -122 -72 -193t-194 -71t-194 71t-72 193q0 20 20 20z" />
    <glyph glyph-name="Iogonek" unicode="&#x12e;" horiz-adv-x="516" 
d="M152 2v1411q0 21 20 21h172q21 0 21 -21v-1393q0 -14 -15 -20q-52 -18 -77 -51t-25 -74q0 -42 29.5 -66t82.5 -24h33q21 0 21 -21v-102q0 -20 -21 -20h-90q-109 0 -178.5 48t-69.5 138q0 55 28 100.5t69 73.5z" />
    <glyph glyph-name="iogonek" unicode="&#x12f;" horiz-adv-x="438" 
d="M119 6v1002q0 20 20 20h160q20 0 20 -20v-988q0 -17 -12 -20q-52 -18 -77 -51t-25 -74q0 -42 29.5 -66t82.5 -24h33q21 0 21 -21v-102q0 -20 -21 -20h-90q-109 0 -178.5 48t-69.5 138q0 58 30.5 105.5t76.5 72.5zM96 1208v205q0 21 21 21h205q20 0 20 -21v-205
q0 -20 -20 -20h-205q-21 0 -21 20z" />
    <glyph glyph-name="Idotaccent" unicode="&#x130;" horiz-adv-x="516" 
d="M152 20v1393q0 21 20 21h172q21 0 21 -21v-1393q0 -20 -21 -20h-172q-20 0 -20 20zM135 1614v205q0 20 21 20h204q21 0 21 -20v-205q0 -21 -21 -21h-204q-21 0 -21 21z" />
    <glyph glyph-name="dotlessi" unicode="&#x131;" horiz-adv-x="438" 
d="M119 20v988q0 20 20 20h160q20 0 20 -20v-988q0 -20 -20 -20h-160q-20 0 -20 20z" />
    <glyph glyph-name="IJ" unicode="&#x132;" horiz-adv-x="1624" 
d="M152 20v1393q0 21 20 21h172q21 0 21 -21v-1393q0 -20 -21 -20h-172q-20 0 -20 20zM1513 1413v-878q0 -278 -129 -416.5t-346 -138.5q-144 0 -251 62.5t-161.5 168t-54.5 238.5q0 20 21 20h172q20 0 20 -20q0 -126 70 -195.5t184 -69.5q132 0 197 85t65 263v881
q0 21 21 21h172q20 0 20 -21z" />
    <glyph glyph-name="ij" unicode="&#x133;" horiz-adv-x="876" 
d="M119 20v988q0 20 20 20h160q20 0 20 -20v-988q0 -20 -20 -20h-160q-20 0 -20 20zM96 1208v205q0 21 21 21h205q20 0 20 -21v-205q0 -20 -20 -20h-205q-21 0 -21 20zM557 -63v1071q0 20 21 20h159q21 0 21 -20v-1063q0 -125 -17 -201t-51 -154q-6 -16 -16 -16q-3 0 -15 4
l-147 55q-16 6 -16 17q0 6 2 10q33 85 46 139.5t13 137.5zM535 1208v205q0 21 20 21h205q20 0 20 -21v-205q0 -20 -20 -20h-205q-20 0 -20 20z" />
    <glyph glyph-name="Jcircumflex" unicode="&#x134;" horiz-adv-x="1107" 
d="M997 1413v-878q0 -278 -129 -416.5t-346 -138.5q-144 0 -251 62.5t-161.5 168t-54.5 238.5q0 20 21 20h172q20 0 20 -20q0 -126 70 -195.5t184 -69.5q132 0 197 85t65 263v881q0 21 21 21h172q20 0 20 -21zM1006 1823l215 -275q6 -8 2.5 -14t-13.5 -6h-159q-19 0 -37 18
l-109 109l-108 -109q-18 -18 -37 -18h-160q-10 0 -13 6t3 14l215 275q16 16 31 16h139q15 0 31 -16z" />
    <glyph glyph-name="jcircumflex" unicode="&#x135;" horiz-adv-x="438" 
d="M119 -63v1071q0 20 20 20h160q20 0 20 -20v-1063q0 -125 -16.5 -201.5t-50.5 -153.5q-6 -16 -16 -16q-3 0 -15 4l-147 55q-17 7 -17 17q0 6 2 10q23 60 33 90.5t18.5 79.5t8.5 107zM319 1417l216 -274q6 -7 2.5 -14t-13.5 -7h-159q-18 0 -37 19l-109 108l-108 -108
q-19 -19 -37 -19h-160q-10 0 -13 7t3 14l215 274q17 17 31 17h139q13 0 30 -17z" />
    <glyph glyph-name="Kcommaaccent" unicode="&#x136;" horiz-adv-x="1257" 
d="M373 1413v-561l522 561l5 5l5 5l4 4t4.5 3.5t4 1.5t5 1.5t5.5 0.5h213q17 0 20 -9t-8 -20l-467 -500l555 -876q7 -12 2 -20.5t-16 -8.5h-205q-11 0 -18.5 6.5t-18.5 24.5l-453 708l-159 -172v-547q0 -20 -21 -20h-172q-20 0 -20 20v1393q0 21 20 21h172q21 0 21 -21z
M575 -426q54 0 74.5 18.5t20.5 67.5v25h-99q-20 0 -20 20v189q0 20 20 20h189q20 0 20 -20v-248q0 -82 -38 -128t-117 -46h-50q-20 0 -20 20v62q0 20 20 20z" />
    <glyph glyph-name="kcommaaccent" unicode="&#x137;" horiz-adv-x="1081" 
d="M995 997l-362 -340l411 -626q1 -2 2 -5.5t2 -5.5t1 -4q0 -16 -19 -16h-184q-22 0 -33 18l-332 498l-129 -121v-375q0 -20 -20 -20h-160q-20 0 -20 20v1393q0 21 20 21h160q20 0 20 -21v-772l391 369q18 18 33 18h211q17 0 17 -14q0 -8 -9 -17zM494 -426q54 0 74 18.5
t20 67.5v25h-99q-20 0 -20 20v189q0 20 20 20h189q20 0 20 -20v-248q0 -82 -38 -128t-117 -46h-49q-21 0 -21 20v62q0 20 21 20z" />
    <glyph glyph-name="kgreenlandic" unicode="&#x138;" horiz-adv-x="1089" 
d="M995 997l-362 -340l411 -626q5 -10 5 -15q0 -16 -19 -16h-184q-24 0 -33 18l-332 498l-129 -121v-375q0 -20 -20 -20h-160q-20 0 -20 20v988q0 20 20 20h160q20 0 20 -20v-367l391 369q18 18 33 18h211q17 0 17 -14q0 -8 -9 -17z" />
    <glyph glyph-name="Lacute" unicode="&#x139;" horiz-adv-x="1183" 
d="M160 20v1393q0 21 20 21h172q21 0 21 -21v-1208h714q21 0 21 -21v-164q0 -20 -21 -20h-907q-20 0 -20 20zM174 1561l141 258q11 20 31 20h227q10 0 13.5 -6.5t-2.5 -13.5l-211 -260q-14 -19 -37 -19h-152q-10 0 -12.5 7t2.5 14z" />
    <glyph glyph-name="lacute" unicode="&#x13a;" horiz-adv-x="487" 
d="M143 20v1393q0 21 21 21h160q20 0 20 -21v-1393q0 -20 -20 -20h-160q-21 0 -21 20zM158 1561l141 258q11 20 31 20h227q10 0 13 -6.5t-3 -13.5l-211 -260q-14 -19 -37 -19h-151q-10 0 -12.5 7t2.5 14z" />
    <glyph glyph-name="Lcommaaccent" unicode="&#x13b;" horiz-adv-x="1183" 
d="M160 20v1393q0 21 20 21h172q21 0 21 -21v-1208h714q21 0 21 -21v-164q0 -20 -21 -20h-907q-20 0 -20 20zM555 -426q54 0 74 18.5t20 67.5v25h-98q-21 0 -21 20v189q0 20 21 20h188q21 0 21 -20v-248q0 -81 -38.5 -127.5t-117.5 -46.5h-49q-20 0 -20 20v62q0 20 20 20z
" />
    <glyph glyph-name="lcommaaccent" unicode="&#x13c;" horiz-adv-x="487" 
d="M143 20v1393q0 21 21 21h160q20 0 20 -21v-1393q0 -20 -20 -20h-160q-21 0 -21 20zM154 -426q54 0 74 18.5t20 67.5v25h-98q-21 0 -21 20v189q0 20 21 20h188q20 0 20 -20v-248q0 -82 -38 -128t-117 -46h-49q-21 0 -21 20v62q0 20 21 20z" />
    <glyph glyph-name="Lcaron" unicode="&#x13d;" horiz-adv-x="1183" 
d="M160 20v1393q0 21 20 21h172q21 0 21 -21v-1208h714q21 0 21 -21v-164q0 -20 -21 -20h-907q-20 0 -20 20zM631 1077q65 0 88.5 23t23.5 80v24h-96q-20 0 -20 21v188q0 21 20 21h201q20 0 20 -21v-248q0 -87 -45 -138.5t-137 -51.5h-55q-21 0 -21 20v62q0 20 21 20z" />
    <glyph glyph-name="lcaron" unicode="&#x13e;" horiz-adv-x="765" 
d="M143 20v1393q0 21 21 21h160q20 0 20 -21v-1393q0 -20 -20 -20h-160q-21 0 -21 20zM492 1077q65 0 88.5 23t23.5 80v24h-96q-21 0 -21 21v188q0 21 21 21h201q20 0 20 -21v-248q0 -87 -45 -138.5t-137 -51.5h-55q-21 0 -21 20v62q0 20 21 20z" />
    <glyph glyph-name="Ldot" unicode="&#x13f;" horiz-adv-x="1183" 
d="M160 20v1393q0 21 20 21h172q21 0 21 -21v-1208h714q21 0 21 -21v-164q0 -20 -21 -20h-907q-20 0 -20 20zM590 844h188q21 0 21 -21v-188q0 -21 -21 -21h-188q-21 0 -21 21v188q0 21 21 21z" />
    <glyph glyph-name="ldot" unicode="&#x140;" horiz-adv-x="778" 
d="M143 20v1393q0 21 21 21h160q20 0 20 -21v-1393q0 -20 -20 -20h-160q-21 0 -21 20zM508 844h188q21 0 21 -21v-188q0 -21 -21 -21h-188q-21 0 -21 21v188q0 21 21 21z" />
    <glyph glyph-name="Lslash" unicode="&#x141;" horiz-adv-x="1183" 
d="M180 20v453l-106 -55q-19 -10 -29 10l-70 131q-9 20 9 29l196 104v721q0 21 21 21h172q20 0 20 -21v-608l275 145q18 9 28 -10l70 -131q9 -21 -8 -29l-365 -194v-381h699q20 0 20 -21v-164q0 -20 -20 -20h-891q-21 0 -21 20z" />
    <glyph glyph-name="lslash" unicode="&#x142;" horiz-adv-x="595" 
d="M-37 627l238 127v659q0 21 20 21h160q20 0 20 -21v-551l148 80q19 10 29 -10l69 -131q9 -21 -8 -29l-238 -129v-623q0 -20 -20 -20h-160q-20 0 -20 20v517l-148 -80q-18 -9 -28 10l-70 131q-9 21 8 29z" />
    <glyph glyph-name="Nacute" unicode="&#x143;" horiz-adv-x="1425" 
d="M1245 0h-186q-26 0 -33 16l-653 1049v-1045q0 -20 -21 -20h-172q-20 0 -20 20v1393q0 21 20 21h187q25 0 32 -17l654 -1048v1044q0 21 20 21h172q21 0 21 -21v-1393q0 -20 -21 -20zM580 1561l141 258q11 20 31 20h227q10 0 13 -6.5t-3 -13.5l-211 -260q-14 -19 -37 -19
h-151q-10 0 -12.5 7t2.5 14z" />
    <glyph glyph-name="nacute" unicode="&#x144;" horiz-adv-x="1167" 
d="M152 20v988q0 20 20 20h160q20 0 20 -20v-93q144 134 326 134q170 0 262 -94t92 -265v-670q0 -20 -20 -20h-160q-21 0 -21 20v611q0 225 -204 225q-116 0 -195.5 -91t-79.5 -259v-486q0 -20 -20 -20h-160q-20 0 -20 20zM465 1155l141 258q12 21 31 21h227q10 0 13 -7
t-3 -14l-210 -260q-13 -18 -37 -18h-152q-10 0 -12.5 6.5t2.5 13.5z" />
    <glyph glyph-name="Ncommaaccent" unicode="&#x145;" horiz-adv-x="1425" 
d="M1245 0h-186q-26 0 -33 16l-653 1049v-1045q0 -20 -21 -20h-172q-20 0 -20 20v1393q0 21 20 21h187q25 0 32 -17l654 -1048v1044q0 21 20 21h172q21 0 21 -21v-1393q0 -20 -21 -20zM631 -426q54 0 74 18.5t20 67.5v25h-98q-21 0 -21 20v189q0 20 21 20h188q21 0 21 -20
v-248q0 -81 -38.5 -127.5t-117.5 -46.5h-49q-21 0 -21 20v62q0 20 21 20z" />
    <glyph glyph-name="ncommaaccent" unicode="&#x146;" horiz-adv-x="1167" 
d="M152 20v988q0 20 20 20h160q20 0 20 -20v-93q144 134 326 134q170 0 262 -94t92 -265v-670q0 -20 -20 -20h-160q-21 0 -21 20v611q0 225 -204 225q-116 0 -195.5 -91t-79.5 -259v-486q0 -20 -20 -20h-160q-20 0 -20 20zM514 -426q54 0 74 18.5t20 67.5v25h-98
q-21 0 -21 20v189q0 20 21 20h188q21 0 21 -20v-248q0 -81 -38.5 -127.5t-117.5 -46.5h-49q-20 0 -20 20v62q0 20 20 20z" />
    <glyph glyph-name="Ncaron" unicode="&#x147;" horiz-adv-x="1425" 
d="M1245 0h-186q-26 0 -33 16l-653 1049v-1045q0 -20 -21 -20h-172q-20 0 -20 20v1393q0 21 20 21h187q25 0 32 -17l654 -1048v1044q0 21 20 21h172q21 0 21 -21v-1393q0 -20 -21 -20zM1028 1819l-215 -275q-16 -16 -31 -16h-139q-15 0 -31 16l-215 275q-6 7 -2.5 13.5
t13.5 6.5h159q19 0 37 -18l109 -109l108 109q18 18 37 18h160q10 0 13 -6.5t-3 -13.5z" />
    <glyph glyph-name="ncaron" unicode="&#x148;" horiz-adv-x="1167" 
d="M152 20v988q0 20 20 20h160q20 0 20 -20v-93q144 134 326 134q170 0 262 -94t92 -265v-670q0 -20 -20 -20h-160q-21 0 -21 20v611q0 225 -204 225q-116 0 -195.5 -91t-79.5 -259v-486q0 -20 -20 -20h-160q-20 0 -20 20zM954 1413l-215 -274q-17 -17 -30 -17h-140
q-13 0 -30 17l-215 274q-6 7 -3 14t13 7h160q17 0 36 -19l109 -108l109 108q19 19 36 19h160q10 0 13 -7t-3 -14z" />
    <glyph glyph-name="napostrophe" unicode="&#x149;" horiz-adv-x="1335" 
d="M319 20v988q0 20 21 20h160q20 0 20 -20v-93q144 134 326 134q170 0 262 -94t92 -265v-670q0 -20 -20 -20h-160q-21 0 -21 20v611q0 225 -204 225q-116 0 -195.5 -91t-79.5 -259v-486q0 -20 -20 -20h-160q-21 0 -21 20zM55 1139q65 0 89 22.5t24 79.5v25h-96
q-21 0 -21 20v189q0 20 21 20h200q21 0 21 -20v-248q0 -87 -45 -139t-137 -52h-56q-20 0 -20 21v61q0 21 20 21z" />
    <glyph glyph-name="Eng" unicode="&#x14a;" horiz-adv-x="1425" 
d="M778 -221q79 0 127 8t83.5 32t50 67.5t14.5 113.5l-680 1065v-1045q0 -20 -21 -20h-172q-20 0 -20 20v1393q0 21 20 21h187q25 0 32 -17l654 -1018v1014q0 21 20 21h172q21 0 21 -21v-1413q0 -240 -108.5 -333t-379.5 -93q-20 0 -20 20v164q0 21 20 21z" />
    <glyph glyph-name="eng" unicode="&#x14b;" horiz-adv-x="1159" 
d="M152 20v988q0 20 20 20h160q20 0 20 -20v-93q144 134 326 134q170 0 262 -94t92 -265v-745q0 -125 -16.5 -201.5t-50.5 -153.5q-6 -16 -17 -16q-2 0 -14 4l-148 55q-16 6 -16 17q0 6 2 10q33 85 46 139.5t13 137.5v694q0 225 -204 225q-116 0 -195.5 -91t-79.5 -259v-486
q0 -20 -20 -20h-160q-20 0 -20 20z" />
    <glyph glyph-name="Omacron" unicode="&#x14c;" horiz-adv-x="1572" 
d="M786 -20q-107 0 -206.5 28t-188 88t-154.5 145t-104.5 207.5t-38.5 268.5t38.5 268.5t104.5 207.5t154.5 145t188 88t206.5 28t206.5 -28t188.5 -88t155 -145t104.5 -207.5t38.5 -268.5t-38.5 -268.5t-104.5 -207.5t-155 -145t-188.5 -88t-206.5 -28zM786 184
q95 0 178.5 33t149.5 97t104.5 168t38.5 235t-38.5 235t-104.5 167.5t-149.5 96.5t-178.5 33t-178.5 -33t-149.5 -96.5t-104.5 -167.5t-38.5 -235t38.5 -235t104.5 -168t149.5 -97t178.5 -33zM561 1626v143q0 21 21 21h409q21 0 21 -21v-143q0 -20 -21 -20h-409
q-21 0 -21 20z" />
    <glyph glyph-name="omacron" unicode="&#x14d;" horiz-adv-x="1249" 
d="M90 514q0 235 152.5 385t382.5 150t382 -150t152 -385t-152 -384.5t-382 -149.5t-382.5 149.5t-152.5 384.5zM303 514q0 -153 90 -247.5t232 -94.5t231.5 94.5t89.5 247.5t-89.5 247.5t-231.5 94.5t-232 -94.5t-90 -247.5zM399 1221v143q0 20 21 20h409q21 0 21 -20v-143
q0 -21 -21 -21h-409q-21 0 -21 21z" />
    <glyph glyph-name="Obreve" unicode="&#x14e;" horiz-adv-x="1572" 
d="M786 -20q-107 0 -206.5 28t-188 88t-154.5 145t-104.5 207.5t-38.5 268.5t38.5 268.5t104.5 207.5t154.5 145t188 88t206.5 28t206.5 -28t188.5 -88t155 -145t104.5 -207.5t38.5 -268.5t-38.5 -268.5t-104.5 -207.5t-155 -145t-188.5 -88t-206.5 -28zM786 184
q95 0 178.5 33t149.5 97t104.5 168t38.5 235t-38.5 235t-104.5 167.5t-149.5 96.5t-178.5 33t-178.5 -33t-149.5 -96.5t-104.5 -167.5t-38.5 -235t38.5 -235t104.5 -168t149.5 -97t178.5 -33zM541 1823h127q20 0 20 -21q0 -108 98 -108q99 0 99 108q0 21 20 21h127
q21 0 21 -21q0 -122 -72.5 -193t-194.5 -71t-194 71t-72 193q0 21 21 21z" />
    <glyph glyph-name="obreve" unicode="&#x14f;" horiz-adv-x="1249" 
d="M90 514q0 235 152.5 385t382.5 150t382 -150t152 -385t-152 -384.5t-382 -149.5t-382.5 149.5t-152.5 384.5zM303 514q0 -153 90 -247.5t232 -94.5t231.5 94.5t89.5 247.5t-89.5 247.5t-231.5 94.5t-232 -94.5t-90 -247.5zM379 1417h127q20 0 20 -20q0 -109 99 -109
q98 0 98 109q0 20 20 20h127q21 0 21 -20q0 -122 -72 -193t-194 -71t-194.5 71t-72.5 193q0 20 21 20z" />
    <glyph glyph-name="Ohungarumlaut" unicode="&#x150;" horiz-adv-x="1572" 
d="M786 -20q-107 0 -206.5 28t-188 88t-154.5 145t-104.5 207.5t-38.5 268.5t38.5 268.5t104.5 207.5t154.5 145t188 88t206.5 28t206.5 -28t188.5 -88t155 -145t104.5 -207.5t38.5 -268.5t-38.5 -268.5t-104.5 -207.5t-155 -145t-188.5 -88t-206.5 -28zM786 184
q95 0 178.5 33t149.5 97t104.5 168t38.5 235t-38.5 235t-104.5 167.5t-149.5 96.5t-178.5 33t-178.5 -33t-149.5 -96.5t-104.5 -167.5t-38.5 -235t38.5 -235t104.5 -168t149.5 -97t178.5 -33zM479 1561l142 258q11 20 30 20h228q10 0 13 -6.5t-3 -13.5l-211 -260
q-14 -19 -37 -19h-152q-10 0 -12.5 7t2.5 14zM856 1561l141 258q11 20 31 20h227q10 0 13.5 -6.5t-2.5 -13.5l-211 -260q-14 -19 -37 -19h-152q-10 0 -12.5 7t2.5 14z" />
    <glyph glyph-name="ohungarumlaut" unicode="&#x151;" horiz-adv-x="1249" 
d="M90 514q0 235 152.5 385t382.5 150t382 -150t152 -385t-152 -384.5t-382 -149.5t-382.5 149.5t-152.5 384.5zM303 514q0 -153 90 -247.5t232 -94.5t231.5 94.5t89.5 247.5t-89.5 247.5t-231.5 94.5t-232 -94.5t-90 -247.5zM293 1155l141 258q12 21 31 21h227q10 0 13 -7
t-3 -14l-210 -260q-13 -18 -37 -18h-152q-10 0 -12.5 6.5t2.5 13.5zM670 1155l141 258q12 21 31 21h227q10 0 13 -7t-3 -14l-211 -260q-13 -18 -37 -18h-151q-10 0 -12.5 6.5t2.5 13.5z" />
    <glyph glyph-name="OE" unicode="&#x152;" horiz-adv-x="2318" 
d="M786 -20q-107 0 -206.5 28t-188 88t-154.5 145t-104.5 207.5t-38.5 268.5t38.5 268.5t104.5 207.5t154.5 145t188 88t206.5 28q142 0 271.5 -50t224.5 -149v158q0 21 21 21h854q20 0 20 -21v-164q0 -20 -20 -20h-662v-373h600q21 0 21 -20v-164q0 -21 -21 -21h-600v-446
h692q21 0 21 -21v-164q0 -20 -21 -20h-884q-21 0 -21 20v158q-95 -99 -224.5 -148.5t-271.5 -49.5zM786 184q95 0 178.5 33t149.5 97t104.5 168t38.5 235t-38.5 235t-104.5 167.5t-149.5 96.5t-178.5 33t-178.5 -33t-149.5 -96.5t-104.5 -167.5t-38.5 -235t38.5 -235
t104.5 -168t149.5 -97t178.5 -33z" />
    <glyph glyph-name="oe" unicode="&#x153;" horiz-adv-x="2091" 
d="M1489 172q106 0 173 36.5t105 117.5q9 18 29 18h174q15 0 15 -14q0 -9 -5 -21q-65 -170 -186.5 -249.5t-304.5 -79.5q-138 0 -248 56t-180 157q-73 -101 -185.5 -157t-250.5 -56q-230 0 -382.5 149.5t-152.5 384.5t152.5 385t382.5 150q139 0 251.5 -56t184.5 -159
q70 101 180.5 158t245.5 57q159 0 278.5 -74t179.5 -196t60 -271v-39q0 -20 -20 -20h-803q17 -130 98 -203.5t209 -73.5zM303 514q0 -153 90 -247.5t232 -94.5t231.5 94.5t89.5 247.5t-89.5 247.5t-231.5 94.5t-232 -94.5t-90 -247.5zM1487 856q-102 0 -184.5 -56.5
t-110.5 -166.5h594q-26 108 -106 165.5t-193 57.5z" />
    <glyph glyph-name="Racute" unicode="&#x154;" horiz-adv-x="1259" 
d="M160 20v1393q0 21 20 21h535q203 0 316.5 -99t113.5 -286q0 -137 -74 -233.5t-190 -135.5l309 -660q9 -20 -16 -20h-189q-18 0 -29 20l-315 644h-268v-644q0 -20 -21 -20h-172q-20 0 -20 20zM373 1229v-361h350q102 0 155.5 47t53.5 134t-53.5 133.5t-155.5 46.5h-350z
M440 1561l142 258q11 20 30 20h228q10 0 13 -6.5t-3 -13.5l-211 -260q-14 -19 -37 -19h-151q-10 0 -13 7t2 14z" />
    <glyph glyph-name="racute" unicode="&#x155;" horiz-adv-x="884" 
d="M829 979v-162q0 -22 -16 -22q-2 0 -14 4q-65 32 -111 44.5t-104 12.5q-104 0 -168 -78t-64 -223v-535q0 -20 -20 -20h-160q-20 0 -20 20v988q0 20 20 20h160q20 0 20 -20v-80q111 121 271 121q103 0 182 -33q16 -6 20 -12.5t4 -24.5zM336 1155l141 258q12 21 31 21h227
q10 0 13 -7t-3 -14l-210 -260q-13 -18 -37 -18h-152q-10 0 -12.5 6.5t2.5 13.5z" />
    <glyph glyph-name="Rcommaaccent" unicode="&#x156;" horiz-adv-x="1259" 
d="M160 20v1393q0 21 20 21h535q203 0 316.5 -99t113.5 -286q0 -137 -74 -233.5t-190 -135.5l309 -660q9 -20 -16 -20h-189q-18 0 -29 20l-315 644h-268v-644q0 -20 -21 -20h-172q-20 0 -20 20zM373 1229v-361h350q102 0 155.5 47t53.5 134t-53.5 133.5t-155.5 46.5h-350z
M543 -426q54 0 74 18.5t20 67.5v25h-98q-21 0 -21 20v189q0 20 21 20h188q21 0 21 -20v-248q0 -81 -38.5 -127.5t-117.5 -46.5h-49q-21 0 -21 20v62q0 20 21 20z" />
    <glyph glyph-name="rcommaaccent" unicode="&#x157;" horiz-adv-x="884" 
d="M829 979v-162q0 -22 -16 -22q-2 0 -14 4q-65 32 -111 44.5t-104 12.5q-104 0 -168 -78t-64 -223v-535q0 -20 -20 -20h-160q-20 0 -20 20v988q0 20 20 20h160q20 0 20 -20v-80q111 121 271 121q103 0 182 -33q16 -6 20 -12.5t4 -24.5zM285 -426q54 0 74 18.5t20 67.5v25
h-98q-21 0 -21 20v189q0 20 21 20h188q20 0 20 -20v-248q0 -82 -38 -128t-117 -46h-49q-21 0 -21 20v62q0 20 21 20z" />
    <glyph glyph-name="Rcaron" unicode="&#x158;" horiz-adv-x="1259" 
d="M160 20v1393q0 21 20 21h535q203 0 316.5 -99t113.5 -286q0 -137 -74 -233.5t-190 -135.5l309 -660q9 -20 -16 -20h-189q-18 0 -29 20l-315 644h-268v-644q0 -20 -21 -20h-172q-20 0 -20 20zM373 1229v-361h350q102 0 155.5 47t53.5 134t-53.5 133.5t-155.5 46.5h-350z
M901 1819l-215 -275q-16 -16 -31 -16h-139q-15 0 -31 16l-215 275q-6 7 -2.5 13.5t13.5 6.5h159q19 0 37 -18l109 -109l108 109q18 18 37 18h160q10 0 13 -6.5t-3 -13.5z" />
    <glyph glyph-name="rcaron" unicode="&#x159;" horiz-adv-x="884" 
d="M829 979v-162q0 -22 -16 -22q-2 0 -14 4q-65 32 -111 44.5t-104 12.5q-104 0 -168 -78t-64 -223v-535q0 -20 -20 -20h-160q-20 0 -20 20v988q0 20 20 20h160q20 0 20 -20v-80q111 121 271 121q103 0 182 -33q16 -6 20 -12.5t4 -24.5zM791 1413l-216 -274q-17 -17 -30 -17
h-139q-14 0 -31 17l-215 274q-6 7 -3 14t13 7h160q18 0 37 -19l108 -108l109 108q19 19 37 19h159q10 0 13.5 -7t-2.5 -14z" />
    <glyph glyph-name="Sacute" unicode="&#x15a;" horiz-adv-x="1208" 
d="M98 1059q0 125 69.5 216.5t180 135t244.5 43.5q116 0 212 -34t158 -91.5t97 -131t37 -155.5q0 -20 -21 -20h-172q-17 0 -20 20q-10 97 -90.5 152t-200.5 55q-127 0 -204 -46t-77 -134q0 -50 26 -89t79.5 -68t110.5 -48.5t145 -42.5q80 -21 144 -44.5t127.5 -58t105.5 -75
t68 -96.5t26 -121q0 -215 -146 -330.5t-395 -115.5q-227 0 -384 135t-157 331q0 21 21 21h172q20 0 20 -21q8 -123 94.5 -192.5t233.5 -69.5q328 0 328 230q0 79 -93 133.5t-259 95.5q-116 29 -199 62.5t-149 82.5t-99 116.5t-33 154.5zM434 1561l141 258q11 20 31 20h228
q10 0 13 -6.5t-3 -13.5l-211 -260q-14 -19 -37 -19h-152q-10 0 -12.5 7t2.5 14z" />
    <glyph glyph-name="sacute" unicode="&#x15b;" horiz-adv-x="1024" 
d="M940 301q0 -150 -118 -235.5t-310 -85.5q-187 0 -307.5 93.5t-132.5 252.5q0 20 20 20h172q18 0 21 -20q25 -154 233 -154q209 0 209 129q0 53 -61.5 84.5t-212.5 56.5q-185 31 -270 102.5t-85 196.5q0 103 59 174.5t146.5 102.5t194.5 31q176 0 286.5 -85.5
t122.5 -222.5q0 -20 -20 -20h-174q-13 0 -19 16q-1 3 -2 4q-39 115 -205 115q-77 0 -132.5 -26t-55.5 -78q0 -59 57.5 -92t212.5 -62q88 -16 150 -36.5t115 -54t79.5 -85t26.5 -121.5zM342 1155l141 258q12 21 31 21h227q10 0 13.5 -7t-2.5 -14l-211 -260q-13 -18 -37 -18
h-152q-10 0 -12.5 6.5t2.5 13.5z" />
    <glyph glyph-name="Scircumflex" unicode="&#x15c;" horiz-adv-x="1208" 
d="M98 1059q0 125 69.5 216.5t180 135t244.5 43.5q116 0 212 -34t158 -91.5t97 -131t37 -155.5q0 -20 -21 -20h-172q-17 0 -20 20q-10 97 -90.5 152t-200.5 55q-127 0 -204 -46t-77 -134q0 -50 26 -89t79.5 -68t110.5 -48.5t145 -42.5q80 -21 144 -44.5t127.5 -58t105.5 -75
t68 -96.5t26 -121q0 -215 -146 -330.5t-395 -115.5q-227 0 -384 135t-157 331q0 21 21 21h172q20 0 20 -21q8 -123 94.5 -192.5t233.5 -69.5q328 0 328 230q0 79 -93 133.5t-259 95.5q-116 29 -199 62.5t-149 82.5t-99 116.5t-33 154.5zM692 1823l215 -275q6 -8 3 -14
t-13 -6h-160q-19 0 -37 18l-108 109l-109 -109q-18 -18 -37 -18h-159q-10 0 -13.5 6t2.5 14l216 275q16 16 30 16h140q14 0 30 -16z" />
    <glyph glyph-name="scircumflex" unicode="&#x15d;" horiz-adv-x="1024" 
d="M940 301q0 -150 -118 -235.5t-310 -85.5q-187 0 -307.5 93.5t-132.5 252.5q0 20 20 20h172q18 0 21 -20q25 -154 233 -154q209 0 209 129q0 53 -61.5 84.5t-212.5 56.5q-185 31 -270 102.5t-85 196.5q0 103 59 174.5t146.5 102.5t194.5 31q176 0 286.5 -85.5
t122.5 -222.5q0 -20 -20 -20h-174q-13 0 -19 16q-1 3 -2 4q-39 115 -205 115q-77 0 -132.5 -26t-55.5 -78q0 -59 57.5 -92t212.5 -62q88 -16 150 -36.5t115 -54t79.5 -85t26.5 -121.5zM594 1417l215 -274q6 -7 3 -14t-13 -7h-160q-18 0 -37 19l-108 108l-109 -108
q-19 -19 -37 -19h-160q-10 0 -13 7t3 14l215 274q17 17 31 17h139q14 0 31 -17z" />
    <glyph glyph-name="Scedilla" unicode="&#x15e;" horiz-adv-x="1208" 
d="M512 -227l-41 39q-6 6 -6 14t2 12l45 148q-195 25 -323 155t-128 305q0 21 21 21h172q20 0 20 -21q8 -123 94.5 -192.5t233.5 -69.5q328 0 328 230q0 79 -93 133.5t-259 95.5q-116 29 -199 62.5t-149 82.5t-99 116.5t-33 154.5q0 125 69.5 216.5t180 135t244.5 43.5
q116 0 212 -34t158 -91.5t97 -131t37 -155.5q0 -20 -21 -20h-172q-17 0 -20 20q-10 97 -90.5 152t-200.5 55q-127 0 -204 -46t-77 -134q0 -50 26 -89t79.5 -68t110.5 -48.5t145 -42.5q80 -21 144 -44.5t127.5 -58t105.5 -75t68 -96.5t26 -121q0 -207 -133.5 -322.5
t-362.5 -123.5l-45 -97q58 15 107 15q91 0 136.5 -40t45.5 -114q0 -89 -58.5 -129.5t-173.5 -40.5q-133 0 -206 20q-2 1 -5 2q-15 11 -16 19v80q0 20 21 20q10 0 64.5 -13t121.5 -13q48 0 68 11t20 40q0 47 -74 47q-38 0 -112 -18q-4 -2 -13 -2q-10 0 -16 6z" />
    <glyph glyph-name="scedilla" unicode="&#x15f;" horiz-adv-x="1024" 
d="M381 -227l-41 39q-6 6 -6 14t2 12l47 156q-136 30 -218.5 116.5t-92.5 215.5q0 20 20 20h172q18 0 21 -20q25 -154 233 -154q213 0 213 129q0 53 -63 84.5t-215 56.5q-185 31 -270 102.5t-85 196.5q0 103 59 174.5t146.5 102.5t194.5 31q176 0 286.5 -85.5t122.5 -222.5
q0 -20 -20 -20h-174q-13 0 -19 16q-1 3 -2 4q-39 115 -205 115q-77 0 -132.5 -26t-55.5 -78q0 -59 57.5 -92t212.5 -62q88 -16 150 -36.5t115 -54t79.5 -85t26.5 -121.5q0 -149 -117.5 -235t-308.5 -86l-43 -97q58 15 107 15q91 0 136.5 -40t45.5 -114q0 -89 -58.5 -129.5
t-173.5 -40.5q-133 0 -206 20q-2 1 -5 2q-15 11 -16 19v80q0 20 21 20q10 0 64.5 -13t121.5 -13q48 0 68 11t20 40q0 47 -74 47q-38 0 -112 -18q-4 -2 -13 -2q-10 0 -16 6z" />
    <glyph glyph-name="Scaron" unicode="&#x160;" horiz-adv-x="1208" 
d="M98 1059q0 125 69.5 216.5t180 135t244.5 43.5q116 0 212 -34t158 -91.5t97 -131t37 -155.5q0 -20 -21 -20h-172q-17 0 -20 20q-10 97 -90.5 152t-200.5 55q-127 0 -204 -46t-77 -134q0 -50 26 -89t79.5 -68t110.5 -48.5t145 -42.5q80 -21 144 -44.5t127.5 -58t105.5 -75
t68 -96.5t26 -121q0 -215 -146 -330.5t-395 -115.5q-227 0 -384 135t-157 331q0 21 21 21h172q20 0 20 -21q8 -123 94.5 -192.5t233.5 -69.5q328 0 328 230q0 79 -93 133.5t-259 95.5q-116 29 -199 62.5t-149 82.5t-99 116.5t-33 154.5zM924 1819l-215 -275q-16 -16 -31 -16
h-139q-15 0 -31 16l-215 275q-6 7 -3 13.5t13 6.5h160q19 0 37 -18l108 -109l109 109q18 18 37 18h159q10 0 13.5 -6.5t-2.5 -13.5z" />
    <glyph glyph-name="scaron" unicode="&#x161;" horiz-adv-x="1024" 
d="M940 301q0 -150 -118 -235.5t-310 -85.5q-187 0 -307.5 93.5t-132.5 252.5q0 20 20 20h172q18 0 21 -20q25 -154 233 -154q209 0 209 129q0 53 -61.5 84.5t-212.5 56.5q-185 31 -270 102.5t-85 196.5q0 103 59 174.5t146.5 102.5t194.5 31q176 0 286.5 -85.5
t122.5 -222.5q0 -20 -20 -20h-174q-13 0 -19 16q-1 3 -2 4q-39 115 -205 115q-77 0 -132.5 -26t-55.5 -78q0 -59 57.5 -92t212.5 -62q88 -16 150 -36.5t115 -54t79.5 -85t26.5 -121.5zM831 1413l-215 -274q-17 -17 -30 -17h-140q-13 0 -30 17l-215 274q-6 7 -3 14t13 7h160
q18 0 37 -19l108 -108l109 108q19 19 37 19h159q10 0 13 -7t-3 -14z" />
    <glyph glyph-name="uni0162" unicode="&#x162;" horiz-adv-x="1155" 
d="M504 -227l-41 39q-6 6 -6 14t2 12l49 162h-16q-21 0 -21 20v1209h-412q-20 0 -20 20v164q0 21 20 21h1037q20 0 20 -21v-164q0 -20 -20 -20h-412v-1209q0 -20 -20 -20h-17l-53 -117q58 15 106 15q91 0 137 -40.5t46 -113.5q0 -89 -58.5 -129.5t-173.5 -40.5
q-134 0 -207 20q-1 1 -4 2q-15 11 -16 19v80q0 20 20 20q10 0 65 -13t122 -13q48 0 68 11t20 40q0 47 -74 47q-39 0 -113 -18q-4 -2 -12 -2q-10 0 -16 6z" />
    <glyph glyph-name="uni0163" unicode="&#x163;" horiz-adv-x="860" 
d="M385 -227l-41 39q-6 6 -6 14t2 12l55 180q-153 81 -153 287v531h-181q-20 0 -20 20v152q0 20 20 20h181v295q0 20 20 20h160q20 0 20 -20v-295h326q20 0 20 -20v-152q0 -20 -20 -20h-326v-496q0 -168 154 -168q96 0 184 33q4 2 13 2q16 0 16 -19v-139q0 -11 -0.5 -16
t-4 -10.5t-11.5 -8.5q-87 -34 -215 -34q-22 0 -58 4l-45 -101q58 15 107 15q91 0 136.5 -40t45.5 -114q0 -89 -58.5 -129.5t-173.5 -40.5q-133 0 -206 20q-2 1 -5 2q-15 11 -16 19v80q0 20 21 20q10 0 64.5 -13t121.5 -13q48 0 68 11t20 40q0 47 -74 47q-38 0 -112 -18
q-4 -2 -13 -2q-10 0 -16 6z" />
    <glyph glyph-name="Tcaron" unicode="&#x164;" horiz-adv-x="1155" 
d="M39 1249v164q0 21 20 21h1037q20 0 20 -21v-164q0 -20 -20 -20h-412v-1209q0 -20 -20 -20h-172q-21 0 -21 20v1209h-412q-20 0 -20 20zM893 1819l-215 -275q-16 -16 -31 -16h-139q-15 0 -31 16l-215 275q-6 7 -3 13.5t13 6.5h160q19 0 37 -18l109 -109l108 109
q18 18 37 18h160q10 0 13 -6.5t-3 -13.5z" />
    <glyph glyph-name="tcaron" unicode="&#x165;" horiz-adv-x="956" 
d="M442 1028h326q20 0 20 -20v-152q0 -20 -20 -20h-326v-496q0 -168 154 -168q96 0 184 33q4 2 13 2q16 0 16 -19v-139q0 -11 -0.5 -16t-4 -10.5t-11.5 -8.5q-87 -34 -215 -34q-156 0 -246 84.5t-90 240.5v531h-181q-20 0 -20 20v152q0 20 20 20h181v295q0 20 20 20h160
q20 0 20 -20v-295zM676 1204q65 0 88.5 23t23.5 80v24h-96q-20 0 -20 21v188q0 21 20 21h201q20 0 20 -21v-248q0 -87 -45 -138.5t-137 -51.5h-55q-21 0 -21 20v62q0 20 21 20z" />
    <glyph glyph-name="Tbar" unicode="&#x166;" horiz-adv-x="1155" 
d="M39 1249v164q0 21 20 21h1037q20 0 20 -21v-164q0 -20 -20 -20h-412v-195h350q21 0 21 -20v-156q0 -20 -21 -20h-350v-818q0 -20 -20 -20h-172q-21 0 -21 20v818h-358q-21 0 -21 20v156q0 20 21 20h358v195h-412q-20 0 -20 20z" />
    <glyph glyph-name="tbar" unicode="&#x167;" horiz-adv-x="860" 
d="M442 1028h326q20 0 20 -20v-152q0 -20 -20 -20h-326v-158h289q21 0 21 -21v-143q0 -20 -21 -20h-289v-154q0 -168 154 -168q96 0 184 33q4 2 13 2q16 0 16 -19v-139q0 -11 -0.5 -16t-4 -10.5t-11.5 -8.5q-87 -34 -215 -34q-156 0 -246 84.5t-90 240.5v189h-146
q-20 0 -20 20v143q0 21 20 21h146v158h-181q-20 0 -20 20v152q0 20 20 20h181v295q0 20 20 20h160q20 0 20 -20v-295z" />
    <glyph glyph-name="Utilde" unicode="&#x168;" horiz-adv-x="1310" 
d="M127 524v889q0 21 20 21h172q21 0 21 -21v-876q0 -174 84.5 -263.5t230.5 -89.5t231 89.5t85 263.5v876q0 21 20 21h172q21 0 21 -21v-889q0 -253 -146.5 -398.5t-382.5 -145.5t-382 145.5t-146 398.5zM276 1769q48 39 109.5 65t108.5 26q53 0 95 -13t64 -29t54 -29
t69 -13q33 0 59.5 10t67.5 39q12 4 15 4q10 0 20 -17l72 -102q6 -10 6 -16q0 -12 -12 -21q-48 -39 -109.5 -64.5t-108.5 -25.5q-54 0 -96 13t-64 29t-54 29t-68 13q-33 0 -59.5 -10t-67.5 -39q-12 -4 -15 -4q-10 0 -20 16l-72 103q-6 10 -6 16q0 11 12 20z" />
    <glyph glyph-name="utilde" unicode="&#x169;" horiz-adv-x="1167" 
d="M1016 1008v-988q0 -20 -21 -20h-159q-21 0 -21 20v93q-143 -133 -326 -133q-170 0 -262 93.5t-92 264.5v670q0 20 21 20h159q21 0 21 -20v-611q0 -225 205 -225q116 0 195 91t79 259v486q0 20 21 20h159q21 0 21 -20zM199 1364q48 39 109 64.5t108 25.5q53 0 95 -13
t64 -29t54 -29t69 -13q33 0 59.5 10t67.5 39q12 4 15 4q10 0 20 -16l72 -102q6 -10 6 -17q0 -11 -12 -20q-48 -39 -109 -64.5t-108 -25.5q-54 0 -96.5 13t-64.5 29t-54 29t-68 13q-32 0 -59 -10.5t-68 -39.5q-12 -4 -14 -4q-11 0 -21 17l-71 102q-7 12 -7 16q0 11 13 21z
" />
    <glyph glyph-name="Umacron" unicode="&#x16a;" horiz-adv-x="1310" 
d="M127 524v889q0 21 20 21h172q21 0 21 -21v-876q0 -174 84.5 -263.5t230.5 -89.5t231 89.5t85 263.5v876q0 21 20 21h172q21 0 21 -21v-889q0 -253 -146.5 -398.5t-382.5 -145.5t-382 145.5t-146 398.5zM430 1626v143q0 21 21 21h409q21 0 21 -21v-143q0 -20 -21 -20h-409
q-21 0 -21 20z" />
    <glyph glyph-name="umacron" unicode="&#x16b;" horiz-adv-x="1167" 
d="M1016 1008v-988q0 -20 -21 -20h-159q-21 0 -21 20v93q-143 -133 -326 -133q-170 0 -262 93.5t-92 264.5v670q0 20 21 20h159q21 0 21 -20v-611q0 -225 205 -225q116 0 195 91t79 259v486q0 20 21 20h159q21 0 21 -20zM338 1221v143q0 20 20 20h410q20 0 20 -20v-143
q0 -21 -20 -21h-410q-20 0 -20 21z" />
    <glyph glyph-name="Ubreve" unicode="&#x16c;" horiz-adv-x="1310" 
d="M127 524v889q0 21 20 21h172q21 0 21 -21v-876q0 -174 84.5 -263.5t230.5 -89.5t231 89.5t85 263.5v876q0 21 20 21h172q21 0 21 -21v-889q0 -253 -146.5 -398.5t-382.5 -145.5t-382 145.5t-146 398.5zM410 1823h127q20 0 20 -21q0 -108 98 -108q99 0 99 108q0 21 20 21
h127q21 0 21 -21q0 -122 -72.5 -193t-194.5 -71t-194 71t-72 193q0 21 21 21z" />
    <glyph glyph-name="ubreve" unicode="&#x16d;" horiz-adv-x="1167" 
d="M1016 1008v-988q0 -20 -21 -20h-159q-21 0 -21 20v93q-143 -133 -326 -133q-170 0 -262 93.5t-92 264.5v670q0 20 21 20h159q21 0 21 -20v-611q0 -225 205 -225q116 0 195 91t79 259v486q0 20 21 20h159q21 0 21 -20zM328 1417h127q20 0 20 -20q0 -109 98 -109
q99 0 99 109q0 20 20 20h127q21 0 21 -20q0 -122 -72.5 -193t-194.5 -71t-194 71t-72 193q0 20 21 20z" />
    <glyph glyph-name="Uring" unicode="&#x16e;" horiz-adv-x="1310" 
d="M127 524v889q0 21 20 21h172q21 0 21 -21v-876q0 -174 84.5 -263.5t230.5 -89.5t231 89.5t85 263.5v876q0 21 20 21h172q21 0 21 -21v-889q0 -253 -146.5 -398.5t-382.5 -145.5t-382 145.5t-146 398.5zM461 1692q0 84 53.5 136t140.5 52t141 -52t54 -136t-54 -136.5
t-141 -52.5q-86 0 -140 52t-54 137zM580 1692q0 -36 21 -57t54 -21t54.5 21t21.5 57t-21.5 56.5t-54.5 20.5t-54 -20.5t-21 -56.5z" />
    <glyph glyph-name="uring" unicode="&#x16f;" horiz-adv-x="1167" 
d="M1016 1008v-988q0 -20 -21 -20h-159q-21 0 -21 20v93q-143 -133 -326 -133q-170 0 -262 93.5t-92 264.5v670q0 20 21 20h159q21 0 21 -20v-611q0 -225 205 -225q116 0 195 91t79 259v486q0 20 21 20h159q21 0 21 -20zM381 1286q0 85 54 137t140 52q87 0 141 -52.5
t54 -136.5t-54 -136t-141 -52t-140.5 52t-53.5 136zM500 1286q0 -36 21 -57t54 -21t54.5 21t21.5 57t-21.5 57t-54.5 21t-54 -21t-21 -57z" />
    <glyph glyph-name="Uhungarumlaut" unicode="&#x170;" horiz-adv-x="1310" 
d="M127 524v889q0 21 20 21h172q21 0 21 -21v-876q0 -174 84.5 -263.5t230.5 -89.5t231 89.5t85 263.5v876q0 21 20 21h172q21 0 21 -21v-889q0 -253 -146.5 -398.5t-382.5 -145.5t-382 145.5t-146 398.5zM326 1561l141 258q11 20 31 20h227q10 0 13 -6.5t-3 -13.5
l-211 -260q-14 -19 -37 -19h-151q-10 0 -12.5 7t2.5 14zM702 1561l142 258q11 20 30 20h228q10 0 13 -6.5t-3 -13.5l-211 -260q-14 -19 -37 -19h-151q-10 0 -13 7t2 14z" />
    <glyph glyph-name="uhungarumlaut" unicode="&#x171;" horiz-adv-x="1167" 
d="M1016 1008v-988q0 -20 -21 -20h-159q-21 0 -21 20v93q-143 -133 -326 -133q-170 0 -262 93.5t-92 264.5v670q0 20 21 20h159q21 0 21 -20v-611q0 -225 205 -225q116 0 195 91t79 259v486q0 20 21 20h159q21 0 21 -20zM203 1155l141 258q12 21 31 21h227q10 0 13 -7
t-3 -14l-211 -260q-13 -18 -36 -18h-152q-10 0 -12.5 6.5t2.5 13.5zM580 1155l141 258q12 21 31 21h227q10 0 13 -7t-3 -14l-211 -260q-13 -18 -37 -18h-151q-10 0 -12.5 6.5t2.5 13.5z" />
    <glyph glyph-name="Uogonek" unicode="&#x172;" horiz-adv-x="1310" 
d="M127 524v889q0 21 20 21h172q21 0 21 -21v-876q0 -174 84.5 -263.5t230.5 -89.5t231 89.5t85 263.5v876q0 21 20 21h172q21 0 21 -21v-889q0 -206 -96.5 -341t-266.5 -183q-53 -16 -78.5 -50t-25.5 -75q0 -42 29.5 -66t82.5 -24h33q21 0 21 -21v-102q0 -20 -21 -20h-90
q-109 0 -178.5 48t-69.5 138q0 86 74 156q-214 18 -342.5 160.5t-128.5 379.5z" />
    <glyph glyph-name="uogonek" unicode="&#x173;" horiz-adv-x="1167" 
d="M1016 1008v-988q0 -17 -12 -20q-52 -18 -77.5 -51.5t-25.5 -73.5q0 -42 30 -66t83 -24h33q20 0 20 -21v-102q0 -20 -20 -20h-91q-109 0 -178 48t-69 138q0 58 29.5 103.5t76.5 74.5v107q-143 -133 -326 -133q-170 0 -262 93.5t-92 264.5v670q0 20 21 20h159q21 0 21 -20
v-611q0 -225 205 -225q116 0 195 91t79 259v486q0 20 21 20h159q21 0 21 -20z" />
    <glyph glyph-name="Wcircumflex" unicode="&#x174;" horiz-adv-x="1712" 
d="M1690 1413l-318 -1393q-6 -20 -22 -20h-220q-16 0 -22 20l-252 994l-252 -994q-6 -20 -22 -20h-220q-16 0 -22 20l-317 1393q-6 21 16 21h182q22 0 25 -21l235 -1114l258 1016q6 20 25 20h184q19 0 25 -20l258 -1016l235 1114q3 21 25 21h182q23 0 17 -21zM956 1823
l215 -275q6 -8 3 -14t-13 -6h-160q-18 0 -36 18l-109 109l-108 -109q-18 -18 -37 -18h-160q-10 0 -13 6t3 14l215 275q16 16 30 16h140q14 0 30 -16z" />
    <glyph glyph-name="wcircumflex" unicode="&#x175;" horiz-adv-x="1527" 
d="M1513 997l-307 -977q-6 -20 -26 -20h-185q-20 0 -26 20l-205 689l-205 -689q-6 -20 -27 -20h-184q-23 0 -26 20l-308 977q-2 6 -2 17q0 14 17 14h174q6 0 10 -0.5t6 -1t4.5 -3.5t3 -3.5t2 -5.5t2.5 -6l205 -746l211 696q7 17 13 20q4 1 10 1h188q10 0 13.5 -3t7.5 -14
q1 -3 2 -4l211 -696l204 746q1 1 2 4t1.5 4t1.5 3.5t2 3t2.5 2t3 1.5t4 1t5.5 1h7h174q17 0 17 -14q0 -8 -3 -17zM864 1417l215 -274q6 -7 3 -14t-13 -7h-160q-18 0 -37 19l-108 108l-109 -108q-19 -19 -37 -19h-159q-10 0 -13 7t3 14l215 274q17 17 30 17h140q13 0 30 -17z
" />
    <glyph glyph-name="Ycircumflex" unicode="&#x176;" horiz-adv-x="1118" 
d="M1112 1413l-446 -897v-496q0 -20 -21 -20h-172q-20 0 -20 20v496l-447 897q-4 10 0.5 15.5t11.5 5.5h205q16 0 23 -17l313 -657l313 657q7 17 23 17h205q7 0 11.5 -5.5t0.5 -15.5zM659 1823l215 -275q6 -8 3 -14t-13 -6h-159q-19 0 -37 18l-109 109l-108 -109
q-18 -18 -37 -18h-160q-10 0 -13 6t3 14l215 275q16 16 30 16h140q14 0 30 -16z" />
    <glyph glyph-name="ycircumflex" unicode="&#x177;" horiz-adv-x="991" 
d="M29 1028h188q21 0 27 -20l274 -711l230 711q4 9 5.5 12t6.5 5.5t14 2.5h182q17 0 17 -14q0 -11 -2 -15l-375 -1099q-62 -182 -150 -254t-206 -72q-107 0 -174 33q-21 12 -21 33v151q0 21 16 21q10 0 59.5 -22.5t96.5 -22.5q76 0 124.5 54t84.5 185l-410 989q-4 16 -4 17
q0 16 17 16zM606 1417l215 -274q6 -7 3 -14t-13 -7h-160q-18 0 -37 19l-108 108l-109 -108q-19 -19 -37 -19h-159q-10 0 -13.5 7t2.5 14l216 274q17 17 30 17h139q14 0 31 -17z" />
    <glyph glyph-name="Ydieresis" unicode="&#x178;" horiz-adv-x="1118" 
d="M1112 1413l-446 -897v-496q0 -20 -21 -20h-172q-20 0 -20 20v496l-447 897q-4 10 0.5 15.5t11.5 5.5h205q16 0 23 -17l313 -657l313 657q7 17 23 17h205q7 0 11.5 -5.5t0.5 -15.5zM266 1626v193q0 20 21 20h192q21 0 21 -20v-193q0 -20 -21 -20h-192q-21 0 -21 20z
M618 1626v193q0 20 21 20h192q21 0 21 -20v-193q0 -20 -21 -20h-192q-21 0 -21 20z" />
    <glyph glyph-name="Zacute" unicode="&#x179;" horiz-adv-x="1241" 
d="M106 1249v164q0 21 21 21h973q20 0 20 -21v-164q0 -17 -12 -35l-791 -1009h826q20 0 20 -21v-164q0 -20 -20 -20h-1051q-20 0 -20 20v164q0 17 12 35l793 1010h-750q-21 0 -21 20zM438 1561l142 258q11 20 30 20h228q10 0 13 -6.5t-3 -13.5l-211 -260q-14 -19 -37 -19
h-151q-10 0 -13 7t2 14z" />
    <glyph glyph-name="zacute" unicode="&#x17a;" horiz-adv-x="989" 
d="M82 856v152q0 20 20 20h762q21 0 21 -20v-152q0 -24 -17 -43l-559 -620h594q21 0 21 -21v-152q0 -20 -21 -20h-827q-21 0 -21 20v152q0 14 13 31l569 633h-535q-20 0 -20 20zM332 1155l141 258q12 21 31 21h227q10 0 13 -7t-3 -14l-211 -260q-13 -18 -36 -18h-152
q-10 0 -12.5 6.5t2.5 13.5z" />
    <glyph glyph-name="Zdotaccent" unicode="&#x17b;" horiz-adv-x="1241" 
d="M106 1249v164q0 21 21 21h973q20 0 20 -21v-164q0 -17 -12 -35l-791 -1009h826q20 0 20 -21v-164q0 -20 -20 -20h-1051q-20 0 -20 20v164q0 17 12 35l793 1010h-750q-21 0 -21 20zM483 1614v205q0 20 21 20h205q20 0 20 -20v-205q0 -21 -20 -21h-205q-21 0 -21 21z" />
    <glyph glyph-name="zdotaccent" unicode="&#x17c;" horiz-adv-x="989" 
d="M82 856v152q0 20 20 20h762q21 0 21 -20v-152q0 -24 -17 -43l-559 -620h594q21 0 21 -21v-152q0 -20 -21 -20h-827q-21 0 -21 20v152q0 14 13 31l569 633h-535q-20 0 -20 20zM373 1208v205q0 21 20 21h205q20 0 20 -21v-205q0 -20 -20 -20h-205q-20 0 -20 20z" />
    <glyph glyph-name="Zcaron" unicode="&#x17d;" horiz-adv-x="1241" 
d="M106 1249v164q0 21 21 21h973q20 0 20 -21v-164q0 -17 -12 -35l-791 -1009h826q20 0 20 -21v-164q0 -20 -20 -20h-1051q-20 0 -20 20v164q0 17 12 35l793 1010h-750q-21 0 -21 20zM940 1819l-215 -275q-16 -16 -31 -16h-139q-15 0 -31 16l-215 275q-6 7 -3 13.5t13 6.5
h160q19 0 37 -18l109 -109l108 109q18 18 37 18h160q10 0 13 -6.5t-3 -13.5z" />
    <glyph glyph-name="zcaron" unicode="&#x17e;" horiz-adv-x="989" 
d="M82 856v152q0 20 20 20h762q21 0 21 -20v-152q0 -24 -17 -43l-559 -620h594q21 0 21 -21v-152q0 -20 -21 -20h-827q-21 0 -21 20v152q0 14 13 31l569 633h-535q-20 0 -20 20zM791 1413l-216 -274q-17 -17 -30 -17h-139q-14 0 -31 17l-215 274q-6 7 -3 14t13 7h160
q18 0 37 -19l108 -108l109 108q19 19 37 19h159q10 0 13.5 -7t-2.5 -14z" />
    <glyph glyph-name="longs" unicode="&#x17f;" horiz-adv-x="770" 
d="M453 1071v-1051q0 -20 -21 -20h-160q-20 0 -20 20v816h-168q-21 0 -21 20v152q0 20 21 20h168v74q0 165 92 258.5t248 93.5q125 0 225 -39q17 -6 17 -35v-147q0 -21 -15 -21q-2 0 -4 1t-5 2t-5 2q-110 45 -184 45q-168 0 -168 -191z" />
    <glyph glyph-name="uni018E" unicode="&#x18e;" horiz-adv-x="1196" 
d="M823 782v447h-692q-20 0 -20 20v164q0 21 20 21h885q20 0 20 -21v-1393q0 -20 -20 -20h-854q-21 0 -21 20v164q0 21 21 21h661v373h-600q-20 0 -20 20v164q0 20 20 20h600z" />
    <glyph glyph-name="uni018F" unicode="&#x18f;" horiz-adv-x="1214" 
d="M602 856q-106 0 -173 -36.5t-105 -117.5q-9 -18 -29 -18h-174q-15 0 -15 14q0 9 5 21q65 171 186.5 250.5t304.5 79.5q229 0 375.5 -151t146.5 -384q0 -232 -147 -383t-373 -151q-159 0 -278.5 74t-179.5 195.5t-60 270.5v39q0 21 20 21h805q-17 129 -98.5 202.5
t-210.5 73.5zM604 172q102 0 186.5 56.5t112.5 166.5h-598q26 -108 106 -165.5t193 -57.5z" />
    <glyph glyph-name="florin" unicode="&#x192;" horiz-adv-x="966" 
d="M225 -63l123 899h-153q-19 0 -19 20v152q0 20 23 20h176l14 96q23 170 119 250t235 80q123 0 209 -39q11 -5 14 -11.5t3 -23.5v-151q0 -19 -13 -19q-8 0 -18 7q-86 45 -184 45q-141 0 -162 -158l-10 -76h299q20 0 20 -20v-152q0 -20 -20 -20h-326l-135 -967
q-40 -295 -303 -295q-135 0 -215 39q-11 6 -14 12t-3 23v147q0 23 15 23q7 0 16 -6q86 -45 176 -45q57 0 88.5 37.5t44.5 132.5z" />
    <glyph glyph-name="uni01B5" unicode="&#x1b5;" horiz-adv-x="1241" 
d="M106 1249v164q0 21 21 21h973q20 0 20 -21v-164q0 -17 -12 -35l-317 -405h288q21 0 21 -21v-155q0 -21 -21 -21h-442l-320 -407h826q20 0 20 -21v-164q0 -20 -20 -20h-1051q-20 0 -20 20v164q0 17 12 35l307 393h-237q-21 0 -21 21v155q0 21 21 21h393l330 420h-750
q-21 0 -21 20z" />
    <glyph glyph-name="uni01B6" unicode="&#x1b6;" horiz-adv-x="989" 
d="M82 856v152q0 20 20 20h762q21 0 21 -20v-152q0 -24 -17 -43l-161 -178h116q21 0 21 -21v-143q0 -20 -21 -20h-282l-232 -258h594q21 0 21 -21v-152q0 -20 -21 -20h-827q-21 0 -21 20v152q0 14 13 31l223 248h-125q-21 0 -21 20v143q0 21 21 21h291l180 201h-535
q-20 0 -20 20z" />
    <glyph glyph-name="Aringacute" unicode="&#x1fa;" horiz-adv-x="1282" 
d="M446 1511q0 84 54 136.5t141 52.5t141 -52.5t54 -136.5t-56 -137l490 -1341q2 -4 2 -13q0 -20 -23 -20h-178q-11 0 -15 4t-9 16l-134 375h-546l-131 -375q-5 -12 -9.5 -16t-15.5 -4h-178q-23 0 -23 20q0 9 2 13l490 1341q-56 53 -56 137zM641 1167l-201 -567h402z
M504 1782l141 258q11 20 31 20h227q10 0 13 -6t-3 -14l-211 -260q-14 -19 -36 -19h-152q-10 0 -12.5 6.5t2.5 14.5zM565 1511q0 -36 21.5 -56.5t54.5 -20.5t54.5 20.5t21.5 56.5t-21.5 57t-54.5 21t-54.5 -21t-21.5 -57z" />
    <glyph glyph-name="aringacute" unicode="&#x1fb;" horiz-adv-x="1103" 
d="M313 715h-172q-14 0 -14 12q0 13 2 21q31 132 141.5 216.5t284.5 84.5q194 0 307 -101t113 -280v-459q0 -74 8 -112.5t31 -76.5q11 -20 -15 -20h-204q-21 0 -21 20v76q-58 -58 -132 -87t-187 -29q-99 0 -182 36.5t-136 114t-53 182.5q0 110 57.5 189.5t150.5 118
t210 38.5q129 0 272 -43v37q0 99 -56 155t-163 56q-161 0 -213 -131q-7 -18 -29 -18zM774 432q-78 23 -134 33t-128 10q-96 0 -155.5 -39t-59.5 -114q0 -70 47.5 -110t138.5 -40q123 0 207 69.5t84 190.5zM362 1286q0 84 54 136.5t141 52.5t141 -52.5t54 -136.5t-54 -136
t-141 -52t-141 52t-54 136zM481 1286q0 -36 21.5 -57t54.5 -21t54.5 21t21.5 57t-21.5 57t-54.5 21t-54.5 -21t-21.5 -57zM408 1561l141 258q11 20 31 20h227q10 0 13 -6.5t-3 -13.5l-211 -260q-14 -19 -37 -19h-151q-10 0 -12.5 7t2.5 14z" />
    <glyph glyph-name="AEacute" unicode="&#x1fc;" horiz-adv-x="1800" 
d="M977 651v-446h692q21 0 21 -21v-164q0 -20 -21 -20h-885q-20 0 -20 20v375h-379l-149 -375q-5 -12 -9.5 -16t-15.5 -4h-178q-23 0 -23 20q0 9 2 13l557 1380q9 21 25 21h1044q21 0 21 -21v-164q0 -20 -21 -20h-661v-373h600q20 0 20 -20v-164q0 -21 -20 -21h-600z
M717 1229l-250 -629h297v629h-47zM932 1561l141 258q11 20 31 20h227q10 0 13 -6.5t-3 -13.5l-211 -260q-14 -19 -36 -19h-152q-10 0 -12.5 7t2.5 14z" />
    <glyph glyph-name="aeacute" unicode="&#x1fd;" horiz-adv-x="1912" 
d="M313 715h-172q-14 0 -14 12q0 13 2 21q31 132 141.5 216.5t284.5 84.5q124 0 218 -44t145 -126q154 170 391 170q159 0 278.5 -74t179.5 -196t60 -271v-39q0 -20 -21 -20h-802q17 -130 98 -203.5t209 -73.5q106 0 173 36.5t105 117.5q9 18 29 18h174q14 0 14 -14
q0 -12 -4 -21q-65 -170 -186.5 -249.5t-304.5 -79.5q-133 0 -239.5 52t-176.5 146q-67 -95 -179.5 -146.5t-260.5 -51.5q-152 0 -260.5 88.5t-108.5 244.5q0 164 118 255t298 91q129 0 272 -43v37q0 99 -56 155t-163 56q-161 0 -213 -131q-7 -18 -29 -18zM774 432
q-78 23 -134 33t-128 10q-96 0 -156.5 -39t-60.5 -114q0 -70 48.5 -110t139.5 -40q123 0 207 69.5t84 190.5zM1309 856q-102 0 -184.5 -56.5t-110.5 -166.5h594q-26 108 -106 165.5t-193 57.5zM784 1155l142 258q12 21 30 21h228q10 0 13 -7t-3 -14l-211 -260
q-13 -18 -37 -18h-151q-10 0 -13 6.5t2 13.5z" />
    <glyph glyph-name="Scommaaccent" unicode="&#x218;" horiz-adv-x="1208" 
d="M98 1059q0 125 69.5 216.5t180 135t244.5 43.5q116 0 212 -34t158 -91.5t97 -131t37 -155.5q0 -20 -21 -20h-172q-17 0 -20 20q-10 97 -90.5 152t-200.5 55q-127 0 -204 -46t-77 -134q0 -50 26 -89t79.5 -68t110.5 -48.5t145 -42.5q80 -21 144 -44.5t127.5 -58t105.5 -75
t68 -96.5t26 -121q0 -215 -146 -330.5t-395 -115.5q-227 0 -384 135t-157 331q0 21 21 21h172q20 0 20 -21q8 -123 94.5 -192.5t233.5 -69.5q328 0 328 230q0 79 -93 133.5t-259 95.5q-116 29 -199 62.5t-149 82.5t-99 116.5t-33 154.5zM514 -426q54 0 74 18.5t20 67.5v25
h-98q-21 0 -21 20v189q0 20 21 20h188q21 0 21 -20v-248q0 -81 -38.5 -127.5t-117.5 -46.5h-49q-20 0 -20 20v62q0 20 20 20z" />
    <glyph glyph-name="scommaaccent" unicode="&#x219;" horiz-adv-x="1024" 
d="M940 301q0 -150 -118 -235.5t-310 -85.5q-187 0 -307.5 93.5t-132.5 252.5q0 20 20 20h172q18 0 21 -20q25 -154 233 -154q209 0 209 129q0 53 -61.5 84.5t-212.5 56.5q-185 31 -270 102.5t-85 196.5q0 103 59 174.5t146.5 102.5t194.5 31q176 0 286.5 -85.5
t122.5 -222.5q0 -20 -20 -20h-174q-13 0 -19 16q-1 3 -2 4q-39 115 -205 115q-77 0 -132.5 -26t-55.5 -78q0 -59 57.5 -92t212.5 -62q88 -16 150 -36.5t115 -54t79.5 -85t26.5 -121.5zM416 -426q54 0 74 18.5t20 67.5v25h-98q-21 0 -21 20v189q0 20 21 20h188q21 0 21 -20
v-248q0 -81 -38.5 -127.5t-117.5 -46.5h-49q-21 0 -21 20v62q0 20 21 20z" />
    <glyph glyph-name="uni021A" unicode="&#x21a;" horiz-adv-x="1155" 
d="M39 1249v164q0 21 20 21h1037q20 0 20 -21v-164q0 -20 -20 -20h-412v-1209q0 -20 -20 -20h-172q-21 0 -21 20v1209h-412q-20 0 -20 20zM487 -426q54 0 74.5 18.5t20.5 67.5v25h-99q-20 0 -20 20v189q0 20 20 20h189q20 0 20 -20v-248q0 -82 -38 -128t-117 -46h-50
q-20 0 -20 20v62q0 20 20 20z" />
    <glyph glyph-name="uni021B" unicode="&#x21b;" horiz-adv-x="860" 
d="M442 1028h326q20 0 20 -20v-152q0 -20 -20 -20h-326v-496q0 -168 154 -168q96 0 184 33q4 2 13 2q16 0 16 -19v-139q0 -11 -0.5 -16t-4 -10.5t-11.5 -8.5q-87 -34 -215 -34q-156 0 -246 84.5t-90 240.5v531h-181q-20 0 -20 20v152q0 20 20 20h181v295q0 20 20 20h160
q20 0 20 -20v-295zM455 -426q54 0 74 18.5t20 67.5v25h-98q-21 0 -21 20v189q0 20 21 20h188q20 0 20 -20v-248q0 -82 -38 -128t-117 -46h-49q-21 0 -21 20v62q0 20 21 20z" />
    <glyph glyph-name="circumflex" unicode="&#x2c6;" horiz-adv-x="839" 
d="M520 1417l215 -274q6 -7 3 -14t-13 -7h-160q-18 0 -37 19l-108 108l-109 -108q-19 -19 -37 -19h-159q-10 0 -13.5 7t2.5 14l215 274q17 17 31 17h139q14 0 31 -17z" />
    <glyph glyph-name="caron" unicode="&#x2c7;" horiz-adv-x="839" 
d="M735 1413l-215 -274q-17 -17 -31 -17h-139q-14 0 -31 17l-215 274q-6 7 -2.5 14t13.5 7h159q18 0 37 -19l109 -108l108 108q19 19 37 19h160q10 0 13 -7t-3 -14z" />
    <glyph glyph-name="breve" unicode="&#x2d8;" horiz-adv-x="712" 
d="M111 1417h127q20 0 20 -20q0 -109 98 -109q99 0 99 109q0 20 20 20h127q21 0 21 -20q0 -122 -72.5 -193t-194.5 -71t-194 71t-72 193q0 20 21 20z" />
    <glyph glyph-name="dotaccent" unicode="&#x2d9;" horiz-adv-x="438" 
d="M96 1208v205q0 21 21 21h205q20 0 20 -21v-205q0 -20 -20 -20h-205q-21 0 -21 20z" />
    <glyph glyph-name="ring" unicode="&#x2da;" horiz-adv-x="536" 
d="M74 1286q0 85 54 137t140 52q87 0 141 -52.5t54 -136.5t-54 -136t-141 -52t-140.5 52t-53.5 136zM193 1286q0 -36 21 -57t54 -21t54.5 21t21.5 57t-21.5 57t-54.5 21t-54 -21t-21 -57z" />
    <glyph glyph-name="ogonek" unicode="&#x2db;" horiz-adv-x="409" 
d="M248 33l94 -19l2 -2q4 -4 4 -6q0 -4 -4 -4l-2 -2q-102 -47 -102 -125q0 -42 29.5 -66t82.5 -24h33q21 0 21 -21v-102q0 -20 -21 -20h-90q-109 0 -178.5 48t-69.5 138q0 71 47.5 125.5t110.5 77.5q4 1 9 2l7.5 1.5t3.5 0.5q9 0 23 -2z" />
    <glyph glyph-name="tilde" unicode="&#x2dc;" horiz-adv-x="899" 
d="M86 1364q48 39 109 64.5t108 25.5q53 0 95 -13t64.5 -29t54.5 -29t69 -13q33 0 59.5 10t67.5 39q12 4 14 4q11 0 21 -16l71 -102q6 -10 6 -17q0 -11 -12 -20q-48 -39 -109 -64.5t-108 -25.5q-54 0 -96.5 13t-64.5 29t-54 29t-68 13q-32 0 -59 -10.5t-68 -39.5
q-12 -4 -14 -4q-10 0 -20 17l-72 102q-6 10 -6 16q0 12 12 21z" />
    <glyph glyph-name="hungarumlaut" unicode="&#x2dd;" horiz-adv-x="1155" 
d="M182 1155l142 258q12 21 30 21h228q10 0 13 -7t-3 -14l-211 -260q-13 -18 -37 -18h-151q-10 0 -13 6.5t2 13.5zM559 1155l141 258q12 21 31 21h227q10 0 13.5 -7t-2.5 -14l-211 -260q-13 -18 -37 -18h-152q-10 0 -12.5 6.5t2.5 13.5z" />
    <glyph glyph-name="uni03A9" unicode="&#x3a9;" horiz-adv-x="1531" 
d="M766 1249q-197 0 -318.5 -107.5t-121.5 -310.5q0 -181 75 -315.5t232 -277.5q16 -16 16 -41v-177q0 -20 -20 -20h-455q-20 0 -20 20v164q0 21 20 21h262q-66 52 -120 112.5t-101.5 138t-74.5 174t-27 201.5q0 135 46 250t129.5 197.5t206.5 129t271 46.5t271 -46.5
t206.5 -129t129.5 -197.5t46 -250q0 -105 -27 -201.5t-74.5 -174t-101.5 -138t-120 -112.5h262q20 0 20 -21v-164q0 -20 -20 -20h-455q-20 0 -20 20v177q0 25 16 41q157 143 232 277.5t75 315.5q0 203 -121.5 310.5t-318.5 107.5z" />
    <glyph glyph-name="pi" unicode="&#x3c0;" horiz-adv-x="1392" 
d="M1264 844h-203v-539q0 -61 23.5 -86.5t78.5 -25.5h23q20 0 20 -21v-152q0 -20 -20 -20h-96q-106 0 -168 58.5t-62 166.5v619h-346v-824q0 -20 -20 -20h-160q-21 0 -21 20v824h-202q-21 0 -21 20v144q0 20 21 20h1153q20 0 20 -20v-144q0 -20 -20 -20z" />
    <glyph glyph-name="endash" unicode="&#x2013;" horiz-adv-x="1171" 
d="M141 801h889q21 0 21 -21v-159q0 -21 -21 -21h-889q-20 0 -20 21v159q0 21 20 21z" />
    <glyph glyph-name="emdash" unicode="&#x2014;" horiz-adv-x="1626" 
d="M141 801h1344q20 0 20 -21v-159q0 -21 -20 -21h-1344q-20 0 -20 21v159q0 21 20 21z" />
    <glyph glyph-name="quoteleft" unicode="&#x2018;" horiz-adv-x="526" 
d="M377 1331q-65 0 -89 -22.5t-24 -79.5v-25h96q21 0 21 -20v-189q0 -20 -21 -20h-200q-21 0 -21 20v248q0 87 45.5 139t137.5 52h55q20 0 20 -21v-61q0 -21 -20 -21z" />
    <glyph glyph-name="quoteright" unicode="&#x2019;" horiz-adv-x="526" 
d="M150 1077q65 0 88.5 23t23.5 80v24h-96q-21 0 -21 21v188q0 21 21 21h201q20 0 20 -21v-248q0 -87 -45 -138.5t-137 -51.5h-55q-21 0 -21 20v62q0 20 21 20z" />
    <glyph glyph-name="quotesinglbase" unicode="&#x201a;" horiz-adv-x="526" 
d="M150 -127q65 0 88.5 22.5t23.5 79.5v25h-96q-21 0 -21 20v189q0 20 21 20h201q20 0 20 -20v-248q0 -87 -45 -138.5t-137 -51.5h-55q-21 0 -21 20v62q0 20 21 20z" />
    <glyph glyph-name="quotedblleft" unicode="&#x201c;" horiz-adv-x="833" 
d="M690 1331q-65 0 -88.5 -22.5t-23.5 -79.5v-25h96q20 0 20 -20v-189q0 -20 -20 -20h-201q-20 0 -20 20v248q0 87 45 139t137 52h55q21 0 21 -21v-61q0 -21 -21 -21zM371 1331q-65 0 -89 -22.5t-24 -79.5v-25h96q21 0 21 -20v-189q0 -20 -21 -20h-200q-21 0 -21 20v248
q0 87 45 139t137 52h56q20 0 20 -21v-61q0 -21 -20 -21z" />
    <glyph glyph-name="quotedblright" unicode="&#x201d;" horiz-adv-x="833" 
d="M143 1077q65 0 89 23t24 80v24h-96q-21 0 -21 21v188q0 21 21 21h200q21 0 21 -21v-248q0 -87 -45 -138.5t-137 -51.5h-56q-20 0 -20 20v62q0 20 20 20zM463 1077q65 0 88.5 23t23.5 80v24h-96q-20 0 -20 21v188q0 21 20 21h201q20 0 20 -21v-248q0 -87 -45 -138.5
t-137 -51.5h-55q-21 0 -21 20v62q0 20 21 20z" />
    <glyph glyph-name="quotedblbase" unicode="&#x201e;" horiz-adv-x="833" 
d="M143 -127q65 0 89 22.5t24 79.5v25h-96q-21 0 -21 20v189q0 20 21 20h200q21 0 21 -20v-248q0 -87 -45 -138.5t-137 -51.5h-56q-20 0 -20 20v62q0 20 20 20zM463 -127q65 0 88.5 22.5t23.5 79.5v25h-96q-20 0 -20 20v189q0 20 20 20h201q20 0 20 -20v-248
q0 -87 -45 -138.5t-137 -51.5h-55q-21 0 -21 20v62q0 20 21 20z" />
    <glyph glyph-name="dagger" unicode="&#x2020;" horiz-adv-x="974" 
d="M72 1028h309v385q0 21 20 21h172q21 0 21 -21v-385h309q21 0 21 -20v-160q0 -21 -21 -21h-309v-1212q0 -21 -21 -21h-172q-20 0 -20 21v1212h-309q-21 0 -21 21v160q0 20 21 20z" />
    <glyph glyph-name="daggerdbl" unicode="&#x2021;" horiz-adv-x="974" 
d="M903 0h-309v-385q0 -21 -21 -21h-172q-20 0 -20 21v385h-309q-21 0 -21 20v160q0 21 21 21h309v626h-309q-21 0 -21 21v160q0 20 21 20h309v385q0 21 20 21h172q21 0 21 -21v-385h309q21 0 21 -20v-160q0 -21 -21 -21h-309v-626h309q21 0 21 -21v-160q0 -20 -21 -20z" />
    <glyph glyph-name="bullet" unicode="&#x2022;" horiz-adv-x="786" 
d="M160 668q0 97 68 165t165 68t165.5 -68t68.5 -165t-68.5 -165.5t-165.5 -68.5t-165 68.5t-68 165.5z" />
    <glyph glyph-name="ellipsis" unicode="&#x2026;" horiz-adv-x="1531" 
d="M197 238h196q21 0 21 -21v-197q0 -20 -21 -20h-196q-21 0 -21 20v197q0 21 21 21zM666 238h196q21 0 21 -21v-197q0 -20 -21 -20h-196q-21 0 -21 20v197q0 21 21 21zM1135 238h196q21 0 21 -21v-197q0 -20 -21 -20h-196q-21 0 -21 20v197q0 21 21 21z" />
    <glyph glyph-name="perthousand" unicode="&#x2030;" horiz-adv-x="2633" 
d="M831 1067q0 -113 -52 -198.5t-133 -127t-175 -41.5t-175 41.5t-133 127t-52 198.5t52 198.5t133 127t175 41.5t175 -41.5t133 -127t52 -198.5zM666 1067q0 102 -58.5 155.5t-136.5 53.5t-136.5 -53.5t-58.5 -155.5t58.5 -155.5t136.5 -53.5t136.5 53.5t58.5 155.5z
M1704 367q0 -113 -52.5 -198.5t-133.5 -127t-175 -41.5t-175 41.5t-133 127t-52 198.5q0 86 30 156.5t81 115.5t115 69.5t134 24.5q94 0 175 -41t133.5 -126.5t52.5 -198.5zM1538 367q0 102 -58.5 155t-136.5 53t-136 -53t-58 -155t58 -155.5t136 -53.5t136.5 53.5
t58.5 155.5zM281 102l1144 1325q13 16 29 0l76 -67q13 -13 4 -29l-1145 -1325q-13 -16 -29 0l-75 68q-13 13 -4 28zM2523 367q0 -113 -52 -198.5t-133 -127t-175 -41.5t-175 41.5t-133.5 127t-52.5 198.5t52.5 198.5t133.5 126.5t175 41q70 0 134 -24.5t115 -69.5t81 -115.5
t30 -156.5zM2357 367q0 102 -58 155t-136 53t-136.5 -53t-58.5 -155t58.5 -155.5t136.5 -53.5t136 53.5t58 155.5z" />
    <glyph glyph-name="guilsinglleft" unicode="&#x2039;" horiz-adv-x="690" 
d="M586 1063v-201q0 -21 -15 -33l-292 -268l292 -268q15 -12 15 -33v-201q0 -14 -13 -14q-6 0 -12 6l-455 404q-20 17 -20 37v139q0 20 20 37l455 403q6 6 12 6q13 0 13 -14z" />
    <glyph glyph-name="guilsinglright" unicode="&#x203a;" horiz-adv-x="690" 
d="M104 862v201q0 14 13 14q6 0 12 -6l455 -403q20 -17 20 -37v-139q0 -20 -20 -37l-455 -404q-6 -6 -12 -6q-13 0 -13 14v201q0 21 15 33l293 268l-293 268q-15 12 -15 33z" />
    <glyph glyph-name="fraction" unicode="&#x2044;" horiz-adv-x="1413" 
d="M90 102l1143 1325q13 16 29 0l75 -67q13 -13 4 -29l-1142 -1325q-13 -16 -29 0l-76 68q-13 13 -4 28z" />
    <glyph glyph-name="zerosuperior" unicode="&#x2070;" horiz-adv-x="788" 
d="M82 1051q0 190 89.5 292.5t223.5 102.5t224 -102.5t90 -292.5t-90 -293t-224 -103t-223.5 103t-89.5 293zM229 1051q0 -128 46 -192t120 -64t120 64t46 192t-46 192t-120 64t-120 -64t-46 -192z" />
    <glyph glyph-name="foursuperior" unicode="&#x2074;" horiz-adv-x="737" 
d="M410 688v109h-334q-21 0 -21 20v86q0 14 8 25l353 491q9 15 22 15h90q21 0 21 -21v-477h100q21 0 21 -21v-98q0 -20 -21 -20h-100v-109q0 -20 -21 -20h-98q-20 0 -20 20zM410 1190l-183 -254h183v254z" />
    <glyph glyph-name="fivesuperior" unicode="&#x2075;" horiz-adv-x="700" 
d="M104 1030l50 387q3 17 20 17h410q20 0 20 -21v-98q0 -21 -20 -21h-312l-20 -155q64 37 151 37q108 0 175 -67.5t67 -193.5q0 -125 -75.5 -192.5t-196.5 -67.5q-115 0 -190 64t-79 168q0 20 21 20h104q13 0 19 -16q1 -3 2 -4q20 -92 125 -92q123 0 123 125
q0 53 -29.5 87.5t-93.5 34.5q-80 0 -142 -45q-8 -8 -24 -6l-94 23q-11 4 -11 16z" />
    <glyph glyph-name="sixsuperior" unicode="&#x2076;" horiz-adv-x="757" 
d="M100 1016q0 208 80.5 319t204.5 111q99 0 168 -54.5t82 -150.5q0 -10 -12 -10h-115q-7 0 -10 10q-28 66 -115 66q-51 0 -86 -46.5t-45 -144.5q62 45 147 45q111 0 180.5 -68.5t69.5 -183.5q0 -117 -77 -185.5t-191 -68.5q-123 0 -202 88t-79 273zM256 909q0 -55 35 -88
t92 -33t92 33t35 88q0 54 -35 86.5t-92 32.5t-92 -32.5t-35 -86.5z" />
    <glyph glyph-name="sevensuperior" unicode="&#x2077;" horiz-adv-x="589" 
d="M27 1315v98q0 21 20 21h479q21 0 21 -21v-59q0 -16 -8 -35l-213 -633q-6 -18 -25 -18h-115q-16 0 -16 12q0 2 4 14l201 600h-328q-20 0 -20 21z" />
    <glyph glyph-name="eightsuperior" unicode="&#x2078;" horiz-adv-x="716" 
d="M115 1233q0 100 70 156.5t173 56.5t173.5 -56.5t70.5 -156.5q0 -103 -86 -160q49 -24 80 -71.5t31 -108.5q0 -109 -74.5 -173.5t-194.5 -64.5t-194 64.5t-74 173.5q0 61 31 108.5t80 71.5q-86 57 -86 160zM250 893q0 -46 30 -72t78 -26q49 0 79 26t30 72q0 47 -30.5 74.5
t-78.5 27.5t-78 -27.5t-30 -74.5zM256 1227q0 -42 28 -69.5t74 -27.5t74.5 27.5t28.5 69.5q0 43 -29.5 69.5t-73.5 26.5t-73 -26.5t-29 -69.5z" />
    <glyph glyph-name="ninesuperior" unicode="&#x2079;" horiz-adv-x="757" 
d="M657 1085q0 -208 -80 -319t-204 -111q-99 0 -168 54.5t-82 150.5q0 10 12 10h115q7 0 10 -10q27 -65 115 -65q51 0 86 46t45 144q-62 -45 -148 -45q-110 0 -179.5 68.5t-69.5 183.5q0 117 77 185.5t191 68.5q123 0 201.5 -88t78.5 -273zM502 1192q0 55 -35 88t-92 33
t-92 -33t-35 -88q0 -54 35 -86.5t92 -32.5t92 32.5t35 86.5z" />
    <glyph glyph-name="zeroinferior" unicode="&#x2080;" horiz-adv-x="788" 
d="M82 -23q0 190 89.5 293t223.5 103t224 -103t90 -293t-90 -292.5t-224 -102.5t-223.5 102.5t-89.5 292.5zM229 -23q0 -128 46 -192t120 -64t120 64t46 192t-46 192t-120 64t-120 -64t-46 -192z" />
    <glyph glyph-name="oneinferior" unicode="&#x2081;" horiz-adv-x="454" 
d="M203 -385v559l-127 -70q-12 -6 -19 -6q-16 0 -16 17v116q0 13 14 21l174 100q13 8 31 8h62q20 0 20 -20v-725q0 -21 -20 -21h-99q-20 0 -20 21z" />
    <glyph glyph-name="twoinferior" unicode="&#x2082;" horiz-adv-x="724" 
d="M92 -385v82q0 20 12 29l320 260q68 56 68 141q0 48 -32.5 77t-88.5 29q-52 0 -86.5 -31.5t-42.5 -80.5q-3 -21 -21 -21h-102q-21 0 -21 21q0 101 80 176.5t193 75.5q124 0 194 -67.5t70 -166.5q0 -81 -28 -133.5t-95 -109.5l-193 -162h312q20 0 20 -21v-98q0 -21 -20 -21
h-518q-21 0 -21 21z" />
    <glyph glyph-name="threeinferior" unicode="&#x2083;" horiz-adv-x="729" 
d="M272 -55v98q0 20 21 20h49q113 0 113 93q0 36 -26.5 60t-72.5 24q-90 0 -110 -84q-3 -17 -21 -17h-102q-21 0 -21 19q5 94 74.5 153.5t179.5 59.5q111 0 176.5 -58t65.5 -151q0 -101 -84 -158q117 -58 117 -178q0 -118 -76.5 -182t-196.5 -64q-116 0 -196 70t-80 170
q0 20 20 20h109q17 0 20 -20q14 -101 127 -101q125 0 125 101q0 48 -33 76t-92 28h-65q-21 0 -21 21z" />
    <glyph glyph-name="fourinferior" unicode="&#x2084;" horiz-adv-x="737" 
d="M410 -385v109h-334q-21 0 -21 20v86q0 14 8 25l353 491q8 14 22 14h90q21 0 21 -20v-477h100q21 0 21 -21v-98q0 -20 -21 -20h-100v-109q0 -21 -21 -21h-98q-20 0 -20 21zM410 117l-183 -254h183v254z" />
    <glyph glyph-name="fiveinferior" unicode="&#x2085;" horiz-adv-x="700" 
d="M104 -43l50 387q3 16 20 16h410q20 0 20 -20v-98q0 -21 -20 -21h-312l-20 -155q62 36 151 36q109 0 175.5 -67t66.5 -193q0 -125 -75.5 -192.5t-196.5 -67.5q-115 0 -190 64t-79 168q0 20 21 20h104q13 0 19 -16q1 -3 2 -4q20 -93 125 -93q123 0 123 125q0 53 -29.5 88
t-93.5 35q-80 0 -142 -45q-8 -8 -24 -6l-94 23q-11 4 -11 16z" />
    <glyph glyph-name="sixinferior" unicode="&#x2086;" horiz-adv-x="759" 
d="M100 -57q0 208 80.5 319t204.5 111q99 0 168 -54.5t82 -150.5q0 -10 -12 -10h-115q-7 0 -10 10q-27 65 -115 65q-51 0 -86 -46t-45 -144q62 45 147 45q111 0 180.5 -68.5t69.5 -183.5q0 -117 -77 -185.5t-191 -68.5q-123 0 -202 88t-79 273zM256 -164q0 -55 35 -88
t92 -33t92 33t35 88q0 54 -35 86.5t-92 32.5t-92 -32.5t-35 -86.5z" />
    <glyph glyph-name="seveninferior" unicode="&#x2087;" horiz-adv-x="589" 
d="M27 242v98q0 20 20 20h479q21 0 21 -20v-59q0 -16 -8 -35l-213 -633q-6 -19 -25 -19h-115q-16 0 -16 13q0 2 4 14l201 600h-328q-20 0 -20 21z" />
    <glyph glyph-name="eightinferior" unicode="&#x2088;" horiz-adv-x="716" 
d="M115 160q0 100 70 156.5t173 56.5t173.5 -56.5t70.5 -156.5q0 -103 -86 -160q49 -24 80 -71.5t31 -108.5q0 -109 -74.5 -173.5t-194.5 -64.5t-194 64.5t-74 173.5q0 61 31 108.5t80 71.5q-86 57 -86 160zM250 -180q0 -46 30 -72.5t78 -26.5t78.5 26.5t30.5 72.5
q0 47 -30.5 74.5t-78.5 27.5t-78 -27.5t-30 -74.5zM256 154q0 -42 28 -69.5t74 -27.5t74.5 27.5t28.5 69.5q0 43 -29.5 69.5t-73.5 26.5t-73 -26.5t-29 -69.5z" />
    <glyph glyph-name="nineinferior" unicode="&#x2089;" horiz-adv-x="757" 
d="M657 12q0 -208 -80 -319t-204 -111q-99 0 -168 54.5t-82 150.5q0 10 12 10h115q7 0 10 -10q28 -66 115 -66q51 0 86 46.5t45 144.5q-62 -45 -148 -45q-110 0 -179.5 68.5t-69.5 183.5q0 117 77 185.5t191 68.5q123 0 201.5 -88t78.5 -273zM502 119q0 55 -35 88t-92 33
t-92 -33t-35 -88q0 -54 35 -86.5t92 -32.5t92 32.5t35 86.5z" />
    <glyph glyph-name="Euro" unicode="&#x20ac;" horiz-adv-x="1398" 
d="M47 1006h172q62 214 208 331t343 117q224 0 371.5 -127t179.5 -346q0 -20 -21 -20h-165q-13 0 -19 16q-1 3 -2 4q-65 272 -344 272q-239 0 -330 -247h408q20 0 20 -21v-160q0 -20 -20 -20h-449q-2 -31 -2 -88q0 -61 2 -88h449q20 0 20 -21v-159q0 -21 -20 -21h-408
q91 -248 330 -248q279 0 344 273q7 17 13 19q3 1 8 1h165q21 0 21 -20q-32 -219 -179.5 -346t-371.5 -127q-197 0 -343 117t-208 331h-172q-20 0 -20 21v159q0 21 20 21h139q-2 31 -2 88t2 88h-139q-20 0 -20 20v160q0 21 20 21z" />
    <glyph glyph-name="uni2117" unicode="&#x2117;" horiz-adv-x="1638" 
d="M819 -20q-105 0 -207.5 30.5t-194 93t-161 149t-110 206.5t-40.5 258t40.5 258t110 206.5t161 149t194 93t207.5 30.5t207.5 -30.5t194 -93t161 -149t110 -206.5t40.5 -258t-40.5 -258t-110 -206.5t-161 -149t-194 -93t-207.5 -30.5zM819 66q92 0 180 25.5t167 79
t138.5 129t94.5 183.5t35 234t-35 234t-94.5 183.5t-138.5 129t-167 79t-180 25.5t-180 -25.5t-167 -79t-138 -129.5t-94 -183.5t-35 -233.5t35 -233.5t94 -183.5t138 -129.5t167 -79t180 -25.5zM537 272v893q0 23 22 23h309q144 0 227 -76.5t83 -200.5t-83 -200t-227 -76
h-233v-363q0 -22 -23 -22h-53q-22 0 -22 22zM635 1102v-381h248q97 0 146.5 50.5t49.5 139.5t-49.5 140t-146.5 51h-248z" />
    <glyph glyph-name="trademark" unicode="&#x2122;" horiz-adv-x="1460" 
d="M29 1315v98q0 21 20 21h529q20 0 20 -21v-98q0 -21 -20 -21h-193v-606q0 -20 -20 -20h-103q-20 0 -20 20v606h-193q-20 0 -20 21zM1374 1413v-725q0 -20 -20 -20h-103q-20 0 -20 20v522l-158 -405q-6 -12 -16 -12h-86q-11 0 -17 12l-157 405v-522q0 -20 -21 -20h-102
q-21 0 -21 20v725q0 21 21 21h147q18 0 25 -17l168 -432l168 432q7 17 24 17h148q20 0 20 -21z" />
    <glyph glyph-name="Omega" unicode="&#x2126;" horiz-adv-x="1531" 
d="M766 1249q-197 0 -318.5 -107.5t-121.5 -310.5q0 -181 75 -315.5t232 -277.5q16 -16 16 -41v-177q0 -20 -20 -20h-455q-20 0 -20 20v164q0 21 20 21h262q-66 52 -120 112.5t-101.5 138t-74.5 174t-27 201.5q0 135 46 250t129.5 197.5t206.5 129t271 46.5t271 -46.5
t206.5 -129t129.5 -197.5t46 -250q0 -105 -27 -201.5t-74.5 -174t-101.5 -138t-120 -112.5h262q20 0 20 -21v-164q0 -20 -20 -20h-455q-20 0 -20 20v177q0 25 16 41q157 143 232 277.5t75 315.5q0 203 -121.5 310.5t-318.5 107.5z" />
    <glyph glyph-name="onethird" unicode="&#x2153;" horiz-adv-x="1769" 
d="M233 102l1143 1325q13 16 29 0l76 -67q13 -13 4 -29l-1143 -1325q-13 -16 -29 0l-75 68q-14 14 -5 28zM1266 352v99q0 20 20 20h49q113 0 113 92q0 37 -26 60.5t-72 23.5q-91 0 -111 -84q-3 -16 -20 -16h-103q-20 0 -20 18q5 94 74.5 153.5t179.5 59.5q111 0 176 -57.5
t65 -151.5q0 -100 -84 -157q117 -58 117 -179q0 -118 -76 -181.5t-196 -63.5q-117 0 -197 69.5t-80 169.5q0 21 21 21h108q18 0 21 -21q14 -100 127 -100q125 0 125 100q0 48 -33 76.5t-92 28.5h-66q-20 0 -20 20zM301 688v559l-127 -69q-14 -7 -18 -7q-17 0 -17 17v117
q0 11 15 20l174 100q15 9 30 9h62q20 0 20 -21v-725q0 -20 -20 -20h-98q-21 0 -21 20z" />
    <glyph glyph-name="twothirds" unicode="&#x2154;" horiz-adv-x="1959" 
d="M1456 352v99q0 20 21 20h49q112 0 112 92q0 37 -26 60.5t-72 23.5q-90 0 -110 -84q-3 -16 -21 -16h-102q-21 0 -21 18q5 94 74.5 153.5t179.5 59.5q111 0 176.5 -58t65.5 -151q0 -100 -84 -157q117 -58 117 -179q0 -118 -76.5 -181.5t-196.5 -63.5q-117 0 -196.5 69.5
t-79.5 169.5q0 21 20 21h109q17 0 20 -21q14 -100 127 -100q125 0 125 100q0 48 -33 76.5t-92 28.5h-65q-21 0 -21 20zM424 102l1143 1325q12 16 28 0l76 -67q13 -13 4 -29l-1143 -1325q-12 -16 -28 0l-76 68q-13 13 -4 28zM172 688v82q0 20 12 29l320 260q36 30 51.5 62
t15.5 79q0 48 -32 77.5t-88 29.5q-52 0 -86.5 -32t-42.5 -81q-3 -20 -21 -20h-102q-21 0 -21 20q0 101 80 176.5t193 75.5q124 0 194 -67.5t70 -166.5q0 -81 -28 -133.5t-95 -109.5l-193 -162h312q20 0 20 -21v-98q0 -20 -20 -20h-518q-21 0 -21 20z" />
    <glyph glyph-name="oneeighth" unicode="&#x215b;" horiz-adv-x="1773" 
d="M233 102l1143 1325q13 16 29 0l76 -67q13 -13 4 -29l-1143 -1325q-13 -16 -29 0l-75 68q-14 14 -5 28zM301 688v559l-127 -69q-14 -7 -18 -7q-17 0 -17 17v117q0 11 15 20l174 100q15 9 30 9h62q20 0 20 -21v-725q0 -20 -20 -20h-98q-21 0 -21 20zM1102 565
q0 100 70.5 156.5t173.5 56.5t173 -56.5t70 -156.5q0 -102 -86 -159q49 -24 80 -72t31 -109q0 -109 -74 -173t-194 -64t-194.5 64t-74.5 173q0 61 31 109t80 72q-86 57 -86 159zM1237 225q0 -46 30 -72t79 -26q48 0 78 26t30 72q0 47 -30 75t-78 28t-78.5 -28t-30.5 -75z
M1243 559q0 -42 28 -69t75 -27q46 0 74 27t28 69q0 43 -29 69.5t-73 26.5t-73.5 -26.5t-29.5 -69.5z" />
    <glyph glyph-name="threeeighths" unicode="&#x215c;" horiz-adv-x="1826" 
d="M1155 565q0 100 70.5 156.5t173.5 56.5t173 -56.5t70 -156.5q0 -102 -86 -159q49 -24 80 -72t31 -109q0 -109 -74 -173t-194 -64t-194.5 64t-74.5 173q0 61 31 109t80 72q-86 57 -86 159zM1290 225q0 -46 30 -72t79 -26q48 0 78 26t30 72q0 47 -30 75t-78 28t-78.5 -28
t-30.5 -75zM1296 559q0 -42 28 -69t75 -27q46 0 74 27t28 69q0 43 -29 69.5t-73 26.5t-73.5 -26.5t-29.5 -69.5zM291 1020v98q0 21 20 21h49q113 0 113 92q0 37 -26 60.5t-72 23.5q-91 0 -111 -84q-3 -17 -20 -17h-103q-20 0 -20 19q5 94 74.5 153.5t179.5 59.5
q111 0 176 -57.5t65 -151.5q0 -101 -84 -158q117 -58 117 -178q0 -118 -76.5 -182t-195.5 -64q-117 0 -197 70t-80 170q0 20 21 20h108q18 0 21 -20q14 -100 127 -100q125 0 125 100q0 48 -33 76t-92 28h-66q-20 0 -20 21zM287 102l1143 1325q12 16 28 0l76 -67
q13 -13 4 -29l-1143 -1325q-12 -16 -28 0l-76 68q-13 13 -4 28z" />
    <glyph glyph-name="fiveeighths" unicode="&#x215d;" horiz-adv-x="1816" 
d="M276 102l1143 1325q13 16 29 0l76 -67q13 -13 4 -29l-1143 -1325q-13 -16 -29 0l-75 68q-14 14 -5 28zM1145 565q0 100 70.5 156.5t173.5 56.5t173 -56.5t70 -156.5q0 -102 -86 -159q49 -24 80 -72t31 -109q0 -109 -74 -173t-194 -64t-194.5 64t-74.5 173q0 61 31 109
t80 72q-86 57 -86 159zM1280 225q0 -46 30 -72t79 -26q48 0 78 26t30 72q0 47 -30 75t-78 28t-78.5 -28t-30.5 -75zM1286 559q0 -42 28 -69t75 -27q46 0 74 27t28 69q0 43 -29 69.5t-73 26.5t-73.5 -26.5t-29.5 -69.5zM125 1030l49 387q3 17 21 17h409q21 0 21 -21v-98
q0 -21 -21 -21h-311l-21 -155q64 37 152 37q108 0 175 -67.5t67 -193.5q0 -125 -75.5 -192.5t-197.5 -67.5q-114 0 -189 64t-79 168q0 20 20 20h105q3 0 5 -0.5t4 -1.5l3 -1.5t2 -2.5t1.5 -3.5t2 -5t2.5 -5.5q20 -92 125 -92q123 0 123 125q0 53 -29.5 87.5t-93.5 34.5
q-79 0 -141 -45q-8 -8 -25 -6l-94 23q-10 3 -10 16z" />
    <glyph glyph-name="seveneighths" unicode="&#x215e;" horiz-adv-x="1761" 
d="M221 102l1143 1325q13 16 29 0l75 -67q14 -14 5 -29l-1143 -1325q-13 -16 -29 0l-76 68q-13 13 -4 28zM1090 565q0 100 70 156.5t173 56.5t173.5 -56.5t70.5 -156.5q0 -102 -86 -159q49 -24 80 -72t31 -109q0 -109 -74.5 -173t-194.5 -64t-194 64t-74 173q0 61 31 109
t80 72q-86 57 -86 159zM1225 225q0 -46 30 -72t78 -26q49 0 79 26t30 72q0 47 -30.5 75t-78.5 28t-78 -28t-30 -75zM1231 559q0 -42 28 -69t74 -27q47 0 75 27t28 69q0 43 -29.5 69.5t-73.5 26.5t-73 -26.5t-29 -69.5zM188 1315v98q0 21 21 21h479q21 0 21 -21v-59
q0 -14 -9 -35l-213 -633q-6 -18 -24 -18h-115q-16 0 -16 12q0 2 4 14l201 600h-328q-21 0 -21 21z" />
    <glyph glyph-name="partialdiff" unicode="&#x2202;" horiz-adv-x="1191" 
d="M866 948q-34 71 -80 123.5t-95 84.5t-114.5 51.5t-127 28t-142.5 11.5q-16 0 -16 29v143q0 15 28 15q386 0 584.5 -211.5t198.5 -601.5q0 -317 -135 -479t-371 -162q-223 0 -364.5 148.5t-141.5 385.5q0 234 136.5 384.5t351.5 150.5q92 0 157.5 -22.5t130.5 -78.5z
M299 514q0 -156 79 -249t218 -93q130 0 213.5 93t83.5 249q0 152 -84 247t-213 95q-139 0 -218 -93t-79 -249z" />
    <glyph glyph-name="Delta" unicode="&#x2206;" horiz-adv-x="1372" 
d="M815 1413l479 -1196q9 -26 9 -53v-144q0 -20 -21 -20h-1192q-20 0 -20 20v144q0 30 8 53l479 1196q9 21 27 21h204q18 0 27 -21zM1090 205l-404 1024l-403 -1024h807z" />
    <glyph glyph-name="product" unicode="&#x220f;" horiz-adv-x="1286" 
d="M373 1229v-1614q0 -21 -21 -21h-172q-20 0 -20 21v1798q0 21 20 21h926q20 0 20 -21v-1798q0 -21 -20 -21h-172q-21 0 -21 21v1614h-540z" />
    <glyph glyph-name="summation" unicode="&#x2211;" horiz-adv-x="1234" 
d="M74 -385v172q0 19 16 41l485 641q19 25 19 45t-19 45l-485 641q-16 19 -16 41v172q0 21 20 21h1036q21 0 21 -21v-164q0 -20 -21 -20h-798l483 -649q21 -37 21 -66q0 -28 -21 -65l-483 -650h831q21 0 21 -20v-164q0 -21 -21 -21h-1069q-20 0 -20 21z" />
    <glyph glyph-name="minus" unicode="&#x2212;" horiz-adv-x="1171" 
d="M141 801h889q21 0 21 -21v-159q0 -21 -21 -21h-889q-20 0 -20 21v159q0 21 20 21z" />
    <glyph glyph-name="radical" unicode="&#x221a;" horiz-adv-x="1179" 
d="M233 618h-153q-21 0 -21 21v152q0 20 21 20h287q22 0 28 -20l180 -527l379 1149q6 21 29 21h174q14 0 14 -11q0 -6 -2 -10l-467 -1393q-9 -20 -26 -20h-195q-17 0 -26 20z" />
    <glyph glyph-name="infinity" unicode="&#x221e;" horiz-adv-x="1744" 
d="M98 653q0 154 96 259.5t259 105.5q137 0 246 -72t173 -182q64 109 173.5 181.5t246.5 72.5q163 0 259 -105.5t96 -259.5t-96 -259t-259 -105q-137 0 -246.5 72.5t-173.5 181.5q-64 -110 -173 -182t-246 -72q-163 0 -259 105t-96 259zM948 653q125 -239 338 -239
q100 0 159.5 65t59.5 174t-59.5 174.5t-159.5 65.5q-212 0 -338 -240zM240 653q0 -109 59.5 -174t159.5 -65q110 0 192.5 58.5t145.5 180.5q-63 122 -145.5 181t-192.5 59q-100 0 -159.5 -65.5t-59.5 -174.5z" />
    <glyph glyph-name="integral" unicode="&#x222b;" horiz-adv-x="966" 
d="M225 -63l164 1187q23 168 119.5 249t234.5 81q123 0 209 -39q11 -5 14 -11.5t3 -23.5v-151q0 -19 -13 -19q-8 0 -18 7q-86 45 -184 45q-141 0 -162 -158l-172 -1235q-40 -295 -303 -295q-135 0 -215 39q-11 6 -14 12t-3 23v147q0 23 15 23q7 0 16 -6q86 -45 176 -45
q57 0 88.5 37.5t44.5 132.5z" />
    <glyph glyph-name="approxequal" unicode="&#x2248;" horiz-adv-x="1112" 
d="M106 889q44 33 117.5 53.5t126.5 20.5q80 0 149 -21t129 -42t117 -21q45 0 80 11.5t78 39.5q12 4 15 4q10 0 20 -16l84 -144q2 -2 2 -8q0 -15 -18 -27q-44 -33 -117.5 -53t-126.5 -20q-80 0 -149 21t-128.5 42t-117.5 21q-45 0 -79.5 -12t-78.5 -40q-12 -4 -14 -4
q-11 0 -21 17l-84 143q-2 2 -2 8q0 15 18 27zM106 483q44 33 117.5 53.5t126.5 20.5q80 0 149 -21t129 -42t117 -21q45 0 80 11.5t78 39.5q12 4 15 4q10 0 20 -16l84 -143q2 -2 2 -9q0 -14 -18 -26q-44 -33 -117.5 -53.5t-126.5 -20.5q-80 0 -149 21t-128.5 42t-117.5 21
q-45 0 -80 -11.5t-78 -39.5q-12 -4 -14 -4q-11 0 -21 16l-84 144q-2 2 -2 8q0 14 18 26z" />
    <glyph glyph-name="notequal" unicode="&#x2260;" horiz-adv-x="1171" 
d="M141 508h269l122 215h-391q-20 0 -20 20v160q0 21 20 21h506l176 303q10 17 29 8l137 -80q17 -14 8 -29l-118 -202h151q21 0 21 -21v-160q0 -20 -21 -20h-268l-123 -215h391q21 0 21 -21v-159q0 -21 -21 -21h-506l-176 -303q-14 -17 -29 -8l-137 80q-17 10 -8 28l119 203
h-152q-20 0 -20 21v159q0 21 20 21z" />
    <glyph glyph-name="lessequal" unicode="&#x2264;" horiz-adv-x="1171" 
d="M141 201h889q21 0 21 -21v-160q0 -20 -21 -20h-889q-20 0 -20 20v160q0 21 20 21zM987 473v-180q0 -21 -20 -12l-764 401q-21 12 -21 27v172q0 10 4.5 14.5t16.5 11.5l764 402q20 9 20 -13v-180q0 -20 -20 -29l-564 -292l564 -293q20 -9 20 -29z" />
    <glyph glyph-name="greaterequal" unicode="&#x2265;" horiz-adv-x="1171" 
d="M141 201h889q21 0 21 -21v-160q0 -20 -21 -20h-889q-20 0 -20 20v160q0 21 20 21zM184 293v180q0 20 21 29l563 293l-563 292q-21 9 -21 29v180q0 22 21 13l764 -402q20 -11 20 -26v-172q0 -16 -20 -27l-764 -401q-21 -9 -21 12z" />
    <glyph glyph-name="lozenge" unicode="&#x25ca;" horiz-adv-x="1138" 
d="M694 1413l400 -676q6 -12 6 -20q0 -9 -6 -21l-400 -676q-9 -20 -28 -20h-193q-20 0 -29 20l-399 676q-6 12 -6 21q0 8 6 20l399 676q9 21 29 21h193q19 0 28 -21zM569 1241l-315 -524l315 -524l316 524z" />
    <glyph glyph-name="apple" unicode="&#xf8ff;" horiz-adv-x="1556" 
d="M1384 1264v-1219q0 -18 -12.5 -31.5t-32.5 -13.5q-8 0 -14 2l-547 158l-547 -158q-6 -2 -14 -2q-20 0 -32.5 13.5t-12.5 31.5v1219q0 36 33 45l553 159l20 5q1 0 21 -5l553 -159q32 -8 32 -45zM733 750v620l-471 -137q12 -190 146 -328t325 -155zM823 1370v-620
q191 17 325 155t146 328zM260 948v-844l473 138v417q-151 12 -275 88.5t-198 200.5zM1296 104v844q-76 -125 -199 -201t-274 -88v-417z" />
    <glyph glyph-name="fi" unicode="&#xfb01;" horiz-adv-x="1204" 
d="M725 836h-299v-816q0 -20 -20 -20h-160q-21 0 -21 20v816h-168q-20 0 -20 20v152q0 20 20 20h168v109q0 146 83 231.5t224 85.5q123 0 207 -37q11 -6 14 -13t3 -22v-149q0 -21 -15 -21q-2 0 -4 1t-5 2t-5 2q-85 45 -174 45q-127 0 -127 -158v-76h299q20 0 20 -20v-152
q0 -20 -20 -20zM885 20v988q0 20 20 20h160q20 0 20 -20v-988q0 -20 -20 -20h-160q-20 0 -20 20zM862 1208v205q0 21 21 21h204q21 0 21 -21v-205q0 -20 -21 -20h-204q-21 0 -21 20z" />
    <glyph glyph-name="fl" unicode="&#xfb02;" horiz-adv-x="1253" 
d="M725 836h-299v-816q0 -20 -20 -20h-160q-21 0 -21 20v816h-168q-20 0 -20 20v152q0 20 20 20h168v109q0 146 83 231.5t224 85.5q123 0 207 -37q11 -6 14 -13t3 -22v-149q0 -21 -15 -21q-2 0 -4 1t-5 2t-5 2q-85 45 -174 45q-127 0 -127 -158v-76h299q20 0 20 -20v-152
q0 -20 -20 -20zM909 20v1393q0 21 21 21h160q20 0 20 -21v-1393q0 -20 -20 -20h-160q-21 0 -21 20z" />
    <glyph glyph-name="sterling.tosn" 
d="M367 414h-148q-20 0 -20 20v127q0 21 20 21h94q-28 70 -28 123q0 155 109 249.5t272 94.5q168 0 277 -89.5t116 -242.5q0 -21 -21 -21h-164q-17 0 -20 21q-32 139 -188 139q-77 0 -129 -46.5t-52 -129.5q0 -52 21 -98h360q21 0 21 -21v-127q0 -20 -21 -20h-299
q0 -79 -24 -126.5t-76 -94.5h582q20 0 20 -21v-152q0 -20 -20 -20h-803q-21 0 -21 20v138q0 24 17 41q67 60 96 104t29 111z" />
    <glyph glyph-name="dollar.tosn" 
d="M1063 301q0 -131 -91.5 -213.5t-248.5 -101.5v-170q0 -21 -21 -21h-139q-20 0 -20 21v172q-152 24 -245 111.5t-103 226.5q0 20 20 20h172q18 0 21 -20q19 -110 135 -146v266q-169 36 -245.5 105t-76.5 190q0 131 91 207.5t231 95.5v164q0 21 20 21h139q21 0 21 -21v-168
q134 -25 214.5 -104t92.5 -195q0 -20 -20 -20h-174q-13 0 -19 16q-1 3 -2 4q-25 68 -92 95v-244q64 -14 111.5 -29t92.5 -38.5t73.5 -53t45.5 -73t17 -97.5zM854 301q0 73 -131 111v-234q131 23 131 123zM422 752q0 -42 27 -69t94 -50v219q-56 -8 -88.5 -33.5t-32.5 -66.5z
" />
    <glyph glyph-name="yen.tosn" 
d="M276 627h166l-229 381q-11 20 10 20h197q16 0 26 -16l189 -332l188 332q10 16 27 16h197q21 0 10 -20l-230 -381h166q21 0 21 -21v-131q0 -20 -21 -20h-258v-117h217q21 0 21 -21v-131q0 -20 -21 -20h-217v-146q0 -20 -20 -20h-160q-20 0 -20 20v146h-218q-20 0 -20 20
v131q0 21 20 21h218v117h-259q-20 0 -20 20v131q0 21 20 21z" />
    <glyph glyph-name="cent.tosn" 
d="M573 -182v172q-188 32 -298.5 174.5t-110.5 349.5q0 205 110 346t299 178v172q0 21 21 21h160q20 0 20 -21v-168q154 -24 254 -118.5t125 -229.5q2 -8 2 -20t-14 -12h-166q-22 0 -29 18q-46 130 -172 166v-664q126 36 172 166q7 19 29 19h166q14 0 14 -13q0 -12 -2 -20
q-27 -137 -126 -231t-253 -117v-168q0 -21 -20 -21h-160q-21 0 -21 21zM373 514q0 -129 52.5 -213.5t147.5 -114.5v656q-95 -31 -147.5 -115t-52.5 -213z" />
    <glyph glyph-name="multiply.tosn" 
d="M1020 760l-244 -244l244 -244q8 -8 8 -14t-8 -14l-113 -113q-8 -8 -14 -8t-14 8l-244 244l-244 -244q-8 -8 -14 -8q-7 0 -15 8l-112 113q-8 8 -8 14t8 14l244 244l-244 244q-8 8 -8 14t8 14l112 113q8 8 15 8q6 0 14 -8l244 -244l244 244q8 8 14 8t14 -8l113 -113
q8 -8 8 -14t-8 -14z" />
    <glyph glyph-name="plus.tosn" 
d="M735 961v-345h344q21 0 21 -20v-160q0 -20 -21 -20h-344v-344q0 -21 -20 -21h-160q-20 0 -20 21v344h-345q-20 0 -20 20v160q0 20 20 20h345v345q0 20 20 20h160q20 0 20 -20z" />
    <glyph glyph-name="minus.tosn" 
d="M190 616h889q21 0 21 -20v-160q0 -20 -21 -20h-889q-20 0 -20 20v160q0 20 20 20z" />
    <glyph glyph-name="divide.tosn" 
d="M190 557h889q21 0 21 -20v-160q0 -21 -21 -21h-889q-20 0 -20 21v160q0 20 20 20zM537 238h196q21 0 21 -21v-197q0 -20 -21 -20h-196q-21 0 -21 20v197q0 21 21 21zM537 913h196q21 0 21 -20v-197q0 -20 -21 -20h-196q-21 0 -21 20v197q0 20 21 20z" />
    <glyph glyph-name="Euro.tosn" 
d="M158 459h110q-2 18 -2 55t2 55h-110q-21 0 -21 21v131q0 20 21 20h149q56 143 176 225.5t275 82.5q180 0 299.5 -95.5t148.5 -265.5q0 -20 -20 -20h-162q-14 0 -20 20q-24 77 -87 122.5t-159 45.5q-147 0 -221 -115h213q20 0 20 -20v-131q0 -21 -20 -21h-269
q-2 -18 -2 -55q0 -39 2 -55h269q20 0 20 -21v-131q0 -20 -20 -20h-213q70 -115 221 -115q96 0 159 45.5t87 122.5q6 20 20 20h162q20 0 20 -20q-29 -170 -148 -265t-300 -95q-156 0 -276 81t-175 226h-149q-21 0 -21 20v131q0 21 21 21z" />
    <glyph glyph-name="equal.tosn" 
d="M190 805h889q21 0 21 -21v-159q0 -21 -21 -21h-889q-20 0 -20 21v159q0 21 20 21zM190 389h889q21 0 21 -20v-160q0 -21 -21 -21h-889q-20 0 -20 21v160q0 20 20 20z" />
    <glyph glyph-name="zero.tosn" 
d="M88 514q0 162 74.5 285.5t197.5 186.5t275 63t275 -63t197.5 -186.5t74.5 -285.5t-74.5 -285t-197.5 -186t-275 -63t-275 63t-197.5 186t-74.5 285zM297 514q0 -151 93 -246.5t245 -95.5t245 95.5t93 246.5t-93 246.5t-245 95.5t-245 -95.5t-93 -246.5z" />
    <glyph glyph-name="one.tosn" 
d="M231 193h318v581l-254 -139q-12 -6 -23 -6q-14 0 -14 18v166q0 18 23 31l307 174q17 10 30 10h111q21 0 21 -20v-815h333q21 0 21 -21v-152q0 -20 -21 -20h-852q-20 0 -20 20v152q0 21 20 21z" />
    <glyph glyph-name="two.tosn" 
d="M227 20v119q0 27 23 47l416 328q61 47 85.5 91t24.5 104q0 65 -41.5 106t-113.5 41q-77 0 -123.5 -42.5t-57.5 -117.5q-1 -18 -6.5 -24t-19.5 -6h-150q-24 0 -24 30q12 166 115.5 259.5t258.5 93.5q170 0 266.5 -92t96.5 -226q0 -111 -37.5 -184.5t-126.5 -143.5
l-266 -210h444q21 0 21 -21v-152q0 -20 -21 -20h-743q-21 0 -21 20z" />
    <glyph glyph-name="three.tosn" 
d="M518 350v152q0 20 21 20h112q90 0 137.5 46t47.5 122q0 78 -51.5 122t-143.5 44q-78 0 -135 -43.5t-68 -130.5q-1 -16 -6.5 -19.5t-17.5 -3.5h-148q-24 0 -24 31q5 108 62 191t145.5 125.5t191.5 42.5q174 0 284.5 -94t110.5 -248q0 -174 -153 -269q196 -108 196 -332
q0 -179 -121.5 -284t-310.5 -105q-64 0 -126.5 16.5t-119 50.5t-100 81t-70.5 111.5t-30 138.5q0 30 24 30h150q13 0 19 -4t7 -20q32 -211 254 -211q103 0 163.5 56t60.5 167q0 94 -54.5 145.5t-156.5 51.5h-129q-21 6 -21 20z" />
    <glyph glyph-name="four.tosn" 
d="M723 -262v262h-535q-20 0 -20 20v101q0 25 16 47l564 844q10 16 26 16h129q21 0 21 -20v-815h174q20 0 20 -21v-152q0 -20 -20 -20h-174v-262q0 -21 -23 -21h-158q-20 0 -20 21zM723 645l-303 -452h303v452z" />
    <glyph glyph-name="five.tosn" 
d="M221 311l78 697q3 20 20 20h697q20 0 20 -20v-152q0 -20 -20 -20h-541l-47 -322q118 82 266 82q188 0 301 -112.5t113 -321.5q0 -208 -125 -326.5t-321 -118.5q-115 0 -215 45t-165.5 135t-70.5 209q0 31 25 31h149q12 0 17 -6t10 -25q24 -101 90 -148.5t160 -47.5
q121 0 183 64.5t62 183.5q0 120 -63.5 182.5t-171.5 62.5q-77 0 -135 -22t-121 -72q-1 -1 -6.5 -6t-8 -6.5t-8.5 -3.5t-12 -2h-139q-21 0 -21 20z" />
    <glyph glyph-name="six.tosn" 
d="M199 578q0 343 122.5 538t348.5 195q152 0 269.5 -99t129.5 -260q0 -13 -5 -16.5t-17 -3.5h-150q-17 0 -23 20q-25 88 -73 127t-137 39q-214 0 -252 -358q129 100 290 100q80 0 152.5 -30t128 -84.5t88.5 -139.5t33 -188q0 -197 -126.5 -317.5t-315.5 -120.5
q-75 0 -140 18.5t-125.5 62t-103.5 110.5t-68.5 171t-25.5 236zM420 418q0 -114 65 -180t172 -66t172.5 66t65.5 180t-65.5 182t-172.5 68t-172 -67.5t-65 -182.5z" />
    <glyph glyph-name="seven.tosn" 
d="M281 856v152q0 20 20 20h758q20 0 20 -20v-111q0 -13 -10 -43l-407 -1122q-3 -15 -23 -15h-154q-20 0 -20 17q0 8 2 10l399 1092h-565q-20 0 -20 20z" />
    <glyph glyph-name="eight.tosn" 
d="M250 954q0 165 111 261t274 96t274 -96t111 -261q0 -166 -141 -266q178 -111 178 -317q0 -179 -119 -285t-303 -106t-303 106t-119 285q0 206 178 317q-141 100 -141 266zM422 375q0 -92 59.5 -147.5t153.5 -55.5t153.5 55.5t59.5 147.5q0 91 -60 147t-153 56t-153 -56
t-60 -147zM451 944q0 -82 51.5 -128t132.5 -46t132.5 46t51.5 128t-54.5 128t-129.5 46t-129.5 -46t-54.5 -128z" />
    <glyph glyph-name="nine.tosn" 
d="M1071 451q0 -343 -122.5 -538.5t-348.5 -195.5q-152 0 -269.5 99t-129.5 260q0 13 5 16.5t17 3.5h150q16 0 22 -20q25 -88 73.5 -127t137.5 -39q214 0 252 358q-129 -100 -291 -100q-80 0 -152.5 30t-128 84.5t-88 139.5t-32.5 188q0 197 126.5 318t315.5 121
q75 0 140 -18.5t125.5 -62t103.5 -110.5t68.5 -171t25.5 -236zM850 610q0 114 -65.5 180t-172.5 66t-172 -66t-65 -180q0 -115 65 -182.5t172 -67.5t172.5 68t65.5 182z" />
    <glyph glyph-name="sterling.posn" horiz-adv-x="1091" 
d="M266 414h-147q-21 0 -21 20v127q0 21 21 21h94q-29 72 -29 123q0 155 109 249.5t272 94.5q168 0 277 -89.5t116 -242.5q0 -21 -20 -21h-164q-17 0 -20 21q-32 139 -189 139q-77 0 -128.5 -46.5t-51.5 -129.5q0 -52 21 -98h360q20 0 20 -21v-127q0 -20 -20 -20h-299
q0 -79 -24 -126.5t-76 -94.5h581q21 0 21 -21v-152q0 -20 -21 -20h-803q-20 0 -20 20v138q0 25 16 41q67 60 96 104t29 111z" />
    <glyph glyph-name="dollar.posn" horiz-adv-x="1024" 
d="M940 301q0 -131 -91.5 -213.5t-248.5 -101.5v-170q0 -21 -20 -21h-140q-20 0 -20 21v172q-152 24 -245 111.5t-103 226.5q0 20 20 20h172q18 0 21 -20q19 -110 135 -146v266q-169 36 -245.5 105t-76.5 190q0 131 91 207.5t231 95.5v164q0 21 20 21h140q20 0 20 -21v-168
q134 -25 214.5 -104t92.5 -195q0 -20 -20 -20h-174q-13 0 -19 16q-1 3 -2 4q-25 68 -92 95v-244q64 -14 111.5 -29t92.5 -38.5t73.5 -53t45.5 -73t17 -97.5zM731 301q0 73 -131 111v-234q131 23 131 123zM299 752q0 -42 27 -69t94 -50v219q-56 -8 -88.5 -33.5t-32.5 -66.5z
" />
    <glyph glyph-name="yen.posn" horiz-adv-x="974" 
d="M129 627h166l-229 381q-11 20 10 20h196q17 0 27 -16l188 -332l189 332q10 16 26 16h197q21 0 10 -20l-229 -381h166q20 0 20 -21v-131q0 -20 -20 -20h-258v-117h217q20 0 20 -21v-131q0 -20 -20 -20h-217v-146q0 -20 -21 -20h-159q-21 0 -21 20v146h-217q-20 0 -20 20
v131q0 21 20 21h217v117h-258q-20 0 -20 20v131q0 21 20 21z" />
    <glyph glyph-name="cent.posn" horiz-adv-x="1161" 
d="M500 -182v172q-188 32 -299 175t-111 349q0 205 110.5 346t299.5 178v172q0 21 20 21h160q20 0 20 -21v-168q154 -24 254 -118.5t125 -229.5q2 -8 2 -20t-14 -12h-166q-22 0 -29 18q-46 130 -172 166v-664q126 36 172 166q7 19 29 19h166q14 0 14 -13q0 -12 -2 -20
q-27 -137 -126 -231t-253 -117v-168q0 -21 -20 -21h-160q-20 0 -20 21zM299 514q0 -129 53 -213.5t148 -114.5v656q-95 -31 -148 -115t-53 -213z" />
    <glyph glyph-name="multiply.posn" horiz-adv-x="1036" 
d="M903 760l-244 -244l244 -244q8 -8 8 -14t-8 -14l-112 -113q-8 -8 -15 -8q-6 0 -14 8l-244 244l-244 -244q-8 -8 -14 -8t-14 8l-113 113q-8 8 -8 14t8 14l244 244l-244 244q-8 8 -8 14t8 14l113 113q8 8 14 8t14 -8l244 -244l244 244q8 8 14 8q7 0 15 -8l112 -113
q8 -8 8 -14t-8 -14z" />
    <glyph glyph-name="plus.posn" horiz-adv-x="1171" 
d="M686 961v-345h344q21 0 21 -20v-160q0 -20 -21 -20h-344v-344q0 -21 -20 -21h-160q-21 0 -21 21v344h-344q-20 0 -20 20v160q0 20 20 20h344v345q0 20 21 20h160q20 0 20 -20z" />
    <glyph glyph-name="minus.posn" horiz-adv-x="1171" 
d="M141 616h889q21 0 21 -20v-160q0 -20 -21 -20h-889q-20 0 -20 20v160q0 20 20 20z" />
    <glyph glyph-name="divide.posn" horiz-adv-x="1171" 
d="M141 557h889q21 0 21 -20v-160q0 -21 -21 -21h-889q-20 0 -20 21v160q0 20 20 20zM487 238h197q21 0 21 -21v-197q0 -20 -21 -20h-197q-20 0 -20 20v197q0 21 20 21zM487 913h197q21 0 21 -20v-197q0 -20 -21 -20h-197q-20 0 -20 20v197q0 20 20 20z" />
    <glyph glyph-name="Euro.posn" horiz-adv-x="1218" 
d="M90 459h111q-2 18 -2 55t2 55h-111q-20 0 -20 21v131q0 20 20 20h150q56 143 175.5 225.5t274.5 82.5q181 0 300.5 -95.5t148.5 -265.5q0 -20 -21 -20h-162q-14 0 -20 20q-24 77 -87 122.5t-159 45.5q-147 0 -221 -115h213q20 0 20 -20v-131q0 -21 -20 -21h-268
q-2 -18 -2 -55q0 -39 2 -55h268q20 0 20 -21v-131q0 -20 -20 -20h-213q70 -115 221 -115q96 0 159 45.5t87 122.5q6 20 20 20h162q21 0 21 -20q-29 -170 -148.5 -265t-300.5 -95q-156 0 -275.5 81t-174.5 226h-150q-20 0 -20 20v131q0 21 20 21z" />
    <glyph glyph-name="equal.posn" horiz-adv-x="1171" 
d="M141 805h889q21 0 21 -21v-159q0 -21 -21 -21h-889q-20 0 -20 21v159q0 21 20 21zM141 389h889q21 0 21 -20v-160q0 -21 -21 -21h-889q-20 0 -20 21v160q0 20 20 20z" />
    <glyph glyph-name="zero.posn" horiz-adv-x="1273" 
d="M90 514q0 162 74.5 285.5t197.5 186.5t275 63t275 -63t197.5 -186.5t74.5 -285.5t-74.5 -285t-197.5 -186t-275 -63t-275 63t-197.5 186t-74.5 285zM299 514q0 -151 93 -246.5t245 -95.5t245 95.5t93 246.5t-93 246.5t-245 95.5t-245 -95.5t-93 -246.5z" />
    <glyph glyph-name="one.posn" horiz-adv-x="718" 
d="M375 20v754l-207 -112q-14 -7 -23 -7q-14 0 -14 19v166q0 17 23 30l260 148q17 10 30 10h111q20 0 20 -20v-988q0 -20 -20 -20h-160q-20 0 -20 20z" />
    <glyph glyph-name="two.posn" horiz-adv-x="1015" 
d="M100 20v119q0 27 23 47l416 328q61 47 85.5 91t24.5 104q0 65 -41.5 106t-113.5 41q-77 0 -123.5 -42.5t-57.5 -117.5q-1 -18 -6.5 -24t-19.5 -6h-150q-24 0 -24 30q12 166 115.5 259.5t258.5 93.5q170 0 266.5 -92t96.5 -226q0 -111 -37.5 -184.5t-126.5 -143.5
l-266 -210h444q21 0 21 -21v-152q0 -20 -21 -20h-743q-21 0 -21 20z" />
    <glyph glyph-name="three.posn" horiz-adv-x="1089" 
d="M418 350v152q0 20 20 20h113q89 0 136.5 46t47.5 122q0 78 -51 122t-143 44q-78 0 -135 -43.5t-68 -130.5q-1 -16 -6.5 -19.5t-18.5 -3.5h-147q-25 0 -25 31q5 108 62 191t145.5 125.5t192.5 42.5q174 0 284.5 -94t110.5 -248q0 -173 -154 -269q197 -108 197 -332
q0 -179 -121.5 -284t-310.5 -105q-80 0 -157.5 27t-141 76t-104 126t-44.5 169q0 30 25 30h149q13 0 19.5 -4t7.5 -20q32 -211 254 -211q103 0 163 56t60 167q0 94 -54.5 145.5t-156.5 51.5h-129q-20 6 -20 20z" />
    <glyph glyph-name="four.posn" horiz-adv-x="1171" 
d="M684 -262v262h-534q-21 0 -21 20v101q0 25 16 47l564 844q10 16 26 16h129q21 0 21 -20v-815h174q20 0 20 -21v-152q0 -20 -20 -20h-174v-262q0 -21 -23 -21h-157q-21 0 -21 21zM684 645l-303 -452h303v452z" />
    <glyph glyph-name="five.posn" horiz-adv-x="1153" 
d="M150 311l77 697q3 20 21 20h696q21 0 21 -20v-152q0 -20 -21 -20h-541l-47 -322q118 82 267 82q188 0 300.5 -112.5t112.5 -321.5q0 -208 -125 -326.5t-321 -118.5q-115 0 -215 45t-165.5 135t-70.5 209q0 31 25 31h149q12 0 17 -6t10 -25q24 -101 90 -148.5t160 -47.5
q121 0 183.5 64.5t62.5 183.5q0 120 -64 182.5t-172 62.5q-77 0 -135 -22t-121 -72q-1 -1 -6.5 -6t-8 -6.5t-8.5 -3.5t-12 -2h-139q-20 0 -20 20z" />
    <glyph glyph-name="six.posn" horiz-adv-x="1169" 
d="M133 578q0 343 122.5 538t348.5 195q152 0 270 -99t130 -260q0 -12 -5.5 -16t-17.5 -4h-150q-16 0 -22 20q-25 88 -73.5 127t-137.5 39q-214 0 -252 -358q129 100 291 100q80 0 152.5 -30t128 -84.5t88 -139.5t32.5 -188q0 -197 -126.5 -317.5t-315.5 -120.5
q-75 0 -140 18.5t-125.5 62t-103.5 110.5t-68.5 171t-25.5 236zM354 418q0 -114 65.5 -180t172.5 -66t172 66t65 180q0 115 -65 182.5t-172 67.5t-172.5 -68t-65.5 -182z" />
    <glyph glyph-name="seven.posn" horiz-adv-x="956" 
d="M94 856v152q0 20 21 20h757q21 0 21 -20v-111q0 -13 -10 -43l-408 -1122q-3 -15 -22 -15h-154q-20 0 -20 17q0 8 2 10l399 1092h-565q-21 0 -21 20z" />
    <glyph glyph-name="eight.posn" horiz-adv-x="1077" 
d="M154 954q0 165 111 261t274 96t274 -96t111 -261t-142 -266q179 -112 179 -317q0 -179 -119 -285t-303 -106t-303 106t-119 285q0 206 178 317q-141 100 -141 266zM326 375q0 -92 59.5 -147.5t153.5 -55.5t153.5 55.5t59.5 147.5q0 91 -60 147t-153 56t-153 -56t-60 -147
zM354 944q0 -82 52 -128t133 -46t132.5 46t51.5 128t-54.5 128t-129.5 46t-130 -46t-55 -128z" />
    <glyph glyph-name="nine.posn" horiz-adv-x="1169" 
d="M1036 451q0 -343 -122.5 -538.5t-348.5 -195.5q-152 0 -269.5 99t-129.5 260q0 13 5 16.5t17 3.5h150q16 0 22 -20q25 -88 73.5 -127t137.5 -39q214 0 252 358q-129 -100 -291 -100q-80 0 -152.5 30t-128 84.5t-88 139.5t-32.5 188q0 197 126.5 318t315.5 121
q75 0 140 -18.5t125.5 -62t103.5 -110.5t68.5 -171t25.5 -236zM815 610q0 114 -65 180t-172 66t-172.5 -66t-65.5 -180t65.5 -182t172.5 -68t172 67.5t65 182.5z" />
    <glyph glyph-name="ampersand.alt" horiz-adv-x="1331" 
d="M1260 676h-187v-164q0 -135 -37.5 -238.5t-104 -166.5t-152.5 -95t-189 -32q-212 0 -348 114.5t-136 311.5q0 78 18.5 140.5t53 107t71.5 74.5t87 58q-82 56 -129 132t-47 190q0 162 116.5 254t296.5 92h193q20 0 20 -20v-160q0 -21 -20 -21h-170q-115 0 -169 -47
t-54 -141q0 -91 65.5 -139.5t173.5 -48.5h252v194q0 21 21 21h168q20 0 20 -21v-194h187q22 0 22 -23v-156q0 -16 -22 -22zM864 518v158h-264q-137 0 -209 -67t-72 -199q0 -110 71.5 -170t199.5 -60q119 0 196.5 84.5t77.5 253.5z" />
    <glyph glyph-name="braceleft.ss04" horiz-adv-x="786" 
d="M455 539v-162q0 -88 32 -130t105 -42h76q20 0 20 -21v-164q0 -20 -20 -20h-97q-177 0 -253 89.5t-76 301.5v86q0 137 -125 137h-58q-20 0 -20 21v164q0 20 20 20h58q125 0 125 137v86q0 211 76 301.5t253 90.5h97q20 0 20 -21v-164q0 -20 -20 -20h-76q-73 0 -105 -42
t-32 -130v-162q0 -78 -28.5 -118t-100.5 -60q72 -20 100.5 -60t28.5 -118z" />
    <glyph glyph-name="braceright.ss04" horiz-adv-x="786" 
d="M332 377v162q0 78 28.5 118t100.5 60q-72 20 -100.5 60t-28.5 118v162q0 88 -32 130t-105 42h-76q-21 0 -21 20v164q0 21 21 21h96q177 0 253.5 -90.5t76.5 -301.5v-86q0 -137 125 -137h57q21 0 21 -20v-164q0 -21 -21 -21h-57q-125 0 -125 -137v-86q0 -212 -76 -301.5
t-254 -89.5h-96q-21 0 -21 20v164q0 21 21 21h76q73 0 105 42t32 130z" />
    <glyph glyph-name="bracketleft.ss04" horiz-adv-x="837" 
d="M160 20v1393q0 21 20 21h543q20 0 20 -21v-164q0 -20 -20 -20h-350v-1024h350q20 0 20 -21v-164q0 -20 -20 -20h-543q-20 0 -20 20z" />
    <glyph glyph-name="bracketright.ss04" horiz-adv-x="837" 
d="M678 1413v-1393q0 -20 -21 -20h-542q-21 0 -21 20v164q0 21 21 21h350v1024h-350q-21 0 -21 20v164q0 21 21 21h542q21 0 21 -21z" />
    <glyph glyph-name="parenleft.ss04" horiz-adv-x="735" 
d="M379 745v-36q0 -89 12 -158t30.5 -119.5t58 -101t78 -88t106.5 -95.5q8 -5 8 -14q0 -8 -6 -14l-111 -127q-8 -8 -14 -8t-15 6q-122 90 -197.5 174.5t-119 196t-43.5 249.5v234q0 106 22.5 192.5t71.5 160.5t111 135t155 132q9 6 15 6t14 -8l111 -127q6 -6 6 -14
q0 -9 -8 -14q-68 -58 -106.5 -95.5t-78 -88t-58 -101t-30.5 -119.5t-12 -158z" />
    <glyph glyph-name="parenright.ss04" horiz-adv-x="735" 
d="M356 709v36q0 89 -11.5 158t-30.5 119.5t-58 101t-77.5 88t-106.5 95.5q-9 6 -9 14q0 7 7 14l110 127q8 8 15 8q5 0 14 -6q91 -70 153 -131.5t111 -136t72.5 -161t23.5 -191.5v-234q0 -200 -88.5 -342.5t-271.5 -277.5q-9 -6 -14 -6q-7 0 -15 8l-110 127q-7 7 -7 14
q0 8 9 14q68 58 106.5 95.5t77.5 88t58 101t30.5 119.5t11.5 158z" />
    <glyph glyph-name="braceleft.case" horiz-adv-x="794" 
d="M467 541v-365q0 -88 32 -130t105 -42h76q20 0 20 -20v-164q0 -21 -20 -21h-96q-178 0 -254 89.5t-76 301.5v289q0 137 -125 137h-57q-21 0 -21 21v164q0 20 21 20h57q125 0 125 137v289q0 210 76.5 300.5t253.5 90.5h96q20 0 20 -20v-164q0 -20 -20 -20h-76
q-73 0 -105 -42t-32 -130v-365q0 -78 -28.5 -118t-100.5 -60q72 -20 100.5 -60t28.5 -118z" />
    <glyph glyph-name="braceright.case" horiz-adv-x="794" 
d="M328 176v365q0 78 28.5 118t100.5 60q-72 20 -100.5 60t-28.5 118v365q0 88 -32 130t-106 42h-75q-21 0 -21 20v164q0 20 21 20h96q177 0 253.5 -90.5t76.5 -300.5v-289q0 -137 125 -137h57q20 0 20 -20v-164q0 -21 -20 -21h-57q-125 0 -125 -137v-289q0 -212 -76 -301.5
t-254 -89.5h-96q-21 0 -21 21v164q0 20 21 20h75q74 0 106 42t32 130z" />
    <glyph glyph-name="bracketleft.case" horiz-adv-x="837" 
d="M160 -180v1798q0 20 20 20h543q20 0 20 -20v-164q0 -20 -20 -20h-350v-1430h350q20 0 20 -20v-164q0 -21 -20 -21h-543q-20 0 -20 21z" />
    <glyph glyph-name="bracketright.case" horiz-adv-x="837" 
d="M678 1618v-1798q0 -21 -21 -21h-542q-21 0 -21 21v164q0 20 21 20h350v1430h-350q-21 0 -21 20v164q0 20 21 20h542q21 0 21 -20z" />
    <glyph glyph-name="parenleft.case" horiz-adv-x="731" 
d="M379 834v-228q0 -98 4 -164t17.5 -126t31 -99.5t55 -86.5t77 -85t108.5 -98q8 -8 8 -15q0 -8 -6 -14l-107 -125q-8 -8 -14 -8q-8 0 -14 6q-150 122 -227 222t-111.5 223.5t-34.5 308.5v350q0 185 34.5 308.5t111.5 223.5t227 222q6 6 14 6q6 0 14 -8l107 -125q6 -6 6 -15
q0 -6 -8 -14q-69 -60 -108.5 -98t-77 -85t-55 -86.5t-31 -99.5t-17.5 -126t-4 -164z" />
    <glyph glyph-name="parenright.case" horiz-adv-x="741" 
d="M362 606v228q0 98 -3.5 164t-17.5 126t-31.5 99.5t-54.5 86.5t-76.5 85t-108.5 98q-9 9 -9 14q0 8 7 15l106 125q8 8 14 8q9 0 15 -6q150 -122 227 -222.5t111 -223t34 -308.5v-350q0 -186 -34 -308.5t-111 -223t-227 -222.5q-6 -6 -15 -6q-6 0 -14 8l-106 125
q-7 7 -7 14q0 6 9 15q69 60 108.5 98t76.5 85t54.5 86.5t31.5 99.5t17.5 126t3.5 164z" />
    <glyph glyph-name="bullet.case" horiz-adv-x="786" 
d="M160 717q0 97 68 165t165 68t165.5 -68t68.5 -165t-68.5 -165.5t-165.5 -68.5t-165 68.5t-68 165.5z" />
    <glyph glyph-name="exclamdown.case" horiz-adv-x="618" 
d="M395 0h-172q-20 0 -20 20v998q0 20 20 20h172q21 0 21 -20v-998q0 -20 -21 -20zM412 1188h-205q-21 0 -21 20v205q0 21 21 21h205q20 0 20 -21v-205q0 -20 -20 -20z" />
    <glyph glyph-name="questiondown.case" horiz-adv-x="1167" 
d="M1026 397q-2 -82 -35.5 -157t-91 -133t-144 -92.5t-188.5 -34.5q-205 0 -324.5 103.5t-119.5 262.5q0 69 19 126.5t48.5 97t66 74.5t73 67.5t66 67t48.5 82.5t19 106v51q0 20 20 20h172q21 0 21 -20v-51q0 -72 -19 -132.5t-48.5 -103t-66 -79.5t-73 -68.5t-66 -63.5
t-48.5 -72t-19 -86q0 -84 64 -131t167 -47q94 0 164 52t86 161q3 21 21 21h168q20 0 20 -21zM672 1188h-205q-21 0 -21 20v205q0 21 21 21h205q20 0 20 -21v-205q0 -20 -20 -20z" />
    <glyph glyph-name="at.case" horiz-adv-x="1650" 
d="M1399 748q0 112 -33.5 208.5t-99 172t-171.5 118.5t-241 43q-117 0 -224 -40t-190.5 -113.5t-132.5 -187t-49 -249.5q0 -279 165 -444.5t431 -165.5q93 0 165 14.5t105.5 29.5t99.5 51q12 6 19 10q14 9 25 -9l55 -120q7 -16 -8 -25q-209 -115 -461 -115
q-161 0 -301.5 51.5t-246 148t-166 244.5t-60.5 330q0 141 42.5 264t116.5 211.5t172.5 152t211 95t231.5 31.5q161 0 296.5 -54.5t227 -147.5t142.5 -219.5t51 -268.5q0 -230 -85.5 -349.5t-244.5 -119.5q-66 0 -123 33t-78 78q-55 -60 -118.5 -85.5t-155.5 -25.5
q-91 0 -167 38.5t-125.5 123.5t-49.5 205q0 190 115 317t284 127q127 0 213 -86l6 55q3 17 17 17h117q16 0 16 -17l-47 -430q-4 -50 -4 -72q0 -70 35 -98.5t77 -28.5q146 0 146 302zM1008 729q0 109 -44 167t-130 58q-114 0 -178 -87t-64 -201q0 -106 48 -163t138 -57
q104 0 167 81t63 202z" />
    <glyph glyph-name="guilsinglleft.case" horiz-adv-x="690" 
d="M586 1219v-201q0 -21 -15 -33l-292 -268l292 -268q15 -12 15 -33v-201q0 -14 -13 -14q-6 0 -12 6l-455 403q-20 17 -20 37v139q0 20 20 37l455 404q6 6 12 6q13 0 13 -14z" />
    <glyph glyph-name="guilsinglright.case" horiz-adv-x="690" 
d="M104 1018v201q0 14 13 14q6 0 12 -6l455 -404q20 -17 20 -37v-139q0 -20 -20 -37l-455 -403q-6 -6 -12 -6q-13 0 -13 14v201q0 21 15 33l293 268l-293 268q-15 12 -15 33z" />
    <glyph glyph-name="guillemotleft.case" horiz-adv-x="1126" 
d="M586 1219v-201q0 -21 -15 -33l-292 -268l292 -268q15 -12 15 -33v-201q0 -14 -13 -14q-6 0 -12 6l-455 403q-20 17 -20 37v139q0 20 20 37l455 404q6 6 12 6q13 0 13 -14zM1022 1219v-201q0 -22 -14 -33l-293 -268l293 -268q14 -11 14 -33v-201q0 -14 -12 -14q-7 0 -13 6
l-454 403q-21 18 -21 37v139q0 19 21 37l454 404q6 6 13 6q12 0 12 -14z" />
    <glyph glyph-name="guillemotright.case" horiz-adv-x="1126" 
d="M541 1018v201q0 14 12 14q6 0 12 -6l455 -404q20 -17 20 -37v-139q0 -20 -20 -37l-455 -403q-6 -6 -12 -6q-12 0 -12 14v201q0 22 14 33l293 268l-293 268q-14 11 -14 33zM104 1018v201q0 14 13 14q6 0 12 -6l455 -404q20 -17 20 -37v-139q0 -20 -20 -37l-455 -403
q-6 -6 -12 -6q-13 0 -13 14v201q0 21 15 33l293 268l-293 268q-15 12 -15 33z" />
    <glyph glyph-name="zero.tn" 
d="M82 717q0 177 43.5 319t119 232.5t175 138t215.5 47.5t215.5 -47.5t175 -138t119 -232.5t43.5 -319t-43.5 -319t-119 -232.5t-175 -138t-215.5 -47.5t-215.5 47.5t-175 138t-119 232.5t-43.5 319zM295 717q0 -143 26.5 -249t73.5 -167.5t107 -91t133 -29.5t133 29.5
t107 91t73.5 167.5t26.5 249t-26 249t-73.5 167.5t-107.5 90.5t-133 29t-133 -29t-107.5 -90.5t-73.5 -167.5t-26 -249z" />
    <glyph glyph-name="one.tn" 
d="M1087 0h-872q-20 0 -20 20v160q0 21 20 21h332v960l-291 -162q-12 -6 -23 -6q-14 0 -14 19v178q0 18 23 31l366 202q18 11 31 11h96q21 0 21 -21v-1212h331q21 0 21 -21v-160q0 -20 -21 -20z" />
    <glyph glyph-name="two.tn" 
d="M156 20v127q0 29 22 48l559 528q72 68 103.5 137.5t31.5 157.5q0 105 -66 170t-181 65q-116 0 -186.5 -68t-76.5 -179q-1 -18 -6.5 -24.5t-19.5 -6.5h-154q-24 0 -24 31q5 189 135.5 318.5t331.5 129.5q207 0 331.5 -119t124.5 -309q0 -139 -47.5 -238.5t-156.5 -199.5
l-412 -387h639q20 0 20 -21v-160q0 -20 -20 -20h-928q-20 0 -20 20z" />
    <glyph glyph-name="three.tn" 
d="M494 686v156q0 22 22 22h107q125 0 187 51.5t62 145.5q0 92 -65 142t-172 50q-101 0 -167.5 -52t-78.5 -148q-1 -16 -7 -20.5t-20 -4.5h-153q-27 0 -27 35q12 169 144.5 280t308.5 111q189 0 313.5 -100t124.5 -267q0 -107 -40.5 -181t-121.5 -130q228 -99 228 -358
q0 -204 -139.5 -321t-364.5 -117q-209 0 -349.5 124t-152.5 330q0 35 27 35h151q27 0 29 -27q13 -126 97 -194t206 -68q127 0 207 63t80 191q0 106 -78 168t-217 62h-119q-22 6 -22 22z" />
    <glyph glyph-name="four.tn" 
d="M752 20v246h-613q-20 0 -20 21v116q0 26 16 48l651 966q10 17 27 17h127q21 0 21 -21v-946h202q21 0 21 -21v-159q0 -21 -21 -21h-202v-246q0 -20 -23 -20h-166q-20 0 -20 20zM752 1036l-383 -569h383v569z" />
    <glyph glyph-name="five.tn" 
d="M174 643l88 770q3 21 21 21h778q20 0 20 -21v-160q0 -20 -20 -20h-612l-52 -369q147 86 303 86q212 0 334.5 -126.5t122.5 -354.5q0 -157 -67.5 -269.5t-179 -166t-253.5 -53.5q-209 0 -345 120t-148 312q0 30 24 30h158q12 0 17.5 -5.5t9.5 -24.5q23 -110 99 -171
t185 -61q138 0 214.5 73t76.5 212q0 136 -75 210.5t-214 74.5q-84 0 -151 -26t-133 -83q-18 -18 -35 -18h-145q-21 0 -21 20z" />
    <glyph glyph-name="six.tn" 
d="M133 653q0 203 39 357.5t110.5 251t167 144.5t214.5 48q187 0 308 -100.5t146 -268.5q0 -13 -5 -16.5t-17 -3.5h-164q-17 0 -23 20q-67 177 -245 177q-121 0 -204 -110t-106 -349q138 123 334 123q205 0 336 -126.5t131 -346.5q0 -109 -41.5 -200t-111 -150t-158 -91
t-185.5 -32q-89 0 -165.5 22.5t-143.5 73t-114.5 127.5t-75 191.5t-27.5 258.5zM381 453q0 -123 77 -198t206 -75t205.5 75t76.5 198t-76.5 197.5t-205.5 74.5q-130 0 -206.5 -75t-76.5 -197z" />
    <glyph glyph-name="seven.tn" 
d="M197 1253v160q0 21 20 21h901q21 0 21 -21v-119q0 -18 -11 -51l-483 -1229q-6 -14 -22 -14h-168q-21 0 -21 16q0 3 4 15l471 1202h-692q-20 0 -20 20z" />
    <glyph glyph-name="eight.tn" 
d="M195 1065q0 120 61.5 210t160 134.5t218.5 44.5t218.5 -44.5t160 -134.5t61.5 -210q0 -190 -164 -303q63 -36 106.5 -78.5t73 -112t29.5 -157.5q0 -190 -135 -312t-350 -122t-350 122t-135 312q0 88 29.5 157.5t72.5 112t106 78.5q-163 112 -163 303zM358 416
q0 -111 76 -173.5t201 -62.5t200.5 62.5t75.5 173.5t-75.5 175t-200.5 64t-201 -64t-76 -175zM395 1057q0 -93 65 -149t175 -56t174.5 56t64.5 149q0 94 -66.5 147t-172.5 53t-173 -53t-67 -147z" />
    <glyph glyph-name="nine.tn" 
d="M1137 780q0 -203 -39 -357.5t-110.5 -250.5t-167 -144t-214.5 -48q-186 0 -307.5 100.5t-146.5 267.5q0 21 22 21h164q16 0 22 -21q66 -176 246 -176q121 0 203.5 110t105.5 349q-138 -123 -333 -123q-205 0 -336 126.5t-131 346.5q0 109 41 200t110.5 150t158 91
t185.5 32q112 0 204.5 -37t166 -114.5t115 -210.5t41.5 -312zM889 981q0 122 -76.5 197t-206.5 75q-129 0 -205.5 -74.5t-76.5 -197.5t76.5 -197.5t205.5 -74.5q130 0 206.5 75t76.5 197z" />
    <glyph glyph-name="zero.slashtn" 
d="M82 717q0 177 43.5 319t119 232.5t175 138t215.5 47.5t215.5 -47.5t175 -138t119 -232.5t43.5 -319t-43.5 -319t-119 -232.5t-175 -138t-215.5 -47.5t-215.5 47.5t-175 138t-119 232.5t-43.5 319zM975 717q0 313 -123 446l-256 -981q14 -2 39 -2q73 0 133 29.5t107 91
t73.5 167.5t26.5 249zM295 717q0 -314 123 -447l256 981q-14 2 -39 2q-73 0 -133 -29t-107.5 -90.5t-73.5 -167.5t-26 -249z" />
    <glyph glyph-name="zero.slash" horiz-adv-x="1273" 
d="M84 717q0 177 43.5 319t119 232.5t175 138t215.5 47.5t215.5 -47.5t175 -138t119 -232.5t43.5 -319t-43.5 -319t-119 -232.5t-175 -138t-215.5 -47.5t-215.5 47.5t-175 138t-119 232.5t-43.5 319zM977 717q0 313 -123 446l-256 -981q14 -2 39 -2q73 0 133 29.5t107 91
t73.5 167.5t26.5 249zM297 717q0 -314 123 -447l256 981q-14 2 -39 2q-73 0 -133 -29t-107.5 -90.5t-73.5 -167.5t-26 -249z" />
    <glyph glyph-name="zero.slashposn" horiz-adv-x="1273" 
d="M90 514q0 162 74.5 285.5t197.5 186.5t275 63t275 -63t197.5 -186.5t74.5 -285.5t-74.5 -285t-197.5 -186t-275 -63t-275 63t-197.5 186t-74.5 285zM975 514q0 153 -92 248l-326 -584q37 -6 80 -6q152 0 245 95.5t93 246.5zM299 514q0 -153 92 -248l326 584q-37 6 -80 6
q-152 0 -245 -95.5t-93 -246.5z" />
    <glyph glyph-name="zero.slashtosn" 
d="M88 514q0 162 74.5 285.5t197.5 186.5t275 63t275 -63t197.5 -186.5t74.5 -285.5t-74.5 -285t-197.5 -186t-275 -63t-275 63t-197.5 186t-74.5 285zM973 514q0 153 -92 248l-326 -584q38 -6 80 -6q152 0 245 95.5t93 246.5zM297 514q0 -153 92 -248l326 584q-38 6 -80 6
q-152 0 -245 -95.5t-93 -246.5z" />
    <glyph glyph-name="zero.slashsuperior" horiz-adv-x="790" 
d="M82 1051q0 190 89.5 292.5t223.5 102.5t224 -102.5t90 -292.5t-90 -293t-224 -103t-223.5 103t-89.5 293zM561 1051q0 129 -47 194l-119 -450q74 0 120 64t46 192zM229 1051q0 -130 47 -195l119 451q-74 0 -120 -64t-46 -192z" />
    <glyph glyph-name="zero.slashinferior" horiz-adv-x="790" 
d="M82 -23q0 190 89.5 293t223.5 103t224 -103t90 -293t-90 -292.5t-224 -102.5t-223.5 102.5t-89.5 292.5zM561 -23q0 130 -47 195l-119 -451q74 0 120 64t46 192zM229 -23q0 -129 47 -194l119 450q-74 0 -120 -64t-46 -192z" />
    <glyph glyph-name="a.alt" horiz-adv-x="1228" 
d="M1077 1008v-988q0 -20 -20 -20h-160q-20 0 -20 20v56q-120 -96 -308 -96q-207 0 -343 147t-136 387t136.5 387.5t342.5 147.5q186 0 308 -97v56q0 20 20 20h160q20 0 20 -20zM893 514q0 152 -81.5 247t-215.5 95t-213.5 -95t-79.5 -247t79.5 -247t213.5 -95t215.5 95
t81.5 247z" />
    <glyph glyph-name="aacute.alt" horiz-adv-x="1228" 
d="M1077 1008v-988q0 -20 -20 -20h-160q-20 0 -20 20v56q-120 -96 -308 -96q-207 0 -343 147t-136 387t136.5 387.5t342.5 147.5q186 0 308 -97v56q0 20 20 20h160q20 0 20 -20zM893 514q0 152 -81.5 247t-215.5 95t-213.5 -95t-79.5 -247t79.5 -247t213.5 -95t215.5 95
t81.5 247zM444 1155l142 258q12 21 30 21h228q10 0 13 -7t-3 -14l-211 -260q-13 -18 -37 -18h-151q-10 0 -13 6.5t2 13.5z" />
    <glyph glyph-name="agrave.alt" horiz-adv-x="1228" 
d="M1077 1008v-988q0 -20 -20 -20h-160q-20 0 -20 20v56q-120 -96 -308 -96q-207 0 -343 147t-136 387t136.5 387.5t342.5 147.5q186 0 308 -97v56q0 20 20 20h160q20 0 20 -20zM893 514q0 152 -81.5 247t-215.5 95t-213.5 -95t-79.5 -247t79.5 -247t213.5 -95t215.5 95
t81.5 247zM567 1413l142 -258q5 -7 2 -13.5t-13 -6.5h-151q-22 0 -37 18l-211 260q-6 7 -3 14t13 7h228q18 0 30 -21z" />
    <glyph glyph-name="acircumflex.alt" horiz-adv-x="1228" 
d="M1077 1008v-988q0 -20 -20 -20h-160q-20 0 -20 20v56q-120 -96 -308 -96q-207 0 -343 147t-136 387t136.5 387.5t342.5 147.5q186 0 308 -97v56q0 20 20 20h160q20 0 20 -20zM893 514q0 152 -81.5 247t-215.5 95t-213.5 -95t-79.5 -247t79.5 -247t213.5 -95t215.5 95
t81.5 247zM690 1417l215 -274q6 -7 3 -14t-13 -7h-160q-18 0 -37 19l-108 108l-109 -108q-19 -19 -37 -19h-159q-10 0 -13.5 7t2.5 14l215 274q17 17 31 17h139q14 0 31 -17z" />
    <glyph glyph-name="adieresis.alt" horiz-adv-x="1228" 
d="M1077 1008v-988q0 -20 -20 -20h-160q-20 0 -20 20v56q-120 -96 -308 -96q-207 0 -343 147t-136 387t136.5 387.5t342.5 147.5q186 0 308 -97v56q0 20 20 20h160q20 0 20 -20zM893 514q0 152 -81.5 247t-215.5 95t-213.5 -95t-79.5 -247t79.5 -247t213.5 -95t215.5 95
t81.5 247zM299 1221v192q0 21 20 21h193q20 0 20 -21v-192q0 -21 -20 -21h-193q-20 0 -20 21zM651 1221v192q0 21 21 21h192q21 0 21 -21v-192q0 -21 -21 -21h-192q-21 0 -21 21z" />
    <glyph glyph-name="atilde.alt" horiz-adv-x="1228" 
d="M1077 1008v-988q0 -20 -20 -20h-160q-20 0 -20 20v56q-120 -96 -308 -96q-207 0 -343 147t-136 387t136.5 387.5t342.5 147.5q186 0 308 -97v56q0 20 20 20h160q20 0 20 -20zM893 514q0 152 -81.5 247t-215.5 95t-213.5 -95t-79.5 -247t79.5 -247t213.5 -95t215.5 95
t81.5 247zM215 1364q48 39 109 64.5t108 25.5q53 0 95 -13t64.5 -29t54.5 -29t69 -13q33 0 59.5 10t67.5 39q12 4 14 4q11 0 21 -16l71 -102q6 -10 6 -17q0 -11 -12 -20q-48 -39 -109 -64.5t-108 -25.5q-54 0 -96.5 13t-64.5 29t-54 29t-68 13q-32 0 -59 -10.5t-68 -39.5
q-12 -4 -14 -4q-10 0 -20 17l-72 102q-6 10 -6 16q0 12 12 21z" />
    <glyph glyph-name="aring.alt" horiz-adv-x="1228" 
d="M1077 1008v-988q0 -20 -20 -20h-160q-20 0 -20 20v56q-120 -96 -308 -96q-207 0 -343 147t-136 387t136.5 387.5t342.5 147.5q186 0 308 -97v56q0 20 20 20h160q20 0 20 -20zM893 514q0 152 -81.5 247t-215.5 95t-213.5 -95t-79.5 -247t79.5 -247t213.5 -95t215.5 95
t81.5 247zM383 1286q0 84 54 136.5t141 52.5q86 0 140 -52t54 -137q0 -84 -53.5 -136t-140.5 -52t-141 52t-54 136zM502 1286q0 -36 21.5 -57t54.5 -21t54 21t21 57t-21 57t-54 21t-54.5 -21t-21.5 -57z" />
    <glyph glyph-name="amacron.alt" horiz-adv-x="1228" 
d="M1077 1008v-988q0 -20 -20 -20h-160q-20 0 -20 20v56q-120 -96 -308 -96q-207 0 -343 147t-136 387t136.5 387.5t342.5 147.5q186 0 308 -97v56q0 20 20 20h160q20 0 20 -20zM893 514q0 152 -81.5 247t-215.5 95t-213.5 -95t-79.5 -247t79.5 -247t213.5 -95t215.5 95
t81.5 247zM360 1221v143q0 20 21 20h410q20 0 20 -20v-143q0 -21 -20 -21h-410q-21 0 -21 21z" />
    <glyph glyph-name="abreve.alt" horiz-adv-x="1228" 
d="M1077 1008v-988q0 -20 -20 -20h-160q-20 0 -20 20v56q-120 -96 -308 -96q-207 0 -343 147t-136 387t136.5 387.5t342.5 147.5q186 0 308 -97v56q0 20 20 20h160q20 0 20 -20zM893 514q0 152 -81.5 247t-215.5 95t-213.5 -95t-79.5 -247t79.5 -247t213.5 -95t215.5 95
t81.5 247zM330 1417h127q20 0 20 -20q0 -109 98 -109q99 0 99 109q0 20 20 20h127q21 0 21 -20q0 -122 -72.5 -193t-194.5 -71t-194 71t-72 193q0 20 21 20z" />
    <glyph glyph-name="aogonek.alt" horiz-adv-x="1228" 
d="M1077 1008v-988q0 -14 -12 -20q-102 -44 -102 -125q0 -42 29.5 -66t82.5 -24h33q20 0 20 -21v-102q0 -20 -20 -20h-90q-109 0 -178.5 48t-69.5 138q0 58 30 103.5t77 74.5v70q-120 -96 -308 -96q-207 0 -343 147t-136 387t136.5 387.5t342.5 147.5q186 0 308 -97v56
q0 20 20 20h160q20 0 20 -20zM893 514q0 152 -81.5 247t-215.5 95t-213.5 -95t-79.5 -247t79.5 -247t213.5 -95t215.5 95t81.5 247z" />
    <glyph glyph-name="aringacute.alt" horiz-adv-x="1228" 
d="M1077 1008v-988q0 -20 -20 -20h-160q-20 0 -20 20v56q-120 -96 -308 -96q-207 0 -343 147t-136 387t136.5 387.5t342.5 147.5q186 0 308 -97v56q0 20 20 20h160q20 0 20 -20zM893 514q0 152 -81.5 247t-215.5 95t-213.5 -95t-79.5 -247t79.5 -247t213.5 -95t215.5 95
t81.5 247zM436 1561l142 258q11 20 30 20h228q10 0 13 -6.5t-3 -13.5l-211 -260q-14 -19 -37 -19h-152q-10 0 -12.5 7t2.5 14zM391 1286q0 84 54 136.5t141 52.5q86 0 140 -52t54 -137q0 -84 -53.5 -136t-140.5 -52t-141 52t-54 136zM510 1286q0 -36 21.5 -57t54.5 -21
t54.5 21t21.5 57t-21.5 57t-54.5 21t-54.5 -21t-21.5 -57z" />
    <glyph glyph-name="g.alt" horiz-adv-x="1241" 
d="M637 350q-71 0 -120.5 15.5t-104.5 52.5q-117 -48 -117 -117q0 -51 34 -76.5t89 -25.5q36 0 126 19.5t169 19.5q194 0 315 -86.5t121 -237.5q0 -167 -130 -253.5t-355 -86.5q-233 0 -362.5 82t-129.5 240q0 91 61 155q-139 93 -139 236q0 181 209 266q-33 79 -33 145
q0 108 52 189t134.5 121.5t180.5 40.5q109 0 186 -50l146 134q8 8 16 8q5 0 16 -11l101 -112q8 -8 8 -17q0 -8 -10 -18l-133 -119q37 -67 37 -166q0 -162 -106.5 -255t-260.5 -93zM373 -86q0 -75 80.5 -111t210.5 -36q284 0 284 147q0 131 -268 131q-64 0 -141 -14.5
t-101 -16.5q-65 -43 -65 -100zM471 698q0 -74 48 -114.5t118 -40.5q72 0 119 40t47 115t-47.5 116.5t-118.5 41.5q-70 0 -118 -41.5t-48 -116.5z" />
    <glyph glyph-name="gcircumflex.alt" horiz-adv-x="1241" 
d="M637 350q-71 0 -120.5 15.5t-104.5 52.5q-117 -48 -117 -117q0 -51 34 -76.5t89 -25.5q36 0 126 19.5t169 19.5q194 0 315 -86.5t121 -237.5q0 -167 -130 -253.5t-355 -86.5q-233 0 -362.5 82t-129.5 240q0 91 61 155q-139 93 -139 236q0 181 209 266q-33 79 -33 145
q0 108 52 189t134.5 121.5t180.5 40.5q109 0 186 -50l146 134q8 8 16 8q5 0 16 -11l101 -112q8 -8 8 -17q0 -8 -10 -18l-133 -119q37 -67 37 -166q0 -162 -106.5 -255t-260.5 -93zM373 -86q0 -75 80.5 -111t210.5 -36q284 0 284 147q0 131 -268 131q-64 0 -141 -14.5
t-101 -16.5q-65 -43 -65 -100zM471 698q0 -74 48 -114.5t118 -40.5q72 0 119 40t47 115t-47.5 116.5t-118.5 41.5q-70 0 -118 -41.5t-48 -116.5zM737 1458l215 -274q6 -8 3 -14.5t-13 -6.5h-160q-18 0 -37 19l-108 108l-109 -108q-19 -19 -36 -19h-160q-10 0 -13 6.5t3 14.5
l215 274q17 17 30 17h140q13 0 30 -17z" />
    <glyph glyph-name="gbreve.alt" horiz-adv-x="1241" 
d="M637 350q-71 0 -120.5 15.5t-104.5 52.5q-117 -48 -117 -117q0 -51 34 -76.5t89 -25.5q36 0 126 19.5t169 19.5q194 0 315 -86.5t121 -237.5q0 -167 -130 -253.5t-355 -86.5q-233 0 -362.5 82t-129.5 240q0 91 61 155q-139 93 -139 236q0 181 209 266q-33 79 -33 145
q0 108 52 189t134.5 121.5t180.5 40.5q109 0 186 -50l146 134q8 8 16 8q5 0 16 -11l101 -112q8 -8 8 -17q0 -8 -10 -18l-133 -119q37 -67 37 -166q0 -162 -106.5 -255t-260.5 -93zM373 -86q0 -75 80.5 -111t210.5 -36q284 0 284 147q0 131 -268 131q-64 0 -141 -14.5
t-101 -16.5q-65 -43 -65 -100zM471 698q0 -74 48 -114.5t118 -40.5q72 0 119 40t47 115t-47.5 116.5t-118.5 41.5q-70 0 -118 -41.5t-48 -116.5zM391 1417h127q21 0 21 -20q0 -109 98 -109t98 109q0 20 21 20h127q20 0 20 -20q0 -122 -72 -193t-194 -71t-194 71t-72 193
q0 20 20 20z" />
    <glyph glyph-name="gdotaccent.alt" horiz-adv-x="1241" 
d="M637 350q-71 0 -120.5 15.5t-104.5 52.5q-117 -48 -117 -117q0 -51 34 -76.5t89 -25.5q36 0 126 19.5t169 19.5q194 0 315 -86.5t121 -237.5q0 -167 -130 -253.5t-355 -86.5q-233 0 -362.5 82t-129.5 240q0 91 61 155q-139 93 -139 236q0 181 209 266q-33 79 -33 145
q0 108 52 189t134.5 121.5t180.5 40.5q109 0 186 -50l146 134q8 8 16 8q5 0 16 -11l101 -112q8 -8 8 -17q0 -8 -10 -18l-133 -119q37 -67 37 -166q0 -162 -106.5 -255t-260.5 -93zM373 -86q0 -75 80.5 -111t210.5 -36q284 0 284 147q0 131 -268 131q-64 0 -141 -14.5
t-101 -16.5q-65 -43 -65 -100zM471 698q0 -74 48 -114.5t118 -40.5q72 0 119 40t47 115t-47.5 116.5t-118.5 41.5q-70 0 -118 -41.5t-48 -116.5zM514 1208v205q0 21 21 21h204q21 0 21 -21v-205q0 -20 -21 -20h-204q-21 0 -21 20z" />
    <glyph glyph-name="gcommaaccent.alt" horiz-adv-x="1241" 
d="M637 350q-71 0 -120.5 15.5t-104.5 52.5q-117 -48 -117 -117q0 -51 34 -76.5t89 -25.5q36 0 126 19.5t169 19.5q194 0 315 -86.5t121 -237.5q0 -167 -130 -253.5t-355 -86.5q-233 0 -362.5 82t-129.5 240q0 91 61 155q-139 93 -139 236q0 181 209 266q-33 79 -33 145
q0 108 52 189t134.5 121.5t180.5 40.5q109 0 186 -50l146 134q8 8 16 8q5 0 16 -11l101 -112q8 -8 8 -17q0 -8 -10 -18l-133 -119q37 -67 37 -166q0 -162 -106.5 -255t-260.5 -93zM373 -86q0 -75 80.5 -111t210.5 -36q284 0 284 147q0 131 -268 131q-64 0 -141 -14.5
t-101 -16.5q-65 -43 -65 -100zM471 698q0 -74 48 -114.5t118 -40.5q72 0 119 40t47 115t-47.5 116.5t-118.5 41.5q-70 0 -118 -41.5t-48 -116.5zM748 1477q-65 0 -89 -23t-24 -80v-24h96q21 0 21 -21v-188q0 -21 -21 -21h-201q-20 0 -20 21v248q0 87 45 138.5t137 51.5h56
q20 0 20 -20v-62q0 -20 -20 -20z" />
    <glyph glyph-name="left.arrow" horiz-adv-x="1331" 
d="M596 1190l100 -105q9 -9 9 -16t-11 -18l-237 -234h723q20 0 20 -20v-152q0 -20 -20 -20h-723l237 -234q11 -11 11 -18q0 -8 -9 -17l-100 -104q-10 -10 -23 -10q-10 0 -18 8l-426 428q-20 20 -20 43t20 43l426 428q8 8 18 8q13 0 23 -10z" />
    </font>
</defs>
</svg>
