<?xml version="1.0" standalone="no"?>
<!DOCTYPE svg PUBLIC "-//W3C//DTD SVG 1.1//EN" "http://www.w3.org/Graphics/SVG/1.1/DTD/svg11.dtd" >
<svg xmlns="http://www.w3.org/2000/svg" xmlns:xlink="http://www.w3.org/1999/xlink" version="1.1">
<metadata>
Created by FontForge 20170731 at Mon May  9 10:45:56 2022
 By Aleksey,,,
Copyright (c) 2011 by Colophon Foundry. All rights reserved. |DCNT
</metadata>
<defs>
<font id="Relative-Bold" horiz-adv-x="1269" >
  <font-face 
    font-family="Relative"
    font-weight="700"
    font-stretch="normal"
    units-per-em="2048"
    panose-1="2 0 5 6 4 0 0 2 0 4"
    ascent="1638"
    descent="-410"
    x-height="1028"
    cap-height="1434"
    bbox="-176 -582 2529 2060"
    underline-thickness="102"
    underline-position="-307"
    unicode-range="U+000D-FB02"
  />
<missing-glyph horiz-adv-x="1292" 
d="M1149 1413v-1393q0 -20 -21 -20h-964q-21 0 -21 20v1393q0 21 21 21h964q21 0 21 -21zM891 1192h-490v-950h490v950z" />
    <glyph glyph-name=".notdef" horiz-adv-x="1292" 
d="M1149 1413v-1393q0 -20 -21 -20h-964q-21 0 -21 20v1393q0 21 21 21h964q21 0 21 -21zM891 1192h-490v-950h490v950z" />
    <glyph glyph-name=".null" horiz-adv-x="0" 
 />
    <glyph glyph-name=".null" horiz-adv-x="0" 
 />
    <glyph glyph-name="nonmarkingreturn" horiz-adv-x="682" 
 />
    <glyph glyph-name="CR" unicode="&#xd;" horiz-adv-x="0" 
 />
    <glyph glyph-name="space" unicode=" " horiz-adv-x="522" 
 />
    <glyph glyph-name="exclam" unicode="!" horiz-adv-x="618" 
d="M203 1434h213q20 0 20 -21v-997q0 -21 -20 -21h-213q-21 0 -21 21v997q0 21 21 21zM190 279h238q21 0 21 -21v-238q0 -20 -21 -20h-238q-20 0 -20 20v238q0 21 20 21z" />
    <glyph glyph-name="quotedbl" unicode="&#x22;" horiz-adv-x="851" 
d="M111 954v459q0 21 20 21h201q20 0 20 -21v-459q0 -20 -20 -20h-201q-20 0 -20 20zM500 954v459q0 21 20 21h201q20 0 20 -21v-459q0 -20 -20 -20h-201q-20 0 -20 20z" />
    <glyph glyph-name="numbersign" unicode="#" horiz-adv-x="1591" 
d="M801 20l65 386h-252l-65 -386q-3 -20 -23 -20h-200q-19 0 -19 20l66 386h-230q-20 0 -20 20v197q0 20 20 20h271l26 148h-215q-20 0 -20 20v197q0 20 20 20h256l66 385q3 21 22 21h201q18 0 18 -21l-65 -385h252l65 385q3 21 23 21h201q18 0 18 -21l-65 -385h229
q20 0 20 -20v-197q0 -20 -20 -20h-270l-27 -148h215q20 0 20 -20v-197q0 -20 -20 -20h-256l-66 -386q-3 -20 -22 -20h-201q-18 0 -18 20zM682 791l-27 -148h252l27 148h-252z" />
    <glyph glyph-name="dollar" unicode="$" horiz-adv-x="1208" 
d="M82 1047q0 163 113 268t286 131v172q0 20 21 20h196q21 0 21 -20v-178q175 -36 281.5 -153t111.5 -261q0 -20 -20 -20h-218q-17 0 -20 20q-21 121 -135 170v-377q74 -21 134 -45t118 -58t97 -73.5t63 -93t24 -115.5q0 -189 -116 -305t-320 -141v-172q0 -21 -21 -21h-196
q-21 0 -21 21v176q-191 32 -312.5 164.5t-121.5 306.5q0 20 21 20h215q17 0 20 -20q14 -175 178 -227v413q-199 60 -299 153t-100 245zM897 408q0 106 -178 174v-357q85 18 131.5 67t46.5 116zM340 1059q0 -53 35.5 -91t105.5 -69v309q-141 -39 -141 -149z" />
    <glyph glyph-name="percent" unicode="%" horiz-adv-x="1814" 
d="M838 1067q0 -110 -52.5 -195.5t-135.5 -128.5t-179 -43q-151 0 -259 100.5t-108 266.5t108 266.5t259 100.5q96 0 179 -43t135.5 -128.5t52.5 -195.5zM643 1067q0 91 -51.5 137.5t-120.5 46.5t-120.5 -46.5t-51.5 -137.5t51.5 -137.5t120.5 -46.5t120.5 46.5t51.5 137.5z
M1710 367q0 -110 -52.5 -195.5t-135.5 -128.5t-179 -43q-151 0 -258.5 100.5t-107.5 266.5t107.5 266t258.5 100q96 0 179 -43t135.5 -128t52.5 -195zM1516 367q0 91 -52 137.5t-121 46.5t-120.5 -46.5t-51.5 -137.5t51.5 -138t120.5 -47t121 47t52 138zM274 117l1145 1310
q13 16 29 0l90 -81q13 -13 4 -29l-1145 -1311q-12 -16 -28 0l-90 82q-14 14 -5 29z" />
    <glyph glyph-name="ampersand" unicode="&#x26;" horiz-adv-x="1388" 
d="M1290 526h-168q-13 -132 -65 -241l178 -252q6 -18 6 -19q0 -14 -16 -14h-236q-14 0 -26 18l-54 74q-141 -112 -362 -112q-203 0 -328 114.5t-125 302.5q0 151 79.5 262.5t199.5 180.5q-97 150 -97 278q0 145 99.5 240.5t261.5 95.5q163 0 261.5 -89t98.5 -214
q0 -119 -50 -197.5t-146 -130.5l-101 -57l195 -268q25 103 25 231q0 19 20 19h350q21 0 21 -21v-180q0 -21 -21 -21zM559 201q127 0 217 78l-272 376q-164 -102 -164 -252q0 -89 58.5 -145.5t160.5 -56.5zM506 1110q0 -72 63 -160l6 -8l78 37q59 29 85 62.5t26 78.5
q0 50 -35 81.5t-92 31.5q-54 0 -92.5 -33t-38.5 -90z" />
    <glyph glyph-name="quotesingle" unicode="'" horiz-adv-x="462" 
d="M111 954v459q0 21 20 21h201q20 0 20 -21v-459q0 -20 -20 -20h-201q-20 0 -20 20z" />
    <glyph glyph-name="parenleft" unicode="(" horiz-adv-x="731" 
d="M412 594v-158q0 -106 3 -173t15 -130t27.5 -102t50.5 -86.5t73 -84.5t105 -96q8 -8 8 -14q0 -8 -6 -14l-129 -148q-8 -8 -14 -8t-15 6q-151 120 -228 218t-112.5 227.5t-35.5 330.5v306q0 201 35.5 330.5t112.5 227.5t228 218q9 6 15 6t14 -8l129 -148q6 -6 6 -14
q0 -6 -8 -14q-67 -59 -105 -96t-73 -84.5t-50.5 -86.5t-27.5 -102t-15 -130t-3 -173z" />
    <glyph glyph-name="parenright" unicode=")" horiz-adv-x="741" 
d="M330 436v158q0 106 -3 173t-15 130t-28 102t-51 86.5t-73 84.5t-105 96q-8 8 -8 14q0 8 6 14l129 148q8 8 15 8q5 0 14 -6q114 -90 181.5 -162t114 -162.5t64 -195.5t17.5 -256v-306q0 -151 -17.5 -256t-64 -195.5t-114 -162.5t-181.5 -162q-9 -6 -14 -6q-7 0 -15 8
l-129 148q-6 6 -6 14q0 6 8 14q67 59 105 96t73 84.5t51 86.5t28 102t15 130t3 173z" />
    <glyph glyph-name="asterisk" unicode="*" horiz-adv-x="964" 
d="M104 1100l52 160q6 18 26 12l195 -64v205q0 21 20 21h168q21 0 21 -21v-205l194 64q21 6 27 -12l51 -160q6 -21 -12 -27l-195 -63l119 -164q15 -18 -4 -31l-135 -96q-20 -13 -29 2l-121 164l-121 -164q-9 -15 -28 -2l-135 96q-19 13 -4 31l118 164l-194 63q-19 6 -13 27z
" />
    <glyph glyph-name="plus" unicode="+" horiz-adv-x="1171" 
d="M700 1161v-346h347q20 0 20 -20v-189q0 -20 -20 -20h-347v-346q0 -21 -20 -21h-188q-21 0 -21 21v346h-346q-21 0 -21 20v189q0 20 21 20h346v346q0 21 21 21h188q20 0 20 -21z" />
    <glyph glyph-name="comma" unicode="," horiz-adv-x="593" 
d="M193 -111q53 0 73.5 20t20.5 66v25h-103q-20 0 -20 20v222q0 20 20 20h222q20 0 20 -20v-281q0 -94 -43.5 -146.5t-134.5 -52.5h-55q-21 0 -21 21v86q0 20 21 20z" />
    <glyph glyph-name="hyphen" unicode="-" horiz-adv-x="1052" 
d="M125 815h803q20 0 20 -20v-189q0 -20 -20 -20h-803q-21 0 -21 20v189q0 20 21 20z" />
    <glyph glyph-name="period" unicode="." horiz-adv-x="593" 
d="M184 262h222q20 0 20 -20v-222q0 -20 -20 -20h-222q-20 0 -20 20v222q0 20 20 20z" />
    <glyph glyph-name="slash" unicode="/" horiz-adv-x="987" 
d="M20 20l711 1393q9 21 29 21h223q21 0 12 -21l-710 -1393q-9 -20 -27 -20h-225q-22 0 -13 20z" />
    <glyph glyph-name="zero" unicode="0" horiz-adv-x="1273" 
d="M72 717q0 175 44 316.5t121 232.5t179.5 139.5t220.5 48.5t220.5 -48.5t179.5 -139.5t121 -232.5t44 -316.5t-44 -316.5t-121 -232.5t-179.5 -139.5t-220.5 -48.5t-220.5 48.5t-179.5 139.5t-121 232.5t-44 316.5zM326 717q0 -133 24 -231t67.5 -154.5t98 -83.5
t121.5 -27t121.5 27t98 83.5t67.5 154.5t24 231t-24 231t-67.5 154.5t-98 83t-121.5 26.5t-121.5 -26.5t-98 -83t-67.5 -154.5t-24 -231z" />
    <glyph glyph-name="one" unicode="1" horiz-adv-x="806" 
d="M389 20v1094l-242 -135q-12 -6 -20 -6q-16 0 -16 18v219q0 18 22 31l338 182q18 11 33 11h114q21 0 21 -21v-1393q0 -20 -21 -20h-208q-21 0 -21 20z" />
    <glyph glyph-name="two" unicode="2" horiz-adv-x="1243" 
d="M119 20v162q0 28 22 47l537 502q141 132 141 268q0 98 -59.5 155.5t-159.5 57.5q-99 0 -161 -57t-72 -162q-1 -18 -7 -24t-20 -6h-195q-24 0 -24 30q5 192 137.5 326.5t341.5 134.5q215 0 342 -121t127 -319q0 -135 -51.5 -230.5t-173.5 -212.5l-350 -329h598
q20 0 20 -21v-201q0 -20 -20 -20h-953q-20 0 -20 20z" />
    <glyph glyph-name="three" unicode="3" horiz-adv-x="1232" 
d="M453 666v196q0 23 22 23h113q117 0 170 46t53 122q0 75 -51.5 117t-145.5 42q-84 0 -145.5 -46t-79.5 -134q-4 -16 -9 -20t-18 -4h-194q-27 0 -27 34q12 178 146 295t319 117q198 0 326.5 -105t128.5 -276q0 -183 -158 -297q39 -18 74 -45.5t69.5 -70t55 -105.5
t20.5 -137q0 -204 -142 -321t-374 -117q-215 0 -358.5 125t-155.5 341q3 35 27 35h192q27 0 29 -26q6 -62 31 -108.5t64 -73.5t84.5 -39.5t98.5 -12.5q113 0 181.5 57t68.5 164q0 94 -71 147.5t-209 53.5h-113q-22 0 -22 23z" />
    <glyph glyph-name="four" unicode="4" horiz-adv-x="1224" 
d="M678 20v218h-596q-21 0 -21 20v158q0 23 17 47l647 954q10 17 27 17h155q21 0 21 -21v-934h202q21 0 21 -20v-201q0 -20 -21 -20h-202v-218q0 -20 -23 -20h-207q-20 0 -20 20zM678 963l-324 -484h324v484z" />
    <glyph glyph-name="five" unicode="5" horiz-adv-x="1245" 
d="M129 616l88 797q3 21 21 21h802q21 0 21 -21v-201q0 -20 -21 -20h-591l-50 -307q127 65 279 65q213 0 336 -125.5t123 -355.5q0 -121 -39 -215.5t-109 -153.5t-162 -89.5t-202 -30.5q-220 0 -357 120.5t-149 323.5q0 31 24 31h199q12 0 17 -6t10 -25q22 -104 93 -153.5
t175 -49.5q112 0 181 64t69 180q0 113 -69.5 178.5t-190.5 65.5q-152 0 -269 -95q-4 -3 -9 -7l-7.5 -6t-7 -3.5t-10.5 -1.5h-174q-21 0 -21 20z" />
    <glyph glyph-name="six" unicode="6" horiz-adv-x="1280" 
d="M133 653q0 204 39.5 359t112 250.5t169.5 143.5t216 48q193 0 320 -106t147 -279q0 -12 -5.5 -16t-17.5 -4h-205q-16 0 -22 20q-19 54 -52.5 87t-72.5 44.5t-92 11.5q-49 0 -91.5 -18.5t-81.5 -60t-66.5 -119.5t-39.5 -187q141 99 314 99q204 0 336.5 -129t132.5 -344
q0 -108 -42 -198.5t-112.5 -150t-162 -92t-191.5 -32.5q-114 0 -208.5 39t-168 118.5t-115 211t-41.5 304.5zM432 453q0 -104 68 -168t178 -64t178 64t68 168t-68 167.5t-178 63.5t-178 -63.5t-68 -167.5z" />
    <glyph glyph-name="seven" unicode="7" horiz-adv-x="1044" 
d="M59 1212v201q0 21 21 21h926q20 0 20 -21v-160q0 -21 -10 -51l-479 -1188q-6 -14 -23 -14h-209q-20 0 -20 16q0 3 4 15l469 1161h-678q-21 0 -21 20z" />
    <glyph glyph-name="eight" unicode="8" horiz-adv-x="1232" 
d="M164 1055q0 124 63.5 216t165 137.5t223.5 45.5t223.5 -45.5t165.5 -137.5t64 -216q0 -176 -156 -293q45 -29 77 -57t62.5 -68t46 -93t15.5 -118q0 -194 -137.5 -320t-360.5 -126t-360 125.5t-137 320.5q0 65 15.5 118t45.5 93t62 68t77 57q-155 116 -155 293zM373 428
q0 -96 68 -151.5t175 -55.5t175.5 55.5t68.5 151.5t-68.5 151.5t-175.5 55.5t-175 -55.5t-68 -151.5zM410 1047q0 -81 56 -128t150 -47t150.5 47t56.5 128q0 84 -56 127t-151 43t-150.5 -43t-55.5 -127z" />
    <glyph glyph-name="nine" unicode="9" horiz-adv-x="1280" 
d="M1147 780q0 -204 -39.5 -358.5t-112 -250.5t-169.5 -143.5t-216 -47.5q-193 0 -320 106t-147 279q0 12 5.5 16t17.5 4h205q16 0 22 -20q28 -80 82.5 -112t134.5 -32q49 0 91.5 18.5t81.5 60t66.5 119.5t39.5 187q-140 -98 -314 -98q-205 0 -337 128.5t-132 344.5
q0 108 42 198.5t112.5 150t162 92t191.5 32.5q114 0 208.5 -39.5t168 -118.5t115 -211t41.5 -305zM848 981q0 104 -68 167.5t-178 63.5t-178 -63.5t-68 -167.5t68 -167.5t178 -63.5t178 63.5t68 167.5z" />
    <glyph glyph-name="colon" unicode=":" horiz-adv-x="593" 
d="M184 262h222q20 0 20 -20v-222q0 -20 -20 -20h-222q-20 0 -20 20v222q0 20 20 20zM184 1028h222q20 0 20 -20v-222q0 -20 -20 -20h-222q-20 0 -20 20v222q0 20 20 20z" />
    <glyph glyph-name="semicolon" unicode=";" horiz-adv-x="593" 
d="M193 -111q53 0 73.5 20t20.5 66v25h-103q-20 0 -20 20v222q0 20 20 20h222q20 0 20 -20v-281q0 -94 -43.5 -146.5t-134.5 -52.5h-55q-21 0 -21 21v86q0 20 21 20zM184 1028h222q20 0 20 -20v-222q0 -20 -20 -20h-222q-20 0 -20 20v222q0 20 20 20z" />
    <glyph glyph-name="less" unicode="&#x3c;" horiz-adv-x="1058" 
d="M936 311v-225q0 -21 -21 -12l-788 401q-21 12 -21 27v196q0 15 21 27l788 401q21 9 21 -12v-225q0 -20 -21 -29l-518 -260l518 -260q21 -9 21 -29z" />
    <glyph glyph-name="equal" unicode="=" horiz-adv-x="1163" 
d="M152 938h913q20 0 20 -20v-189q0 -20 -20 -20h-913q-21 0 -21 20v189q0 20 21 20zM152 522h913q20 0 20 -20v-189q0 -20 -20 -20h-913q-21 0 -21 20v189q0 20 21 20z" />
    <glyph glyph-name="greater" unicode="&#x3e;" horiz-adv-x="1058" 
d="M123 86v225q0 20 20 29l519 260l-519 260q-20 9 -20 29v225q0 21 20 12l789 -401q20 -11 20 -27v-196q0 -16 -20 -27l-789 -401q-20 -9 -20 12z" />
    <glyph glyph-name="question" unicode="?" horiz-adv-x="1167" 
d="M131 1020q2 83 36 160.5t94 138.5t152 98t201 37q199 0 321 -103.5t122 -258.5q0 -73 -18.5 -132.5t-47.5 -99t-64.5 -74t-71 -66t-64.5 -65.5t-47.5 -82t-18.5 -106v-51q0 -21 -20 -21h-213q-21 0 -21 21v51q0 75 18.5 137t47.5 104.5t64.5 79t71 66t64.5 58.5
t47.5 65.5t18.5 77.5q0 66 -49 111.5t-133 45.5q-91 0 -154 -48.5t-86 -143.5q-3 -7 -5 -11.5t-5.5 -7t-10.5 -2.5h-208q-21 0 -21 21zM479 279h238q20 0 20 -21v-238q0 -20 -20 -20h-238q-20 0 -20 20v238q0 21 20 21z" />
    <glyph glyph-name="at" unicode="@" horiz-adv-x="1650" 
d="M1382 631q0 108 -32.5 201.5t-95.5 166.5t-165.5 115.5t-234.5 42.5q-90 0 -175.5 -25t-158.5 -75t-128 -118t-86.5 -159.5t-31.5 -195.5q0 -263 163.5 -428.5t416.5 -165.5q34 0 63.5 1.5t57.5 6t46.5 7t45 11.5t37 12t37.5 16.5t32.5 16t36.5 19t35 18.5q15 9 25 -8
l71 -139q7 -16 -8 -25q-111 -61 -222 -88.5t-257 -27.5q-165 0 -307.5 52t-248.5 149t-166 244.5t-60 328.5q0 176 64.5 321t173 238t249 143.5t295.5 50.5q134 0 250.5 -35.5t202.5 -99t148 -149.5t93 -189.5t31 -216.5q0 -225 -87 -347t-251 -122q-71 0 -125 27.5
t-84 75.5q-59 -52 -119 -77.5t-143 -25.5q-154 0 -253 96.5t-99 270.5q0 198 115.5 321t283.5 123q67 0 113.5 -17t93.5 -50l6 36q3 17 17 17h133q16 0 16 -17l-45 -411q-4 -50 -4 -72q0 -123 106 -123q61 0 95 72.5t34 206.5zM989 610q0 99 -41 152t-119 53q-70 0 -121 -40
t-74.5 -98.5t-23.5 -125.5q0 -96 45 -147.5t125 -51.5q93 0 151 74.5t58 183.5z" />
    <glyph glyph-name="A" unicode="A" horiz-adv-x="1282" 
d="M1018 20l-123 359h-508l-123 -359q-4 -9 -5.5 -12t-6 -5.5t-12.5 -2.5h-224q-22 0 -22 20q0 9 2 13l504 1380q1 2 2.5 6t2 5.5t2 4t3.5 3.5t4.5 1.5t5.5 0.5h242q3 0 5.5 -0.5t4.5 -1.5t3.5 -3.5t2 -4t2 -5.5t2.5 -6l504 -1380q2 -4 2 -13q0 -20 -22 -20h-224
q-11 0 -15 4t-9 16zM641 1116l-172 -500h344z" />
    <glyph glyph-name="B" unicode="B" horiz-adv-x="1288" 
d="M762 0h-598q-21 0 -21 20v1393q0 21 21 21h549q184 0 305 -102.5t121 -276.5q0 -97 -37 -162t-109 -121q207 -93 207 -346q0 -184 -120 -305t-318 -121zM401 635v-397h336q90 0 145.5 52t55.5 146q0 91 -56 145t-145 54h-336zM401 1196v-324h314q76 0 121 41t45 123
q0 81 -45 120.5t-121 39.5h-314z" />
    <glyph glyph-name="C" unicode="C" horiz-adv-x="1447" 
d="M1157 514h207q22 0 22 -20q-29 -234 -207.5 -374t-433.5 -140q-100 0 -194 26.5t-180.5 85t-151 142.5t-103 208.5t-38.5 274.5t38.5 274.5t103 208.5t151 142.5t180.5 85t194 26.5q255 0 433.5 -140t207.5 -374q0 -20 -22 -20h-207q-18 0 -24 20q-81 277 -388 277
q-76 0 -146 -31.5t-128 -91t-92.5 -157.5t-34.5 -220t34.5 -220t92.5 -157.5t128 -91t146 -31.5q310 0 388 277q6 20 24 20z" />
    <glyph glyph-name="D" unicode="D" horiz-adv-x="1349" 
d="M143 20v1393q0 21 21 21h434q139 0 259.5 -45t214 -131.5t147 -225.5t53.5 -315t-53.5 -315t-147 -225.5t-214 -131.5t-259.5 -45h-434q-21 0 -21 20zM586 1196h-185v-958h185q191 0 305.5 121t114.5 358t-114.5 358t-305.5 121z" />
    <glyph glyph-name="E" unicode="E" horiz-adv-x="1196" 
d="M401 635v-397h676q21 0 21 -21v-197q0 -20 -21 -20h-913q-21 0 -21 20v1393q0 21 21 21h883q20 0 20 -21v-196q0 -21 -20 -21h-646v-324h584q21 0 21 -20v-197q0 -20 -21 -20h-584z" />
    <glyph glyph-name="F" unicode="F" horiz-adv-x="1206" 
d="M401 604v-584q0 -20 -20 -20h-217q-21 0 -21 20v1393q0 21 21 21h909q21 0 21 -21v-196q0 -21 -21 -21h-672v-354h607q20 0 20 -21v-196q0 -21 -20 -21h-607z" />
    <glyph glyph-name="G" unicode="G" horiz-adv-x="1460" 
d="M758 752h616q21 0 21 -21v-354q0 -48 -21 -78q-92 -146 -249 -232.5t-337 -86.5q-146 0 -273 47t-225.5 136.5t-155 232t-56.5 321.5q0 141 38 261.5t103 207t152 148t186 91t203 29.5q239 0 410.5 -124.5t203.5 -334.5q0 -20 -22 -20h-215q-19 0 -25 20
q-75 222 -352 222q-79 0 -152.5 -32t-133 -92.5t-95 -158t-35.5 -217.5q0 -232 119 -366t305 -134q255 0 369 176v121h-379q-21 0 -21 21v196q0 21 21 21z" />
    <glyph glyph-name="H" unicode="H" horiz-adv-x="1388" 
d="M397 629v-609q0 -20 -20 -20h-217q-21 0 -21 20v1393q0 21 21 21h217q20 0 20 -21v-547h594v547q0 21 21 21h217q20 0 20 -21v-1393q0 -20 -20 -20h-217q-21 0 -21 20v609h-594z" />
    <glyph glyph-name="I" unicode="I" horiz-adv-x="516" 
d="M129 20v1393q0 21 21 21h217q20 0 20 -21v-1393q0 -20 -20 -20h-217q-21 0 -21 20z" />
    <glyph glyph-name="J" unicode="J" horiz-adv-x="1107" 
d="M1014 1413v-854q0 -287 -130 -433t-362 -146q-147 0 -258.5 65.5t-168 175t-56.5 244.5q0 20 20 20h217q21 0 21 -20q0 -122 63.5 -185t161.5 -63q123 0 178.5 80t55.5 260v856q0 21 20 21h217q21 0 21 -21z" />
    <glyph glyph-name="K" unicode="K" horiz-adv-x="1257" 
d="M401 1413v-508l469 508q21 21 37 21h250q17 0 20 -9t-8 -20l-467 -500l551 -876q7 -12 2 -20.5t-16 -8.5h-246q-20 0 -39 31l-430 684l-123 -131v-564q0 -20 -20 -20h-217q-21 0 -21 20v1393q0 21 21 21h217q20 0 20 -21z" />
    <glyph glyph-name="L" unicode="L" horiz-adv-x="1183" 
d="M143 20v1393q0 21 21 21h217q20 0 20 -21v-1175h699q20 0 20 -21v-197q0 -20 -20 -20h-936q-21 0 -21 20z" />
    <glyph glyph-name="M" unicode="M" horiz-adv-x="1634" 
d="M1491 1413v-1393q0 -20 -21 -20h-217q-20 0 -20 20v945l-303 -703q-9 -22 -29 -22h-168q-19 0 -28 22l-304 703v-945q0 -20 -20 -20h-217q-21 0 -21 20v1393q0 21 21 21h256q24 0 33 -21l364 -842l365 842q9 21 32 21h256q21 0 21 -21z" />
    <glyph glyph-name="N" unicode="N" horiz-adv-x="1425" 
d="M1262 0h-220q-22 0 -32 16l-604 971v-967q0 -20 -21 -20h-221q-21 0 -21 20v1393q0 21 21 21h219q23 0 33 -17l604 -971v967q0 21 20 21h222q20 0 20 -21v-1393q0 -20 -20 -20z" />
    <glyph glyph-name="O" unicode="O" horiz-adv-x="1572" 
d="M786 -20q-107 0 -208.5 28.5t-192.5 88.5t-159 145t-108 207.5t-40 267.5t40 267.5t108 207.5t159 145t192.5 88.5t208.5 28.5t209 -28.5t193 -88.5t159 -145t108 -207.5t40 -267.5t-40 -267.5t-108 -207.5t-159 -145t-193 -88.5t-209 -28.5zM786 217q70 0 134 19.5
t120.5 60t98.5 99t66 141t24 180.5t-24 180.5t-66 141t-98.5 99t-120.5 60t-134 19.5q-88 0 -166 -31.5t-140.5 -91.5t-99 -157.5t-36.5 -219.5t36.5 -219.5t99 -157.5t140.5 -91.5t166 -31.5z" />
    <glyph glyph-name="P" unicode="P" horiz-adv-x="1241" 
d="M143 20v1393q0 21 21 21h526q232 0 359 -110.5t127 -301.5t-127 -301.5t-359 -110.5h-289v-590q0 -20 -20 -20h-217q-21 0 -21 20zM401 1196v-348h299q97 0 155 45t58 129t-58 129t-155 45h-299z" />
    <glyph glyph-name="Q" unicode="Q" horiz-adv-x="1572" 
d="M786 -20q-107 0 -208.5 28.5t-192.5 88.5t-159 145t-108 207.5t-40 267.5t40 267.5t108 207.5t159 145t192.5 88.5t208.5 28.5t209 -28.5t193 -88.5t159 -145t108 -207.5t40 -267.5q0 -277 -143 -467l114 -111q9 -9 9 -14t-9 -14l-147 -150q-8 -8 -14 -8q-7 0 -15 8
l-125 121q-163 -102 -379 -102zM786 217q105 0 195 43l-115 111q-8 8 -8 14t8 14l148 150q8 8 14 8t14 -8l119 -117q68 120 68 285q0 98 -24 180.5t-66 141t-98.5 99t-120.5 60t-134 19.5q-88 0 -166 -31.5t-140.5 -91.5t-99 -157.5t-36.5 -219.5t36.5 -219.5t99 -157.5
t140.5 -91.5t166 -31.5z" />
    <glyph glyph-name="R" unicode="R" horiz-adv-x="1259" 
d="M143 20v1393q0 21 21 21h559q199 0 318.5 -103t119.5 -289q0 -129 -76.5 -229.5t-187.5 -144.5l305 -648q2 -2 2 -8q0 -12 -18 -12h-236q-17 0 -28 20l-308 631h-213v-631q0 -20 -20 -20h-217q-21 0 -21 20zM401 1196v-307h332q78 0 124 40.5t46 112.5t-46 113t-124 41
h-332z" />
    <glyph glyph-name="S" unicode="S" horiz-adv-x="1208" 
d="M82 1047q0 126 72 220.5t184.5 140.5t245.5 46q115 0 214 -36t166.5 -95.5t106.5 -136.5t41 -160q0 -20 -20 -20h-218q-17 0 -20 20q-17 94 -89.5 142.5t-184.5 48.5q-105 0 -172.5 -41t-67.5 -117q0 -35 18.5 -65t48 -52.5t76 -43.5t91.5 -36t106 -31q101 -27 178.5 -59
t148.5 -79t109.5 -112.5t38.5 -146.5q0 -215 -149.5 -334.5t-403.5 -119.5q-156 0 -284 64.5t-199.5 175t-71.5 243.5q0 20 21 20h215q17 0 20 -20q10 -122 92 -184t219 -62q130 0 206.5 52t76.5 139q0 74 -84 126t-242 91q-121 31 -207 66.5t-152 85t-98 116.5t-32 154z
" />
    <glyph glyph-name="T" unicode="T" horiz-adv-x="1155" 
d="M27 1217v196q0 21 20 21h1061q20 0 20 -21v-196q0 -21 -20 -21h-401v-1176q0 -20 -21 -20h-217q-20 0 -20 20v1176h-402q-20 0 -20 21z" />
    <glyph glyph-name="U" unicode="U" horiz-adv-x="1310" 
d="M111 553v860q0 21 20 21h217q21 0 21 -21v-858q0 -172 75.5 -255t210.5 -83t211 83t76 255v858q0 21 21 21h217q20 0 20 -21v-860q0 -267 -148 -420t-397 -153t-396.5 153t-147.5 420z" />
    <glyph glyph-name="V" unicode="V" horiz-adv-x="1277" 
d="M1280 1411l-492 -1391q-6 -20 -22 -20h-254q-17 0 -23 20l-491 1391q-2 4 -2 10q0 13 18 13h242q19 0 25 -21l358 -1106l358 1106q6 21 25 21h242q18 0 18 -13q0 -6 -2 -10z" />
    <glyph glyph-name="W" unicode="W" horiz-adv-x="1712" 
d="M1706 1409l-322 -1389q-6 -20 -22 -20h-250q-16 0 -22 20l-234 920l-233 -920q-6 -20 -23 -20h-250q-16 0 -22 20l-322 1389q-2 6 -2 12q0 13 19 13h223q21 0 24 -21l207 -1046l250 948q6 20 25 20h209q18 0 24 -20l250 -948l207 1046q3 21 24 21h224q18 0 18 -13
q0 -6 -2 -12z" />
    <glyph glyph-name="X" unicode="X" horiz-adv-x="1220" 
d="M340 1413l270 -432l271 432q7 14 12 17.5t16 3.5h252q17 0 17 -13q0 -6 -2 -8l-420 -659l473 -734q2 -2 2 -8q0 -12 -17 -12h-258q-10 0 -14.5 3t-15.5 17l-316 506l-315 -506q-11 -14 -16 -17t-15 -3h-258q-16 0 -16 12q0 6 2 8l473 734l-420 659q-2 2 -2 8q0 13 16 13
h252q11 0 16.5 -4t12.5 -17z" />
    <glyph glyph-name="Y" unicode="Y" horiz-adv-x="1118" 
d="M1128 1413l-440 -909v-484q0 -20 -20 -20h-217q-21 0 -21 20v484l-440 909q-2 2 -2 8q0 13 14 13h240q19 0 26 -17l291 -645l291 645q7 17 27 17h239q14 0 14 -13q0 -6 -2 -8z" />
    <glyph glyph-name="Z" unicode="Z" horiz-adv-x="1241" 
d="M90 1217v196q0 21 21 21h1005q21 0 21 -21v-188q0 -15 -13 -35l-762 -952h797q21 0 21 -21v-197q0 -20 -21 -20h-1083q-21 0 -21 20v189q0 15 13 35l763 952h-720q-21 0 -21 21z" />
    <glyph glyph-name="bracketleft" unicode="[" horiz-adv-x="837" 
d="M143 -385v1798q0 21 21 21h571q21 0 21 -21v-196q0 -21 -21 -21h-334v-1364h334q21 0 21 -20v-197q0 -21 -21 -21h-571q-21 0 -21 21z" />
    <glyph glyph-name="backslash" unicode="\" horiz-adv-x="987" 
d="M256 1413l711 -1393q9 -20 -15 -20h-223q-18 0 -27 20l-710 1393q-9 21 12 21h223q20 0 29 -21z" />
    <glyph glyph-name="bracketright" unicode="]" horiz-adv-x="837" 
d="M694 1413v-1798q0 -21 -20 -21h-572q-20 0 -20 21v197q0 20 20 20h334v1364h-334q-20 0 -20 21v196q0 21 20 21h572q20 0 20 -21z" />
    <glyph glyph-name="asciicircum" unicode="^" horiz-adv-x="1138" 
d="M279 735h-228q-10 0 -13.5 6.5t1.5 14.5l397 657q9 21 27 21h213q17 0 26 -21l398 -657q5 -8 1 -14.5t-14 -6.5h-227q-20 0 -29 21l-262 436l-262 -436q-9 -21 -28 -21z" />
    <glyph glyph-name="underscore" unicode="_" horiz-adv-x="1148" 
d="M129 0h891q20 0 20 -20v-189q0 -20 -20 -20h-891q-20 0 -20 20v189q0 20 20 20z" />
    <glyph glyph-name="grave" unicode="`" horiz-adv-x="776" 
d="M469 1413l141 -258q5 -7 2.5 -13.5t-12.5 -6.5h-184q-22 0 -37 18l-211 260q-6 7 -3 14t13 7h260q19 0 31 -21z" />
    <glyph glyph-name="a" unicode="a" horiz-adv-x="1103" 
d="M338 713h-207q-14 0 -14 12t2 20q31 134 145.5 219t290.5 85q198 0 317 -107t119 -289v-444q0 -68 8 -110t31 -79q11 -20 -14 -20h-250q-21 0 -21 20v60q-55 -46 -121.5 -73t-170.5 -27q-161 0 -267 93.5t-106 248.5q0 108 57 187.5t149.5 118t207.5 38.5q119 0 251 -41
v28q0 80 -49 127t-141 47q-135 0 -188 -96q-11 -18 -29 -18zM745 416q-144 41 -241 41q-81 0 -134 -34t-53 -95q0 -60 47.5 -93.5t133.5 -33.5q97 0 172 60.5t75 154.5z" />
    <glyph glyph-name="b" unicode="b" horiz-adv-x="1220" 
d="M135 20v1393q0 21 21 21h204q21 0 21 -21v-467q130 103 295 103q211 0 339 -144.5t128 -390.5t-128 -390t-339 -144q-163 0 -295 104v-64q0 -20 -21 -20h-204q-21 0 -21 20zM369 514q0 -135 70 -224t188 -89t188 89t70 224t-70 224t-188 89t-188 -89t-70 -224z" />
    <glyph glyph-name="c" unicode="c" horiz-adv-x="1161" 
d="M606 827q-126 0 -200 -82t-74 -231t74 -231t200 -82q88 0 151.5 41t92.5 118q7 19 29 19h200q15 0 15 -12q0 -13 -2 -21q-26 -155 -156 -260.5t-326 -105.5q-232 0 -384 148t-152 386t152 386.5t384 148.5q196 0 326 -106t156 -261q2 -8 2 -20q0 -13 -15 -13h-200
q-22 0 -29 19q-29 77 -92.5 118t-151.5 41z" />
    <glyph glyph-name="d" unicode="d" horiz-adv-x="1220" 
d="M1085 1413v-1393q0 -20 -20 -20h-205q-20 0 -20 20v64q-132 -104 -295 -104q-211 0 -339 144t-128 390t128 390.5t339 144.5q165 0 295 -103v467q0 21 20 21h205q20 0 20 -21zM852 514q0 135 -70 224t-188 89t-188 -89t-70 -224t70 -224t188 -89t188 89t70 224z" />
    <glyph glyph-name="e" unicode="e" horiz-adv-x="1214" 
d="M610 201q90 0 150.5 30.5t101.5 96.5q11 18 29 18h209q14 0 14 -14q0 -12 -4 -21q-128 -331 -502 -331q-147 0 -266.5 66.5t-189.5 189.5t-70 278t71.5 278t192 190t264.5 67q123 0 224.5 -45t167.5 -121.5t102.5 -177t36.5 -213.5v-35q0 -21 -21 -21h-780
q18 -108 88 -171.5t182 -63.5zM610 827q-89 0 -160.5 -49.5t-101.5 -136.5h531q-64 186 -269 186z" />
    <glyph glyph-name="f" unicode="f" horiz-adv-x="765" 
d="M737 807h-282v-787q0 -20 -21 -20h-205q-20 0 -20 20v787h-164q-20 0 -20 20v181q0 20 20 20h164v88q0 159 89 248.5t245 89.5q113 0 213 -43q8 -3 11.5 -8.5t4 -10.5t0.5 -16v-176q0 -16 -12 -16q-5 0 -17 4q-91 45 -165 45q-123 0 -123 -137v-68h282q21 0 21 -20v-181
q0 -20 -21 -20z" />
    <glyph glyph-name="g" unicode="g" horiz-adv-x="1191" 
d="M575 -426q-181 0 -305 94.5t-141 257.5q0 21 21 21h204q18 0 21 -21q31 -131 213 -131q123 0 183 71.5t60 199.5v36q-63 -54 -125 -76t-153 -22q-215 0 -347 145t-132 377t131 377.5t340 145.5q168 0 286 -103v62q0 20 21 20h205q20 0 20 -20v-906q0 -265 -128.5 -396.5
t-373.5 -131.5zM848 526q0 132 -69 216.5t-185 84.5q-118 0 -188 -84.5t-70 -216.5t70 -216.5t188 -84.5q116 0 185 84.5t69 216.5z" />
    <glyph glyph-name="h" unicode="h" horiz-adv-x="1183" 
d="M135 20v1393q0 21 21 21h204q21 0 21 -21v-483q129 119 319 119q174 0 271.5 -91.5t97.5 -283.5v-654q0 -20 -20 -20h-205q-21 0 -21 20v598q0 209 -182 209q-109 0 -184.5 -91t-75.5 -255v-461q0 -20 -21 -20h-204q-21 0 -21 20z" />
    <glyph glyph-name="i" unicode="i" horiz-adv-x="438" 
d="M96 20v988q0 20 21 20h205q20 0 20 -20v-988q0 -20 -20 -20h-205q-21 0 -21 20zM82 1180v233q0 21 20 21h234q20 0 20 -21v-233q0 -21 -20 -21h-234q-20 0 -20 21z" />
    <glyph glyph-name="j" unicode="j" horiz-adv-x="438" 
d="M96 -47v1055q0 20 21 20h205q20 0 20 -20v-1063q0 -80 -12.5 -150.5t-26.5 -109.5t-39 -95q-9 -20 -24 -14l-189 72q-20 6 -14 24q33 85 46 140t13 141zM82 1180v233q0 21 20 21h234q20 0 20 -21v-233q0 -21 -20 -21h-234q-20 0 -20 21z" />
    <glyph glyph-name="k" unicode="k" horiz-adv-x="1081" 
d="M1012 997l-357 -344l406 -622q4 -8 4 -15q0 -16 -18 -16h-230q-24 0 -33 18l-307 474l-96 -91v-381q0 -20 -21 -20h-204q-21 0 -21 20v1393q0 21 21 21h204q21 0 21 -21v-723l342 320q18 18 33 18h248q16 0 16 -14q0 -9 -8 -17z" />
    <glyph glyph-name="l" unicode="l" horiz-adv-x="487" 
d="M121 20v1393q0 21 20 21h205q21 0 21 -21v-1393q0 -20 -21 -20h-205q-20 0 -20 20z" />
    <glyph glyph-name="m" unicode="m" horiz-adv-x="1630" 
d="M135 20v988q0 20 21 20h204q21 0 21 -20v-76q111 117 252 117q91 0 151 -30t105 -97q72 66 146.5 96.5t166.5 30.5q156 0 235 -95t79 -266v-668q0 -20 -21 -20h-205q-20 0 -20 20v633q0 98 -31 136t-98 38q-94 0 -143.5 -89.5t-49.5 -260.5v-457q0 -20 -20 -20h-205
q-21 0 -21 20v623q0 103 -31.5 143.5t-101.5 40.5q-88 0 -138 -86t-50 -264v-457q0 -20 -21 -20h-204q-21 0 -21 20z" />
    <glyph glyph-name="n" unicode="n" horiz-adv-x="1167" 
d="M135 20v988q0 20 21 20h204q21 0 21 -20v-74q134 115 309 115q167 0 263 -93.5t96 -253.5v-682q0 -20 -21 -20h-205q-20 0 -20 20v594q0 114 -43.5 163.5t-132.5 49.5q-106 0 -176 -85t-70 -257v-465q0 -20 -21 -20h-204q-21 0 -21 20z" />
    <glyph glyph-name="o" unicode="o" horiz-adv-x="1249" 
d="M76 514q0 153 72 275.5t197.5 191t279.5 68.5t279.5 -68.5t197.5 -191t72 -275.5t-72 -275.5t-197.5 -190.5t-279.5 -68t-279.5 68t-197.5 190.5t-72 275.5zM338 514q0 -141 79 -227t208 -86t207.5 86t78.5 227t-78.5 227t-207.5 86t-208 -86t-79 -227z" />
    <glyph glyph-name="p" unicode="p" horiz-adv-x="1220" 
d="M135 -385v1393q0 20 21 20h204q21 0 21 -20v-64q133 105 295 105q211 0 339 -144.5t128 -390.5t-128 -390t-339 -144q-166 0 -295 102v-467q0 -21 -21 -21h-204q-21 0 -21 21zM369 514q0 -135 70 -224t188 -89t188 89t70 224t-70 224t-188 89t-188 -89t-70 -224z" />
    <glyph glyph-name="q" unicode="q" horiz-adv-x="1220" 
d="M1085 1008v-1393q0 -21 -20 -21h-205q-20 0 -20 21v467q-129 -102 -295 -102q-211 0 -339 144t-128 390t128 390.5t339 144.5q162 0 295 -105v64q0 20 20 20h205q20 0 20 -20zM852 514q0 135 -70 224t-188 89t-188 -89t-70 -224t70 -224t188 -89t188 89t70 224z" />
    <glyph glyph-name="r" unicode="r" horiz-adv-x="884" 
d="M846 979v-191q0 -22 -17 -22q-2 0 -14 4q-117 57 -211 57q-107 0 -165 -62.5t-58 -213.5v-531q0 -20 -21 -20h-204q-21 0 -21 20v988q0 20 21 20h204q21 0 21 -20v-56q107 97 252 97q103 0 188 -33q17 -6 21 -12.5t4 -24.5z" />
    <glyph glyph-name="s" unicode="s" horiz-adv-x="1024" 
d="M948 305q0 -145 -121 -235t-315 -90q-195 0 -317 98t-134 264q0 20 21 20h207q17 0 20 -20q13 -70 70 -105.5t141 -35.5q79 0 130.5 26t51.5 74q0 45 -58.5 76t-199.5 55q-184 32 -271 105.5t-87 191.5q0 67 23.5 121.5t63 91t93 61t110.5 35.5t118 11q185 0 301.5 -89
t128.5 -227q0 -20 -21 -20h-207q-19 0 -28 20q-51 103 -183 103q-67 0 -110 -25t-43 -76q0 -41 53.5 -72.5t196.5 -54.5q181 -32 273.5 -101t92.5 -202z" />
    <glyph glyph-name="t" unicode="t" horiz-adv-x="860" 
d="M471 1028h309q21 0 21 -20v-181q0 -20 -21 -20h-309v-438q0 -87 32.5 -127.5t108.5 -40.5q101 0 181 30q4 2 14 2q14 0 14 -18v-168q0 -11 -0.5 -16t-4 -10.5t-11.5 -8.5q-82 -32 -236 -32q-155 0 -249.5 89t-94.5 255v483h-176q-20 0 -20 20v181q0 20 20 20h176v295
q0 20 21 20h205q20 0 20 -20v-295z" />
    <glyph glyph-name="u" unicode="u" horiz-adv-x="1167" 
d="M1032 1008v-988q0 -20 -20 -20h-205q-21 0 -21 20v74q-133 -114 -309 -114q-167 0 -262.5 93t-95.5 253v682q0 20 20 20h205q21 0 21 -20v-594q0 -114 43.5 -163.5t132.5 -49.5q106 0 175.5 85t69.5 257v465q0 20 21 20h205q20 0 20 -20z" />
    <glyph glyph-name="v" unicode="v" horiz-adv-x="995" 
d="M1001 995l-368 -975q-9 -20 -25 -20h-221q-16 0 -25 20l-368 975q-2 6 -2 15q0 18 18 18h217q23 0 29 -20l242 -693l241 693q6 20 29 20h217q19 0 19 -18q0 -9 -3 -15z" />
    <glyph glyph-name="w" unicode="w" horiz-adv-x="1527" 
d="M1530 997l-303 -977q-6 -20 -27 -20h-223q-21 0 -27 20l-186 629l-186 -629q-6 -20 -27 -20h-223q-24 0 -27 20l-303 977q-2 6 -2 17q0 14 16 14h211q11 0 16.5 -3t7 -5t5.5 -12l184 -691l199 641q1 2 2.5 5.5t2 5t1.5 3.5t2.5 3t3.5 2t4.5 1.5t5.5 0.5h213q10 0 13.5 -3
t7.5 -14q1 -3 2 -4l199 -641l184 691q1 1 2 4t1.5 4t1.5 3.5t2 3t2.5 2t3 1.5t4 1t5.5 1h7h211q16 0 16 -14q0 -11 -2 -17z" />
    <glyph glyph-name="x" unicode="x" horiz-adv-x="995" 
d="M317 1014l181 -271l180 271q8 14 29 14h239q15 0 15 -14q0 -1 -1 -3t-2 -5t-2 -5l-317 -462l354 -512q6 -9 6 -17q0 -10 -12 -10h-254q-14 0 -28 20l-207 312l-207 -312q-14 -20 -29 -20h-254q-12 0 -12 10q0 8 6 17l352 512l-315 462q-4 12 -4 13q0 14 14 14h240
q20 0 28 -14z" />
    <glyph glyph-name="y" unicode="y" horiz-adv-x="991" 
d="M12 1028h238q20 0 26 -20l246 -646l199 646q5 12 9.5 16t17.5 4h225q16 0 16 -14q0 -11 -2 -15l-379 -1099q-33 -95 -74.5 -161t-88.5 -101t-94 -49.5t-103 -14.5q-132 0 -199 33q-20 11 -20 33v180q0 20 16 20q11 0 66.5 -22.5t97.5 -22.5q77 0 123 52.5t82 175.5
l-414 972q-4 16 -4 17q0 16 16 16z" />
    <glyph glyph-name="z" unicode="z" horiz-adv-x="989" 
d="M66 827v181q0 20 20 20h795q20 0 20 -20v-172q0 -25 -16 -43l-535 -572h570q20 0 20 -20v-181q0 -20 -20 -20h-861q-20 0 -20 20v173q0 14 12 30l545 584h-510q-20 0 -20 20z" />
    <glyph glyph-name="braceleft" unicode="{" horiz-adv-x="794" 
d="M496 342v-338q0 -88 32 -130t105 -42h59q21 0 21 -20v-197q0 -21 -21 -21h-96q-183 0 -268.5 85.5t-85.5 293.5v285q0 137 -123 137h-60q-20 0 -20 21v196q0 21 20 21h60q123 0 123 137v285q0 207 85.5 293t268.5 86h96q21 0 21 -21v-196q0 -21 -21 -21h-59
q-73 0 -105 -42t-32 -130v-338q0 -76 -29.5 -113.5t-99.5 -58.5q70 -21 99.5 -58.5t29.5 -113.5z" />
    <glyph glyph-name="bar" unicode="|" horiz-adv-x="516" 
d="M131 -184v1597q0 21 21 21h213q20 0 20 -21v-1597q0 -21 -20 -21h-213q-21 0 -21 21z" />
    <glyph glyph-name="braceright" unicode="}" horiz-adv-x="794" 
d="M299 4v338q0 76 29.5 113.5t99.5 58.5q-70 21 -99.5 58.5t-29.5 113.5v338q0 88 -32 130t-105 42h-60q-20 0 -20 21v196q0 21 20 21h97q183 0 268.5 -86t85.5 -293v-285q0 -137 123 -137h59q21 0 21 -21v-196q0 -21 -21 -21h-59q-123 0 -123 -137v-285
q0 -208 -85.5 -293.5t-268.5 -85.5h-97q-20 0 -20 21v197q0 20 20 20h60q73 0 105 42t32 130z" />
    <glyph glyph-name="asciitilde" unicode="~" horiz-adv-x="1112" 
d="M96 778q47 35 119 56.5t131 21.5q72 0 133 -13t95.5 -29t78.5 -29t86 -13q82 0 156 51q12 4 14 4q11 0 21 -16l98 -168q2 -2 2 -8q0 -15 -18 -27q-47 -35 -119 -56.5t-131 -21.5q-72 0 -133 13t-95.5 29t-78.5 29t-86 13q-82 0 -156 -51q-12 -4 -14 -4q-11 0 -21 16
l-98 168q-2 2 -2 9q0 14 18 26z" />
    <glyph glyph-name="uni00A0" unicode="&#xa0;" horiz-adv-x="522" 
 />
    <glyph glyph-name="exclamdown" unicode="&#xa1;" horiz-adv-x="618" 
d="M416 -406h-213q-21 0 -21 21v997q0 21 21 21h213q20 0 20 -21v-997q0 -21 -20 -21zM428 750h-238q-20 0 -20 20v238q0 20 20 20h238q21 0 21 -20v-238q0 -20 -21 -20z" />
    <glyph glyph-name="cent" unicode="&#xa2;" horiz-adv-x="1161" 
d="M481 20v175q-182 37 -294.5 179t-112.5 343t112.5 342t294.5 178v176q0 21 21 21h196q21 0 21 -21v-176q153 -29 252.5 -126t120.5 -226q2 -8 2 -21q0 -12 -15 -12h-200q-22 0 -29 18q-37 98 -131 138v-584q94 37 131 139q7 19 29 19h200q15 0 15 -13q0 -12 -2 -20
q-21 -131 -120.5 -228t-252.5 -126v-175q0 -20 -21 -20h-196q-21 0 -21 20zM328 717q0 -108 40 -184.5t113 -108.5v584q-153 -75 -153 -291z" />
    <glyph glyph-name="sterling" unicode="&#xa3;" horiz-adv-x="1204" 
d="M256 547q0 21 -2 35h-168q-20 0 -20 20v197q0 20 20 20h109q-35 120 -35 213q0 184 127.5 303t318.5 119q227 0 352 -119.5t125 -310.5q0 -20 -20 -20h-213q-18 0 -21 20q-29 193 -223 193q-78 0 -135 -50.5t-57 -134.5q0 -106 43 -213h401q21 0 21 -20v-197
q0 -20 -21 -20h-352q4 -28 4 -43q0 -74 -32.5 -153.5t-90.5 -147.5h715q20 0 20 -21v-197q0 -20 -20 -20h-971q-20 0 -20 20v181q0 23 16 41q66 76 97.5 146.5t31.5 158.5z" />
    <glyph glyph-name="currency" unicode="&#xa4;" horiz-adv-x="1105" 
d="M86 229l107 107q-54 93 -54 203q0 109 54 202l-107 107q-14 14 0 29l129 129q11 10 16 9t13 -9l114 -113q85 43 195 43t195 -43l114 113q8 8 13 9t16 -9l129 -129q10 -11 9 -16t-9 -13l-107 -107q54 -93 54 -202q0 -110 -54 -203l107 -107q8 -9 9 -13t-9 -15l-129 -129
q-15 -14 -29 0l-114 112q-85 -43 -195 -43t-195 43l-114 -112q-8 -8 -13 -9t-16 9l-129 129q-10 11 -9 15t9 13zM362 539q0 -86 52.5 -138.5t138.5 -52.5t138 52.5t52 138.5t-52 138t-138 52t-138.5 -52t-52.5 -138z" />
    <glyph glyph-name="yen" unicode="&#xa5;" horiz-adv-x="1118" 
d="M139 420h291v76h-332q-20 0 -20 20v180q0 21 20 21h230l-338 696q-2 2 -2 8q0 13 14 13h240q19 0 26 -17l291 -645l291 645q7 17 27 17h239q14 0 14 -13q0 -6 -2 -8l-340 -696h248q21 0 21 -21v-180q0 -20 -21 -20h-348v-76h307q21 0 21 -21v-180q0 -20 -21 -20h-307
v-179q0 -20 -20 -20h-217q-21 0 -21 20v179h-291q-20 0 -20 20v180q0 21 20 21z" />
    <glyph glyph-name="brokenbar" unicode="&#xa6;" horiz-adv-x="516" 
d="M131 643v770q0 21 21 21h213q20 0 20 -21v-770q0 -20 -20 -20h-213q-21 0 -21 20zM131 -385v770q0 21 21 21h213q20 0 20 -21v-770q0 -21 -20 -21h-213q-21 0 -21 21z" />
    <glyph glyph-name="section" unicode="&#xa7;" horiz-adv-x="1030" 
d="M932 406q0 -61 -23.5 -108.5t-72.5 -96.5q62 -65 80 -126t18 -141q0 -164 -123 -262t-299 -98q-103 0 -189 34t-140.5 91t-84.5 129.5t-30 151.5q0 20 20 20h209q17 0 20 -20q10 -83 63.5 -125.5t131.5 -42.5q80 0 128 39t48 120q0 66 -54.5 117t-187.5 123
q-91 49 -144.5 81.5t-102 70t-72 74t-36.5 82t-13 104.5t23 104.5t71 97.5q-61 65 -78.5 127t-17.5 142q0 164 123 262t299 98q104 0 189.5 -34t140 -90.5t84.5 -129t30 -151.5q0 -21 -20 -21h-209q-18 0 -21 21q-10 83 -63.5 125.5t-130.5 42.5q-80 0 -128 -39.5
t-48 -120.5q0 -66 54.5 -117t186.5 -123q92 -49 145 -81t102 -70t72 -74t36.5 -81.5t13.5 -104.5zM375 674q-43 -34 -43 -74q0 -30 16.5 -54.5t83.5 -71t201 -120.5q45 32 45 74q0 31 -17.5 55t-82 68t-203.5 123z" />
    <glyph glyph-name="dieresis" unicode="&#xa8;" horiz-adv-x="872" 
d="M123 1192v221q0 21 20 21h222q20 0 20 -21v-221q0 -21 -20 -21h-222q-20 0 -20 21zM487 1192v221q0 21 21 21h221q21 0 21 -21v-221q0 -21 -21 -21h-221q-21 0 -21 21z" />
    <glyph glyph-name="copyright" unicode="&#xa9;" horiz-adv-x="1638" 
d="M819 -20q-105 0 -207.5 30.5t-194 93t-161 149t-110 206.5t-40.5 258t40.5 258t110 206.5t161 149t194 93t207.5 30.5t207.5 -30.5t194 -93t161 -149t110 -206.5t40.5 -258t-40.5 -258t-110 -206.5t-161 -149t-194 -93t-207.5 -30.5zM819 66q92 0 180 25.5t167 79
t138.5 129t94.5 183.5t35 234t-35 234t-94.5 183.5t-138.5 129t-167 79t-180 25.5t-180 -25.5t-167 -79t-138 -129.5t-94 -183.5t-35 -233.5t35 -233.5t94 -183.5t138 -129.5t167 -79t180 -25.5zM1153 565h49q23 0 23 -20q-26 -140 -136.5 -222.5t-269.5 -82.5
q-82 0 -157.5 30.5t-137 87.5t-98.5 150.5t-37 208.5t37 208.5t98.5 150.5t137 87.5t157.5 30.5q159 0 269.5 -82.5t136.5 -222.5q0 -21 -23 -21h-49q-23 0 -29 21q-24 100 -104 159.5t-201 59.5q-137 0 -234.5 -104.5t-97.5 -286.5t97.5 -286.5t234.5 -104.5
q121 0 201 59.5t104 159.5q6 20 29 20z" />
    <glyph glyph-name="ordfeminine" unicode="&#xaa;" horiz-adv-x="946" 
d="M831 1419v-735q0 -14 -14 -14h-155q-15 0 -15 14v37q-89 -66 -213 -66q-152 0 -256 107.5t-104 290.5q0 179 104.5 288t255.5 109q120 0 213 -66v35q0 15 15 15h155q14 0 14 -15zM659 1053q0 101 -53.5 166t-142.5 65q-91 0 -144 -64.5t-53 -166.5q0 -104 53 -169
t144 -65q90 0 143 65t53 169z" />
    <glyph glyph-name="guillemotleft" unicode="&#xab;" horiz-adv-x="1126" 
d="M598 1073v-229q0 -22 -14 -33l-279 -250l279 -250q14 -11 14 -32v-230q0 -14 -12 -14q-7 0 -13 6l-479 414q-20 17 -20 37v139q0 20 20 37l479 413q6 6 13 6q12 0 12 -14zM1034 1073v-229q0 -22 -14 -33l-279 -250l279 -250q14 -11 14 -32v-230q0 -14 -12 -14q-6 0 -12 6
l-480 414q-20 17 -20 37v139q0 20 20 37l480 413q6 6 12 6q12 0 12 -14z" />
    <glyph glyph-name="logicalnot" unicode="&#xac;" horiz-adv-x="1142" 
d="M766 627h-639q-21 0 -21 20v180q0 21 21 21h864q21 0 21 -21v-446q0 -21 -21 -21h-205q-20 0 -20 21v246z" />
    <glyph glyph-name="registered" unicode="&#xae;" horiz-adv-x="1638" 
d="M819 -20q-105 0 -207.5 30.5t-194 93t-161 149t-110 206.5t-40.5 258t40.5 258t110 206.5t161 149t194 93t207.5 30.5t207.5 -30.5t194 -93t161 -149t110 -206.5t40.5 -258t-40.5 -258t-110 -206.5t-161 -149t-194 -93t-207.5 -30.5zM819 66q92 0 180 25.5t167 79
t138.5 129t94.5 183.5t35 234t-35 234t-94.5 183.5t-138.5 129t-167 79t-180 25.5t-180 -25.5t-167 -79t-138 -129.5t-94 -183.5t-35 -233.5t35 -233.5t94 -183.5t138 -129.5t167 -79t180 -25.5zM537 272v893q0 23 22 23h279q145 0 221 -70.5t76 -189.5q0 -96 -50.5 -161.5
t-138.5 -90.5l201 -404q4 -12 4 -14q0 -8 -12 -8h-58q-23 0 -32 18l-201 396h-213v-392q0 -22 -23 -22h-53q-22 0 -22 22zM635 1102v-352h217q97 0 140.5 45t43.5 133q0 174 -184 174h-217z" />
    <glyph glyph-name="macron" unicode="&#xaf;" horiz-adv-x="610" 
d="M63 1200v184q0 21 21 21h442q21 0 21 -21v-184q0 -20 -21 -20h-442q-21 0 -21 20z" />
    <glyph glyph-name="degree" unicode="&#xb0;" horiz-adv-x="921" 
d="M80 1083q0 164 107.5 267.5t273.5 103.5t273.5 -103.5t107.5 -267.5t-107.5 -267t-273.5 -103t-273.5 103t-107.5 267zM287 1083q0 -84 48.5 -133t125.5 -49q79 0 127.5 48.5t48.5 133.5t-48.5 134t-127.5 49q-77 0 -125.5 -49t-48.5 -134z" />
    <glyph glyph-name="plusminus" unicode="&#xb1;" horiz-adv-x="1171" 
d="M700 1243v-346h347q20 0 20 -20v-189q0 -20 -20 -20h-347v-346q0 -21 -20 -21h-188q-21 0 -21 21v346h-346q-21 0 -21 20v189q0 20 21 20h346v346q0 21 21 21h188q20 0 20 -21zM125 229h922q20 0 20 -20v-189q0 -20 -20 -20h-922q-21 0 -21 20v189q0 20 21 20z" />
    <glyph glyph-name="twosuperior" unicode="&#xb2;" horiz-adv-x="724" 
d="M84 688v94q0 20 12 29l318 254q35 29 49 57.5t14 69.5q0 40 -27 65t-75 25q-43 0 -76.5 -25.5t-40.5 -70.5q-3 -21 -20 -21h-127q-21 0 -21 21q5 108 84.5 184t200.5 76q119 0 193.5 -68t74.5 -159q0 -89 -28 -142t-97 -110l-162 -136h283q20 0 20 -20v-123
q0 -20 -20 -20h-535q-20 0 -20 20z" />
    <glyph glyph-name="threesuperior" unicode="&#xb3;" horiz-adv-x="729" 
d="M262 1010v118q0 21 21 21h59q46 0 69 21t23 57q0 28 -19.5 45.5t-58.5 17.5q-69 0 -96 -73q-6 -15 -12 -16q-3 -1 -8 -1h-125q-21 0 -21 19q6 100 79 163.5t183 63.5q116 0 183 -60t67 -153q0 -48 -22 -88t-58 -64q113 -56 113 -174q0 -125 -79.5 -188.5t-201.5 -63.5
q-118 0 -201 72.5t-83 175.5q0 21 20 21h137q12 0 18 -13q0 -1 1 -3l2 -5q24 -84 115 -84q44 0 69 22.5t25 61.5q0 86 -103 86h-75q-21 0 -21 21z" />
    <glyph glyph-name="acute" unicode="&#xb4;" horiz-adv-x="776" 
d="M166 1155l141 258q12 21 31 21h260q10 0 13 -7t-3 -14l-211 -260q-13 -18 -37 -18h-184q-10 0 -12.5 6.5t2.5 13.5z" />
    <glyph glyph-name="mu" unicode="&#xb5;" horiz-adv-x="1167" 
d="M1032 1008v-988q0 -20 -20 -20h-205q-21 0 -21 20v74q-133 -114 -309 -114q-51 0 -112 14v-379q0 -21 -21 -21h-205q-20 0 -20 21v1393q0 20 20 20h205q21 0 21 -20v-594q0 -114 43.5 -163.5t132.5 -49.5q106 0 175.5 85t69.5 257v465q0 20 21 20h205q20 0 20 -20z" />
    <glyph glyph-name="paragraph" unicode="&#xb6;" horiz-adv-x="1298" 
d="M496 1434h745q21 0 21 -21v-196q0 -21 -21 -21h-119v-1380q0 -21 -20 -21h-197q-20 0 -20 21v1380h-133v-1380q0 -21 -21 -21h-196q-21 0 -21 21v817h-25q-216 0 -336 108.5t-120 298.5q0 189 125 291.5t338 102.5z" />
    <glyph glyph-name="periodcentered" unicode="&#xb7;" horiz-adv-x="593" 
d="M184 860h222q20 0 20 -20v-222q0 -20 -20 -20h-222q-20 0 -20 20v222q0 20 20 20z" />
    <glyph glyph-name="cedilla" unicode="&#xb8;" horiz-adv-x="557" 
d="M141 -238l-47 45q-6 6 -6 15q0 8 2 12l64 223q6 21 20 21h131q26 0 17 -21l-82 -166q58 15 104 15q91 0 139.5 -44t48.5 -118q0 -170 -235 -170q-148 0 -221 20q-2 1 -5 2q-15 11 -16 19v90q0 21 21 21q2 0 63 -13.5t131 -13.5q72 0 72 41q0 37 -51 37q-43 0 -121 -19
q-6 -2 -14 -2q-9 0 -15 6z" />
    <glyph glyph-name="onesuperior" unicode="&#xb9;" horiz-adv-x="454" 
d="M186 688v520l-116 -67q-12 -6 -19 -6q-16 0 -16 16v149q0 13 14 21l176 104q15 9 31 9h78q20 0 20 -21v-725q0 -20 -20 -20h-127q-21 0 -21 20z" />
    <glyph glyph-name="ordmasculine" unicode="&#xba;" horiz-adv-x="946" 
d="M61 1053q0 175 117 287t293 112q177 0 294.5 -112t117.5 -287t-117.5 -287.5t-294.5 -112.5q-176 0 -293 112.5t-117 287.5zM256 1053q0 -104 60 -170t155 -66t155 66t60 170t-60 169.5t-155 65.5t-155 -65.5t-60 -169.5z" />
    <glyph glyph-name="guillemotright" unicode="&#xbb;" horiz-adv-x="1126" 
d="M528 844v229q0 14 13 14q6 0 12 -6l479 -413q21 -18 21 -37v-139q0 -19 -21 -37l-479 -414q-6 -6 -12 -6q-13 0 -13 14v230q0 20 15 32l278 250l-278 250q-15 12 -15 33zM92 844v229q0 14 12 14q7 0 13 -6l479 -413q20 -17 20 -37v-139q0 -20 -20 -37l-479 -414
q-6 -6 -13 -6q-12 0 -12 14v230q0 21 14 32l279 250l-279 250q-14 11 -14 33z" />
    <glyph glyph-name="onequarter" unicode="&#xbc;" horiz-adv-x="1642" 
d="M215 117l1145 1310q13 16 29 0l90 -81q13 -13 4 -29l-1145 -1311q-13 -16 -29 0l-90 82q-13 13 -4 29zM272 688v520l-116 -67q-12 -6 -19 -6q-16 0 -16 16v149q0 13 14 21l176 104q15 9 31 9h78q20 0 20 -21v-725q0 -20 -20 -20h-127q-21 0 -21 20zM1221 20v93h-326
q-21 0 -21 20v113q0 12 9 24l346 482q8 14 22 14h113q20 0 20 -21v-464h105q20 0 20 -21v-127q0 -20 -20 -20h-105v-93q0 -20 -20 -20h-123q-20 0 -20 20zM1221 487l-146 -206h146v206z" />
    <glyph glyph-name="onehalf" unicode="&#xbd;" horiz-adv-x="1789" 
d="M215 117l1145 1310q13 16 29 0l90 -81q13 -13 4 -29l-1145 -1311q-13 -16 -29 0l-90 82q-13 13 -4 29zM272 688v520l-116 -67q-12 -6 -19 -6q-16 0 -16 16v149q0 13 14 21l176 104q15 9 31 9h78q20 0 20 -21v-725q0 -20 -20 -20h-127q-21 0 -21 20zM1087 20v95
q0 18 13 28l317 254q35 29 49.5 57.5t14.5 69.5q0 39 -27.5 64.5t-75.5 25.5q-43 0 -76 -25.5t-40 -70.5q-3 -20 -21 -20h-127q-20 0 -20 20q5 108 84 184t200 76q120 0 194.5 -68t74.5 -159q0 -89 -28 -142t-97 -110l-162 -135h282q21 0 21 -21v-123q0 -20 -21 -20h-534
q-21 0 -21 20z" />
    <glyph glyph-name="threequarters" unicode="&#xbe;" horiz-adv-x="1679" 
d="M281 117l1144 1310q13 16 29 0l90 -81q13 -13 4 -29l-1145 -1311q-12 -16 -28 0l-90 82q-13 13 -4 29zM1286 20v93h-325q-21 0 -21 20v113q0 13 8 24l346 482q8 14 23 14h113q20 0 20 -21v-464h104q21 0 21 -21v-127q0 -20 -21 -20h-104v-93q0 -20 -20 -20h-123
q-21 0 -21 20zM1286 487l-145 -206h145v206zM281 1010v118q0 21 20 21h59q46 0 69.5 21t23.5 57q0 28 -19.5 45.5t-58.5 17.5q-69 0 -96 -73q-5 -11 -8 -14t-13 -3h-125q-20 0 -20 19q6 100 79 163.5t183 63.5q116 0 183 -60t67 -153q0 -48 -22 -88t-58 -64
q112 -55 112 -174q0 -125 -79 -188.5t-201 -63.5q-118 0 -201.5 72.5t-83.5 175.5q0 21 21 21h137q3 0 5.5 -0.5t4.5 -1.5t3.5 -3.5t2 -4t2 -5.5t2.5 -6q24 -84 115 -84q44 0 69 22.5t25 61.5q0 86 -102 86h-76q-20 0 -20 21z" />
    <glyph glyph-name="questiondown" unicode="&#xbf;" horiz-adv-x="1167" 
d="M1036 8q-2 -83 -36 -160.5t-94 -138.5t-152 -98t-201 -37q-199 0 -320.5 104t-121.5 259q0 73 18.5 132t47.5 99t64 74t70.5 65.5t64.5 65.5t47.5 82t18.5 106v51q0 21 21 21h213q20 0 20 -21v-51q0 -75 -18.5 -137t-47.5 -104.5t-64 -79t-70.5 -66t-64.5 -58.5
t-47.5 -65.5t-18.5 -77.5q0 -66 49 -111.5t133 -45.5q91 0 153.5 48t85.5 144q1 2 2 5q11 15 19 16h209q20 0 20 -21zM688 750h-237q-21 0 -21 20v238q0 20 21 20h237q21 0 21 -20v-238q0 -20 -21 -20z" />
    <glyph glyph-name="Agrave" unicode="&#xc0;" horiz-adv-x="1282" 
d="M1018 20l-123 359h-508l-123 -359q-4 -9 -5.5 -12t-6 -5.5t-12.5 -2.5h-224q-22 0 -22 20q0 9 2 13l504 1380q1 2 2.5 6t2 5.5t2 4t3.5 3.5t4.5 1.5t5.5 0.5h242q3 0 5.5 -0.5t4.5 -1.5t3.5 -3.5t2 -4t2 -5.5t2.5 -6l504 -1380q2 -4 2 -13q0 -20 -22 -20h-224
q-11 0 -15 4t-9 16zM641 1116l-172 -500h344zM614 1819l142 -258q5 -7 2 -14t-13 -7h-184q-21 0 -37 19l-211 260q-6 7 -2.5 13.5t13.5 6.5h260q19 0 30 -20z" />
    <glyph glyph-name="Aacute" unicode="&#xc1;" horiz-adv-x="1282" 
d="M1018 20l-123 359h-508l-123 -359q-4 -9 -5.5 -12t-6 -5.5t-12.5 -2.5h-224q-22 0 -22 20q0 9 2 13l504 1380q1 2 2.5 6t2 5.5t2 4t3.5 3.5t4.5 1.5t5.5 0.5h242q3 0 5.5 -0.5t4.5 -1.5t3.5 -3.5t2 -4t2 -5.5t2.5 -6l504 -1380q2 -4 2 -13q0 -20 -22 -20h-224
q-11 0 -15 4t-9 16zM641 1116l-172 -500h344zM502 1561l141 258q11 20 31 20h260q10 0 13 -6.5t-3 -13.5l-211 -260q-14 -19 -37 -19h-184q-10 0 -12.5 7t2.5 14z" />
    <glyph glyph-name="Acircumflex" unicode="&#xc2;" horiz-adv-x="1282" 
d="M1018 20l-123 359h-508l-123 -359q-4 -9 -5.5 -12t-6 -5.5t-12.5 -2.5h-224q-22 0 -22 20q0 9 2 13l504 1380q1 2 2.5 6t2 5.5t2 4t3.5 3.5t4.5 1.5t5.5 0.5h242q3 0 5.5 -0.5t4.5 -1.5t3.5 -3.5t2 -4t2 -5.5t2.5 -6l504 -1380q2 -4 2 -13q0 -20 -22 -20h-224
q-11 0 -15 4t-9 16zM641 1116l-172 -500h344zM756 1823l221 -291q6 -8 3 -14.5t-13 -6.5h-193q-18 0 -37 19l-96 96l-96 -96q-19 -19 -37 -19h-193q-10 0 -13 6.5t3 14.5l221 291q16 16 31 16h168q15 0 31 -16z" />
    <glyph glyph-name="Atilde" unicode="&#xc3;" horiz-adv-x="1282" 
d="M1018 20l-123 359h-508l-123 -359q-4 -9 -5.5 -12t-6 -5.5t-12.5 -2.5h-224q-22 0 -22 20q0 9 2 13l504 1380q1 2 2.5 6t2 5.5t2 4t3.5 3.5t4.5 1.5t5.5 0.5h242q3 0 5.5 -0.5t4.5 -1.5t3.5 -3.5t2 -4t2 -5.5t2.5 -6l504 -1380q2 -4 2 -13q0 -20 -22 -20h-224
q-11 0 -15 4t-9 16zM641 1116l-172 -500h344zM258 1767q131 101 238 101q53 0 95 -12.5t64 -27.5t54 -27.5t69 -12.5q55 0 131 49q9 6 17 6q10 0 20 -16l88 -121q4 -8 4 -14q0 -10 -12 -19q-129 -100 -238 -100q-54 0 -96 12.5t-64 27.5t-54 27.5t-68 12.5q-55 0 -131 -49
q-7 -7 -17 -7t-20 17l-88 121q-4 8 -4 14q0 9 12 18z" />
    <glyph glyph-name="Adieresis" unicode="&#xc4;" horiz-adv-x="1282" 
d="M1018 20l-123 359h-508l-123 -359q-4 -9 -5.5 -12t-6 -5.5t-12.5 -2.5h-224q-22 0 -22 20q0 9 2 13l504 1380q1 2 2.5 6t2 5.5t2 4t3.5 3.5t4.5 1.5t5.5 0.5h242q3 0 5.5 -0.5t4.5 -1.5t3.5 -3.5t2 -4t2 -5.5t2.5 -6l504 -1380q2 -4 2 -13q0 -20 -22 -20h-224
q-11 0 -15 4t-9 16zM641 1116l-172 -500h344zM328 1597v222q0 20 20 20h221q21 0 21 -20v-222q0 -20 -21 -20h-221q-20 0 -20 20zM692 1597v222q0 20 21 20h221q20 0 20 -20v-222q0 -20 -20 -20h-221q-21 0 -21 20z" />
    <glyph glyph-name="Aring" unicode="&#xc5;" horiz-adv-x="1282" 
d="M1018 20l-123 359h-508l-123 -359q-4 -9 -5.5 -12t-6 -5.5t-12.5 -2.5h-224q-22 0 -22 20q0 9 2 13l504 1380q1 2 2.5 6t2 5.5t2 4t3.5 3.5t4.5 1.5t5.5 0.5h242q3 0 5.5 -0.5t4.5 -1.5t3.5 -3.5t2 -4t2 -5.5t2.5 -6l504 -1380q2 -4 2 -13q0 -20 -22 -20h-224
q-11 0 -15 4t-9 16zM641 1116l-172 -500h344zM430 1679q0 88 59 144.5t152 56.5t152 -56.5t59 -144.5t-59 -144t-152 -56t-152 56t-59 144zM569 1679q0 -34 20 -51.5t52 -17.5t52 17.5t20 51.5t-20 52t-52 18t-52 -18t-20 -52z" />
    <glyph glyph-name="AE" unicode="&#xc6;" horiz-adv-x="1806" 
d="M1018 635v-397h670q20 0 20 -21v-197q0 -20 -20 -20h-908q-20 0 -20 20v357h-357l-139 -357q-4 -9 -5.5 -12t-6 -5.5t-12.5 -2.5h-220q-22 0 -22 20q0 9 2 13l555 1380q9 21 25 21h1077q20 0 20 -21v-196q0 -21 -20 -21h-639v-324h577q21 0 21 -20v-197q0 -20 -21 -20
h-577zM723 1196l-227 -582h264v582h-37z" />
    <glyph glyph-name="Ccedilla" unicode="&#xc7;" horiz-adv-x="1447" 
d="M618 -238l-47 45q-6 6 -6 15q0 8 2 12l45 158q-109 21 -202 74t-169 139t-119.5 217.5t-43.5 294.5q0 150 38.5 274.5t103 208.5t151 142.5t180.5 85t194 26.5q255 0 433.5 -140t207.5 -374q0 -20 -22 -20h-207q-18 0 -24 20q-81 277 -388 277q-76 0 -146 -31.5t-128 -91
t-92.5 -157.5t-34.5 -220t34.5 -220t92.5 -157.5t128 -91t146 -31.5q310 0 388 277q6 20 24 20h207q22 0 22 -20q-29 -230 -203.5 -369.5t-422.5 -144.5l-43 -89q58 15 104 15q91 0 140 -44t49 -118q0 -170 -236 -170q-148 0 -221 20q-2 1 -5 2q-15 11 -16 19v90q0 21 21 21
q2 0 63.5 -13.5t131.5 -13.5q71 0 71 41q0 37 -51 37q-43 0 -121 -19q-6 -2 -14 -2q-9 0 -15 6z" />
    <glyph glyph-name="Egrave" unicode="&#xc8;" horiz-adv-x="1196" 
d="M401 635v-397h676q21 0 21 -21v-197q0 -20 -21 -20h-913q-21 0 -21 20v1393q0 21 21 21h883q20 0 20 -21v-196q0 -21 -20 -21h-646v-324h584q21 0 21 -20v-197q0 -20 -21 -20h-584zM627 1819l141 -258q5 -7 2.5 -14t-12.5 -7h-185q-20 0 -36 19l-211 260q-6 7 -3 13.5
t13 6.5h260q20 0 31 -20z" />
    <glyph glyph-name="Eacute" unicode="&#xc9;" horiz-adv-x="1196" 
d="M401 635v-397h676q21 0 21 -21v-197q0 -20 -21 -20h-913q-21 0 -21 20v1393q0 21 21 21h883q20 0 20 -21v-196q0 -21 -20 -21h-646v-324h584q21 0 21 -20v-197q0 -20 -21 -20h-584zM440 1561l142 258q11 20 30 20h260q10 0 13.5 -6.5t-2.5 -13.5l-211 -260
q-14 -19 -37 -19h-184q-10 0 -13 7t2 14z" />
    <glyph glyph-name="Ecircumflex" unicode="&#xca;" horiz-adv-x="1196" 
d="M401 635v-397h676q21 0 21 -21v-197q0 -20 -21 -20h-913q-21 0 -21 20v1393q0 21 21 21h883q20 0 20 -21v-196q0 -21 -20 -21h-646v-324h584q21 0 21 -20v-197q0 -20 -21 -20h-584zM725 1823l221 -291q6 -8 3 -14.5t-13 -6.5h-193q-17 0 -36 19l-97 96l-96 -96
q-19 -19 -37 -19h-192q-10 0 -13.5 6.5t2.5 14.5l222 291q16 16 30 16h168q15 0 31 -16z" />
    <glyph glyph-name="Edieresis" unicode="&#xcb;" horiz-adv-x="1196" 
d="M401 635v-397h676q21 0 21 -21v-197q0 -20 -21 -20h-913q-21 0 -21 20v1393q0 21 21 21h883q20 0 20 -21v-196q0 -21 -20 -21h-646v-324h584q21 0 21 -20v-197q0 -20 -21 -20h-584zM295 1597v222q0 20 20 20h222q20 0 20 -20v-222q0 -20 -20 -20h-222q-20 0 -20 20z
M659 1597v222q0 20 21 20h221q21 0 21 -20v-222q0 -20 -21 -20h-221q-21 0 -21 20z" />
    <glyph glyph-name="Igrave" unicode="&#xcc;" horiz-adv-x="516" 
d="M129 20v1393q0 21 21 21h217q20 0 20 -21v-1393q0 -20 -20 -20h-217q-21 0 -21 20zM254 1819l141 -258q5 -7 2.5 -14t-12.5 -7h-184q-21 0 -37 19l-211 260q-6 7 -3 13.5t13 6.5h260q20 0 31 -20z" />
    <glyph glyph-name="Iacute" unicode="&#xcd;" horiz-adv-x="516" 
d="M129 20v1393q0 21 21 21h217q20 0 20 -21v-1393q0 -20 -20 -20h-217q-21 0 -21 20zM123 1561l141 258q11 20 31 20h260q10 0 13 -6.5t-3 -13.5l-211 -260q-14 -19 -37 -19h-184q-10 0 -12.5 7t2.5 14z" />
    <glyph glyph-name="Icircumflex" unicode="&#xce;" horiz-adv-x="516" 
d="M129 20v1393q0 21 21 21h217q20 0 20 -21v-1393q0 -20 -20 -20h-217q-21 0 -21 20zM373 1823l221 -291q6 -8 3 -14.5t-13 -6.5h-193q-18 0 -37 19l-96 96l-96 -96q-19 -19 -37 -19h-193q-10 0 -13 6.5t3 14.5l221 291q16 16 31 16h168q15 0 31 -16z" />
    <glyph glyph-name="Idieresis" unicode="&#xcf;" horiz-adv-x="516" 
d="M129 20v1393q0 21 21 21h217q20 0 20 -21v-1393q0 -20 -20 -20h-217q-21 0 -21 20zM-55 1597v222q0 20 20 20h221q21 0 21 -20v-222q0 -20 -21 -20h-221q-20 0 -20 20zM309 1597v222q0 20 21 20h221q20 0 20 -20v-222q0 -20 -20 -20h-221q-21 0 -21 20z" />
    <glyph glyph-name="Eth" unicode="&#xd0;" horiz-adv-x="1386" 
d="M184 20v578h-141q-20 0 -20 20v197q0 21 20 21h141v577q0 21 21 21h434q139 0 259.5 -45t214 -131.5t147 -225.5t53.5 -315t-53.5 -315t-147 -225.5t-214 -131.5t-259.5 -45h-434q-21 0 -21 20zM627 1196h-185v-360h265q20 0 20 -21v-197q0 -20 -20 -20h-265v-360h185
q191 0 305.5 121t114.5 358t-114.5 358t-305.5 121z" />
    <glyph glyph-name="Ntilde" unicode="&#xd1;" horiz-adv-x="1425" 
d="M1262 0h-220q-22 0 -32 16l-604 971v-967q0 -20 -21 -20h-221q-21 0 -21 20v1393q0 21 21 21h219q23 0 33 -17l604 -971v967q0 21 20 21h222q20 0 20 -21v-1393q0 -20 -20 -20zM336 1767q131 101 237 101q53 0 95 -12.5t64.5 -27.5t54.5 -27.5t69 -12.5q55 0 131 49
q9 6 17 6q10 0 20 -16l88 -121q4 -8 4 -14q0 -10 -12 -19q-129 -100 -238 -100q-54 0 -96 12.5t-64 27.5t-54 27.5t-68 12.5q-55 0 -131 -49q-7 -7 -17 -7t-20 17l-88 121q-4 8 -4 14q0 9 12 18z" />
    <glyph glyph-name="Ograve" unicode="&#xd2;" horiz-adv-x="1572" 
d="M786 -20q-107 0 -208.5 28.5t-192.5 88.5t-159 145t-108 207.5t-40 267.5t40 267.5t108 207.5t159 145t192.5 88.5t208.5 28.5t209 -28.5t193 -88.5t159 -145t108 -207.5t40 -267.5t-40 -267.5t-108 -207.5t-159 -145t-193 -88.5t-209 -28.5zM786 217q70 0 134 19.5
t120.5 60t98.5 99t66 141t24 180.5t-24 180.5t-66 141t-98.5 99t-120.5 60t-134 19.5q-88 0 -166 -31.5t-140.5 -91.5t-99 -157.5t-36.5 -219.5t36.5 -219.5t99 -157.5t140.5 -91.5t166 -31.5zM795 1819l141 -258q5 -7 2.5 -14t-12.5 -7h-185q-20 0 -36 19l-211 260
q-6 7 -3 13.5t13 6.5h260q20 0 31 -20z" />
    <glyph glyph-name="Oacute" unicode="&#xd3;" horiz-adv-x="1572" 
d="M786 -20q-107 0 -208.5 28.5t-192.5 88.5t-159 145t-108 207.5t-40 267.5t40 267.5t108 207.5t159 145t192.5 88.5t208.5 28.5t209 -28.5t193 -88.5t159 -145t108 -207.5t40 -267.5t-40 -267.5t-108 -207.5t-159 -145t-193 -88.5t-209 -28.5zM786 217q70 0 134 19.5
t120.5 60t98.5 99t66 141t24 180.5t-24 180.5t-66 141t-98.5 99t-120.5 60t-134 19.5q-88 0 -166 -31.5t-140.5 -91.5t-99 -157.5t-36.5 -219.5t36.5 -219.5t99 -157.5t140.5 -91.5t166 -31.5zM608 1561l142 258q11 20 30 20h260q10 0 13.5 -6.5t-2.5 -13.5l-211 -260
q-14 -19 -37 -19h-185q-10 0 -12.5 7t2.5 14z" />
    <glyph glyph-name="Ocircumflex" unicode="&#xd4;" horiz-adv-x="1572" 
d="M786 -20q-107 0 -208.5 28.5t-192.5 88.5t-159 145t-108 207.5t-40 267.5t40 267.5t108 207.5t159 145t192.5 88.5t208.5 28.5t209 -28.5t193 -88.5t159 -145t108 -207.5t40 -267.5t-40 -267.5t-108 -207.5t-159 -145t-193 -88.5t-209 -28.5zM786 217q70 0 134 19.5
t120.5 60t98.5 99t66 141t24 180.5t-24 180.5t-66 141t-98.5 99t-120.5 60t-134 19.5q-88 0 -166 -31.5t-140.5 -91.5t-99 -157.5t-36.5 -219.5t36.5 -219.5t99 -157.5t140.5 -91.5t166 -31.5zM901 1823l221 -291q6 -8 3 -14.5t-13 -6.5h-192q-18 0 -37 19l-97 96l-96 -96
q-19 -19 -37 -19h-192q-10 0 -13 6.5t3 14.5l221 291q16 16 30 16h168q15 0 31 -16z" />
    <glyph glyph-name="Otilde" unicode="&#xd5;" horiz-adv-x="1572" 
d="M786 -20q-107 0 -208.5 28.5t-192.5 88.5t-159 145t-108 207.5t-40 267.5t40 267.5t108 207.5t159 145t192.5 88.5t208.5 28.5t209 -28.5t193 -88.5t159 -145t108 -207.5t40 -267.5t-40 -267.5t-108 -207.5t-159 -145t-193 -88.5t-209 -28.5zM786 217q70 0 134 19.5
t120.5 60t98.5 99t66 141t24 180.5t-24 180.5t-66 141t-98.5 99t-120.5 60t-134 19.5q-88 0 -166 -31.5t-140.5 -91.5t-99 -157.5t-36.5 -219.5t36.5 -219.5t99 -157.5t140.5 -91.5t166 -31.5zM403 1767q131 101 238 101q53 0 95 -12.5t64.5 -27.5t54.5 -27.5t69 -12.5
q55 0 131 49q9 6 16 6q11 0 21 -16l88 -121q4 -8 4 -14q0 -9 -13 -19q-129 -100 -237 -100q-54 0 -96.5 12.5t-64.5 27.5t-54 27.5t-68 12.5q-55 0 -131 -49q-7 -7 -16 -7q-11 0 -21 17l-88 121q-4 8 -4 14q0 9 12 18z" />
    <glyph glyph-name="Odieresis" unicode="&#xd6;" horiz-adv-x="1572" 
d="M786 -20q-107 0 -208.5 28.5t-192.5 88.5t-159 145t-108 207.5t-40 267.5t40 267.5t108 207.5t159 145t192.5 88.5t208.5 28.5t209 -28.5t193 -88.5t159 -145t108 -207.5t40 -267.5t-40 -267.5t-108 -207.5t-159 -145t-193 -88.5t-209 -28.5zM786 217q70 0 134 19.5
t120.5 60t98.5 99t66 141t24 180.5t-24 180.5t-66 141t-98.5 99t-120.5 60t-134 19.5q-88 0 -166 -31.5t-140.5 -91.5t-99 -157.5t-36.5 -219.5t36.5 -219.5t99 -157.5t140.5 -91.5t166 -31.5zM473 1597v222q0 20 21 20h221q20 0 20 -20v-222q0 -20 -20 -20h-221
q-21 0 -21 20zM838 1597v222q0 20 20 20h221q21 0 21 -20v-222q0 -20 -21 -20h-221q-20 0 -20 20z" />
    <glyph glyph-name="multiply" unicode="&#xd7;" horiz-adv-x="1036" 
d="M926 946l-246 -246l246 -245q6 -6 6 -15q0 -8 -6 -14l-133 -133q-8 -8 -15 -8q-6 0 -14 8l-246 246l-246 -246q-8 -8 -14 -8t-14 8l-133 133q-7 7 -7 14q0 8 7 15l245 245l-245 246q-7 7 -7 15q0 7 7 14l133 133q8 8 14 8t14 -8l246 -246l246 246q8 8 14 8q7 0 15 -8
l133 -133q6 -6 6 -14q0 -9 -6 -15z" />
    <glyph glyph-name="Oslash" unicode="&#xd8;" horiz-adv-x="1572" 
d="M786 -20q-176 0 -309 65l-82 -139q-9 -12 -16 -12l-12 4l-88 53q-13 10 -13 16q0 1 4 13l82 139q-129 95 -201.5 245t-72.5 353q0 145 40 267.5t108 207.5t159 145t192.5 88.5t208.5 28.5q177 0 310 -65l82 139q9 12 16 12l12 -4l88 -53q13 -10 13 -17l-4 -12l-82 -139
q129 -95 201.5 -245t72.5 -353q0 -145 -40 -267.5t-108 -207.5t-159 -145t-193 -88.5t-209 -28.5zM344 717q0 -242 137 -379l492 840q-82 39 -187 39q-88 0 -166 -31.5t-140.5 -91.5t-99 -157.5t-36.5 -219.5zM786 217q70 0 134 19.5t120.5 60t98.5 99t66 141t24 180.5
q0 242 -137 379l-492 -840q79 -39 186 -39z" />
    <glyph glyph-name="Ugrave" unicode="&#xd9;" horiz-adv-x="1310" 
d="M111 553v860q0 21 20 21h217q21 0 21 -21v-858q0 -172 75.5 -255t210.5 -83t211 83t76 255v858q0 21 21 21h217q20 0 20 -21v-860q0 -267 -148 -420t-397 -153t-396.5 153t-147.5 420zM664 1819l141 -258q5 -7 2.5 -14t-12.5 -7h-185q-21 0 -37 19l-211 260
q-6 7 -2.5 13.5t13.5 6.5h260q20 0 31 -20z" />
    <glyph glyph-name="Uacute" unicode="&#xda;" horiz-adv-x="1310" 
d="M111 553v860q0 21 20 21h217q21 0 21 -21v-858q0 -172 75.5 -255t210.5 -83t211 83t76 255v858q0 21 21 21h217q20 0 20 -21v-860q0 -267 -148 -420t-397 -153t-396.5 153t-147.5 420zM496 1561l141 258q11 20 31 20h260q10 0 13 -6.5t-3 -13.5l-211 -260
q-14 -19 -37 -19h-184q-10 0 -12.5 7t2.5 14z" />
    <glyph glyph-name="Ucircumflex" unicode="&#xdb;" horiz-adv-x="1310" 
d="M111 553v860q0 21 20 21h217q21 0 21 -21v-858q0 -172 75.5 -255t210.5 -83t211 83t76 255v858q0 21 21 21h217q20 0 20 -21v-860q0 -267 -148 -420t-397 -153t-396.5 153t-147.5 420zM770 1823l221 -291q6 -8 3 -14.5t-13 -6.5h-193q-17 0 -36 19l-97 96l-96 -96
q-19 -19 -37 -19h-192q-10 0 -13.5 6.5t2.5 14.5l222 291q16 16 30 16h168q15 0 31 -16z" />
    <glyph glyph-name="Udieresis" unicode="&#xdc;" horiz-adv-x="1310" 
d="M111 553v860q0 21 20 21h217q21 0 21 -21v-858q0 -172 75.5 -255t210.5 -83t211 83t76 255v858q0 21 21 21h217q20 0 20 -21v-860q0 -267 -148 -420t-397 -153t-396.5 153t-147.5 420zM342 1597v222q0 20 20 20h222q20 0 20 -20v-222q0 -20 -20 -20h-222q-20 0 -20 20z
M707 1597v222q0 20 20 20h221q21 0 21 -20v-222q0 -20 -21 -20h-221q-20 0 -20 20z" />
    <glyph glyph-name="Yacute" unicode="&#xdd;" horiz-adv-x="1118" 
d="M1128 1413l-440 -909v-484q0 -20 -20 -20h-217q-21 0 -21 20v484l-440 909q-2 2 -2 8q0 13 14 13h240q19 0 26 -17l291 -645l291 645q7 17 27 17h239q14 0 14 -13q0 -6 -2 -8zM412 1561l141 258q11 20 31 20h260q10 0 13 -6.5t-3 -13.5l-211 -260q-14 -19 -37 -19h-184
q-10 0 -12.5 7t2.5 14z" />
    <glyph glyph-name="Thorn" unicode="&#xde;" horiz-adv-x="1241" 
d="M401 1128h293q232 0 357 -109.5t125 -301.5t-125.5 -302t-356.5 -110h-293v-285q0 -20 -20 -20h-217q-21 0 -21 20v1393q0 21 21 21h217q20 0 20 -21v-285zM401 891v-348h299q97 0 155 45t58 129t-58 129t-155 45h-299z" />
    <glyph glyph-name="germandbls" unicode="&#xdf;" horiz-adv-x="1277" 
d="M852 -20q-177 0 -278.5 102.5t-106.5 261.5q0 21 20 21h181q17 0 20 -21q27 -143 158 -143q59 0 93 39t34 100q0 38 -20.5 68.5t-53 52t-72 42t-79.5 44.5t-72.5 53t-53 73t-20.5 99q0 47 19 85t46.5 63t55 48t46.5 52t19 63q0 65 -44.5 107.5t-120.5 42.5
q-85 0 -138 -63t-53 -191v-959q0 -20 -20 -20h-205q-21 0 -21 20v787h-141q-20 0 -20 20v181q0 20 20 20h141q0 201 118.5 313.5t313.5 112.5q180 0 292 -99t112 -249q0 -64 -18 -114t-43.5 -79t-51 -51.5t-43.5 -44.5t-18 -45q0 -26 27.5 -51t68.5 -46t89.5 -52t89.5 -65
t68.5 -89.5t27.5 -122.5q0 -178 -101 -272t-266 -94z" />
    <glyph glyph-name="agrave" unicode="&#xe0;" horiz-adv-x="1103" 
d="M338 713h-207q-14 0 -14 12t2 20q31 134 145.5 219t290.5 85q198 0 317 -107t119 -289v-444q0 -68 8 -110t31 -79q11 -20 -14 -20h-250q-21 0 -21 20v60q-55 -46 -121.5 -73t-170.5 -27q-161 0 -267 93.5t-106 248.5q0 108 57 187.5t149.5 118t207.5 38.5q119 0 251 -41
v28q0 80 -49 127t-141 47q-135 0 -188 -96q-11 -18 -29 -18zM745 416q-144 41 -241 41q-81 0 -134 -34t-53 -95q0 -60 47.5 -93.5t133.5 -33.5q97 0 172 60.5t75 154.5zM551 1413l141 -258q5 -7 2.5 -13.5t-12.5 -6.5h-184q-22 0 -37 18l-211 260q-6 7 -3 14t13 7h260
q19 0 31 -21z" />
    <glyph glyph-name="aacute" unicode="&#xe1;" horiz-adv-x="1103" 
d="M338 713h-207q-14 0 -14 12t2 20q31 134 145.5 219t290.5 85q198 0 317 -107t119 -289v-444q0 -68 8 -110t31 -79q11 -20 -14 -20h-250q-21 0 -21 20v60q-55 -46 -121.5 -73t-170.5 -27q-161 0 -267 93.5t-106 248.5q0 108 57 187.5t149.5 118t207.5 38.5q119 0 251 -41
v28q0 80 -49 127t-141 47q-135 0 -188 -96q-11 -18 -29 -18zM745 416q-144 41 -241 41q-81 0 -134 -34t-53 -95q0 -60 47.5 -93.5t133.5 -33.5q97 0 172 60.5t75 154.5zM391 1155l141 258q12 21 31 21h260q10 0 13.5 -7t-2.5 -14l-211 -260q-13 -18 -37 -18h-185
q-10 0 -12.5 6.5t2.5 13.5z" />
    <glyph glyph-name="acircumflex" unicode="&#xe2;" horiz-adv-x="1103" 
d="M338 713h-207q-14 0 -14 12t2 20q31 134 145.5 219t290.5 85q198 0 317 -107t119 -289v-444q0 -68 8 -110t31 -79q11 -20 -14 -20h-250q-21 0 -21 20v60q-55 -46 -121.5 -73t-170.5 -27q-161 0 -267 93.5t-106 248.5q0 108 57 187.5t149.5 118t207.5 38.5q119 0 251 -41
v28q0 80 -49 127t-141 47q-135 0 -188 -96q-11 -18 -29 -18zM745 416q-144 41 -241 41q-81 0 -134 -34t-53 -95q0 -60 47.5 -93.5t133.5 -33.5q97 0 172 60.5t75 154.5zM670 1417l221 -291q6 -8 3 -14t-13 -6h-193q-19 0 -37 18l-96 97l-96 -97q-18 -18 -37 -18h-193
q-10 0 -13 6t3 14l221 291q17 17 31 17h168q14 0 31 -17z" />
    <glyph glyph-name="atilde" unicode="&#xe3;" horiz-adv-x="1103" 
d="M338 713h-207q-14 0 -14 12t2 20q31 134 145.5 219t290.5 85q198 0 317 -107t119 -289v-444q0 -68 8 -110t31 -79q11 -20 -14 -20h-250q-21 0 -21 20v60q-55 -46 -121.5 -73t-170.5 -27q-161 0 -267 93.5t-106 248.5q0 108 57 187.5t149.5 118t207.5 38.5q119 0 251 -41
v28q0 80 -49 127t-141 47q-135 0 -188 -96q-11 -18 -29 -18zM745 416q-144 41 -241 41q-81 0 -134 -34t-53 -95q0 -60 47.5 -93.5t133.5 -33.5q97 0 172 60.5t75 154.5zM180 1362q129 100 238 100q53 0 95 -12.5t64 -27.5t54 -27.5t69 -12.5q54 0 131 50q9 6 17 6
q10 0 20 -17l88 -121q5 -10 5 -14q0 -8 -13 -18q-131 -101 -237 -101q-54 0 -96.5 12.5t-64.5 27.5t-54 27.5t-68 12.5q-55 0 -131 -49q-6 -6 -16 -6q-11 0 -21 16l-88 121q-4 8 -4 14q0 10 12 19z" />
    <glyph glyph-name="adieresis" unicode="&#xe4;" horiz-adv-x="1103" 
d="M338 713h-207q-14 0 -14 12t2 20q31 134 145.5 219t290.5 85q198 0 317 -107t119 -289v-444q0 -68 8 -110t31 -79q11 -20 -14 -20h-250q-21 0 -21 20v60q-55 -46 -121.5 -73t-170.5 -27q-161 0 -267 93.5t-106 248.5q0 108 57 187.5t149.5 118t207.5 38.5q119 0 251 -41
v28q0 80 -49 127t-141 47q-135 0 -188 -96q-11 -18 -29 -18zM745 416q-144 41 -241 41q-81 0 -134 -34t-53 -95q0 -60 47.5 -93.5t133.5 -33.5q97 0 172 60.5t75 154.5zM242 1192v221q0 21 20 21h221q21 0 21 -21v-221q0 -21 -21 -21h-221q-20 0 -20 21zM606 1192v221
q0 21 21 21h221q20 0 20 -21v-221q0 -21 -20 -21h-221q-21 0 -21 21z" />
    <glyph glyph-name="aring" unicode="&#xe5;" horiz-adv-x="1103" 
d="M338 713h-207q-14 0 -14 12t2 20q31 134 145.5 219t290.5 85q198 0 317 -107t119 -289v-444q0 -68 8 -110t31 -79q11 -20 -14 -20h-250q-21 0 -21 20v60q-55 -46 -121.5 -73t-170.5 -27q-161 0 -267 93.5t-106 248.5q0 108 57 187.5t149.5 118t207.5 38.5q119 0 251 -41
v28q0 80 -49 127t-141 47q-135 0 -188 -96q-11 -18 -29 -18zM745 416q-144 41 -241 41q-81 0 -134 -34t-53 -95q0 -60 47.5 -93.5t133.5 -33.5q97 0 172 60.5t75 154.5zM346 1274q0 88 59 144.5t152 56.5t152 -56.5t59 -144.5t-59 -144.5t-152 -56.5t-152 56.5t-59 144.5z
M485 1274q0 -34 20 -52t52 -18t52 18t20 52t-20 51.5t-52 17.5t-52 -17.5t-20 -51.5z" />
    <glyph glyph-name="ae" unicode="&#xe6;" horiz-adv-x="1908" 
d="M338 713h-207q-14 0 -14 12t2 20q31 134 145.5 219t290.5 85q251 0 365 -160q154 160 385 160q123 0 224 -45t167.5 -121.5t102.5 -177t36 -213.5v-35q0 -21 -20 -21h-789q18 -102 93 -168.5t186 -66.5q90 0 150 30.5t101 96.5q11 18 29 18h209q14 0 14 -14q0 -12 -4 -21
q-66 -169 -190 -250t-311 -81q-262 0 -410 186q-142 -186 -412 -186q-190 0 -295.5 91t-105.5 251q0 108 57 187.5t149.5 118t207.5 38.5q126 0 251 -39v26q0 80 -49 127t-141 47q-135 0 -188 -96q-11 -18 -29 -18zM745 416q-144 41 -241 41q-81 0 -134 -34t-53 -95
q0 -60 47.5 -93.5t133.5 -33.5q97 0 172 60.5t75 154.5zM1305 827q-89 0 -161 -49.5t-102 -136.5h531q-64 186 -268 186z" />
    <glyph glyph-name="ccedilla" unicode="&#xe7;" horiz-adv-x="1161" 
d="M475 -238l-47 45q-6 6 -6 15q0 8 2 12l45 162q-179 42 -287 180.5t-108 337.5q0 238 152 386.5t384 148.5q196 0 326 -106t156 -261q2 -8 2 -20q0 -13 -15 -13h-200q-22 0 -29 19q-29 77 -92.5 118t-151.5 41q-126 0 -202 -82t-76 -231t76 -231t202 -82q88 0 151.5 41
t92.5 118q7 19 29 19h200q15 0 15 -12q0 -13 -2 -21q-26 -155 -154.5 -260.5t-321.5 -105.5l-43 -89q58 15 105 15q91 0 139.5 -44t48.5 -118q0 -170 -235 -170q-148 0 -221 20q-2 1 -5 2q-15 11 -16 19v90q0 21 21 21q2 0 63 -13.5t131 -13.5q72 0 72 41q0 37 -51 37
q-43 0 -121 -19q-6 -2 -15 -2q-8 0 -14 6z" />
    <glyph glyph-name="egrave" unicode="&#xe8;" horiz-adv-x="1214" 
d="M610 201q90 0 150.5 30.5t101.5 96.5q11 18 29 18h209q14 0 14 -14q0 -12 -4 -21q-128 -331 -502 -331q-147 0 -266.5 66.5t-189.5 189.5t-70 278t71.5 278t192 190t264.5 67q123 0 224.5 -45t167.5 -121.5t102.5 -177t36.5 -213.5v-35q0 -21 -21 -21h-780
q18 -108 88 -171.5t182 -63.5zM610 827q-89 0 -160.5 -49.5t-101.5 -136.5h531q-64 186 -269 186zM635 1413l141 -258q5 -7 2.5 -13.5t-12.5 -6.5h-184q-22 0 -37 18l-211 260q-6 7 -3 14t13 7h260q19 0 31 -21z" />
    <glyph glyph-name="eacute" unicode="&#xe9;" horiz-adv-x="1214" 
d="M610 201q90 0 150.5 30.5t101.5 96.5q11 18 29 18h209q14 0 14 -14q0 -12 -4 -21q-128 -331 -502 -331q-147 0 -266.5 66.5t-189.5 189.5t-70 278t71.5 278t192 190t264.5 67q123 0 224.5 -45t167.5 -121.5t102.5 -177t36.5 -213.5v-35q0 -21 -21 -21h-780
q18 -108 88 -171.5t182 -63.5zM610 827q-89 0 -160.5 -49.5t-101.5 -136.5h531q-64 186 -269 186zM424 1155l141 258q12 21 31 21h260q10 0 13 -7t-3 -14l-211 -260q-13 -18 -37 -18h-184q-10 0 -12.5 6.5t2.5 13.5z" />
    <glyph glyph-name="ecircumflex" unicode="&#xea;" horiz-adv-x="1214" 
d="M610 201q90 0 150.5 30.5t101.5 96.5q11 18 29 18h209q14 0 14 -14q0 -12 -4 -21q-128 -331 -502 -331q-147 0 -266.5 66.5t-189.5 189.5t-70 278t71.5 278t192 190t264.5 67q123 0 224.5 -45t167.5 -121.5t102.5 -177t36.5 -213.5v-35q0 -21 -21 -21h-780
q18 -108 88 -171.5t182 -63.5zM610 827q-89 0 -160.5 -49.5t-101.5 -136.5h531q-64 186 -269 186zM735 1417l221 -291q6 -8 3 -14t-13 -6h-192q-19 0 -37 18l-96 97l-97 -97q-18 -18 -37 -18h-192q-10 0 -13 6t3 14l221 291q17 17 31 17h168q13 0 30 -17z" />
    <glyph glyph-name="edieresis" unicode="&#xeb;" horiz-adv-x="1214" 
d="M610 201q90 0 150.5 30.5t101.5 96.5q11 18 29 18h209q14 0 14 -14q0 -12 -4 -21q-128 -331 -502 -331q-147 0 -266.5 66.5t-189.5 189.5t-70 278t71.5 278t192 190t264.5 67q123 0 224.5 -45t167.5 -121.5t102.5 -177t36.5 -213.5v-35q0 -21 -21 -21h-780
q18 -108 88 -171.5t182 -63.5zM610 827q-89 0 -160.5 -49.5t-101.5 -136.5h531q-64 186 -269 186zM301 1192v221q0 21 21 21h221q20 0 20 -21v-221q0 -21 -20 -21h-221q-21 0 -21 21zM666 1192v221q0 21 20 21h221q21 0 21 -21v-221q0 -21 -21 -21h-221q-20 0 -20 21z" />
    <glyph glyph-name="igrave" unicode="&#xec;" horiz-adv-x="438" 
d="M96 20v988q0 20 21 20h205q20 0 20 -20v-988q0 -20 -20 -20h-205q-21 0 -21 20zM231 1413l142 -258q5 -7 2 -13.5t-13 -6.5h-184q-22 0 -37 18l-211 260q-6 7 -2.5 14t13.5 7h260q18 0 30 -21z" />
    <glyph glyph-name="iacute" unicode="&#xed;" horiz-adv-x="438" 
d="M96 20v988q0 20 21 20h205q20 0 20 -20v-988q0 -20 -20 -20h-205q-21 0 -21 20zM68 1155l141 258q12 21 31 21h260q10 0 13 -7t-3 -14l-211 -260q-13 -18 -37 -18h-184q-10 0 -12.5 6.5t2.5 13.5z" />
    <glyph glyph-name="icircumflex" unicode="&#xee;" horiz-adv-x="438" 
d="M96 20v988q0 20 21 20h205q20 0 20 -20v-988q0 -20 -20 -20h-205q-21 0 -21 20zM334 1417l221 -291q6 -8 3 -14t-13 -6h-193q-19 0 -37 18l-96 97l-96 -97q-18 -18 -37 -18h-192q-10 0 -13.5 6t2.5 14l221 291q17 17 31 17h168q14 0 31 -17z" />
    <glyph glyph-name="idieresis" unicode="&#xef;" horiz-adv-x="438" 
d="M96 20v988q0 20 21 20h205q20 0 20 -20v-988q0 -20 -20 -20h-205q-21 0 -21 20zM-94 1192v221q0 21 20 21h221q21 0 21 -21v-221q0 -21 -21 -21h-221q-20 0 -20 21zM270 1192v221q0 21 21 21h221q20 0 20 -21v-221q0 -21 -20 -21h-221q-21 0 -21 21z" />
    <glyph glyph-name="eth" unicode="&#xf0;" horiz-adv-x="1191" 
d="M827 979q-55 87 -176 151l-221 -81q-21 -9 -27 10l-47 125q-10 16 13 26l57 21q-58 15 -107 22q-22 3 -16 29l31 148q3 14 28 14q179 -20 338 -96l258 94q4 2 13 2q8 0 14 -12l57 -142q9 -20 -12 -26l-127 -50q108 -108 159.5 -245t51.5 -348q0 -307 -135.5 -474
t-382.5 -167q-234 0 -377 151.5t-143 382.5t140 383t351 152q83 0 140.5 -16t119.5 -54zM338 514q0 -143 67.5 -228t190.5 -85q116 0 186 84t70 229q0 141 -70.5 227t-185.5 86q-123 0 -190.5 -85t-67.5 -228z" />
    <glyph glyph-name="ntilde" unicode="&#xf1;" horiz-adv-x="1167" 
d="M135 20v988q0 20 21 20h204q21 0 21 -20v-74q134 115 309 115q167 0 263 -93.5t96 -253.5v-682q0 -20 -21 -20h-205q-20 0 -20 20v594q0 114 -43.5 163.5t-132.5 49.5q-106 0 -176 -85t-70 -257v-465q0 -20 -21 -20h-204q-21 0 -21 20zM211 1362q129 100 238 100
q53 0 95 -12.5t64 -27.5t54 -27.5t69 -12.5q54 0 131 50q9 6 17 6q10 0 20 -17l88 -121q4 -8 4 -14q0 -9 -12 -18q-131 -101 -238 -101q-54 0 -96 12.5t-64 27.5t-54 27.5t-68 12.5q-55 0 -131 -49q-6 -6 -17 -6q-10 0 -20 16l-88 121q-4 8 -4 14q0 10 12 19z" />
    <glyph glyph-name="ograve" unicode="&#xf2;" horiz-adv-x="1249" 
d="M76 514q0 153 72 275.5t197.5 191t279.5 68.5t279.5 -68.5t197.5 -191t72 -275.5t-72 -275.5t-197.5 -190.5t-279.5 -68t-279.5 68t-197.5 190.5t-72 275.5zM338 514q0 -141 79 -227t208 -86t207.5 86t78.5 227t-78.5 227t-207.5 86t-208 -86t-79 -227zM637 1413
l141 -258q5 -7 2.5 -13.5t-12.5 -6.5h-184q-22 0 -37 18l-211 260q-6 7 -3 14t13 7h260q19 0 31 -21z" />
    <glyph glyph-name="oacute" unicode="&#xf3;" horiz-adv-x="1249" 
d="M76 514q0 153 72 275.5t197.5 191t279.5 68.5t279.5 -68.5t197.5 -191t72 -275.5t-72 -275.5t-197.5 -190.5t-279.5 -68t-279.5 68t-197.5 190.5t-72 275.5zM338 514q0 -141 79 -227t208 -86t207.5 86t78.5 227t-78.5 227t-207.5 86t-208 -86t-79 -227zM434 1155l141 258
q12 21 31 21h260q10 0 13.5 -7t-2.5 -14l-211 -260q-13 -18 -37 -18h-185q-10 0 -12.5 6.5t2.5 13.5z" />
    <glyph glyph-name="ocircumflex" unicode="&#xf4;" horiz-adv-x="1249" 
d="M76 514q0 153 72 275.5t197.5 191t279.5 68.5t279.5 -68.5t197.5 -191t72 -275.5t-72 -275.5t-197.5 -190.5t-279.5 -68t-279.5 68t-197.5 190.5t-72 275.5zM338 514q0 -141 79 -227t208 -86t207.5 86t78.5 227t-78.5 227t-207.5 86t-208 -86t-79 -227zM739 1417
l222 -291q6 -8 2.5 -14t-13.5 -6h-192q-19 0 -37 18l-96 97l-97 -97q-18 -18 -36 -18h-193q-10 0 -13 6t3 14l221 291q17 17 31 17h168q13 0 30 -17z" />
    <glyph glyph-name="otilde" unicode="&#xf5;" horiz-adv-x="1249" 
d="M76 514q0 153 72 275.5t197.5 191t279.5 68.5t279.5 -68.5t197.5 -191t72 -275.5t-72 -275.5t-197.5 -190.5t-279.5 -68t-279.5 68t-197.5 190.5t-72 275.5zM338 514q0 -141 79 -227t208 -86t207.5 86t78.5 227t-78.5 227t-207.5 86t-208 -86t-79 -227zM242 1362
q129 100 237 100q53 0 95 -12.5t64.5 -27.5t54.5 -27.5t69 -12.5q54 0 131 50q9 6 16 6q11 0 21 -17l88 -121q4 -8 4 -14q0 -9 -12 -18q-131 -101 -238 -101q-54 0 -96.5 12.5t-64.5 27.5t-54 27.5t-68 12.5q-55 0 -131 -49q-6 -6 -16 -6t-20 16l-89 121q-4 8 -4 14
q0 9 13 19z" />
    <glyph glyph-name="odieresis" unicode="&#xf6;" horiz-adv-x="1249" 
d="M76 514q0 153 72 275.5t197.5 191t279.5 68.5t279.5 -68.5t197.5 -191t72 -275.5t-72 -275.5t-197.5 -190.5t-279.5 -68t-279.5 68t-197.5 190.5t-72 275.5zM338 514q0 -141 79 -227t208 -86t207.5 86t78.5 227t-78.5 227t-207.5 86t-208 -86t-79 -227zM311 1192v221
q0 21 21 21h221q20 0 20 -21v-221q0 -21 -20 -21h-221q-21 0 -21 21zM676 1192v221q0 21 20 21h222q20 0 20 -21v-221q0 -21 -20 -21h-222q-20 0 -20 21z" />
    <glyph glyph-name="divide" unicode="&#xf7;" horiz-adv-x="1171" 
d="M467 262h221q21 0 21 -20v-222q0 -20 -21 -20h-221q-21 0 -21 20v222q0 20 21 20zM467 1028h221q21 0 21 -20v-222q0 -20 -21 -20h-221q-21 0 -21 20v222q0 20 21 20zM125 629h922q20 0 20 -21v-188q0 -21 -20 -21h-922q-21 0 -21 21v188q0 21 21 21z" />
    <glyph glyph-name="oslash" unicode="&#xf8;" horiz-adv-x="1249" 
d="M76 514q0 153 72 275.5t197.5 191t279.5 68.5q106 0 206 -35l64 108q10 13 16 13q1 0 3 -1t5 -2t5 -2l88 -53q12 -9 12 -16l-4 -12l-59 -103q101 -74 157 -184.5t56 -247.5q0 -153 -72 -275.5t-197.5 -190.5t-279.5 -68q-109 0 -207 34l-64 -108q-9 -12 -16 -12l-12 4
l-88 53q-13 10 -13 16q0 1 4 13l60 102q-101 74 -157 184.5t-56 247.5zM911 514q0 139 -73 221l-306 -522q44 -12 93 -12q129 0 207.5 86t78.5 227zM338 514q0 -138 74 -221l305 522q-44 12 -92 12q-129 0 -208 -86t-79 -227z" />
    <glyph glyph-name="ugrave" unicode="&#xf9;" horiz-adv-x="1167" 
d="M1032 1008v-988q0 -20 -20 -20h-205q-21 0 -21 20v74q-133 -114 -309 -114q-167 0 -262.5 93t-95.5 253v682q0 20 20 20h205q21 0 21 -20v-594q0 -114 43.5 -163.5t132.5 -49.5q106 0 175.5 85t69.5 257v465q0 20 21 20h205q20 0 20 -20zM586 1413l141 -258
q5 -7 2.5 -13.5t-12.5 -6.5h-185q-21 0 -36 18l-211 260q-6 7 -3 14t13 7h260q19 0 31 -21z" />
    <glyph glyph-name="uacute" unicode="&#xfa;" horiz-adv-x="1167" 
d="M1032 1008v-988q0 -20 -20 -20h-205q-21 0 -21 20v74q-133 -114 -309 -114q-167 0 -262.5 93t-95.5 253v682q0 20 20 20h205q21 0 21 -20v-594q0 -114 43.5 -163.5t132.5 -49.5q106 0 175.5 85t69.5 257v465q0 20 21 20h205q20 0 20 -20zM389 1155l141 258q12 21 31 21
h260q10 0 13 -7t-3 -14l-210 -260q-13 -18 -37 -18h-185q-10 0 -12.5 6.5t2.5 13.5z" />
    <glyph glyph-name="ucircumflex" unicode="&#xfb;" horiz-adv-x="1167" 
d="M1032 1008v-988q0 -20 -20 -20h-205q-21 0 -21 20v74q-133 -114 -309 -114q-167 0 -262.5 93t-95.5 253v682q0 20 20 20h205q21 0 21 -20v-594q0 -114 43.5 -163.5t132.5 -49.5q106 0 175.5 85t69.5 257v465q0 20 21 20h205q20 0 20 -20zM692 1417l221 -291q6 -8 3 -14
t-13 -6h-192q-19 0 -37 18l-96 97l-97 -97q-18 -18 -37 -18h-192q-10 0 -13 6t3 14l221 291q17 17 31 17h168q13 0 30 -17z" />
    <glyph glyph-name="udieresis" unicode="&#xfc;" horiz-adv-x="1167" 
d="M1032 1008v-988q0 -20 -20 -20h-205q-21 0 -21 20v74q-133 -114 -309 -114q-167 0 -262.5 93t-95.5 253v682q0 20 20 20h205q21 0 21 -20v-594q0 -114 43.5 -163.5t132.5 -49.5q106 0 175.5 85t69.5 257v465q0 20 21 20h205q20 0 20 -20zM260 1192v221q0 21 21 21h221
q20 0 20 -21v-221q0 -21 -20 -21h-221q-21 0 -21 21zM625 1192v221q0 21 20 21h221q21 0 21 -21v-221q0 -21 -21 -21h-221q-20 0 -20 21z" />
    <glyph glyph-name="yacute" unicode="&#xfd;" horiz-adv-x="991" 
d="M12 1028h238q20 0 26 -20l246 -646l199 646q5 12 9.5 16t17.5 4h225q16 0 16 -14q0 -11 -2 -15l-379 -1099q-33 -95 -74.5 -161t-88.5 -101t-94 -49.5t-103 -14.5q-132 0 -199 33q-20 11 -20 33v180q0 20 16 20q11 0 66.5 -22.5t97.5 -22.5q77 0 123 52.5t82 175.5
l-414 972q-4 16 -4 17q0 16 16 16zM350 1155l142 258q12 21 30 21h260q10 0 13.5 -7t-2.5 -14l-211 -260q-13 -18 -37 -18h-185q-10 0 -12.5 6.5t2.5 13.5z" />
    <glyph glyph-name="thorn" unicode="&#xfe;" horiz-adv-x="1220" 
d="M135 -385v1798q0 21 21 21h204q21 0 21 -21v-467q130 103 295 103q211 0 339 -144.5t128 -390.5t-128 -390t-339 -144q-163 0 -295 104v-469q0 -21 -21 -21h-204q-21 0 -21 21zM369 514q0 -135 70 -224t188 -89t188 89t70 224t-70 224t-188 89t-188 -89t-70 -224z" />
    <glyph glyph-name="ydieresis" unicode="&#xff;" horiz-adv-x="991" 
d="M12 1028h238q20 0 26 -20l246 -646l199 646q5 12 9.5 16t17.5 4h225q16 0 16 -14q0 -11 -2 -15l-379 -1099q-33 -95 -74.5 -161t-88.5 -101t-94 -49.5t-103 -14.5q-132 0 -199 33q-20 11 -20 33v180q0 20 16 20q11 0 66.5 -22.5t97.5 -22.5q77 0 123 52.5t82 175.5
l-414 972q-4 16 -4 17q0 16 16 16zM182 1192v221q0 21 21 21h221q20 0 20 -21v-221q0 -21 -20 -21h-221q-21 0 -21 21zM547 1192v221q0 21 20 21h221q21 0 21 -21v-221q0 -21 -21 -21h-221q-20 0 -20 21z" />
    <glyph glyph-name="Amacron" unicode="&#x100;" horiz-adv-x="1282" 
d="M1018 20l-123 359h-508l-123 -359q-4 -9 -5.5 -12t-6 -5.5t-12.5 -2.5h-224q-22 0 -22 20q0 9 2 13l504 1380q1 2 2.5 6t2 5.5t2 4t3.5 3.5t4.5 1.5t5.5 0.5h242q3 0 5.5 -0.5t4.5 -1.5t3.5 -3.5t2 -4t2 -5.5t2.5 -6l504 -1380q2 -4 2 -13q0 -20 -22 -20h-224
q-11 0 -15 4t-9 16zM641 1116l-172 -500h344zM399 1606v184q0 20 21 20h442q21 0 21 -20v-184q0 -21 -21 -21h-442q-21 0 -21 21z" />
    <glyph glyph-name="amacron" unicode="&#x101;" horiz-adv-x="1103" 
d="M338 713h-207q-14 0 -14 12t2 20q31 134 145.5 219t290.5 85q198 0 317 -107t119 -289v-444q0 -68 8 -110t31 -79q11 -20 -14 -20h-250q-21 0 -21 20v60q-55 -46 -121.5 -73t-170.5 -27q-161 0 -267 93.5t-106 248.5q0 108 57 187.5t149.5 118t207.5 38.5q119 0 251 -41
v28q0 80 -49 127t-141 47q-135 0 -188 -96q-11 -18 -29 -18zM745 416q-144 41 -241 41q-81 0 -134 -34t-53 -95q0 -60 47.5 -93.5t133.5 -33.5q97 0 172 60.5t75 154.5zM309 1200v184q0 21 21 21h442q21 0 21 -21v-184q0 -20 -21 -20h-442q-21 0 -21 20z" />
    <glyph glyph-name="Abreve" unicode="&#x102;" horiz-adv-x="1282" 
d="M1018 20l-123 359h-508l-123 -359q-4 -9 -5.5 -12t-6 -5.5t-12.5 -2.5h-224q-22 0 -22 20q0 9 2 13l504 1380q1 2 2.5 6t2 5.5t2 4t3.5 3.5t4.5 1.5t5.5 0.5h242q3 0 5.5 -0.5t4.5 -1.5t3.5 -3.5t2 -4t2 -5.5t2.5 -6l504 -1380q2 -4 2 -13q0 -20 -22 -20h-224
q-11 0 -15 4t-9 16zM641 1116l-172 -500h344zM383 1831h160q20 0 20 -21q0 -104 78 -104t78 104q0 21 20 21h160q21 0 21 -21q0 -131 -77 -205.5t-202 -74.5t-202 74.5t-77 205.5q0 21 21 21z" />
    <glyph glyph-name="abreve" unicode="&#x103;" horiz-adv-x="1103" 
d="M338 713h-207q-14 0 -14 12t2 20q31 134 145.5 219t290.5 85q198 0 317 -107t119 -289v-444q0 -68 8 -110t31 -79q11 -20 -14 -20h-250q-21 0 -21 20v60q-55 -46 -121.5 -73t-170.5 -27q-161 0 -267 93.5t-106 248.5q0 108 57 187.5t149.5 118t207.5 38.5q119 0 251 -41
v28q0 80 -49 127t-141 47q-135 0 -188 -96q-11 -18 -29 -18zM745 416q-144 41 -241 41q-81 0 -134 -34t-53 -95q0 -60 47.5 -93.5t133.5 -33.5q97 0 172 60.5t75 154.5zM297 1425h160q20 0 20 -20q0 -105 78 -105t78 105q0 20 20 20h160q21 0 21 -20q0 -131 -77 -206
t-202 -75t-202 75t-77 206q0 20 21 20z" />
    <glyph glyph-name="Aogonek" unicode="&#x104;" horiz-adv-x="1282" 
d="M1032 -20l-137 399h-508l-123 -359q-4 -9 -5.5 -12t-6 -5.5t-12.5 -2.5h-224q-22 0 -22 20q0 9 2 13l504 1380q1 2 2.5 6t2 5.5t2 4t3.5 3.5t4.5 1.5t5.5 0.5h242q3 0 5.5 -0.5t4.5 -1.5t3.5 -3.5t2 -4t2 -5.5t2.5 -6l504 -1380q2 -4 2 -13q0 -12 -14 -20
q-80 -47 -80 -113q0 -73 84 -73h41q20 0 20 -21v-131q0 -20 -20 -20h-111q-111 0 -178 48.5t-67 137.5q0 90 69 152zM641 1116l-172 -500h344z" />
    <glyph glyph-name="aogonek" unicode="&#x105;" horiz-adv-x="1103" 
d="M338 713h-207q-14 0 -14 12t2 20q31 134 145.5 219t290.5 85q198 0 317 -107t119 -289v-444q0 -68 8 -110t31 -79q8 -11 -4 -20q-115 -54 -115 -113q0 -73 84 -73h74q21 0 21 -21v-131q0 -20 -21 -20h-143q-112 0 -179 48.5t-67 137.5q0 84 65 152v100
q-55 -46 -121.5 -73t-170.5 -27q-161 0 -267 93.5t-106 248.5q0 108 57 187.5t149.5 118t207.5 38.5q126 0 251 -39v26q0 80 -49 127t-141 47q-135 0 -188 -96q-11 -18 -29 -18zM745 416q-144 41 -241 41q-81 0 -134 -34t-53 -95q0 -60 47.5 -93.5t133.5 -33.5
q97 0 172 60.5t75 154.5z" />
    <glyph glyph-name="Cacute" unicode="&#x106;" horiz-adv-x="1447" 
d="M1157 514h207q22 0 22 -20q-29 -234 -207.5 -374t-433.5 -140q-100 0 -194 26.5t-180.5 85t-151 142.5t-103 208.5t-38.5 274.5t38.5 274.5t103 208.5t151 142.5t180.5 85t194 26.5q255 0 433.5 -140t207.5 -374q0 -20 -22 -20h-207q-18 0 -24 20q-81 277 -388 277
q-76 0 -146 -31.5t-128 -91t-92.5 -157.5t-34.5 -220t34.5 -220t92.5 -157.5t128 -91t146 -31.5q310 0 388 277q6 20 24 20zM594 1561l141 258q11 20 31 20h260q10 0 13 -6.5t-3 -13.5l-211 -260q-14 -19 -37 -19h-184q-10 0 -12.5 7t2.5 14z" />
    <glyph glyph-name="cacute" unicode="&#x107;" horiz-adv-x="1161" 
d="M606 827q-126 0 -200 -82t-74 -231t74 -231t200 -82q88 0 151.5 41t92.5 118q7 19 29 19h200q15 0 15 -12q0 -13 -2 -21q-26 -155 -156 -260.5t-326 -105.5q-232 0 -384 148t-152 386t152 386.5t384 148.5q196 0 326 -106t156 -261q2 -8 2 -20q0 -13 -15 -13h-200
q-22 0 -29 19q-29 77 -92.5 118t-151.5 41zM432 1155l141 258q12 21 31 21h260q10 0 13 -7t-3 -14l-210 -260q-13 -18 -37 -18h-185q-10 0 -12.5 6.5t2.5 13.5z" />
    <glyph glyph-name="Ccircumflex" unicode="&#x108;" horiz-adv-x="1447" 
d="M1157 514h207q22 0 22 -20q-29 -234 -207.5 -374t-433.5 -140q-100 0 -194 26.5t-180.5 85t-151 142.5t-103 208.5t-38.5 274.5t38.5 274.5t103 208.5t151 142.5t180.5 85t194 26.5q255 0 433.5 -140t207.5 -374q0 -20 -22 -20h-207q-18 0 -24 20q-81 277 -388 277
q-76 0 -146 -31.5t-128 -91t-92.5 -157.5t-34.5 -220t34.5 -220t92.5 -157.5t128 -91t146 -31.5q310 0 388 277q6 20 24 20zM860 1823l221 -291q6 -8 3 -14.5t-13 -6.5h-192q-18 0 -37 19l-97 96l-96 -96q-19 -19 -37 -19h-192q-10 0 -13 6.5t3 14.5l221 291q16 16 31 16
h167q15 0 31 -16z" />
    <glyph glyph-name="ccircumflex" unicode="&#x109;" horiz-adv-x="1161" 
d="M606 827q-126 0 -200 -82t-74 -231t74 -231t200 -82q88 0 151.5 41t92.5 118q7 19 29 19h200q15 0 15 -12q0 -13 -2 -21q-26 -155 -156 -260.5t-326 -105.5q-232 0 -384 148t-152 386t152 386.5t384 148.5q196 0 326 -106t156 -261q2 -8 2 -20q0 -13 -15 -13h-200
q-22 0 -29 19q-29 77 -92.5 118t-151.5 41zM729 1417l221 -291q6 -8 3 -14t-13 -6h-192q-19 0 -37 18l-97 97l-96 -97q-18 -18 -37 -18h-192q-10 0 -13 6t3 14l221 291q17 17 30 17h168q14 0 31 -17z" />
    <glyph glyph-name="Cdotaccent" unicode="&#x10a;" horiz-adv-x="1447" 
d="M1157 514h207q22 0 22 -20q-29 -234 -207.5 -374t-433.5 -140q-100 0 -194 26.5t-180.5 85t-151 142.5t-103 208.5t-38.5 274.5t38.5 274.5t103 208.5t151 142.5t180.5 85t194 26.5q255 0 433.5 -140t207.5 -374q0 -20 -22 -20h-207q-18 0 -24 20q-81 277 -388 277
q-76 0 -146 -31.5t-128 -91t-92.5 -157.5t-34.5 -220t34.5 -220t92.5 -157.5t128 -91t146 -31.5q310 0 388 277q6 20 24 20zM608 1585v234q0 20 21 20h233q21 0 21 -20v-234q0 -20 -21 -20h-233q-21 0 -21 20z" />
    <glyph glyph-name="cdotaccent" unicode="&#x10b;" horiz-adv-x="1161" 
d="M606 827q-126 0 -200 -82t-74 -231t74 -231t200 -82q88 0 151.5 41t92.5 118q7 19 29 19h200q15 0 15 -12q0 -13 -2 -21q-26 -155 -156 -260.5t-326 -105.5q-232 0 -384 148t-152 386t152 386.5t384 148.5q196 0 326 -106t156 -261q2 -8 2 -20q0 -13 -15 -13h-200
q-22 0 -29 19q-29 77 -92.5 118t-151.5 41zM473 1180v233q0 21 21 21h233q21 0 21 -21v-233q0 -21 -21 -21h-233q-21 0 -21 21z" />
    <glyph glyph-name="Ccaron" unicode="&#x10c;" horiz-adv-x="1447" 
d="M1157 514h207q22 0 22 -20q-29 -234 -207.5 -374t-433.5 -140q-100 0 -194 26.5t-180.5 85t-151 142.5t-103 208.5t-38.5 274.5t38.5 274.5t103 208.5t151 142.5t180.5 85t194 26.5q255 0 433.5 -140t207.5 -374q0 -20 -22 -20h-207q-18 0 -24 20q-81 277 -388 277
q-76 0 -146 -31.5t-128 -91t-92.5 -157.5t-34.5 -220t34.5 -220t92.5 -157.5t128 -91t146 -31.5q310 0 388 277q6 20 24 20zM1081 1819l-221 -291q-17 -17 -31 -17h-167q-14 0 -31 17l-221 291q-6 7 -3 13.5t13 6.5h192q19 0 37 -18l96 -97l97 97q18 18 37 18h192
q10 0 13 -6.5t-3 -13.5z" />
    <glyph glyph-name="ccaron" unicode="&#x10d;" horiz-adv-x="1161" 
d="M606 827q-126 0 -200 -82t-74 -231t74 -231t200 -82q88 0 151.5 41t92.5 118q7 19 29 19h200q15 0 15 -12q0 -13 -2 -21q-26 -155 -156 -260.5t-326 -105.5q-232 0 -384 148t-152 386t152 386.5t384 148.5q196 0 326 -106t156 -261q2 -8 2 -20q0 -13 -15 -13h-200
q-22 0 -29 19q-29 77 -92.5 118t-151.5 41zM946 1413l-221 -291q-16 -16 -31 -16h-168q-14 0 -30 16l-222 291q-6 7 -2.5 14t13.5 7h192q18 0 37 -19l96 -96l97 96q19 19 36 19h193q10 0 13 -7t-3 -14z" />
    <glyph glyph-name="Dcaron" unicode="&#x10e;" horiz-adv-x="1349" 
d="M143 20v1393q0 21 21 21h434q139 0 259.5 -45t214 -131.5t147 -225.5t53.5 -315t-53.5 -315t-147 -225.5t-214 -131.5t-259.5 -45h-434q-21 0 -21 20zM586 1196h-185v-958h185q191 0 305.5 121t114.5 358t-114.5 358t-305.5 121zM887 1819l-221 -291q-17 -17 -31 -17
h-168q-14 0 -31 17l-221 291q-6 7 -3 13.5t13 6.5h193q19 0 37 -18l96 -97l96 97q18 18 37 18h193q10 0 13 -6.5t-3 -13.5z" />
    <glyph glyph-name="dcaron" unicode="&#x10f;" horiz-adv-x="1490" 
d="M1085 1413v-1393q0 -20 -20 -20h-205q-20 0 -20 20v64q-132 -104 -295 -104q-211 0 -339 144t-128 390t128 390.5t339 144.5q165 0 295 -103v467q0 21 20 21h205q20 0 20 -21zM852 514q0 135 -70 224t-188 89t-188 -89t-70 -224t70 -224t188 -89t188 89t70 224z
M1202 1065q65 0 90 25.5t25 76.5v13h-100q-21 0 -21 20v213q0 21 21 21h233q20 0 20 -21v-262q0 -83 -51.5 -146t-146.5 -63h-70q-20 0 -20 21v81q0 21 20 21z" />
    <glyph glyph-name="Dcroat" unicode="&#x110;" horiz-adv-x="1386" 
d="M184 20v578h-141q-20 0 -20 20v197q0 21 20 21h141v577q0 21 21 21h434q139 0 259.5 -45t214 -131.5t147 -225.5t53.5 -315t-53.5 -315t-147 -225.5t-214 -131.5t-259.5 -45h-434q-21 0 -21 20zM627 1196h-185v-360h265q20 0 20 -21v-197q0 -20 -20 -20h-265v-360h185
q191 0 305.5 121t114.5 358t-114.5 358t-305.5 121z" />
    <glyph glyph-name="dcroat" unicode="&#x111;" horiz-adv-x="1220" 
d="M1085 1096v-1076q0 -20 -20 -20h-205q-20 0 -20 20v64q-132 -104 -295 -104q-211 0 -339 144t-128 390t128 390.5t339 144.5q165 0 295 -103v150h-234q-20 0 -20 20v168q0 21 20 21h234v108q0 21 20 21h205q20 0 20 -21v-108h105q20 0 20 -21v-168q0 -20 -20 -20h-105z
M852 514q0 135 -70 224t-188 89t-188 -89t-70 -224t70 -224t188 -89t188 89t70 224z" />
    <glyph glyph-name="Emacron" unicode="&#x112;" horiz-adv-x="1196" 
d="M401 635v-397h676q21 0 21 -21v-197q0 -20 -21 -20h-913q-21 0 -21 20v1393q0 21 21 21h883q20 0 20 -21v-196q0 -21 -20 -21h-646v-324h584q21 0 21 -20v-197q0 -20 -21 -20h-584zM358 1606v184q0 20 21 20h442q21 0 21 -20v-184q0 -21 -21 -21h-442q-21 0 -21 21z" />
    <glyph glyph-name="emacron" unicode="&#x113;" horiz-adv-x="1214" 
d="M610 201q90 0 150.5 30.5t101.5 96.5q11 18 29 18h209q14 0 14 -14q0 -12 -4 -21q-128 -331 -502 -331q-147 0 -266.5 66.5t-189.5 189.5t-70 278t71.5 278t192 190t264.5 67q123 0 224.5 -45t167.5 -121.5t102.5 -177t36.5 -213.5v-35q0 -21 -21 -21h-780
q18 -108 88 -171.5t182 -63.5zM610 827q-89 0 -160.5 -49.5t-101.5 -136.5h531q-64 186 -269 186zM369 1200v184q0 21 20 21h442q21 0 21 -21v-184q0 -20 -21 -20h-442q-20 0 -20 20z" />
    <glyph glyph-name="Ebreve" unicode="&#x114;" horiz-adv-x="1196" 
d="M401 635v-397h676q21 0 21 -21v-197q0 -20 -21 -20h-913q-21 0 -21 20v1393q0 21 21 21h883q20 0 20 -21v-196q0 -21 -20 -21h-646v-324h584q21 0 21 -20v-197q0 -20 -21 -20h-584zM336 1831h160q20 0 20 -21q0 -104 78 -104t78 104q0 21 20 21h160q20 0 20 -21
q0 -131 -76.5 -205.5t-201.5 -74.5t-202 74.5t-77 205.5q0 21 21 21z" />
    <glyph glyph-name="ebreve" unicode="&#x115;" horiz-adv-x="1214" 
d="M610 201q90 0 150.5 30.5t101.5 96.5q11 18 29 18h209q14 0 14 -14q0 -12 -4 -21q-128 -331 -502 -331q-147 0 -266.5 66.5t-189.5 189.5t-70 278t71.5 278t192 190t264.5 67q123 0 224.5 -45t167.5 -121.5t102.5 -177t36.5 -213.5v-35q0 -21 -21 -21h-780
q18 -108 88 -171.5t182 -63.5zM610 827q-89 0 -160.5 -49.5t-101.5 -136.5h531q-64 186 -269 186zM350 1425h160q20 0 20 -20q0 -105 78 -105t78 105q0 20 21 20h159q21 0 21 -20q0 -131 -77 -206t-202 -75t-201.5 75t-76.5 206q0 20 20 20z" />
    <glyph glyph-name="Edotaccent" unicode="&#x116;" horiz-adv-x="1196" 
d="M401 635v-397h676q21 0 21 -21v-197q0 -20 -21 -20h-913q-21 0 -21 20v1393q0 21 21 21h883q20 0 20 -21v-196q0 -21 -20 -21h-646v-324h584q21 0 21 -20v-197q0 -20 -21 -20h-584zM475 1585v234q0 20 21 20h233q21 0 21 -20v-234q0 -20 -21 -20h-233q-21 0 -21 20z" />
    <glyph glyph-name="edotaccent" unicode="&#x117;" horiz-adv-x="1214" 
d="M610 201q90 0 150.5 30.5t101.5 96.5q11 18 29 18h209q14 0 14 -14q0 -12 -4 -21q-128 -331 -502 -331q-147 0 -266.5 66.5t-189.5 189.5t-70 278t71.5 278t192 190t264.5 67q123 0 224.5 -45t167.5 -121.5t102.5 -177t36.5 -213.5v-35q0 -21 -21 -21h-780
q18 -108 88 -171.5t182 -63.5zM610 827q-89 0 -160.5 -49.5t-101.5 -136.5h531q-64 186 -269 186zM477 1180v233q0 21 21 21h233q21 0 21 -21v-233q0 -21 -21 -21h-233q-21 0 -21 21z" />
    <glyph glyph-name="Eogonek" unicode="&#x118;" horiz-adv-x="1196" 
d="M401 635v-397h676q21 0 21 -21v-197q0 -14 -15 -20q-79 -31 -79 -113q0 -73 83 -73h41q21 0 21 -21v-131q0 -20 -21 -20h-110q-112 0 -179 48.5t-67 137.5q0 107 94 172h-702q-21 0 -21 20v1393q0 21 21 21h883q20 0 20 -21v-196q0 -21 -20 -21h-646v-324h584
q21 0 21 -20v-197q0 -20 -21 -20h-584z" />
    <glyph glyph-name="eogonek" unicode="&#x119;" horiz-adv-x="1214" 
d="M610 201q90 0 150.5 30.5t101.5 96.5q11 18 29 18h209q14 0 14 -14q0 -12 -4 -21q-48 -124 -126.5 -196t-199.5 -115q-79 -29 -79 -113q0 -73 83 -73h41q21 0 21 -21v-131q0 -20 -21 -20h-110q-112 0 -179 48.5t-67 137.5q0 95 72 156q-204 21 -333.5 166t-129.5 364
q0 155 71.5 278t192 190t264.5 67q123 0 224.5 -45t167.5 -121.5t102.5 -177t36.5 -213.5v-35q0 -21 -21 -21h-788q18 -102 92.5 -168.5t185.5 -66.5zM610 827q-89 0 -160.5 -49.5t-101.5 -136.5h531q-64 186 -269 186z" />
    <glyph glyph-name="Ecaron" unicode="&#x11a;" horiz-adv-x="1196" 
d="M401 635v-397h676q21 0 21 -21v-197q0 -20 -21 -20h-913q-21 0 -21 20v1393q0 21 21 21h883q20 0 20 -21v-196q0 -21 -20 -21h-646v-324h584q21 0 21 -20v-197q0 -20 -21 -20h-584zM934 1819l-221 -291q-17 -17 -31 -17h-168q-14 0 -31 17l-221 291q-6 7 -3 13.5t13 6.5
h193q19 0 37 -18l96 -97l96 97q18 18 37 18h193q10 0 13 -6.5t-3 -13.5z" />
    <glyph glyph-name="ecaron" unicode="&#x11b;" horiz-adv-x="1214" 
d="M610 201q90 0 150.5 30.5t101.5 96.5q11 18 29 18h209q14 0 14 -14q0 -12 -4 -21q-128 -331 -502 -331q-147 0 -266.5 66.5t-189.5 189.5t-70 278t71.5 278t192 190t264.5 67q123 0 224.5 -45t167.5 -121.5t102.5 -177t36.5 -213.5v-35q0 -21 -21 -21h-780
q18 -108 88 -171.5t182 -63.5zM610 827q-89 0 -160.5 -49.5t-101.5 -136.5h531q-64 186 -269 186zM944 1413l-221 -291q-16 -16 -31 -16h-168q-14 0 -30 16l-222 291q-6 7 -2.5 14t13.5 7h192q18 0 37 -19l96 -96l97 96q19 19 36 19h193q10 0 13 -7t-3 -14z" />
    <glyph glyph-name="Gcircumflex" unicode="&#x11c;" horiz-adv-x="1460" 
d="M758 752h616q21 0 21 -21v-354q0 -48 -21 -78q-92 -146 -249 -232.5t-337 -86.5q-146 0 -273 47t-225.5 136.5t-155 232t-56.5 321.5q0 141 38 261.5t103 207t152 148t186 91t203 29.5q239 0 410.5 -124.5t203.5 -334.5q0 -20 -22 -20h-215q-19 0 -25 20
q-75 222 -352 222q-79 0 -152.5 -32t-133 -92.5t-95 -158t-35.5 -217.5q0 -232 119 -366t305 -134q255 0 369 176v121h-379q-21 0 -21 21v196q0 21 21 21zM874 1823l222 -291q6 -8 2.5 -14.5t-13.5 -6.5h-192q-18 0 -37 19l-96 96l-96 -96q-19 -19 -37 -19h-193
q-10 0 -13 6.5t3 14.5l221 291q16 16 31 16h168q14 0 30 -16z" />
    <glyph glyph-name="gcircumflex" unicode="&#x11d;" horiz-adv-x="1191" 
d="M575 -426q-181 0 -305 94.5t-141 257.5q0 21 21 21h204q18 0 21 -21q31 -131 213 -131q123 0 183 71.5t60 199.5v36q-63 -54 -125 -76t-153 -22q-215 0 -347 145t-132 377t131 377.5t340 145.5q168 0 286 -103v62q0 20 21 20h205q20 0 20 -20v-906q0 -265 -128.5 -396.5
t-373.5 -131.5zM848 526q0 132 -69 216.5t-185 84.5q-118 0 -188 -84.5t-70 -216.5t70 -216.5t188 -84.5q116 0 185 84.5t69 216.5zM692 1417l221 -291q6 -8 3 -14t-13 -6h-192q-19 0 -37 18l-96 97l-97 -97q-18 -18 -37 -18h-192q-10 0 -13 6t3 14l221 291q17 17 31 17h168
q13 0 30 -17z" />
    <glyph glyph-name="Gbreve" unicode="&#x11e;" horiz-adv-x="1460" 
d="M758 752h616q21 0 21 -21v-354q0 -48 -21 -78q-92 -146 -249 -232.5t-337 -86.5q-146 0 -273 47t-225.5 136.5t-155 232t-56.5 321.5q0 141 38 261.5t103 207t152 148t186 91t203 29.5q239 0 410.5 -124.5t203.5 -334.5q0 -20 -22 -20h-215q-19 0 -25 20
q-75 222 -352 222q-79 0 -152.5 -32t-133 -92.5t-95 -158t-35.5 -217.5q0 -232 119 -366t305 -134q255 0 369 176v121h-379q-21 0 -21 21v196q0 21 21 21zM502 1831h160q20 0 20 -21q0 -104 78 -104t78 104q0 21 20 21h160q20 0 20 -21q0 -131 -76.5 -205.5t-201.5 -74.5
t-202 74.5t-77 205.5q0 21 21 21z" />
    <glyph glyph-name="gbreve" unicode="&#x11f;" horiz-adv-x="1191" 
d="M575 -426q-181 0 -305 94.5t-141 257.5q0 21 21 21h204q18 0 21 -21q31 -131 213 -131q123 0 183 71.5t60 199.5v36q-63 -54 -125 -76t-153 -22q-215 0 -347 145t-132 377t131 377.5t340 145.5q168 0 286 -103v62q0 20 21 20h205q20 0 20 -20v-906q0 -265 -128.5 -396.5
t-373.5 -131.5zM848 526q0 132 -69 216.5t-185 84.5q-118 0 -188 -84.5t-70 -216.5t70 -216.5t188 -84.5q116 0 185 84.5t69 216.5zM324 1425h159q21 0 21 -20q0 -105 78 -105q77 0 77 105q0 20 21 20h160q20 0 20 -20q0 -131 -76.5 -206t-201.5 -75t-202 75t-77 206
q0 20 21 20z" />
    <glyph glyph-name="Gdotaccent" unicode="&#x120;" horiz-adv-x="1460" 
d="M758 752h616q21 0 21 -21v-354q0 -48 -21 -78q-92 -146 -249 -232.5t-337 -86.5q-146 0 -273 47t-225.5 136.5t-155 232t-56.5 321.5q0 141 38 261.5t103 207t152 148t186 91t203 29.5q239 0 410.5 -124.5t203.5 -334.5q0 -20 -22 -20h-215q-19 0 -25 20
q-75 222 -352 222q-79 0 -152.5 -32t-133 -92.5t-95 -158t-35.5 -217.5q0 -232 119 -366t305 -134q255 0 369 176v121h-379q-21 0 -21 21v196q0 21 21 21zM623 1585v234q0 20 20 20h234q20 0 20 -20v-234q0 -20 -20 -20h-234q-20 0 -20 20z" />
    <glyph glyph-name="gdotaccent" unicode="&#x121;" horiz-adv-x="1191" 
d="M575 -426q-181 0 -305 94.5t-141 257.5q0 21 21 21h204q18 0 21 -21q31 -131 213 -131q123 0 183 71.5t60 199.5v36q-63 -54 -125 -76t-153 -22q-215 0 -347 145t-132 377t131 377.5t340 145.5q168 0 286 -103v62q0 20 21 20h205q20 0 20 -20v-906q0 -265 -128.5 -396.5
t-373.5 -131.5zM848 526q0 132 -69 216.5t-185 84.5q-118 0 -188 -84.5t-70 -216.5t70 -216.5t188 -84.5q116 0 185 84.5t69 216.5zM442 1180v233q0 21 21 21h233q21 0 21 -21v-233q0 -21 -21 -21h-233q-21 0 -21 21z" />
    <glyph glyph-name="Gcommaaccent" unicode="&#x122;" horiz-adv-x="1460" 
d="M758 752h616q21 0 21 -21v-354q0 -48 -21 -78q-92 -146 -249 -232.5t-337 -86.5q-146 0 -273 47t-225.5 136.5t-155 232t-56.5 321.5q0 141 38 261.5t103 207t152 148t186 91t203 29.5q239 0 410.5 -124.5t203.5 -334.5q0 -20 -22 -20h-215q-19 0 -25 20
q-75 222 -352 222q-79 0 -152.5 -32t-133 -92.5t-95 -158t-35.5 -217.5q0 -232 119 -366t305 -134q255 0 369 176v121h-379q-21 0 -21 21v196q0 21 21 21zM686 -455q53 0 73.5 20t20.5 66v25h-102q-21 0 -21 20v222q0 20 21 20h221q21 0 21 -20v-281q0 -94 -44 -146.5
t-135 -52.5h-55q-20 0 -20 21v86q0 20 20 20z" />
    <glyph glyph-name="gcommaaccent" unicode="&#x123;" horiz-adv-x="1191" 
d="M575 -426q-181 0 -305 94.5t-141 257.5q0 21 21 21h204q18 0 21 -21q31 -131 213 -131q123 0 183 71.5t60 199.5v36q-63 -54 -125 -76t-153 -22q-215 0 -347 145t-132 377t131 377.5t340 145.5q168 0 286 -103v62q0 20 21 20h205q20 0 20 -20v-906q0 -265 -128.5 -396.5
t-373.5 -131.5zM848 526q0 132 -69 216.5t-185 84.5q-118 0 -188 -84.5t-70 -216.5t70 -216.5t188 -84.5q116 0 185 84.5t69 216.5zM705 1456q-65 0 -90 -25.5t-25 -76.5v-13h100q21 0 21 -20v-213q0 -21 -21 -21h-233q-21 0 -21 21v262q0 83 52 146t147 63h70q20 0 20 -20
v-82q0 -21 -20 -21z" />
    <glyph glyph-name="Hcircumflex" unicode="&#x124;" horiz-adv-x="1388" 
d="M397 629v-609q0 -20 -20 -20h-217q-21 0 -21 20v1393q0 21 21 21h217q20 0 20 -21v-547h594v547q0 21 21 21h217q20 0 20 -21v-1393q0 -20 -20 -20h-217q-21 0 -21 20v609h-594zM809 1823l221 -291q6 -8 3 -14.5t-13 -6.5h-193q-17 0 -36 19l-97 96l-96 -96
q-19 -19 -37 -19h-192q-10 0 -13.5 6.5t2.5 14.5l222 291q16 16 30 16h168q15 0 31 -16z" />
    <glyph glyph-name="hcircumflex" unicode="&#x125;" horiz-adv-x="1183" 
d="M135 20v1393q0 21 21 21h204q21 0 21 -21v-483q129 119 319 119q174 0 271.5 -91.5t97.5 -283.5v-654q0 -20 -20 -20h-205q-21 0 -21 20v598q0 209 -182 209q-109 0 -184.5 -91t-75.5 -255v-461q0 -20 -21 -20h-204q-21 0 -21 20zM588 1823l221 -291q6 -8 3 -14.5
t-13 -6.5h-193q-18 0 -37 19l-96 96l-96 -96q-19 -19 -37 -19h-193q-10 0 -13 6.5t3 14.5l221 291q16 16 31 16h168q15 0 31 -16z" />
    <glyph glyph-name="Hbar" unicode="&#x126;" horiz-adv-x="1388" 
d="M397 629v-609q0 -20 -20 -20h-217q-21 0 -21 20v990h-135q-20 0 -20 20v180q0 21 20 21h135v182q0 21 21 21h217q20 0 20 -21v-182h594v182q0 21 21 21h217q20 0 20 -21v-182h135q21 0 21 -21v-180q0 -20 -21 -20h-135v-990q0 -20 -20 -20h-217q-21 0 -21 20v609h-594z
M397 866h594v144h-594v-144z" />
    <glyph glyph-name="hbar" unicode="&#x127;" horiz-adv-x="1183" 
d="M135 20v1076h-135q-20 0 -20 20v168q0 21 20 21h135v108q0 21 21 21h204q21 0 21 -21v-108h219q21 0 21 -21v-168q0 -20 -21 -20h-219v-166q129 119 319 119q174 0 271.5 -91.5t97.5 -283.5v-654q0 -20 -20 -20h-205q-21 0 -21 20v598q0 209 -182 209q-109 0 -184.5 -91
t-75.5 -255v-461q0 -20 -21 -20h-204q-21 0 -21 20z" />
    <glyph glyph-name="Itilde" unicode="&#x128;" horiz-adv-x="516" 
d="M129 20v1393q0 21 21 21h217q20 0 20 -21v-1393q0 -20 -20 -20h-217q-21 0 -21 20zM-123 1767q131 101 238 101q53 0 95 -12.5t64 -27.5t54 -27.5t69 -12.5q55 0 131 49q9 6 17 6q10 0 20 -16l88 -121q4 -8 4 -14q0 -10 -12 -19q-129 -100 -237 -100q-54 0 -96.5 12.5
t-64.5 27.5t-54 27.5t-68 12.5q-55 0 -131 -49q-7 -7 -17 -7t-20 17l-88 121q-4 8 -4 14q0 9 12 18z" />
    <glyph glyph-name="itilde" unicode="&#x129;" horiz-adv-x="438" 
d="M96 20v988q0 20 21 20h205q20 0 20 -20v-988q0 -20 -20 -20h-205q-21 0 -21 20zM-164 1362q129 100 238 100q53 0 95 -12.5t64 -27.5t54 -27.5t69 -12.5q54 0 131 50q9 6 17 6q10 0 20 -17l88 -121q4 -8 4 -14q0 -9 -12 -18q-131 -101 -237 -101q-54 0 -96.5 12.5
t-64.5 27.5t-54 27.5t-68 12.5q-55 0 -131 -49q-6 -6 -16 -6q-11 0 -21 16l-88 121q-4 8 -4 14q0 10 12 19z" />
    <glyph glyph-name="uni012A" unicode="&#x12a;" horiz-adv-x="516" 
d="M129 20v1393q0 21 21 21h217q20 0 20 -21v-1393q0 -20 -20 -20h-217q-21 0 -21 20zM16 1606v184q0 20 21 20h442q21 0 21 -20v-184q0 -21 -21 -21h-442q-21 0 -21 21z" />
    <glyph glyph-name="imacron" unicode="&#x12b;" horiz-adv-x="438" 
d="M96 20v988q0 20 21 20h205q20 0 20 -20v-988q0 -20 -20 -20h-205q-21 0 -21 20zM-23 1200v184q0 21 21 21h442q21 0 21 -21v-184q0 -20 -21 -20h-442q-21 0 -21 20z" />
    <glyph glyph-name="Ibreve" unicode="&#x12c;" horiz-adv-x="516" 
d="M129 20v1393q0 21 21 21h217q20 0 20 -21v-1393q0 -20 -20 -20h-217q-21 0 -21 20zM0 1831h160q20 0 20 -21q0 -104 78 -104t78 104q0 21 20 21h160q21 0 21 -21q0 -131 -77 -205.5t-202 -74.5t-201.5 74.5t-76.5 205.5q0 21 20 21z" />
    <glyph glyph-name="uni012D" unicode="&#x12d;" horiz-adv-x="438" 
d="M96 20v988q0 20 21 20h205q20 0 20 -20v-988q0 -20 -20 -20h-205q-21 0 -21 20zM-39 1425h160q20 0 20 -20q0 -105 78 -105t78 105q0 20 20 20h160q21 0 21 -20q0 -131 -77 -206t-202 -75t-201.5 75t-76.5 206q0 20 20 20z" />
    <glyph glyph-name="Iogonek" unicode="&#x12e;" horiz-adv-x="516" 
d="M129 -20v1433q0 21 21 21h217q20 0 20 -21v-1393q0 -14 -14 -20q-80 -32 -80 -113q0 -73 84 -73h41q20 0 20 -21v-131q0 -20 -20 -20h-111q-112 0 -179 48.5t-67 137.5q0 91 68 152z" />
    <glyph glyph-name="iogonek" unicode="&#x12f;" horiz-adv-x="438" 
d="M96 -10v1018q0 20 21 20h205q20 0 20 -20v-988q0 -14 -14 -20q-80 -36 -80 -113q0 -73 84 -73h41q20 0 20 -21v-131q0 -20 -20 -20h-111q-112 0 -179 48.5t-67 137.5q0 97 80 162zM82 1180v233q0 21 20 21h234q20 0 20 -21v-233q0 -21 -20 -21h-234q-20 0 -20 21z" />
    <glyph glyph-name="Idotaccent" unicode="&#x130;" horiz-adv-x="516" 
d="M129 20v1393q0 21 21 21h217q20 0 20 -21v-1393q0 -20 -20 -20h-217q-21 0 -21 20zM121 1585v234q0 20 20 20h234q20 0 20 -20v-234q0 -20 -20 -20h-234q-20 0 -20 20z" />
    <glyph glyph-name="dotlessi" unicode="&#x131;" horiz-adv-x="438" 
d="M96 20v988q0 20 21 20h205q20 0 20 -20v-988q0 -20 -20 -20h-205q-21 0 -21 20z" />
    <glyph glyph-name="IJ" unicode="&#x132;" horiz-adv-x="1624" 
d="M129 20v1393q0 21 21 21h217q20 0 20 -21v-1393q0 -20 -20 -20h-217q-21 0 -21 20zM1530 1413v-854q0 -287 -130 -433t-362 -146q-147 0 -258.5 65.5t-168 175t-56.5 244.5q0 20 20 20h218q20 0 20 -20q0 -122 63.5 -185t161.5 -63q123 0 178.5 80t55.5 260v856
q0 21 20 21h217q21 0 21 -21z" />
    <glyph glyph-name="ij" unicode="&#x133;" horiz-adv-x="876" 
d="M96 20v988q0 20 21 20h205q20 0 20 -20v-988q0 -20 -20 -20h-205q-21 0 -21 20zM82 1180v233q0 21 20 21h234q20 0 20 -21v-233q0 -21 -20 -21h-234q-20 0 -20 21zM535 -47v1055q0 20 20 20h205q20 0 20 -20v-1063q0 -80 -12.5 -150.5t-26.5 -109.5t-39 -95
q-9 -20 -24 -14l-189 72q-20 6 -14 24q23 60 33 90.5t18.5 80.5t8.5 110zM520 1180v233q0 21 21 21h233q21 0 21 -21v-233q0 -21 -21 -21h-233q-21 0 -21 21z" />
    <glyph glyph-name="Jcircumflex" unicode="&#x134;" horiz-adv-x="1107" 
d="M1014 1413v-854q0 -287 -130 -433t-362 -146q-147 0 -258.5 65.5t-168 175t-56.5 244.5q0 20 20 20h217q21 0 21 -20q0 -122 63.5 -185t161.5 -63q123 0 178.5 80t55.5 260v856q0 21 20 21h217q21 0 21 -21zM1020 1823l221 -291q6 -8 3 -14.5t-13 -6.5h-193q-18 0 -37 19
l-96 96l-96 -96q-19 -19 -37 -19h-192q-10 0 -13.5 6.5t2.5 14.5l222 291q16 16 30 16h168q15 0 31 -16z" />
    <glyph glyph-name="jcircumflex" unicode="&#x135;" horiz-adv-x="438" 
d="M96 -47v1055q0 20 21 20h205q20 0 20 -20v-1063q0 -80 -12.5 -150.5t-26.5 -109.5t-39 -95q-9 -20 -24 -14l-189 72q-20 6 -14 24q33 85 46 140t13 141zM334 1417l221 -291q6 -8 3 -14t-13 -6h-193q-19 0 -37 18l-96 97l-96 -97q-18 -18 -37 -18h-192q-10 0 -13.5 6
t2.5 14l221 291q17 17 31 17h168q14 0 31 -17z" />
    <glyph glyph-name="Kcommaaccent" unicode="&#x136;" horiz-adv-x="1257" 
d="M401 1413v-508l469 508q21 21 37 21h250q17 0 20 -9t-8 -20l-467 -500l551 -876q7 -12 2 -20.5t-16 -8.5h-246q-20 0 -39 31l-430 684l-123 -131v-564q0 -20 -20 -20h-217q-21 0 -21 20v1393q0 21 21 21h217q20 0 20 -21zM563 -434q53 0 73.5 20t20.5 66v24h-102
q-20 0 -20 21v221q0 21 20 21h221q21 0 21 -21v-280q0 -94 -44 -146.5t-135 -52.5h-55q-20 0 -20 20v86q0 21 20 21z" />
    <glyph glyph-name="kcommaaccent" unicode="&#x137;" horiz-adv-x="1081" 
d="M1012 997l-357 -344l406 -622q4 -8 4 -15q0 -16 -18 -16h-230q-24 0 -33 18l-307 474l-96 -91v-381q0 -20 -21 -20h-204q-21 0 -21 20v1393q0 21 21 21h204q21 0 21 -21v-723l342 320q18 18 33 18h248q16 0 16 -14q0 -9 -8 -17zM481 -434q53 0 73.5 20t20.5 66v24h-102
q-20 0 -20 21v221q0 21 20 21h221q21 0 21 -21v-280q0 -94 -43.5 -146.5t-134.5 -52.5h-56q-20 0 -20 20v86q0 21 20 21z" />
    <glyph glyph-name="kgreenlandic" unicode="&#x138;" horiz-adv-x="1089" 
d="M1012 997l-357 -344l406 -622q4 -8 4 -15q0 -16 -18 -16h-230q-24 0 -33 18l-307 474l-96 -91v-381q0 -20 -21 -20h-204q-21 0 -21 20v988q0 20 21 20h204q21 0 21 -20v-318l342 320q18 18 33 18h248q16 0 16 -14q0 -9 -8 -17z" />
    <glyph glyph-name="Lacute" unicode="&#x139;" horiz-adv-x="1183" 
d="M143 20v1393q0 21 21 21h217q20 0 20 -21v-1175h699q20 0 20 -21v-197q0 -20 -20 -20h-936q-21 0 -21 20zM158 1561l141 258q11 20 31 20h260q10 0 13 -6.5t-3 -13.5l-211 -260q-14 -19 -37 -19h-184q-10 0 -12.5 7t2.5 14z" />
    <glyph glyph-name="lacute" unicode="&#x13a;" horiz-adv-x="487" 
d="M121 20v1393q0 21 20 21h205q21 0 21 -21v-1393q0 -20 -21 -20h-205q-20 0 -20 20zM141 1561l142 258q11 20 30 20h260q10 0 13.5 -6.5t-2.5 -13.5l-211 -260q-14 -19 -37 -19h-184q-10 0 -13 7t2 14z" />
    <glyph glyph-name="Lcommaaccent" unicode="&#x13b;" horiz-adv-x="1183" 
d="M143 20v1393q0 21 21 21h217q20 0 20 -21v-1175h699q20 0 20 -21v-197q0 -20 -20 -20h-936q-21 0 -21 20zM543 -434q53 0 73.5 20t20.5 66v24h-102q-21 0 -21 21v221q0 21 21 21h221q20 0 20 -21v-280q0 -94 -43.5 -146.5t-134.5 -52.5h-55q-21 0 -21 20v86q0 21 21 21z
" />
    <glyph glyph-name="lcommaaccent" unicode="&#x13c;" horiz-adv-x="487" 
d="M121 20v1393q0 21 20 21h205q21 0 21 -21v-1393q0 -20 -21 -20h-205q-20 0 -20 20zM141 -434q53 0 74 20.5t21 65.5v24h-103q-20 0 -20 21v221q0 21 20 21h221q21 0 21 -21v-280q0 -94 -43.5 -146.5t-134.5 -52.5h-56q-20 0 -20 20v86q0 21 20 21z" />
    <glyph glyph-name="Lcaron" unicode="&#x13d;" horiz-adv-x="1183" 
d="M143 20v1393q0 21 21 21h217q20 0 20 -21v-1175h699q20 0 20 -21v-197q0 -20 -20 -20h-936q-21 0 -21 20zM616 1065q65 0 90 25.5t25 76.5v13h-100q-21 0 -21 20v213q0 21 21 21h233q21 0 21 -21v-262q0 -83 -52 -146t-147 -63h-70q-20 0 -20 21v81q0 21 20 21z" />
    <glyph glyph-name="lcaron" unicode="&#x13e;" horiz-adv-x="765" 
d="M121 20v1393q0 21 20 21h205q21 0 21 -21v-1393q0 -20 -21 -20h-205q-20 0 -20 20zM477 1065q65 0 90 25.5t25 76.5v13h-100q-21 0 -21 20v213q0 21 21 21h233q20 0 20 -21v-262q0 -83 -51.5 -146t-146.5 -63h-70q-20 0 -20 21v81q0 21 20 21z" />
    <glyph glyph-name="Ldot" unicode="&#x13f;" horiz-adv-x="1183" 
d="M143 20v1393q0 21 21 21h217q20 0 20 -21v-1175h699q20 0 20 -21v-197q0 -20 -20 -20h-936q-21 0 -21 20zM573 877h222q20 0 20 -21v-221q0 -21 -20 -21h-222q-20 0 -20 21v221q0 21 20 21z" />
    <glyph glyph-name="ldot" unicode="&#x140;" horiz-adv-x="778" 
d="M121 20v1393q0 21 20 21h205q21 0 21 -21v-1393q0 -20 -21 -20h-205q-20 0 -20 20zM492 877h221q20 0 20 -21v-221q0 -21 -20 -21h-221q-21 0 -21 21v221q0 21 21 21z" />
    <glyph glyph-name="Lslash" unicode="&#x141;" horiz-adv-x="1183" 
d="M168 20v429l-90 -48q-19 -9 -29 11l-86 159q-9 21 8 29l197 105v708q0 21 20 21h218q20 0 20 -21v-573l250 133q19 10 29 -10l86 -160q9 -20 -9 -29l-356 -188v-348h682q20 0 20 -21v-197q0 -20 -20 -20h-920q-20 0 -20 20z" />
    <glyph glyph-name="lslash" unicode="&#x142;" horiz-adv-x="595" 
d="M178 20v484l-127 -66q-18 -9 -28 11l-86 159q-9 21 8 29l233 123v653q0 21 21 21h204q21 0 21 -21v-524l127 67q19 10 29 -10l86 -160q8 -19 -9 -28l-233 -123v-615q0 -20 -21 -20h-204q-21 0 -21 20z" />
    <glyph glyph-name="Nacute" unicode="&#x143;" horiz-adv-x="1425" 
d="M1262 0h-220q-22 0 -32 16l-604 971v-967q0 -20 -21 -20h-221q-21 0 -21 20v1393q0 21 21 21h219q23 0 33 -17l604 -971v967q0 21 20 21h222q20 0 20 -21v-1393q0 -20 -20 -20zM563 1561l142 258q11 20 30 20h260q10 0 13.5 -6.5t-2.5 -13.5l-211 -260q-14 -19 -37 -19
h-185q-10 0 -12.5 7t2.5 14z" />
    <glyph glyph-name="nacute" unicode="&#x144;" horiz-adv-x="1167" 
d="M135 20v988q0 20 21 20h204q21 0 21 -20v-74q134 115 309 115q167 0 263 -93.5t96 -253.5v-682q0 -20 -21 -20h-205q-20 0 -20 20v594q0 114 -43.5 163.5t-132.5 49.5q-106 0 -176 -85t-70 -257v-465q0 -20 -21 -20h-204q-21 0 -21 20zM449 1155l141 258q12 21 31 21h260
q10 0 13 -7t-3 -14l-211 -260q-13 -18 -37 -18h-184q-10 0 -12.5 6.5t2.5 13.5z" />
    <glyph glyph-name="Ncommaaccent" unicode="&#x145;" horiz-adv-x="1425" 
d="M1262 0h-220q-22 0 -32 16l-604 971v-967q0 -20 -21 -20h-221q-21 0 -21 20v1393q0 21 21 21h219q23 0 33 -17l604 -971v967q0 21 20 21h222q20 0 20 -21v-1393q0 -20 -20 -20zM618 -414q53 0 74 20.5t21 65.5v25h-103q-20 0 -20 20v222q0 20 20 20h221q21 0 21 -20v-281
q0 -94 -43.5 -146.5t-134.5 -52.5h-56q-20 0 -20 21v86q0 20 20 20z" />
    <glyph glyph-name="ncommaaccent" unicode="&#x146;" horiz-adv-x="1167" 
d="M135 20v988q0 20 21 20h204q21 0 21 -20v-74q134 115 309 115q167 0 263 -93.5t96 -253.5v-682q0 -20 -21 -20h-205q-20 0 -20 20v594q0 114 -43.5 163.5t-132.5 49.5q-106 0 -176 -85t-70 -257v-465q0 -20 -21 -20h-204q-21 0 -21 20zM502 -434q53 0 73.5 20t20.5 66v24
h-102q-21 0 -21 21v221q0 21 21 21h221q20 0 20 -21v-280q0 -94 -43.5 -146.5t-134.5 -52.5h-55q-21 0 -21 20v86q0 21 21 21z" />
    <glyph glyph-name="Ncaron" unicode="&#x147;" horiz-adv-x="1425" 
d="M1262 0h-220q-22 0 -32 16l-604 971v-967q0 -20 -21 -20h-221q-21 0 -21 20v1393q0 21 21 21h219q23 0 33 -17l604 -971v967q0 21 20 21h222q20 0 20 -21v-1393q0 -20 -20 -20zM1049 1819l-222 -291q-17 -17 -30 -17h-168q-14 0 -31 17l-221 291q-6 7 -3 13.5t13 6.5h193
q18 0 36 -18l97 -97l96 97q18 18 37 18h192q10 0 13.5 -6.5t-2.5 -13.5z" />
    <glyph glyph-name="ncaron" unicode="&#x148;" horiz-adv-x="1167" 
d="M135 20v988q0 20 21 20h204q21 0 21 -20v-74q134 115 309 115q167 0 263 -93.5t96 -253.5v-682q0 -20 -21 -20h-205q-20 0 -20 20v594q0 114 -43.5 163.5t-132.5 49.5q-106 0 -176 -85t-70 -257v-465q0 -20 -21 -20h-204q-21 0 -21 20zM975 1413l-221 -291
q-16 -16 -31 -16h-168q-15 0 -31 16l-221 291q-6 7 -3 14t13 7h193q18 0 37 -19l96 -96l96 96q19 19 37 19h193q10 0 13 -7t-3 -14z" />
    <glyph glyph-name="napostrophe" unicode="&#x149;" horiz-adv-x="1335" 
d="M303 20v988q0 20 21 20h204q21 0 21 -20v-74q134 115 309 115q167 0 263 -93.5t96 -253.5v-682q0 -20 -21 -20h-205q-20 0 -20 20v594q0 114 -43.5 163.5t-132.5 49.5q-106 0 -176 -85t-70 -257v-465q0 -20 -21 -20h-204q-21 0 -21 20zM41 1126q65 0 90 26t25 77v12h-101
q-20 0 -20 21v213q0 20 20 20h234q20 0 20 -20v-263q0 -83 -51.5 -145.5t-146.5 -62.5h-70q-21 0 -21 20v82q0 20 21 20z" />
    <glyph glyph-name="Eng" unicode="&#x14a;" horiz-adv-x="1425" 
d="M762 -426q-21 0 -21 20v197q0 21 21 21q142 0 198 42.5t56 145.5l-610 975v-955q0 -20 -21 -20h-221q-21 0 -21 20v1393q0 21 21 21h219q23 0 33 -17l604 -966v962q0 21 20 21h222q20 0 20 -21v-1401q0 -243 -118.5 -340.5t-401.5 -97.5z" />
    <glyph glyph-name="eng" unicode="&#x14b;" horiz-adv-x="1159" 
d="M803 -47v661q0 114 -43.5 163.5t-132.5 49.5q-106 0 -176 -85t-70 -257v-465q0 -20 -21 -20h-204q-21 0 -21 20v988q0 20 21 20h204q21 0 21 -20v-74q134 115 309 115q167 0 263 -93.5t96 -253.5v-757q0 -80 -12.5 -150.5t-26.5 -109.5t-39 -95q-9 -20 -25 -14l-188 72
q-21 6 -15 24q23 60 33 90.5t18.5 80.5t8.5 110z" />
    <glyph glyph-name="Omacron" unicode="&#x14c;" horiz-adv-x="1572" 
d="M786 -20q-107 0 -208.5 28.5t-192.5 88.5t-159 145t-108 207.5t-40 267.5t40 267.5t108 207.5t159 145t192.5 88.5t208.5 28.5t209 -28.5t193 -88.5t159 -145t108 -207.5t40 -267.5t-40 -267.5t-108 -207.5t-159 -145t-193 -88.5t-209 -28.5zM786 217q70 0 134 19.5
t120.5 60t98.5 99t66 141t24 180.5t-24 180.5t-66 141t-98.5 99t-120.5 60t-134 19.5q-88 0 -166 -31.5t-140.5 -91.5t-99 -157.5t-36.5 -219.5t36.5 -219.5t99 -157.5t140.5 -91.5t166 -31.5zM545 1606v184q0 20 20 20h443q20 0 20 -20v-184q0 -21 -20 -21h-443
q-20 0 -20 21z" />
    <glyph glyph-name="omacron" unicode="&#x14d;" horiz-adv-x="1249" 
d="M76 514q0 153 72 275.5t197.5 191t279.5 68.5t279.5 -68.5t197.5 -191t72 -275.5t-72 -275.5t-197.5 -190.5t-279.5 -68t-279.5 68t-197.5 190.5t-72 275.5zM338 514q0 -141 79 -227t208 -86t207.5 86t78.5 227t-78.5 227t-207.5 86t-208 -86t-79 -227zM383 1200v184
q0 21 20 21h443q20 0 20 -21v-184q0 -20 -20 -20h-443q-20 0 -20 20z" />
    <glyph glyph-name="Obreve" unicode="&#x14e;" horiz-adv-x="1572" 
d="M786 -20q-107 0 -208.5 28.5t-192.5 88.5t-159 145t-108 207.5t-40 267.5t40 267.5t108 207.5t159 145t192.5 88.5t208.5 28.5t209 -28.5t193 -88.5t159 -145t108 -207.5t40 -267.5t-40 -267.5t-108 -207.5t-159 -145t-193 -88.5t-209 -28.5zM786 217q70 0 134 19.5
t120.5 60t98.5 99t66 141t24 180.5t-24 180.5t-66 141t-98.5 99t-120.5 60t-134 19.5q-88 0 -166 -31.5t-140.5 -91.5t-99 -157.5t-36.5 -219.5t36.5 -219.5t99 -157.5t140.5 -91.5t166 -31.5zM528 1831h160q21 0 21 -21q0 -104 77 -104q78 0 78 104q0 21 21 21h159
q21 0 21 -21q0 -131 -77 -205.5t-202 -74.5t-201.5 74.5t-76.5 205.5q0 21 20 21z" />
    <glyph glyph-name="obreve" unicode="&#x14f;" horiz-adv-x="1249" 
d="M76 514q0 153 72 275.5t197.5 191t279.5 68.5t279.5 -68.5t197.5 -191t72 -275.5t-72 -275.5t-197.5 -190.5t-279.5 -68t-279.5 68t-197.5 190.5t-72 275.5zM338 514q0 -141 79 -227t208 -86t207.5 86t78.5 227t-78.5 227t-207.5 86t-208 -86t-79 -227zM367 1425h159
q21 0 21 -20q0 -105 78 -105q77 0 77 105q0 20 21 20h160q20 0 20 -20q0 -131 -76.5 -206t-201.5 -75t-202 75t-77 206q0 20 21 20z" />
    <glyph glyph-name="Ohungarumlaut" unicode="&#x150;" horiz-adv-x="1572" 
d="M786 -20q-107 0 -208.5 28.5t-192.5 88.5t-159 145t-108 207.5t-40 267.5t40 267.5t108 207.5t159 145t192.5 88.5t208.5 28.5t209 -28.5t193 -88.5t159 -145t108 -207.5t40 -267.5t-40 -267.5t-108 -207.5t-159 -145t-193 -88.5t-209 -28.5zM786 217q70 0 134 19.5
t120.5 60t98.5 99t66 141t24 180.5t-24 180.5t-66 141t-98.5 99t-120.5 60t-134 19.5q-88 0 -166 -31.5t-140.5 -91.5t-99 -157.5t-36.5 -219.5t36.5 -219.5t99 -157.5t140.5 -91.5t166 -31.5zM463 1561l141 258q11 20 31 20h260q10 0 13 -6.5t-3 -13.5l-211 -260
q-14 -19 -37 -19h-184q-10 0 -12.5 7t2.5 14zM840 1561l141 258q11 20 31 20h260q10 0 13 -6.5t-3 -13.5l-211 -260q-14 -19 -37 -19h-184q-10 0 -12.5 7t2.5 14z" />
    <glyph glyph-name="ohungarumlaut" unicode="&#x151;" horiz-adv-x="1249" 
d="M76 514q0 153 72 275.5t197.5 191t279.5 68.5t279.5 -68.5t197.5 -191t72 -275.5t-72 -275.5t-197.5 -190.5t-279.5 -68t-279.5 68t-197.5 190.5t-72 275.5zM338 514q0 -141 79 -227t208 -86t207.5 86t78.5 227t-78.5 227t-207.5 86t-208 -86t-79 -227zM276 1155l142 258
q12 21 31 21h260q10 0 13 -7t-3 -14l-211 -260q-13 -18 -37 -18h-184q-10 0 -13 6.5t2 13.5zM653 1155l142 258q12 21 30 21h260q10 0 13.5 -7t-2.5 -14l-211 -260q-13 -18 -37 -18h-184q-10 0 -13 6.5t2 13.5z" />
    <glyph glyph-name="OE" unicode="&#x152;" horiz-adv-x="2318" 
d="M786 -20q-107 0 -208.5 28.5t-192.5 88.5t-159 145t-108 207.5t-40 267.5t40 267.5t108 207.5t159 145t192.5 88.5t208.5 28.5q132 0 257 -45t223 -131v135q0 21 20 21h883q20 0 20 -21v-196q0 -21 -20 -21h-645v-324h583q21 0 21 -20v-197q0 -20 -21 -20h-583v-397h676
q20 0 20 -21v-197q0 -20 -20 -20h-914q-20 0 -20 20v136q-97 -88 -221.5 -132t-258.5 -44zM786 217q70 0 134 19.5t120.5 60t98.5 99t66 141t24 180.5t-24 180.5t-66 141t-98.5 99t-120.5 60t-134 19.5q-88 0 -166 -31.5t-140.5 -91.5t-99 -157.5t-36.5 -219.5t36.5 -219.5
t99 -157.5t140.5 -91.5t166 -31.5z" />
    <glyph glyph-name="oe" unicode="&#x153;" horiz-adv-x="2091" 
d="M1487 201q90 0 150.5 30.5t101.5 96.5q7 12 12 15t16 3h209q15 0 15 -14q0 -12 -4 -21q-128 -331 -502 -331q-133 0 -241.5 52.5t-180.5 149.5q-74 -97 -188 -149.5t-250 -52.5q-154 0 -279.5 68t-197.5 190.5t-72 275.5t72 275.5t197.5 191t279.5 68.5q138 0 251 -53.5
t187 -151.5q72 98 182.5 151.5t241.5 53.5q123 0 224 -45t167.5 -121.5t102.5 -177t36 -213.5v-35q0 -21 -20 -21h-780q18 -108 88 -171.5t182 -63.5zM338 514q0 -141 79 -227t208 -86t207.5 86t78.5 227t-78.5 227t-207.5 86t-208 -86t-79 -227zM1487 827
q-89 0 -160.5 -49.5t-101.5 -136.5h530q-64 186 -268 186z" />
    <glyph glyph-name="Racute" unicode="&#x154;" horiz-adv-x="1259" 
d="M143 20v1393q0 21 21 21h559q199 0 318.5 -103t119.5 -289q0 -129 -76.5 -229.5t-187.5 -144.5l305 -648q2 -2 2 -8q0 -12 -18 -12h-236q-17 0 -28 20l-308 631h-213v-631q0 -20 -20 -20h-217q-21 0 -21 20zM401 1196v-307h332q78 0 124 40.5t46 112.5t-46 113t-124 41
h-332zM424 1561l141 258q11 20 31 20h260q10 0 13 -6.5t-3 -13.5l-211 -260q-14 -19 -37 -19h-184q-10 0 -12.5 7t2.5 14z" />
    <glyph glyph-name="racute" unicode="&#x155;" horiz-adv-x="884" 
d="M846 979v-191q0 -22 -17 -22q-2 0 -14 4q-117 57 -211 57q-107 0 -165 -62.5t-58 -213.5v-531q0 -20 -21 -20h-204q-21 0 -21 20v988q0 20 21 20h204q21 0 21 -20v-56q107 97 252 97q103 0 188 -33q17 -6 21 -12.5t4 -24.5zM319 1155l142 258q12 21 31 21h260q10 0 13 -7
t-3 -14l-211 -260q-13 -18 -37 -18h-184q-10 0 -13 6.5t2 13.5z" />
    <glyph glyph-name="Rcommaaccent" unicode="&#x156;" horiz-adv-x="1259" 
d="M143 20v1393q0 21 21 21h559q199 0 318.5 -103t119.5 -289q0 -129 -76.5 -229.5t-187.5 -144.5l305 -648q2 -2 2 -8q0 -12 -18 -12h-236q-17 0 -28 20l-308 631h-213v-631q0 -20 -20 -20h-217q-21 0 -21 20zM401 1196v-307h332q78 0 124 40.5t46 112.5t-46 113t-124 41
h-332zM530 -434q53 0 74 20.5t21 65.5v24h-103q-20 0 -20 21v221q0 21 20 21h221q21 0 21 -21v-280q0 -94 -43.5 -146.5t-134.5 -52.5h-56q-20 0 -20 20v86q0 21 20 21z" />
    <glyph glyph-name="rcommaaccent" unicode="&#x157;" horiz-adv-x="884" 
d="M846 979v-191q0 -22 -17 -22q-2 0 -14 4q-117 57 -211 57q-107 0 -165 -62.5t-58 -213.5v-531q0 -20 -21 -20h-204q-21 0 -21 20v988q0 20 21 20h204q21 0 21 -20v-56q107 97 252 97q103 0 188 -33q17 -6 21 -12.5t4 -24.5zM272 -434q53 0 74 20.5t21 65.5v24h-103
q-20 0 -20 21v221q0 21 20 21h221q21 0 21 -21v-280q0 -94 -43.5 -146.5t-134.5 -52.5h-56q-20 0 -20 20v86q0 21 20 21z" />
    <glyph glyph-name="Rcaron" unicode="&#x158;" horiz-adv-x="1259" 
d="M143 20v1393q0 21 21 21h559q199 0 318.5 -103t119.5 -289q0 -129 -76.5 -229.5t-187.5 -144.5l305 -648q2 -2 2 -8q0 -12 -18 -12h-236q-17 0 -28 20l-308 631h-213v-631q0 -20 -20 -20h-217q-21 0 -21 20zM401 1196v-307h332q78 0 124 40.5t46 112.5t-46 113t-124 41
h-332zM922 1819l-222 -291q-17 -17 -30 -17h-168q-14 0 -31 17l-221 291q-6 7 -3 13.5t13 6.5h193q18 0 36 -18l97 -97l96 97q18 18 37 18h192q10 0 13.5 -6.5t-2.5 -13.5z" />
    <glyph glyph-name="rcaron" unicode="&#x159;" horiz-adv-x="884" 
d="M846 979v-191q0 -22 -17 -22q-2 0 -14 4q-117 57 -211 57q-107 0 -165 -62.5t-58 -213.5v-531q0 -20 -21 -20h-204q-21 0 -21 20v988q0 20 21 20h204q21 0 21 -20v-56q107 97 252 97q103 0 188 -33q17 -6 21 -12.5t4 -24.5zM811 1413l-221 -291q-16 -16 -31 -16h-168
q-15 0 -31 16l-221 291q-6 7 -2.5 14t13.5 7h192q18 0 37 -19l96 -96l96 96q19 19 37 19h193q10 0 13 -7t-3 -14z" />
    <glyph glyph-name="Sacute" unicode="&#x15a;" horiz-adv-x="1208" 
d="M82 1047q0 126 72 220.5t184.5 140.5t245.5 46q115 0 214 -36t166.5 -95.5t106.5 -136.5t41 -160q0 -20 -20 -20h-218q-17 0 -20 20q-17 94 -89.5 142.5t-184.5 48.5q-105 0 -172.5 -41t-67.5 -117q0 -35 18.5 -65t48 -52.5t76 -43.5t91.5 -36t106 -31q101 -27 178.5 -59
t148.5 -79t109.5 -112.5t38.5 -146.5q0 -215 -149.5 -334.5t-403.5 -119.5q-156 0 -284 64.5t-199.5 175t-71.5 243.5q0 20 21 20h215q17 0 20 -20q10 -122 92 -184t219 -62q130 0 206.5 52t76.5 139q0 74 -84 126t-242 91q-121 31 -207 66.5t-152 85t-98 116.5t-32 154z
M418 1561l141 258q11 20 31 20h260q10 0 13 -6.5t-3 -13.5l-211 -260q-14 -19 -37 -19h-184q-10 0 -12.5 7t2.5 14z" />
    <glyph glyph-name="sacute" unicode="&#x15b;" horiz-adv-x="1024" 
d="M948 305q0 -145 -121 -235t-315 -90q-195 0 -317 98t-134 264q0 20 21 20h207q17 0 20 -20q13 -70 70 -105.5t141 -35.5q79 0 130.5 26t51.5 74q0 45 -58.5 76t-199.5 55q-184 32 -271 105.5t-87 191.5q0 67 23.5 121.5t63 91t93 61t110.5 35.5t118 11q185 0 301.5 -89
t128.5 -227q0 -20 -21 -20h-207q-19 0 -28 20q-51 103 -183 103q-67 0 -110 -25t-43 -76q0 -41 53.5 -72.5t196.5 -54.5q181 -32 273.5 -101t92.5 -202zM326 1155l141 258q12 21 31 21h260q10 0 13 -7t-3 -14l-211 -260q-13 -18 -37 -18h-184q-10 0 -12.5 6.5t2.5 13.5z" />
    <glyph glyph-name="Scircumflex" unicode="&#x15c;" horiz-adv-x="1208" 
d="M82 1047q0 126 72 220.5t184.5 140.5t245.5 46q115 0 214 -36t166.5 -95.5t106.5 -136.5t41 -160q0 -20 -20 -20h-218q-17 0 -20 20q-17 94 -89.5 142.5t-184.5 48.5q-105 0 -172.5 -41t-67.5 -117q0 -35 18.5 -65t48 -52.5t76 -43.5t91.5 -36t106 -31q101 -27 178.5 -59
t148.5 -79t109.5 -112.5t38.5 -146.5q0 -215 -149.5 -334.5t-403.5 -119.5q-156 0 -284 64.5t-199.5 175t-71.5 243.5q0 20 21 20h215q17 0 20 -20q10 -122 92 -184t219 -62q130 0 206.5 52t76.5 139q0 74 -84 126t-242 91q-121 31 -207 66.5t-152 85t-98 116.5t-32 154z
M713 1823l221 -291q6 -8 3 -14.5t-13 -6.5h-193q-18 0 -37 19l-96 96l-96 -96q-19 -19 -37 -19h-193q-10 0 -13 6.5t3 14.5l221 291q16 16 31 16h168q15 0 31 -16z" />
    <glyph glyph-name="scircumflex" unicode="&#x15d;" horiz-adv-x="1024" 
d="M948 305q0 -145 -121 -235t-315 -90q-195 0 -317 98t-134 264q0 20 21 20h207q17 0 20 -20q13 -70 70 -105.5t141 -35.5q79 0 130.5 26t51.5 74q0 45 -58.5 76t-199.5 55q-184 32 -271 105.5t-87 191.5q0 67 23.5 121.5t63 91t93 61t110.5 35.5t118 11q185 0 301.5 -89
t128.5 -227q0 -20 -21 -20h-207q-19 0 -28 20q-51 103 -183 103q-67 0 -110 -25t-43 -76q0 -41 53.5 -72.5t196.5 -54.5q181 -32 273.5 -101t92.5 -202zM616 1417l222 -291q6 -8 2.5 -14t-13.5 -6h-192q-19 0 -37 18l-96 97l-96 -97q-18 -18 -37 -18h-193q-10 0 -13 6t3 14
l221 291q17 17 31 17h168q13 0 30 -17z" />
    <glyph glyph-name="Scedilla" unicode="&#x15e;" horiz-adv-x="1208" 
d="M492 -238l-48 45q-6 6 -6 15q0 8 2 12l43 156q-190 32 -313 165.5t-123 307.5q0 20 21 20h215q17 0 20 -20q10 -122 92 -184t219 -62q130 0 206.5 52t76.5 139q0 74 -84 126t-242 91q-121 31 -207 66.5t-152 85t-98 116.5t-32 154q0 126 72 220.5t184.5 140.5t245.5 46
q115 0 214 -36t166.5 -95.5t106.5 -136.5t41 -160q0 -20 -20 -20h-218q-17 0 -20 20q-17 94 -89.5 142.5t-184.5 48.5q-105 0 -172.5 -41t-67.5 -117q0 -35 18.5 -65t48 -52.5t76 -43.5t91.5 -36t106 -31q101 -27 178.5 -59t148.5 -79t109.5 -112.5t38.5 -146.5
q0 -210 -140 -328t-382 -126l-43 -89q58 15 104 15q91 0 140 -44t49 -118q0 -170 -236 -170q-148 0 -221 20q-1 1 -4 2q-15 11 -16 19v90q0 21 20 21q2 0 63.5 -13.5t131.5 -13.5q71 0 71 41q0 37 -51 37q-43 0 -121 -19q-6 -2 -14 -2t-14 6z" />
    <glyph glyph-name="scedilla" unicode="&#x15f;" horiz-adv-x="1024" 
d="M391 -238l-47 45q-6 6 -6 15q0 8 2 12l45 158q-142 30 -228 121t-96 229q0 20 21 20h207q17 0 20 -20q13 -70 70 -105.5t141 -35.5q79 0 130.5 26t51.5 74q0 45 -58.5 76t-199.5 55q-184 32 -271 105.5t-87 191.5q0 67 23.5 121.5t63 91t93 61t110.5 35.5t118 11
q185 0 301.5 -89t128.5 -227q0 -20 -21 -20h-207q-19 0 -28 20q-51 103 -183 103q-67 0 -110 -25t-43 -76q0 -41 53.5 -72.5t196.5 -54.5q181 -32 273.5 -101t92.5 -202q0 -141 -115 -230.5t-301 -94.5l-43 -89q58 15 105 15q91 0 139.5 -44t48.5 -118q0 -170 -235 -170
q-148 0 -221 20q-2 1 -5 2q-15 11 -16 19v90q0 21 21 21q2 0 63 -13.5t131 -13.5q72 0 72 41q0 37 -51 37q-43 0 -121 -19q-6 -2 -14 -2q-9 0 -15 6z" />
    <glyph glyph-name="Scaron" unicode="&#x160;" horiz-adv-x="1208" 
d="M82 1047q0 126 72 220.5t184.5 140.5t245.5 46q115 0 214 -36t166.5 -95.5t106.5 -136.5t41 -160q0 -20 -20 -20h-218q-17 0 -20 20q-17 94 -89.5 142.5t-184.5 48.5q-105 0 -172.5 -41t-67.5 -117q0 -35 18.5 -65t48 -52.5t76 -43.5t91.5 -36t106 -31q101 -27 178.5 -59
t148.5 -79t109.5 -112.5t38.5 -146.5q0 -215 -149.5 -334.5t-403.5 -119.5q-156 0 -284 64.5t-199.5 175t-71.5 243.5q0 20 21 20h215q17 0 20 -20q10 -122 92 -184t219 -62q130 0 206.5 52t76.5 139q0 74 -84 126t-242 91q-121 31 -207 66.5t-152 85t-98 116.5t-32 154z
M932 1819l-221 -291q-17 -17 -31 -17h-168q-14 0 -31 17l-221 291q-6 7 -3 13.5t13 6.5h193q19 0 37 -18l96 -97l96 97q18 18 37 18h193q10 0 13 -6.5t-3 -13.5z" />
    <glyph glyph-name="scaron" unicode="&#x161;" horiz-adv-x="1024" 
d="M948 305q0 -145 -121 -235t-315 -90q-195 0 -317 98t-134 264q0 20 21 20h207q17 0 20 -20q13 -70 70 -105.5t141 -35.5q79 0 130.5 26t51.5 74q0 45 -58.5 76t-199.5 55q-184 32 -271 105.5t-87 191.5q0 67 23.5 121.5t63 91t93 61t110.5 35.5t118 11q185 0 301.5 -89
t128.5 -227q0 -20 -21 -20h-207q-19 0 -28 20q-51 103 -183 103q-67 0 -110 -25t-43 -76q0 -41 53.5 -72.5t196.5 -54.5q181 -32 273.5 -101t92.5 -202zM825 1413l-221 -291q-16 -16 -31 -16h-167q-15 0 -31 16l-221 291q-6 7 -3 14t13 7h192q18 0 37 -19l96 -96l97 96
q19 19 37 19h192q10 0 13 -7t-3 -14z" />
    <glyph glyph-name="uni0162" unicode="&#x162;" horiz-adv-x="1155" 
d="M504 -238l-47 45q-6 6 -6 15q0 8 2 12l47 166h-31q-20 0 -20 20v1176h-402q-20 0 -20 21v196q0 21 20 21h1061q20 0 20 -21v-196q0 -21 -20 -21h-401v-1176q0 -20 -21 -20h-31l-53 -109q58 15 105 15q91 0 139.5 -44t48.5 -118q0 -170 -236 -170q-148 0 -221 20
q-1 1 -4 2q-15 11 -16 19v90q0 21 20 21q2 0 63.5 -13.5t131.5 -13.5q72 0 72 41q0 37 -52 37q-43 0 -121 -19q-6 -2 -14 -2t-14 6z" />
    <glyph glyph-name="uni0163" unicode="&#x163;" horiz-adv-x="860" 
d="M379 -238l-47 45q-6 6 -6 15q0 8 2 12l53 191q-156 89 -156 299v483h-176q-20 0 -20 20v181q0 20 20 20h176v295q0 20 21 20h205q20 0 20 -20v-295h309q21 0 21 -20v-181q0 -20 -21 -20h-309v-438q0 -87 32.5 -127.5t108.5 -40.5q101 0 181 30q4 2 14 2q14 0 14 -18v-168
q0 -11 -0.5 -16t-4 -10.5t-11.5 -8.5q-82 -32 -236 -32q-33 0 -47 2l-45 -91q58 15 105 15q91 0 139.5 -44t48.5 -118q0 -170 -235 -170q-149 0 -222 20q-1 1 -4 2q-15 11 -16 19v90q0 21 20 21q2 0 63.5 -13.5t131.5 -13.5q72 0 72 41q0 37 -52 37q-42 0 -120 -19
q-6 -2 -15 -2q-8 0 -14 6z" />
    <glyph glyph-name="Tcaron" unicode="&#x164;" horiz-adv-x="1155" 
d="M27 1217v196q0 21 20 21h1061q20 0 20 -21v-196q0 -21 -20 -21h-401v-1176q0 -20 -21 -20h-217q-20 0 -20 20v1176h-402q-20 0 -20 21zM913 1819l-221 -291q-17 -17 -30 -17h-168q-14 0 -31 17l-221 291q-6 7 -3 13.5t13 6.5h192q19 0 37 -18l97 -97l96 97q18 18 37 18
h192q10 0 13 -6.5t-3 -13.5z" />
    <glyph glyph-name="tcaron" unicode="&#x165;" horiz-adv-x="956" 
d="M471 1028h309q21 0 21 -20v-181q0 -20 -21 -20h-309v-438q0 -87 32.5 -127.5t108.5 -40.5q101 0 181 30q4 2 14 2q14 0 14 -18v-168q0 -11 -0.5 -16t-4 -10.5t-11.5 -8.5q-82 -32 -236 -32q-155 0 -249.5 89t-94.5 255v483h-176q-20 0 -20 20v181q0 20 20 20h176v295
q0 20 21 20h205q20 0 20 -20v-295zM662 1192q65 0 89.5 25.5t24.5 76.5v13h-100q-21 0 -21 20v213q0 21 21 21h233q21 0 21 -21v-262q0 -83 -52 -146t-147 -63h-69q-21 0 -21 21v81q0 21 21 21z" />
    <glyph glyph-name="Tbar" unicode="&#x166;" horiz-adv-x="1155" 
d="M27 1217v196q0 21 20 21h1061q20 0 20 -21v-196q0 -21 -20 -21h-401v-147h340q20 0 20 -21v-180q0 -21 -20 -21h-340v-807q0 -20 -21 -20h-217q-20 0 -20 20v807h-349q-20 0 -20 21v180q0 21 20 21h349v147h-402q-20 0 -20 21z" />
    <glyph glyph-name="tbar" unicode="&#x167;" horiz-adv-x="860" 
d="M471 1028h309q21 0 21 -20v-181q0 -20 -21 -20h-309v-117h272q21 0 21 -20v-168q0 -21 -21 -21h-272v-112q0 -87 32.5 -127.5t108.5 -40.5q101 0 181 30q28 10 28 -16v-168q0 -11 -0.5 -16t-4 -10.5t-11.5 -8.5q-82 -32 -236 -32q-155 0 -249.5 89t-94.5 255v157h-141
q-21 0 -21 21v168q0 20 21 20h141v117h-176q-20 0 -20 20v181q0 20 20 20h176v295q0 20 21 20h205q20 0 20 -20v-295z" />
    <glyph glyph-name="Utilde" unicode="&#x168;" horiz-adv-x="1310" 
d="M111 553v860q0 21 20 21h217q21 0 21 -21v-858q0 -172 75.5 -255t210.5 -83t211 83t76 255v858q0 21 21 21h217q20 0 20 -21v-860q0 -267 -148 -420t-397 -153t-396.5 153t-147.5 420zM256 1767q131 101 238 101q53 0 95 -12.5t64 -27.5t54 -27.5t69 -12.5q55 0 131 49
q9 6 17 6q10 0 20 -16l88 -121q4 -8 4 -14q0 -10 -12 -19q-129 -100 -238 -100q-54 0 -96 12.5t-64 27.5t-54 27.5t-68 12.5q-55 0 -131 -49q-7 -7 -17 -7t-20 17l-88 121q-4 8 -4 14q0 9 12 18z" />
    <glyph glyph-name="utilde" unicode="&#x169;" horiz-adv-x="1167" 
d="M1032 1008v-988q0 -20 -20 -20h-205q-21 0 -21 20v74q-133 -114 -309 -114q-167 0 -262.5 93t-95.5 253v682q0 20 20 20h205q21 0 21 -20v-594q0 -114 43.5 -163.5t132.5 -49.5q106 0 175.5 85t69.5 257v465q0 20 21 20h205q20 0 20 -20zM178 1362q129 100 238 100
q53 0 95 -12.5t64 -27.5t54 -27.5t69 -12.5q54 0 131 50q9 6 17 6q10 0 20 -17l88 -121q4 -8 4 -14q0 -9 -12 -18q-131 -101 -237 -101q-54 0 -96.5 12.5t-64.5 27.5t-54 27.5t-68 12.5q-55 0 -131 -49q-6 -6 -16 -6q-11 0 -21 16l-88 121q-4 8 -4 14q0 10 12 19z" />
    <glyph glyph-name="Umacron" unicode="&#x16a;" horiz-adv-x="1310" 
d="M111 553v860q0 21 20 21h217q21 0 21 -21v-858q0 -172 75.5 -255t210.5 -83t211 83t76 255v858q0 21 21 21h217q20 0 20 -21v-860q0 -267 -148 -420t-397 -153t-396.5 153t-147.5 420zM414 1606v184q0 20 20 20h443q20 0 20 -20v-184q0 -21 -20 -21h-443q-20 0 -20 21z
" />
    <glyph glyph-name="umacron" unicode="&#x16b;" horiz-adv-x="1167" 
d="M1032 1008v-988q0 -20 -20 -20h-205q-21 0 -21 20v74q-133 -114 -309 -114q-167 0 -262.5 93t-95.5 253v682q0 20 20 20h205q21 0 21 -20v-594q0 -114 43.5 -163.5t132.5 -49.5q106 0 175.5 85t69.5 257v465q0 20 21 20h205q20 0 20 -20zM322 1200v184q0 21 20 21h442
q21 0 21 -21v-184q0 -20 -21 -20h-442q-20 0 -20 20z" />
    <glyph glyph-name="Ubreve" unicode="&#x16c;" horiz-adv-x="1310" 
d="M111 553v860q0 21 20 21h217q21 0 21 -21v-858q0 -172 75.5 -255t210.5 -83t211 83t76 255v858q0 21 21 21h217q20 0 20 -21v-860q0 -267 -148 -420t-397 -153t-396.5 153t-147.5 420zM397 1831h160q21 0 21 -21q0 -104 77 -104q78 0 78 104q0 21 21 21h159q21 0 21 -21
q0 -131 -77 -205.5t-202 -74.5t-201.5 74.5t-76.5 205.5q0 21 20 21z" />
    <glyph glyph-name="ubreve" unicode="&#x16d;" horiz-adv-x="1167" 
d="M1032 1008v-988q0 -20 -20 -20h-205q-21 0 -21 20v74q-133 -114 -309 -114q-167 0 -262.5 93t-95.5 253v682q0 20 20 20h205q21 0 21 -20v-594q0 -114 43.5 -163.5t132.5 -49.5q106 0 175.5 85t69.5 257v465q0 20 21 20h205q20 0 20 -20zM315 1425h160q21 0 21 -20
q0 -105 77 -105q78 0 78 105q0 20 21 20h159q21 0 21 -20q0 -131 -77 -206t-202 -75t-201.5 75t-76.5 206q0 20 20 20z" />
    <glyph glyph-name="Uring" unicode="&#x16e;" horiz-adv-x="1310" 
d="M111 553v860q0 21 20 21h217q21 0 21 -21v-858q0 -172 75.5 -255t210.5 -83t211 83t76 255v858q0 21 21 21h217q20 0 20 -21v-860q0 -267 -148 -420t-397 -153t-396.5 153t-147.5 420zM444 1679q0 88 59 144.5t152 56.5t152 -56.5t59 -144.5t-59 -144t-152 -56t-152 56
t-59 144zM584 1679q0 -34 19.5 -51.5t51.5 -17.5t52 17.5t20 51.5t-20 52t-52 18t-51.5 -18t-19.5 -52z" />
    <glyph glyph-name="uring" unicode="&#x16f;" horiz-adv-x="1167" 
d="M1032 1008v-988q0 -20 -20 -20h-205q-21 0 -21 20v74q-133 -114 -309 -114q-167 0 -262.5 93t-95.5 253v682q0 20 20 20h205q21 0 21 -20v-594q0 -114 43.5 -163.5t132.5 -49.5q106 0 175.5 85t69.5 257v465q0 20 21 20h205q20 0 20 -20zM365 1274q0 88 58.5 144.5
t151.5 56.5t152 -56.5t59 -144.5t-59 -144.5t-152 -56.5t-151.5 56.5t-58.5 144.5zM504 1274q0 -34 19.5 -52t51.5 -18t52 18t20 52t-20 51.5t-52 17.5t-51.5 -17.5t-19.5 -51.5z" />
    <glyph glyph-name="Uhungarumlaut" unicode="&#x170;" horiz-adv-x="1310" 
d="M111 553v860q0 21 20 21h217q21 0 21 -21v-858q0 -172 75.5 -255t210.5 -83t211 83t76 255v858q0 21 21 21h217q20 0 20 -21v-860q0 -267 -148 -420t-397 -153t-396.5 153t-147.5 420zM309 1561l142 258q11 20 30 20h260q10 0 13.5 -6.5t-2.5 -13.5l-211 -260
q-14 -19 -37 -19h-185q-10 0 -12.5 7t2.5 14zM686 1561l141 258q11 20 31 20h260q10 0 13 -6.5t-3 -13.5l-210 -260q-14 -19 -37 -19h-185q-10 0 -12.5 7t2.5 14z" />
    <glyph glyph-name="uhungarumlaut" unicode="&#x171;" horiz-adv-x="1167" 
d="M1032 1008v-988q0 -20 -20 -20h-205q-21 0 -21 20v74q-133 -114 -309 -114q-167 0 -262.5 93t-95.5 253v682q0 20 20 20h205q21 0 21 -20v-594q0 -114 43.5 -163.5t132.5 -49.5q106 0 175.5 85t69.5 257v465q0 20 21 20h205q20 0 20 -20zM186 1155l142 258q12 21 30 21
h260q10 0 13.5 -7t-2.5 -14l-211 -260q-13 -18 -37 -18h-184q-10 0 -13 6.5t2 13.5zM563 1155l142 258q12 21 30 21h260q10 0 13.5 -7t-2.5 -14l-211 -260q-13 -18 -37 -18h-185q-10 0 -12.5 6.5t2.5 13.5z" />
    <glyph glyph-name="Uogonek" unicode="&#x172;" horiz-adv-x="1310" 
d="M1200 1413v-860q0 -414 -379 -553q-80 -29 -80 -113q0 -73 84 -73h41q21 0 21 -21v-131q0 -20 -21 -20h-110q-112 0 -179 48.5t-67 137.5q0 88 72 156q-216 20 -343.5 171.5t-127.5 397.5v860q0 21 20 21h217q21 0 21 -21v-858q0 -172 75.5 -255t210.5 -83t211 83t76 255
v858q0 21 21 21h217q20 0 20 -21z" />
    <glyph glyph-name="uogonek" unicode="&#x173;" horiz-adv-x="1167" 
d="M1032 1008v-988q0 -14 -14 -20q-80 -34 -80 -113q0 -73 84 -73h41q20 0 20 -21v-131q0 -20 -20 -20h-111q-111 0 -178 48.5t-67 137.5q0 51 22.5 92.5t56.5 67.5v106q-133 -114 -309 -114q-167 0 -262.5 93t-95.5 253v682q0 20 20 20h205q21 0 21 -20v-594
q0 -114 43.5 -163.5t132.5 -49.5q106 0 175.5 85t69.5 257v465q0 20 21 20h205q20 0 20 -20z" />
    <glyph glyph-name="Wcircumflex" unicode="&#x174;" horiz-adv-x="1712" 
d="M1706 1409l-322 -1389q-6 -20 -22 -20h-250q-16 0 -22 20l-234 920l-233 -920q-6 -20 -23 -20h-250q-16 0 -22 20l-322 1389q-2 6 -2 12q0 13 19 13h223q21 0 24 -21l207 -1046l250 948q6 20 25 20h209q18 0 24 -20l250 -948l207 1046q3 21 24 21h224q18 0 18 -13
q0 -6 -2 -12zM971 1823l221 -291q6 -8 3 -14.5t-13 -6.5h-193q-18 0 -37 19l-96 96l-96 -96q-19 -19 -37 -19h-193q-10 0 -13 6.5t3 14.5l221 291q16 16 31 16h168q15 0 31 -16z" />
    <glyph glyph-name="wcircumflex" unicode="&#x175;" horiz-adv-x="1527" 
d="M1530 997l-303 -977q-6 -20 -27 -20h-223q-21 0 -27 20l-186 629l-186 -629q-6 -20 -27 -20h-223q-24 0 -27 20l-303 977q-2 6 -2 17q0 14 16 14h211q11 0 16.5 -3t7 -5t5.5 -12l184 -691l199 641q1 2 2.5 5.5t2 5t1.5 3.5t2.5 3t3.5 2t4.5 1.5t5.5 0.5h213q10 0 13.5 -3
t7.5 -14q1 -3 2 -4l199 -641l184 691q1 1 2 4t1.5 4t1.5 3.5t2 3t2.5 2t3 1.5t4 1t5.5 1h7h211q16 0 16 -14q0 -11 -2 -17zM879 1417l221 -291q6 -8 3 -14t-13 -6h-193q-19 0 -37 18l-96 97l-96 -97q-18 -18 -37 -18h-193q-10 0 -13 6t3 14l221 291q17 17 31 17h168
q14 0 31 -17z" />
    <glyph glyph-name="Ycircumflex" unicode="&#x176;" horiz-adv-x="1118" 
d="M1128 1413l-440 -909v-484q0 -20 -20 -20h-217q-21 0 -21 20v484l-440 909q-2 2 -2 8q0 13 14 13h240q19 0 26 -17l291 -645l291 645q7 17 27 17h239q14 0 14 -13q0 -6 -2 -8zM674 1823l221 -291q6 -8 3 -14.5t-13 -6.5h-193q-18 0 -37 19l-96 96l-96 -96
q-19 -19 -37 -19h-193q-10 0 -13 6.5t3 14.5l221 291q16 16 31 16h168q15 0 31 -16z" />
    <glyph glyph-name="ycircumflex" unicode="&#x177;" horiz-adv-x="991" 
d="M12 1028h238q20 0 26 -20l246 -646l199 646q5 12 9.5 16t17.5 4h225q16 0 16 -14q0 -11 -2 -15l-379 -1099q-33 -95 -74.5 -161t-88.5 -101t-94 -49.5t-103 -14.5q-132 0 -199 33q-20 11 -20 33v180q0 20 16 20q11 0 66.5 -22.5t97.5 -22.5q77 0 123 52.5t82 175.5
l-414 972q-4 16 -4 17q0 16 16 16zM621 1417l221 -291q6 -8 2.5 -14t-13.5 -6h-192q-19 0 -37 18l-96 97l-96 -97q-18 -18 -37 -18h-193q-10 0 -13 6t3 14l221 291q17 17 31 17h168q14 0 31 -17z" />
    <glyph glyph-name="Ydieresis" unicode="&#x178;" horiz-adv-x="1118" 
d="M1128 1413l-440 -909v-484q0 -20 -20 -20h-217q-21 0 -21 20v484l-440 909q-2 2 -2 8q0 13 14 13h240q19 0 26 -17l291 -645l291 645q7 17 27 17h239q14 0 14 -13q0 -6 -2 -8zM246 1597v222q0 20 20 20h221q21 0 21 -20v-222q0 -20 -21 -20h-221q-20 0 -20 20zM610 1597
v222q0 20 21 20h221q20 0 20 -20v-222q0 -20 -20 -20h-221q-21 0 -21 20z" />
    <glyph glyph-name="Zacute" unicode="&#x179;" horiz-adv-x="1241" 
d="M90 1217v196q0 21 21 21h1005q21 0 21 -21v-188q0 -15 -13 -35l-762 -952h797q21 0 21 -21v-197q0 -20 -21 -20h-1083q-21 0 -21 20v189q0 15 13 35l763 952h-720q-21 0 -21 21zM422 1561l141 258q11 20 31 20h260q10 0 13 -6.5t-3 -13.5l-211 -260q-14 -19 -37 -19h-184
q-10 0 -12.5 7t2.5 14z" />
    <glyph glyph-name="zacute" unicode="&#x17a;" horiz-adv-x="989" 
d="M66 827v181q0 20 20 20h795q20 0 20 -20v-172q0 -25 -16 -43l-535 -572h570q20 0 20 -20v-181q0 -20 -20 -20h-861q-20 0 -20 20v173q0 14 12 30l545 584h-510q-20 0 -20 20zM315 1155l142 258q12 21 30 21h261q10 0 13 -7t-3 -14l-211 -260q-13 -18 -37 -18h-184
q-10 0 -13 6.5t2 13.5z" />
    <glyph glyph-name="Zdotaccent" unicode="&#x17b;" horiz-adv-x="1241" 
d="M90 1217v196q0 21 21 21h1005q21 0 21 -21v-188q0 -15 -13 -35l-762 -952h797q21 0 21 -21v-197q0 -20 -21 -20h-1083q-21 0 -21 20v189q0 15 13 35l763 952h-720q-21 0 -21 21zM469 1585v234q0 20 20 20h234q20 0 20 -20v-234q0 -20 -20 -20h-234q-20 0 -20 20z" />
    <glyph glyph-name="zdotaccent" unicode="&#x17c;" horiz-adv-x="989" 
d="M66 827v181q0 20 20 20h795q20 0 20 -20v-172q0 -25 -16 -43l-535 -572h570q20 0 20 -20v-181q0 -20 -20 -20h-861q-20 0 -20 20v173q0 14 12 30l545 584h-510q-20 0 -20 20zM358 1180v233q0 21 21 21h233q21 0 21 -21v-233q0 -21 -21 -21h-233q-21 0 -21 21z" />
    <glyph glyph-name="Zcaron" unicode="&#x17d;" horiz-adv-x="1241" 
d="M90 1217v196q0 21 21 21h1005q21 0 21 -21v-188q0 -15 -13 -35l-762 -952h797q21 0 21 -21v-197q0 -20 -21 -20h-1083q-21 0 -21 20v189q0 15 13 35l763 952h-720q-21 0 -21 21zM961 1819l-222 -291q-17 -17 -30 -17h-168q-14 0 -31 17l-221 291q-6 7 -3 13.5t13 6.5h193
q18 0 36 -18l97 -97l96 97q18 18 37 18h192q10 0 13.5 -6.5t-2.5 -13.5z" />
    <glyph glyph-name="zcaron" unicode="&#x17e;" horiz-adv-x="989" 
d="M66 827v181q0 20 20 20h795q20 0 20 -20v-172q0 -25 -16 -43l-535 -572h570q20 0 20 -20v-181q0 -20 -20 -20h-861q-20 0 -20 20v173q0 14 12 30l545 584h-510q-20 0 -20 20zM811 1413l-221 -291q-16 -16 -31 -16h-168q-15 0 -31 16l-221 291q-6 7 -2.5 14t13.5 7h192
q18 0 37 -19l96 -96l96 96q19 19 37 19h193q10 0 13 -7t-3 -14z" />
    <glyph glyph-name="longs" unicode="&#x17f;" horiz-adv-x="770" 
d="M481 1036v-1016q0 -20 -20 -20h-205q-20 0 -20 20v787h-164q-21 0 -21 20v181q0 20 21 20h164v59q0 174 99.5 270.5t268.5 96.5q109 0 227 -47q17 -6 17 -35v-176q0 -20 -14 -20q-3 0 -15 4q-112 53 -176 53q-162 0 -162 -197z" />
    <glyph glyph-name="uni018E" unicode="&#x18e;" horiz-adv-x="1196" 
d="M795 799v397h-676q-21 0 -21 21v196q0 21 21 21h913q21 0 21 -21v-1393q0 -20 -21 -20h-882q-21 0 -21 20v197q0 21 21 21h645v323h-584q-21 0 -21 21v196q0 21 21 21h584z" />
    <glyph glyph-name="uni018F" unicode="&#x18f;" horiz-adv-x="1214" 
d="M604 827q-90 0 -150.5 -30.5t-101.5 -96.5q-7 -12 -12 -15t-16 -3h-209q-15 0 -15 14q0 12 4 21q66 169 190.5 250.5t311.5 81.5q147 0 267 -67t190 -190t70 -278t-72 -278t-192.5 -189.5t-264.5 -66.5q-123 0 -224 45t-167.5 121.5t-102.5 177t-36 213.5v34q0 21 20 21
h780q-18 108 -88 171.5t-182 63.5zM604 201q89 0 160.5 49.5t101.5 136.5h-530q64 -186 268 -186z" />
    <glyph glyph-name="florin" unicode="&#x192;" horiz-adv-x="966" 
d="M571 807l-118 -862q-24 -181 -130.5 -276t-250.5 -95q-131 0 -217 39q-11 5 -14 11.5t-3 23.5v180q0 22 15 22q7 0 16 -6q79 -49 182 -49q135 0 156 160l117 852h-129q-19 0 -19 20v181q0 20 23 20h155l8 55q24 181 130.5 276t250.5 95q132 0 218 -39q10 -4 13 -10.5
t3 -24.5v-180q0 -22 -12 -22q-10 0 -19 6q-94 49 -182 49q-135 0 -156 -160l-6 -45h279q20 0 20 -20v-181q0 -20 -20 -20h-310z" />
    <glyph glyph-name="uni01B5" unicode="&#x1b5;" horiz-adv-x="1241" 
d="M90 1217v196q0 21 21 21h1005q21 0 21 -21v-188q0 -15 -13 -35l-295 -369h263q20 0 20 -20v-180q0 -21 -20 -21h-441l-289 -362h797q21 0 21 -21v-197q0 -20 -21 -20h-1083q-21 0 -21 20v189q0 15 13 35l284 356h-211q-20 0 -20 21v180q0 20 20 20h389l301 375h-720
q-21 0 -21 21z" />
    <glyph glyph-name="uni01B6" unicode="&#x1b6;" horiz-adv-x="989" 
d="M66 827v181q0 20 20 20h795q20 0 20 -20v-172q0 -25 -16 -43l-137 -146h79q21 0 21 -20v-168q0 -21 -21 -21h-274l-203 -217h570q20 0 20 -20v-181q0 -20 -20 -20h-861q-20 0 -20 20v173q0 14 12 30l201 215h-115q-20 0 -20 21v168q0 20 20 20h309l150 160h-510
q-20 0 -20 20z" />
    <glyph glyph-name="Aringacute" unicode="&#x1fa;" horiz-adv-x="1282" 
d="M430 1503q0 88 59 144.5t152 56.5t152 -56.5t59 -144.5q0 -81 -53 -137l487 -1333q2 -4 2 -13q0 -20 -22 -20h-224q-11 0 -15 4t-9 16l-123 359h-508l-123 -359q-4 -9 -5.5 -12t-6 -5.5t-12.5 -2.5h-224q-22 0 -22 20q0 9 2 13l485 1333q-51 54 -51 137zM641 1116
l-172 -500h344zM487 1782l142 258q11 20 30 20h261q10 0 13 -6t-3 -14l-211 -260q-14 -19 -37 -19h-184q-10 0 -13 6.5t2 14.5zM569 1503q0 -34 20 -51.5t52 -17.5t52 17.5t20 51.5t-20 52t-52 18t-52 -18t-20 -52z" />
    <glyph glyph-name="aringacute" unicode="&#x1fb;" horiz-adv-x="1103" 
d="M338 713h-207q-14 0 -14 12t2 20q31 134 145.5 219t290.5 85q198 0 317 -107t119 -289v-444q0 -68 8 -110t31 -79q11 -20 -14 -20h-250q-21 0 -21 20v60q-55 -46 -121.5 -73t-170.5 -27q-161 0 -267 93.5t-106 248.5q0 108 57 187.5t149.5 118t207.5 38.5q119 0 251 -41
v28q0 80 -49 127t-141 47q-135 0 -188 -96q-11 -18 -29 -18zM745 416q-144 41 -241 41q-81 0 -134 -34t-53 -95q0 -60 47.5 -93.5t133.5 -33.5q97 0 172 60.5t75 154.5zM346 1274q0 88 59 144.5t152 56.5t152 -56.5t59 -144.5t-59 -144.5t-152 -56.5t-152 56.5t-59 144.5z
M485 1274q0 -34 20 -52t52 -18t52 18t20 52t-20 51.5t-52 17.5t-52 -17.5t-20 -51.5zM391 1561l141 258q11 20 31 20h260q10 0 13.5 -6.5t-2.5 -13.5l-211 -260q-14 -19 -37 -19h-185q-10 0 -12.5 7t2.5 14z" />
    <glyph glyph-name="AEacute" unicode="&#x1fc;" horiz-adv-x="1806" 
d="M1018 635v-397h670q20 0 20 -21v-197q0 -20 -20 -20h-908q-20 0 -20 20v357h-357l-139 -357q-4 -9 -5.5 -12t-6 -5.5t-12.5 -2.5h-220q-22 0 -22 20q0 9 2 13l555 1380q9 21 25 21h1077q20 0 20 -21v-196q0 -21 -20 -21h-639v-324h577q21 0 21 -20v-197q0 -20 -21 -20
h-577zM723 1196l-227 -582h264v582h-37zM936 1561l141 258q11 20 31 20h260q10 0 13 -6.5t-3 -13.5l-211 -260q-14 -19 -37 -19h-184q-10 0 -12.5 7t2.5 14z" />
    <glyph glyph-name="aeacute" unicode="&#x1fd;" horiz-adv-x="1908" 
d="M338 713h-207q-14 0 -14 12t2 20q31 134 145.5 219t290.5 85q251 0 365 -160q154 160 385 160q123 0 224 -45t167.5 -121.5t102.5 -177t36 -213.5v-35q0 -21 -20 -21h-789q18 -102 93 -168.5t186 -66.5q90 0 150 30.5t101 96.5q11 18 29 18h209q14 0 14 -14q0 -12 -4 -21
q-66 -169 -190 -250t-311 -81q-262 0 -410 186q-142 -186 -412 -186q-190 0 -295.5 91t-105.5 251q0 108 57 187.5t149.5 118t207.5 38.5q126 0 251 -39v26q0 80 -49 127t-141 47q-135 0 -188 -96q-11 -18 -29 -18zM745 416q-144 41 -241 41q-81 0 -134 -34t-53 -95
q0 -60 47.5 -93.5t133.5 -33.5q97 0 172 60.5t75 154.5zM1305 827q-89 0 -161 -49.5t-102 -136.5h531q-64 186 -268 186zM768 1155l141 258q12 21 31 21h260q10 0 13 -7t-3 -14l-211 -260q-13 -18 -36 -18h-185q-10 0 -12.5 6.5t2.5 13.5z" />
    <glyph glyph-name="Scommaaccent" unicode="&#x218;" horiz-adv-x="1208" 
d="M82 1047q0 126 72 220.5t184.5 140.5t245.5 46q115 0 214 -36t166.5 -95.5t106.5 -136.5t41 -160q0 -20 -20 -20h-218q-17 0 -20 20q-17 94 -89.5 142.5t-184.5 48.5q-105 0 -172.5 -41t-67.5 -117q0 -35 18.5 -65t48 -52.5t76 -43.5t91.5 -36t106 -31q101 -27 178.5 -59
t148.5 -79t109.5 -112.5t38.5 -146.5q0 -215 -149.5 -334.5t-403.5 -119.5q-156 0 -284 64.5t-199.5 175t-71.5 243.5q0 20 21 20h215q17 0 20 -20q10 -122 92 -184t219 -62q130 0 206.5 52t76.5 139q0 74 -84 126t-242 91q-121 31 -207 66.5t-152 85t-98 116.5t-32 154z
M502 -434q53 0 73.5 20t20.5 66v24h-102q-21 0 -21 21v221q0 21 21 21h221q20 0 20 -21v-280q0 -94 -43.5 -146.5t-134.5 -52.5h-55q-21 0 -21 20v86q0 21 21 21z" />
    <glyph glyph-name="scommaaccent" unicode="&#x219;" horiz-adv-x="1024" 
d="M948 305q0 -145 -121 -235t-315 -90q-195 0 -317 98t-134 264q0 20 21 20h207q17 0 20 -20q13 -70 70 -105.5t141 -35.5q79 0 130.5 26t51.5 74q0 45 -58.5 76t-199.5 55q-184 32 -271 105.5t-87 191.5q0 67 23.5 121.5t63 91t93 61t110.5 35.5t118 11q185 0 301.5 -89
t128.5 -227q0 -20 -21 -20h-207q-19 0 -28 20q-51 103 -183 103q-67 0 -110 -25t-43 -76q0 -41 53.5 -72.5t196.5 -54.5q181 -32 273.5 -101t92.5 -202zM403 -434q53 0 74 20.5t21 65.5v24h-103q-20 0 -20 21v221q0 21 20 21h221q21 0 21 -21v-280q0 -94 -43.5 -146.5
t-134.5 -52.5h-56q-20 0 -20 20v86q0 21 20 21z" />
    <glyph glyph-name="uni021A" unicode="&#x21a;" horiz-adv-x="1155" 
d="M27 1217v196q0 21 20 21h1061q20 0 20 -21v-196q0 -21 -20 -21h-401v-1176q0 -20 -21 -20h-217q-20 0 -20 20v1176h-402q-20 0 -20 21zM475 -434q53 0 73.5 20t20.5 66v24h-102q-21 0 -21 21v221q0 21 21 21h221q21 0 21 -21v-280q0 -94 -44 -146.5t-135 -52.5h-55
q-20 0 -20 20v86q0 21 20 21z" />
    <glyph glyph-name="uni021B" unicode="&#x21b;" horiz-adv-x="860" 
d="M471 1028h309q21 0 21 -20v-181q0 -20 -21 -20h-309v-438q0 -87 32.5 -127.5t108.5 -40.5q101 0 181 30q4 2 14 2q14 0 14 -18v-168q0 -11 -0.5 -16t-4 -10.5t-11.5 -8.5q-82 -32 -236 -32q-155 0 -249.5 89t-94.5 255v483h-176q-20 0 -20 20v181q0 20 20 20h176v295
q0 20 21 20h205q20 0 20 -20v-295zM442 -434q53 0 74 20.5t21 65.5v24h-103q-20 0 -20 21v221q0 21 20 21h221q21 0 21 -21v-280q0 -94 -43.5 -146.5t-134.5 -52.5h-56q-20 0 -20 20v86q0 21 20 21z" />
    <glyph glyph-name="circumflex" unicode="&#x2c6;" horiz-adv-x="839" 
d="M535 1417l221 -291q6 -8 2.5 -14t-13.5 -6h-192q-19 0 -37 18l-96 97l-96 -97q-18 -18 -37 -18h-193q-10 0 -13 6t3 14l221 291q17 17 31 17h168q14 0 31 -17z" />
    <glyph glyph-name="caron" unicode="&#x2c7;" horiz-adv-x="839" 
d="M756 1413l-221 -291q-16 -16 -31 -16h-168q-15 0 -31 16l-221 291q-6 7 -3 14t13 7h193q18 0 37 -19l96 -96l96 96q19 19 37 19h192q10 0 13.5 -7t-2.5 -14z" />
    <glyph glyph-name="breve" unicode="&#x2d8;" horiz-adv-x="712" 
d="M98 1425h160q21 0 21 -20q0 -105 77 -105q78 0 78 105q0 20 21 20h159q21 0 21 -20q0 -131 -77 -206t-202 -75t-201.5 75t-76.5 206q0 20 20 20z" />
    <glyph glyph-name="dotaccent" unicode="&#x2d9;" horiz-adv-x="438" 
d="M82 1180v233q0 21 20 21h234q20 0 20 -21v-233q0 -21 -20 -21h-234q-20 0 -20 21z" />
    <glyph glyph-name="ring" unicode="&#x2da;" horiz-adv-x="536" 
d="M57 1274q0 88 59 144.5t152 56.5t152 -56.5t59 -144.5t-59 -144.5t-152 -56.5t-152 56.5t-59 144.5zM197 1274q0 -34 19.5 -52t51.5 -18t52 18t20 52t-20 51.5t-52 17.5t-51.5 -17.5t-19.5 -51.5z" />
    <glyph glyph-name="ogonek" unicode="&#x2db;" horiz-adv-x="409" 
d="M238 35l110 -21l2 -2q4 -4 4 -6q0 -4 -4 -4l-2 -2q-80 -38 -80 -113q0 -73 84 -73h41q21 0 21 -21v-131q0 -20 -21 -20h-110q-112 0 -179 48.5t-67 137.5q0 76 46.5 128.5t111.5 76.5q4 1 9 2l7.5 1.5t3.5 0.5q9 0 23 -2z" />
    <glyph glyph-name="tilde" unicode="&#x2dc;" horiz-adv-x="899" 
d="M66 1362q129 100 237 100q53 0 95 -12.5t64.5 -27.5t54.5 -27.5t69 -12.5q54 0 131 50q9 6 16 6q11 0 21 -17l88 -121q4 -8 4 -14q0 -9 -12 -18q-131 -101 -238 -101q-54 0 -96.5 12.5t-64.5 27.5t-54 27.5t-68 12.5q-55 0 -131 -49q-6 -6 -16 -6q-11 0 -21 16l-88 121
q-4 8 -4 14q0 9 13 19z" />
    <glyph glyph-name="hungarumlaut" unicode="&#x2dd;" horiz-adv-x="1155" 
d="M166 1155l141 258q12 21 31 21h260q10 0 13 -7t-3 -14l-211 -260q-13 -18 -37 -18h-184q-10 0 -12.5 6.5t2.5 13.5zM543 1155l141 258q12 21 31 21h260q10 0 13 -7t-3 -14l-211 -260q-13 -18 -37 -18h-184q-10 0 -12.5 6.5t2.5 13.5z" />
    <glyph glyph-name="uni03A9" unicode="&#x3a9;" horiz-adv-x="1531" 
d="M766 1217q-179 0 -293.5 -103t-114.5 -283q0 -175 64.5 -299.5t218.5 -269.5q16 -16 16 -41v-201q0 -20 -20 -20h-475q-21 0 -21 20v197q0 21 21 21h256q-314 250 -314 593q0 131 43.5 243.5t125.5 197.5t209 133.5t284 48.5t284 -48.5t208.5 -133.5t125 -197.5
t43.5 -243.5q0 -344 -313 -593h256q21 0 21 -21v-197q0 -20 -21 -20h-475q-21 0 -21 20v201q0 24 17 41q154 145 218.5 269.5t64.5 299.5q0 180 -114.5 283t-293.5 103z" />
    <glyph glyph-name="pi" unicode="&#x3c0;" horiz-adv-x="1392" 
d="M1272 807h-189v-473q0 -59 20.5 -86t70.5 -27h24q21 0 21 -20v-181q0 -20 -21 -20h-117q-111 0 -179 66.5t-68 181.5v559h-293v-787q0 -20 -21 -20h-205q-20 0 -20 20v787h-193q-20 0 -20 20v181q0 20 20 20h1170q20 0 20 -20v-181q0 -20 -20 -20z" />
    <glyph glyph-name="endash" unicode="&#x2013;" horiz-adv-x="1171" 
d="M127 815h917q21 0 21 -20v-189q0 -20 -21 -20h-917q-21 0 -21 20v189q0 20 21 20z" />
    <glyph glyph-name="emdash" unicode="&#x2014;" horiz-adv-x="1626" 
d="M125 815h1376q21 0 21 -20v-189q0 -20 -21 -20h-1376q-21 0 -21 20v189q0 20 21 20z" />
    <glyph glyph-name="quoteleft" unicode="&#x2018;" horiz-adv-x="526" 
d="M391 1311q-65 0 -90 -26t-25 -77v-12h101q20 0 20 -20v-213q0 -21 -20 -21h-234q-20 0 -20 21v262q0 83 52 146t147 63h69q21 0 21 -21v-82q0 -20 -21 -20z" />
    <glyph glyph-name="quoteright" unicode="&#x2019;" horiz-adv-x="526" 
d="M135 1065q65 0 90 25.5t25 76.5v13h-100q-21 0 -21 20v213q0 21 21 21h233q20 0 20 -21v-262q0 -83 -51.5 -146t-146.5 -63h-70q-20 0 -20 21v81q0 21 20 21z" />
    <glyph glyph-name="quotesinglbase" unicode="&#x201a;" horiz-adv-x="526" 
d="M135 -115q65 0 90 26t25 77v12h-100q-21 0 -21 20v213q0 21 21 21h233q20 0 20 -21v-262q0 -83 -51.5 -146t-146.5 -63h-70q-20 0 -20 21v82q0 20 20 20z" />
    <glyph glyph-name="quotedblleft" unicode="&#x201c;" horiz-adv-x="833" 
d="M371 1311q-65 0 -90 -26t-25 -77v-12h100q21 0 21 -20v-213q0 -21 -21 -21h-233q-21 0 -21 21v262q0 83 52 146t147 63h70q20 0 20 -21v-82q0 -20 -20 -20zM719 1311q-65 0 -90 -26t-25 -77v-12h101q20 0 20 -20v-213q0 -21 -20 -21h-234q-20 0 -20 21v262q0 83 51.5 146
t146.5 63h70q20 0 20 -21v-82q0 -20 -20 -20z" />
    <glyph glyph-name="quotedblright" unicode="&#x201d;" horiz-adv-x="833" 
d="M463 1065q65 0 90 25.5t25 76.5v13h-101q-20 0 -20 20v213q0 21 20 21h234q20 0 20 -21v-262q0 -83 -52 -146t-147 -63h-69q-21 0 -21 21v81q0 21 21 21zM115 1065q65 0 89.5 25.5t24.5 76.5v13h-100q-20 0 -20 20v213q0 21 20 21h233q21 0 21 -21v-262q0 -83 -52 -146
t-147 -63h-69q-21 0 -21 21v81q0 21 21 21z" />
    <glyph glyph-name="quotedblbase" unicode="&#x201e;" horiz-adv-x="833" 
d="M463 -115q65 0 90 26t25 77v12h-101q-20 0 -20 20v213q0 21 20 21h234q20 0 20 -21v-262q0 -83 -52 -146t-147 -63h-69q-21 0 -21 21v82q0 20 21 20zM115 -115q65 0 89.5 26t24.5 77v12h-100q-20 0 -20 20v213q0 21 20 21h233q21 0 21 -21v-262q0 -83 -52 -146t-147 -63
h-69q-21 0 -21 21v82q0 20 21 20z" />
    <glyph glyph-name="dagger" unicode="&#x2020;" horiz-adv-x="974" 
d="M59 1028h301v385q0 21 21 21h213q20 0 20 -21v-385h301q21 0 21 -20v-201q0 -21 -21 -21h-301v-1171q0 -21 -20 -21h-213q-21 0 -21 21v1171h-301q-20 0 -20 21v201q0 20 20 20z" />
    <glyph glyph-name="daggerdbl" unicode="&#x2021;" horiz-adv-x="974" 
d="M915 0h-301v-385q0 -21 -20 -21h-213q-21 0 -21 21v385h-301q-20 0 -20 20v201q0 21 20 21h301v544h-301q-20 0 -20 21v201q0 20 20 20h301v385q0 21 21 21h213q20 0 20 -21v-385h301q21 0 21 -20v-201q0 -21 -21 -21h-301v-544h301q21 0 21 -21v-201q0 -20 -21 -20z" />
    <glyph glyph-name="bullet" unicode="&#x2022;" horiz-adv-x="786" 
d="M119 668q0 116 79.5 195t194.5 79q116 0 195.5 -79.5t79.5 -194.5q0 -116 -80 -195.5t-195 -79.5t-194.5 79.5t-79.5 195.5z" />
    <glyph glyph-name="ellipsis" unicode="&#x2026;" horiz-adv-x="1531" 
d="M184 262h222q20 0 20 -20v-222q0 -20 -20 -20h-222q-20 0 -20 20v222q0 20 20 20zM653 262h221q21 0 21 -20v-222q0 -20 -21 -20h-221q-20 0 -20 20v222q0 20 20 20zM1122 262h221q21 0 21 -20v-222q0 -20 -21 -20h-221q-20 0 -20 20v222q0 20 20 20z" />
    <glyph glyph-name="perthousand" unicode="&#x2030;" horiz-adv-x="2633" 
d="M838 1067q0 -110 -52.5 -195.5t-135.5 -128.5t-179 -43q-151 0 -259 100.5t-108 266.5t108 266.5t259 100.5q96 0 179 -43t135.5 -128.5t52.5 -195.5zM643 1067q0 91 -51.5 137.5t-120.5 46.5t-120.5 -46.5t-51.5 -137.5t51.5 -137.5t120.5 -46.5t120.5 46.5t51.5 137.5z
M1710 367q0 -110 -52.5 -195.5t-135.5 -128.5t-179 -43q-151 0 -258.5 100.5t-107.5 266.5t107.5 266t258.5 100q96 0 179 -43t135.5 -128t52.5 -195zM1516 367q0 91 -52 137.5t-121 46.5t-120.5 -46.5t-51.5 -137.5t51.5 -138t120.5 -47t121 47t52 138zM2529 367
q0 -165 -108.5 -266t-257.5 -101q-151 0 -259 100.5t-108 266.5q0 111 52 195.5t134.5 127.5t180.5 43q96 0 178.5 -43t135 -128t52.5 -195zM2335 367q0 91 -51.5 137.5t-120.5 46.5t-120.5 -46.5t-51.5 -137.5t51.5 -138t120.5 -47t120.5 47t51.5 138zM274 117l1145 1310
q13 16 29 0l90 -81q13 -13 4 -29l-1145 -1311q-12 -16 -28 0l-90 82q-14 14 -5 29z" />
    <glyph glyph-name="guilsinglleft" unicode="&#x2039;" horiz-adv-x="690" 
d="M598 1073v-229q0 -22 -14 -33l-279 -250l279 -250q14 -11 14 -32v-230q0 -14 -12 -14q-7 0 -13 6l-479 414q-20 17 -20 37v139q0 20 20 37l479 413q6 6 13 6q12 0 12 -14z" />
    <glyph glyph-name="guilsinglright" unicode="&#x203a;" horiz-adv-x="690" 
d="M92 844v229q0 14 12 14q7 0 13 -6l479 -413q20 -17 20 -37v-139q0 -20 -20 -37l-479 -414q-6 -6 -13 -6q-12 0 -12 14v230q0 21 14 32l279 250l-279 250q-14 11 -14 33z" />
    <glyph glyph-name="fraction" unicode="&#x2044;" horiz-adv-x="1413" 
d="M84 117l1145 1310q12 16 28 0l91 -81q13 -13 4 -29l-1145 -1311q-13 -16 -29 0l-90 82q-13 13 -4 29z" />
    <glyph glyph-name="zerosuperior" unicode="&#x2070;" horiz-adv-x="788" 
d="M72 1051q0 98 27 175t72.5 124t102 71.5t119.5 24.5q133 0 228.5 -103.5t95.5 -291.5q0 -98 -27.5 -175.5t-73.5 -124.5t-103 -71.5t-120 -24.5q-133 0 -227 102.5t-94 293.5zM248 1051q0 -117 40 -174.5t105 -57.5q66 0 107 57.5t41 174.5t-41 174t-107 57t-105.5 -57
t-39.5 -174z" />
    <glyph glyph-name="foursuperior" unicode="&#x2074;" horiz-adv-x="737" 
d="M393 688v92h-325q-21 0 -21 21v112q0 14 8 25l346 481q9 15 23 15h113q20 0 20 -21v-465h105q20 0 20 -20v-127q0 -21 -20 -21h-105v-92q0 -20 -20 -20h-123q-21 0 -21 20zM393 1155l-145 -207h145v207z" />
    <glyph glyph-name="fivesuperior" unicode="&#x2075;" horiz-adv-x="700" 
d="M98 1026l47 391q3 17 21 17h426q20 0 20 -21v-123q0 -20 -20 -20h-301l-21 -123q54 29 140 29q112 0 177.5 -68t65.5 -193q0 -126 -80 -193t-200 -67q-117 0 -193.5 68t-81.5 174q0 21 21 21h127q3 0 5.5 -0.5t4.5 -1.5t3.5 -3.5t2 -4t2 -5.5t2.5 -6q22 -78 103 -78
q104 0 104 105q0 46 -24.5 73t-73.5 27q-47 0 -75 -6.5t-58 -28.5q-8 -8 -33 -4l-100 25q-11 4 -11 16z" />
    <glyph glyph-name="sixsuperior" unicode="&#x2076;" horiz-adv-x="757" 
d="M96 1016q0 213 84 321.5t205 108.5q104 0 173 -53.5t85 -165.5q0 -10 -12 -10h-139q-4 0 -11 10q-32 55 -94 55q-40 0 -72.5 -37t-42.5 -117q56 33 136 33q110 0 177.5 -67.5t67.5 -184.5q0 -116 -76.5 -185t-195.5 -69q-126 0 -205.5 91t-79.5 270zM276 909
q0 -46 29.5 -72t77.5 -26t77 26t29 72q0 43 -29.5 70t-76.5 27t-77 -27t-30 -70z" />
    <glyph glyph-name="sevensuperior" unicode="&#x2077;" horiz-adv-x="589" 
d="M18 1290v123q0 21 21 21h496q20 0 20 -21v-78q0 -16 -8 -35l-209 -614q-6 -18 -25 -18h-151q-17 0 -17 12q0 2 1 4t2 5t2 5l198 576h-309q-21 0 -21 20z" />
    <glyph glyph-name="eightsuperior" unicode="&#x2078;" horiz-adv-x="716" 
d="M106 1229q0 96 74 156.5t178 60.5t178 -60.5t74 -156.5q0 -91 -86 -156q47 -25 79 -71.5t32 -102.5q0 -114 -76 -179t-201 -65t-200.5 65t-75.5 179q0 56 32 102.5t79 71.5q-87 66 -87 156zM272 899q0 -37 24.5 -60.5t61.5 -23.5t61.5 23.5t24.5 60.5q0 38 -24.5 63
t-61.5 25t-61.5 -25t-24.5 -63zM279 1219q0 -35 22 -57.5t57 -22.5t57.5 22.5t22.5 57.5q0 36 -22 57.5t-58 21.5t-57.5 -21.5t-21.5 -57.5z" />
    <glyph glyph-name="ninesuperior" unicode="&#x2079;" horiz-adv-x="757" 
d="M662 1085q0 -213 -84 -321.5t-205 -108.5q-104 0 -173 53.5t-85 165.5q0 11 12 11h139q3 0 10 -11q32 -55 95 -55q40 0 72 37t42 117q-56 -33 -135 -33q-110 0 -178 67.5t-68 184.5q0 116 76.5 185t196.5 69q126 0 205.5 -91t79.5 -270zM481 1192q0 46 -29 72t-77 26
t-77.5 -26t-29.5 -72q0 -43 30 -69.5t77 -26.5t76.5 26.5t29.5 69.5z" />
    <glyph glyph-name="zeroinferior" unicode="&#x2080;" horiz-adv-x="788" 
d="M72 -23q0 191 94 293.5t227 102.5q63 0 120 -25t103 -72.5t73.5 -125t27.5 -173.5q0 -98 -27.5 -175t-73.5 -124t-103 -71.5t-120 -24.5t-119.5 24.5t-102 71.5t-72.5 124t-27 175zM248 -23q0 -117 39.5 -174t105.5 -57t107 57t41 174t-41 174.5t-107 57.5
q-65 0 -105 -57.5t-40 -174.5z" />
    <glyph glyph-name="oneinferior" unicode="&#x2081;" horiz-adv-x="454" 
d="M186 -385v520l-116 -67q-14 -7 -19 -7q-16 0 -16 17v149q0 13 14 21l176 104q13 8 31 8h78q20 0 20 -20v-725q0 -21 -20 -21h-127q-21 0 -21 21z" />
    <glyph glyph-name="twoinferior" unicode="&#x2082;" horiz-adv-x="724" 
d="M84 -385v94q0 20 12 29l318 254q35 29 49 57.5t14 69.5q0 40 -27 65t-75 25q-43 0 -76.5 -25.5t-40.5 -70.5q-3 -21 -20 -21h-127q-21 0 -21 21q5 108 84.5 184t200.5 76q119 0 193.5 -68.5t74.5 -159.5q0 -89 -28 -141.5t-97 -109.5l-162 -136h283q20 0 20 -20v-123
q0 -21 -20 -21h-535q-20 0 -20 21z" />
    <glyph glyph-name="threeinferior" unicode="&#x2083;" horiz-adv-x="729" 
d="M262 -66v119q0 21 21 21h59q46 0 69 21t23 57q0 28 -19.5 45.5t-58.5 17.5q-69 0 -96 -74q-3 -7 -4 -8.5l-3 -4.5t-5 -3h-8h-125q-21 0 -21 18q6 100 79 164t183 64q116 0 183 -60t67 -153q0 -48 -22 -88t-58 -64q113 -56 113 -174q0 -125 -79.5 -188.5t-201.5 -63.5
q-118 0 -201 72.5t-83 175.5q0 20 20 20h137q13 0 19 -16q1 -3 2 -4q24 -84 115 -84q44 0 69 22.5t25 61.5q0 86 -103 86h-75q-21 0 -21 20z" />
    <glyph glyph-name="fourinferior" unicode="&#x2084;" horiz-adv-x="737" 
d="M393 -385v92h-325q-21 0 -21 21v112q0 14 8 25l346 481q8 14 23 14h113q20 0 20 -20v-465h105q20 0 20 -20v-127q0 -21 -20 -21h-105v-92q0 -21 -20 -21h-123q-21 0 -21 21zM393 82l-145 -207h145v207z" />
    <glyph glyph-name="fiveinferior" unicode="&#x2085;" horiz-adv-x="700" 
d="M98 -47l47 391q3 16 21 16h426q20 0 20 -20v-123q0 -20 -20 -20h-301l-21 -123q52 28 140 28q112 0 177.5 -67.5t65.5 -192.5q0 -126 -80 -193t-200 -67q-117 0 -193.5 68t-81.5 174q0 20 21 20h127q3 0 5 -0.5t4 -1.5l3 -1.5t2 -2.5t1.5 -3.5t2 -5t2.5 -5.5
q22 -78 103 -78q104 0 104 104q0 46 -24.5 73.5t-73.5 27.5q-47 0 -75 -6.5t-58 -28.5q-8 -8 -33 -4l-100 25q-11 4 -11 16z" />
    <glyph glyph-name="sixinferior" unicode="&#x2086;" horiz-adv-x="759" 
d="M96 -57q0 213 84 321.5t205 108.5q104 0 173 -53.5t85 -165.5q0 -11 -12 -11h-139q-4 0 -11 11q-32 55 -94 55q-40 0 -72.5 -37t-42.5 -117q56 33 136 33q110 0 177.5 -67.5t67.5 -184.5q0 -116 -76.5 -185t-195.5 -69q-126 0 -205.5 91t-79.5 270zM276 -164
q0 -46 29.5 -72t77.5 -26t77 26t29 72q0 43 -29.5 69.5t-76.5 26.5t-77 -26.5t-30 -69.5z" />
    <glyph glyph-name="seveninferior" unicode="&#x2087;" horiz-adv-x="589" 
d="M18 217v123q0 20 21 20h496q20 0 20 -20v-78q0 -16 -8 -35l-209 -614q-6 -19 -25 -19h-151q-17 0 -17 13q0 2 1 4t2 5t2 5l198 576h-309q-21 0 -21 20z" />
    <glyph glyph-name="eightinferior" unicode="&#x2088;" horiz-adv-x="716" 
d="M106 156q0 96 74 156.5t178 60.5t178 -60.5t74 -156.5q0 -91 -86 -156q47 -25 79 -71.5t32 -102.5q0 -114 -76 -179t-201 -65t-200.5 65t-75.5 179q0 56 32 102.5t79 71.5q-87 66 -87 156zM272 -174q0 -37 24.5 -60.5t61.5 -23.5t61.5 23.5t24.5 60.5q0 38 -24.5 63
t-61.5 25t-61.5 -25t-24.5 -63zM279 145q0 -35 22 -57t57 -22t57.5 22t22.5 57q0 36 -22 58t-58 22t-57.5 -21.5t-21.5 -58.5z" />
    <glyph glyph-name="nineinferior" unicode="&#x2089;" horiz-adv-x="757" 
d="M662 12q0 -213 -84 -321.5t-205 -108.5q-104 0 -173 53.5t-85 165.5q0 11 12 11h139q3 0 10 -11q32 -55 95 -55q40 0 72 37t42 117q-56 -33 -135 -33q-110 0 -178 67.5t-68 184.5q0 116 76.5 185t196.5 69q126 0 205.5 -91t79.5 -270zM481 119q0 46 -29 72t-77 26
t-77.5 -26t-29.5 -72q0 -43 30 -69.5t77 -26.5t76.5 26.5t29.5 69.5z" />
    <glyph glyph-name="Euro" unicode="&#x20ac;" horiz-adv-x="1398" 
d="M858 782h-430q-2 -23 -2 -65q0 -43 2 -66h430q21 0 21 -20v-197q0 -20 -21 -20h-379q86 -197 291 -197q245 0 315 248q7 17 13 19q3 1 8 1h211q20 0 20 -20q-33 -222 -183 -353.5t-384 -131.5q-196 0 -342 116t-211 318h-180q-21 0 -21 20v197q0 20 21 20h137
q-2 23 -2 66q0 42 2 65h-137q-21 0 -21 21v196q0 21 21 21h180q65 202 211 318t342 116q234 0 384 -131.5t183 -353.5q0 -21 -20 -21h-211q-12 0 -18 13q0 1 -1 3l-2 5q-70 248 -315 248q-205 0 -291 -197h379q21 0 21 -21v-196q0 -21 -21 -21z" />
    <glyph glyph-name="uni2117" unicode="&#x2117;" horiz-adv-x="1638" 
d="M819 -20q-105 0 -207.5 30.5t-194 93t-161 149t-110 206.5t-40.5 258t40.5 258t110 206.5t161 149t194 93t207.5 30.5t207.5 -30.5t194 -93t161 -149t110 -206.5t40.5 -258t-40.5 -258t-110 -206.5t-161 -149t-194 -93t-207.5 -30.5zM819 66q92 0 180 25.5t167 79
t138.5 129t94.5 183.5t35 234t-35 234t-94.5 183.5t-138.5 129t-167 79t-180 25.5t-180 -25.5t-167 -79t-138 -129.5t-94 -183.5t-35 -233.5t35 -233.5t94 -183.5t138 -129.5t167 -79t180 -25.5zM537 272v893q0 23 22 23h309q144 0 227 -76.5t83 -200.5t-83 -200t-227 -76
h-233v-363q0 -22 -23 -22h-53q-22 0 -22 22zM635 1102v-381h248q97 0 146.5 50.5t49.5 139.5t-49.5 140t-146.5 51h-248z" />
    <glyph glyph-name="trademark" unicode="&#x2122;" horiz-adv-x="1460" 
d="M23 1298v115q0 21 20 21h541q20 0 20 -21v-115q0 -20 -20 -20h-191v-590q0 -20 -20 -20h-119q-21 0 -21 20v590h-190q-20 0 -20 20zM1382 1413v-725q0 -20 -20 -20h-119q-20 0 -20 20v473l-142 -356q-6 -12 -16 -12h-102q-11 0 -17 12l-141 356v-473q0 -20 -21 -20h-118
q-21 0 -21 20v725q0 21 21 21h168q17 0 24 -17l156 -395l155 395q7 17 25 17h168q20 0 20 -21z" />
    <glyph glyph-name="Omega" unicode="&#x2126;" horiz-adv-x="1531" 
d="M766 1217q-179 0 -293.5 -103t-114.5 -283q0 -175 64.5 -299.5t218.5 -269.5q16 -16 16 -41v-201q0 -20 -20 -20h-475q-21 0 -21 20v197q0 21 21 21h256q-314 250 -314 593q0 131 43.5 243.5t125.5 197.5t209 133.5t284 48.5t284 -48.5t208.5 -133.5t125 -197.5
t43.5 -243.5q0 -344 -313 -593h256q21 0 21 -21v-197q0 -20 -21 -20h-475q-21 0 -21 20v201q0 24 17 41q154 145 218.5 269.5t64.5 299.5q0 180 -114.5 283t-293.5 103z" />
    <glyph glyph-name="onethird" unicode="&#x2153;" horiz-adv-x="1769" 
d="M227 117l1145 1310q13 16 29 0l90 -81q13 -13 4 -29l-1145 -1311q-12 -16 -28 0l-91 82q-13 13 -4 29zM1255 342v119q0 20 21 20h59q46 0 69 21t23 57q0 28 -19 46t-58 18q-70 0 -97 -74q-6 -15 -12 -16q-3 -1 -8 -1h-125q-21 0 -21 19q6 100 79.5 163.5t183.5 63.5
q116 0 182.5 -60t66.5 -153q0 -99 -79 -151q112 -55 112 -174q0 -125 -79 -188.5t-201 -63.5q-118 0 -201.5 72.5t-83.5 175.5q0 20 20 20h138q3 0 5 -0.5t4 -1.5l3 -1.5t2 -2.5t1.5 -3.5t2 -5t2.5 -5.5q24 -84 115 -84q44 0 69 22.5t25 61.5q0 86 -102 86h-76q-21 0 -21 20
zM285 688v520l-117 -67q-12 -6 -18 -6q-17 0 -17 16v149q0 13 14 21l177 104q15 9 30 9h78q21 0 21 -21v-725q0 -20 -21 -20h-127q-20 0 -20 20z" />
    <glyph glyph-name="twothirds" unicode="&#x2154;" horiz-adv-x="1959" 
d="M1446 342v119q0 20 20 20h60q46 0 69 21t23 57q0 28 -19.5 46t-58.5 18q-69 0 -96 -74q-5 -11 -8 -14t-13 -3h-125q-20 0 -20 19q6 100 79 163.5t183 63.5q116 0 183 -60t67 -153q0 -98 -80 -151q113 -56 113 -174q0 -125 -79.5 -188.5t-201.5 -63.5q-118 0 -201.5 72.5
t-83.5 175.5q0 20 21 20h137q13 0 19 -16q1 -3 2 -4q24 -84 114 -84q44 0 69.5 23t25.5 61q0 86 -103 86h-76q-20 0 -20 20zM418 117l1145 1310q12 16 28 0l90 -81q14 -14 5 -29l-1145 -1311q-13 -16 -29 0l-90 82q-13 13 -4 29zM164 688v94q0 20 12 29l318 254
q35 29 49 57.5t14 69.5q0 40 -27 65t-75 25q-43 0 -76.5 -25.5t-40.5 -70.5q-3 -21 -21 -21h-127q-20 0 -20 21q5 108 84.5 184t200.5 76q119 0 193.5 -68t74.5 -159q0 -89 -28 -142t-97 -110l-162 -136h283q20 0 20 -20v-123q0 -20 -20 -20h-535q-20 0 -20 20z" />
    <glyph glyph-name="oneeighth" unicode="&#x215b;" horiz-adv-x="1773" 
d="M227 117l1145 1310q13 16 29 0l90 -81q13 -13 4 -29l-1145 -1311q-12 -16 -28 0l-91 82q-13 13 -4 29zM285 688v520l-117 -67q-12 -6 -18 -6q-17 0 -17 16v149q0 13 14 21l177 104q15 9 30 9h78q21 0 21 -21v-725q0 -20 -21 -20h-127q-20 0 -20 20zM1094 561
q0 96 74 156.5t178 60.5t177.5 -60.5t73.5 -156.5q0 -90 -86 -155q47 -25 79 -72t32 -103q0 -114 -75.5 -178.5t-200.5 -64.5t-201 64.5t-76 178.5q0 56 32 103t79 72q-86 65 -86 155zM1260 231q0 -37 24.5 -60.5t61.5 -23.5t61.5 23.5t24.5 60.5q0 38 -24.5 63t-61.5 25
t-61.5 -25t-24.5 -63zM1266 551q0 -35 22.5 -57.5t57.5 -22.5t57 22.5t22 57.5q0 37 -21.5 58.5t-57.5 21.5t-58 -22t-22 -58z" />
    <glyph glyph-name="threeeighths" unicode="&#x215c;" horiz-adv-x="1826" 
d="M1147 561q0 96 74 156.5t178 60.5t178 -60.5t74 -156.5q0 -90 -86 -155q46 -25 78 -71.5t32 -103.5q0 -114 -75.5 -178.5t-200.5 -64.5t-201 64.5t-76 178.5q0 56 32 103t79 72q-86 65 -86 155zM1313 231q0 -37 24.5 -60.5t61.5 -23.5t61.5 23.5t24.5 60.5q0 38 -24.5 63
t-61.5 25t-61.5 -25t-24.5 -63zM1319 551q0 -35 22.5 -57.5t57.5 -22.5t57.5 22.5t22.5 57.5q0 36 -22 58t-58 22t-58 -22t-22 -58zM281 1010v118q0 21 20 21h59q46 0 69.5 21t23.5 57q0 28 -19.5 45.5t-58.5 17.5q-69 0 -96 -73q-5 -11 -8 -14t-13 -3h-125q-20 0 -20 19
q6 100 79 163.5t183 63.5q116 0 183 -60t67 -153q0 -48 -22 -88t-58 -64q112 -55 112 -174q0 -125 -79 -188.5t-201 -63.5q-118 0 -201.5 72.5t-83.5 175.5q0 21 21 21h137q3 0 5.5 -0.5t4.5 -1.5t3.5 -3.5t2 -4t2 -5.5t2.5 -6q24 -84 115 -84q44 0 69 22.5t25 61.5
q0 86 -102 86h-76q-20 0 -20 21zM281 117l1144 1310q13 16 29 0l90 -81q13 -13 4 -29l-1145 -1311q-12 -16 -28 0l-90 82q-13 13 -4 29z" />
    <glyph glyph-name="fiveeighths" unicode="&#x215d;" horiz-adv-x="1816" 
d="M270 117l1145 1310q13 16 29 0l90 -81q13 -13 4 -29l-1145 -1311q-12 -16 -28 0l-91 82q-13 13 -4 29zM1137 561q0 96 74 156.5t178 60.5t177.5 -60.5t73.5 -156.5q0 -90 -86 -155q47 -25 79 -72t32 -103q0 -114 -75.5 -178.5t-200.5 -64.5t-201 64.5t-76 178.5
q0 56 32 103t79 72q-86 65 -86 155zM1303 231q0 -37 24.5 -60.5t61.5 -23.5t61.5 23.5t24.5 60.5q0 38 -24.5 63t-61.5 25t-61.5 -25t-24.5 -63zM1309 551q0 -35 22.5 -57.5t57.5 -22.5t57 22.5t22 57.5q0 37 -22 58.5t-57 21.5q-36 0 -58 -22t-22 -58zM119 1026l47 391
q3 17 20 17h426q21 0 21 -21v-123q0 -20 -21 -20h-301l-20 -123q54 29 139 29q112 0 178 -68t66 -193q0 -126 -80.5 -193t-200.5 -67q-117 0 -193 68t-81 174q0 21 20 21h127q12 0 18 -13q0 -1 1 -3l2 -5q22 -78 102 -78q105 0 105 105q0 46 -25 73t-74 27q-47 0 -75 -6.5
t-58 -28.5q-8 -8 -33 -4l-100 25q-10 3 -10 16z" />
    <glyph glyph-name="seveneighths" unicode="&#x215e;" horiz-adv-x="1761" 
d="M215 117l1145 1310q13 16 29 0l90 -81q13 -13 4 -29l-1145 -1311q-13 -16 -29 0l-90 82q-13 13 -4 29zM1081 561q0 96 74 156.5t178 60.5t178 -60.5t74 -156.5q0 -90 -86 -155q47 -25 79 -72t32 -103q0 -114 -76 -178.5t-201 -64.5t-200.5 64.5t-75.5 178.5
q0 57 32 103.5t78 71.5q-86 65 -86 155zM1247 231q0 -37 24.5 -60.5t61.5 -23.5t61.5 23.5t24.5 60.5q0 38 -24.5 63t-61.5 25t-61.5 -25t-24.5 -63zM1253 551q0 -35 22.5 -57.5t57.5 -22.5t57.5 22.5t22.5 57.5q0 36 -22 58t-58 22t-58 -22t-22 -58zM180 1290v123
q0 21 21 21h495q21 0 21 -21v-78q0 -16 -8 -35l-209 -614q-6 -18 -25 -18h-151q-17 0 -17 12q0 2 4 14l199 576h-309q-21 0 -21 20z" />
    <glyph glyph-name="partialdiff" unicode="&#x2202;" horiz-adv-x="1191" 
d="M827 979q-89 128 -222 180.5t-312 52.5q-17 0 -17 29v178q0 15 29 15q394 0 599.5 -214.5t205.5 -598.5q0 -307 -134 -474t-380 -167q-234 0 -377 151.5t-143 382.5t140.5 383t350.5 152q85 0 141.5 -16t118.5 -54zM338 514q0 -143 67.5 -228t190.5 -85q117 0 186.5 83.5
t69.5 229.5q0 141 -70.5 227t-185.5 86q-123 0 -190.5 -85t-67.5 -228z" />
    <glyph glyph-name="Delta" unicode="&#x2206;" horiz-adv-x="1372" 
d="M831 1413l476 -1167q8 -23 8 -53v-173q0 -20 -21 -20h-1216q-21 0 -21 20v173q0 27 9 53l475 1167q9 21 26 21h238q17 0 26 -21zM1061 238l-375 958l-375 -958h750z" />
    <glyph glyph-name="product" unicode="&#x220f;" horiz-adv-x="1286" 
d="M406 1196v-1581q0 -21 -21 -21h-217q-21 0 -21 21v1798q0 21 21 21h950q21 0 21 -21v-1798q0 -21 -21 -21h-217q-20 0 -20 21v1581h-475z" />
    <glyph glyph-name="summation" unicode="&#x2211;" horiz-adv-x="1234" 
d="M63 -385v205q0 17 17 41l459 608q18 24 18 45t-18 45l-459 608q-17 20 -17 41v205q0 21 21 21h1059q20 0 20 -21v-196q0 -21 -20 -21h-768l454 -616q21 -27 21 -66q0 -44 -21 -65l-454 -617h801q20 0 20 -20v-197q0 -21 -20 -21h-1092q-21 0 -21 21z" />
    <glyph glyph-name="minus" unicode="&#x2212;" horiz-adv-x="1171" 
d="M125 815h922q20 0 20 -20v-189q0 -20 -20 -20h-922q-21 0 -21 20v189q0 20 21 20z" />
    <glyph glyph-name="radical" unicode="&#x221a;" horiz-adv-x="1179" 
d="M227 590h-155q-21 0 -21 20v181q0 20 21 20h311q23 0 29 -20l163 -480l355 1102q9 21 28 21h211q15 0 15 -11q0 -6 -2 -10l-463 -1393q-9 -20 -27 -20h-227q-18 0 -27 20z" />
    <glyph glyph-name="infinity" unicode="&#x221e;" horiz-adv-x="1744" 
d="M94 653q0 154 94.5 259.5t264.5 105.5q133 0 245 -70t174 -176q63 107 174 176.5t246 69.5q170 0 264.5 -105.5t94.5 -259.5t-94.5 -259t-264.5 -105q-135 0 -246 69.5t-174 176.5q-62 -106 -174 -176t-245 -70q-170 0 -264.5 105t-94.5 259zM262 653q0 -99 55.5 -159
t147.5 -60q99 0 173.5 54t135.5 165q-61 111 -135.5 165t-173.5 54q-92 0 -147.5 -60t-55.5 -159zM1483 653q0 99 -55.5 159t-147.5 60q-99 0 -173.5 -54t-135.5 -165q61 -111 135.5 -165t173.5 -54q92 0 147.5 60t55.5 159z" />
    <glyph glyph-name="integral" unicode="&#x222b;" horiz-adv-x="966" 
d="M608 1073l-155 -1128q-26 -187 -125 -279t-256 -92q-131 0 -217 39q-11 5 -14 11.5t-3 23.5v180q0 22 15 22q7 0 16 -6q88 -49 182 -49q135 0 156 160l155 1128q25 183 128.5 277t252.5 94q132 0 218 -39q10 -4 13 -10.5t3 -24.5v-180q0 -22 -12 -22q-10 0 -19 6
q-94 49 -182 49q-135 0 -156 -160z" />
    <glyph glyph-name="approxequal" unicode="&#x2248;" horiz-adv-x="1112" 
d="M96 901q47 35 119 56.5t131 21.5q72 0 133 -13t95.5 -29t78.5 -29t86 -13q82 0 156 51q12 4 14 4q11 0 21 -16l98 -168q2 -2 2 -8q0 -15 -18 -27q-47 -35 -119 -56.5t-131 -21.5q-72 0 -133 13t-95.5 29t-78.5 29t-86 13q-82 0 -156 -51q-12 -4 -14 -4q-11 0 -21 16
l-98 168q-2 2 -2 8q0 15 18 27zM96 496q47 35 119 56t131 21q72 0 133 -13t95.5 -29t78.5 -29t86 -13q80 0 156 52q12 4 14 4q11 0 21 -17l98 -168q2 -2 2 -8q0 -14 -18 -26q-47 -35 -119 -56.5t-131 -21.5q-72 0 -133 13t-95.5 29t-78.5 29t-86 13q-82 0 -156 -51
q-2 -1 -5 -2t-5 -2t-4 -1q-11 0 -21 17l-98 168q-2 2 -2 8q0 15 18 27z" />
    <glyph glyph-name="notequal" unicode="&#x2260;" horiz-adv-x="1171" 
d="M152 522h272l106 187h-378q-21 0 -21 20v189q0 20 21 20h510l180 309q7 10 12 10q6 0 14 -4l164 -94q10 -7 10 -14t-4 -15l-114 -192h141q20 0 20 -20v-189q0 -20 -20 -20h-272l-107 -187h379q20 0 20 -20v-189q0 -20 -20 -20h-510l-180 -309q-7 -11 -13 -11t-14 4
l-164 95q-10 3 -10 14q0 6 4 14l115 193h-141q-21 0 -21 20v189q0 20 21 20z" />
    <glyph glyph-name="lessequal" unicode="&#x2264;" horiz-adv-x="1171" 
d="M125 229h922q20 0 20 -20v-189q0 -20 -20 -20h-922q-21 0 -21 20v189q0 20 21 20zM999 518v-225q0 -21 -20 -12l-789 401q-20 11 -20 27v196q0 16 20 27l789 401q20 9 20 -12v-225q0 -20 -20 -29l-518 -260l518 -260q20 -9 20 -29z" />
    <glyph glyph-name="greaterequal" unicode="&#x2265;" horiz-adv-x="1171" 
d="M125 229h922q20 0 20 -20v-189q0 -20 -20 -20h-922q-21 0 -21 20v189q0 20 21 20zM172 293v225q0 20 21 29l518 260l-518 260q-21 9 -21 29v225q0 21 21 12l788 -401q20 -11 20 -27v-196q0 -16 -20 -27l-788 -401q-21 -9 -21 12z" />
    <glyph glyph-name="lozenge" unicode="&#x25ca;" horiz-adv-x="1138" 
d="M694 1413l410 -676q6 -12 6 -20q0 -9 -6 -21l-410 -676q-9 -20 -28 -20h-205q-20 0 -29 20l-397 676q-6 12 -6 21q0 8 6 20l397 676q9 21 29 21h205q19 0 28 -21zM569 1204l-288 -487l288 -488l289 488z" />
    <glyph glyph-name="apple" unicode="&#xf8ff;" horiz-adv-x="1556" 
d="M1384 1264v-1219q0 -18 -12.5 -31.5t-32.5 -13.5q-8 0 -14 2l-547 158l-547 -158q-6 -2 -14 -2q-20 0 -32.5 13.5t-12.5 31.5v1219q0 36 33 45l553 159l20 5q1 0 21 -5l553 -159q32 -8 32 -45zM733 750v620l-471 -137q12 -190 146 -328t325 -155zM823 1370v-620
q191 17 325 155t146 328zM260 948v-844l473 138v417q-151 12 -275 88.5t-198 200.5zM1296 104v844q-76 -125 -199 -201t-274 -88v-417z" />
    <glyph glyph-name="fi" unicode="&#xfb01;" horiz-adv-x="1204" 
d="M737 807h-282v-787q0 -20 -21 -20h-205q-20 0 -20 20v787h-164q-20 0 -20 20v181q0 20 20 20h164v88q0 159 89 248.5t245 89.5q113 0 213 -43q8 -3 11.5 -8.5t4 -10.5t0.5 -16v-176q0 -16 -12 -16q-5 0 -17 4q-91 45 -165 45q-123 0 -123 -137v-68h282q21 0 21 -20v-181
q0 -20 -21 -20zM862 20v988q0 20 21 20h204q21 0 21 -20v-988q0 -20 -21 -20h-204q-21 0 -21 20zM848 1180v233q0 21 20 21h234q20 0 20 -21v-233q0 -21 -20 -21h-234q-20 0 -20 21z" />
    <glyph glyph-name="fl" unicode="&#xfb02;" horiz-adv-x="1253" 
d="M737 807h-282v-787q0 -20 -21 -20h-205q-20 0 -20 20v787h-164q-20 0 -20 20v181q0 20 20 20h164v88q0 159 89 248.5t245 89.5q113 0 213 -43q8 -3 11.5 -8.5t4 -10.5t0.5 -16v-176q0 -16 -12 -16q-5 0 -17 4q-91 45 -165 45q-123 0 -123 -137v-68h282q21 0 21 -20v-181
q0 -20 -21 -20zM887 20v1393q0 21 20 21h205q21 0 21 -21v-1393q0 -20 -21 -20h-205q-20 0 -20 20z" />
    <glyph glyph-name="sterling.tosn" 
d="M211 584h94q-1 2 -6 16t-6.5 18.5t-5.5 17t-5.5 20.5t-3.5 20t-3 24t-1 25q0 146 109.5 235t273.5 89q174 0 290 -93t120 -249q0 -21 -20 -21h-189q-3 0 -5.5 0.5t-4.5 1.5t-3.5 3.5t-2 4t-2 5.5t-2.5 6q-23 64 -66.5 92t-114.5 28q-63 0 -105 -39t-42 -108q0 -57 20 -96
h355q20 0 20 -21v-143q0 -21 -20 -21h-301q-4 -53 -24.5 -92.5t-61.5 -85.5h567q20 0 20 -20v-181q0 -20 -20 -20h-827q-21 0 -21 20v160q0 25 16 41q56 48 83 87t34 91h-139q-21 0 -21 21v143q0 21 21 21z" />
    <glyph glyph-name="dollar.tosn" 
d="M1071 305q0 -126 -92.5 -211.5t-247.5 -105.5v-172q0 -21 -20 -21h-156q-20 0 -20 21v172q-155 23 -248 116t-103 238q0 20 21 20h207q17 0 20 -20q14 -88 103 -125v221q-169 35 -247.5 106t-78.5 185q0 71 27 128.5t73.5 95t103 60t122.5 31.5v164q0 21 20 21h156
q20 0 20 -21v-172q138 -26 221.5 -107.5t94.5 -195.5q0 -20 -21 -20h-207q-19 0 -28 20q-24 52 -60 74v-205q168 -31 254 -99t86 -198zM825 301q0 55 -94 90v-182q43 11 68.5 34.5t25.5 57.5zM455 735q0 -54 80 -86v174q-80 -24 -80 -88z" />
    <glyph glyph-name="yen.tosn" 
d="M268 631h152l-221 377q-2 2 -2 8q0 12 12 12h227q17 0 27 -16l172 -307l172 307q10 16 27 16h227q12 0 12 -12q0 -6 -2 -8l-221 -377h151q21 0 21 -21v-143q0 -21 -21 -21h-243v-104h203q20 0 20 -20v-144q0 -20 -20 -20h-203v-138q0 -20 -21 -20h-205q-20 0 -20 20v138
h-203q-20 0 -20 20v144q0 20 20 20h203v104h-244q-20 0 -20 21v143q0 21 20 21z" />
    <glyph glyph-name="cent.tosn" 
d="M555 -182v174q-182 37 -295 179.5t-113 342.5q0 201 112.5 342t295.5 178v176q0 21 20 21h197q21 0 21 -21v-176q153 -29 252 -125.5t120 -226.5q2 -8 2 -20q0 -13 -14 -13h-201q-21 0 -28 19q-37 97 -131 137v-584q94 37 131 139q7 19 28 19h201q14 0 14 -12
q0 -13 -2 -21q-21 -131 -120 -228t-252 -126v-174q0 -21 -21 -21h-197q-20 0 -20 21zM401 514q0 -108 40.5 -184t113.5 -109v584q-73 -36 -113.5 -110t-40.5 -181z" />
    <glyph glyph-name="multiply.tosn" 
d="M1042 762l-245 -246l245 -246q7 -7 7 -14t-7 -14l-133 -133q-9 -9 -14 -9t-14 9l-246 245l-246 -245q-9 -9 -14 -9q-6 0 -15 9l-133 133q-6 6 -6 14t6 14l246 246l-246 246q-6 6 -6 14q0 9 6 15l133 133q8 8 15 8q6 0 14 -8l246 -246l246 246q8 8 14 8t14 -8l133 -133
q7 -7 7 -15q0 -7 -7 -14z" />
    <glyph glyph-name="plus.tosn" 
d="M750 977v-346h346q20 0 20 -21v-188q0 -21 -20 -21h-346v-346q0 -20 -21 -20h-188q-21 0 -21 20v346h-346q-20 0 -20 21v188q0 21 20 21h346v346q0 20 21 20h188q21 0 21 -20z" />
    <glyph glyph-name="minus.tosn" 
d="M174 631h922q20 0 20 -21v-188q0 -21 -20 -21h-922q-20 0 -20 21v188q0 21 20 21z" />
    <glyph glyph-name="divide.tosn" 
d="M524 262h221q21 0 21 -20v-222q0 -20 -21 -20h-221q-20 0 -20 20v222q0 20 20 20zM524 946h221q21 0 21 -20v-221q0 -21 -21 -21h-221q-20 0 -20 21v221q0 20 20 20zM174 588h922q20 0 20 -21v-188q0 -21 -20 -21h-922q-20 0 -20 21v188q0 21 20 21z" />
    <glyph glyph-name="Euro.tosn" 
d="M152 465h106q-2 16 -2 49t2 49h-106q-21 0 -21 21v143q0 21 21 21h149q61 141 180 221t277 80q197 0 316 -100.5t143 -274.5q0 -21 -21 -21h-197q-14 0 -20 21q-21 70 -78.5 111.5t-142.5 41.5q-123 0 -191 -79h193q20 0 20 -21v-143q0 -21 -20 -21h-256q-2 -16 -2 -49
q0 -35 2 -49h256q20 0 20 -21v-143q0 -20 -20 -20h-193q66 -80 191 -80q85 0 142.5 41.5t78.5 111.5q6 21 20 21h197q21 0 21 -21q-24 -174 -143 -274t-316 -100q-158 0 -277 80t-180 221h-149q-21 0 -21 20v143q0 21 21 21z" />
    <glyph glyph-name="equal.tosn" 
d="M178 819h914q20 0 20 -20v-189q0 -20 -20 -20h-914q-20 0 -20 20v189q0 20 20 20zM178 403h914q20 0 20 -20v-188q0 -21 -20 -21h-914q-20 0 -20 21v188q0 20 20 20z" />
    <glyph glyph-name="zero.tosn" 
d="M84 514q0 124 43.5 226t118.5 169t175 103.5t214 36.5t214 -36.5t175 -103.5t118.5 -169t43.5 -226q0 -164 -75 -287t-199 -185t-277 -62t-277 62t-199 185t-75 287zM330 514q0 -136 85.5 -224.5t219.5 -88.5t219.5 88.5t85.5 224.5t-85.5 224.5t-219.5 88.5
t-219.5 -88.5t-85.5 -224.5z" />
    <glyph glyph-name="one.tosn" 
d="M223 221h305v510l-239 -133q-12 -6 -23 -6q-14 0 -14 18v203q0 18 22 31l306 174q17 10 30 10h135q21 0 21 -20v-787h326q20 0 20 -20v-181q0 -20 -20 -20h-869q-20 0 -20 20v181q0 20 20 20z" />
    <glyph glyph-name="two.tosn" 
d="M221 20v132q0 27 23 47l411 333q95 74 95 168q0 59 -34.5 93t-92.5 34q-63 0 -105.5 -37.5t-48.5 -107.5q-1 -18 -7 -24.5t-20 -6.5h-188q-25 0 -25 31q7 170 116.5 268.5t268.5 98.5q176 0 274.5 -93.5t98.5 -230.5q0 -109 -40 -182.5t-134 -151.5l-205 -170h383
q21 0 21 -20v-181q0 -20 -21 -20h-749q-21 0 -21 20z" />
    <glyph glyph-name="three.tosn" 
d="M518 336v180q0 21 21 21h120q79 0 113.5 42t34.5 103q0 64 -42 104.5t-118 40.5q-67 0 -118 -39t-64 -120q-4 -16 -8.5 -19.5t-16.5 -3.5h-182q-25 0 -25 31q5 109 63.5 195t150.5 132t200 46q182 0 289.5 -98t107.5 -259q0 -146 -141 -254q187 -102 187 -319
q0 -184 -124 -293t-323 -109q-175 0 -306.5 112t-143.5 298q0 31 24 31h186q12 0 17.5 -4.5t9.5 -20.5q23 -102 77 -148t144 -46q93 0 143 49.5t50 148.5q0 79 -48 128.5t-141 49.5h-116q-21 6 -21 21z" />
    <glyph glyph-name="four.tosn" 
d="M692 -262v262h-512q-20 0 -20 20v138q0 25 16 47l541 807q10 16 26 16h175q20 0 20 -20v-787h172q20 0 20 -20v-181q0 -20 -20 -20h-172v-262q0 -21 -23 -21h-202q-21 0 -21 21zM692 590l-237 -369h237v369z" />
    <glyph glyph-name="five.tosn" 
d="M213 299l78 709q3 20 20 20h715q21 0 21 -20v-181q0 -20 -21 -20h-526l-43 -275q68 36 123.5 50t128.5 14q180 0 292.5 -111.5t112.5 -322.5q0 -210 -127 -327.5t-325 -117.5q-120 0 -222 48t-167 140.5t-70 211.5q0 30 24 30h187q12 0 16.5 -5.5t9.5 -24.5
q23 -87 80 -132.5t142 -45.5q106 0 159 60t53 159q0 104 -54 160.5t-158 56.5q-116 0 -226 -78q-1 -1 -6.5 -6t-8 -6.5t-8.5 -3.5t-12 -2h-168q-20 0 -20 20z" />
    <glyph glyph-name="six.tosn" 
d="M197 578q0 221 52 384t159.5 256t261.5 93q159 0 278 -100.5t131 -270.5q0 -13 -5 -16.5t-17 -3.5h-187q-16 0 -22 20q-24 78 -66 114t-118 36q-82 0 -142 -76.5t-82 -233.5q122 80 271 80q175 0 288 -117t113 -325q0 -193 -128.5 -315.5t-321.5 -122.5q-96 0 -177 33.5
t-147 102.5t-103.5 187t-37.5 275zM451 418q0 -98 57 -157.5t149 -59.5t148.5 59.5t56.5 157.5q0 99 -56.5 160t-148.5 61t-149 -61.5t-57 -159.5z" />
    <glyph glyph-name="seven.tosn" 
d="M268 827v181q0 20 21 20h778q20 0 20 -20v-140q0 -13 -10 -43l-403 -1093q-3 -15 -23 -15h-194q-21 0 -21 17q0 8 2 10l391 1063h-540q-21 0 -21 20z" />
    <glyph glyph-name="eight.tosn" 
d="M242 946q0 168 111.5 266.5t281.5 98.5t281.5 -98.5t111.5 -266.5q0 -156 -141 -258q176 -103 176 -309q0 -182 -119.5 -290.5t-308.5 -108.5t-308.5 108.5t-119.5 290.5q0 206 176 309q-141 102 -141 258zM453 379q0 -84 50 -135t132 -51t132 51t50 135t-50 134t-132 50
t-132 -50t-50 -134zM479 940q0 -71 44.5 -113.5t111.5 -42.5t111.5 42.5t44.5 113.5q0 69 -45.5 109.5t-110.5 40.5t-110.5 -40.5t-45.5 -109.5z" />
    <glyph glyph-name="nine.tosn" 
d="M1075 451q0 -221 -52 -384t-159.5 -256.5t-261.5 -93.5q-159 0 -278 100.5t-131 270.5q0 21 22 21h186q17 0 23 -21q24 -77 66 -113t118 -36q80 0 140.5 76.5t82.5 232.5q-122 -80 -270 -80q-175 0 -288 117t-113 325q0 193 128.5 316t321.5 123q96 0 177 -33.5
t147 -102.5t103.5 -187t37.5 -275zM821 610q0 98 -57 157.5t-150 59.5q-92 0 -148 -59.5t-56 -157.5q0 -99 56 -160t148 -61t149.5 61.5t57.5 159.5z" />
    <glyph glyph-name="sterling.posn" horiz-adv-x="1091" 
d="M111 584h94q-1 2 -6 16t-6.5 18.5t-5.5 17t-5.5 20.5t-3.5 20t-3 24t-1 25q0 146 109.5 235t273.5 89q174 0 290 -93t120 -249q0 -21 -21 -21h-188q-12 0 -18 13q0 1 -1 3l-2 5q-23 65 -66 92.5t-114 27.5q-63 0 -105 -39t-42 -108q0 -57 20 -96h354q21 0 21 -21v-143
q0 -21 -21 -21h-301q-4 -53 -24.5 -92.5t-61.5 -85.5h568q20 0 20 -20v-181q0 -20 -20 -20h-828q-20 0 -20 20v160q0 25 16 41q56 48 83 87t34 91h-139q-21 0 -21 21v143q0 21 21 21z" />
    <glyph glyph-name="dollar.posn" horiz-adv-x="1024" 
d="M948 305q0 -126 -92.5 -211.5t-247.5 -105.5v-172q0 -21 -20 -21h-156q-20 0 -20 21v172q-155 23 -248 116t-103 238q0 20 21 20h207q17 0 20 -20q14 -88 103 -125v221q-169 35 -247.5 106t-78.5 185q0 71 27 128.5t73.5 95t103 60t122.5 31.5v164q0 21 20 21h156
q20 0 20 -21v-172q138 -26 221.5 -107.5t94.5 -195.5q0 -20 -21 -20h-207q-19 0 -28 20q-24 52 -60 74v-205q168 -31 254 -99t86 -198zM702 301q0 55 -94 90v-182q43 11 68.5 34.5t25.5 57.5zM332 735q0 -54 80 -86v174q-80 -24 -80 -88z" />
    <glyph glyph-name="yen.posn" horiz-adv-x="974" 
d="M121 631h151l-221 377q-2 2 -2 8q0 12 12 12h228q16 0 26 -16l172 -307l172 307q10 16 27 16h227q13 0 13 -12q0 -6 -2 -8l-222 -377h152q20 0 20 -21v-143q0 -21 -20 -21h-244v-104h203q21 0 21 -20v-144q0 -20 -21 -20h-203v-138q0 -20 -20 -20h-205q-20 0 -20 20v138
h-203q-21 0 -21 20v144q0 20 21 20h203v104h-244q-21 0 -21 21v143q0 21 21 21z" />
    <glyph glyph-name="cent.posn" horiz-adv-x="1161" 
d="M481 -182v174q-182 37 -294.5 179t-112.5 343t112.5 342t294.5 178v176q0 21 21 21h196q21 0 21 -21v-176q153 -29 252.5 -126t120.5 -226q2 -8 2 -20q0 -13 -15 -13h-200q-22 0 -29 19q-37 97 -131 137v-584q94 37 131 139q7 19 29 19h200q15 0 15 -12q0 -13 -2 -21
q-21 -131 -120.5 -228t-252.5 -126v-174q0 -21 -21 -21h-196q-21 0 -21 21zM328 514q0 -108 40 -184.5t113 -108.5v584q-153 -75 -153 -291z" />
    <glyph glyph-name="multiply.posn" horiz-adv-x="1036" 
d="M926 762l-246 -246l246 -246q6 -6 6 -14t-6 -14l-133 -133q-9 -9 -15 -9q-5 0 -14 9l-246 245l-246 -245q-9 -9 -14 -9t-14 9l-133 133q-7 7 -7 14t7 14l245 246l-245 246q-7 7 -7 14q0 8 7 15l133 133q8 8 14 8t14 -8l246 -246l246 246q8 8 14 8q7 0 15 -8l133 -133
q6 -6 6 -15q0 -8 -6 -14z" />
    <glyph glyph-name="plus.posn" horiz-adv-x="1171" 
d="M700 977v-346h347q20 0 20 -21v-188q0 -21 -20 -21h-347v-346q0 -20 -20 -20h-188q-21 0 -21 20v346h-346q-21 0 -21 21v188q0 21 21 21h346v346q0 20 21 20h188q20 0 20 -20z" />
    <glyph glyph-name="minus.posn" horiz-adv-x="1171" 
d="M125 631h922q20 0 20 -21v-188q0 -21 -20 -21h-922q-21 0 -21 21v188q0 21 21 21z" />
    <glyph glyph-name="divide.posn" horiz-adv-x="1171" 
d="M475 262h221q21 0 21 -20v-222q0 -20 -21 -20h-221q-20 0 -20 20v222q0 20 20 20zM475 946h221q21 0 21 -20v-221q0 -21 -21 -21h-221q-20 0 -20 21v221q0 20 20 20zM125 588h922q20 0 20 -21v-188q0 -21 -20 -21h-922q-21 0 -21 21v188q0 21 21 21z" />
    <glyph glyph-name="Euro.posn" horiz-adv-x="1218" 
d="M84 465h106q-2 16 -2 49t2 49h-106q-21 0 -21 21v143q0 21 21 21h149q61 141 180 221t277 80q197 0 316 -100.5t143 -274.5q0 -21 -21 -21h-196q-15 0 -21 21q-21 70 -78.5 111.5t-142.5 41.5q-122 0 -190 -79h192q21 0 21 -21v-143q0 -21 -21 -21h-256q-2 -16 -2 -49
q0 -35 2 -49h256q21 0 21 -21v-143q0 -20 -21 -20h-192q66 -80 190 -80q85 0 142.5 41.5t78.5 111.5q6 21 21 21h196q21 0 21 -21q-24 -174 -143 -274t-316 -100q-158 0 -277 80t-180 221h-149q-21 0 -21 20v143q0 21 21 21z" />
    <glyph glyph-name="equal.posn" horiz-adv-x="1171" 
d="M129 819h913q21 0 21 -20v-189q0 -20 -21 -20h-913q-20 0 -20 20v189q0 20 20 20zM129 403h913q21 0 21 -20v-188q0 -21 -21 -21h-913q-20 0 -20 21v188q0 20 20 20z" />
    <glyph glyph-name="zero.posn" horiz-adv-x="1273" 
d="M86 514q0 124 43.5 226t118.5 169t175 103.5t214 36.5t214 -36.5t175 -103.5t118.5 -169t43.5 -226q0 -164 -75 -287t-199 -185t-277 -62t-277 62t-199 185t-75 287zM332 514q0 -136 85.5 -224.5t219.5 -88.5t219.5 88.5t85.5 224.5t-85.5 224.5t-219.5 88.5
t-219.5 -88.5t-85.5 -224.5z" />
    <glyph glyph-name="one.posn" horiz-adv-x="718" 
d="M356 20v715l-200 -110q-14 -7 -23 -7q-14 0 -14 19v203q0 17 22 30l252 148q17 10 31 10h149q21 0 21 -20v-988q0 -20 -21 -20h-196q-21 0 -21 20z" />
    <glyph glyph-name="two.posn" horiz-adv-x="1015" 
d="M94 20v132q0 27 23 47l411 333q95 74 95 168q0 59 -34.5 93t-92.5 34q-63 0 -105.5 -37.5t-48.5 -107.5q-1 -18 -7 -24.5t-20 -6.5h-188q-25 0 -25 31q7 170 116.5 268.5t268.5 98.5q176 0 274.5 -93.5t98.5 -230.5q0 -109 -40 -182.5t-134 -151.5l-205 -170h383
q21 0 21 -20v-181q0 -20 -21 -20h-749q-21 0 -21 20z" />
    <glyph glyph-name="three.posn" horiz-adv-x="1089" 
d="M418 336v180q0 21 20 21h121q79 0 113.5 42t34.5 103q0 64 -42 104.5t-118 40.5q-67 0 -118 -39t-64 -120q-4 -16 -8.5 -19.5t-16.5 -3.5h-182q-25 0 -25 31q5 109 63.5 195t150.5 132t200 46q182 0 289.5 -98t107.5 -259q0 -146 -141 -254q186 -101 186 -319
q0 -184 -123.5 -293t-322.5 -109q-175 0 -307 112t-144 298q0 31 25 31h186q12 0 17.5 -4.5t9.5 -20.5q23 -102 77 -148t144 -46q93 0 142.5 49.5t49.5 148.5q0 79 -47.5 128.5t-140.5 49.5h-117q-20 6 -20 21z" />
    <glyph glyph-name="four.posn" horiz-adv-x="1171" 
d="M653 -262v262h-512q-20 0 -20 20v138q0 25 16 47l541 807q10 16 27 16h174q20 0 20 -20v-787h172q21 0 21 -20v-181q0 -20 -21 -20h-172v-262q0 -21 -22 -21h-203q-21 0 -21 21zM653 590l-237 -369h237v369z" />
    <glyph glyph-name="five.posn" horiz-adv-x="1153" 
d="M141 299l78 709q3 20 21 20h714q21 0 21 -20v-181q0 -20 -21 -20h-526l-43 -275q68 36 123.5 50t128.5 14q180 0 292.5 -111.5t112.5 -322.5q0 -210 -127 -327.5t-325 -117.5q-120 0 -222 48t-167 140.5t-70 211.5q0 30 25 30h186q12 0 17.5 -5.5t9.5 -24.5
q23 -88 79.5 -133t141.5 -45q106 0 159.5 60t53.5 159q0 104 -54 160.5t-159 56.5q-115 0 -225 -78q-1 -1 -6.5 -6t-8 -6.5t-8.5 -3.5t-12 -2h-168q-21 0 -21 20z" />
    <glyph glyph-name="six.posn" horiz-adv-x="1169" 
d="M131 578q0 221 52 384t159.5 256t261.5 93q159 0 278.5 -100.5t131.5 -270.5q0 -12 -5.5 -16t-17.5 -4h-186q-17 0 -23 20q-24 78 -66 114t-118 36q-82 0 -141.5 -76.5t-81.5 -233.5q122 80 270 80q175 0 288.5 -117t113.5 -325q0 -193 -129 -315.5t-322 -122.5
q-96 0 -177 33.5t-147 102.5t-103.5 187t-37.5 275zM385 418q0 -98 57 -157.5t150 -59.5q92 0 148.5 59.5t56.5 157.5q0 99 -56.5 160t-148.5 61t-149.5 -61.5t-57.5 -159.5z" />
    <glyph glyph-name="seven.posn" horiz-adv-x="956" 
d="M82 827v181q0 20 20 20h779q20 0 20 -20v-140q0 -13 -10 -43l-404 -1093q-3 -15 -22 -15h-195q-20 0 -20 17q0 8 2 10l391 1063h-541q-20 0 -20 20z" />
    <glyph glyph-name="eight.posn" horiz-adv-x="1077" 
d="M145 946q0 168 111.5 266.5t282.5 98.5q170 0 281.5 -98.5t111.5 -266.5q0 -156 -141 -258q176 -103 176 -309q0 -182 -119.5 -290.5t-308.5 -108.5t-308.5 108.5t-119.5 290.5q0 206 176 309q-142 103 -142 258zM356 379q0 -84 50.5 -135t132.5 -51t132 51t50 135
t-50 134t-132 50t-132.5 -50t-50.5 -134zM383 940q0 -71 44.5 -113.5t111.5 -42.5t111 42.5t44 113.5q0 69 -45 109.5t-110 40.5t-110.5 -40.5t-45.5 -109.5z" />
    <glyph glyph-name="nine.posn" horiz-adv-x="1169" 
d="M1040 451q0 -221 -52 -384t-159.5 -256.5t-261.5 -93.5q-159 0 -278 100.5t-131 270.5q0 21 22 21h187q16 0 22 -21q24 -77 66 -113t118 -36q80 0 141 76.5t83 232.5q-122 -80 -271 -80q-175 0 -288 117t-113 325q0 193 128.5 316t321.5 123q96 0 177 -33.5t147 -102.5
t103.5 -187t37.5 -275zM786 610q0 98 -57 157.5t-149 59.5t-148.5 -59.5t-56.5 -157.5q0 -99 56.5 -160t148.5 -61t149 61.5t57 159.5z" />
    <glyph glyph-name="ampersand.alt" horiz-adv-x="1331" 
d="M1260 657h-175v-116q0 -146 -38 -255.5t-108 -175.5t-161.5 -98t-204.5 -32q-211 0 -343 119t-132 325q0 71 18.5 130t52 101.5t68.5 71t80 53.5q-77 59 -119 131.5t-42 180.5q0 91 33.5 161.5t92.5 113.5t135.5 65t166.5 22h190q21 0 21 -20v-189q0 -20 -21 -20h-162
q-101 0 -160 -44.5t-59 -121.5q0 -83 58 -123.5t161 -40.5h228v176q0 21 20 21h205q20 0 20 -21v-176h175q22 0 22 -23v-192q0 -17 -22 -23zM840 541v116h-232q-112 0 -188 -63t-76 -160q0 -217 240 -217q115 0 185.5 84t70.5 240z" />
    <glyph glyph-name="braceleft.ss04" horiz-adv-x="786" 
d="M483 545v-135q0 -88 32 -130t106 -42h59q20 0 20 -21v-197q0 -20 -20 -20h-96q-183 0 -269 85.5t-86 293.5v82q0 137 -123 137h-59q-20 0 -20 20v197q0 21 20 21h59q123 0 123 137v82q0 206 86 292.5t269 86.5h96q20 0 20 -21v-196q0 -21 -20 -21h-59q-74 0 -106 -42
t-32 -130v-135q0 -76 -29.5 -113.5t-99.5 -58.5q70 -21 99.5 -58.5t29.5 -113.5z" />
    <glyph glyph-name="braceright.ss04" horiz-adv-x="786" 
d="M303 410v135q0 76 29.5 113.5t99.5 58.5q-70 21 -99.5 58.5t-29.5 113.5v135q0 88 -32 130t-105 42h-60q-20 0 -20 21v196q0 21 20 21h97q183 0 268.5 -86t85.5 -293v-82q0 -137 123 -137h59q21 0 21 -21v-197q0 -20 -21 -20h-59q-123 0 -123 -137v-82
q0 -208 -85.5 -293.5t-268.5 -85.5h-97q-20 0 -20 20v197q0 21 20 21h60q73 0 105 42t32 130z" />
    <glyph glyph-name="bracketleft.ss04" horiz-adv-x="837" 
d="M143 20v1393q0 21 21 21h571q21 0 21 -21v-196q0 -21 -21 -21h-334v-958h334q21 0 21 -21v-197q0 -20 -21 -20h-571q-21 0 -21 20z" />
    <glyph glyph-name="bracketright.ss04" horiz-adv-x="837" 
d="M694 1413v-1393q0 -20 -20 -20h-572q-20 0 -20 20v197q0 21 20 21h334v958h-334q-20 0 -20 21v196q0 21 20 21h572q20 0 20 -21z" />
    <glyph glyph-name="parenleft.ss04" horiz-adv-x="735" 
d="M412 737v-20q0 -112 11 -184.5t44.5 -135.5t78 -110.5t128.5 -118.5q8 -8 8 -14q0 -9 -6 -15l-131 -159q-9 -9 -15 -9q-5 0 -14 6q-125 94 -202.5 185.5t-118.5 204t-41 251.5v218q0 139 41 251.5t118.5 204t202.5 185.5q9 6 14 6q7 0 15 -8l131 -160q6 -6 6 -15
q0 -6 -8 -14q-84 -71 -128.5 -118.5t-78 -110.5t-44.5 -135.5t-11 -184.5z" />
    <glyph glyph-name="parenright.ss04" horiz-adv-x="735" 
d="M324 717v20q0 90 -9 154.5t-24.5 114.5t-50 97t-73 85.5t-106.5 97.5q-8 8 -8 14q0 9 6 15l131 160q8 8 15 8q5 0 14 -6q189 -142 276 -289.5t87 -351.5v-218q0 -204 -87 -351.5t-276 -289.5q-9 -6 -14 -6q-6 0 -15 9l-131 159q-6 6 -6 15q0 6 8 14q68 59 106.5 97.5
t73 85.5t50 97t24.5 114.5t9 154.5z" />
    <glyph glyph-name="braceleft.case" horiz-adv-x="794" 
d="M496 547v-338q0 -88 32 -130t105 -42h59q21 0 21 -21v-196q0 -21 -21 -21h-96q-183 0 -268.5 85.5t-85.5 293.5v285q0 137 -123 137h-60q-20 0 -20 21v196q0 21 20 21h60q123 0 123 137v285q0 206 85.5 292t268.5 86h96q21 0 21 -20v-197q0 -20 -21 -20h-59
q-73 0 -105 -42t-32 -130v-338q0 -76 -29.5 -113.5t-99.5 -58.5q70 -21 99.5 -58.5t29.5 -113.5z" />
    <glyph glyph-name="braceright.case" horiz-adv-x="794" 
d="M299 209v338q0 76 29.5 113.5t99.5 58.5q-70 21 -99.5 58.5t-29.5 113.5v338q0 88 -32 130t-105 42h-60q-20 0 -20 20v197q0 20 20 20h97q183 0 268.5 -86t85.5 -292v-285q0 -137 123 -137h59q21 0 21 -21v-196q0 -21 -21 -21h-59q-123 0 -123 -137v-285
q0 -208 -85.5 -293.5t-268.5 -85.5h-97q-20 0 -20 21v196q0 21 20 21h60q73 0 105 42t32 130z" />
    <glyph glyph-name="bracketleft.case" horiz-adv-x="837" 
d="M143 -180v1798q0 20 21 20h571q21 0 21 -20v-197q0 -20 -21 -20h-334v-1364h334q21 0 21 -21v-196q0 -21 -21 -21h-571q-21 0 -21 21z" />
    <glyph glyph-name="bracketright.case" horiz-adv-x="837" 
d="M694 1618v-1798q0 -21 -20 -21h-572q-20 0 -20 21v196q0 21 20 21h334v1364h-334q-20 0 -20 20v197q0 20 20 20h572q20 0 20 -20z" />
    <glyph glyph-name="parenleft.case" horiz-adv-x="731" 
d="M412 799v-158q0 -106 3 -173t15 -130t27.5 -102t50.5 -86.5t73 -84.5t105 -96q8 -8 8 -14q0 -8 -6 -14l-129 -148q-8 -8 -14 -8t-15 6q-151 120 -228 218t-112.5 227.5t-35.5 330.5v305q0 152 17 256.5t63.5 195t114 163t181.5 162.5q9 6 15 6t14 -8l129 -148q6 -6 6 -14
q0 -7 -8 -15q-67 -59 -105 -96t-73 -84.5t-50.5 -86t-27.5 -101.5t-15 -130t-3 -173z" />
    <glyph glyph-name="parenright.case" horiz-adv-x="741" 
d="M727 641v158q0 106 -3 173t-15 130t-27.5 101.5t-50.5 86t-73 84.5t-105 96q-9 9 -9 15q0 7 7 14l129 148q8 8 14 8q5 0 14 -6q114 -90 182 -162.5t114 -163t63.5 -195.5t17.5 -256v-305q0 -151 -17.5 -256t-64 -195.5t-114 -162.5t-181.5 -162q-9 -6 -14 -6q-6 0 -14 8
l-129 148q-7 7 -7 14q0 5 9 14q67 59 105 96t73 84.5t50.5 86.5t27.5 102t15 130t3 173z" />
    <glyph glyph-name="bullet.case" horiz-adv-x="786" 
d="M160 717q0 97 68 165t165 68t165.5 -68t68.5 -165t-68.5 -165.5t-165.5 -68.5t-165 68.5t-68 165.5z" />
    <glyph glyph-name="exclamdown.case" horiz-adv-x="618" 
d="M416 0h-213q-21 0 -21 20v998q0 20 21 20h213q20 0 20 -20v-998q0 -20 -20 -20zM428 1155h-238q-20 0 -20 21v237q0 21 20 21h238q21 0 21 -21v-237q0 -21 -21 -21z" />
    <glyph glyph-name="questiondown.case" horiz-adv-x="1167" 
d="M1036 414q-2 -83 -36 -160.5t-94 -138.5t-152 -98t-201 -37q-199 0 -320.5 103.5t-121.5 258.5q0 73 18.5 132.5t47.5 99t64 74t70.5 66t64.5 65.5t47.5 82t18.5 106v51q0 20 21 20h213q20 0 20 -20v-51q0 -75 -18.5 -137t-47.5 -104.5t-64 -79t-70.5 -66t-64.5 -58.5
t-47.5 -65.5t-18.5 -77.5q0 -66 49 -112t133 -46q90 0 153 48.5t86 144.5q7 17 13 19q3 1 8 1h209q20 0 20 -20zM688 1155h-237q-21 0 -21 21v237q0 21 21 21h237q21 0 21 -21v-237q0 -21 -21 -21z" />
    <glyph glyph-name="at.case" horiz-adv-x="1650" 
d="M1382 748q0 108 -32.5 201.5t-95.5 166.5t-165.5 115.5t-234.5 42.5q-113 0 -217.5 -40.5t-185 -113t-129 -182t-48.5 -238.5q0 -263 163.5 -428.5t416.5 -165.5q34 0 63.5 1.5t57 6t47.5 7.5t44.5 11.5t37 12.5t37.5 16t33 16t36 19t35 19q15 9 25 -8l71 -139
q7 -16 -8 -25q-111 -61 -222.5 -89t-256.5 -28q-165 0 -307.5 52t-248.5 149t-166 244.5t-60 328.5q0 142 42 264.5t115.5 211t172 152t213.5 95t239 31.5q134 0 250.5 -35.5t202.5 -99t148 -149.5t93 -189.5t31 -216.5q0 -225 -87 -347t-251 -122q-71 0 -125 27t-84 75
q-59 -51 -119 -76.5t-143 -25.5q-154 0 -253 96.5t-99 270.5q0 198 115.5 321t283.5 123q66 0 113 -17t94 -51l6 37q3 17 17 17h133q16 0 16 -17l-45 -411q-4 -50 -4 -72q0 -123 106 -123q61 0 95 72.5t34 206.5zM989 727q0 99 -41 152t-119 53q-70 0 -121 -40t-74.5 -98.5
t-23.5 -125.5q0 -96 45 -147.5t125 -51.5q93 0 151 74.5t58 183.5z" />
    <glyph glyph-name="guilsinglleft.case" horiz-adv-x="690" 
d="M598 1229v-230q0 -21 -14 -32l-279 -250l279 -250q14 -11 14 -33v-229q0 -15 -12 -15q-6 0 -13 7l-479 413q-20 17 -20 37v139q0 20 20 37l479 414q6 6 13 6q12 0 12 -14z" />
    <glyph glyph-name="guilsinglright.case" horiz-adv-x="690" 
d="M92 999v230q0 14 12 14q7 0 13 -6l479 -414q20 -17 20 -37v-139q0 -20 -20 -37l-479 -413q-7 -7 -13 -7q-12 0 -12 15v229q0 22 14 33l279 250l-279 250q-14 11 -14 32z" />
    <glyph glyph-name="guillemotleft.case" horiz-adv-x="1126" 
d="M598 1229v-230q0 -21 -14 -32l-279 -250l279 -250q14 -11 14 -33v-229q0 -15 -12 -15q-6 0 -13 7l-479 413q-20 17 -20 37v139q0 20 20 37l479 414q6 6 13 6q12 0 12 -14zM1034 1229v-230q0 -21 -14 -32l-279 -250l279 -250q14 -11 14 -33v-229q0 -15 -12 -15q-5 0 -12 7
l-480 413q-20 17 -20 37v139q0 20 20 37l480 414q6 6 12 6q12 0 12 -14z" />
    <glyph glyph-name="guillemotright.case" horiz-adv-x="1126" 
d="M528 999v230q0 14 13 14q6 0 12 -6l479 -414q21 -18 21 -37v-139q0 -19 -21 -37l-479 -413q-7 -7 -12 -7q-13 0 -13 15v229q0 21 15 33l278 250l-278 250q-15 12 -15 32zM92 999v230q0 14 12 14q7 0 13 -6l479 -414q20 -17 20 -37v-139q0 -20 -20 -37l-479 -413
q-7 -7 -13 -7q-12 0 -12 15v229q0 22 14 33l279 250l-279 250q-14 11 -14 32z" />
    <glyph glyph-name="zero.tn" 
d="M70 717q0 175 44 316.5t121 232.5t179.5 139.5t220.5 48.5t220.5 -48.5t179.5 -139.5t121 -232.5t44 -316.5t-44 -316.5t-121 -232.5t-179.5 -139.5t-220.5 -48.5t-220.5 48.5t-179.5 139.5t-121 232.5t-44 316.5zM324 717q0 -133 24 -231t67.5 -154.5t98 -83.5
t121.5 -27t121.5 27t98 83.5t67.5 154.5t24 231t-24 231t-67.5 154.5t-98 83t-121.5 26.5t-121.5 -26.5t-98 -83t-67.5 -154.5t-24 -231z" />
    <glyph glyph-name="one.tn" 
d="M1100 0h-897q-21 0 -21 20v201q0 21 21 21h323v860l-282 -152q-9 -6 -23 -6t-14 19v221q0 17 22 30l377 209q18 11 31 11h119q20 0 20 -21v-1171h324q20 0 20 -21v-201q0 -20 -20 -20z" />
    <glyph glyph-name="two.tn" 
d="M143 20v162q0 27 23 47l536 502q142 133 142 268q0 98 -59.5 155.5t-159.5 57.5q-99 0 -161.5 -57t-72.5 -162q-1 -18 -6.5 -24t-19.5 -6h-195q-25 0 -25 30q5 192 138 326.5t342 134.5q215 0 342 -121t127 -319q0 -135 -51.5 -230.5t-174.5 -212.5l-350 -329h598
q21 0 21 -21v-201q0 -20 -21 -20h-952q-21 0 -21 20z" />
    <glyph glyph-name="three.tn" 
d="M481 666v196q0 23 23 23h112q117 0 170.5 46.5t53.5 121.5t-51.5 117t-145.5 42q-84 0 -145.5 -46t-79.5 -134q-4 -16 -9 -20t-18 -4h-194q-27 0 -27 34q12 178 146 295t319 117q198 0 326.5 -105t128.5 -276q0 -183 -158 -297q39 -18 74 -45.5t69.5 -70t55 -105.5
t20.5 -137q0 -204 -142 -321t-374 -117q-215 0 -358.5 125t-155.5 341q3 35 26 35h193q27 0 29 -26q6 -62 31 -108.5t64 -73.5t84.5 -39.5t98.5 -12.5q113 0 181.5 57t68.5 164q0 94 -71.5 147.5t-209.5 53.5h-112q-23 0 -23 23z" />
    <glyph glyph-name="four.tn" 
d="M723 20v218h-596q-21 0 -21 20v158q0 23 17 47l647 954q10 17 27 17h155q21 0 21 -21v-934h203q20 0 20 -20v-201q0 -20 -20 -20h-203v-218q0 -20 -23 -20h-207q-20 0 -20 20zM723 963l-324 -484h324v484z" />
    <glyph glyph-name="five.tn" 
d="M162 616l88 797q3 21 20 21h803q21 0 21 -21v-201q0 -20 -21 -20h-592l-49 -307q127 65 279 65q212 0 335 -125.5t123 -355.5q0 -121 -39 -215.5t-109 -153.5t-162 -89.5t-202 -30.5q-219 0 -356 120.5t-149 323.5q0 31 24 31h199q12 0 16.5 -6t9.5 -25
q22 -104 93.5 -153.5t175.5 -49.5q112 0 181 64t69 180q0 113 -70 178.5t-191 65.5q-151 0 -268 -95q-3 -2 -8.5 -6.5t-8.5 -6.5t-7.5 -3.5t-10.5 -1.5h-174q-20 0 -20 20z" />
    <glyph glyph-name="six.tn" 
d="M127 653q0 204 39.5 359t112 250.5t169.5 143.5t216 48q193 0 319.5 -106t146.5 -279q0 -13 -5 -16.5t-17 -3.5h-205q-16 0 -22 20q-19 54 -52.5 87t-72.5 44.5t-92 11.5q-49 0 -91.5 -18.5t-81.5 -60t-66.5 -119.5t-39.5 -187q141 99 313 99q204 0 336.5 -129
t132.5 -344q0 -108 -42 -198.5t-112.5 -150t-162 -92t-191.5 -32.5q-114 0 -208.5 39t-168 118.5t-114.5 211t-41 304.5zM426 453q0 -104 68 -168t178 -64t178 64t68 168t-68 167.5t-178 63.5t-178 -63.5t-68 -167.5z" />
    <glyph glyph-name="seven.tn" 
d="M184 1212v201q0 21 21 21h925q21 0 21 -21v-160q0 -21 -10 -51l-479 -1188q-6 -14 -23 -14h-209q-20 0 -20 16q0 3 4 15l469 1161h-678q-21 0 -21 20z" />
    <glyph glyph-name="eight.tn" 
d="M182 1055q0 124 64 216t165.5 137.5t223.5 45.5t223.5 -45.5t165 -137.5t63.5 -216q0 -177 -155 -293q45 -29 77 -57t62.5 -68t46 -93t15.5 -118q0 -194 -137.5 -320t-360.5 -126t-360.5 126t-137.5 320q0 65 15.5 118t46 93t62.5 68t77 57q-156 117 -156 293zM391 428
q0 -96 68.5 -151.5t175.5 -55.5t175.5 55.5t68.5 151.5t-68.5 151.5t-175.5 55.5t-175.5 -55.5t-68.5 -151.5zM428 1047q0 -81 56.5 -128t150.5 -47t150.5 47t56.5 128q0 84 -56 127t-151 43t-151 -43t-56 -127z" />
    <glyph glyph-name="nine.tn" 
d="M1143 780q0 -204 -39.5 -358.5t-112 -250.5t-169.5 -143.5t-216 -47.5q-193 0 -320 106t-147 279q0 12 5.5 16t17.5 4h205q16 0 22 -20q28 -80 82.5 -112t134.5 -32q49 0 91.5 18.5t81.5 60t66.5 119.5t39.5 187q-140 -98 -314 -98q-205 0 -337 128.5t-132 344.5
q0 108 42 198.5t112.5 150t162 92t191.5 32.5q114 0 208.5 -39.5t168 -118.5t115 -211t41.5 -305zM844 981q0 104 -68 167.5t-178 63.5t-178 -63.5t-68 -167.5t68 -167.5t178 -63.5t178 63.5t68 167.5z" />
    <glyph glyph-name="zero.slashtn" 
d="M70 717q0 175 44 316.5t121 232.5t179.5 139.5t220.5 48.5t220.5 -48.5t179.5 -139.5t121 -232.5t44 -316.5t-44 -316.5t-121 -232.5t-179.5 -139.5t-220.5 -48.5t-220.5 48.5t-179.5 139.5t-121 232.5t-44 316.5zM946 717q0 255 -94 387l-229 -883h12q67 0 121.5 27
t98 83.5t67.5 154.5t24 231zM324 717q0 -255 94 -387l229 882h-12q-67 0 -121.5 -26.5t-98 -83t-67.5 -154.5t-24 -231z" />
    <glyph glyph-name="zero.slash" horiz-adv-x="1273" 
d="M72 717q0 175 44 316.5t121 232.5t179.5 139.5t220.5 48.5t220.5 -48.5t179.5 -139.5t121 -232.5t44 -316.5t-44 -316.5t-121 -232.5t-179.5 -139.5t-220.5 -48.5t-220.5 48.5t-179.5 139.5t-121 232.5t-44 316.5zM948 717q0 255 -94 387l-229 -883h12q67 0 121.5 27
t98 83.5t67.5 154.5t24 231zM326 717q0 -255 94 -387l229 882h-12q-67 0 -121.5 -26.5t-98 -83t-67.5 -154.5t-24 -231z" />
    <glyph glyph-name="zero.slashposn" horiz-adv-x="1273" 
d="M86 514q0 124 43.5 226t118.5 169t175 103.5t214 36.5t214 -36.5t175 -103.5t118.5 -169t43.5 -226q0 -164 -75 -287t-199 -185t-277 -62t-277 62t-199 185t-75 287zM942 514q0 131 -72 209l-280 -518q28 -4 47 -4q134 0 219.5 88.5t85.5 224.5zM332 514q0 -132 71 -209
l281 518q-28 4 -47 4q-134 0 -219.5 -88.5t-85.5 -224.5z" />
    <glyph glyph-name="zero.slashtosn" 
d="M84 514q0 124 43.5 226t118.5 169t175 103.5t214 36.5t214 -36.5t175 -103.5t118.5 -169t43.5 -226q0 -164 -75 -287t-199 -185t-277 -62t-277 62t-199 185t-75 287zM940 514q0 131 -72 209l-280 -518q28 -4 47 -4q134 0 219.5 88.5t85.5 224.5zM330 514q0 -132 71 -209
l281 518q-28 4 -47 4q-134 0 -219.5 -88.5t-85.5 -224.5z" />
    <glyph glyph-name="zero.slashsuperior" horiz-adv-x="790" 
d="M72 1051q0 98 27 175t72.5 124t102 71.5t119.5 24.5t120 -24.5t103 -71.5t73.5 -124t27.5 -175q0 -96 -27.5 -173.5t-73.5 -125t-103 -72.5t-120 -25t-119.5 25t-102 72.5t-72.5 125t-27 173.5zM248 1051q0 -101 31 -158l100 389q-60 -8 -95.5 -64.5t-35.5 -166.5z
M541 1051q0 100 -31 157l-100 -389q59 8 95 65t36 167z" />
    <glyph glyph-name="zero.slashinferior" horiz-adv-x="788" 
d="M72 -23q0 191 94 293.5t227 102.5q63 0 120 -24.5t103 -71.5t73.5 -124.5t27.5 -175.5q0 -188 -95.5 -291.5t-228.5 -103.5q-63 0 -119.5 25t-102 72.5t-72.5 124.5t-27 173zM248 -23q0 -100 31 -157l100 389q-59 -8 -95 -65t-36 -167zM541 -23q0 101 -31 158l-100 -389
q60 8 95.5 64.5t35.5 166.5z" />
    <glyph glyph-name="a.alt" horiz-adv-x="1228" 
d="M1098 1008v-988q0 -20 -21 -20h-209q-20 0 -20 20v48q-118 -88 -287 -88q-98 0 -185.5 37t-153.5 104t-105 169t-39 224t39 224t105 169.5t153.5 104.5t185.5 37q169 0 287 -88v47q0 20 20 20h209q21 0 21 -20zM864 514q0 138 -71.5 225.5t-192.5 87.5t-192.5 -87.5
t-71.5 -225.5t71.5 -225.5t192.5 -87.5t192.5 87.5t71.5 225.5z" />
    <glyph glyph-name="aacute.alt" horiz-adv-x="1228" 
d="M1098 1008v-988q0 -20 -21 -20h-209q-20 0 -20 20v48q-118 -88 -287 -88q-98 0 -185.5 37t-153.5 104t-105 169t-39 224t39 224t105 169.5t153.5 104.5t185.5 37q169 0 287 -88v47q0 20 20 20h209q21 0 21 -20zM864 514q0 138 -71.5 225.5t-192.5 87.5t-192.5 -87.5
t-71.5 -225.5t71.5 -225.5t192.5 -87.5t192.5 87.5t71.5 225.5zM428 1155l141 258q12 21 31 21h260q10 0 13 -7t-3 -14l-211 -260q-13 -18 -36 -18h-185q-10 0 -12.5 6.5t2.5 13.5z" />
    <glyph glyph-name="agrave.alt" horiz-adv-x="1228" 
d="M1098 1008v-988q0 -20 -21 -20h-209q-20 0 -20 20v48q-118 -88 -287 -88q-98 0 -185.5 37t-153.5 104t-105 169t-39 224t39 224t105 169.5t153.5 104.5t185.5 37q169 0 287 -88v47q0 20 20 20h209q21 0 21 -20zM864 514q0 138 -71.5 225.5t-192.5 87.5t-192.5 -87.5
t-71.5 -225.5t71.5 -225.5t192.5 -87.5t192.5 87.5t71.5 225.5zM584 1413l141 -258q5 -7 2.5 -13.5t-12.5 -6.5h-185q-21 0 -36 18l-211 260q-6 7 -3 14t13 7h260q19 0 31 -21z" />
    <glyph glyph-name="acircumflex.alt" horiz-adv-x="1228" 
d="M1098 1008v-988q0 -20 -21 -20h-209q-20 0 -20 20v48q-118 -88 -287 -88q-98 0 -185.5 37t-153.5 104t-105 169t-39 224t39 224t105 169.5t153.5 104.5t185.5 37q169 0 287 -88v47q0 20 20 20h209q21 0 21 -20zM864 514q0 138 -71.5 225.5t-192.5 87.5t-192.5 -87.5
t-71.5 -225.5t71.5 -225.5t192.5 -87.5t192.5 87.5t71.5 225.5zM705 1417l221 -291q6 -8 2.5 -14t-13.5 -6h-192q-19 0 -37 18l-96 97l-96 -97q-18 -18 -37 -18h-193q-10 0 -13 6t3 14l221 291q17 17 31 17h168q14 0 31 -17z" />
    <glyph glyph-name="adieresis.alt" horiz-adv-x="1228" 
d="M1098 1008v-988q0 -20 -21 -20h-209q-20 0 -20 20v48q-118 -88 -287 -88q-98 0 -185.5 37t-153.5 104t-105 169t-39 224t39 224t105 169.5t153.5 104.5t185.5 37q169 0 287 -88v47q0 20 20 20h209q21 0 21 -20zM864 514q0 138 -71.5 225.5t-192.5 87.5t-192.5 -87.5
t-71.5 -225.5t71.5 -225.5t192.5 -87.5t192.5 87.5t71.5 225.5zM279 1192v221q0 21 20 21h221q21 0 21 -21v-221q0 -21 -21 -21h-221q-20 0 -20 21zM643 1192v221q0 21 21 21h221q20 0 20 -21v-221q0 -21 -20 -21h-221q-21 0 -21 21z" />
    <glyph glyph-name="atilde.alt" horiz-adv-x="1228" 
d="M1098 1008v-988q0 -20 -21 -20h-209q-20 0 -20 20v48q-118 -88 -287 -88q-98 0 -185.5 37t-153.5 104t-105 169t-39 224t39 224t105 169.5t153.5 104.5t185.5 37q169 0 287 -88v47q0 20 20 20h209q21 0 21 -20zM864 514q0 138 -71.5 225.5t-192.5 87.5t-192.5 -87.5
t-71.5 -225.5t71.5 -225.5t192.5 -87.5t192.5 87.5t71.5 225.5zM195 1362q129 100 237 100q53 0 95 -12.5t64.5 -27.5t54.5 -27.5t69 -12.5q54 0 131 50q9 6 16 6q11 0 21 -17l88 -121q4 -8 4 -14q0 -9 -12 -18q-131 -101 -238 -101q-54 0 -96.5 12.5t-64.5 27.5t-54 27.5
t-68 12.5q-55 0 -131 -49q-6 -6 -16 -6q-11 0 -21 16l-88 121q-4 8 -4 14q0 9 13 19z" />
    <glyph glyph-name="aring.alt" horiz-adv-x="1228" 
d="M1098 1008v-988q0 -20 -21 -20h-209q-20 0 -20 20v48q-118 -88 -287 -88q-98 0 -185.5 37t-153.5 104t-105 169t-39 224t39 224t105 169.5t153.5 104.5t185.5 37q169 0 287 -88v47q0 20 20 20h209q21 0 21 -20zM864 514q0 138 -71.5 225.5t-192.5 87.5t-192.5 -87.5
t-71.5 -225.5t71.5 -225.5t192.5 -87.5t192.5 87.5t71.5 225.5zM367 1274q0 88 59 144.5t152 56.5t151.5 -56.5t58.5 -144.5t-58.5 -144.5t-151.5 -56.5t-152 56.5t-59 144.5zM506 1274q0 -34 20 -52t52 -18t51.5 18t19.5 52t-19.5 51.5t-51.5 17.5t-52 -17.5t-20 -51.5z
" />
    <glyph glyph-name="amacron.alt" horiz-adv-x="1228" 
d="M1098 1008v-988q0 -20 -21 -20h-209q-20 0 -20 20v48q-118 -88 -287 -88q-98 0 -185.5 37t-153.5 104t-105 169t-39 224t39 224t105 169.5t153.5 104.5t185.5 37q169 0 287 -88v47q0 20 20 20h209q21 0 21 -20zM864 514q0 138 -71.5 225.5t-192.5 87.5t-192.5 -87.5
t-71.5 -225.5t71.5 -225.5t192.5 -87.5t192.5 87.5t71.5 225.5zM344 1200v184q0 21 21 21h442q20 0 20 -21v-184q0 -20 -20 -20h-442q-21 0 -21 20z" />
    <glyph glyph-name="abreve.alt" horiz-adv-x="1228" 
d="M1098 1008v-988q0 -20 -21 -20h-209q-20 0 -20 20v48q-118 -88 -287 -88q-98 0 -185.5 37t-153.5 104t-105 169t-39 224t39 224t105 169.5t153.5 104.5t185.5 37q169 0 287 -88v47q0 20 20 20h209q21 0 21 -20zM864 514q0 138 -71.5 225.5t-192.5 87.5t-192.5 -87.5
t-71.5 -225.5t71.5 -225.5t192.5 -87.5t192.5 87.5t71.5 225.5zM317 1425h160q21 0 21 -20q0 -105 77 -105q78 0 78 105q0 20 21 20h160q20 0 20 -20q0 -131 -77 -206t-202 -75t-201.5 75t-76.5 206q0 20 20 20z" />
    <glyph glyph-name="aogonek.alt" horiz-adv-x="1228" 
d="M1098 1008v-988q0 -14 -13 -20q-79 -37 -79 -113q0 -73 84 -73h40q21 0 21 -21v-131q0 -20 -21 -20h-110q-112 0 -179 48.5t-67 137.5q0 86 74 152v88q-118 -88 -287 -88q-98 0 -185.5 37t-153.5 104t-105 169t-39 224t39 224t105 169.5t153.5 104.5t185.5 37
q169 0 287 -88v47q0 20 20 20h209q21 0 21 -20zM864 514q0 138 -71.5 225.5t-192.5 87.5t-192.5 -87.5t-71.5 -225.5t71.5 -225.5t192.5 -87.5t192.5 87.5t71.5 225.5z" />
    <glyph glyph-name="aringacute.alt" horiz-adv-x="1228" 
d="M1098 1008v-988q0 -20 -21 -20h-209q-20 0 -20 20v48q-118 -88 -287 -88q-98 0 -185.5 37t-153.5 104t-105 169t-39 224t39 224t105 169.5t153.5 104.5t185.5 37q169 0 287 -88v47q0 20 20 20h209q21 0 21 -20zM864 514q0 138 -71.5 225.5t-192.5 87.5t-192.5 -87.5
t-71.5 -225.5t71.5 -225.5t192.5 -87.5t192.5 87.5t71.5 225.5zM420 1561l141 258q11 20 31 20h260q10 0 13 -6.5t-3 -13.5l-211 -260q-14 -19 -37 -19h-184q-10 0 -12.5 7t2.5 14zM375 1274q0 88 59 144.5t152 56.5t152 -56.5t59 -144.5t-59 -144.5t-152 -56.5t-152 56.5
t-59 144.5zM514 1274q0 -34 20 -52t52 -18t51.5 18t19.5 52t-19.5 51.5t-51.5 17.5t-52 -17.5t-20 -51.5z" />
    <glyph glyph-name="g.alt" horiz-adv-x="1241" 
d="M637 350q-71 0 -119.5 13t-101.5 47q-99 -44 -99 -115q0 -86 107 -86q37 0 128 18.5t171 18.5q199 0 321.5 -86t122.5 -238q0 -173 -132 -260.5t-371 -87.5q-244 0 -374 84t-130 238q0 90 59 153q-133 86 -133 238q0 191 201 272q-35 62 -35 139q0 161 112 256t273 95
q92 0 182 -41l148 135q8 8 16 8q6 0 16 -10l121 -131q8 -8 8 -17q0 -8 -10 -18l-131 -123q20 -37 27.5 -69.5t7.5 -84.5q0 -168 -110.5 -258t-274.5 -90zM397 -82q0 -33 23 -58t62.5 -38.5t85 -20t96.5 -6.5q120 0 180.5 29.5t60.5 93.5q0 113 -215 113q-70 0 -142 -12
t-87 -13q-64 -39 -64 -88zM498 698q0 -65 38.5 -100t100.5 -35t100.5 35t38.5 100q0 67 -38.5 102.5t-100.5 35.5t-100.5 -35.5t-38.5 -102.5z" />
    <glyph glyph-name="gcircumflex.alt" horiz-adv-x="1241" 
d="M637 350q-71 0 -119.5 13t-101.5 47q-99 -44 -99 -115q0 -86 107 -86q37 0 128 18.5t171 18.5q199 0 321.5 -86t122.5 -238q0 -173 -132 -260.5t-371 -87.5q-244 0 -374 84t-130 238q0 90 59 153q-133 86 -133 238q0 191 201 272q-35 62 -35 139q0 161 112 256t273 95
q92 0 182 -41l148 135q8 8 16 8q6 0 16 -10l121 -131q8 -8 8 -17q0 -8 -10 -18l-131 -123q20 -37 27.5 -69.5t7.5 -84.5q0 -168 -110.5 -258t-274.5 -90zM397 -82q0 -33 23 -58t62.5 -38.5t85 -20t96.5 -6.5q120 0 180.5 29.5t60.5 93.5q0 113 -215 113q-70 0 -142 -12
t-87 -13q-64 -39 -64 -88zM498 698q0 -65 38.5 -100t100.5 -35t100.5 35t38.5 100q0 67 -38.5 102.5t-100.5 35.5t-100.5 -35.5t-38.5 -102.5zM729 1475l221 -291q6 -8 3 -14.5t-13 -6.5h-192q-18 0 -37 19l-97 96l-96 -96q-19 -19 -37 -19h-192q-10 0 -13 6.5t3 14.5
l221 291q16 16 30 16h168q15 0 31 -16z" />
    <glyph glyph-name="gbreve.alt" horiz-adv-x="1241" 
d="M637 350q-71 0 -119.5 13t-101.5 47q-99 -44 -99 -115q0 -86 107 -86q37 0 128 18.5t171 18.5q199 0 321.5 -86t122.5 -238q0 -173 -132 -260.5t-371 -87.5q-244 0 -374 84t-130 238q0 90 59 153q-133 86 -133 238q0 191 201 272q-35 62 -35 139q0 161 112 256t273 95
q92 0 182 -41l148 135q8 8 16 8q6 0 16 -10l121 -131q8 -8 8 -17q0 -8 -10 -18l-131 -123q20 -37 27.5 -69.5t7.5 -84.5q0 -168 -110.5 -258t-274.5 -90zM397 -82q0 -33 23 -58t62.5 -38.5t85 -20t96.5 -6.5q120 0 180.5 29.5t60.5 93.5q0 113 -215 113q-70 0 -142 -12
t-87 -13q-64 -39 -64 -88zM498 698q0 -65 38.5 -100t100.5 -35t100.5 35t38.5 100q0 67 -38.5 102.5t-100.5 35.5t-100.5 -35.5t-38.5 -102.5zM379 1425h160q20 0 20 -20q0 -105 78 -105t78 105q0 20 20 20h160q20 0 20 -20q0 -131 -76.5 -206t-201.5 -75t-202 75t-77 206
q0 20 21 20z" />
    </font>
</defs>
</svg>
